<?xml version="1.0" standalone="no"?>
<!DOCTYPE svg PUBLIC "-//W3C//DTD SVG 1.1//EN" "http://www.w3.org/Graphics/SVG/1.1/DTD/svg11.dtd" >
<svg xmlns="http://www.w3.org/2000/svg">
<metadata></metadata>
<defs>
<font id="exodemibolditalic" horiz-adv-x="613" >
<font-face units-per-em="1000" ascent="800" descent="-200" />
<missing-glyph horiz-adv-x="250" />
<glyph unicode="fi" horiz-adv-x="591" d="M51 436l12 78l93 17l9 55q15 94 78 146.5t162 53.5q42 0 112 -9.5t101 -20.5l-12 -71l-178 7q-23 1 -45 -3.5t-44.5 -16.5t-38.5 -37.5t-22 -62.5l-6 -41l350 -10l-83 -521h-116l68 436h-236l-69 -436h-116l69 436h-88z" />
<glyph unicode="fl" horiz-adv-x="690" d="M85 436l13 77l93 18l8 41q18 118 76.5 165.5t154.5 47.5l282 -1l-92 -581q-4 -26 -5 -44t1 -29t8 -18t12.5 -10t17.5 -7q62 -19 65 -19l-12 -76h-82q-71 0 -105 44.5t-18 144.5l79 502h-152q-50 0 -78 -27t-38 -96l-6 -37h142l-15 -95h-142l-72 -436h-116l71 436h-90z " />
<glyph unicode="&#xd;" horiz-adv-x="1000" />
<glyph unicode=" "  horiz-adv-x="250" />
<glyph unicode="&#x09;" horiz-adv-x="250" />
<glyph unicode="&#xa0;" horiz-adv-x="250" />
<glyph unicode="!" horiz-adv-x="269" d="M75 23l13 78q3 25 28 25h76q11 0 15.5 -7t3.5 -18l-13 -78q-3 -23 -26 -23h-76q-10 0 -16 6.5t-5 16.5zM112 199l74 532h122l-96 -532h-100z" />
<glyph unicode="&#x22;" horiz-adv-x="421" d="M167 531l10 134l11 67h113l-11 -67l-31 -134h-92zM331 531l10 134l11 67h113l-11 -67l-31 -134h-92z" />
<glyph unicode="#" horiz-adv-x="708" d="M51 218l25 80h154l44 137h-155l26 80h157l71 217h80l-71 -217h138l71 217h80l-71 -217h174l-26 -80h-174l-44 -138h174l-24 -80h-178l-71 -217h-80l71 217l-139 1l-71 -218h-80l71 218h-152zM310 298l140 -1l44 138h-140z" />
<glyph unicode="$" horiz-adv-x="571" d="M72 20l15 87q8 0 53.5 -2t92.5 -3.5t88 -1.5q12 0 23 1t23.5 4t23.5 9t20.5 14t16 19.5t9.5 26.5l8 50q3 21 3.5 32.5t-4 24t-19.5 17.5t-41 5h-105q-38 0 -67 9.5t-45.5 26t-27.5 36t-14.5 42.5t-3.5 42.5t3 38.5l10 64q6 42 21 73t35 50t47.5 31t55.5 16.5t63 5.5 l14 86h76l-14 -88q89 -6 179 -25l-15 -91q-208 10 -228 10q-52 1 -81.5 -16.5t-38.5 -67.5l-7 -47q-3 -20 -1.5 -35t9.5 -25t24.5 -15t43.5 -5h107q41 0 70.5 -12.5t43.5 -33t22 -46t6.5 -52t-4.5 -51.5l-9 -56q-29 -183 -239 -176l-13 -82h-76l14 85q-97 7 -167 25z" />
<glyph unicode="%" horiz-adv-x="963" d="M110 483l20 126q10 66 42.5 94.5t110.5 28.5h101q67 0 93.5 -32.5t16.5 -100.5l-20 -126q-8 -46 -23.5 -72.5t-46.5 -39t-82 -12.5h-101q-63 0 -92 35t-19 99zM198 488q-5 -30 4 -41.5t40 -11.5h84q34 0 46.5 11t17.5 42l16 105q5 21 1.5 33t-13 16t-33.5 4h-83 q-34 0 -46.5 -11t-17.5 -42zM213 0l560 732h89l-557 -732h-92zM585 133l20 126q10 66 42.5 95.5t110.5 29.5h101q67 0 93.5 -33t16.5 -101l-19 -126q-11 -68 -44 -95.5t-110 -27.5h-101q-62 0 -90.5 34.5t-19.5 97.5zM673 140q-2 -15 -1.5 -25t5.5 -16.5t15 -9t26 -2.5h83 q34 0 46.5 11t17.5 42l16 105q6 33 -2.5 43t-42.5 10h-83q-34 0 -46.5 -11t-17.5 -42z" />
<glyph unicode="&#x26;" horiz-adv-x="655" d="M88 82q-45 74 -25 149t100 135l92 70l-43 75q-31 56 -20.5 103t46 78t79.5 36q92 8 147 3.5t129 -21.5l-13 -82h-179q-32 0 -52.5 -5t-31.5 -16.5t-8 -32.5t21 -52l153 -267l135 118l35 -43l-70 -120l-47 -45l96 -165h-125l-59 100l-74 -63q-38 -31 -91.5 -40.5t-108 12 t-86.5 73.5zM183 143q25 -36 65 -41.5t78 25.5l70 61l-94 157l-72 -55q-97 -73 -47 -147z" />
<glyph unicode="'" horiz-adv-x="210" d="M142 531l10 134l11 67h117l-11 -67l-31 -134h-96z" />
<glyph unicode="(" horiz-adv-x="361" d="M115 316q15 91 46.5 178.5t65.5 147t65.5 106t52.5 69.5l20 22h117q-8 -10 -21.5 -27.5t-50.5 -74t-68 -116t-63.5 -146t-47.5 -170.5q-12 -65 -13.5 -129.5t5 -116t16.5 -98.5t23 -81t24 -59.5t19 -38.5l7 -13h-112q-3 4 -8 12.5t-18.5 36.5t-25 59.5t-23.5 80.5 t-18 100.5t-4.5 119.5t12.5 138z" />
<glyph unicode=")" horiz-adv-x="363" d="M-16 -231q8 9 21.5 26.5t50 73t67.5 114.5t63.5 147t48.5 174q15 93 12.5 174t-17.5 147.5t-32 114t-31 73.5l-14 26h113q3 -5 8 -13.5t18.5 -37.5t24.5 -60.5t23 -81.5t18 -101t5 -118t-12 -134q-16 -94 -46.5 -182.5t-63.5 -148t-63.5 -105t-49.5 -67.5l-20 -21h-124z " />
<glyph unicode="*" horiz-adv-x="431" d="M131 566l8 50l143 26l-8 -81zM169 415l45 136l76 -19l-77 -132zM271 470l55 68l97 -90l-35 -41zM283 719l51 18l51 -121l-80 -32zM334 571l132 78l19 -43l-110 -97z" />
<glyph unicode="+" horiz-adv-x="495" d="M87 305l17 102h156l25 157h102l-25 -157h158l-17 -102h-158l-25 -157h-102l25 157h-156z" />
<glyph unicode="," horiz-adv-x="263" d="M63 -88l7 42q14 0 22 5.5t10 10t3 12.5l3 18h-11q-11 0 -17 6.5t-4 18.5l12 75q4 27 29 27h72q23 0 20 -27l-18 -111q-5 -29 -19.5 -48t-32.5 -24.5t-35.5 -7.5t-28.5 1z" />
<glyph unicode="-" horiz-adv-x="354" d="M60 239l17 102h314l-17 -102h-314z" />
<glyph unicode="." horiz-adv-x="265" d="M75 23l13 78q3 25 28 25h74q25 0 21 -25l-13 -78q-4 -23 -28 -23h-74q-11 0 -16.5 6.5t-4.5 16.5z" />
<glyph unicode="/" horiz-adv-x="436" d="M5 -72l414 842h121l-414 -842h-121z" />
<glyph unicode="0" horiz-adv-x="633" d="M86 172l61 384q28 176 200 176h164q47 0 80.5 -15t49.5 -39t23 -55t0 -63l-61 -388q-15 -88 -62.5 -130t-132.5 -42h-164q-83 0 -127.5 43.5t-30.5 128.5zM204 187q-2 -13 -2 -23.5t1.5 -18t5 -13.5t7 -10t9.5 -6.5t10.5 -3.5t12.5 -2t12.5 -1h13.5h1h121q80 0 93 77 l57 360q6 40 -8.5 58.5t-56.5 18.5h-127q-81 0 -93 -77z" />
<glyph unicode="1" horiz-adv-x="367" d="M124 571l12 77q42 0 93.5 31t71.5 53h114l-115 -732h-116l97 606q-22 -16 -66 -25.5t-91 -9.5z" />
<glyph unicode="2" horiz-adv-x="589" d="M41 0l17 103q44 27 92.5 59.5t114 81t116.5 94.5t90 96t45 88q6 37 -3 61t-34.5 36.5t-69.5 12.5h-275l14 87q155 23 305 23q68 0 112 -33t59 -83.5t8 -112.5q-4 -34 -23 -73t-42 -71t-60.5 -69t-65 -61t-68.5 -55.5t-57.5 -43t-45.5 -31.5h294l-17 -109h-506z" />
<glyph unicode="3" horiz-adv-x="587" d="M34 21l14 82h270q105 0 117 77l7 42q2 13 2 24t-1 19.5t-5 14.5t-7.5 10.5t-10.5 7.5t-12.5 5t-15.5 3t-16.5 1.5t-18.5 1.5l-214 8l15 93l216 9q27 1 46 6t33.5 15t23 24.5t11.5 35.5l7 48q4 24 -1 40t-19.5 23.5t-30 10.5t-37.5 3h-283l12 81q44 15 100.5 21.5t110.5 7 t116 -0.5q76 -2 119 -52t31 -127l-9 -59q-7 -38 -20.5 -66t-32 -44.5t-42.5 -21.5q34 -14 46.5 -55t3.5 -99l-9 -49q-26 -168 -211 -168h-36.5h-39t-35 0.5t-37 1t-32.5 2t-35 3.5l-30 5t-32 7t-28 9z" />
<glyph unicode="4" horiz-adv-x="614" d="M52 224l362 508h134l-318 -450h214l29 182l47 76h83l-41 -258h79l-14 -90l-83 -22l-26 -168h-118l26 168h-349z" />
<glyph unicode="5" horiz-adv-x="599" d="M67 19l15 90h290q44 0 65 24t25 55l13 80q14 83 -61 83h-114q-19 0 -35 -6.5t-28.5 -21.5t-15.5 -37h-110l92 446h437l-17 -109h-325l-40 -193q28 23 82 27q29 2 44 2t41 -1t31 -2q73 -2 110 -53.5t26 -129.5l-16 -111q-5 -34 -16 -60t-26.5 -44t-33 -30.5t-39.5 -19.5 t-43.5 -9.5t-46.5 -3.5q-100 0 -155.5 4t-148.5 20z" />
<glyph unicode="6" d="M115 391q15 95 40.5 164.5t57.5 106.5t63.5 54.5t66.5 19.5q152 9 309 -19l-13 -88h-265q-31 0 -56 -21t-40.5 -56t-25 -66.5t-15.5 -68.5q107 20 228 21q39 1 68.5 -9.5t44.5 -28t23.5 -39.5t8 -46t-3.5 -47l-18 -120q-13 -83 -63 -115.5t-133 -32.5h-144 q-34 0 -59.5 10t-47 37t-32 70t-10 112.5t15.5 161.5zM223 333q-5 -31 -7.5 -56t-3 -52t4 -47t12.5 -37t23 -25.5t37 -8.5h104q74 0 85 70l13 88q7 40 -5.5 54t-53.5 14h-209z" />
<glyph unicode="7" horiz-adv-x="551" d="M124 623l17 109h467l24 -58l-358 -674h-130l336 623h-356z" />
<glyph unicode="8" horiz-adv-x="626" d="M89 170l12 82q6 32 21.5 55.5t36.5 35.5t48 16q-46 18 -59.5 59t-5.5 88l10 65q8 50 26 83.5t47 51t61 24.5t76 7h150q53 0 88 -20.5t49 -61.5t5 -98l-10 -58q-1 -11 -6.5 -26t-15.5 -33t-29.5 -32.5t-44.5 -18.5q20 -6 34 -23t19 -37.5t6.5 -42.5t-2.5 -38l-14 -90 q-7 -43 -22.5 -73.5t-32.5 -46.5t-44 -25t-47.5 -11t-50.5 -2h-149q-36 0 -64 7t-45 18t-28 27.5t-16 31t-6 32.5t0 29.5t3 24.5zM206 172q-4 -25 2 -39.5t23 -20.5t47 -6h113q21 0 38 6t30 21t16 39l14 82q5 34 -11.5 51.5t-49.5 17.5h-122q-76 0 -87 -69zM257 494 q-6 -39 13.5 -54.5t50.5 -15.5h122q43 0 60.5 19t22.5 51l9 55q8 49 -6.5 66t-54.5 17h-113q-48 0 -68 -18.5t-28 -64.5z" />
<glyph unicode="9" horiz-adv-x="612" d="M77 19l14 88h265q25 0 46.5 14.5t35.5 36.5t26 52t18 55.5t11 52.5q-107 -20 -228 -21q-40 0 -69 11t-44 28.5t-23.5 40.5t-7.5 47t3 47l17 113q14 84 63.5 118t132.5 34h144q34 0 60 -11t47.5 -38.5t32 -72t9.5 -114.5t-16 -162q-7 -49 -17.5 -90.5t-23 -73.5t-26.5 -58 t-30 -44.5t-31.5 -32.5t-33 -22t-33 -12t-32.5 -5q-166 -9 -310 19zM239 471q-6 -27 -1 -42t18.5 -20.5t41.5 -5.5h209q7 47 9 83t-2.5 71t-23 53.5t-49.5 18.5h-105q-73 0 -84 -70z" />
<glyph unicode=":" horiz-adv-x="266" d="M75 23l13 78q3 25 28 25h74q25 0 21 -25l-13 -78q-4 -23 -28 -23h-74q-11 0 -16.5 6.5t-4.5 16.5zM140 429l12 78q3 25 28 25h74q25 0 21 -25l-12 -78q-4 -23 -29 -23h-74q-11 0 -16.5 6t-3.5 17z" />
<glyph unicode=";" horiz-adv-x="266" d="M63 -88l7 42q14 0 22 5.5t10 10t3 12.5l3 18h-11q-10 0 -16.5 7.5t-4.5 17.5l12 75q1 12 9.5 19.5t19.5 7.5h72q23 0 20 -27l-18 -111q-5 -29 -19.5 -48t-32.5 -24.5t-35.5 -7.5t-28.5 1zM141 429l12 78q4 25 28 25h74q26 0 21 -25l-12 -78q-4 -23 -28 -23h-74 q-11 0 -16.5 6.5t-4.5 16.5z" />
<glyph unicode="&#x3c;" horiz-adv-x="458" d="M89 297l18 112l398 151l-17 -112l-269 -99l237 -104l-18 -109z" />
<glyph unicode="=" horiz-adv-x="467" d="M50 194l17 102h427l-17 -102h-427zM83 407l17 102h427l-17 -102h-427z" />
<glyph unicode="&#x3e;" horiz-adv-x="459" d="M64 136l18 113l272 108l-241 97l18 106l350 -151l-17 -112z" />
<glyph unicode="?" horiz-adv-x="541" d="M116 632l14 84q63 10 96 14.5t84.5 7.5t105.5 1q67 0 111.5 -29t60.5 -72.5t7 -93.5l-13 -91q-16 -104 -81 -140.5t-180 -23.5q0 -1 -3.5 -23.5t-7 -45.5t-3.5 -25h-100l29 183q83 -1 124 0q27 1 48 9.5t37.5 28t21.5 49.5l11 71q8 52 -16 74t-89 22h-257zM169 23l12 78 q4 25 28 25h74q26 0 21 -25l-12 -78q-4 -23 -28 -23h-74q-11 0 -17 6.5t-4 16.5z" />
<glyph unicode="@" horiz-adv-x="886" d="M56 26l78 495q15 96 72.5 144t164.5 48h368q95 0 131.5 -56.5t21.5 -156.5l-50 -336q-3 -25 -9 -44.5t-19 -42t-32 -38t-51 -26t-73 -10.5h-78l-24 57q-53 -64 -141 -64q-195 0 -152 285q40 264 225 264q160 0 227 -65l-55 -378q40 0 59 16.5t27 73.5l47 315q4 21 4 38 t-2.5 28t-8 19t-11.5 12t-16 6t-18.5 3t-21.5 1h-368q-33 0 -57 -10.5t-36 -29t-17.5 -33.5t-8.5 -34l-77 -487q-8 -50 9.5 -79t76.5 -29h386l-12 -71q-135 -27 -292 -27h-95q-68 0 -111 30t-57 77t-4 105zM359 261q-11 -89 2.5 -128t67.5 -38q42 0 74 14t64 49l43 277 q-50 12 -124 12q-17 0 -32 -4.5t-30 -17t-27 -32.5t-22 -53.5t-16 -78.5z" />
<glyph unicode="A" horiz-adv-x="677" d="M38 0l371 732h128l129 -732h-118l-33 177h-259l-90 -177h-128zM306 283h195l-49 296z" />
<glyph unicode="B" horiz-adv-x="598" d="M68 0l116 732h291q44 0 77 -11.5t52 -31.5t31 -46t13 -55t-2 -58q-8 -63 -41.5 -101.5t-81.5 -48.5q37 -6 63 -55.5t17 -125.5q-14 -106 -70.5 -152.5t-171.5 -46.5h-293zM201 106h174q94 0 112 110q8 50 -10.5 83.5t-66.5 33.5h-173zM253 435h170q45 0 72 24.5t35 71.5 q8 54 -12.5 75t-62.5 21h-171z" />
<glyph unicode="C" horiz-adv-x="573" d="M106 379q15 92 35.5 155.5t55.5 112t87.5 71t125.5 22.5q123 0 247 -33l-15 -92q-127 17 -226 16h-4q-14 0 -22 -0.5t-23 -3t-24 -7t-23 -13.5t-23.5 -22t-21.5 -33t-20.5 -46t-17.5 -61.5t-15 -78.5q-22 -127 2 -193t104 -70q83 -2 237 8l-14 -91q-91 -28 -256 -26 q-54 0 -94 21.5t-62.5 57.5t-33.5 86t-10 104.5t11 115.5z" />
<glyph unicode="D" horiz-adv-x="660" d="M68 0l116 731q0 1 288 1q52 0 91.5 -17t62 -47t36.5 -66.5t17.5 -81t1.5 -85t-9 -83.5q-29 -180 -102.5 -266t-207.5 -86h-294zM201 107h165q77 0 124.5 70t65.5 187q23 142 -4.5 202t-106.5 60h-162z" />
<glyph unicode="E" horiz-adv-x="562" d="M86 140l72 452q23 145 170 140q270 -10 310 -16l-15 -95h-292q-18 0 -30 -4.5t-18 -13.5t-8.5 -17t-4.5 -21l-23 -144l299 -10l-15 -95l-302 -9l-23 -147q-3 -19 0 -30.5t13.5 -16t18 -5t22.5 -0.5h283l-16 -94q-16 -2 -93 -6.5t-145 -7.5l-68 -3q-28 -1 -53 5.5t-47 22 t-31.5 45.5t-3.5 70z" />
<glyph unicode="F" horiz-adv-x="564" d="M66 0l92 585q13 80 59 114.5t112 32.5q270 -10 310 -16l-14 -95h-293q-33 0 -45 -15t-16 -41l-22 -145l299 -10l-15 -95l-303 -10l-48 -305h-116z" />
<glyph unicode="G" horiz-adv-x="612" d="M109 382q13 75 28 127.5t38.5 98.5t55 73.5t76.5 42.5t104 15q115 1 254 -32l-14 -90q-35 5 -109 10.5t-125 6.5q-26 0 -44 -3t-42.5 -18t-41.5 -42t-34 -79t-28 -126q-13 -82 -10 -140.5t30 -90t79 -31.5q32 0 70.5 13t60.5 26l23 13l26 151h-127l12 75q71 24 179 24 q31 0 67 -2l-64 -404h-85l-23 54q-26 -25 -71 -42t-101 -18t-96.5 21.5t-62 60t-30.5 89.5t-7.5 105.5t12.5 111.5z" />
<glyph unicode="H" horiz-adv-x="646" d="M71 0l116 732h116l-52 -324h287l52 324h116l-116 -732h-116l48 300h-287l-48 -300h-116z" />
<glyph unicode="I" horiz-adv-x="244" d="M74 0l116 732h116l-116 -732h-116z" />
<glyph unicode="J" horiz-adv-x="357" d="M33 22l17 89q23 -3 35 -4.5t32 -2t30.5 2.5t25 9t23 17.5t16 29t11.5 41.5l84 528h116l-90 -567q-17 -113 -76 -147q-44 -25 -116.5 -23t-107.5 27z" />
<glyph unicode="K" horiz-adv-x="602" d="M68 0l116 732h112l-50 -314h67l247 314h142l-288 -375l172 -357h-134l-145 312h-77l-49 -312h-113z" />
<glyph unicode="L" horiz-adv-x="531" d="M88 136l96 596h115l-91 -571q-2 -19 1 -30.5t13.5 -15.5t18 -5t22.5 -1h271l-17 -109h-304q-63 0 -99.5 33t-25.5 103z" />
<glyph unicode="M" horiz-adv-x="818" d="M57 0l175 732h156l66 -540l231 540h162l-52 -732h-115l41 529l-230 -529h-128l-65 528l-124 -528h-117z" />
<glyph unicode="N" horiz-adv-x="665" d="M68 0l116 732h115l234 -519l82 519h116l-116 -732h-114l-235 515l-81 -515h-117z" />
<glyph unicode="O" horiz-adv-x="666" d="M108 370q9 56 20.5 102.5t24 82t30 63t33.5 46.5t38.5 32.5t42.5 21.5t47.5 12t50.5 5.5t56 1.5q40 0 70.5 -3.5t61 -14t51 -28.5t37 -47t23.5 -69t5.5 -96t-11.5 -127q-11 -68 -26 -121t-32.5 -90.5t-42 -64t-48.5 -42t-57.5 -24.5t-63.5 -11.5t-72 -2.5q-39 0 -69 3 t-61 13t-51.5 26.5t-38 44.5t-24.5 67t-6 94.5t12 125.5zM224 361q-11 -67 -12.5 -111.5t5.5 -74t26.5 -44.5t45.5 -20.5t68 -5.5q49 0 81 9.5t59 37t44.5 78t30.5 131.5q8 54 10.5 95t0.5 69t-11.5 47.5t-19.5 30.5t-30 16.5t-37 7t-45 1.5q-23 0 -37 -0.5t-32.5 -3.5 t-30 -8t-25.5 -14.5t-23.5 -23.5t-20 -33.5t-18 -46t-15.5 -60.5t-14 -77z" />
<glyph unicode="P" horiz-adv-x="596" d="M64 0l116 732h306q36 0 66 -11t55.5 -36t36 -72.5t0.5 -111.5q-7 -48 -19 -84.5t-27 -59.5t-33 -39.5t-36.5 -23t-38.5 -11t-38.5 -3.5t-36.5 0q-29 1 -106 8.5t-81 10.5l-48 -299h-116zM241 386h183q40 0 66 26t37 98q6 31 3 52t-8 33.5t-16 19t-21 9t-23 2.5h-183z" />
<glyph unicode="Q" horiz-adv-x="669" d="M110 372q9 56 20.5 102.5t24.5 81.5t30 62.5t33.5 46.5t39 32.5t42 21t47.5 12t51 5.5t55 1q40 0 71 -4t61 -14.5t51 -28t37 -47t23 -69.5t6 -96.5t-12 -127.5q-10 -68 -25.5 -121t-33 -90t-42 -63.5t-48 -41.5t-57 -23.5t-63.5 -11.5t-72 -3q-40 0 -69.5 3t-60.5 13 t-52 27t-38 45t-24.5 67t-6.5 94.5t12 126.5zM226 361q-10 -67 -11.5 -111.5t5 -74t26 -44.5t45.5 -20.5t69 -5.5q49 0 80.5 9.5t59 37t45 78t29.5 131.5q7 42 10 76t3 60t-4.5 46t-9.5 34t-16 23.5t-21 15t-27 8t-31 3.5t-35 1q-26 0 -42 -1t-36 -4.5t-32 -11t-27 -20.5 t-25 -32.5t-20.5 -47.5t-18.5 -65t-16 -85zM299 -33h69q42 -60 161 -25l-16 -101q-29 -8 -59.5 -8t-59 8t-51 23.5t-34.5 42t-10 60.5z" />
<glyph unicode="R" horiz-adv-x="606" d="M64 0l116 732h310q82 0 125 -56t28 -178q-6 -53 -22 -92t-31.5 -59t-38.5 -33t-34.5 -16t-26.5 -5l104 -293h-130l-90 285l-147 11l-47 -296h-116zM243 388h181q90 0 102 119q7 72 -7.5 95.5t-53.5 23.5h-185z" />
<glyph unicode="S" horiz-adv-x="576" d="M74 20l14 91q81 -10 247 -10q105 0 116 73l8 50q6 40 -5 59.5t-55 19.5h-115q-41 0 -71.5 9t-47.5 25t-28 34.5t-13.5 41.5t-2.5 40.5t3 36.5l11 73q5 32 14 57.5t21.5 44t29 32t34.5 21.5t40 12.5t42.5 6t45.5 1.5q64 0 141 -8t122 -19l-14 -91q-209 9 -242 9 q-57 2 -84 -13.5t-35 -69.5l-7 -47q-3 -15 -3.5 -26.5t2 -20t5 -14t9.5 -9.5t11.5 -6t15 -3t17 -1h18.5h117q38 0 66.5 -11.5t43.5 -30.5t24 -43.5t9 -50t-3 -50.5l-8 -67q-5 -47 -23.5 -81t-41 -51.5t-56 -27.5t-57.5 -12t-57 -2q-165 0 -258 28z" />
<glyph unicode="T" horiz-adv-x="585" d="M128 623l18 109h529l-18 -109h-209l-99 -623h-116l99 623h-204z" />
<glyph unicode="U" horiz-adv-x="654" d="M116 319l66 413h117l-67 -424q-19 -116 7 -160t111 -44t127 46.5t59 157.5l67 424h117l-65 -434q-25 -158 -98.5 -230.5t-220.5 -72.5q-41 0 -73 6t-62 20t-48.5 38t-32 60t-13 85.5t8.5 114.5z" />
<glyph unicode="V" horiz-adv-x="680" d="M143 732h122l89 -571l280 571h130l-368 -732h-130z" />
<glyph unicode="W" horiz-adv-x="1007" d="M143 732h120l91 -567l269 567h126l-107 -220l54 -350l272 570h124l-354 -732h-127l-52 327l-160 -327h-133z" />
<glyph unicode="X" horiz-adv-x="628" d="M34 0l273 371l-159 361h125l113 -268l197 268h133l-280 -381l154 -351h-126l-107 257l-189 -257h-134z" />
<glyph unicode="Y" horiz-adv-x="647" d="M143 732h125l100 -361l229 361h134l-323 -493l-38 -239h-116l38 239z" />
<glyph unicode="Z" horiz-adv-x="559" d="M30 0l17 109l437 514h-356l18 109h500l-18 -109l-430 -514h349l-17 -109h-500z" />
<glyph unicode="[" horiz-adv-x="329" d="M68 -31l111 690q14 84 54 123t133 39h80l-16 -102h-63q-20 0 -34 -6.5t-24.5 -24t-15.5 -48.5l-109 -678q-7 -37 -3 -57t15 -27t35 -7h64l-16 -102h-85q-39 0 -66 14t-40.5 34.5t-19 49t-5 52.5t4.5 50z" />
<glyph unicode="\" horiz-adv-x="428" d="M138 770h115l148 -842h-115z" />
<glyph unicode="]" horiz-adv-x="327" d="M-16 -231l16 102h63q31 0 49 17t26 62l107 678q9 55 -2 73t-46 18h-63l17 102h81q37 0 64 -12t40.5 -32t21.5 -45.5t7 -52t-4 -52.5l-106 -696q-6 -38 -15.5 -64t-29.5 -50t-54.5 -36t-84.5 -12h-87z" />
<glyph unicode="^" horiz-adv-x="387" d="M126 531l133 134h92l78 -134h-84l-45 70l-73 -70h-101z" />
<glyph unicode="_" horiz-adv-x="673" d="M22 -1l17 102h634l-17 -102h-634z" />
<glyph unicode="`" horiz-adv-x="250" d="M122 668h108l87 -137h-83z" />
<glyph unicode="a" horiz-adv-x="541" d="M81 290q12 63 32.5 109t42.5 72t52.5 41.5t54.5 21t56 7.5q63 5 139.5 -11.5t112.5 -50.5l-70 -478h-88l-18 56q-22 -23 -72 -43t-98 -20q-42 0 -73 14t-54 48.5t-26.5 91.5t9.5 142zM194 264q-15 -86 -0.5 -127t64.5 -41q45 0 77 12t70 37l43 286q-32 10 -68 13.5 t-62 -1.5q-20 -4 -31.5 -8t-27.5 -15t-26.5 -29t-21 -50t-17.5 -77z" />
<glyph unicode="b" horiz-adv-x="555" d="M51 0l124 785h115l-45 -283q42 17 91 27t85 10q44 0 74.5 -17t46 -43.5t21 -66t3.5 -78t-10 -85.5q-7 -39 -15 -70t-19.5 -62t-28 -53t-38 -39t-51 -25t-65.5 -6q-45 2 -93 21.5t-71 40.5l-32 -56h-92zM188 135q66 -38 144 -38q44 0 69 39.5t39 129.5q16 90 5.5 133 t-59.5 43q-80 0 -153 -22z" />
<glyph unicode="c" horiz-adv-x="493" d="M82 276q12 70 29.5 119t36.5 76.5t45.5 43t50 20t56.5 4.5q43 0 113 -8.5t121 -22.5l-12 -75q-111 8 -199 8q-23 0 -35 -2t-27 -11.5t-24.5 -28t-20 -52t-19.5 -84.5q-7 -53 -8.5 -86t9.5 -52t27 -26t42 -7q41 0 93.5 2.5t84.5 5.5l32 2l-12 -76q-59 -19 -113 -26 t-132 -6q-82 1 -122 70t-16 212z" />
<glyph unicode="d" horiz-adv-x="550" d="M82 277q8 48 18 83.5t27 71t39.5 57.5t56.5 36t77 14q36 0 84 -10t84 -27l45 283h115l-125 -785h-92l-15 56q-31 -23 -81 -42.5t-94 -19.5q-48 0 -81 24.5t-47 64t-18 90.5t7 104zM199 266q-28 -169 55 -169q78 0 155 38l45 285q-65 22 -146 22q-27 0 -45.5 -13 t-35.5 -52.5t-28 -110.5z" />
<glyph unicode="e" horiz-adv-x="526" d="M83 292q8 44 17 75t22.5 61.5t32.5 49.5t46 34t64 22t85 7q47 0 83.5 -7t65.5 -24t43 -48t10 -74q-5 -55 -31 -94.5t-63.5 -57.5t-79.5 -27.5t-82 -7.5t-67 5.5t-39 8.5q-12 -72 4.5 -98t70.5 -27q93 -5 228 16l-13 -84q-121 -35 -267 -29q-95 3 -126.5 77.5t-3.5 221.5z M201 293q4 0 12 -1t30.5 -2t43.5 0t47 6t45.5 14t35 26t19.5 40q7 40 -14.5 53.5t-77.5 13.5q-23 -1 -42 -5.5t-32 -10t-23.5 -18t-16.5 -21.5t-11.5 -26.5t-7.5 -27.5t-6 -31q-2 -6 -2 -10z" />
<glyph unicode="f" horiz-adv-x="404" d="M85 436l13 77l93 18l10 58q12 74 32.5 116t57 61t95.5 19q31 0 66.5 -7.5t55.5 -16.5l-11 -70h-99q-44 0 -58.5 -23t-26.5 -100l-6 -37h142l-15 -95h-142l-72 -436h-116l71 436h-90z" />
<glyph unicode="g" horiz-adv-x="555" d="M26 -248l12 77h237q38 0 65.5 24.5t34.5 70.5l17 110q-75 -38 -153 -38q-58 0 -94.5 22t-52 60.5t-17.5 92.5t9 117q21 128 79.5 189.5t149.5 61.5q71 0 149 -9t123 -18l-95 -598q-15 -99 -73 -147t-148 -39zM201 276q-1 -2 -1 -7q-4 -24 -5.5 -36.5t-3.5 -34.5t-0.5 -34 t5.5 -27.5t12.5 -24t22 -14t32.5 -5.5q28 0 48 1.5t41.5 6.5t52.5 15l53 328h-135q-95 0 -122 -168z" />
<glyph unicode="h" horiz-adv-x="547" d="M51 0l124 783h116l-50 -311l9 6q26 15 41 23t39.5 19t49 15.5t51.5 4.5q43 0 72.5 -14.5t43.5 -39.5t18.5 -57.5t-2.5 -68.5l-57 -360h-116l57 361q13 81 -57 81q-46 0 -79 -11.5t-82 -38.5l-62 -392h-116z" />
<glyph unicode="i" horiz-adv-x="214" d="M49 0l84 531h116l-84 -531h-116zM138 612l12 76q3 25 28 25h85q22 0 18 -25l-11 -76q-3 -23 -27 -23h-85q-10 0 -15.5 6t-4.5 17z" />
<glyph unicode="j" horiz-adv-x="233" d="M16 -270l127 801h116l-85 -535q-25 -168 -75 -266h-83zM148 612l12 76q3 25 28 25h85q11 0 16 -7t3 -18l-12 -76q-4 -23 -27 -23h-85q-11 0 -16.5 6t-3.5 17z" />
<glyph unicode="k" horiz-adv-x="515" d="M51 0l124 782h116l-72 -452q66 22 135 82.5t84 118.5h125q-23 -83 -86 -148.5t-123 -94.5l177 -288h-132l-154 253l-38 -1l-40 -252h-116z" />
<glyph unicode="l" horiz-adv-x="301" d="M79 189l94 594h116l-91 -580q-5 -26 -5.5 -44t1.5 -29t8 -18t12.5 -10t17.5 -7q61 -19 64 -19l-12 -76h-82q-152 0 -123 189z" />
<glyph unicode="m" horiz-adv-x="883" d="M51 0l84 531h90l17 -60q4 3 23 14.5t25 14.5t22 11.5t26 11.5t25.5 7.5t30.5 6t32 1.5q47 0 81 -21.5t45 -55.5q113 77 215 77q75 0 109.5 -50t21.5 -131l-56 -357h-116l57 358q6 39 -10.5 60.5t-47.5 21.5q-50 0 -86 -10.5t-75 -36.5q0 -1 -2.5 -18.5t-2.5 -18.5 l-57 -356h-116l57 358q4 26 -3 44.5t-21 28t-34 9.5q-45 0 -75.5 -11t-81.5 -39l-61 -390h-116z" />
<glyph unicode="n" horiz-adv-x="547" d="M51 0l84 531h90l17 -59q3 2 10 6q35 21 54.5 31.5t54.5 20.5t70 10q43 0 72.5 -14.5t43.5 -39.5t18.5 -57.5t-2.5 -68.5l-57 -360h-116l57 361q13 81 -57 81q-46 0 -79 -11.5t-82 -38.5l-62 -392h-116z" />
<glyph unicode="o" horiz-adv-x="560" d="M82 267q13 82 33 133.5t54 82.5t79.5 42.5t114.5 11.5q129 0 175 -69.5t22 -218.5q-24 -148 -81.5 -201t-192.5 -53q-132 0 -179.5 64t-24.5 208zM198 258q-7 -37 -8 -64t3.5 -45t11.5 -29t21.5 -17t29.5 -7.5t39 -1.5q37 0 57 4t39.5 20.5t31.5 49.5t21 90q8 46 9 77 t-3.5 52t-18 32t-32.5 15.5t-49 4.5q-38 0 -60 -6t-41 -25t-30 -54t-21 -96z" />
<glyph unicode="p" horiz-adv-x="557" d="M8 -270l129 784q112 21 269 21q54 0 90.5 -24.5t50.5 -64.5t18 -91.5t-6 -106.5q-17 -124 -71 -190.5t-156 -66.5q-38 0 -83.5 9.5t-76.5 28.5l-48 -299h-116zM186 111q69 -32 141 -21q21 2 36.5 9t31.5 25t28 53.5t21 89.5q28 173 -66 173h-138z" />
<glyph unicode="q" horiz-adv-x="553" d="M84 278q21 134 79 197t154 63q139 0 267 -27l-123 -781h-116l47 299q-78 -39 -156 -39q-56 0 -92 21t-51.5 59.5t-18 91.5t9.5 116zM200 270q-3 -23 -5 -35.5t-4 -32t-1.5 -29.5t1 -24.5t4 -22t9 -16.5t13.5 -13t19.5 -7t26.5 -3q28 0 48 2t41.5 6.5t52.5 14.5l52 333 h-138q-93 0 -119 -173z" />
<glyph unicode="r" horiz-adv-x="421" d="M51 0l84 531h94l11 -67q33 23 55 36t57 25t69 12q48 0 63 -7l-18 -113q-26 4 -75 4q-50 0 -87 -12.5t-80 -46.5l-57 -362h-116z" />
<glyph unicode="s" horiz-adv-x="508" d="M59 17l12 76h259q42 0 49 41l6 37q4 21 -4 31.5t-32 10.5h-130q-72 0 -106.5 35.5t-23.5 109.5l8 49q11 66 48.5 99t111.5 33q78 0 160.5 -5.5t111.5 -17.5l-12 -77h-248q-31 0 -42.5 -12.5t-14.5 -31.5l-5 -36q-2 -8 -2 -14t1.5 -10.5t3 -8t4.5 -5t5.5 -3t7 -1.5 t7.5 -0.5t8 0t7 0.5h133q69 0 100 -40.5t21 -100.5l-9 -62q-6 -39 -22 -65t-39 -37.5t-43.5 -15.5t-46.5 -4q-76 0 -168.5 7t-115.5 18z" />
<glyph unicode="t" horiz-adv-x="376" d="M82 437l11 70l95 25l45 148h94l-23 -148h132l-15 -95h-132l-37 -234q-4 -26 -4.5 -44.5t1 -29t7.5 -18t12.5 -10.5t17.5 -6q62 -19 65 -19l-12 -76h-86q-148 0 -119 189l39 248h-91z" />
<glyph unicode="u" horiz-adv-x="546" d="M70 172l56 359h116l-57 -361q-7 -45 8.5 -62.5t49.5 -17.5q45 0 78 11t83 39l61 391h116l-84 -531h-91l-15 58q-38 -23 -59 -34.5t-57 -22t-74 -10.5q-83 0 -113.5 49.5t-17.5 131.5z" />
<glyph unicode="v" horiz-adv-x="527" d="M87 531h122l75 -399l148 299q24 50 30 101h104q15 -63 -20 -133l-206 -399h-143z" />
<glyph unicode="w" horiz-adv-x="817" d="M87 531h121l72 -395l149 293q24 50 30 101h100q14 -55 -10 -112l-21 -47l45 -232l153 292q24 50 30 101h101q16 -67 -20 -133l-218 -399h-125l-46 232l-116 -232h-135z" />
<glyph unicode="x" horiz-adv-x="555" d="M20 0l230 272l-146 259h137l90 -175l145 175h143l-230 -278l141 -253h-134l-89 170l-140 -170h-147z" />
<glyph unicode="y" horiz-adv-x="558" d="M88 531h120l45 -387q1 -8 3.5 -14t6.5 -10t9 -7t9 -4.5t9.5 -2.5t8.5 -1h6.5h4.5l155 327q18 39 26 101h104q16 -64 -18 -136l-189 -396q-35 -74 -73 -127.5t-76.5 -84.5t-72.5 -47t-72 -23v82q59 34 98 83.5t73 115.5q-49 0 -84.5 29.5t-43.5 96.5z" />
<glyph unicode="z" horiz-adv-x="467" d="M40 1l15 101l305 327h-265l14 102h417l-14 -102l-297 -326h243l-16 -102h-402z" />
<glyph unicode="{" horiz-adv-x="320" d="M62 273l15 92q1 0 10 0.5t11.5 0.5t10.5 1t11 1.5t10 2.5t10 4.5t8 6t7.5 7.5t5 9.5t3.5 12.5l37 234q14 89 72 132.5t164 43.5l-17 -102q-46 1 -72.5 -24t-36.5 -88l-32 -201q-13 -79 -107 -92q40 -7 61.5 -31.5t15.5 -59.5l-37 -231q-11 -69 7 -98t67 -26l-16 -99 q-56 0 -95.5 17.5t-57.5 46t-25 66.5t2 79l38 236q5 28 -17 45t-53 14z" />
<glyph unicode="|" horiz-adv-x="246" d="M61 -72l133 842h102l-133 -842h-102z" />
<glyph unicode="}" horiz-adv-x="317" d="M-16 -231l16 98q46 0 72.5 25t35.5 83l36 223q6 37 34 59.5t71 30.5q-26 3 -44.5 15t-27 32t-4.5 46l33 208q12 75 -5.5 103.5t-66.5 26.5l17 102q54 0 92.5 -18t56 -48t24.5 -68.5t-2 -79.5l-32 -219q-4 -28 18 -44t53 -15l-15 -92q-14 1 -23 0.5t-21 -3t-20 -7.5 t-14.5 -14t-8.5 -22l-40 -244q-16 -93 -71.5 -135.5t-163.5 -42.5z" />
<glyph unicode="~" horiz-adv-x="425" d="M134 581q2 2 14 12.5t15.5 13t14.5 11t16 11.5t15.5 8.5t17.5 7.5t17 4t20 2q23 0 52 -17.5t48 -17.5q18 0 38.5 7t31 13.5t30.5 19.5l15 -53q-2 -2 -6 -5q-12 -12 -19 -18.5t-21 -17t-25 -16.5t-25.5 -10.5t-28.5 -4.5q-23 0 -55.5 17.5t-51.5 17.5q-13 0 -27 -3.5 t-22 -7t-24.5 -12t-24.5 -12.5z" />
<glyph unicode="&#xa1;" horiz-adv-x="274" d="M31 -269l98 532h100l-70 -532h-128zM134 363l12 76q3 21 28 23h71q10 -1 16 -8.5t4 -17.5l-11 -73q-5 -22 -25 -25h-77q-21 1 -18 25z" />
<glyph unicode="&#xa2;" horiz-adv-x="486" d="M74 276q12 71 30 120.5t37 77t47 42.5t53 18.5t61 2.5l16 97h77l-17 -101q86 -9 148 -27l-12 -74q-110 7 -199 7q-23 0 -35 -2t-27 -11t-24.5 -27.5t-19.5 -52t-20 -83.5q-7 -53 -8.5 -86t9.5 -52t27 -26t42 -7q41 0 93.5 2.5t84.5 5.5l32 2l-12 -76q-72 -28 -166 -31 l-13 -91h-77l14 90q-85 1 -125 69t-16 213z" />
<glyph unicode="&#xa3;" horiz-adv-x="587" d="M42 0l15 91l71 18l33 211h-68l10 62l72 21l15 99q8 46 20.5 82t26 60.5t35.5 41.5t40.5 26t48.5 13.5t52.5 5.5t58.5 1q26 0 72.5 -4t79.5 -8l34 -4l-14 -92h-186q-81 0 -110.5 -23t-41.5 -102l-15 -97l236 -16l-10 -66h-240l-33 -211h318l-18 -109h-502z" />
<glyph unicode="&#xa4;" horiz-adv-x="454" d="M73 179l54 46q-21 45 -15 88q8 51 35 84l-40 46l52 44l38 -44q45 29 94 29q58 0 94 -29l55 47l41 -49l-57 -49q18 -39 11 -84q-8 -56 -41 -95l43 -49l-53 -46l-43 51q-37 -23 -90 -23q-48 0 -85 28l-52 -46zM185 312q-6 -38 16 -65t58 -28q43 0 70 25t35 65q7 36 -15 64 t-62 27q-41 0 -68.5 -25.5t-33.5 -62.5z" />
<glyph unicode="&#xa5;" horiz-adv-x="622" d="M114 144l12 73h147l6 41h-147l13 74h121l-133 400h124l99 -330l226 330h139l-291 -400h142l-13 -74h-164l-6 -41h164l-12 -73h-162l-20 -144h-116l20 144h-149z" />
<glyph unicode="&#xa6;" horiz-adv-x="247" d="M61 -72l52 328h102l-52 -328h-102zM140 429l54 341h102l-54 -341h-102z" />
<glyph unicode="&#xa7;" horiz-adv-x="544" d="M85 11l13 83h248q25 0 39 7t18 29l7 52q3 15 -1 23.5t-13 11t-27 2.5h-140q-67 0 -102.5 33t-25.5 97l7 45q6 40 20.5 64.5t51.5 35.5q-52 31 -40 103l8 56q19 131 159 131q51 0 146 -6.5t128 -12.5l-12 -83h-253q-23 0 -36 -9.5t-17 -31.5l-7 -47q-3 -20 8 -30t32 -10 h143q70 0 103 -35t24 -95l-8 -44q-12 -85 -68 -98q50 -14 37 -99l-9 -63q-7 -40 -19.5 -66t-34 -39.5t-45.5 -18t-61 -4.5q-55 0 -148.5 6.5t-124.5 12.5zM219 361q-4 -27 5.5 -35t36.5 -8h120q23 0 35.5 6t16 14t6.5 24l7 47q3 15 2.5 25.5t-11.5 16t-34 5.5h-120 q-30 0 -41 -9.5t-15 -39.5z" />
<glyph unicode="&#xa8;" horiz-adv-x="450" d="M134.5 582q3.5 23 22.5 39t42 16t36.5 -16t10.5 -39q-2 -11 -8 -21.5t-14.5 -18t-19.5 -12t-23 -4.5q-23 0 -36.5 16.5t-10 39.5zM389.5 582q3.5 23 22.5 39t42 16t36.5 -16t10.5 -39q-2 -11 -8 -21.5t-14.5 -18t-19.5 -12t-23 -4.5q-23 0 -36.5 16.5t-10 39.5z" />
<glyph unicode="&#xa9;" horiz-adv-x="800" d="M102 375q8 49 18.5 90.5t27 83.5t40 74t53.5 57t71.5 38.5t91.5 13.5h239q41 0 72.5 -13t51.5 -34t33 -51.5t18.5 -63t6.5 -71t-2 -72t-9 -69.5q-27 -168 -97.5 -263t-181.5 -95h-239q-46 0 -82.5 17.5t-58.5 47.5t-36.5 67.5t-19 80.5t-4 83t6.5 79zM184 368 q-11 -56 -8 -108t15.5 -92.5t41 -65t69.5 -24.5h240q65 0 116 72t74 218q5 30 8 54t4.5 55t0 54.5t-8.5 47.5t-19 39.5t-32 25.5t-47 10h-246q-35 0 -64.5 -12.5t-58 -43t-50.5 -88.5t-35 -142zM282 371q10 62 27 105t41 65.5t50 32t60 9.5q21 0 51.5 -3t65 -8.5t60.5 -12.5 l-10 -66q-82 12 -165 12q-28 0 -47 -14.5t-31.5 -46t-21.5 -82.5q-10 -67 2 -102t56 -35q74 0 173 16l-10 -66q-82 -28 -189 -28q-65 0 -98 55t-14 169z" />
<glyph unicode="&#xaa;" horiz-adv-x="366" d="M67 264l10 66h315l-10 -66h-315zM103 568q7 42 21.5 72.5t30.5 47.5t38 27t37.5 13t36.5 5q40 2 95.5 -10t78.5 -34l-45 -312h-58l-14 51q-7 -10 -20.5 -20.5t-29.5 -18t-34 -12t-35 -4.5q-24 0 -45 10t-38 33.5t-22 60.5t3 91zM186 553q-15 -99 44 -99q51 0 101 45 l21 151q-22 6 -48 8.5t-43 -1.5q-13 -3 -22 -7.5t-20.5 -15t-19.5 -31t-13 -50.5z" />
<glyph unicode="&#xab;" horiz-adv-x="570" d="M98 354l238 203l59 -68l-167 -143l122 -142l-74 -58zM304 354l238 203l59 -68l-167 -143l122 -142l-74 -58z" />
<glyph unicode="&#xac;" horiz-adv-x="505" d="M78 246l16 98h427q-5 -29 -15 -93t-15 -92h-98l13 87h-328z" />
<glyph unicode="&#xad;" horiz-adv-x="354" d="M58 239l16 102h314l-16 -102h-314z" />
<glyph unicode="&#xae;" horiz-adv-x="800" d="M102 375q8 49 18.5 90.5t27 83.5t40 74t53.5 57t71.5 38.5t91.5 13.5h239q41 0 72.5 -13t51.5 -34t33 -51.5t18.5 -63t6.5 -71t-2 -72t-9 -69.5q-27 -168 -97.5 -263t-181.5 -95h-239q-46 0 -82.5 17.5t-58.5 47.5t-36.5 67.5t-19 80.5t-4 83t6.5 79zM184 368 q-11 -56 -8 -108t15.5 -92.5t41 -65t69.5 -24.5h240q65 0 116 72t74 218q5 30 8 54t4.5 55t0 54.5t-8.5 47.5t-19 39.5t-32 25.5t-47 10h-246q-35 0 -64.5 -12.5t-58 -43t-50.5 -88.5t-35 -142zM274 153l68 427h180q24 0 44.5 -6t39 -20t26.5 -42t3 -67q-11 -94 -72 -118 q-8 -3 -33 -9l62 -165h-89l-60 163l-60 12l-28 -175h-81zM392 386h91q39 0 52 11.5t19 50.5q5 35 -8.5 44.5t-43.5 9.5h-91z" />
<glyph unicode="&#xaf;" horiz-adv-x="376" d="M126 531l12 73h292l-12 -73h-292z" />
<glyph unicode="&#xb0;" horiz-adv-x="284" d="M140.5 632.5q1.5 42.5 32 72t72.5 29.5t71 -29.5t27.5 -72.5t-31.5 -71.5t-72.5 -28.5t-71.5 29t-27.5 71.5zM194 632q-1 -20 13 -33.5t34 -13.5q13 0 24 6t17.5 17t7 24t-5.5 24t-16.5 17.5t-23.5 6.5t-24.5 -6.5t-18.5 -17.5t-7 -24z" />
<glyph unicode="&#xb1;" horiz-adv-x="509" d="M59 76l16 102h416l-16 -102h-416zM109 384l15 102h156l25 156h102l-25 -156h158l-15 -102h-158l-26 -158h-102l26 158h-156z" />
<glyph unicode="&#xb2;" horiz-adv-x="393" d="M70 356l13 81q2 2 26.5 18t35.5 23.5t37 25.5t41 29.5t38 30t37 33.5t28.5 32t22.5 32.5t11 30.5q5 35 -9.5 49.5t-56.5 14.5h-164l2.5 17t5.5 34.5t3 16.5q115 18 193 18q46 0 76 -25.5t40 -58t4 -63.5q-4 -31 -19.5 -61.5t-34 -54t-43 -47.5t-43.5 -39t-40 -30.5 t-27 -20.5h166l-14 -86h-329z" />
<glyph unicode="&#xb3;" horiz-adv-x="406" d="M71 370l12 67h166q70 0 77 49l3 16q4 29 -11 41t-46 13l-130 4l12 73l131 6q23 1 38.5 6t24.5 16t12 27l2 16q4 26 -9.5 36.5t-49.5 10.5h-175l10 66q30 10 65 15t69.5 5h75.5q56 -1 85 -36.5t21 -87.5l-5 -32q-6 -36 -23.5 -60t-42.5 -30q15 -8 25 -23t12 -34t-1 -41 l-4 -25q-9 -58 -44 -87.5t-105 -29.5h-24h-25t-22 0.5t-24 1t-20.5 1.5t-21.5 2.5t-18.5 3t-21 4.5t-18.5 6z" />
<glyph unicode="&#xb4;" horiz-adv-x="242" d="M101 531l118 137h113l-148 -137h-83z" />
<glyph unicode="&#xb5;" horiz-adv-x="590" d="M33 -270l70 442l57 359h116l-57 -361q-7 -41 9 -60.5t48 -19.5q46 0 79 11t82 39l62 391h116l-84 -531h-90l-16 58q-4 -1 -26 -13l-27.5 -15t-24 -11.5t-28.5 -11.5t-25.5 -6.5t-31.5 -4.5q-38 -2 -69 12l-44 -278h-116z" />
<glyph unicode="&#xb6;" horiz-adv-x="578" d="M112 507l14 93q21 132 179 132h372l-14 -93h-59l-101 -639h-92l102 641h-77l-144 -911h-91l101 642q-1 0 -7.5 -3.5t-13.5 -6t-17.5 -5t-20.5 -2.5q-40 0 -68.5 14t-42.5 36.5t-19 48.5t-1 53zM205 507q-3 -21 1 -34t14.5 -18.5t19 -7t21.5 -1.5h52l32 196h-51 q-40 0 -56 -15t-22 -48z" />
<glyph unicode="&#xb7;" horiz-adv-x="265" d="M126 345l12 78q3 25 28 25h74q26 0 21 -25l-12 -78q-4 -23 -28 -23h-74q-11 0 -17 6.5t-4 16.5z" />
<glyph unicode="&#xb8;" horiz-adv-x="246" d="M14 -176l9 51l49 15q21 9 29.5 25t13.5 48h84q-12 -78 -40 -108.5t-90 -30.5h-55z" />
<glyph unicode="&#xb9;" horiz-adv-x="278" d="M112 712l9 62q34 0 75 23.5t54 39.5h90l-77 -481h-91l62 382q-16 -12 -50 -19t-72 -7z" />
<glyph unicode="&#xba;" horiz-adv-x="386" d="M79 266l10 65h317l-10 -65h-317zM114 555q17 105 57.5 143t135.5 38q59 1 93 -17.5t47 -61.5t2 -114q-16 -97 -56 -134t-139 -37q-87 0 -121 44.5t-19 138.5zM202 550q-3 -18 -4 -32t0 -24t3 -17.5t7.5 -12t10 -7.5t13 -4.5t15.5 -1.5t19 -1q23 0 34.5 2t25 10.5t21.5 30 t14 57.5q5 31 5.5 50.5t-2 31.5t-13 17.5t-21 7t-32.5 1.5q-25 0 -38 -2.5t-25.5 -13.5t-19.5 -32.5t-13 -59.5z" />
<glyph unicode="&#xbb;" horiz-adv-x="567" d="M76 215l168 145l-118 137l70 60l177 -206l-237 -205zM284 215l168 145l-118 137l71 60l176 -206l-236 -205z" />
<glyph unicode="&#xbc;" horiz-adv-x="944" d="M112 612l9 62q34 0 75 23.5t54 39.5h90l-77 -481h-91l62 382q-16 -12 -50 -19t-72 -7zM185 0l553 770h89l-553 -770h-89zM546 144l238 335h101l-198 -284h129l17 109l33 49h64l-25 -158h52l-11 -73l-56 -16l-16 -106h-89l17 106h-236z" />
<glyph unicode="&#xbd;" horiz-adv-x="1003" d="M112 612l9 62q34 0 75 23.5t54 39.5h90l-77 -481h-91l62 382q-16 -12 -50 -19t-72 -7zM177 0l553 770h89l-553 -770h-89zM640 0l13 81q2 2 27 18t35.5 23.5t37 25.5t41 29.5t37.5 30t37 33.5t29 32t23 32.5t10 30.5q4 24 -1 37.5t-20.5 20t-44.5 6.5h-163q-1 0 1.5 17 t5.5 34.5t3 16.5q115 18 193 18q46 0 76.5 -25.5t40 -58t4.5 -63.5q-6 -37 -25 -72t-47 -64.5t-51 -50t-51 -41.5t-33 -25h165l-13 -86h-330z" />
<glyph unicode="&#xbe;" horiz-adv-x="1057" d="M71 270l12 67h166q70 0 77 49l3 16q4 29 -11 41t-46 13l-130 4l12 73l131 6q23 1 38.5 6t24.5 16t12 27l2 16q4 26 -9.5 36.5t-49.5 10.5h-175l10 66q30 10 65 15t69.5 5h75.5q56 -1 85 -36.5t21 -87.5l-5 -32q-6 -36 -23.5 -60t-42.5 -30q23 -11 32 -38t4 -60l-4 -25 q-9 -58 -44 -87.5t-105 -29.5h-24h-25t-22 0.5t-24 1t-20.5 1.5t-21.5 2.5t-18.5 3t-21 4.5t-18.5 6zM284 0l553 770h89l-553 -770h-89zM633 144l238 335h101l-198 -284h129l17 109l34 49h64l-26 -158h52l-11 -73l-56 -16l-15 -106h-90l17 106h-236z" />
<glyph unicode="&#xbf;" horiz-adv-x="539" d="M21 -69l13 83q16 105 81 142.5t179 24.5l8 46t7 48h100l-29 -183q-83 1 -125 0q-41 -2 -70 -22.5t-36 -64.5l-11 -71q-6 -35 3 -56t33 -30.5t68 -9.5h257l-13 -83q-63 -11 -96 -15.5t-85 -7.5t-105 -1q-67 0 -111.5 30t-60.5 74.5t-7 95.5zM315 369l13 78q3 23 27 23h75 q11 0 16.5 -6.5t4.5 -16.5l-13 -78q-3 -25 -28 -25h-75q-24 0 -20 25z" />
<glyph unicode="&#xc0;" horiz-adv-x="677" d="M330 934h107l88 -137h-83zM38 0l371 732h128l129 -732h-118l-33 177h-259l-90 -177h-128zM306 283h195l-49 296z" />
<glyph unicode="&#xc1;" horiz-adv-x="677" d="M442 797l118 137h113l-148 -137h-83zM38 0l371 732h128l129 -732h-118l-33 177h-259l-90 -177h-128zM306 283h195l-49 296z" />
<glyph unicode="&#xc2;" horiz-adv-x="677" d="M332 797l133 133h92l78 -133h-81l-48 72l-79 -72h-95zM38 0l371 732h128l129 -732h-118l-33 177h-259l-90 -177h-128zM306 283h195l-49 296z" />
<glyph unicode="&#xc3;" horiz-adv-x="677" d="M320 847q38 32 69 50t62 18q26 -1 56 -17.5t44 -17.5q20 -1 54 12.5t46 23.5l15 -53q-2 -1 -16 -12t-18 -14t-16.5 -11.5t-19 -11.5t-17 -8t-20 -6.5t-19.5 -1.5q-27 0 -57.5 17t-47.5 17q-8 0 -16 -1t-16 -3t-14 -4t-14 -6t-12.5 -6.5l-13.5 -7.5t-13 -7zM38 0l371 732 h128l129 -732h-118l-33 177h-259l-90 -177h-128zM306 283h195l-49 296z" />
<glyph unicode="&#xc4;" horiz-adv-x="677" d="M309.5 853q3.5 23 22.5 39t42 16t36.5 -16t10.5 -39q-2 -11 -8 -21.5t-14.5 -18t-19.5 -12t-22 -4.5q-23 0 -37 16.5t-10.5 39.5zM564.5 853q3.5 23 22.5 39t42 16t36.5 -16t10.5 -39q-2 -11 -8 -21.5t-14.5 -18t-19.5 -12t-22 -4.5q-23 0 -37 16.5t-10.5 39.5zM38 0 l371 732h128l129 -732h-118l-33 177h-259l-90 -177h-128zM306 283h195l-49 296z" />
<glyph unicode="&#xc5;" horiz-adv-x="677" d="M386 831q2 28 17.5 51.5t40 37t52.5 13.5q42 0 69 -29.5t24 -72.5q-3 -28 -18 -51t-39.5 -36.5t-51.5 -13.5q-42 0 -70 29.5t-24 71.5zM440 831q-1 -12 4.5 -23t16 -17t23.5 -6q19 0 34 13.5t16.5 33t-11 33.5t-32 14t-34.5 -14t-17 -34zM38 0l371 732h128l129 -732h-118 l-33 177h-259l-90 -177h-128zM306 283h195l-49 296z" />
<glyph unicode="&#xc6;" horiz-adv-x="981" d="M25 0l382 586q29 44 59.5 73.5t58.5 44t59 22t60 7t61 -0.5q272 -10 312 -16l-15 -95h-294q-18 0 -29.5 -4t-17 -14t-7.5 -16t-5 -20l-24 -150l300 -11l-15 -94l-304 -10l-22 -144q-3 -18 0 -29.5t14 -16t18 -5.5t22 -1h283l-16 -93q-16 -2 -92.5 -6.5t-144.5 -7.5 l-68 -3q-27 -2 -52.5 4t-47.5 19.5t-33 40t-5 62.5l13 86h-182l-137 -208h-131zM360 313h132l45 272z" />
<glyph unicode="&#xc7;" horiz-adv-x="573" d="M106 379q15 92 35.5 155.5t55.5 112t87.5 71t125.5 22.5q123 0 247 -33l-15 -92q-127 17 -226 16h-4q-14 0 -22 -0.5t-22.5 -3t-24 -7t-23 -13.5t-23 -22t-21 -33t-20.5 -46t-17.5 -61.5t-15.5 -78.5q-22 -128 1.5 -193.5t103.5 -69.5q83 -2 237 8l-14 -91 q-91 -28 -256 -26q-54 0 -94 21.5t-62.5 57.5t-33.5 86t-10 104.5t11 115.5zM181 -176l8 52l49 15q15 4 24 15t12.5 23t6.5 34h85q-12 -77 -40.5 -108t-90.5 -31h-54z" />
<glyph unicode="&#xc8;" horiz-adv-x="562" d="M276 928h108l87 -136h-83zM86 140l72 452q23 145 170 140q270 -10 310 -16l-15 -95h-292q-18 0 -30 -4.5t-18 -13.5t-8.5 -17t-4.5 -21l-23 -144l299 -10l-15 -95l-302 -9l-23 -147q-3 -19 0 -30.5t13.5 -16t18 -5t22.5 -0.5h283l-16 -94q-16 -2 -93 -6.5t-145 -7.5 l-68 -3q-28 -1 -53 5.5t-47 22t-31.5 45.5t-3.5 70z" />
<glyph unicode="&#xc9;" horiz-adv-x="562" d="M388 792l118 136h112l-148 -136h-82zM86 140l72 452q23 145 170 140q270 -10 310 -16l-15 -95h-292q-18 0 -30 -4.5t-18 -13.5t-8.5 -17t-4.5 -21l-23 -144l299 -10l-15 -95l-302 -9l-23 -147q-3 -19 0 -30.5t13.5 -16t18 -5t22.5 -0.5h283l-16 -94q-16 -2 -93 -6.5 t-145 -7.5l-68 -3q-28 -1 -53 5.5t-47 22t-31.5 45.5t-3.5 70z" />
<glyph unicode="&#xca;" horiz-adv-x="562" d="M279 792l132 134h92l78 -134h-83l-45 70l-73 -70h-101zM86 140l72 452q23 145 170 140q270 -10 310 -16l-15 -95h-292q-18 0 -30 -4.5t-18 -13.5t-8.5 -17t-4.5 -21l-23 -144l299 -10l-15 -95l-302 -9l-23 -147q-3 -19 0 -30.5t13.5 -16t18 -5t22.5 -0.5h283l-16 -94 q-16 -2 -93 -6.5t-145 -7.5l-68 -3q-28 -1 -53 5.5t-47 22t-31.5 45.5t-3.5 70z" />
<glyph unicode="&#xcb;" horiz-adv-x="562" d="M245.5 843q3.5 23 23 39t42.5 16t36.5 -16t10 -39t-22.5 -39.5t-42 -16.5t-37 16.5t-10.5 39.5zM500.5 843q3.5 23 23 39t42.5 16t36.5 -16t10 -39t-22.5 -39.5t-42 -16.5t-37 16.5t-10.5 39.5zM86 140l72 452q23 145 170 140q270 -10 310 -16l-15 -95h-292 q-18 0 -30 -4.5t-18 -13.5t-8.5 -17t-4.5 -21l-23 -144l299 -10l-15 -95l-302 -9l-23 -147q-3 -19 0 -30.5t13.5 -16t18 -5t22.5 -0.5h283l-16 -94q-16 -2 -93 -6.5t-145 -7.5l-68 -3q-28 -1 -53 5.5t-47 22t-31.5 45.5t-3.5 70z" />
<glyph unicode="&#xcc;" horiz-adv-x="244" d="M105 934h107l88 -137h-83zM74 0l116 732h116l-116 -732h-116z" />
<glyph unicode="&#xcd;" horiz-adv-x="244" d="M217 797l118 137h113l-148 -137h-83zM74 0l116 732h116l-116 -732h-116z" />
<glyph unicode="&#xce;" horiz-adv-x="244" d="M107 797l133 133h92l78 -133h-81l-48 72l-79 -72h-95zM74 0l116 732h116l-116 -732h-116z" />
<glyph unicode="&#xcf;" horiz-adv-x="244" d="M84 853q4 23 23 39t42 16t36.5 -16t10 -39t-22 -39.5t-41.5 -16.5q-12 0 -21.5 4.5t-16 12t-9 18t-1.5 21.5zM339 853q4 23 23 39t42 16t36.5 -16t10 -39t-22 -39.5t-41.5 -16.5q-12 0 -21.5 4.5t-16 12t-9 18t-1.5 21.5zM74 0l116 732h116l-116 -732h-116z" />
<glyph unicode="&#xd0;" horiz-adv-x="658" d="M56 342l10 62h65l52 327q0 1 291 1q52 0 91 -17.5t62 -47.5t36.5 -67.5t16.5 -81.5t1 -84t-9 -82q-30 -176 -102.5 -264t-204.5 -88h-298l54 342h-65zM200 107h167q75 0 122.5 70t65.5 187q23 142 -3 202t-102 60h-168l-35 -222h122l-10 -62h-122z" />
<glyph unicode="&#xd1;" horiz-adv-x="665" d="M300 844q17 15 31 25t31 21t34 16t34 5q26 -1 56 -17.5t44 -16.5q14 -1 36 6t39.5 15.5t24.5 14.5l15 -53q-2 -2 -16 -12.5l-18 -13.5l-16 -12t-19 -12l-17.5 -7.5t-20 -6.5t-19.5 -2q-27 1 -57 18t-47 17q-11 0 -21 -2t-16.5 -3.5t-16.5 -6t-14.5 -7t-16 -8.5t-15.5 -8z M68 0l116 732h115l234 -519l82 519h116l-116 -732h-114l-235 515l-81 -515h-117z" />
<glyph unicode="&#xd2;" horiz-adv-x="666" d="M307 934h107l88 -137h-83zM108 370q9 56 20.5 102.5t24 82t30 63t33.5 46.5t38.5 32.5t42.5 21.5t47.5 12t50.5 5.5t56 1.5q40 0 70.5 -3.5t61 -14t51 -28.5t37 -47t23.5 -69t5.5 -96t-11.5 -127q-11 -68 -26 -121t-32.5 -90.5t-42 -64t-48.5 -42t-57.5 -24.5 t-63.5 -11.5t-72 -2.5q-39 0 -69 3t-61 13t-51.5 26.5t-38 44.5t-24.5 67t-6 94.5t12 125.5zM224 361q-11 -67 -12.5 -111.5t5.5 -74t26.5 -44.5t45.5 -20.5t68 -5.5q49 0 81 9.5t59 37t44.5 78t30.5 131.5q6 42 9 76t3 60t-4 46t-9.5 34t-16.5 23.5t-21 15t-26.5 8 t-30.5 3.5t-36 1q-23 0 -37 -0.5t-32.5 -3.5t-30 -8t-25.5 -14.5t-23.5 -23.5t-20 -33.5t-18 -46t-15.5 -60.5t-14 -77z" />
<glyph unicode="&#xd3;" horiz-adv-x="666" d="M419 797l118 137h113l-148 -137h-83zM108 370q9 56 20.5 102.5t24 82t30 63t33.5 46.5t38.5 32.5t42.5 21.5t47.5 12t50.5 5.5t56 1.5q40 0 70.5 -3.5t61 -14t51 -28.5t37 -47t23.5 -69t5.5 -96t-11.5 -127q-11 -68 -26 -121t-32.5 -90.5t-42 -64t-48.5 -42t-57.5 -24.5 t-63.5 -11.5t-72 -2.5q-39 0 -69 3t-61 13t-51.5 26.5t-38 44.5t-24.5 67t-6 94.5t12 125.5zM224 361q-11 -67 -12.5 -111.5t5.5 -74t26.5 -44.5t45.5 -20.5t68 -5.5q49 0 81 9.5t59 37t44.5 78t30.5 131.5q6 42 9 76t3 60t-4 46t-9.5 34t-16.5 23.5t-21 15t-26.5 8 t-30.5 3.5t-36 1q-23 0 -37 -0.5t-32.5 -3.5t-30 -8t-25.5 -14.5t-23.5 -23.5t-20 -33.5t-18 -46t-15.5 -60.5t-14 -77z" />
<glyph unicode="&#xd4;" horiz-adv-x="666" d="M309 797l133 133h92l78 -133h-81l-48 72l-79 -72h-95zM108 370q9 56 20.5 102.5t24 82t30 63t33.5 46.5t38.5 32.5t42.5 21.5t47.5 12t50.5 5.5t56 1.5q40 0 70.5 -3.5t61 -14t51 -28.5t37 -47t23.5 -69t5.5 -96t-11.5 -127q-11 -68 -26 -121t-32.5 -90.5t-42 -64 t-48.5 -42t-57.5 -24.5t-63.5 -11.5t-72 -2.5q-39 0 -69 3t-61 13t-51.5 26.5t-38 44.5t-24.5 67t-6 94.5t12 125.5zM224 361q-11 -67 -12.5 -111.5t5.5 -74t26.5 -44.5t45.5 -20.5t68 -5.5q49 0 81 9.5t59 37t44.5 78t30.5 131.5q6 42 9 76t3 60t-4 46t-9.5 34t-16.5 23.5 t-21 15t-26.5 8t-30.5 3.5t-36 1q-23 0 -37 -0.5t-32.5 -3.5t-30 -8t-25.5 -14.5t-23.5 -23.5t-20 -33.5t-18 -46t-15.5 -60.5t-14 -77z" />
<glyph unicode="&#xd5;" horiz-adv-x="666" d="M297 847q7 6 13.5 11t14 11t14 10.5t14 9.5t14.5 8.5t15 7t15 5.5t15 3.5t16 1.5q20 -1 38 -9.5t33 -16.5t29 -9q20 -1 53.5 12.5t46.5 23.5l14 -53q-2 -1 -15.5 -12t-17.5 -14t-16.5 -11.5t-19 -11.5t-17.5 -8t-20 -6.5t-19 -1.5q-27 0 -57.5 17t-47.5 17q-10 0 -20 -2 t-17 -3.5t-17 -6t-14 -6.5t-16 -8.5t-16 -8.5zM108 370q9 56 20.5 102.5t24 82t30 63t33.5 46.5t38.5 32.5t42.5 21.5t47.5 12t50.5 5.5t56 1.5q40 0 70.5 -3.5t61 -14t51 -28.5t37 -47t23.5 -69t5.5 -96t-11.5 -127q-11 -68 -26 -121t-32.5 -90.5t-42 -64t-48.5 -42 t-57.5 -24.5t-63.5 -11.5t-72 -2.5q-39 0 -69 3t-61 13t-51.5 26.5t-38 44.5t-24.5 67t-6 94.5t12 125.5zM224 361q-11 -67 -12.5 -111.5t5.5 -74t26.5 -44.5t45.5 -20.5t68 -5.5q49 0 81 9.5t59 37t44.5 78t30.5 131.5q6 42 9 76t3 60t-4 46t-9.5 34t-16.5 23.5t-21 15 t-26.5 8t-30.5 3.5t-36 1q-23 0 -37 -0.5t-32.5 -3.5t-30 -8t-25.5 -14.5t-23.5 -23.5t-20 -33.5t-18 -46t-15.5 -60.5t-14 -77z" />
<glyph unicode="&#xd6;" horiz-adv-x="666" d="M286 853q4 23 23 39t42 16t36.5 -16t10 -39t-22 -39.5t-41.5 -16.5q-12 0 -21.5 4.5t-16 12t-9 18t-1.5 21.5zM541 853q4 23 23 39t42 16t36.5 -16t10 -39t-22 -39.5t-41.5 -16.5q-12 0 -21.5 4.5t-16 12t-9 18t-1.5 21.5zM108 370q9 56 20.5 102.5t24 82t30 63 t33.5 46.5t38.5 32.5t42.5 21.5t47.5 12t50.5 5.5t56 1.5q40 0 70.5 -3.5t61 -14t51 -28.5t37 -47t23.5 -69t5.5 -96t-11.5 -127q-11 -68 -26 -121t-32.5 -90.5t-42 -64t-48.5 -42t-57.5 -24.5t-63.5 -11.5t-72 -2.5q-39 0 -69 3t-61 13t-51.5 26.5t-38 44.5t-24.5 67 t-6 94.5t12 125.5zM224 361q-11 -67 -12.5 -111.5t5.5 -74t26.5 -44.5t45.5 -20.5t68 -5.5q49 0 81 9.5t59 37t44.5 78t30.5 131.5q6 42 9 76t3 60t-4 46t-9.5 34t-16.5 23.5t-21 15t-26.5 8t-30.5 3.5t-36 1q-23 0 -37 -0.5t-32.5 -3.5t-30 -8t-25.5 -14.5t-23.5 -23.5 t-20 -33.5t-18 -46t-15.5 -60.5t-14 -77z" />
<glyph unicode="&#xd7;" horiz-adv-x="460" d="M86 246l127 110l-91 110l78 69l92 -110l135 115l61 -73l-135 -117l94 -111l-78 -65l-92 109l-129 -112z" />
<glyph unicode="&#xd8;" horiz-adv-x="666" d="M52 0l69 83q-48 88 -16 289q9 56 21 102.5t24.5 81.5t29.5 62.5t33.5 46.5t39 32.5t42.5 21t47.5 12t50.5 5.5t56 1q126 0 179 -41l29 36h70l-62 -75q54 -89 20 -307q-10 -68 -25.5 -121t-33 -90t-41.5 -63.5t-48 -42t-57.5 -24t-63.5 -11t-72 -2.5q-65 0 -111 9t-77 36 l-34 -41h-70zM221 361q-18 -113 -4 -165l332 408q-17 15 -43 19.5t-68 4.5q-23 0 -37.5 -0.5t-32.5 -3.5t-29.5 -8t-25.5 -14.5t-23.5 -23.5t-20 -33.5t-18.5 -46t-15.5 -60.5t-14.5 -77zM237 137q29 -32 118 -32q49 0 81 9.5t59 37.5t44.5 78t29.5 131q21 132 5 189z" />
<glyph unicode="&#xd9;" horiz-adv-x="654" d="M308 934h107l88 -137h-83zM116 319l66 413h117l-67 -424q-19 -116 7 -160t111 -44t127 46.5t59 157.5l67 424h117l-65 -434q-25 -158 -98.5 -230.5t-220.5 -72.5q-41 0 -73 6t-62 20t-48.5 38t-32 60t-13 85.5t8.5 114.5z" />
<glyph unicode="&#xda;" horiz-adv-x="654" d="M420 797l118 137h113l-148 -137h-83zM116 319l66 413h117l-67 -424q-19 -116 7 -160t111 -44t127 46.5t59 157.5l67 424h117l-65 -434q-25 -158 -98.5 -230.5t-220.5 -72.5q-41 0 -73 6t-62 20t-48.5 38t-32 60t-13 85.5t8.5 114.5z" />
<glyph unicode="&#xdb;" horiz-adv-x="654" d="M310 797l133 133h92l78 -133h-81l-48 72l-79 -72h-95zM116 319l66 413h117l-67 -424q-19 -116 7 -160t111 -44t127 46.5t59 157.5l67 424h117l-65 -434q-25 -158 -98.5 -230.5t-220.5 -72.5q-41 0 -73 6t-62 20t-48.5 38t-32 60t-13 85.5t8.5 114.5z" />
<glyph unicode="&#xdc;" horiz-adv-x="654" d="M287.5 853q3.5 23 22.5 39t42 16t36.5 -16t10.5 -39q-2 -11 -8 -21.5t-14.5 -18t-19.5 -12t-22 -4.5q-23 0 -37 16.5t-10.5 39.5zM542.5 853q3.5 23 22.5 39t42 16t36.5 -16t10.5 -39q-1 -7 -4 -14.5t-8 -13.5t-10.5 -11.5t-12.5 -9t-14.5 -5.5t-14.5 -2q-23 0 -37 16.5 t-10.5 39.5zM116 319l66 413h117l-67 -424q-19 -116 7 -160t111 -44t127 46.5t59 157.5l67 424h117l-65 -434q-25 -158 -98.5 -230.5t-220.5 -72.5q-41 0 -73 6t-62 20t-48.5 38t-32 60t-13 85.5t8.5 114.5z" />
<glyph unicode="&#xdd;" horiz-adv-x="647" d="M406 797l118 137h113l-148 -137h-83zM143 732h125l100 -361l229 361h134l-323 -493l-38 -239h-116l38 239z" />
<glyph unicode="&#xde;" horiz-adv-x="549" d="M51 0q19 121 57.5 364.5t57.5 364.5h116l-22 -141h165q23 0 43.5 -5.5t43 -19.5t35.5 -38.5t21 -62.5t-1 -92q-5 -38 -13 -68.5t-19.5 -52.5t-23 -38.5t-27.5 -26.5t-29.5 -16.5t-32 -10t-31.5 -4.5t-32 -1q-109 -2 -164 20l-28 -172h-116zM208 258h137q24 0 38.5 3.5 t28.5 15.5t23 35.5t15 62.5q5 22 2.5 38.5t-4 28t-9 19t-13 12t-15 6.5t-15.5 2.5t-15 0.5h-138z" />
<glyph unicode="&#xdf;" horiz-adv-x="571" d="M51 0l90 566q5 36 17.5 67t34 58.5t51 46.5t71.5 30t93 11q60 0 104 -13.5t67.5 -37t35 -53.5t8 -62.5t-15 -64t-31.5 -59.5t-44 -47q-9 -6 -38 -23t-42 -31.5t-17 -36.5t12 -36t40 -23.5t48 -21.5t38 -37t8 -63l-5 -36q-5 -34 -19.5 -59.5t-33 -41t-42.5 -25t-46 -13 t-46 -3.5q-19 0 -38 1t-36.5 4t-29 4.5t-29 5t-21.5 4.5l13 85q11 -1 37.5 -2.5t51.5 -2.5t47 -1q28 0 49 15.5t26 44.5l5 26q3 20 -12.5 33t-39 22t-47 20t-37 36t-8.5 62q8 53 31 81t92 68q52 34 60 91q7 50 -19 66.5t-83 16.5q-64 0 -100.5 -30t-48.5 -108l-85 -534h-116 z" />
<glyph unicode="&#xe0;" horiz-adv-x="541" d="M202 739h107l88 -137h-83zM81 290q12 63 32.5 109t42.5 72t52.5 41.5t54.5 21t56 7.5q39 3 86.5 -2.5t94.5 -21t71 -38.5l-70 -478h-88l-18 56q-22 -23 -72 -43t-98 -20q-42 0 -73 14t-54 48.5t-26.5 91.5t9.5 142zM194 264q-15 -86 -0.5 -127t64.5 -41q45 0 77 12t70 37 l43 286q-32 10 -68 13.5t-62 -1.5q-20 -4 -31.5 -8t-27.5 -15t-26.5 -29t-21 -50t-17.5 -77z" />
<glyph unicode="&#xe1;" horiz-adv-x="541" d="M320 602l119 137h112l-148 -137h-83zM81 290q12 63 32.5 109t42.5 72t52.5 41.5t54.5 21t56 7.5q39 3 86.5 -2.5t94.5 -21t71 -38.5l-70 -478h-88l-18 56q-22 -23 -72 -43t-98 -20q-42 0 -73 14t-54 48.5t-26.5 91.5t9.5 142zM194 264q-15 -86 -0.5 -127t64.5 -41 q45 0 77 12t70 37l43 286q-32 10 -68 13.5t-62 -1.5q-20 -4 -31.5 -8t-27.5 -15t-26.5 -29t-21 -50t-17.5 -77z" />
<glyph unicode="&#xe2;" horiz-adv-x="541" d="M204 602l133 134h92l78 -134h-81l-48 72l-79 -72h-95zM81 290q12 63 32.5 109t42.5 72t52.5 41.5t54.5 21t56 7.5q39 3 86.5 -2.5t94.5 -21t71 -38.5l-70 -478h-88l-18 56q-22 -23 -72 -43t-98 -20q-42 0 -73 14t-54 48.5t-26.5 91.5t9.5 142zM194 264q-15 -86 -0.5 -127 t64.5 -41q45 0 77 12t70 37l43 286q-32 10 -68 13.5t-62 -1.5q-20 -4 -31.5 -8t-27.5 -15t-26.5 -29t-21 -50t-17.5 -77z" />
<glyph unicode="&#xe3;" horiz-adv-x="541" d="M197 652q38 32 68.5 50t62.5 18q25 -1 55 -17.5t45 -16.5q20 -1 54 12.5t46 23.5l14 -54q-1 -1 -15 -12t-18 -14t-16.5 -11.5t-19 -11.5t-17 -8t-20 -6.5t-19.5 -1.5q-27 0 -57.5 17.5t-47.5 16.5q-10 0 -20 -1.5t-16.5 -3.5t-16.5 -6.5t-14.5 -6.5t-16 -8.5t-15.5 -8.5z M81 290q12 63 32.5 109t42.5 72t52.5 41.5t54.5 21t56 7.5q39 3 86.5 -2.5t94.5 -21t71 -38.5l-70 -478h-88l-18 56q-22 -23 -72 -43t-98 -20q-42 0 -73 14t-54 48.5t-26.5 91.5t9.5 142zM194 264q-15 -86 -0.5 -127t64.5 -41q45 0 77 12t70 37l43 286q-32 10 -68 13.5 t-62 -1.5q-20 -4 -31.5 -8t-27.5 -15t-26.5 -29t-21 -50t-17.5 -77z" />
<glyph unicode="&#xe4;" horiz-adv-x="541" d="M181.5 658.5q3.5 23.5 22.5 39.5t42 16t36.5 -16t10 -39.5t-22.5 -40t-42 -16.5t-36.5 16.5t-10 40zM436.5 658.5q3.5 23.5 22.5 39.5t42 16t36.5 -16t10 -39.5t-22.5 -40t-42 -16.5t-36.5 16.5t-10 40zM81 290q12 63 32.5 109t42.5 72t52.5 41.5t54.5 21t56 7.5 q39 3 86.5 -2.5t94.5 -21t71 -38.5l-70 -478h-88l-18 56q-22 -23 -72 -43t-98 -20q-42 0 -73 14t-54 48.5t-26.5 91.5t9.5 142zM194 264q-15 -86 -0.5 -127t64.5 -41q45 0 77 12t70 37l43 286q-32 10 -68 13.5t-62 -1.5q-20 -4 -31.5 -8t-27.5 -15t-26.5 -29t-21 -50 t-17.5 -77z" />
<glyph unicode="&#xe5;" horiz-adv-x="541" d="M277 704q1 14 6 27t12.5 24.5t17.5 20.5t21.5 15.5t25 10.5t27.5 4q42 0 69 -30t24 -72q-3 -28 -18 -51.5t-39.5 -37t-51.5 -13.5q-43 0 -70.5 29.5t-23.5 72.5zM331 703.5q-2 -19.5 11 -33t32.5 -13.5t34.5 13.5t16.5 33t-11 33.5t-32 14t-34.5 -14t-17 -33.5zM81 290 q12 63 32.5 109t42.5 72t52.5 41.5t54.5 21t56 7.5q39 3 86.5 -2.5t94.5 -21t71 -38.5l-70 -478h-88l-18 56q-22 -23 -72 -43t-98 -20q-42 0 -73 14t-54 48.5t-26.5 91.5t9.5 142zM194 264q-15 -86 -0.5 -127t64.5 -41q45 0 77 12t70 37l43 286q-32 10 -68 13.5t-62 -1.5 q-20 -4 -31.5 -8t-27.5 -15t-26.5 -29t-21 -50t-17.5 -77z" />
<glyph unicode="&#xe6;" horiz-adv-x="868" d="M53 290q8 41 18.5 75t24 58.5t27 43.5t30.5 31t31.5 20t34 13t33.5 7t34 3q46 4 107.5 -6t100.5 -31q56 37 155 37q47 0 84 -7t67 -24t44.5 -48t10.5 -74q-4 -55 -30.5 -94.5t-64 -57.5t-79.5 -27.5t-81.5 -7.5t-67 5.5t-38.5 8.5q-12 -72 4 -98t70 -27q91 -5 226 16 l-14 -84q-121 -35 -263 -29q-90 3 -123 70q-29 -31 -88 -50.5t-109 -19.5q-42 0 -73.5 15.5t-54 51t-26.5 92t10 138.5zM166 263q-16 -85 -3 -126t67 -42q42 0 84.5 11.5t59.5 30.5q-5 61 12 155q17 92 41 136q-22 6 -47.5 10.5t-49.5 6t-41 -1.5q-19 -4 -30.5 -8 t-27.5 -15.5t-26.5 -29.5t-21 -50t-17.5 -77zM504 293q5 0 12.5 -1t30 -2t43.5 0t47.5 6t46 14t35 26t19.5 40q7 40 -15 53.5t-77 13.5q-24 -1 -43 -5.5t-32 -10t-23.5 -18t-16 -21.5t-11 -26.5t-8 -27.5t-6.5 -31q-1 -6 -2 -10z" />
<glyph unicode="&#xe7;" horiz-adv-x="494" d="M84 276q9 58 22.5 102t30.5 72t34 46t40 26.5t43 11.5t47 3q48 0 114.5 -7.5t119.5 -23.5l-12 -75q-110 8 -199 8q-23 0 -34.5 -2t-27 -11t-25 -27.5t-19.5 -52t-19 -83.5q-8 -53 -9 -86t9.5 -52t26.5 -26t43 -7q41 0 93 2.5t84 5.5l32 2l-12 -76q-39 -16 -86 -23.5 t-73.5 -8t-84.5 -0.5q-83 1 -123 70t-15 212zM135 -177l8 52l50 15q21 8 29 24t13 49h85q-13 -78 -41 -109t-90 -31h-54z" />
<glyph unicode="&#xe8;" horiz-adv-x="526" d="M207 738h108l87 -137h-83zM83 292q10 54 21 89t30 68t46.5 51.5t69.5 29.5t100 11q47 0 83.5 -7t65.5 -24t43 -48t10 -74q-5 -55 -31 -94.5t-63.5 -57.5t-79.5 -27.5t-82 -7.5t-67 5.5t-39 8.5q-9 -48 -3.5 -75.5t23.5 -38t55 -11.5q93 -5 228 16l-13 -84 q-121 -35 -267 -29q-95 3 -126.5 77.5t-3.5 221.5zM201 293q3 0 7.5 -0.5t19.5 -1.5t29.5 -1t34.5 1t37 4t35.5 9.5t32.5 15.5t24 23.5t13 32.5q4 21 0 34.5t-17 20.5t-30 9.5t-45 1.5q-23 0 -42 -4.5t-32 -10t-23.5 -18t-16.5 -21.5t-11.5 -26.5t-7.5 -27.5t-6 -31 q-2 -6 -2 -10z" />
<glyph unicode="&#xe9;" horiz-adv-x="526" d="M319 601l119 137h112l-148 -137h-83zM83 292q10 54 21 89t30 68t46.5 51.5t69.5 29.5t100 11q47 0 83.5 -7t65.5 -24t43 -48t10 -74q-5 -55 -31 -94.5t-63.5 -57.5t-79.5 -27.5t-82 -7.5t-67 5.5t-39 8.5q-9 -48 -3.5 -75.5t23.5 -38t55 -11.5q93 -5 228 16l-13 -84 q-121 -35 -267 -29q-95 3 -126.5 77.5t-3.5 221.5zM201 293q3 0 7.5 -0.5t19.5 -1.5t29.5 -1t34.5 1t37 4t35.5 9.5t32.5 15.5t24 23.5t13 32.5q4 21 0 34.5t-17 20.5t-30 9.5t-45 1.5q-23 0 -42 -4.5t-32 -10t-23.5 -18t-16.5 -21.5t-11.5 -26.5t-7.5 -27.5t-6 -31 q-2 -6 -2 -10z" />
<glyph unicode="&#xea;" horiz-adv-x="526" d="M210 601l132 133h92l78 -133h-81l-48 72l-79 -72h-94zM83 292q10 54 21 89t30 68t46.5 51.5t69.5 29.5t100 11q47 0 83.5 -7t65.5 -24t43 -48t10 -74q-5 -55 -31 -94.5t-63.5 -57.5t-79.5 -27.5t-82 -7.5t-67 5.5t-39 8.5q-9 -48 -3.5 -75.5t23.5 -38t55 -11.5 q93 -5 228 16l-13 -84q-121 -35 -267 -29q-95 3 -126.5 77.5t-3.5 221.5zM201 293q3 0 7.5 -0.5t19.5 -1.5t29.5 -1t34.5 1t37 4t35.5 9.5t32.5 15.5t24 23.5t13 32.5q4 21 0 34.5t-17 20.5t-30 9.5t-45 1.5q-23 0 -42 -4.5t-32 -10t-23.5 -18t-16.5 -21.5t-11.5 -26.5 t-7.5 -27.5t-6 -31q-2 -6 -2 -10z" />
<glyph unicode="&#xeb;" horiz-adv-x="526" d="M186.5 657q3.5 23 22.5 39t42.5 16t37 -16t9.5 -39q-2 -11 -8 -21.5t-14.5 -18t-19.5 -12t-22 -4.5q-23 0 -37 16.5t-10.5 39.5zM441.5 657q3.5 23 22.5 39t42.5 16t37 -16t9.5 -39q-2 -11 -8 -21.5t-14.5 -18t-19.5 -12t-22 -4.5q-23 0 -37 16.5t-10.5 39.5zM83 292 q10 54 21 89t30 68t46.5 51.5t69.5 29.5t100 11q47 0 83.5 -7t65.5 -24t43 -48t10 -74q-5 -55 -31 -94.5t-63.5 -57.5t-79.5 -27.5t-82 -7.5t-67 5.5t-39 8.5q-9 -48 -3.5 -75.5t23.5 -38t55 -11.5q93 -5 228 16l-13 -84q-121 -35 -267 -29q-95 3 -126.5 77.5t-3.5 221.5z M201 293q3 0 7.5 -0.5t19.5 -1.5t29.5 -1t34.5 1t37 4t35.5 9.5t32.5 15.5t24 23.5t13 32.5q4 21 0 34.5t-17 20.5t-30 9.5t-45 1.5q-23 0 -42 -4.5t-32 -10t-23.5 -18t-16.5 -21.5t-11.5 -26.5t-7.5 -27.5t-6 -31q-2 -6 -2 -10z" />
<glyph unicode="&#xec;" horiz-adv-x="214" d="M44 734h107l88 -137h-83zM46 0l84 531h116l-84 -531h-116z" />
<glyph unicode="&#xed;" horiz-adv-x="214" d="M155 597l118 137h113l-148 -137h-83zM46 0l84 531h116l-84 -531h-116z" />
<glyph unicode="&#xee;" horiz-adv-x="214" d="M44 597l132 134h92l79 -134h-82l-47 72l-79 -72h-95zM46 0l84 531h116l-84 -531h-116z" />
<glyph unicode="&#xef;" horiz-adv-x="214" d="M18.5 653q3.5 23 22.5 39.5t42.5 16.5t37 -16.5t10 -39.5t-22.5 -39.5t-42 -16.5t-37 16.5t-10.5 39.5zM274 653q3 23 22 39.5t42.5 16.5t37 -16.5t10 -39.5t-22.5 -39.5t-42 -16.5q-12 0 -21.5 4.5t-15.5 12t-9 18t-1 21.5zM46 0l84 531h116l-84 -531h-116z" />
<glyph unicode="&#xf0;" horiz-adv-x="538" d="M73 268q24 139 74.5 201t150.5 62h74q57 0 71 -11q-10 68 -46 109l-133 -55l-18 59l91 37q-44 20 -124 17l15 96q153 0 230 -60l108 45l19 -59l-82 -33q89 -127 42 -426q-21 -136 -73.5 -193t-149.5 -57h-108q-50 0 -83.5 21t-47.5 57t-17 85t7 105zM189 260 q-6 -49 -7 -78.5t8 -46t21.5 -21.5t33.5 -4h79q21 -1 35 4t28 20.5t24.5 46t17.5 79.5q16 96 5 129t-62 33h-74q-30 0 -48.5 -12t-34 -48t-26.5 -102z" />
<glyph unicode="&#xf1;" horiz-adv-x="547" d="M209 650q38 32 69 50t62 18q26 -1 55.5 -17.5t44.5 -17.5q20 -1 54 12.5t46 23.5l15 -53q-2 -1 -16 -12t-18 -14t-16.5 -11.5t-19 -11.5t-17 -8t-20 -6.5t-19.5 -1.5q-27 0 -57.5 17t-47.5 17q-10 0 -20 -2t-16.5 -3.5t-16.5 -6t-14.5 -6.5t-16 -8.5t-15.5 -8.5zM51 0 l84 531h90l17 -59q3 2 10 6q35 21 54.5 31.5t54.5 20.5t70 10q43 0 72.5 -14.5t43.5 -39.5t18.5 -57.5t-2.5 -68.5l-57 -360h-116l57 361q13 81 -57 81q-32 0 -58.5 -6.5t-48 -16t-54.5 -27.5l-62 -392h-116z" />
<glyph unicode="&#xf2;" horiz-adv-x="560" d="M215 734h107l88 -137h-83zM82 267q13 82 33 133.5t54 82.5t79.5 42.5t114.5 11.5q129 0 175 -69.5t22 -218.5q-24 -148 -81.5 -201t-192.5 -53q-132 0 -179.5 64t-24.5 208zM198 258q-8 -44 -7.5 -74t6 -48t20.5 -27.5t32.5 -12t45.5 -2.5q37 0 57 4t39.5 20.5t31.5 49.5 t21 90q8 46 9 77t-3.5 52t-18 32t-32.5 15.5t-49 4.5q-38 0 -60 -6t-41 -25t-30 -54t-21 -96z" />
<glyph unicode="&#xf3;" horiz-adv-x="560" d="M329 597l119 137h112l-148 -137h-83zM82 267q13 82 33 133.5t54 82.5t79.5 42.5t114.5 11.5q129 0 175 -69.5t22 -218.5q-24 -148 -81.5 -201t-192.5 -53q-132 0 -179.5 64t-24.5 208zM198 258q-8 -44 -7.5 -74t6 -48t20.5 -27.5t32.5 -12t45.5 -2.5q37 0 57 4t39.5 20.5 t31.5 49.5t21 90q8 46 9 77t-3.5 52t-18 32t-32.5 15.5t-49 4.5q-38 0 -60 -6t-41 -25t-30 -54t-21 -96z" />
<glyph unicode="&#xf4;" horiz-adv-x="560" d="M216 597l133 134h92l78 -134h-81l-48 72l-79 -72h-95zM82 267q13 82 33 133.5t54 82.5t79.5 42.5t114.5 11.5q129 0 175 -69.5t22 -218.5q-24 -148 -81.5 -201t-192.5 -53q-132 0 -179.5 64t-24.5 208zM198 258q-8 -44 -7.5 -74t6 -48t20.5 -27.5t32.5 -12t45.5 -2.5 q37 0 57 4t39.5 20.5t31.5 49.5t21 90q8 46 9 77t-3.5 52t-18 32t-32.5 15.5t-49 4.5q-38 0 -60 -6t-41 -25t-30 -54t-21 -96z" />
<glyph unicode="&#xf5;" horiz-adv-x="560" d="M206 647q37 32 68 50t62 18q26 -1 56 -17.5t44 -17.5q14 0 36 7t39.5 15.5t24.5 13.5l15 -53q-4 -2 -14.5 -10.5t-15 -12t-14.5 -11t-16 -10.5t-15.5 -8t-16.5 -7.5t-16 -4t-17 -1.5q-28 0 -58 17t-47 17q-11 0 -20.5 -1.5t-16.5 -3.5t-17 -6.5t-14.5 -6.5t-16 -8.5 t-15.5 -8.5zM82 267q13 82 33 133.5t54 82.5t79.5 42.5t114.5 11.5q129 0 175 -69.5t22 -218.5q-24 -148 -81.5 -201t-192.5 -53q-132 0 -179.5 64t-24.5 208zM198 258q-8 -44 -7.5 -74t6 -48t20.5 -27.5t32.5 -12t45.5 -2.5q37 0 57 4t39.5 20.5t31.5 49.5t21 90q8 46 9 77 t-3.5 52t-18 32t-32.5 15.5t-49 4.5q-38 0 -60 -6t-41 -25t-30 -54t-21 -96z" />
<glyph unicode="&#xf6;" horiz-adv-x="560" d="M195.5 653q3.5 23 23 39.5t42.5 16.5t36.5 -16.5t10 -39.5t-22.5 -39.5t-42 -16.5t-37 16.5t-10.5 39.5zM451 653q3 23 22.5 39.5t42.5 16.5t36.5 -16.5t10 -39.5t-22.5 -39.5t-42 -16.5q-11 0 -21 4.5t-16 12t-9 18t-1 21.5zM82 267q13 82 33 133.5t54 82.5t79.5 42.5 t114.5 11.5q129 0 175 -69.5t22 -218.5q-24 -148 -81.5 -201t-192.5 -53q-132 0 -179.5 64t-24.5 208zM198 258q-8 -44 -7.5 -74t6 -48t20.5 -27.5t32.5 -12t45.5 -2.5q37 0 57 4t39.5 20.5t31.5 49.5t21 90q8 46 9 77t-3.5 52t-18 32t-32.5 15.5t-49 4.5q-38 0 -60 -6 t-41 -25t-30 -54t-21 -96z" />
<glyph unicode="&#xf7;" horiz-adv-x="504" d="M90 302l16 102h420l-16 -102h-420zM220 161l11 63q3 24 28 24h65q24 0 20 -24l-11 -63q-3 -23 -27 -23h-65q-10 0 -16 6.5t-5 16.5zM271 476l9 62q4 25 28 25h65q24 0 20 -25l-9 -62q-4 -23 -28 -23h-65q-11 0 -16.5 6t-3.5 17z" />
<glyph unicode="&#xf8;" horiz-adv-x="562" d="M36 0l63 67q-37 62 -16 199q13 82 33 134t54.5 82.5t79.5 42t115 11.5q92 0 141 -32l24 27h73l-60 -65q44 -67 19 -216q-24 -148 -82 -201.5t-193 -53.5q-102 0 -153 35l-28 -30h-70zM198 171l228 250q-21 16 -75 16q-31 0 -50 -3.5t-36 -13.5t-28 -30t-20.5 -51.5 t-17.5 -80.5q-9 -60 -1 -87zM214 114q20 -21 82 -21q38 0 58 4.5t39.5 21t31 49.5t21.5 90q13 76 0 108z" />
<glyph unicode="&#xf9;" horiz-adv-x="546" d="M211 734h107l88 -137h-83zM70 172l56 359h116l-57 -361q-7 -45 8.5 -62.5t49.5 -17.5q45 0 78 11t83 39l61 391h116l-84 -531h-91l-15 58q-38 -23 -59 -34.5t-57 -22t-74 -10.5q-83 0 -113.5 49.5t-17.5 131.5z" />
<glyph unicode="&#xfa;" horiz-adv-x="546" d="M323 597l118 137h112l-147 -137h-83zM70 172l56 359h116l-57 -361q-7 -45 8.5 -62.5t49.5 -17.5q45 0 78 11t83 39l61 391h116l-84 -531h-91l-15 58q-38 -23 -59 -34.5t-57 -22t-74 -10.5q-83 0 -113.5 49.5t-17.5 131.5z" />
<glyph unicode="&#xfb;" horiz-adv-x="546" d="M213 597l133 134h92l78 -134h-81l-48 72l-79 -72h-95zM70 172l56 359h116l-57 -361q-7 -45 8.5 -62.5t49.5 -17.5q45 0 78 11t83 39l61 391h116l-84 -531h-91l-15 58q-38 -23 -59 -34.5t-57 -22t-74 -10.5q-83 0 -113.5 49.5t-17.5 131.5z" />
<glyph unicode="&#xfc;" horiz-adv-x="546" d="M189.5 653q3.5 23 23 39.5t42.5 16.5t36.5 -16.5t10 -39.5t-22.5 -39.5t-42 -16.5t-37 16.5t-10.5 39.5zM445 653q3 23 22.5 39.5t42.5 16.5t36.5 -16.5t10 -39.5t-22.5 -39.5t-42 -16.5q-11 0 -20.5 4.5t-16 12t-9.5 18t-1 21.5zM70 172l56 359h116l-57 -361 q-7 -45 8.5 -62.5t49.5 -17.5q45 0 78 11t83 39l61 391h116l-84 -531h-91l-15 58q-38 -23 -59 -34.5t-57 -22t-74 -10.5q-83 0 -113.5 49.5t-17.5 131.5z" />
<glyph unicode="&#xfd;" horiz-adv-x="558" d="M314 593l118 136h113l-148 -136h-83zM88 531h120l44 -387q1 -7 3 -12t5 -8.5t6.5 -7t7 -5t7.5 -3t7.5 -2l7 -1t6.5 -0.5h5h3l155 327q18 39 26 101h104q16 -64 -18 -136l-189 -396q-28 -60 -59 -106.5t-59.5 -76.5t-60 -51t-58.5 -32t-57 -16v82q59 34 98 83.5t73 115.5 q-49 0 -84.5 29.5t-43.5 96.5z" />
<glyph unicode="&#xfe;" horiz-adv-x="553" d="M16 -270l168 1052h116l-50 -310q14 10 34.5 20.5t45 20.5t52.5 16.5t51 6.5q43 0 73.5 -23t44.5 -62t18.5 -89.5t-5.5 -105.5q-5 -31 -9.5 -54t-13 -52.5t-19 -51t-27 -43.5t-37 -35.5t-49.5 -22.5t-63 -9q-37 0 -84.5 10t-82.5 28l-47 -296h-116zM192 106 q8 -2 16.5 -4.5t15 -4.5t15.5 -3.5t13.5 -2.5t15 -2t13.5 -1t14 -1t12.5 -1t14 -0.5l12.5 -0.5q41 0 70 38t43 140q12 88 -3 131t-52 40q-72 -3 -154 -41z" />
<glyph unicode="&#xff;" horiz-adv-x="558" d="M182 642q4 23 23 39t42.5 16t37 -16t9.5 -39t-22.5 -39.5t-41.5 -16.5q-15 0 -27 7.5t-17.5 20.5t-3.5 28zM437.5 642q3.5 23 22.5 39t42.5 16t37 -16t9.5 -39t-22.5 -39.5t-41.5 -16.5t-37 16.5t-10.5 39.5zM88 531h120l44 -387q1 -7 3 -12t5 -8.5t6.5 -7t7 -5t7.5 -3 t7.5 -2l7 -1t6.5 -0.5h5h3l155 327q18 39 26 101h104q16 -64 -18 -136l-189 -396q-28 -60 -59 -106.5t-59.5 -76.5t-60 -51t-58.5 -32t-57 -16v82q59 34 98 83.5t73 115.5q-49 0 -84.5 29.5t-43.5 96.5z" />
<glyph unicode="&#x100;" horiz-adv-x="677" d="M338 797l11 73h292l-11 -73h-292zM38 0l371 732h128l129 -732h-118l-33 177h-259l-90 -177h-128zM306 283h195l-49 296z" />
<glyph unicode="&#x101;" horiz-adv-x="541" d="M210 602l12 74h292l-12 -74h-292zM81 290q12 63 32.5 109t42.5 72t52.5 41.5t54.5 21t56 7.5q39 3 86.5 -2.5t94.5 -21t71 -38.5l-70 -478h-88l-18 56q-22 -23 -72 -43t-98 -20q-42 0 -73 14t-54 48.5t-26.5 91.5t9.5 142zM194 264q-15 -86 -0.5 -127t64.5 -41 q45 0 77 12t70 37l43 286q-32 10 -68 13.5t-62 -1.5q-20 -4 -31.5 -8t-27.5 -15t-26.5 -29t-21 -50t-17.5 -77z" />
<glyph unicode="&#x102;" horiz-adv-x="677" d="M388 910h53q-4 -28 10.5 -44t39.5 -16q63 -1 71 60h54q-4 -28 -14 -49.5t-26 -35.5t-37.5 -21t-47.5 -7q-46 0 -77 31t-26 82zM38 0l371 732h128l129 -732h-118l-33 177h-259l-90 -177h-128zM306 283h195l-49 296z" />
<glyph unicode="&#x103;" horiz-adv-x="541" d="M259 716h53q-3 -28 11.5 -44t39.5 -16q62 -1 71 60h53q-7 -56 -39 -84.5t-85 -28.5q-47 0 -77.5 31t-26.5 82zM81 290q12 63 32.5 109t42.5 72t52.5 41.5t54.5 21t56 7.5q39 3 86.5 -2.5t94.5 -21t71 -38.5l-70 -478h-88l-18 56q-22 -23 -72 -43t-98 -20q-42 0 -73 14 t-54 48.5t-26.5 91.5t9.5 142zM194 264q-15 -86 -0.5 -127t64.5 -41q45 0 77 12t70 37l43 286q-32 10 -68 13.5t-62 -1.5q-20 -4 -31.5 -8t-27.5 -15t-26.5 -29t-21 -50t-17.5 -77z" />
<glyph unicode="&#x104;" horiz-adv-x="741" d="M652 0h50q-70 -48 -65 -86q6 -30 53 -28l-11 -70q-56 -11 -92.5 21t-22 81.5t87.5 81.5zM104 0l371 732h129l128 -732h-118l-33 177h-259l-90 -177h-128zM372 283h196l-49 296z" />
<glyph unicode="&#x105;" horiz-adv-x="504" d="M418 0h50q-70 -48 -65 -86q6 -30 53 -28l-11 -70q-56 -11 -92.5 21t-22 81.5t87.5 81.5zM67 290q11 63 31.5 109t43 72t53 41.5t54.5 21t56 7.5q63 5 139.5 -11.5t112.5 -50.5l-70 -478h-88l-18 56q-23 -23 -72.5 -43t-97.5 -20q-42 0 -73.5 14t-54.5 48.5t-26 91.5 t10 142zM180 264q-15 -86 -0.5 -127t64.5 -41q45 0 76.5 12t70.5 37l43 286q-32 10 -68.5 13.5t-62.5 -1.5q-19 -4 -30.5 -8t-27.5 -15t-26.5 -29t-21 -50t-17.5 -77z" />
<glyph unicode="&#x106;" horiz-adv-x="573" d="M408 800l118 136h112l-147 -136h-83zM106 379q12 73 27 127.5t39 100t56 74t77.5 44t104.5 15.5q123 0 247 -34l-15 -91q-127 17 -226 16h-4q-14 0 -22 -0.5t-23 -3t-24 -7t-23 -13.5t-23.5 -22t-21.5 -33t-20.5 -46t-17.5 -61.5t-15 -78.5q-22 -127 2 -193t104 -70 q83 -2 237 8l-14 -91q-91 -28 -256 -26q-54 0 -94 21.5t-62.5 57.5t-33.5 86t-10 104.5t11 115.5z" />
<glyph unicode="&#x107;" horiz-adv-x="493" d="M311 598l119 137h112l-148 -137h-83zM84 276q11 70 28.5 119t36.5 76.5t45.5 43t50 20t56.5 4.5q43 0 113.5 -8.5t120.5 -22.5l-12 -75q-110 8 -199 8q-22 0 -34.5 -2t-27.5 -11.5t-24.5 -28t-19.5 -52t-19 -84.5q-8 -53 -9 -86t9.5 -52t26.5 -26t43 -7q41 0 93 2.5 t84 5.5l32 2l-12 -76q-59 -19 -113 -26t-131 -6q-83 1 -123 70t-15 212z" />
<glyph unicode="&#x108;" horiz-adv-x="573" d="M292 800l133 134h92l78 -134h-81l-48 72l-79 -72h-95zM106 379q12 73 27 127.5t39 100t56 74t77.5 44t104.5 15.5q123 0 247 -34l-15 -91q-127 17 -226 16h-4q-14 0 -22 -0.5t-23 -3t-24 -7t-23 -13.5t-23.5 -22t-21.5 -33t-20.5 -46t-17.5 -61.5t-15 -78.5 q-22 -127 2 -193t104 -70q83 -2 237 8l-14 -91q-91 -28 -256 -26q-54 0 -94 21.5t-62.5 57.5t-33.5 86t-10 104.5t11 115.5z" />
<glyph unicode="&#x109;" horiz-adv-x="493" d="M206 598l132 134h92l78 -134h-81l-48 72l-78 -72h-95zM82 276q12 70 29.5 119t36.5 76.5t45.5 43t50 20t56.5 4.5q43 0 113 -8.5t121 -22.5l-12 -75q-111 8 -199 8q-23 0 -35 -2t-27 -11.5t-24.5 -28t-20 -52t-19.5 -84.5q-7 -53 -8.5 -86t9.5 -52t27 -26t42 -7 q41 0 93.5 2.5t84.5 5.5l32 2l-12 -76q-41 -13 -78.5 -20.5t-76 -9.5t-90.5 -2q-82 1 -122 70t-16 212z" />
<glyph unicode="&#x10a;" horiz-adv-x="573" d="M382 823l11 68q4 25 28 25h64q11 0 16 -7t3 -18l-11 -68q-3 -23 -26 -23h-64q-11 0 -16.5 6.5t-4.5 16.5zM106 379q12 73 27 127.5t39 100t56 74t77.5 44t104.5 15.5q123 0 247 -34l-15 -91q-127 17 -226 16h-4q-14 0 -22 -0.5t-23 -3t-24 -7t-23 -13.5t-23.5 -22 t-21.5 -33t-20.5 -46t-17.5 -61.5t-15 -78.5q-22 -127 2 -193t104 -70q83 -2 237 8l-14 -91q-91 -28 -256 -26q-54 0 -94 21.5t-62.5 57.5t-33.5 86t-10 104.5t11 115.5z" />
<glyph unicode="&#x10b;" horiz-adv-x="493" d="M306 621l11 68q4 25 28 25h64q11 0 16 -7t3 -18l-11 -68q-3 -23 -26 -23h-64q-10 0 -16 6.5t-5 16.5zM82 276q12 70 29.5 119t36.5 76.5t45.5 43t50 20t56.5 4.5q43 0 113 -8.5t121 -22.5l-12 -75q-111 8 -199 8q-23 0 -35 -2t-27 -11.5t-24.5 -28t-20 -52t-19.5 -84.5 q-7 -53 -8.5 -86t9.5 -52t27 -26t42 -7q41 0 93.5 2.5t84.5 5.5l32 2l-12 -76q-41 -13 -78.5 -20.5t-76 -9.5t-90.5 -2q-82 1 -122 70t-16 212z" />
<glyph unicode="&#x10c;" horiz-adv-x="573" d="M327 934h81l49 -72l78 72h94l-132 -134h-90zM106 379q12 73 27 127.5t39 100t56 74t77.5 44t104.5 15.5q123 0 247 -34l-15 -91q-127 17 -226 16h-4q-14 0 -22 -0.5t-23 -3t-24 -7t-23 -13.5t-23.5 -22t-21.5 -33t-20.5 -46t-17.5 -61.5t-15 -78.5q-22 -127 2 -193 t104 -70q83 -2 237 8l-14 -91q-91 -28 -256 -26q-54 0 -94 21.5t-62.5 57.5t-33.5 86t-10 104.5t11 115.5z" />
<glyph unicode="&#x10d;" horiz-adv-x="493" d="M235 732h82l49 -72l77 72h95l-132 -134h-91zM82 276q12 70 29.5 119t36.5 76.5t45.5 43t50 20t56.5 4.5q43 0 113 -8.5t121 -22.5l-12 -75q-111 8 -199 8q-23 0 -35 -2t-27 -11.5t-24.5 -28t-20 -52t-19.5 -84.5q-7 -53 -8.5 -86t9.5 -52t27 -26t42 -7q41 0 93.5 2.5 t84.5 5.5l32 2l-12 -76q-41 -13 -78.5 -20.5t-76 -9.5t-90.5 -2q-82 1 -122 70t-16 212z" />
<glyph unicode="&#x10e;" horiz-adv-x="660" d="M323 927h81l49 -72l78 72h94l-132 -133h-90zM78 0l116 731q0 1 288 1q52 0 91.5 -17t62.5 -47t37 -66.5t17 -81t1 -85t-9 -83.5q-29 -180 -102.5 -266t-207.5 -86h-294zM211 107h166q76 0 123.5 70t66.5 187q22 142 -5.5 202t-105.5 60h-163z" />
<glyph unicode="&#x10f;" horiz-adv-x="695" d="M82 270q8 53 18 91t27 73t39.5 57t56 35t77.5 13q36 0 84 -10t84 -27l45 283h115l-125 -785h-92l-15 55q-31 -22 -81 -41.5t-94 -19.5q-48 0 -81 22t-47.5 60t-18 88t7.5 106zM199 266q-28 -169 55 -169q78 0 155 38l45 285q-65 22 -146 22q-27 0 -45.5 -13t-35.5 -52.5 t-28 -110.5zM673 580l11 134l10 67h88l-10 -67l-32 -134h-67z" />
<glyph unicode="&#x110;" horiz-adv-x="658" d="M76 342l10 62h65l52 327q0 1 290 1q52 0 91.5 -17.5t62 -47.5t36.5 -67.5t17 -81.5t1 -84t-9 -82q-30 -176 -103 -264t-205 -88h-297l54 342h-65zM219 107h168q75 0 122 70t66 187q22 142 -4 202t-102 60h-167l-35 -222h121l-10 -62h-121z" />
<glyph unicode="&#x111;" horiz-adv-x="553" d="M82 271q11 66 24.5 111t38 82.5t63 56t92.5 18.5q36 0 84 -10t84 -27l16 107h-112l10 61h113l18 115h115l-18 -115h67l-10 -61h-67l-97 -609h-92l-15 55q-31 -22 -81 -41.5t-94 -19.5q-48 0 -81 22t-47.5 60t-18 88.5t7.5 106.5zM199 266q-28 -169 55 -169q78 0 155 38 l45 285q-65 22 -146 22q-27 0 -45.5 -13t-35.5 -52.5t-28 -110.5z" />
<glyph unicode="&#x112;" horiz-adv-x="562" d="M277 792l12 74h292l-12 -74h-292zM86 140l72 452q23 145 170 140q270 -10 310 -16l-15 -95h-292q-18 0 -30 -4.5t-18 -13.5t-8.5 -17t-4.5 -21l-23 -144l299 -10l-15 -95l-302 -9l-23 -147q-3 -19 0 -30.5t13.5 -16t18 -5t22.5 -0.5h283l-16 -94q-16 -2 -93 -6.5 t-145 -7.5l-68 -3q-28 -1 -53 5.5t-47 22t-31.5 45.5t-3.5 70z" />
<glyph unicode="&#x113;" horiz-adv-x="526" d="M213 598l12 73h292l-12 -73h-292zM83 292q10 54 21 89t30 68t46.5 51.5t69.5 29.5t100 11q47 0 83.5 -7t65.5 -24t43 -48t10 -74q-5 -55 -31 -94.5t-63.5 -57.5t-79.5 -27.5t-82 -7.5t-67 5.5t-39 8.5q-9 -48 -3.5 -75.5t23.5 -38t55 -11.5q93 -5 228 16l-13 -84 q-121 -35 -267 -29q-95 3 -126.5 77.5t-3.5 221.5zM201 293q3 0 7.5 -0.5t19.5 -1.5t29.5 -1t34.5 1t37 4t35.5 9.5t32.5 15.5t24 23.5t13 32.5q4 21 0 34.5t-17 20.5t-30 9.5t-45 1.5q-23 0 -42 -4.5t-32 -10t-23.5 -18t-16.5 -21.5t-11.5 -26.5t-7.5 -27.5t-6 -31 q-2 -6 -2 -10z" />
<glyph unicode="&#x116;" horiz-adv-x="562" d="M384 820l11 68q3 25 28 25h64q11 0 16 -7t3 -18l-11 -68q-3 -23 -26 -23h-64q-11 0 -17 6.5t-4 16.5zM86 140l72 452q23 145 170 140q270 -10 310 -16l-15 -95h-292q-18 0 -30 -4.5t-18 -13.5t-8.5 -17t-4.5 -21l-23 -144l299 -10l-15 -95l-302 -9l-23 -147 q-3 -19 0 -30.5t13.5 -16t18 -5t22.5 -0.5h283l-16 -94q-16 -2 -93 -6.5t-145 -7.5l-68 -3q-28 -1 -53 5.5t-47 22t-31.5 45.5t-3.5 70z" />
<glyph unicode="&#x117;" horiz-adv-x="526" d="M309 624l11 68q3 25 28 25h64q11 0 15.5 -7t3.5 -18l-11 -68q-3 -23 -26 -23h-64q-11 0 -17 6.5t-4 16.5zM83 292q10 54 21 89t30 68t46.5 51.5t69.5 29.5t100 11q47 0 83.5 -7t65.5 -24t43 -48t10 -74q-5 -55 -31 -94.5t-63.5 -57.5t-79.5 -27.5t-82 -7.5t-67 5.5 t-39 8.5q-9 -48 -3.5 -75.5t23.5 -38t55 -11.5q93 -5 228 16l-13 -84q-121 -35 -267 -29q-95 3 -126.5 77.5t-3.5 221.5zM201 293q3 0 7.5 -0.5t19.5 -1.5t29.5 -1t34.5 1t37 4t35.5 9.5t32.5 15.5t24 23.5t13 32.5q4 21 0 34.5t-17 20.5t-30 9.5t-45 1.5q-23 0 -42 -4.5 t-32 -10t-23.5 -18t-16.5 -21.5t-11.5 -26.5t-7.5 -27.5t-6 -31q-2 -6 -2 -10z" />
<glyph unicode="&#x118;" horiz-adv-x="559" d="M481 14h49q-70 -48 -64 -87q6 -30 53 -27l-12 -70q-55 -11 -91.5 20.5t-22 81.5t87.5 82zM89 140l72 452q23 145 170 140q270 -10 310 -16l-15 -95h-292q-18 0 -30 -4.5t-18 -13.5t-8.5 -17t-4.5 -21l-23 -144l300 -10l-16 -95l-302 -9l-23 -147q-3 -19 0.5 -30.5t14 -16 t17.5 -5t23 -0.5h282l-16 -94q-16 -2 -92.5 -6.5t-145.5 -7.5l-68 -3q-28 -1 -53 5.5t-46.5 22t-31.5 45.5t-4 70z" />
<glyph unicode="&#x119;" horiz-adv-x="526" d="M432 22h49q-70 -48 -64 -87q6 -30 53 -27l-12 -70q-55 -11 -91.5 20.5t-22 81.5t87.5 82zM84 292q7 38 14.5 65.5t18 55t24.5 46t33.5 35t44.5 26.5t58 15.5t75 5.5q47 0 83 -7t65.5 -24t43 -48t9.5 -74q-4 -55 -30.5 -94.5t-64 -57.5t-79.5 -27.5t-82 -7.5t-67 5.5 t-38 8.5q-12 -72 4 -98t70 -27q93 -5 229 16l-14 -84q-121 -35 -267 -29q-95 3 -126 77.5t-4 221.5zM202 293q9 -1 23.5 -2.5t52.5 -0.5t68 8t57 26.5t32 51.5q7 40 -14.5 53.5t-76.5 12.5q-24 0 -43 -4.5t-32 -10t-23.5 -18t-16 -21.5t-11 -26.5t-8 -27.5t-6.5 -31 q-1 -6 -2 -10z" />
<glyph unicode="&#x11a;" horiz-adv-x="562" d="M311 930h81l50 -71l77 71h95l-133 -133h-90zM86 140l72 452q23 145 170 140q270 -10 310 -16l-15 -95h-292q-18 0 -30 -4.5t-18 -13.5t-8.5 -17t-4.5 -21l-23 -144l299 -10l-15 -95l-302 -9l-23 -147q-3 -19 0 -30.5t13.5 -16t18 -5t22.5 -0.5h283l-16 -94 q-16 -2 -93 -6.5t-145 -7.5l-68 -3q-28 -1 -53 5.5t-47 22t-31.5 45.5t-3.5 70z" />
<glyph unicode="&#x11b;" horiz-adv-x="526" d="M237 734h81l50 -71l77 71h95l-133 -133h-90zM83 292q10 54 21 89t30 68t46.5 51.5t69.5 29.5t100 11q47 0 83.5 -7t65.5 -24t43 -48t10 -74q-5 -55 -31 -94.5t-63.5 -57.5t-79.5 -27.5t-82 -7.5t-67 5.5t-39 8.5q-9 -48 -3.5 -75.5t23.5 -38t55 -11.5q93 -5 228 16 l-13 -84q-121 -35 -267 -29q-95 3 -126.5 77.5t-3.5 221.5zM201 293q3 0 7.5 -0.5t19.5 -1.5t29.5 -1t34.5 1t37 4t35.5 9.5t32.5 15.5t24 23.5t13 32.5q4 21 0 34.5t-17 20.5t-30 9.5t-45 1.5q-23 0 -42 -4.5t-32 -10t-23.5 -18t-16.5 -21.5t-11.5 -26.5t-7.5 -27.5t-6 -31 q-2 -6 -2 -10z" />
<glyph unicode="&#x11c;" horiz-adv-x="612" d="M284 799l133 134h92l78 -134h-81l-48 72l-79 -72h-95zM109 382q11 62 23 108t29 88t39.5 70.5t52.5 50t69 31t89 9.5q115 1 254 -32l-14 -90q-35 5 -109 10.5t-125 6.5q-26 0 -44 -3t-42.5 -18t-41.5 -42t-34 -79t-28 -126q-13 -82 -10 -140.5t30 -90t79 -31.5 q32 0 70.5 13t60.5 26l23 13l26 151h-127l12 75q71 24 179 24q31 0 67 -2l-64 -404h-85l-23 54q-26 -25 -71 -42t-101 -18t-96.5 21.5t-62 60t-30.5 89.5t-7.5 105.5t12.5 111.5z" />
<glyph unicode="&#x11d;" horiz-adv-x="555" d="M221 599l132 134h92l78 -134h-81l-48 72l-79 -72h-94zM26 -248l12 77h237q38 0 65.5 24.5t34.5 70.5l17 110q-75 -38 -153 -38q-58 0 -94.5 22t-52 60.5t-17.5 92.5t9 117q21 128 79.5 189.5t149.5 61.5q49 0 106.5 -5t98 -11t67.5 -11l-95 -598q-15 -99 -73 -147 t-148 -39zM201 276q-1 -2 -1 -7q-4 -24 -5.5 -36.5t-3.5 -34.5t-0.5 -34t5.5 -27.5t12.5 -24t22 -14t32.5 -5.5q41 0 69 4.5t73 18.5l53 328h-135q-95 0 -122 -168z" />
<glyph unicode="&#x11e;" horiz-adv-x="612" d="M339 913h53q-2 -19 4 -33t18 -21t29 -7q62 -1 70 61h54q-7 -57 -39.5 -85.5t-85.5 -28.5q-46 0 -77 31t-26 83zM109 382q11 62 23 108t29 88t39.5 70.5t52.5 50t69 31t89 9.5q115 1 254 -32l-14 -90q-35 5 -109 10.5t-125 6.5q-26 0 -44 -3t-42.5 -18t-41.5 -42t-34 -79 t-28 -126q-13 -82 -10 -140.5t30 -90t79 -31.5q32 0 70.5 13t60.5 26l23 13l26 151h-127l12 75q71 24 179 24q31 0 67 -2l-64 -404h-85l-23 54q-26 -25 -71 -42t-101 -18t-96.5 21.5t-62 60t-30.5 89.5t-7.5 105.5t12.5 111.5z" />
<glyph unicode="&#x11f;" horiz-adv-x="555" d="M280 712h54q-4 -28 10.5 -44t39.5 -16q62 -1 71 60h53q-7 -56 -39 -84.5t-85 -28.5q-47 0 -77.5 31t-26.5 82zM26 -248l12 77h237q38 0 65.5 24.5t34.5 70.5l17 110q-75 -38 -153 -38q-58 0 -94.5 22t-52 60.5t-17.5 92.5t9 117q21 128 79.5 189.5t149.5 61.5 q49 0 106.5 -5t98 -11t67.5 -11l-95 -598q-15 -99 -73 -147t-148 -39zM201 276q-1 -2 -1 -7q-4 -24 -5.5 -36.5t-3.5 -34.5t-0.5 -34t5.5 -27.5t12.5 -24t22 -14t32.5 -5.5q41 0 69 4.5t73 18.5l53 328h-135q-95 0 -122 -168z" />
<glyph unicode="&#x120;" horiz-adv-x="612" d="M388 823l11 68q3 25 28 25h64q11 0 16 -7t3 -18l-11 -68q-3 -23 -26 -23h-64q-11 0 -17 6.5t-4 16.5zM109 382q11 62 23 108t29 88t39.5 70.5t52.5 50t69 31t89 9.5q115 1 254 -32l-14 -90q-35 5 -109 10.5t-125 6.5q-26 0 -44 -3t-42.5 -18t-41.5 -42t-34 -79t-28 -126 q-13 -82 -10 -140.5t30 -90t79 -31.5q32 0 70.5 13t60.5 26l23 13l26 151h-127l12 75q71 24 179 24q31 0 67 -2l-64 -404h-85l-23 54q-26 -25 -71 -42t-101 -18t-96.5 21.5t-62 60t-30.5 89.5t-7.5 105.5t12.5 111.5z" />
<glyph unicode="&#x121;" horiz-adv-x="555" d="M330 622l11 68q3 25 28 25h64q11 0 16 -7t3 -18l-11 -68q-3 -23 -26 -23h-64q-11 0 -16.5 6.5t-4.5 16.5zM26 -248l12 77h237q38 0 65.5 24.5t34.5 70.5l17 110q-75 -38 -153 -38q-58 0 -94.5 22t-52 60.5t-17.5 92.5t9 117q21 128 79.5 189.5t149.5 61.5q49 0 106.5 -5 t98 -11t67.5 -11l-95 -598q-15 -99 -73 -147t-148 -39zM201 276q-1 -2 -1 -7q-4 -24 -5.5 -36.5t-3.5 -34.5t-0.5 -34t5.5 -27.5t12.5 -24t22 -14t32.5 -5.5q41 0 69 4.5t73 18.5l53 328h-135q-95 0 -122 -168z" />
<glyph unicode="&#x122;" horiz-adv-x="612" d="M255 -263l6 38q10 0 16.5 2t9.5 6.5t4 8t2 8.5l3 16h-10q-10 0 -15.5 6t-3.5 16l10 68q4 24 27 24h65q20 0 17 -24l-16 -100q-4 -26 -17.5 -43t-29.5 -22.5t-31.5 -6.5t-25.5 1zM109 382q11 62 23 108t29 88t39.5 70.5t52.5 50t69 31t89 9.5q115 1 254 -32l-14 -90 q-35 5 -109 10.5t-125 6.5q-26 0 -44 -3t-42.5 -18t-41.5 -42t-34 -79t-28 -126q-13 -82 -10 -140.5t30 -90t79 -31.5q32 0 70.5 13t60.5 26l23 13l26 151h-127l12 75q71 24 179 24q31 0 67 -2l-64 -404h-85l-23 54q-26 -25 -71 -42t-101 -18t-96.5 21.5t-62 60t-30.5 89.5 t-7.5 105.5t12.5 111.5z" />
<glyph unicode="&#x123;" horiz-adv-x="582" d="M34 -248l13 77h237q38 0 65 24.5t35 70.5l17 110q-76 -38 -153 -38q-58 0 -95 22t-52 60.5t-17.5 92.5t9.5 117q21 128 79.5 189.5t148.5 61.5q72 0 150 -9t123 -18l-95 -598q-16 -99 -74 -147t-147 -39zM209 276q0 -2 -1 -7q-3 -24 -5 -36.5t-3.5 -34.5t0 -34t5.5 -27.5 t12 -24t22 -14t32 -5.5q29 0 49 1.5t41.5 6.5t52.5 15l52 328h-134q-96 0 -123 -168zM333 622l15 100q4 26 18 43t30 22.5t31.5 7t26.5 -1.5l10 -2l-6 -38q-13 0 -20 -4.5t-9 -9t-3 -11.5l-3 -16h10q22 0 19 -22l-10 -68q-5 -24 -27 -24h-65q-20 0 -17 24z" />
<glyph unicode="&#x124;" horiz-adv-x="646" d="M306 797l132 133h92l78 -133h-81l-48 72l-79 -72h-94zM71 0l116 732h116l-52 -324h287l52 324h116l-116 -732h-116l48 300h-287l-48 -300h-116z" />
<glyph unicode="&#x125;" horiz-adv-x="547" d="M78 843l133 134h92l78 -134h-81l-48 72l-79 -72h-95zM45 0l124 783h116l-50 -311l9 6q26 15 41 23t39.5 19t49 15.5t52.5 4.5q42 0 71.5 -14.5t43.5 -39.5t19 -57.5t-3 -68.5l-57 -360h-116l57 361q13 81 -57 81q-45 0 -78 -11.5t-83 -38.5l-62 -392h-116z" />
<glyph unicode="&#x126;" horiz-adv-x="653" d="M71 0l82 517h-62l9 61h62l25 154h116l-25 -154h287l25 154h116l-25 -154h61l-9 -61h-61l-82 -517h-116l49 300h-287l-49 -300h-116zM252 410h287l17 107h-287z" />
<glyph unicode="&#x127;" horiz-adv-x="552" d="M60 0l96 606h-71l10 62h71l18 115h118l-19 -115h121l-10 -62h-120l-22 -134q8 5 29.5 16.5t30.5 16.5t27.5 13.5t31.5 12t30.5 6.5t34.5 3q42 0 72 -14.5t43.5 -39.5t18.5 -57.5t-2 -68.5l-58 -360h-116l58 361q3 21 0.5 36.5t-10.5 25.5t-20 14.5t-27 4.5 q-68 -1 -155 -50l-62 -392h-118z" />
<glyph unicode="&#x128;" horiz-adv-x="244" d="M95 847q38 32 69 50t62 18q26 -1 55.5 -17.5t44.5 -17.5q20 -1 54 12.5t46 23.5l14 -53q-1 -1 -15 -12t-18 -14t-16.5 -11.5t-19 -11.5t-17 -8t-20 -6.5t-19.5 -1.5q-27 0 -57.5 17t-47.5 17q-10 0 -20 -2t-16.5 -3.5t-16.5 -6t-14.5 -6.5t-16 -8.5t-15.5 -8.5zM74 0 l116 732h116l-116 -732h-116z" />
<glyph unicode="&#x129;" horiz-adv-x="214" d="M24 647q37 32 68 50t62 18q26 -1 56 -17.5t44 -17.5q14 0 36 7t39.5 15.5t24.5 13.5l15 -53q-2 -1 -16 -12t-18 -14t-16 -11.5t-19 -11.5t-17.5 -8t-20 -6.5t-18.5 -1.5q-28 0 -58 17t-47 17q-10 0 -20 -1.5t-17 -3.5t-17 -6.5t-14.5 -6.5t-16 -8.5t-15.5 -8.5zM46 0 l84 531h116l-84 -531h-116z" />
<glyph unicode="&#x12a;" horiz-adv-x="244" d="M74 794l12 73h292l-12 -73h-292zM43 0l116 732h116l-116 -732h-116z" />
<glyph unicode="&#x12b;" horiz-adv-x="214" d="M50 597l11 74h292l-11 -74h-292zM46 0l84 531h116l-84 -531h-116z" />
<glyph unicode="&#x12e;" horiz-adv-x="244" d="M112 0h49q-69 -48 -64 -86q6 -30 53 -28l-12 -70q-55 -11 -91.5 21t-22 81.5t87.5 81.5zM74 0l116 732h116l-116 -732h-116z" />
<glyph unicode="&#x12f;" horiz-adv-x="214" d="M68 5h50q-70 -48 -64 -87q5 -30 52 -27l-11 -71q-55 -10 -91.5 21.5t-22 81.5t86.5 82zM49 0l84 531h116l-84 -531h-116zM138 612l12 76q3 25 28 25h85q22 0 18 -25l-11 -76q-3 -23 -27 -23h-85q-10 0 -15.5 6t-4.5 17z" />
<glyph unicode="&#x130;" horiz-adv-x="244" d="M206 820l12 68q3 25 28 25h64q10 0 15 -7t4 -18l-12 -68q-3 -23 -26 -23h-64q-10 0 -16 6.5t-5 16.5zM74 0l116 732h116l-116 -732h-116z" />
<glyph unicode="&#x131;" horiz-adv-x="214" d="M46 0l84 531h116l-84 -531h-116z" />
<glyph unicode="&#x134;" horiz-adv-x="357" d="M224 797l132 133h92l78 -133h-81l-48 72l-79 -72h-94zM33 22l17 89q23 -3 35 -4.5t32 -2t30.5 2.5t25 9t23 17.5t16 29t11.5 41.5l84 528h116l-90 -567q-17 -113 -76 -147q-44 -25 -116.5 -23t-107.5 27z" />
<glyph unicode="&#x135;" horiz-adv-x="228" d="M17 -270l127 801h119l-85 -535q-25 -168 -75 -266h-86zM52 596l132 136h92l79 -136h-84l-49 70l-76 -70h-94z" />
<glyph unicode="&#x136;" horiz-adv-x="602" d="M228 -258l6 38q8 0 13.5 1.5t8.5 4t5.5 6.5t3 6.5t1.5 6.5l2 16h-9q-10 0 -15.5 6t-3.5 17l10 67q4 24 27 24h65q20 0 17 -24l-16 -100q-4 -26 -17.5 -43t-29.5 -22.5t-31.5 -6.5t-26.5 1zM68 0l116 732h112l-50 -314h67l247 314h142l-288 -375l172 -357h-134l-145 312 h-77l-49 -312h-113z" />
<glyph unicode="&#x137;" horiz-adv-x="515" d="M200 -258l6 38q12 0 19.5 4.5t9 9t2.5 11.5l3 16h-10q-10 0 -15.5 6t-3.5 17l11 67q4 24 26 24h65q21 0 18 -24l-16 -100q-4 -26 -17.5 -43t-29.5 -22.5t-32 -6.5t-26 1zM51 -2l124 782h116l-72 -452q41 14 87.5 45.5t84 74t47.5 81.5h125q-23 -83 -86 -148.5t-123 -94.5 l177 -288h-132l-154 253l-38 -1l-40 -252h-116z" />
<glyph unicode="&#x138;" horiz-adv-x="553" d="M51 0l84 531h116l-34 -221h69l195 221h140l-231 -274l141 -257h-132l-118 216h-79l-35 -216h-116z" />
<glyph unicode="&#x139;" horiz-adv-x="531" d="M153 792l118 136h113l-148 -136h-83zM34 136l95 596h116l-91 -571q-3 -19 0 -30.5t13.5 -15.5t18 -5t22.5 -1h271l-17 -109h-303q-63 0 -99.5 33t-25.5 103z" />
<glyph unicode="&#x13a;" horiz-adv-x="301" d="M182 843l118 137h112l-147 -137h-83zM62 189l94 594h116l-92 -580q-3 -22 -4.5 -38t0 -27t4 -18t8.5 -12t11.5 -7.5t14.5 -5.5q62 -19 65 -19l-12 -76h-82q-153 0 -123 189z" />
<glyph unicode="&#x13b;" horiz-adv-x="531" d="M218 -258l6 38q12 0 19.5 4.5t9 9t2.5 11.5l3 16h-10q-10 0 -15.5 6t-3.5 17l11 67q4 24 26 24h65q21 0 18 -24l-16 -100q-4 -26 -17.5 -43t-30 -22.5t-32 -6.5t-25.5 1zM88 136l96 596h115l-91 -571q-2 -19 1 -30.5t13.5 -15.5t18 -5t22.5 -1h271l-17 -109h-304 q-63 0 -99.5 33t-25.5 103z" />
<glyph unicode="&#x13c;" horiz-adv-x="301" d="M80 -258l7 38q9 0 15.5 2t9.5 6.5t4 8t2 8.5l3 16h-10q-10 0 -15.5 6t-3.5 17l11 67q4 24 26 24h65q21 0 17 -24l-15 -100q-5 -26 -18 -43t-29.5 -22.5t-32 -6.5t-25.5 1zM79 189l94 594h116l-91 -580q-5 -26 -5.5 -44t1.5 -29t8 -18t12.5 -10t17.5 -7q61 -19 64 -19 l-12 -76h-82q-152 0 -123 189z" />
<glyph unicode="&#x13d;" horiz-adv-x="531" d="M88 136l96 596h115l-91 -571q-2 -19 1 -30.5t13.5 -15.5t18 -5t22.5 -1h271l-17 -109h-304q-63 0 -99.5 33t-25.5 103zM349 571l10 134l11 67h88l-11 -67l-31 -134h-67z" />
<glyph unicode="&#x13e;" horiz-adv-x="340" d="M80 189l94 594h116l-92 -580q-5 -26 -5.5 -44t1.5 -29t8 -18t12.5 -10t17.5 -7q62 -19 65 -19l-12 -76h-86q-149 0 -119 189zM338 580l10 134l11 67h88l-11 -67l-31 -134h-67z" />
<glyph unicode="&#x141;" horiz-adv-x="532" d="M35 311l11 68l86 34l50 319h116l-43 -269l131 52l-12 -67l-129 -53l-38 -234q-2 -19 1 -30.5t13.5 -15.5t17.5 -5t22 -1h272l-17 -109h-303q-63 0 -100 33t-25 103l33 209z" />
<glyph unicode="&#x142;" horiz-adv-x="351" d="M72 357l11 68l79 32l52 326h118l-44 -275l134 53l-11 -67l-133 -54l-40 -237q-5 -26 -5.5 -44t1.5 -29t8 -18t12.5 -10t17.5 -7q62 -19 65 -19l-12 -76h-82q-70 0 -104.5 44.5t-18.5 144.5l32 201z" />
<glyph unicode="&#x143;" horiz-adv-x="665" d="M426 797l118 137h113l-148 -137h-83zM68 0l116 732h115l234 -519l82 519h116l-116 -732h-114l-235 515l-81 -515h-117z" />
<glyph unicode="&#x144;" horiz-adv-x="547" d="M332 600l119 136h112l-148 -136h-83zM51 0l84 531h90l17 -59q3 2 10 6q35 21 54.5 31.5t54.5 20.5t70 10q43 0 72.5 -14.5t43.5 -39.5t18.5 -57.5t-2.5 -68.5l-57 -360h-116l57 361q13 81 -57 81q-32 0 -58.5 -6.5t-48 -16t-54.5 -27.5l-62 -392h-116z" />
<glyph unicode="&#x145;" horiz-adv-x="665" d="M267 -258l6 38q12 0 19.5 4.5t9 9t2.5 11.5l3 16h-10q-10 0 -15.5 6t-3.5 17l11 67q4 24 26 24h65q21 0 18 -24l-16 -100q-4 -26 -17.5 -43t-29.5 -22.5t-32 -6.5t-26 1zM68 0l116 732h115l234 -519l82 519h116l-116 -732h-114l-235 515l-81 -515h-117z" />
<glyph unicode="&#x146;" horiz-adv-x="547" d="M195 -258l6 38q13 0 20.5 4.5t9 9t2.5 11.5l3 16h-10q-10 0 -15.5 6t-3.5 17l10 67q4 24 27 24h65q21 0 17 -24l-15 -100q-5 -26 -18.5 -43t-29.5 -22.5t-31.5 -6.5t-25.5 1zM51 0l84 531h90l17 -59q3 2 10 6q35 21 54.5 31.5t54.5 20.5t70 10q43 0 72.5 -14.5 t43.5 -39.5t18.5 -57.5t-2.5 -68.5l-57 -360h-116l57 361q13 81 -57 81q-32 0 -58.5 -6.5t-48 -16t-54.5 -27.5l-62 -392h-116z" />
<glyph unicode="&#x147;" horiz-adv-x="665" d="M338 930h81l49 -71l77 71h95l-132 -133h-91zM68 0l116 732h115l234 -519l82 519h116l-116 -732h-114l-235 515l-81 -515h-117z" />
<glyph unicode="&#x148;" horiz-adv-x="547" d="M247 734h81l49 -72l78 72h94l-132 -134h-90zM51 0l84 531h90l17 -59q3 2 10 6q35 21 54.5 31.5t54.5 20.5t70 10q43 0 72.5 -14.5t43.5 -39.5t18.5 -57.5t-2.5 -68.5l-57 -360h-116l57 361q13 81 -57 81q-32 0 -58.5 -6.5t-48 -16t-54.5 -27.5l-62 -392h-116z" />
<glyph unicode="&#x14a;" horiz-adv-x="665" d="M68 0l116 732h115l234 -517l82 517h116l-116 -729l-12 -80q-6 -35 -17.5 -62.5t-27 -46.5t-35 -33t-41.5 -21.5t-46.5 -12t-49.5 -4.5h-51l14 85q7 1 24.5 4t26 4.5t23 6t22.5 11.5t18 17.5t16 26t9 36.5l11 70l-233 510l-81 -514h-117z" />
<glyph unicode="&#x14b;" horiz-adv-x="556" d="M51 0l84 531h90l17 -59q5 3 33.5 19t38 20.5t32 13.5t42.5 12t43 3q43 0 72.5 -14.5t43.5 -39.5t18.5 -57.5t-2.5 -69.5l-57 -359l-13 -76q-7 -36 -21 -65.5t-33 -49t-38 -33.5t-43.5 -22.5t-41 -13t-37.5 -8.5l-24 62q22 10 31 14t28 15t28.5 22.5t20 31t14.5 43.5 l13 80l57 361q13 81 -57 81q-46 0 -79 -11.5t-82 -38.5l-62 -392h-116z" />
<glyph unicode="&#x14c;" horiz-adv-x="666" d="M319 794l12 73h292l-12 -73h-292zM108 370q9 56 20.5 102.5t24 82t30 63t33.5 46.5t38.5 32.5t42.5 21.5t47.5 12t50.5 5.5t56 1.5q40 0 70.5 -3.5t61 -14t51 -28.5t37 -47t23.5 -69t5.5 -96t-11.5 -127q-11 -68 -26 -121t-32.5 -90.5t-42 -64t-48.5 -42t-57.5 -24.5 t-63.5 -11.5t-72 -2.5q-39 0 -69 3t-61 13t-51.5 26.5t-38 44.5t-24.5 67t-6 94.5t12 125.5zM224 361q-11 -67 -12.5 -111.5t5.5 -74t26.5 -44.5t45.5 -20.5t68 -5.5q49 0 81 9.5t59 37t44.5 78t30.5 131.5q6 42 9 76t3 60t-4 46t-9.5 34t-16.5 23.5t-21 15t-26.5 8 t-30.5 3.5t-36 1q-23 0 -37 -0.5t-32.5 -3.5t-30 -8t-25.5 -14.5t-23.5 -23.5t-20 -33.5t-18 -46t-15.5 -60.5t-14 -77z" />
<glyph unicode="&#x14d;" horiz-adv-x="560" d="M227 597l11 74h292l-11 -74h-292zM82 267q13 82 33 133.5t54 82.5t79.5 42.5t114.5 11.5q129 0 175 -69.5t22 -218.5q-24 -148 -81.5 -201t-192.5 -53q-132 0 -179.5 64t-24.5 208zM198 258q-8 -44 -7.5 -74t6 -48t20.5 -27.5t32.5 -12t45.5 -2.5q37 0 57 4t39.5 20.5 t31.5 49.5t21 90q8 46 9 77t-3.5 52t-18 32t-32.5 15.5t-49 4.5q-38 0 -60 -6t-41 -25t-30 -54t-21 -96z" />
<glyph unicode="&#x150;" horiz-adv-x="666" d="M345 797l118 137h113l-148 -137h-83zM493 797l118 137h113l-148 -137h-83zM108 370q9 56 20.5 102.5t24 82t30 63t33.5 46.5t38.5 32.5t42.5 21.5t47.5 12t50.5 5.5t56 1.5q40 0 70.5 -3.5t61 -14t51 -28.5t37 -47t23.5 -69t5.5 -96t-11.5 -127q-11 -68 -26 -121 t-32.5 -90.5t-42 -64t-48.5 -42t-57.5 -24.5t-63.5 -11.5t-72 -2.5q-39 0 -69 3t-61 13t-51.5 26.5t-38 44.5t-24.5 67t-6 94.5t12 125.5zM224 361q-11 -67 -12.5 -111.5t5.5 -74t26.5 -44.5t45.5 -20.5t68 -5.5q49 0 81 9.5t59 37t44.5 78t30.5 131.5q6 42 9 76t3 60t-4 46 t-9.5 34t-16.5 23.5t-21 15t-26.5 8t-30.5 3.5t-36 1q-23 0 -37 -0.5t-32.5 -3.5t-30 -8t-25.5 -14.5t-23.5 -23.5t-20 -33.5t-18 -46t-15.5 -60.5t-14 -77z" />
<glyph unicode="&#x151;" horiz-adv-x="560" d="M257 597l118 137h113l-148 -137h-83zM405 597l119 137h112l-148 -137h-83zM82 267q13 82 33 133.5t54 82.5t79.5 42.5t114.5 11.5q129 0 175 -69.5t22 -218.5q-24 -148 -81.5 -201t-192.5 -53q-132 0 -179.5 64t-24.5 208zM198 258q-8 -44 -7.5 -74t6 -48t20.5 -27.5 t32.5 -12t45.5 -2.5q37 0 57 4t39.5 20.5t31.5 49.5t21 90q8 46 9 77t-3.5 52t-18 32t-32.5 15.5t-49 4.5q-38 0 -60 -6t-41 -25t-30 -54t-21 -96z" />
<glyph unicode="&#x152;" horiz-adv-x="1051" d="M93 370q8 51 18 93.5t22 76t25 60.5t29.5 47t32.5 35t37 24.5t39.5 16t43.5 9.5t46 4t50 1q71 0 119 -14t77 -52q38 66 135 61q271 -10 311 -16l-15 -95h-292q-33 0 -45 -15t-16 -41l-23 -144l299 -10l-14 -95l-303 -9l-23 -147q-3 -19 0 -30.5t13.5 -16t18 -5t22.5 -0.5 h282l-15 -94q-16 -2 -92.5 -6.5t-144.5 -7.5l-69 -3q-36 -2 -68 12t-48 44q-39 -34 -90 -45.5t-123 -11.5q-40 0 -69.5 3t-60.5 13t-52 26.5t-38 44.5t-24.5 67t-6.5 94.5t12 125.5zM209 361q-11 -67 -12 -111.5t5.5 -74t26 -44.5t45.5 -20.5t68 -5.5q49 0 81 9.5t59.5 37 t44.5 78t30 131.5q7 42 10 76t3 60t-4.5 46t-9.5 34t-16 23.5t-21 15t-27 8t-31 3.5t-35 1q-23 0 -37.5 -0.5t-32.5 -3.5t-29.5 -8t-25.5 -14.5t-23.5 -23.5t-20 -33.5t-18.5 -46t-15.5 -60.5t-14.5 -77z" />
<glyph unicode="&#x153;" horiz-adv-x="893" d="M75 269q13 82 33 133.5t54 82t79.5 41.5t114.5 11q120 0 165 -65q57 69 194 69q47 0 83.5 -7t65.5 -24t43 -48t10 -74q-5 -55 -31 -94.5t-63.5 -57.5t-80 -27.5t-82 -7.5t-67 5.5t-38.5 8.5q-12 -72 4 -98.5t70 -26.5q129 0 229 16l-14 -84q-120 -35 -267 -29 q-79 2 -109 57q-57 -55 -189 -55t-179.5 65t-24.5 209zM191 258q-6 -37 -7.5 -64t3 -45t11.5 -29t21.5 -17t29.5 -8t39 -2q37 0 57 4.5t39.5 21t31.5 49.5t21 90q8 46 9 77t-3.5 52t-18 32t-32.5 15.5t-49 4.5q-38 0 -60 -6t-41 -25t-30 -54t-21 -96zM565 293q5 0 12.5 -1 t30 -2t43.5 0t47.5 6t46 14t35 26t19.5 40q7 40 -15 53.5t-77 12.5q-24 0 -43 -4.5t-32 -10.5t-23.5 -18t-16.5 -21t-11 -26.5t-7.5 -28t-6.5 -30.5q0 -2 -0.5 -3.5l-1 -3t-0.5 -3.5z" />
<glyph unicode="&#x154;" horiz-adv-x="606" d="M372 795l118 137h113l-148 -137h-83zM60 0l116 732h310q82 0 125 -56t28 -178q-7 -53 -22.5 -92t-31.5 -59t-38.5 -33t-34 -16t-27.5 -5l105 -293h-130l-91 285l-146 11l-47 -296h-116zM238 388h182q90 0 102 119q7 72 -7.5 95.5t-53.5 23.5h-185z" />
<glyph unicode="&#x155;" horiz-adv-x="421" d="M330 598l118 136h113l-148 -136h-83zM102 0l84 531h94l11 -67q33 23 55 36t57.5 25t68.5 12q48 0 64 -7l-18 -113q-27 4 -75 4q-51 0 -88 -12.5t-79 -46.5l-58 -362h-116z" />
<glyph unicode="&#x156;" horiz-adv-x="606" d="M238 -258l7 38q12 0 19.5 4.5t9 9t2.5 11.5l3 16h-10q-10 0 -15.5 6t-3.5 17l10 67q5 24 27 24h65q21 0 17 -24l-15 -100q-5 -26 -18 -43t-29.5 -22.5t-32 -6.5t-25.5 1zM64 0l116 732h310q82 0 125 -56t28 -178q-6 -53 -22 -92t-31.5 -59t-38.5 -33t-34.5 -16t-26.5 -5 l104 -293h-130l-90 285l-147 11l-47 -296h-116zM243 388h181q90 0 102 119q7 72 -7.5 95.5t-53.5 23.5h-185z" />
<glyph unicode="&#x157;" horiz-adv-x="421" d="M52 -258l6 38q9 0 15.5 2t10 6.5t4.5 8t2 8.5l2 16h-10q-10 0 -15 6t-3 17l10 67q4 24 27 24h64q21 0 18 -24l-16 -100q-4 -26 -17.5 -43t-29.5 -22.5t-31.5 -6.5t-26.5 1zM84 0l84 531h94l11 -67q33 23 55 36t57.5 25t68.5 12q48 0 64 -7l-18 -113q-27 4 -75 4 q-34 0 -60.5 -5.5t-52.5 -18t-55 -35.5l-57 -362h-116z" />
<glyph unicode="&#x158;" horiz-adv-x="606" d="M294 930h81l49 -71l77 71h95l-132 -133h-91zM64 0l116 732h310q82 0 125 -56t28 -178q-6 -53 -22 -92t-31.5 -59t-38.5 -33t-34.5 -16t-26.5 -5l104 -293h-130l-90 285l-147 11l-47 -296h-116zM243 388h181q90 0 102 119q7 72 -7.5 95.5t-53.5 23.5h-185z" />
<glyph unicode="&#x159;" horiz-adv-x="421" d="M190 731h81l50 -72l77 72h95l-133 -133h-90zM51 0l84 531h94l11 -67q33 23 55 36t57 25t69 12q48 0 63 -7l-18 -113q-26 4 -75 4q-34 0 -60 -5.5t-52 -18t-55 -35.5l-57 -362h-116z" />
<glyph unicode="&#x15a;" horiz-adv-x="576" d="M365 798l118 137h112l-147 -137h-83zM66 20l14 91q81 -10 247 -10q105 0 116 73l8 50q4 17 3 31.5t-6 25t-19.5 16.5t-37.5 6h-115q-41 0 -71.5 9t-47.5 25t-27.5 34.5t-13.5 41.5t-2.5 40.5t2.5 36.5l11 73q7 44 22.5 76.5t35.5 51.5t49 30t57 14.5t64 2.5q63 0 140 -8 t122 -19l-14 -91q-208 9 -241 9q-57 2 -84 -13.5t-36 -69.5l-7 -47q-2 -15 -2.5 -26.5t2 -20t5 -14t9 -9.5t11 -6t15 -3t17 -1h19.5h116q38 0 66.5 -11.5t43.5 -30.5t24.5 -43.5t9 -50t-3.5 -50.5l-7 -67q-6 -47 -24.5 -81t-41 -51.5t-55.5 -27.5t-57.5 -12t-57.5 -2 q-164 0 -258 28z" />
<glyph unicode="&#x15b;" horiz-adv-x="508" d="M310 600l118 137h112l-147 -137h-83zM70 17l13 76h259q42 0 49 41l6 37q2 13 0 22.5t-11 14.5t-25 5h-130q-73 0 -107.5 35.5t-22.5 109.5l8 49q11 66 48 99t112 33q77 0 160 -5.5t112 -17.5l-13 -77h-247q-31 0 -42.5 -12.5t-14.5 -31.5l-6 -36q-1 -8 -1 -14t1 -10.5 t2.5 -8t5 -5t6 -3t7 -1.5t7 -0.5t8 0t7.5 0.5h133q69 0 100 -40.5t21 -100.5l-9 -62q-6 -39 -22 -65t-39 -37.5t-44 -15.5t-47 -4q-75 0 -167.5 7t-116.5 18z" />
<glyph unicode="&#x15c;" horiz-adv-x="576" d="M258 799l133 133h92l78 -133h-81l-48 71l-79 -71h-95zM74 20l14 91q81 -10 247 -10q105 0 116 73l8 50q6 40 -5 59.5t-55 19.5h-115q-41 0 -71.5 9t-47.5 25t-28 34.5t-13.5 41.5t-2.5 40.5t3 36.5l11 73q6 44 22 76.5t36 51.5t49 30t57 14.5t63 2.5q64 0 141 -8t122 -19 l-14 -91q-209 9 -242 9q-57 2 -84 -13.5t-35 -69.5l-7 -47q-3 -15 -3.5 -26.5t2 -20t5 -14t9.5 -9.5t11.5 -6t15 -3t17 -1h18.5h117q38 0 66.5 -11.5t43.5 -30.5t24 -43.5t9 -50t-3 -50.5l-8 -67q-5 -47 -23.5 -81t-41 -51.5t-56 -27.5t-57.5 -12t-57 -2q-165 0 -258 28z " />
<glyph unicode="&#x15d;" horiz-adv-x="508" d="M194 600l133 134h92l78 -134h-81l-48 72l-79 -72h-95zM59 17l12 76h259q42 0 49 41l6 37q3 13 1 22.5t-11 14.5t-26 5h-130q-72 0 -106.5 35.5t-23.5 109.5l8 49q11 66 48.5 99t111.5 33q78 0 160.5 -5.5t111.5 -17.5l-12 -77h-248q-16 0 -27.5 -4t-17 -11t-8 -13.5 t-4.5 -15.5l-5 -36q-2 -8 -2 -14t1.5 -10.5t3 -8t4.5 -5t5.5 -3t7 -1.5t7.5 -0.5t8 0t7 0.5h133q69 0 100 -40.5t21 -100.5l-9 -62q-6 -39 -22 -65t-39 -37.5t-43.5 -15.5t-46.5 -4q-76 0 -168.5 7t-115.5 18z" />
<glyph unicode="&#x15e;" horiz-adv-x="576" d="M177 -184l8 51l50 15q14 6 23 16.5t12.5 22.5t6.5 34h85q-8 -53 -22.5 -82t-40 -43t-68.5 -14h-54zM74 20l14 91q81 -10 247 -10q105 0 116 73l8 50q6 40 -5 59.5t-55 19.5h-115q-41 0 -71.5 9t-47.5 25t-28 34.5t-13.5 41.5t-2.5 40.5t3 36.5l11 73q6 44 22 76.5 t36 51.5t49 30t57 14.5t63 2.5q64 0 141 -8t122 -19l-14 -91q-209 9 -242 9q-57 2 -84 -13.5t-35 -69.5l-7 -47q-3 -15 -3.5 -26.5t2 -20t5 -14t9.5 -9.5t11.5 -6t15 -3t17 -1h18.5h117q38 0 66.5 -11.5t43.5 -30.5t24 -43.5t9 -50t-3 -50.5l-8 -67q-5 -47 -23.5 -81 t-41 -51.5t-56 -27.5t-57.5 -12t-57 -2q-165 0 -258 28z" />
<glyph unicode="&#x15f;" horiz-adv-x="508" d="M132 -178l9 51l49 15q21 9 29.5 25t13.5 48h84q-12 -78 -40 -108.5t-90 -30.5h-55zM59 17l12 76h259q42 0 49 41l6 37q3 13 1 22.5t-11 14.5t-26 5h-130q-72 0 -106.5 35.5t-23.5 109.5l8 49q11 66 48.5 99t111.5 33q78 0 160.5 -5.5t111.5 -17.5l-12 -77h-248 q-16 0 -27.5 -4t-17 -11t-8 -13.5t-4.5 -15.5l-5 -36q-2 -8 -2 -14t1.5 -10.5t3 -8t4.5 -5t5.5 -3t7 -1.5t7.5 -0.5t8 0t7 0.5h133q69 0 100 -40.5t21 -100.5l-9 -62q-6 -39 -22 -65t-39 -37.5t-43.5 -15.5t-46.5 -4q-76 0 -168.5 7t-115.5 18z" />
<glyph unicode="&#x160;" horiz-adv-x="576" d="M289 932h81l49 -72l78 72h95l-133 -133h-90zM74 20l14 91q81 -10 247 -10q105 0 116 73l8 50q6 40 -5 59.5t-55 19.5h-115q-41 0 -71.5 9t-47.5 25t-28 34.5t-13.5 41.5t-2.5 40.5t3 36.5l11 73q6 44 22 76.5t36 51.5t49 30t57 14.5t63 2.5q64 0 141 -8t122 -19l-14 -91 q-209 9 -242 9q-57 2 -84 -13.5t-35 -69.5l-7 -47q-3 -15 -3.5 -26.5t2 -20t5 -14t9.5 -9.5t11.5 -6t15 -3t17 -1h18.5h117q38 0 66.5 -11.5t43.5 -30.5t24 -43.5t9 -50t-3 -50.5l-8 -67q-5 -47 -23.5 -81t-41 -51.5t-56 -27.5t-57.5 -12t-57 -2q-165 0 -258 28z" />
<glyph unicode="&#x161;" horiz-adv-x="508" d="M212 734h82l49 -72l77 72h95l-133 -134h-90zM59 17l12 76h259q42 0 49 41l6 37q3 13 1 22.5t-11 14.5t-26 5h-130q-72 0 -106.5 35.5t-23.5 109.5l8 49q11 66 48.5 99t111.5 33q78 0 160.5 -5.5t111.5 -17.5l-12 -77h-248q-16 0 -27.5 -4t-17 -11t-8 -13.5t-4.5 -15.5 l-5 -36q-2 -8 -2 -14t1.5 -10.5t3 -8t4.5 -5t5.5 -3t7 -1.5t7.5 -0.5t8 0t7 0.5h133q69 0 100 -40.5t21 -100.5l-9 -62q-6 -39 -22 -65t-39 -37.5t-43.5 -15.5t-46.5 -4q-76 0 -168.5 7t-115.5 18z" />
<glyph unicode="&#x162;" horiz-adv-x="585" d="M121 -184l9 52l49 15q11 4 18.5 10.5t12 16.5t7 20t5.5 26h84q-12 -78 -40 -109t-90 -31h-55zM107 623l18 109h529l-18 -109h-209l-99 -623h-116l99 623h-204z" />
<glyph unicode="&#x163;" horiz-adv-x="376" d="M66 -185l9 51l49 15q14 6 23 16.5t12.5 23t6.5 33.5h85q-12 -78 -40 -108.5t-90 -30.5h-55zM74 437l11 70l95 25l44 148h95l-23 -148h131l-15 -95h-132l-36 -234q-4 -22 -5 -38t0.5 -27.5t4 -18.5t8 -11.5t11 -7t15.5 -5.5q61 -19 64 -19l-11 -76h-86q-149 0 -119 189 l38 248h-90z" />
<glyph unicode="&#x164;" horiz-adv-x="585" d="M290 930h81l50 -71l77 71h95l-133 -133h-90zM128 623l18 109h529l-18 -109h-209l-99 -623h-116l99 623h-204z" />
<glyph unicode="&#x165;" horiz-adv-x="400" d="M68 437l11 70l94 25l45 148h95l-24 -148h132l-15 -95h-132l-37 -233q-5 -33 -5 -53t5.5 -31t12.5 -15.5t21 -9.5q61 -19 65 -19l-12 -76h-86q-67 0 -100.5 45.5t-18.5 144.5l39 247h-90zM364 599l12 134l9 67h89l-10 -67l-33 -134h-67z" />
<glyph unicode="&#x166;" horiz-adv-x="592" d="M128 623l18 109h529l-18 -109h-209l-30 -186h106l-9 -61h-106l-60 -376h-116l60 376h-106l9 61h106l30 186h-204z" />
<glyph unicode="&#x167;" horiz-adv-x="370" d="M71 261l10 61h74l18 115h-91l11 70l95 25l44 148h95l-23 -148h132l-15 -95h-132l-18 -115h91l-10 -61h-91l-9 -57q-5 -33 -5.5 -53t5 -31t12.5 -15.5t21 -9.5q63 -19 66 -19l-12 -76h-86q-67 0 -101 45.5t-18 144.5l11 71h-74z" />
<glyph unicode="&#x168;" horiz-adv-x="654" d="M298 847q37 32 68 50t62 18q26 -1 56 -17.5t44 -17.5q20 -1 54 12.5t46 23.5l15 -53q-2 -1 -16 -12t-17.5 -14t-16 -11.5t-19 -11.5t-17.5 -8t-20.5 -6.5t-18.5 -1.5q-22 0 -40.5 8.5t-34 17t-30.5 8.5q-10 0 -20 -2t-17 -3.5t-17 -6t-14.5 -6.5t-16 -8.5t-15.5 -8.5z M116 319l66 413h117l-67 -424q-19 -116 7 -160t111 -44t127 46.5t59 157.5l67 424h117l-65 -434q-25 -158 -98.5 -230.5t-220.5 -72.5q-41 0 -73 6t-62 20t-48.5 38t-32 60t-13 85.5t8.5 114.5z" />
<glyph unicode="&#x169;" horiz-adv-x="546" d="M201 647q37 32 68 50t62 18q16 -1 31.5 -6.5t25 -11.5t21.5 -11t22 -6q14 0 36 7t39.5 15.5t24.5 13.5l15 -53q-2 -1 -16 -12t-18 -14t-16 -11.5t-18.5 -11.5t-17.5 -8t-20.5 -6.5t-18.5 -1.5q-22 0 -40.5 8.5t-34 17t-30.5 8.5q-10 0 -20 -1.5t-17 -3.5t-17 -6.5 t-14.5 -6.5t-16 -8.5t-15.5 -8.5zM70 172l56 359h116l-57 -361q-7 -45 8.5 -62.5t49.5 -17.5q45 0 78 11t83 39l61 391h116l-84 -531h-91l-15 58q-38 -23 -59 -34.5t-57 -22t-74 -10.5q-83 0 -113.5 49.5t-17.5 131.5z" />
<glyph unicode="&#x16a;" horiz-adv-x="654" d="M316 797l11 73h292l-11 -73h-292zM116 319l66 413h117l-67 -424q-19 -116 7 -160t111 -44t127 46.5t59 157.5l67 424h117l-65 -434q-25 -158 -98.5 -230.5t-220.5 -72.5q-41 0 -73 6t-62 20t-48.5 38t-32 60t-13 85.5t8.5 114.5z" />
<glyph unicode="&#x16b;" horiz-adv-x="546" d="M218 597l12 74h292l-12 -74h-292zM70 172l56 359h116l-57 -361q-7 -45 8.5 -62.5t49.5 -17.5q45 0 78 11t83 39l61 391h116l-84 -531h-91l-15 58q-38 -23 -59 -34.5t-57 -22t-74 -10.5q-83 0 -113.5 49.5t-17.5 131.5z" />
<glyph unicode="&#x16c;" horiz-adv-x="654" d="M366 910h53q-4 -28 10.5 -44t39.5 -16q63 -1 71 60h54q-7 -56 -39.5 -84.5t-85.5 -28.5q-46 0 -77 31t-26 82zM116 319l66 413h117l-67 -424q-19 -116 7 -160t111 -44t127 46.5t59 157.5l67 424h117l-65 -434q-25 -158 -98.5 -230.5t-220.5 -72.5q-41 0 -73 6t-62 20 t-48.5 38t-32 60t-13 85.5t8.5 114.5z" />
<glyph unicode="&#x16d;" horiz-adv-x="546" d="M268 710h54q-4 -28 10.5 -44t39.5 -16q63 -1 71 60h54q-7 -56 -39.5 -84.5t-85.5 -28.5q-46 0 -77 31t-27 82zM70 172l56 359h116l-57 -361q-7 -45 8.5 -62.5t49.5 -17.5q45 0 78 11t83 39l61 391h116l-84 -531h-91l-15 58q-38 -23 -59 -34.5t-57 -22t-74 -10.5 q-83 0 -113.5 49.5t-17.5 131.5z" />
<glyph unicode="&#x16e;" horiz-adv-x="654" d="M376 898q4 43 36 72.5t74 29.5t69.5 -29.5t23.5 -72t-35.5 -72t-73.5 -29.5t-70 29.5t-24 71.5zM430 898q-1 -13 4.5 -23.5t16 -16.5t23.5 -6q19 0 34 13.5t16.5 33t-10.5 33.5t-31.5 14t-35 -14t-17.5 -34zM116 319l66 413h117l-67 -424q-19 -116 7 -160t111 -44 t127 46.5t59 157.5l67 424h117l-65 -434q-25 -158 -98.5 -230.5t-220.5 -72.5q-41 0 -73 6t-62 20t-48.5 38t-32 60t-13 85.5t8.5 114.5z" />
<glyph unicode="&#x16f;" horiz-adv-x="546" d="M279 698q3 43 35.5 72.5t74.5 29.5t69 -29.5t23.5 -72t-35 -72t-73.5 -29.5q-43 0 -70.5 29.5t-23.5 71.5zM333 698.5q-2 -19.5 11 -33t32.5 -13.5t34 13.5t16.5 32.5q1 10 -2 19t-8.5 15t-14 10t-17.5 4q-20 0 -35 -14t-17 -33.5zM70 172l56 359h116l-57 -361 q-7 -45 8.5 -62.5t49.5 -17.5q45 0 78 11t83 39l61 391h116l-84 -531h-91l-15 58q-38 -23 -59 -34.5t-57 -22t-74 -10.5q-83 0 -113.5 49.5t-17.5 131.5z" />
<glyph unicode="&#x170;" horiz-adv-x="654" d="M346 797l118 137h113l-148 -137h-83zM494 797l118 137h113l-148 -137h-83zM116 319l66 413h117l-67 -424q-19 -116 7 -160t111 -44t127 46.5t59 157.5l67 424h117l-65 -434q-25 -158 -98.5 -230.5t-220.5 -72.5q-41 0 -73 6t-62 20t-48.5 38t-32 60t-13 85.5t8.5 114.5z " />
<glyph unicode="&#x171;" horiz-adv-x="546" d="M249 597l118 137h112l-147 -137h-83zM397 597l118 137h113l-148 -137h-83zM70 172l56 359h116l-57 -361q-7 -45 8.5 -62.5t49.5 -17.5q45 0 78 11t83 39l61 391h116l-84 -531h-91l-15 58q-38 -23 -59 -34.5t-57 -22t-74 -10.5q-83 0 -113.5 49.5t-17.5 131.5z" />
<glyph unicode="&#x172;" horiz-adv-x="654" d="M316 1h49q-70 -48 -64 -87q6 -30 53 -27l-12 -71q-55 -10 -91.5 21.5t-22 81.5t87.5 82zM116 319l66 413h117l-67 -424q-19 -116 7 -160t111 -44t127 46.5t59 157.5l67 424h117l-65 -434q-25 -158 -98.5 -230.5t-220.5 -72.5q-41 0 -73 6t-62 20t-48.5 38t-32 60 t-13 85.5t8.5 114.5z" />
<glyph unicode="&#x173;" horiz-adv-x="574" d="M427 -1h50q-70 -48 -64 -86q5 -30 52 -28l-11 -70q-55 -11 -91.5 21t-22 81.5t86.5 81.5zM70 172l56 359h116l-57 -361q-7 -45 8.5 -62.5t49.5 -17.5q45 0 78 11t83 39l61 391h116l-84 -531h-91l-15 58q-38 -23 -59 -34.5t-57 -22t-74 -10.5q-83 0 -113.5 49.5 t-17.5 131.5z" />
<glyph unicode="&#x174;" horiz-adv-x="1007" d="M462 797l132 133h92l78 -133h-81l-48 72l-79 -72h-94zM143 732h120l91 -567l269 567h126l-107 -220l54 -350l272 570h124l-354 -732h-127l-52 327l-160 -327h-133z" />
<glyph unicode="&#x175;" horiz-adv-x="817" d="M333 596l132 134h92l78 -134h-81l-48 72l-79 -72h-94zM87 531h121l72 -395l149 293q24 50 30 101h100q14 -55 -10 -112l-21 -47l45 -232l153 292q24 50 30 101h101q16 -67 -20 -133l-218 -399h-125l-46 232l-116 -232h-135z" />
<glyph unicode="&#x176;" horiz-adv-x="647" d="M296 797l132 133h92l79 -133h-82l-47 72l-79 -72h-95zM143 732h125l100 -361l229 361h134l-323 -493l-38 -239h-116l38 239z" />
<glyph unicode="&#x177;" horiz-adv-x="558" d="M201 596l133 134h92l78 -134h-81l-48 72l-79 -72h-95zM88 531h120l44 -387q1 -7 3 -12t5 -8.5t6.5 -7t7 -5t7.5 -3t7.5 -2l7 -1t6.5 -0.5h5h3l155 327q18 39 26 101h104q16 -64 -18 -136l-189 -396q-28 -60 -59 -106.5t-59.5 -76.5t-60 -51t-58.5 -32t-57 -16v82 q59 34 98 83.5t73 115.5q-49 0 -84.5 29.5t-43.5 96.5z" />
<glyph unicode="&#x178;" horiz-adv-x="647" d="M244.5 850q3.5 23 23 39t42.5 16t36.5 -16t10 -39t-22.5 -39.5t-42 -16.5t-37 16.5t-10.5 39.5zM499.5 850q3.5 23 23 39t42.5 16t36.5 -16t10 -39t-22.5 -39.5t-42 -16.5t-37 16.5t-10.5 39.5zM115 732h125l100 -361l229 361h134l-323 -493l-38 -239h-116l38 239z" />
<glyph unicode="&#x179;" horiz-adv-x="559" d="M431 794l118 136h113l-148 -136h-83zM97 0l18 109l437 514h-356l17 109h500l-17 -109l-430 -514h349l-18 -109h-500z" />
<glyph unicode="&#x17a;" horiz-adv-x="467" d="M317 594l118 136h113l-148 -136h-83zM71 1l14 101l306 327h-266l15 102h417l-15 -102l-296 -326h243l-16 -102h-402z" />
<glyph unicode="&#x17b;" horiz-adv-x="559" d="M354 820l11 68q4 25 28 25h64q11 0 16 -7t3 -18l-11 -68q-3 -23 -26 -23h-64q-10 0 -16 6.5t-5 16.5zM30 0l17 109l437 514h-356l18 109h500l-18 -109l-430 -514h349l-17 -109h-500z" />
<glyph unicode="&#x17c;" horiz-adv-x="467" d="M277 620l11 68q3 25 28 25h64q10 0 15 -7t4 -18l-11 -68q-4 -23 -26 -23h-64q-11 0 -17 6.5t-4 16.5zM40 1l15 101l305 327h-265l14 102h417l-14 -102l-297 -326h243l-16 -102h-402z" />
<glyph unicode="&#x17d;" horiz-adv-x="559" d="M276 930h81l49 -71l78 71h95l-133 -133h-90zM30 0l17 109l437 514h-356l18 109h500l-18 -109l-430 -514h349l-17 -109h-500z" />
<glyph unicode="&#x17e;" horiz-adv-x="467" d="M198 731h82l49 -72l77 72h95l-132 -134h-91zM40 1l15 101l305 327h-265l14 102h417l-14 -102l-297 -326h243l-16 -102h-402z" />
<glyph unicode="&#x192;" horiz-adv-x="495" d="M-11 -179l18 73h72q20 0 37 12.5t28 30t20.5 46t15 50.5t11.5 55l61 295h-92l23 96h93l4 27q14 63 30.5 111.5t40.5 91.5t58.5 66.5t76.5 24.5q18 1 35 -1t30.5 -6t22.5 -7t18 -7l9 -4l-18 -73h-70q-17 0 -31 -7.5t-25 -23t-19.5 -31.5t-16 -42t-12 -44t-11.5 -48l-5 -28 h125l-23 -95h-125l-61 -295q-11 -52 -22 -90.5t-28.5 -78t-38 -64.5t-51 -41.5t-67.5 -17.5q-34 -2 -68.5 7.5t-44.5 17.5z" />
<glyph unicode="&#x2c6;" horiz-adv-x="322" d="M56 531l132 133h92l78 -133h-81l-48 72l-78 -72h-95z" />
<glyph unicode="&#x2c7;" horiz-adv-x="375" d="M25 664h81l49 -71l77 71h95l-132 -133h-91z" />
<glyph unicode="&#x2d8;" horiz-adv-x="251" d="M57 644h54q-4 -28 10.5 -44.5t39.5 -16.5q62 -1 71 61h53q-7 -56 -39 -84.5t-85 -28.5q-47 0 -77.5 30.5t-26.5 82.5z" />
<glyph unicode="&#x2d9;" horiz-adv-x="137" d="M101 549l11 68q3 25 28 25h64q11 0 16 -7t3 -18l-11 -68q-3 -23 -26 -23h-64q-11 0 -17 6.5t-4 16.5z" />
<glyph unicode="&#x2da;" horiz-adv-x="284" d="M134 632q4 43 36 72.5t74 29.5t69.5 -29.5t23.5 -72.5t-35.5 -72t-73.5 -29t-70 29.5t-24 71.5zM188 632q-2 -20 11 -33.5t32.5 -13.5t34.5 13.5t16.5 33.5t-10.5 34t-32 14t-35 -14t-17 -34z" />
<glyph unicode="&#x2db;" horiz-adv-x="222" d="M233 0h50q-70 -48 -65 -87q6 -30 53 -27l-11 -71q-56 -10 -92.5 21.5t-21.5 81.5t87 82z" />
<glyph unicode="&#x2dc;" horiz-adv-x="429" d="M126 581q38 32 68.5 50t62.5 18q25 -1 55 -17.5t45 -17.5q10 0 26 4t30.5 10t26.5 12t17 10l14 -53q-1 -1 -15 -12t-18 -14t-16.5 -11.5t-19 -11.5t-17 -8t-20 -6.5t-19.5 -1.5q-27 0 -57.5 17t-47.5 17q-10 0 -20 -2t-16.5 -3.5t-16.5 -6t-14.5 -6.5t-16 -8.5 t-15.5 -8.5z" />
<glyph unicode="&#x2dd;" horiz-adv-x="463" d="M147 531l118 137h113l-148 -137h-83zM295 531l119 137h112l-148 -137h-83z" />
<glyph unicode="&#x338;" horiz-adv-x="633" d="M86 180l59 383q27 169 209 169h164q46 0 79 -15.5t47.5 -41t20 -58t-1.5 -65.5l-60 -386q-14 -87 -64.5 -126.5t-136.5 -39.5h-164q-82 0 -124 46t-28 134zM211 229q-6 -34 -4 -44l299 435q-12 3 -25 3h-127q-81 0 -93 -77zM234 114q13 -5 41 -5h122q79 0 92 77l51 323 q7 38 0 50z" />
<glyph unicode="&#x3a9;" horiz-adv-x="767" d="M61 0l16 99l121 10q-117 91 -80 297q9 49 24.5 93.5t46 89.5t71 77t102 52.5t137.5 20.5q68 0 120.5 -19t84 -52.5t51 -78.5t21.5 -96t-5 -107q-16 -98 -48 -161.5t-106 -116.5l113 -10l-16 -98h-242l18 110q27 17 48 34.5t36 34t27 36.5t20 37.5t14.5 41t10.5 43t8 48.5 q39 245 -170 245q-60 0 -107 -21.5t-76 -59t-46 -79t-24 -90.5q-7 -40 -9 -64t0 -53t12 -51t29 -48t50 -54l-18 -110h-234z" />
<glyph unicode="&#x3c0;" horiz-adv-x="642" d="M83 422l18 109h560l-17 -109h-105l-38 -242q-8 -50 5 -68t51 -18h83l-11 -68q-51 -31 -120 -31q-70 0 -105 44t-20 137l39 246h-145l-66 -422h-116l66 422h-79z" />
<glyph unicode="&#x1e02;" horiz-adv-x="598" d="M366 820l11 68q3 25 28 25h64q11 0 16 -7t3 -18l-11 -68q-3 -23 -26 -23h-64q-11 0 -16.5 6.5t-4.5 16.5zM68 0l116 732h292q43 0 76 -11.5t52 -31.5t31 -46t13 -55t-2 -58q-8 -63 -41.5 -101.5t-81.5 -48.5q37 -6 63 -55.5t17 -125.5q-14 -106 -70.5 -152.5 t-171.5 -46.5h-293zM201 106h174q94 0 112 110q8 50 -10.5 83.5t-66.5 33.5h-173zM254 435h169q45 0 72 24.5t35 71.5q8 54 -12.5 74.5t-62.5 20.5h-171z" />
<glyph unicode="&#x1e03;" horiz-adv-x="555" d="M185 874l11 68q4 25 28 25h64q11 0 16 -7t3 -18l-11 -68q-3 -23 -26 -23h-64q-10 0 -16 6t-5 17zM47 0l124 785h115l-44 -283q41 17 90.5 27t84.5 10q32 0 57 -8.5t41.5 -23.5t27 -37t15 -46.5t5 -54.5t-2 -58.5t-8.5 -61.5q-8 -48 -17.5 -84t-26.5 -70.5t-39.5 -56 t-56.5 -34t-77 -10.5q-45 2 -92.5 21.5t-70.5 40.5l-32 -56h-93zM184 135q66 -38 145 -38q44 0 69 39.5t39 129.5q16 90 5 133t-59 43q-80 0 -153 -22z" />
<glyph unicode="&#x1e0a;" horiz-adv-x="660" d="M369 815l11 68q3 25 28 25h64q11 0 15.5 -7t3.5 -18l-11 -68q-3 -23 -26 -23h-64q-11 0 -17 6t-4 17zM68 0l116 731q0 1 288 1q52 0 91.5 -17t62 -47t36.5 -66.5t17.5 -81t1.5 -85t-9 -83.5q-29 -180 -102.5 -266t-207.5 -86h-294zM201 107h165q77 0 124.5 70t65.5 187 q23 142 -4.5 202t-106.5 60h-162z" />
<glyph unicode="&#x1e0b;" horiz-adv-x="550" d="M528 869l11 68q3 25 28 25h64q10 0 15 -7t4 -18l-11 -68q-4 -23 -26 -23h-64q-11 0 -17 6t-4 17zM82 277q8 48 18 83.5t27 71t39.5 57.5t56.5 36t77 14q36 0 84 -10t84 -27l45 283h115l-125 -785h-92l-15 56q-31 -23 -81 -42.5t-94 -19.5q-48 0 -81 24.5t-47 64t-18 90.5 t7 104zM199 266q-28 -169 55 -169q78 0 155 38l45 285q-65 22 -146 22q-27 0 -45.5 -13t-35.5 -52.5t-28 -110.5z" />
<glyph unicode="&#x1e1e;" horiz-adv-x="564" d="M378 820l11 68q3 25 28 25h64q11 0 15.5 -7t3.5 -18l-11 -68q-3 -23 -26 -23h-64q-11 0 -17 6.5t-4 16.5zM66 0l92 584q9 55 35 89.5t59.5 47t76.5 11.5q270 -10 311 -16l-15 -95h-293q-33 0 -45 -15t-16 -41l-22 -145l299 -10l-15 -95l-303 -10l-48 -305h-116z" />
<glyph unicode="&#x1e1f;" horiz-adv-x="404" d="M337 868l11 68q4 25 28 25h64q11 0 16 -7t3 -18l-11 -68q-3 -23 -26 -23h-64q-10 0 -16 6.5t-5 16.5zM85 436l13 77l93 18l10 58q17 109 57.5 152.5t127.5 43.5q31 0 66.5 -7.5t55.5 -16.5l-11 -70h-99q-44 0 -58.5 -23t-26.5 -100l-6 -37h142l-15 -95h-142l-72 -436 h-116l71 436h-90z" />
<glyph unicode="&#x1e40;" horiz-adv-x="818" d="M497 820l12 68q3 25 28 25h64q10 0 15 -7t4 -18l-12 -68q-3 -23 -26 -23h-64q-10 0 -16 6.5t-5 16.5zM57 0l175 732h156l66 -540l231 540h162l-52 -732h-115l41 529l-230 -529h-128l-65 528l-124 -528h-117z" />
<glyph unicode="&#x1e41;" horiz-adv-x="883" d="M488 621l11 68q4 25 28 25h64q11 0 16 -7t3 -18l-11 -68q-3 -23 -26 -23h-64q-10 0 -16 6.5t-5 16.5zM51 0l84 531h90l17 -60q4 3 23 14.5t25 14.5t22 11.5t26 11.5t25.5 7.5t30.5 6t32 1.5q47 0 81 -21.5t45 -55.5q113 77 215 77q75 0 109.5 -50t21.5 -131l-56 -357 h-116l57 358q6 39 -10.5 60.5t-47.5 21.5q-25 0 -45 -2.5t-39.5 -8t-38 -14.5t-38.5 -22q0 -1 -1.5 -10t-2.5 -17.5t-1 -9.5l-57 -356h-116l57 358q4 26 -3 44.5t-21 28t-34 9.5q-45 0 -75.5 -11t-81.5 -39l-61 -390h-116z" />
<glyph unicode="&#x1e56;" horiz-adv-x="596" d="M364 820l11 68q3 25 28 25h64q11 0 15.5 -7t3.5 -18l-11 -68q-3 -23 -26 -23h-64q-11 0 -17 6.5t-4 16.5zM64 0l116 732h306q36 0 66 -11t55.5 -36t36 -72.5t0.5 -111.5q-7 -48 -19 -84.5t-27 -59.5t-33 -39.5t-36.5 -23t-38.5 -11t-38.5 -3.5t-36.5 0q-29 1 -106 8.5 t-81 10.5l-48 -299h-116zM241 386h183q40 0 66 26t37 98q3 26 3.5 44.5t-5 31.5t-11 20.5t-15.5 12t-18 6t-19 1.5h-183z" />
<glyph unicode="&#x1e57;" horiz-adv-x="557" d="M306 623l11 68q3 25 28 25h64q10 0 15 -7t4 -18l-12 -68q-3 -23 -26 -23h-64q-10 0 -16 6t-4 17zM8 -270l129 784q112 21 269 21q54 0 90.5 -24.5t50.5 -64.5t18 -91.5t-6 -106.5q-17 -124 -71 -190.5t-156 -66.5q-38 0 -83.5 9.5t-76.5 28.5l-48 -299h-116zM186 111 q69 -32 141 -21q21 2 36.5 9t31.5 25t28 53.5t21 89.5q28 173 -66 173h-138z" />
<glyph unicode="&#x1e60;" horiz-adv-x="576" d="M359 828l11 68q3 25 28 25h64q11 0 16 -7t3 -18l-11 -68q-3 -23 -26 -23h-64q-11 0 -16.5 6t-4.5 17zM74 20l14 91q81 -10 247 -10q105 0 116 73l8 50q6 40 -5 59.5t-55 19.5h-115q-41 0 -71.5 9t-47.5 25t-28 34.5t-13.5 41.5t-2.5 40.5t3 36.5l11 73q6 44 22 76.5 t36 51.5t49 30t57 14.5t63 2.5q64 0 141 -8t122 -19l-14 -91q-209 9 -242 9q-57 2 -84 -13.5t-35 -69.5l-7 -47q-3 -15 -3.5 -26.5t2 -20t5 -14t9.5 -9.5t11.5 -6t15 -3t17 -1h18.5h117q38 0 66.5 -11.5t43.5 -30.5t24 -43.5t9 -50t-3 -50.5l-8 -67q-5 -47 -23.5 -81 t-41 -51.5t-56 -27.5t-57.5 -12t-57 -2q-165 0 -258 28z" />
<glyph unicode="&#x1e61;" horiz-adv-x="508" d="M280 622l12 68q3 25 28 25h64q10 0 15 -7t4 -18l-12 -68q-3 -23 -26 -23h-64q-10 0 -16 6.5t-5 16.5zM59 17l12 76h259q42 0 49 41l6 37q3 13 1 22.5t-11 14.5t-26 5h-130q-72 0 -106.5 35.5t-23.5 109.5l8 49q11 66 48.5 99t111.5 33q78 0 160.5 -5.5t111.5 -17.5 l-12 -77h-248q-16 0 -27.5 -4t-17 -11t-8 -13.5t-4.5 -15.5l-5 -36q-2 -8 -2 -14t1.5 -10.5t3 -8t4.5 -5t5.5 -3t7 -1.5t7.5 -0.5t8 0t7 0.5h133q69 0 100 -40.5t21 -100.5l-9 -62q-6 -39 -22 -65t-39 -37.5t-43.5 -15.5t-46.5 -4q-76 0 -168.5 7t-115.5 18z" />
<glyph unicode="&#x1e6a;" horiz-adv-x="585" d="M368 820l12 68q3 25 28 25h64q10 0 15 -7t4 -18l-12 -68q-3 -23 -26 -23h-64q-10 0 -16 6.5t-5 16.5zM128 623l18 109h529l-18 -109h-209l-99 -623h-116l99 623h-204z" />
<glyph unicode="&#x1e6b;" horiz-adv-x="376" d="M241 763l11 68q4 25 28 25h64q11 0 16 -7t3 -18l-11 -68q-3 -23 -26 -23h-64q-10 0 -16 6.5t-5 16.5zM82 437l11 70l95 25l45 148h94l-23 -148h132l-15 -95h-132l-37 -234q-3 -22 -4.5 -38t0 -27.5t4 -18.5t8.5 -11.5t11.5 -7t14.5 -5.5q62 -19 65 -19l-12 -76h-86 q-148 0 -119 189l39 248h-91z" />
<glyph unicode="&#x1e80;" horiz-adv-x="1007" d="M474 934h108l87 -137h-83zM143 732h120l91 -567l269 567h126l-107 -220l54 -350l272 570h124l-354 -732h-127l-52 327l-160 -327h-133z" />
<glyph unicode="&#x1e81;" horiz-adv-x="817" d="M336 732h107l88 -136h-83zM87 531h121l72 -395l149 293q24 50 30 101h100q14 -55 -10 -112l-21 -47l45 -232l153 292q24 50 30 101h101q16 -67 -20 -133l-218 -399h-125l-46 232l-116 -232h-135z" />
<glyph unicode="&#x1e82;" horiz-adv-x="1007" d="M586 797l119 137h112l-148 -137h-83zM143 732h120l91 -567l269 567h126l-107 -220l54 -350l272 570h124l-354 -732h-127l-52 327l-160 -327h-133z" />
<glyph unicode="&#x1e83;" horiz-adv-x="817" d="M451 594l118 137h113l-148 -137h-83zM87 531h121l72 -395l149 293q24 50 30 101h100q14 -55 -10 -112l-21 -47l45 -232l153 292q24 50 30 101h101q16 -67 -20 -133l-218 -399h-125l-46 232l-116 -232h-135z" />
<glyph unicode="&#x1e84;" horiz-adv-x="1007" d="M457.5 853q3.5 23 22.5 39t42 16t36.5 -16t10.5 -39q-2 -11 -8 -21.5t-14.5 -18t-19.5 -12t-23 -4.5q-23 0 -36.5 16.5t-10 39.5zM712.5 853q3.5 23 22.5 39t42 16t36.5 -16t10.5 -39q-2 -11 -8 -21.5t-14.5 -18t-19.5 -12t-23 -4.5q-23 0 -36.5 16.5t-10 39.5zM143 732 h120l91 -567l269 567h126l-107 -220l54 -350l272 570h124l-354 -732h-127l-52 327l-160 -327h-133z" />
<glyph unicode="&#x1e85;" horiz-adv-x="817" d="M317 652q3 23 22 39.5t42.5 16.5t37 -16.5t10 -39.5t-22.5 -39.5t-42 -16.5q-15 0 -27 7.5t-17.5 20.5t-2.5 28zM572 652q3 23 22 39.5t42.5 16.5t37 -16.5t10 -39.5t-22.5 -39.5t-42 -16.5q-15 0 -27 7.5t-17.5 20.5t-2.5 28zM87 531h121l72 -395l149 293q24 50 30 101 h100q14 -55 -10 -112l-21 -47l45 -232l153 292q24 50 30 101h101q16 -67 -20 -133l-218 -399h-125l-46 232l-116 -232h-135z" />
<glyph unicode="&#x1ef2;" horiz-adv-x="647" d="M294 934h107l88 -137h-83zM143 732h125l100 -361l229 361h134l-323 -493l-38 -239h-116l38 239z" />
<glyph unicode="&#x1ef3;" horiz-adv-x="558" d="M210 732h107l88 -136h-83zM88 531h120l44 -387q1 -7 3 -12t5 -8.5t6.5 -7t7 -5t7.5 -3t7.5 -2l7 -1t6.5 -0.5h5h3l155 327q18 39 26 101h104q16 -64 -18 -136l-189 -396q-28 -60 -59 -106.5t-59.5 -76.5t-60 -51t-58.5 -32t-57 -16v82q59 34 98 83.5t73 115.5 q-49 0 -84.5 29.5t-43.5 96.5z" />
<glyph unicode="&#x2013;" horiz-adv-x="454" d="M60 236l16 103h473l-16 -103h-473z" />
<glyph unicode="&#x2014;" horiz-adv-x="736" d="M60 238l17 103h696l-17 -103h-696z" />
<glyph unicode="&#x2018;" horiz-adv-x="262" d="M152 525l18 120q5 32 21 52.5t35.5 27.5t38 9.5t30.5 0.5l12 -2l-8 -47q-33 0 -38 -33l-4 -24h12q12 0 18 -6.5t4 -19.5l-12 -78q-4 -29 -32 -29h-75q-25 0 -20 29z" />
<glyph unicode="&#x2019;" horiz-adv-x="262" d="M153 498l7 48q15 0 24 6.5t11 12.5t3 14l4 23h-12q-11 0 -17.5 7t-4.5 20l13 78q4 29 31 29h75q26 0 21 -29l-19 -120q-5 -32 -21 -53t-35 -28t-37.5 -9.5t-30.5 -0.5z" />
<glyph unicode="&#x201a;" horiz-adv-x="262" d="M56 -105l8 48q15 0 24 6.5t10.5 12.5t3.5 15l4 22h-12q-12 0 -18 7t-4 20l13 79q4 29 31 29h75q26 0 21 -29l-19 -121q-6 -32 -21.5 -52.5t-35 -28t-37.5 -10t-30 -0.5z" />
<glyph unicode="&#x201c;" horiz-adv-x="420" d="M146 524l18 120q5 32 21 53t35 28t37.5 9.5t30.5 0.5l12 -2l-7 -48q-32 1 -38 -33l-4 -24h12q12 0 18 -6.5t4 -19.5l-12 -78q-4 -29 -32 -29h-75q-25 0 -20 29zM316 524l19 120q5 32 21 53t35 28t37.5 9.5t30.5 0.5l12 -2l-7 -48q-33 1 -39 -33l-3 -24h12q12 0 18 -6.5 t4 -19.5l-12 -78q-5 -29 -32 -29h-75q-25 0 -21 29z" />
<glyph unicode="&#x201d;" horiz-adv-x="420" d="M146 497l8 49q14 -1 23 6t11 12.5t4 14.5l3 22h-11q-12 0 -18.5 7t-4.5 20l13 79q5 29 31 29h75q27 0 22 -29l-20 -121q-5 -32 -21 -52.5t-35 -28t-37.5 -10t-30.5 -0.5zM317 497l8 49q11 -1 18.5 2.5t11.5 9.5t5 10t3 11l3 22h-11q-12 0 -18.5 7t-4.5 20l13 79 q5 29 31 29h75q26 0 22 -29l-20 -121q-5 -32 -21 -52.5t-35 -28t-37.5 -10t-30.5 -0.5z" />
<glyph unicode="&#x201e;" horiz-adv-x="419" d="M50 -104l8 48q14 -1 23 6t11 12.5t3 14.5l4 23h-12q-11 0 -17.5 7t-4.5 20l13 78q4 29 31 29h75q26 0 21 -29l-19 -120q-5 -32 -21 -53t-35 -28t-37.5 -9.5t-30.5 -0.5zM221 -104l7 48q15 -1 24 6t11 12.5t3 14.5l4 23h-12q-11 0 -17.5 7t-4.5 20l13 78q4 29 31 29h75 q26 0 21 -29l-19 -120q-5 -32 -21 -53t-35 -28t-37.5 -9.5t-30.5 -0.5z" />
<glyph unicode="&#x2020;" horiz-adv-x="499" d="M107 466l15 91l135 11l42 202h101l-22 -202l130 -11l-15 -91l-134 -12l-94 -526h-101l74 526z" />
<glyph unicode="&#x2021;" horiz-adv-x="469" d="M90 156l15 91l137 13l28 194l-130 12l14 91l135 11l42 202h100l-21 -202l130 -11l-14 -91l-135 -12l-33 -194l133 -13l-15 -91l-140 -12l-39 -216h-101l30 215z" />
<glyph unicode="&#x2022;" horiz-adv-x="308" d="M124 329l16 104q2 16 12.5 25.5t26.5 9.5h98q34 0 29 -35l-16 -104q-5 -32 -41 -32h-98q-15 0 -22 8.5t-5 23.5z" />
<glyph unicode="&#x2026;" horiz-adv-x="776" d="M138 23l12 78q4 25 28 25h74q25 0 21 -25l-12 -78q-4 -23 -29 -23h-74q-10 0 -16 6.5t-4 16.5zM410 23l12 78q4 25 28 25h74q25 0 21 -25l-12 -78q-4 -23 -29 -23h-74q-10 0 -16 6.5t-4 16.5zM682 23l12 78q4 25 28 25h74q25 0 21 -25l-12 -78q-4 -23 -29 -23h-74 q-10 0 -16 6.5t-4 16.5z" />
<glyph unicode="&#x2030;" horiz-adv-x="1340" d="M78 483l20 126q10 66 42.5 94.5t110.5 28.5h101q45 0 71.5 -15t36 -44.5t2.5 -74.5l-20 -126q-11 -69 -43.5 -96t-108.5 -27h-101q-62 0 -91.5 35t-19.5 99zM166 488q-2 -15 -1.5 -25t5.5 -16.5t15 -9t26 -2.5h83q35 0 47 11t17 42l16 105q6 33 -2.5 43t-41.5 10h-84 q-33 0 -46 -11t-18 -42zM181 0l560 732h90l-558 -732h-92zM553 135l20 126q11 66 43 94.5t110 28.5h101q67 0 94 -33t16 -101l-20 -126q-10 -68 -43 -95.5t-109 -27.5h-102q-62 0 -90.5 35t-19.5 99zM641 140q-5 -30 4.5 -41.5t40.5 -11.5h83q24 0 37 5.5t18.5 16t8.5 31.5 l17 105q5 33 -3.5 43t-42.5 10h-83q-33 0 -46 -11t-17 -42zM973 135l20 126q10 66 42.5 94.5t109.5 28.5h101q67 0 94 -33t17 -101l-20 -126q-11 -68 -44 -95.5t-109 -27.5h-101q-62 0 -91 35t-19 99zM1060 140q-4 -30 5 -41.5t40 -11.5h83q24 0 37 5.5t18.5 16t8.5 31.5 l17 105q5 33 -3.5 43t-41.5 10h-84q-33 0 -45.5 -11t-17.5 -42z" />
<glyph unicode="&#x2039;" horiz-adv-x="292" d="M26 354l238 203l59 -68l-163 -140l118 -138l-74 -65z" />
<glyph unicode="&#x203a;" horiz-adv-x="358" d="M98 215l164 140l-117 138l74 64l176 -206l-239 -205z" />
<glyph unicode="&#x2044;" horiz-adv-x="289" d="M-76 0l472 745h88l-472 -745h-88z" />
<glyph unicode="&#x2070;" horiz-adv-x="442" d="M76 471l38 245q19 118 140 118h117q62 0 88.5 -32t18.5 -84l-39 -247q-7 -44 -24.5 -70t-43.5 -36t-66 -10h-118q-23 0 -44 6t-38.5 18.5t-25.5 36t-3 55.5zM170 487q-2 -15 -1.5 -24t7 -14t14.5 -6.5t23 -1.5h81q14 0 23.5 2.5t16.5 8t10.5 14t6.5 21.5l35 215 q5 26 -2.5 36t-37.5 10h-84q-20 0 -32 -6t-17 -15.5t-8 -24.5z" />
<glyph unicode="&#x2074;" horiz-adv-x="469" d="M107 500l238 334h101l-198 -283h129l17 109l34 49h63l-25 -158h52l-12 -73l-55 -16l-16 -106h-90l18 106h-236z" />
<glyph unicode="&#x2075;" horiz-adv-x="412" d="M77 367l11 72h199q48 0 54 45l6 42q1 11 1.5 22t-8.5 19.5t-29 8.5h-83q-38 0 -45 -40h-79l62 298h305l-14 -86h-218l-23 -106q21 16 65 18.5t65 -1.5q53 -2 77 -38.5t16 -88.5l-11 -68q-8 -65 -44 -89t-93 -24q-4 0 -23 0.5t-23 0.5h-20t-21 0.5t-18.5 1t-20 1t-19.5 2 t-22.5 3t-22 3t-24.5 4.5z" />
<glyph unicode="&#x2076;" horiz-adv-x="406" d="M97 613q11 68 27.5 114t37.5 69t40.5 32t43.5 11q111 6 227 -13l-12 -71h-187q-18 0 -31.5 -9t-21 -19.5t-14.5 -31t-9 -31.5t-6 -32q71 14 153 15q57 0 81.5 -35.5t17.5 -80.5l-11 -71q-6 -39 -24 -62t-44.5 -32.5t-66.5 -9.5h-99q-29 0 -50.5 11.5t-39 41t-20.5 79 t8 125.5zM182 567q-19 -125 40 -125h76q22 0 33 9t14 32l8 46q4 23 -4 30.5t-30 7.5h-137z" />
<glyph unicode="&#x2077;" horiz-adv-x="423" d="M116 749l13 86h339l18 -40l-252 -439h-101l227 393h-244z" />
<glyph unicode="&#x2078;" horiz-adv-x="417" d="M117 468l8 50q9 56 70 69q-55 28 -44 99l7 41q11 64 47.5 88t95.5 24h114q50 0 78 -32t19 -89l-6 -36q-2 -11 -7 -23.5t-21 -28t-38 -19.5q27 -8 35.5 -37t4.5 -58l-9 -55q-5 -35 -17 -57.5t-31.5 -32.5t-38 -13.5t-46.5 -3.5h-114q-35 0 -59.5 11t-34 28t-14 37t0.5 38z M210 476q-3 -21 5 -29.5t37 -8.5h82q42 0 47 38l6 40q7 42 -33 42h-88q-23 0 -34.5 -9.5t-14.5 -32.5zM243 683q-7 -44 36 -44h84q15 0 25 4t15 11t7 13t4 16l4 26q5 28 -4 37.5t-33 9.5h-79q-26 0 -38 -10t-17 -37z" />
<glyph unicode="&#x2079;" horiz-adv-x="450" d="M111 366l11 71h187q18 0 31.5 9t21.5 20t14.5 31.5t9 31.5t6.5 33q-71 -13 -153 -14q-58 -1 -82 35.5t-16 83.5l10 67q8 57 41.5 82t92.5 25l102 -1q29 0 51 -12.5t38.5 -43t19 -81t-8.5 -126.5q-7 -47 -17.5 -83t-22.5 -60t-24.5 -40t-27.5 -24.5t-28.5 -12t-29.5 -4.5 q-130 -8 -226 13zM232 670q-4 -23 3.5 -31t29.5 -8h138q19 124 -42 124h-75q-15 0 -24.5 -4.5t-15 -13.5t-7.5 -24z" />
<glyph unicode="&#x207f;" horiz-adv-x="431" d="M111 373l56 354h68l14 -44q3 2 15 9.5t16 9.5t14.5 8t16.5 8t16.5 6t18.5 5.5t19 3t22 1.5q61 0 85 -34t15 -87l-37 -240h-92l37 231q3 18 -2 30t-15 17t-25 5q-31 0 -52 -6.5t-59 -25.5l-40 -251h-91z" />
<glyph unicode="&#x2080;" horiz-adv-x="457" d="M98 -85l39 245q18 118 139 118h118q62 0 88.5 -32t17.5 -84l-38 -247q-11 -65 -43 -90.5t-91 -25.5h-118q-24 0 -44.5 6t-38.5 18.5t-26 36t-3 55.5zM192 -69q-1 -15 -1 -24t6.5 -14t15 -6.5t23.5 -1.5h81q27 0 39.5 10t16.5 36l36 215q4 26 -3.5 36t-36.5 10h-84 q-29 0 -41 -11.5t-16 -34.5z" />
<glyph unicode="&#x2081;" horiz-adv-x="285" d="M35 156l10 62q34 0 74.5 23.5t54.5 39.5h89l-76 -481h-92l62 382q-15 -12 -49.5 -19t-72.5 -7z" />
<glyph unicode="&#x2082;" horiz-adv-x="435" d="M40 -200l12 81q3 2 27.5 18t35 23.5t37 25.5t41 29.5t37.5 30t37 33.5t29 32t23 32.5t10 30.5q6 35 -8.5 49.5t-57.5 14.5h-163q-1 0 1.5 17t5.5 34.5t3 16.5q115 18 194 18q45 0 75.5 -25.5t40 -58t4.5 -63.5q-6 -37 -25 -72t-47 -64.5t-51 -50t-51 -41.5t-33 -25h166 l-14 -86h-329z" />
<glyph unicode="&#x2083;" horiz-adv-x="391" d="M-2 -186l11 67h167q70 0 77 49l3 16q4 29 -11 41t-46 13l-130 4l12 73l131 6q23 1 38.5 6t24.5 16t12 27l2 16q4 26 -9.5 36.5t-49.5 10.5h-175l10 66q42 15 89.5 18t120.5 2q56 -1 85 -36.5t21 -87.5l-5 -32q-4 -23 -13 -42t-23 -31.5t-30 -16.5q23 -11 32 -38t4 -60 l-4 -25q-9 -58 -44 -87.5t-105 -29.5h-22h-22.5t-20 0.5t-21 0.5t-19.5 1t-19.5 2t-17.5 2t-18.5 3t-16.5 4.5t-18 5.5z" />
<glyph unicode="&#x2084;" horiz-adv-x="432" d="M0 -56l238 334h101l-198 -283h129l17 109l33 49h64l-25 -158h52l-12 -73l-55 -16l-16 -106h-90l18 106h-236z" />
<glyph unicode="&#x2085;" horiz-adv-x="411" d="M5 -189l11 72h199q48 0 54 45l6 42q1 11 1.5 22t-8.5 19.5t-29 8.5h-83q-38 0 -45 -40h-79l62 298h305l-14 -86h-218l-23 -106q21 16 65 18.5t65 -1.5q53 -2 77 -38.5t16 -88.5l-11 -68q-8 -65 -44 -89t-93 -24q-4 0 -23 0.5t-23 0.5h-20t-21 0.5t-18.5 1t-20 1t-19.5 2 t-22.5 3t-22 3t-24.5 4.5z" />
<glyph unicode="&#x2086;" horiz-adv-x="406" d="M25 57q8 55 21.5 96t27.5 65t31.5 38.5t33.5 20t35 6.5q118 7 227 -13l-12 -71h-187q-18 0 -31.5 -9t-21 -19.5t-14.5 -31t-9 -31.5t-6 -32q71 14 153 15q57 0 81.5 -35.5t17.5 -80.5l-11 -71q-9 -57 -42 -80.5t-93 -23.5h-99q-29 0 -50.5 11.5t-39 41t-20.5 79t8 125.5z M110 11q-19 -125 40 -125h76q15 0 24.5 4t15 13t7.5 24l8 46q4 23 -4 30.5t-30 7.5h-137z" />
<glyph unicode="&#x2087;" horiz-adv-x="422" d="M44 193l13 86h339l18 -40l-252 -439h-101l227 393h-244z" />
<glyph unicode="&#x2088;" horiz-adv-x="417" d="M45 -88l8 50q9 56 70 69q-55 28 -44 99l7 41q11 64 47.5 88t95.5 24h114q50 0 78 -32t19 -89l-6 -36q-1 -5 -3 -12t-7 -17t-12 -18t-18.5 -15t-25.5 -9q27 -8 35.5 -37t4.5 -58l-9 -55q-5 -35 -17 -57.5t-31.5 -32.5t-38 -13.5t-46.5 -3.5h-114q-35 0 -59.5 11t-34 28 t-14 37t0.5 38zM138 -80q-2 -14 0.5 -22t12 -12t29.5 -4h82q42 0 47 38l6 40q7 42 -33 42h-88q-23 0 -34.5 -9.5t-14.5 -32.5zM171 127q-7 -44 36 -44h84q15 0 25 4t15 11t7 13t4 16l4 26q5 28 -4 37.5t-33 9.5h-79q-18 0 -28.5 -4t-17 -14t-9.5 -29z" />
<glyph unicode="&#x2089;" horiz-adv-x="449" d="M39 -190l11 71h187q18 0 31.5 9t21.5 20t14.5 31.5t9 31.5t6.5 33q-71 -13 -153 -14q-58 -1 -82 35.5t-16 83.5l10 67q8 57 41.5 82t92.5 25l102 -1q29 0 51 -12.5t38.5 -43t19 -81t-8.5 -126.5q-7 -47 -17.5 -83t-22.5 -60t-24.5 -40t-27.5 -24.5t-28.5 -12t-29.5 -4.5 q-135 -8 -226 13zM160 114q-4 -23 3.5 -31t29.5 -8h138q19 124 -42 124h-75q-22 0 -32.5 -9.5t-14.5 -32.5z" />
<glyph unicode="&#x20ac;" horiz-adv-x="709" d="M61 252l10 60l82 8l13 80l-80 8l9 56l82 10q4 23 6.5 37.5t12 45.5t21 52t33.5 48t49.5 43.5t69 28t92.5 11.5q43 0 121 -10t129 -24l-14 -86q-150 14 -232 14q-30 0 -53 -4.5t-39.5 -11t-29 -19.5t-20 -24.5t-14 -30.5t-9.5 -33t-7 -37l233 -8l-9 -60l-235 -6l-13 -80 l233 -8l-10 -60q-15 -1 -39.5 -1.5t-76.5 -1.5t-86 -2.5t-33 -2.5q-3 -31 -3.5 -54.5t8 -40t18.5 -27t27 -16.5t34 -8t38 -2q27 0 61.5 2t65 5t57.5 6t42 5l16 2l-13 -84q-109 -38 -265 -38q-17 0 -32.5 1.5t-36.5 6t-38 12.5t-36 20.5t-31 31t-22.5 44.5t-10 59t4.5 75z " />
<glyph unicode="&#x2113;" horiz-adv-x="433" d="M65 252q27 20 65 56l48 296q10 66 55.5 101.5t120.5 33.5q63 -3 96.5 -46t22.5 -116q-8 -54 -45.5 -111.5t-83.5 -101.5t-102 -84l-9 -70q-9 -63 2 -86t58 -32q66 -16 69 -16l-12 -76h-106q-155 0 -131 185l3 33q-13 -9 -35 -20zM263 410q113 123 107 198 q0 19 -16.5 28.5t-35.5 1t-23 -34.5z" />
<glyph unicode="&#x2116;" horiz-adv-x="1089" d="M61 0l98 630q6 40 33.5 68t63 36t70.5 3.5t60 -28t28 -59.5l101 -532q3 -13 15.5 -11t14.5 14q51 331 70 446q26 166 194 168l227 -1q72 0 97.5 -42.5t10.5 -138.5q-8 -48 -16.5 -75.5t-25.5 -51.5t-46.5 -34t-74.5 -11h-52q-25 0 -44 4.5t-35 14t-25.5 26t-15 40.5 t-4 57.5t8.5 77.5h90q-8 -47 -9 -75t6 -40t15 -15t25 -3h40q11 0 17.5 0.5t14.5 3.5t13.5 8.5t11 14.5t9.5 23.5t7 34.5q4 25 4 41.5t-2.5 26.5t-10.5 15t-16.5 6.5t-24.5 1.5q-92 2 -159 2q-53 0 -81 -19.5t-35 -70.5l-73 -456q-4 -27 -19.5 -49t-37 -34t-46.5 -18t-50 -1 t-46 16t-35 33.5t-17 51.5l-100 524q0 4 -3.5 6.5t-8 2.5t-9 -1.5t-8 -5.5t-4.5 -9l-97 -616h-114z" />
<glyph unicode="&#x2122;" horiz-adv-x="631" d="M41 658l12 74h273l-12 -74h-95l-43 -275h-82l43 275h-96zM296 383l89 349h80l37 -216l95 216h89l-17 -349h-82l13 191l-79 -191h-70l-29 191l-45 -191h-81z" />
<glyph unicode="&#x212e;" horiz-adv-x="699" d="M76 266q0 113 84 192q43 38 94 56.5t123 18.5q44 0 80.5 -7t67 -21.5t60.5 -37.5q86 -67 93 -209h-479h-3h-5t-3 -3t-1 -8v-133q0 -11 14 -26t37.5 -30.5t60.5 -26t78 -10.5q37 0 73.5 11t66 30t51.5 43h56q-58 -61 -113 -83q-58 -22 -134 -22q-139 0 -218 74 q-83 77 -83 192zM187 284q0 -6 2 -7.5t7 -1.5h357h6q5 -1 6 0t1 7v133q0 32 -63.5 65.5t-126.5 33.5q-38 0 -75 -11t-61 -26.5t-38.5 -31t-14.5 -24.5v-137z" />
<glyph unicode="&#x2202;" horiz-adv-x="634" d="M83 234q17 112 92 171.5t192 59.5q100 0 149 -57q14 123 -17 173t-109 50q-52 0 -103.5 -15.5t-87.5 -35.5l-10 82q35 21 55 31.5t49 23t57.5 18t60.5 5.5q127 0 185 -101.5t33 -265.5q-28 -177 -109 -277.5t-218 -100.5q-105 0 -169.5 68.5t-49.5 170.5zM198 230 q-9 -59 25.5 -93t90.5 -34q34 0 63.5 17.5t49.5 43t35.5 57.5t23.5 58t11 46q-51 32 -132 32q-76 0 -117 -35t-50 -92z" />
<glyph unicode="&#x2206;" horiz-adv-x="720" d="M17 0l427 732h76l183 -732h-686zM202 106h376l-113 458z" />
<glyph unicode="&#x220f;" horiz-adv-x="648" d="M96 0l98 623h-79l18 109h614l-17 -109h-80l-99 -623h-116l99 623h-224l-98 -623h-116z" />
<glyph unicode="&#x2211;" horiz-adv-x="577" d="M2 -200l18 112l270 358l-158 353l18 109h526l-18 -109h-386l159 -363l-256 -348h371l-18 -112h-526z" />
<glyph unicode="&#x2212;" horiz-adv-x="448" d="M71 305l9 102h416l-9 -102h-416z" />
<glyph unicode="&#x221a;" horiz-adv-x="647" d="M57 256l17 109h149l68 -206l343 641h123l-422 -800h-112l-91 256h-75z" />
<glyph unicode="&#x221e;" horiz-adv-x="673" d="M49 348q17 166 200 166q99 0 153 -99q77 99 188 99q47 0 79.5 -16t46.5 -41.5t19.5 -57.5t-0.5 -65q-20 -165 -200 -165q-110 0 -158 100q-35 -51 -78.5 -75.5t-104.5 -24.5q-44 0 -75.5 16t-46.5 42.5t-21 57t-2 63.5zM144 341q-10 -81 69 -81q26 0 51 13.5t39.5 27.5 t35.5 40q-7 16 -17 30t-23 26t-28.5 19t-31.5 7q-50 0 -70.5 -21.5t-24.5 -60.5zM443 341q13 -25 23 -40t31 -28t47 -13q84 0 96 81q7 40 -7 61t-63 21q-61 0 -127 -82z" />
<glyph unicode="&#x222b;" horiz-adv-x="442" d="M-11 -179l12 73h72q15 0 27.5 7t21.5 16t17 26t12.5 31t10 37.5t8 37.5t6.5 39l66 418q47 294 197 294q20 0 36.5 -2t28 -5t19 -6t15 -7t10.5 -5l-12 -73h-70q-25 0 -43.5 -16t-31 -47.5t-19 -60.5t-14.5 -72l-66 -418q-8 -54 -18 -95.5t-26 -79.5t-36 -63t-48.5 -39.5 t-63.5 -14.5q-77 0 -111 25z" />
<glyph unicode="&#x2248;" horiz-adv-x="517" d="M82 256q29 22 47.5 34.5t50 24.5t60.5 12q30 0 71.5 -18.5t71.5 -18.5q17 0 33.5 4t25 7.5t30.5 13.5t31 14l15 -55q-2 -1 -20.5 -15t-24.5 -18t-22.5 -14.5t-27 -14t-25.5 -7.5t-30 -4q-27 0 -69.5 19t-73.5 19q-23 0 -43 -5.5t-45 -16.5t-42 -16zM111 436 q28 21 46.5 33.5t50 25t61.5 12.5t71.5 -18.5t71.5 -18.5q17 0 33 3.5t25 7t30.5 14t31.5 14.5l14 -55q-4 -4 -17.5 -14t-20 -14.5t-19.5 -13t-22 -13t-21.5 -9.5t-24.5 -7t-25 -2q-26 0 -69 19t-74 19q-22 0 -42 -6t-45 -16.5t-43 -15.5z" />
<glyph unicode="&#x2260;" horiz-adv-x="532" d="M120 194l17 106h149l80 104h-212l16 105h273l53 69h68l-53 -69h86l-17 -105h-146l-80 -104h210l-17 -106h-271l-61 -80h-68l61 80h-88z" />
<glyph unicode="&#x2264;" horiz-adv-x="538" d="M92 90l15 95h376l-15 -95h-376zM139 385l18 111l397 144l-18 -111l-266 -94l237 -97l-18 -107z" />
<glyph unicode="&#x2265;" horiz-adv-x="436" d="M56 90l15 95h376l-15 -95h-376zM77 229l18 113l272 99l-243 93l18 104l352 -144l-18 -112z" />
<glyph unicode="&#x25ca;" horiz-adv-x="515" d="M76 373l264 359h74l144 -359l-260 -373h-74zM196 369l81 -218l166 231l-85 205z" />
<glyph unicode="&#xe000;" horiz-adv-x="530" d="M0 530h530v-530h-530v530z" />
<glyph unicode="&#xfb00;" horiz-adv-x="796" d="M85 436l13 78l102 17l14 89q3 21 8.5 39.5t18 41t29 38.5t44 26.5t62.5 10.5q72 0 134 -23l-11 -71h-101q-20 0 -33.5 -5t-20.5 -18t-10.5 -24t-6.5 -34l-11 -70h268l15 99q25 156 169 156q72 0 132 -23l-12 -71h-104q-21 0 -34.5 -4.5t-21 -17.5t-10.5 -24.5t-7 -36.5 l-11 -78h129l-15 -95h-131l-69 -436h-116l69 436h-269l-68 -436h-116l68 436h-97z" />
<glyph unicode="&#xfb03;" horiz-adv-x="994" d="M85 436l13 78l101 17l14 89q4 21 9.5 39.5t18 41t29 38.5t44 26.5t61.5 10.5q73 0 135 -23l-11 -71h-101q-16 0 -28 -4.5t-18.5 -9.5t-12 -18t-7.5 -21t-6 -28l-12 -70h247l6 45q15 94 81 151.5t162 58.5q56 0 119 -6t93 -17l-11 -71h-178q-131 0 -150 -120l-6 -41 l349 -10l-82 -521h-117l69 436h-236l-68 -436h-116l68 436h-245l-69 -436h-116l68 436h-97z" />
<glyph unicode="&#xfb04;" horiz-adv-x="1091" d="M85 436l13 78l101 17l14 89q4 21 9.5 39.5t18 41t29 38.5t44 26.5t61.5 10.5q73 0 135 -23l-11 -71h-101q-20 0 -33 -5t-20.5 -18t-10.5 -24t-8 -34l-12 -70h249l7 48q32 203 217 207l287 -1l-91 -582q-8 -61 -1.5 -79.5t33.5 -28.5q65 -21 72 -21l-12 -74h-95 q-73 0 -102.5 43.5t-13.5 145.5l79 503h-147q-48 0 -74 -24t-36 -89l-7 -48h129l-16 -95h-130l-69 -436h-116l69 436h-247l-69 -436h-116l68 436h-97z" />
<glyph unicode="&#xfb06;" horiz-adv-x="887" d="M59 16l12 76h259q42 0 49 41l6 34q4 22 -4 32t-32 10h-130q-72 0 -106 36t-23 110l7 46q7 44 25.5 72t53 43.5t85.5 15.5h441l45 148h94l-23 -148h132l-16 -94h-131l-37 -234q-5 -34 -5.5 -53.5t4.5 -31t12 -15.5t23 -9q62 -19 65 -19l-13 -76h-92q-71 0 -99.5 44 t-12.5 146l38 244h-417q-16 0 -27.5 -4t-17 -11.5t-8 -14t-4.5 -15.5l-5 -33q-2 -8 -2 -14.5t1.5 -10.5t3 -7.5t4.5 -5.5t5.5 -3t7 -1.5t7.5 -0.5t8 0.5t7 0.5h133q69 0 99.5 -40.5t20.5 -101.5l-8 -59q-4 -31 -16 -54t-26.5 -36t-34.5 -20.5t-37 -9.5t-37 -2 q-66 0 -163.5 7t-120.5 18z" />
<glyph horiz-adv-x="619" d="M85 172l46 284q28 176 200 176h164q49 0 83.5 -15t49.5 -39t21.5 -55t-0.5 -63l-47 -288q-14 -88 -61.5 -130t-132.5 -42h-164q-83 0 -128 43.5t-31 128.5zM204 187q-2 -13 -2 -23.5t1 -18t5 -13.5t7 -10t9.5 -6.5t11 -3.5t12.5 -2t12.5 -1h13.5h1h121q80 0 93 77l41 260 q6 40 -8 58.5t-57 18.5h-126q-82 0 -94 -77z" />
<glyph horiz-adv-x="357" d="M83 473l11 77q43 0 94.5 31t70.5 53l116 -2l-97 -632h-115l79 508q-23 -16 -67 -25.5t-92 -9.5z" />
<glyph horiz-adv-x="593" d="M42 0l16 103q6 3 19 9l60 30t64.5 33t70 39t65.5 40t62.5 43.5t49 43.5t38 45.5t17.5 44.5q8 52 -14.5 74.5t-89.5 21.5l-276 -1l14 86q147 24 304 24q46 0 81 -11.5t55.5 -31t33 -45.5t13.5 -56t-1 -63q-5 -46 -34 -92.5t-66 -81t-83 -67t-77.5 -50t-58.5 -29.5h260 l-18 -109h-505z" />
<glyph horiz-adv-x="590" d="M41 -75l14 82h270q104 0 117 77l7 42q1 12 1.5 22t-0.5 18t-3 14t-6.5 10.5l-8 8t-11 6t-12.5 4t-14 2t-15 1t-17 1.5l-214 7l16 93l216 10q52 2 79.5 21t34.5 60l7 48q4 24 -1.5 40t-19.5 23.5t-29.5 10.5t-38.5 3h-283l13 81q44 14 100.5 21t110.5 7h116q76 -2 119 -52 t31 -127l-10 -59q-9 -57 -33.5 -90.5t-60.5 -41.5q34 -14 46 -55t3 -100l-8 -48q-26 -168 -211 -168h-37.5h-39t-34.5 0.5t-37 1t-32.5 2t-34.5 3.5l-30 5t-32 7t-28 9z" />
<glyph horiz-adv-x="612" d="M36 124l363 508h133l-317 -450h213l29 182l48 76h82l-41 -258h80l-14 -90l-84 -22l-26 -168h-118l27 168h-349z" />
<glyph horiz-adv-x="596" d="M46 -79l14 90h290q45 0 65.5 23.5t25.5 55.5l13 78q13 83 -62 83h-113q-30 0 -52 -16t-27 -49h-111l93 446h437l-18 -109h-324l-40 -193q29 23 83 27q29 1 43 1.5t40.5 -0.5t30.5 -2q74 -2 111 -53.5t26 -129.5l-17 -110q-8 -49 -27.5 -83t-49 -51t-59.5 -24t-69 -8 q-90 -4 -146 1t-157 23z" />
<glyph horiz-adv-x="593" d="M67 391q15 95 41 164.5t57.5 106.5t63.5 54.5t67 19.5q99 6 309 -19l-14 -88h-265q-31 0 -56 -21t-40.5 -56t-24.5 -66.5t-16 -68.5q108 20 228 21q40 1 69 -9.5t44 -28t24 -39.5t8 -46t-3 -47l-19 -120q-13 -83 -62.5 -115.5t-133.5 -32.5h-144q-33 0 -59 10t-47 37 t-32 70t-10 112.5t15 161.5zM175 333q-7 -47 -9 -83t2.5 -71t22.5 -53.5t50 -18.5h104q74 0 85 70l14 88q6 40 -6.5 54t-53.5 14h-209z" />
<glyph horiz-adv-x="569" d="M99 523l18 109h467l24 -58l-359 -674h-129l335 623h-356z" />
<glyph horiz-adv-x="625" d="M89 170l12 82q5 32 20.5 55.5t37 35.5t47.5 16q-45 18 -58.5 59t-5.5 88l10 65q8 50 26 83.5t46.5 51t61 24.5t76.5 7h150q53 0 87.5 -20.5t49 -61.5t5.5 -98l-10 -58q-1 -11 -6.5 -26t-16 -33t-30 -32.5t-44.5 -18.5q21 -6 35 -23t18.5 -37.5t6 -42.5t-2.5 -38l-14 -90 q-7 -43 -22 -73.5t-32.5 -46.5t-44 -25t-47 -11t-50.5 -2h-149q-36 0 -64 7t-45 18t-28.5 27.5t-16 31t-5.5 32.5t-0.5 29.5t3.5 24.5zM206 172q-4 -25 2 -39.5t22.5 -20.5t47.5 -6h112q22 0 39 6t30 21t16 39l13 82q6 34 -10.5 51.5t-49.5 17.5h-122q-76 0 -87 -69z M256 494q-6 -39 14 -54.5t51 -15.5h122q42 0 60 19t23 51l9 55q8 49 -6.5 66t-54.5 17h-113q-48 0 -68.5 -18.5t-27.5 -64.5z" />
<glyph horiz-adv-x="607" d="M85 -85l14 88h265q31 0 56 21t40.5 56t25 67t15.5 68q-107 -20 -228 -21q-40 -1 -69 10t-44 28.5t-23.5 40.5t-7.5 47t3 47l17 113q14 84 63.5 118t132.5 34h144q34 0 60 -11t47 -38.5t31.5 -72t10 -114.5t-15.5 -162q-12 -77 -31.5 -136.5t-41.5 -96t-49 -60.5 t-52.5 -34t-52.5 -11q-101 -6 -310 19zM246 367q-6 -40 6.5 -54t53.5 -14h208q8 47 10 83t-2.5 71t-23 53.5t-49.5 18.5h-105q-73 0 -84 -70z" />
<glyph horiz-adv-x="793" d="M70 102l78 495q15 96 73 144t164 48h368q95 0 131.5 -56.5t21.5 -156.5l-50 -336q-3 -25 -8.5 -44.5t-19 -42t-32.5 -38t-50.5 -26t-73.5 -10.5h-78l-24 57q-53 -64 -141 -64q-195 0 -152 285q40 264 225 264q160 0 227 -65l-55 -378q40 0 59 16.5t28 73.5l47 315 q3 21 3 38t-2.5 28t-8 19t-11.5 12t-16 6t-18.5 3t-21.5 1h-368q-33 0 -57 -10.5t-36 -29t-17.5 -33.5t-8.5 -34l-77 -487q-8 -50 9.5 -79t76.5 -29h386l-12 -71q-135 -27 -292 -27h-94q-69 0 -112 30t-56.5 77t-4.5 105zM373 337q-11 -89 2.5 -128t67.5 -38q43 0 74.5 14 t63.5 49l44 277q-51 12 -125 12q-22 0 -40 -7.5t-35.5 -27t-31 -58t-20.5 -93.5z" />
<glyph horiz-adv-x="539" d="M62 198l13 83q16 101 82 140t178 27l8 46t7 48h100l-29 -183q-83 1 -125 0q-41 -2 -70 -23t-36 -64l-12 -71q-7 -49 17.5 -72.5t87.5 -23.5h257l-13 -84q-63 -10 -96 -14.5t-85 -8t-105 -0.5q-67 0 -111.5 30t-60.5 74.5t-7 95.5zM356 636l13 78q3 23 27 23h75 q11 0 16.5 -6.5t4.5 -16.5l-13 -78q-3 -25 -28 -25h-75q-24 0 -20 25z" />
<glyph horiz-adv-x="517" d="M16 -109l43 223q5 33 24.5 59.5t52.5 26.5q-32 21 -42 64.5t-3 89.5q29 182 206 179l102 -2q28 0 53.5 -9.5t49 -30.5t33.5 -61.5t2 -95.5q-5 -33 -17 -62.5t-34.5 -59t-62 -47t-89.5 -17.5h-112h-8.5h-9.5t-8.5 -1t-8.5 -3t-6.5 -6.5t-4.5 -11.5q-2 -11 3.5 -18 t13.5 -10t20 -4l157 -24q57 -10 94 -48.5t27 -101.5l-6 -40q-3 -18 -6.5 -32t-10 -30.5t-15 -28.5t-22.5 -23.5t-32 -19t-43 -12t-56 -4.5h-128q-90 0 -130.5 43.5t-25.5 117.5zM133 -106q-8 -39 8.5 -51.5t49.5 -12.5h112q33 0 48 15.5t19 45.5l4 22q4 29 -10.5 43 t-47.5 20l-161 24zM207 344q-16 -100 59 -100h69q17 0 31.5 7t23.5 17.5t15.5 24.5t10 26t5.5 25q8 46 -3 70t-52 24h-70q-18 0 -32.5 -5t-23.5 -13t-15.5 -20.5t-10.5 -25.5t-7 -30z" />
<glyph horiz-adv-x="316" d="M85 -94l96 533h100l-73 -533h-123zM188 539l12 75q3 21 28 23h71q10 -1 16 -8.5t4 -17.5l-11 -72q-5 -22 -25 -26h-77q-21 1 -18 26z" />
<glyph horiz-adv-x="966" d="M86 314l13 87q7 47 22.5 79.5t35.5 51.5t54.5 28.5t67 12.5t84.5 3h434l39 134h98l-21 -134h127l-13 -80l-130 -19l-43 -281q-7 -48 -27.5 -84.5t-47 -57.5t-63 -33.5t-70 -17t-75.5 -4.5h-161q-39 0 -70.5 7.5t-59 24.5t-40 49.5t-6.5 78.5q-75 0 -117.5 39.5 t-30.5 115.5zM201 310q-5 -31 6 -43t42 -12q14 88 66 126.5t142 38.5h94q24 0 44 -3t40.5 -12t34 -23.5t20 -40t1.5 -58.5q-5 -35 -16 -57.5t-24.5 -35.5t-37.5 -19.5t-45 -8t-59 -1.5h-158q-3 -21 0.5 -33.5t15.5 -18t21.5 -7t30.5 -2.5h6h162q63 0 103.5 28t48.5 80 l42 268h-431q-74 -1 -100.5 -15.5t-34.5 -66.5zM365 254h158q16 0 23 0.5t14.5 4t10.5 11t5 20.5q4 23 -3.5 29.5t-37.5 6.5h-89q-38 0 -56 -12.5t-25 -59.5z" />
<glyph horiz-adv-x="402" d="M110 563q6 36 17 64t25 46t28.5 30t32.5 18t31.5 8.5t30.5 3.5q47 2 106.5 -9.5t83.5 -34.5l-47 -322h-64l-16 50q-17 -21 -51.5 -38t-75.5 -17q-62 0 -90.5 48.5t-10.5 152.5zM195 552q-9 -57 -1 -83.5t39 -26.5q55 0 111 40l26 167q-54 15 -98 9q-12 -1 -21.5 -5.5 t-21 -14.5t-20.5 -32t-14 -54z" />
<glyph horiz-adv-x="418" d="M105 373l83 524h91l-30 -188q65 28 123 28q39 0 63.5 -18.5t31.5 -47t9 -63t-4 -67.5q-21 -172 -159 -172q-58 0 -110 46l-28 -42h-70zM213 474l6 -3q44 -20 86 -20q29 0 49.5 26t26.5 76q7 45 2 68.5t-14.5 31t-30.5 7.5q-41 0 -98 -15z" />
<glyph horiz-adv-x="361" d="M122 557q9 57 23.5 93t36.5 53t43.5 22.5t53.5 5.5q82 0 165 -23l-10 -59q-70 4 -134 4q-21 0 -31 -2t-22.5 -11.5t-20.5 -31.5t-14 -60q-10 -62 2 -81.5t53 -19.5q30 0 65 1.5t56 2.5l21 2l-11 -60q-44 -14 -79.5 -19t-90.5 -5q-62 0 -92 46.5t-14 141.5z" />
<glyph horiz-adv-x="418" d="M122 561q6 39 15.5 68t27 55t47 39.5t68.5 13.5q58 0 115 -27l30 188h89l-83 -525h-70l-14 42q-61 -46 -118 -46q-37 0 -62.5 19t-35 47t-13 62t3.5 64zM214 554q-4 -29 -3.5 -49t6.5 -32t15.5 -17t24.5 -5q22 0 39.5 3.5t30 9.5t30.5 17l26 167q-51 12 -93 12 q-31 0 -49 -21.5t-27 -84.5z" />
<glyph horiz-adv-x="400" d="M124 564q8 46 19 75t31.5 51.5t53.5 32.5t82 10q35 0 62.5 -5t50 -17t33.5 -34t8 -52q-4 -44 -30 -72t-60 -38t-71 -12t-62 1.5t-35 7.5q-3 -22 -2 -36t8 -22t16.5 -11t24.5 -3q74 -5 169 10l-10 -66q-88 -26 -198 -20q-64 2 -85.5 50.5t-4.5 149.5zM212 568 q3 -1 8.5 -1.5t21.5 -2.5t30.5 -2t33 2.5t32.5 7.5t25 16t14 27q4 26 -15 34t-56 8q-28 0 -45 -6t-27 -20t-14 -26.5t-8 -36.5z" />
<glyph horiz-adv-x="311" d="M119 653l10 63l67 13l8 45q25 124 130 124q52 0 99 -18l-11 -56l-75 1q-10 0 -17.5 -2.5t-12.5 -5t-9 -9t-6 -10.5t-4 -13.5t-2.5 -13t-2.5 -13.5l-5 -29h95l-12 -76h-96l-45 -280h-91l44 280h-64z" />
<glyph horiz-adv-x="406" d="M88 204l10 62h172q63 0 73 61l10 68q-55 -29 -111 -29q-76 0 -104 56t-13 146t58 129t113 39q106 0 200 -21l-64 -402q-11 -69 -54.5 -100.5t-108.5 -24.5zM216 556q-3 -25 -5 -50t11.5 -44t43.5 -19t46.5 2t50.5 11l32 204h-95q-18 0 -33 -8t-22.5 -17t-14.5 -27.5 t-8.5 -26t-5.5 -25.5z" />
<glyph horiz-adv-x="431" d="M111 373l83 522h91l-34 -211l17.5 10.5t18 11t16.5 9.5t19 8.5t19.5 6t22.5 5t24 1.5q61 0 84.5 -34t14.5 -88l-37 -241h-92l36 231q5 27 -7 40t-35 13q-30 0 -51 -6.5t-59 -24.5l-40 -253h-91z" />
<glyph horiz-adv-x="194" d="M109 373l56 356h91l-56 -356h-91zM172 786l10 59q3 19 21 19h65q17 0 14 -19l-10 -59q-3 -17 -19 -17h-66q-18 0 -15 17z" />
<glyph horiz-adv-x="195" d="M81 191l85 537h92l-57 -358q-15 -111 -52 -179h-68zM173 786l9 59q4 19 21 19h66q17 0 14 -19l-10 -59q-3 -18 -20 -18h-65q-18 0 -15 18z" />
<glyph horiz-adv-x="386" d="M111 373l83 521h91l-48 -299q47 15 94 55.5t58 80.5h98q-15 -55 -60 -101t-85 -66l123 -191h-106l-106 169h-24l-27 -169h-91z" />
<glyph horiz-adv-x="243" d="M131 502l62 393h91l-60 -378q-5 -40 -0.5 -52.5t24.5 -19.5q47 -14 52 -14l-9 -58h-72q-109 0 -88 129z" />
<glyph horiz-adv-x="678" d="M105 373l56 354h71l11 -46q5 3 18 11t18.5 11l16.5 9t18.5 8.5t18.5 5.5t22 4.5t23 1.5q37 0 62.5 -14.5t33.5 -40.5q79 55 158 55q53 0 81.5 -34.5t19.5 -86.5l-38 -238h-91l36 228q4 25 -8 39t-34 14q-61 0 -113 -30q0 -1 -1 -7t-2 -12.5t-1 -7.5l-35 -224h-92l37 228 q3 25 -9.5 39t-34.5 14q-31 0 -52.5 -7t-58.5 -25l-39 -249h-92z" />
<glyph horiz-adv-x="402" d="M122 551q7 54 19.5 87.5t35.5 55t56 30t83 8.5q95 0 125.5 -44.5t14.5 -148.5q-15 -100 -52.5 -135.5t-137.5 -35.5q-94 0 -125.5 42.5t-18.5 140.5zM209 545q-3 -23 -4 -40t2.5 -28t8 -17.5t15 -9t19 -3.5t24.5 -1q26 0 37.5 2t24.5 11.5t20 29.5t13 56q5 31 5.5 50 t-2 31t-12 18t-21.5 8t-32 2q-27 0 -40 -2.5t-25.5 -13.5t-19.5 -32.5t-13 -60.5z" />
<glyph horiz-adv-x="415" d="M82 195l83 521q81 18 201 18q46 0 74 -25.5t34 -67.5t0 -95q-13 -91 -47.5 -137.5t-111.5 -46.5q-27 0 -58.5 8t-54.5 22l-31 -197h-89zM212 455q44 -15 93 -15q32 0 49.5 23t28.5 90q4 25 4 44.5t-5 33.5t-15.5 21t-27.5 7h-94z" />
<glyph horiz-adv-x="418" d="M127 564q16 92 58.5 131.5t113.5 39.5q100 0 192 -21l-82 -526h-92l32 203q-53 -28 -106 -29q-75 0 -103 56t-13 146zM218 552q-3 -24 -5 -49.5t11.5 -44.5t43.5 -19q13 1 15.5 0t12.5 0.5t11 1t10.5 2t11 3t13.5 3.5t17 5l33 205h-89q-19 0 -33.5 -8.5t-22.5 -18 t-15 -27.5t-8.5 -26.5t-5.5 -26.5z" />
<glyph horiz-adv-x="320" d="M105 373l56 354h75l6 -51q26 18 40.5 27t40 18.5t49.5 9.5q36 0 47 -6l-14 -88q-19 3 -54 3t-60.5 -8t-57.5 -29l-36 -230h-92z" />
<glyph horiz-adv-x="368" d="M106 385l9 60h181q30 0 34 26l2 16q2 14 -3 20t-22 6h-92q-48 0 -72 27.5t-17 72.5l4 33q8 45 33.5 67t76.5 22q53 0 114 -5t80 -13l-10 -62h-172q-22 0 -29 -6.5t-9 -20.5l-3 -17q-2 -18 5.5 -22.5t24.5 -4.5h93q32 0 53.5 -14.5t28.5 -35t3 -43.5l-6 -38 q-8 -51 -35 -69.5t-68 -18.5q-51 0 -119.5 5.5t-84.5 14.5z" />
<glyph horiz-adv-x="279" d="M119 654l9 59l70 16l32 99h73l-15 -99h93l-12 -75h-93l-23 -140q-5 -43 -1 -53t25 -15q44 -13 47 -13l-10 -59h-69q-105 0 -85 123l24 157h-65z" />
<glyph horiz-adv-x="426" d="M118 491l38 236h92l-37 -231q-4 -25 8 -38.5t34 -13.5q30 0 49.5 6t56.5 24l40 253h91l-56 -354h-68l-14 45q-6 -3 -16 -10t-15 -10t-14.5 -8.5t-15 -8t-15 -6t-17.5 -5t-18.5 -3t-21.5 -1.5q-61 0 -85 35.5t-16 89.5z" />
<glyph horiz-adv-x="380" d="M130 727h91l54 -242l99 174q14 25 19 68h85q11 -42 -13 -89l-158 -265h-90z" />
<glyph horiz-adv-x="582" d="M130 727h89l54 -238l99 171q15 25 20 67h84q11 -36 -6 -74q0 -1 -13.5 -23.5t-13.5 -23.5l33 -117l98 170q15 26 20 68h85q11 -42 -14 -89l-156 -265h-87l-39 137l-77 -137h-89z" />
<glyph horiz-adv-x="395" d="M74 368l157 184l-104 174h100l65 -117l97 117h106l-159 -188l103 -170h-99l-64 113l-95 -113h-107z" />
<glyph horiz-adv-x="411" d="M136 162v59q45 32 80.5 80t49.5 74q-35 2 -56.5 23t-25.5 52l-52 278h93l44 -252q5 -28 31 -29l104 205q14 32 19 75h85q11 -43 -11 -90l-132 -264q-98 -191 -229 -211z" />
<glyph horiz-adv-x="369" d="M101 374l13 80l209 192h-190l14 81h308l-12 -75l-208 -197h176l-13 -81h-297z" />
<glyph d="M76 172l61 384q28 176 200 176h164q47 0 80.5 -15t49.5 -39t23 -55t0 -63l-61 -388q-15 -88 -62.5 -130t-131.5 -42h-164q-84 0 -128.5 43.5t-30.5 128.5zM194 187q-2 -13 -2 -23.5t1.5 -18t5 -13.5t7 -10t9.5 -6.5t10.5 -3.5t12.5 -2t12.5 -1h13.5h1h121q80 0 93 77 l57 360q6 40 -8.5 58.5t-56.5 18.5h-126q-82 0 -94 -77z" />
<glyph d="M119 0l16 105h156l82 501q-22 -17 -66 -26t-92 -9l12 77q42 0 93.5 31t71.5 53h116l-100 -627h151l-16 -105h-424z" />
<glyph d="M54 0l17 103q44 27 93 59.5t114 81t116.5 94.5t90 96t44.5 88q6 37 -3 61t-34.5 36.5t-69.5 12.5h-275l14 87q155 23 305 23q68 0 112 -33t59 -83.5t8 -112.5q-4 -34 -22.5 -73t-42 -71t-61 -69t-64.5 -61t-68.5 -55.5t-58 -43t-45.5 -31.5h294l-17 -109h-506z" />
<glyph d="M64 21l14 82h270q104 0 117 77l7 42q2 13 2 24t-1 19.5t-5 14.5t-7.5 10.5t-11 7.5l-12.5 5t-15 3t-17 1.5t-19 1.5l-214 8l16 93l216 9q26 1 45.5 6t34 15t22.5 24.5t12 35.5l7 48q4 24 -1.5 40t-19.5 23.5t-29.5 10.5t-37.5 3h-283l12 81q44 15 100.5 21.5t110.5 7 t116 -0.5q76 -2 119 -52t31 -127l-10 -59q-9 -57 -33.5 -90.5t-60.5 -41.5q34 -14 46.5 -55t2.5 -99l-8 -49q-26 -168 -211 -168h-37.5h-38.5t-34.5 0.5t-37.5 1t-32.5 2t-34.5 3.5l-30 5t-32 7t-28 9z" />
<glyph d="M59 224l362 508h134l-318 -450h214l29 182l47 76h83l-41 -258h79l-14 -90l-83 -22l-26 -168h-118l26 168h-349z" />
<glyph d="M67 22l15 90h290q19 0 34.5 5.5t25 13t16 19t10 21t4.5 20.5l13 78q14 83 -61 83h-113q-19 0 -35 -6t-28.5 -21t-16.5 -37h-110l92 445h437l-17 -109h-324l-40 -193q27 23 81 27q29 2 44 2t41 -1t31 -1q74 -3 111 -54.5t25 -128.5l-16 -111q-8 -49 -27.5 -82.5t-49 -50.5 t-59.5 -24.5t-69 -8.5q-91 -3 -146.5 1.5t-157.5 22.5z" />
<glyph d="M111 391q15 95 41 164.5t57.5 106.5t63.5 54.5t67 19.5q161 9 309 -19l-14 -88h-265q-31 0 -56 -21t-40.5 -56t-24.5 -66.5t-16 -68.5q108 20 228 21q40 1 69 -9.5t44 -28t24 -39.5t8 -46t-3 -47l-19 -120q-13 -83 -62.5 -115.5t-133.5 -32.5h-144q-33 0 -59 10t-47 37 t-32 70t-10 112.5t15 161.5zM219 333q-4 -31 -6.5 -56t-3 -52t3.5 -47t12 -37t23.5 -25.5t36.5 -8.5h105q73 0 84 70l14 88q6 40 -6.5 54t-53.5 14h-209z" />
<glyph d="M155 623l18 109h467l24 -58l-359 -674h-129l335 623h-356z" />
<glyph d="M83 170l12 82q6 32 21.5 55.5t37 35.5t47.5 16q-46 18 -59.5 59t-5.5 88l10 65q8 50 26 83.5t47 51t61 24.5t76 7h150q53 0 88 -20.5t49 -61.5t5 -98l-10 -58q-1 -11 -6 -26t-15.5 -33t-30 -32.5t-44.5 -18.5q21 -6 34.5 -23t18.5 -37.5t6.5 -42.5t-2.5 -38l-14 -90 q-7 -43 -22.5 -73.5t-32.5 -46.5t-44 -25t-47 -11t-51 -2h-148q-37 0 -65 7t-45 18t-28 27.5t-16 31t-6 32.5t0 29.5t3 24.5zM200 172q-4 -25 2 -39.5t23 -20.5t47 -6h113q21 0 38 6t30 21t17 39l13 82q5 34 -11.5 51.5t-49.5 17.5h-122q-76 0 -87 -69zM251 494 q-6 -39 13.5 -54.5t51.5 -15.5h121q43 0 60.5 19t22.5 51l9 55q8 49 -6.5 66t-54.5 17h-113q-47 0 -67.5 -18.5t-28.5 -64.5z" />
<glyph d="M78 19l14 88h264q31 0 56 20.5t41 56t25 67t16 67.5q-108 -20 -228 -21q-40 0 -69.5 11t-44 28.5t-23.5 40.5t-8 47t4 47l17 113q13 84 63 118t133 34h144q34 0 60 -11t47 -38.5t31.5 -72t10 -114.5t-15.5 -162q-10 -64 -25 -116.5t-33.5 -88.5t-38.5 -62t-43 -41 t-44 -22t-44 -8q-175 -10 -309 19zM239 471q-6 -27 -0.5 -42t19 -20.5t41.5 -5.5h208q8 47 9.5 83t-3 71t-22.5 53.5t-50 18.5h-104q-73 0 -84 -70z" />
<glyph d="M76 172l45 284q28 176 200 176h164q49 0 83.5 -15t50 -39t21.5 -55t-1 -63l-46 -288q-15 -88 -62.5 -130t-131.5 -42h-164q-84 0 -128.5 43.5t-30.5 128.5zM194 187q-2 -13 -2 -23.5t1.5 -18t5 -13.5t7 -10t9.5 -6.5t10.5 -3.5t12.5 -2t12.5 -1h13.5h1h121q80 0 93 77 l41 260q7 40 -7.5 58.5t-56.5 18.5h-127q-82 0 -94 -77z" />
<glyph d="M124 0l16 105h149l63 401q-22 -15 -66 -25t-91 -10l12 77q43 0 94 31t70 53h114l-79 -527h145l-16 -105h-411z" />
<glyph d="M54 0l16 103q6 3 19 9l60 30t64.5 33t70 39t65.5 40t62.5 43.5t49 43.5t38 45.5t17.5 44.5q8 52 -14.5 74.5t-89.5 21.5l-276 -1l14 86q147 24 304 24q46 0 81 -11.5t55.5 -31t33 -45.5t13.5 -56t-1 -63q-5 -46 -34 -92.5t-66 -81t-83 -67t-77.5 -50t-58.5 -29.5h260 l-18 -109h-505z" />
<glyph d="M49 -75l14 82h270q104 0 117 77l7 42q2 12 2.5 22t-1 18t-3.5 14t-6.5 10.5l-8 8t-10.5 6t-12 4t-14.5 2t-15.5 1t-17 1.5l-214 7l16 93l216 10q53 2 80 21t34 60l7 48q4 24 -1.5 40t-19.5 23.5t-29.5 10.5t-37.5 3h-283l12 81q44 14 100.5 21t110.5 7h116q76 -2 119 -52 t31 -127l-10 -59q-9 -57 -33.5 -90.5t-60.5 -41.5q34 -14 46.5 -55t2.5 -100l-8 -48q-26 -168 -211 -168h-37.5h-38.5t-34.5 0.5t-37.5 1t-32.5 2t-34.5 3.5l-30 5t-32 7t-28 9z" />
<glyph d="M43 124l362 508h134l-318 -450h214l29 182l47 76h83l-41 -258h79l-14 -90l-83 -22l-26 -168h-118l26 168h-349z" />
<glyph d="M51 -79l15 90h290q16 0 29.5 3.5t22.5 10t16 14t11.5 17t7 17.5t3.5 17l13 78q14 83 -61 83h-113q-30 0 -52 -16t-28 -49h-110l92 446h437l-17 -109h-324l-40 -193q27 23 81 27q29 2 44 2t41 -1t31 -2q74 -2 111 -53.5t25 -129.5l-16 -110q-8 -49 -27.5 -83t-49 -51 t-59.5 -24t-69 -8q-91 -4 -146.5 1t-157.5 23z" />
<glyph d="M111 391q15 95 41 164.5t57.5 106.5t63.5 54.5t67 19.5q146 8 309 -19l-14 -88h-265q-31 0 -56 -21t-40.5 -56t-24.5 -66.5t-16 -68.5q108 20 228 21q40 1 69 -9.5t44 -28t24 -39.5t8 -46t-3 -47l-19 -120q-13 -83 -62.5 -115.5t-133.5 -32.5h-144q-33 0 -59 10t-47 37 t-32 70t-10 112.5t15 161.5zM219 333q-4 -31 -6.5 -56t-3 -52t3.5 -47t12 -37t23.5 -25.5t36.5 -8.5h105q73 0 84 70l14 88q6 40 -6.5 54t-53.5 14h-209z" />
<glyph d="M139 523l18 109h467l24 -58l-359 -674h-129l335 623h-356z" />
<glyph horiz-adv-x="626" d="M89 170l12 82q6 32 21.5 55.5t37 35.5t47.5 16q-46 18 -59.5 59t-5.5 88l10 65q8 50 26 83.5t47 51t61 24.5t76 7h150q53 0 88 -20.5t49 -61.5t5 -98l-10 -58q-1 -11 -6 -26t-15.5 -33t-30 -32.5t-44.5 -18.5q21 -6 34.5 -23t18.5 -37.5t6.5 -42.5t-2.5 -38l-14 -90 q-7 -43 -22.5 -73.5t-32.5 -46.5t-44 -25t-47 -11t-51 -2h-148q-37 0 -65 7t-45 18t-28 27.5t-16 31t-6 32.5t0 29.5t3 24.5zM206 172q-4 -25 2 -39.5t23 -20.5t47 -6h113q21 0 38 6t30 21t17 39l13 82q5 34 -11.5 51.5t-49.5 17.5h-122q-76 0 -87 -69zM257 494 q-6 -39 13.5 -54.5t51.5 -15.5h121q43 0 60.5 19t22.5 51l9 55q8 49 -6.5 66t-54.5 17h-113q-47 0 -67.5 -18.5t-28.5 -64.5z" />
<glyph d="M62 -85l14 88h264q21 0 39.5 10t32.5 27.5t24.5 38t18.5 46t13.5 46.5t9.5 44q-108 -20 -228 -21q-40 -1 -69.5 10t-44 28.5t-23.5 40.5t-8 47t4 47l17 113q13 84 63 118t133 34h144q34 0 60 -11t47 -38.5t31.5 -72t10 -114.5t-15.5 -162q-12 -77 -31.5 -136.5t-42 -96 t-49.5 -60.5t-52 -34t-53 -11q-183 -10 -309 19zM223 367q-6 -40 6.5 -54t53.5 -14h208q8 47 9.5 83t-3 71t-22.5 53.5t-50 18.5h-104q-73 0 -84 -70z" />
<glyph horiz-adv-x="517" d="M248 710h53q-3 -28 11.5 -44t39.5 -16q62 -1 71 60h53q-7 -56 -39 -84.5t-86 -28.5q-29 0 -53.5 13t-38.5 39.5t-11 60.5zM16 -109l43 223q5 33 24.5 59.5t52.5 26.5q-32 21 -42 64.5t-3 89.5q29 182 206 179l102 -2q28 0 53.5 -9.5t49 -30.5t33.5 -61.5t2 -95.5 q-5 -33 -17 -62.5t-34.5 -59t-62 -47t-89.5 -17.5h-112h-8.5h-9.5t-8.5 -1t-8.5 -3t-6.5 -6.5t-4.5 -11.5q-3 -15 7.5 -22t29.5 -10l157 -24q57 -10 94 -48.5t27 -101.5l-6 -40q-3 -21 -7.5 -37.5t-13 -35t-21.5 -31.5t-32 -24t-47 -16.5t-64 -5.5h-128q-90 0 -130.5 43.5 t-25.5 117.5zM133 -106q-8 -39 8.5 -51.5t49.5 -12.5h112q33 0 48 15.5t19 45.5l4 22q4 29 -10.5 43t-47.5 20l-161 24zM207 344q-16 -100 59 -100h69q21 0 37.5 10t26 26.5t14.5 32t8 31.5q8 46 -3 70t-52 24h-70q-43 0 -62 -24t-27 -70z" />
<glyph horiz-adv-x="517" d="M299 620l11 68q4 25 28 25h64q11 0 16 -7t3 -18l-11 -68q-3 -23 -26 -23h-64q-11 0 -16.5 6.5t-4.5 16.5zM16 -109l43 223q5 33 24.5 59.5t52.5 26.5q-32 21 -42 64.5t-3 89.5q29 182 206 179l102 -2q28 0 53.5 -9.5t49 -30.5t33.5 -61.5t2 -95.5q-5 -33 -17 -62.5 t-34.5 -59t-62 -47t-89.5 -17.5h-112h-8.5h-9.5t-8.5 -1t-8.5 -3t-6.5 -6.5t-4.5 -11.5q-3 -15 7.5 -22t29.5 -10l157 -24q57 -10 94 -48.5t27 -101.5l-6 -40q-3 -21 -7.5 -37.5t-13 -35t-21.5 -31.5t-32 -24t-47 -16.5t-64 -5.5h-128q-90 0 -130.5 43.5t-25.5 117.5z M133 -106q-8 -39 8.5 -51.5t49.5 -12.5h112q33 0 48 15.5t19 45.5l4 22q4 29 -10.5 43t-47.5 20l-161 24zM207 344q-16 -100 59 -100h69q21 0 37.5 10t26 26.5t14.5 32t8 31.5q8 46 -3 70t-52 24h-70q-43 0 -62 -24t-27 -70z" />
<glyph horiz-adv-x="517" d="M191 597l133 134h92l78 -134h-81l-48 72l-79 -72h-95zM16 -109l43 223q5 33 24.5 59.5t52.5 26.5q-32 21 -42 64.5t-3 89.5q29 182 206 179l102 -2q28 0 53.5 -9.5t49 -30.5t33.5 -61.5t2 -95.5q-5 -33 -17 -62.5t-34.5 -59t-62 -47t-89.5 -17.5h-112h-8.5h-9.5t-8.5 -1 t-8.5 -3t-6.5 -6.5t-4.5 -11.5q-3 -15 7.5 -22t29.5 -10l157 -24q57 -10 94 -48.5t27 -101.5l-6 -40q-3 -21 -7.5 -37.5t-13 -35t-21.5 -31.5t-32 -24t-47 -16.5t-64 -5.5h-128q-90 0 -130.5 43.5t-25.5 117.5zM133 -106q-8 -39 8.5 -51.5t49.5 -12.5h112q33 0 48 15.5 t19 45.5l4 22q4 29 -10.5 43t-47.5 20l-161 24zM207 344q-16 -100 59 -100h69q21 0 37.5 10t26 26.5t14.5 32t8 31.5q8 46 -3 70t-52 24h-70q-43 0 -62 -24t-27 -70z" />
<glyph horiz-adv-x="854" d="M74 275q9 51 21 91t24 67t29.5 45.5t32 29t36.5 16t38 6.5t41 1l379 1l45 148h95l-24 -148h132l-15 -97h-132l-37 -231q-5 -34 -5.5 -53.5t4.5 -31t12.5 -15.5t22.5 -9q62 -19 65 -19l-12 -76h-93q-70 0 -99 44t-13 146l39 245h-341h-5q-14 0 -20.5 -0.5t-18 -2.5 t-18 -6.5t-15.5 -12.5t-15 -20.5t-13 -31t-13 -43.5t-12 -58q-7 -53 -8.5 -86t9.5 -51.5t27 -25t43 -6.5q41 0 93.5 2.5t84.5 5.5l32 2l-12 -76q-62 -19 -115 -25.5t-130 -5.5q-40 0 -69.5 14t-51.5 47t-25.5 86.5t7.5 133.5z" />
<glyph horiz-adv-x="749" d="M86 437l11 70l94 25l45 148h95l-24 -148h261l45 148h95l-24 -148h132l-15 -95h-132l-36 -233q-5 -33 -5.5 -53t5 -31t12.5 -15.5t21 -9.5q62 -19 65 -19l-12 -76h-86q-67 0 -100.5 45.5t-18.5 144.5l39 247h-261l-37 -233q-5 -33 -5.5 -53t5 -31t12.5 -15.5t21 -9.5 q62 -19 65 -19l-11 -76h-87q-67 0 -100.5 45.5t-17.5 144.5l39 247h-90z" />
<glyph horiz-adv-x="761" d="M85 436l13 78l92 17l15 99q26 156 170 156q71 0 131 -23l-11 -71h-104q-40 1 -52.5 -17.5t-20.5 -65.5l-12 -77h276l44 148h95l-23 -148h132l-15 -95h-132l-36 -233q-5 -33 -5.5 -53t5 -31t12.5 -15.5t22 -9.5q62 -19 65 -19l-12 -76h-86q-67 0 -100.5 45.5t-18.5 144.5 l38 247h-277l-69 -437h-116l69 436h-89z" />
<glyph horiz-adv-x="935" d="M86 437l11 70l94 25l45 148h95l-24 -148h151q77 0 114 -30.5t45 -95.5l36 -261q1 -8 3.5 -14t6 -10t8.5 -7t9 -4.5t9.5 -2.5t8.5 -1h7h4l159 328q18 41 26 100h104q15 -61 -19 -135l-190 -397q-27 -59 -58 -105.5t-59.5 -77t-60 -51.5t-58.5 -31.5t-56 -16.5v82 q58 34 96.5 83t72.5 116q-49 0 -84 29.5t-44 96.5l-38 252q-5 36 -22 47t-62 11h-124l-36 -234q-6 -32 -6.5 -52.5t5.5 -31.5t13 -15.5t21 -8.5q62 -19 65 -19l-12 -76h-86q-67 0 -100.5 45t-18.5 144l39 248h-90z" />
<glyph horiz-adv-x="948" d="M85 436l13 78l92 17l15 99q26 156 170 156q71 0 131 -23l-11 -71h-104q-40 1 -52.5 -17.5t-20.5 -65.5l-12 -78h163q78 0 116 -31.5t46 -96.5l37 -261q1 -7 4 -13.5t7 -10.5t9 -7t9.5 -4.5t10 -2t9 -1t7 -0.5h4.5l152 328q19 42 26 100h105q15 -61 -19 -135l-190 -397 q-28 -59 -58.5 -105.5t-59.5 -76.5t-60 -51.5t-58 -32t-57 -16.5v83q59 33 97.5 82.5t73.5 116.5q-48 0 -83 29.5t-45 96.5l-38 252q-4 36 -22 47.5t-63 11.5h-139l-69 -436h-116l69 436h-89z" />
<glyph horiz-adv-x="517" d="M16 -109l43 223q5 33 24.5 59.5t52.5 26.5q-32 21 -42 64.5t-3 89.5q29 182 206 179l102 -2q28 0 53.5 -9.5t49 -30.5t33.5 -61.5t2 -95.5q-5 -33 -17 -62.5t-34.5 -59t-62 -47t-89.5 -17.5h-112h-8.5h-9.5t-8.5 -1t-8.5 -3t-6.5 -6.5t-4.5 -11.5q-2 -11 3.5 -18 t13.5 -10t20 -4l157 -24q57 -10 94 -48.5t27 -101.5l-6 -40q-3 -18 -6.5 -32t-10 -30.5t-15 -28.5t-22.5 -23.5t-32 -19t-43 -12t-56 -4.5h-128q-90 0 -130.5 43.5t-25.5 117.5zM133 -106q-8 -39 8 -51t50 -12h111q34 0 49 15t19 45l4 22q4 29 -10.5 43t-47.5 20l-161 24z M207 344q-16 -100 59 -100h69q17 0 31.5 7t23.5 17.5t15.5 24.5t10 26t5.5 25q8 46 -3 70t-52 24h-70q-18 0 -32.5 -5t-23.5 -13t-15.5 -20.5t-10.5 -25.5t-7 -30zM303 618l15 100q5 27 18.5 44t29.5 22t31.5 6.5t25.5 -0.5l10 -2l-5 -38q-28 1 -32 -25l-3 -17h10 q22 0 19 -22l-10 -68q-5 -24 -27 -24h-65q-21 0 -17 24z" />
<glyph horiz-adv-x="267" d="M75 23l12 78q4 25 28 25h76q11 0 16 -7t3 -18l-12 -78q-3 -23 -26 -23h-76q-11 0 -17 6.5t-4 16.5zM109 178l52 392h122l-75 -392h-99z" />
<glyph horiz-adv-x="420" d="M149 413l9 134l11 67h113l-11 -67l-31 -134h-91zM312 413l10 134l11 67h113l-11 -67l-31 -134h-92z" />
<glyph horiz-adv-x="593" d="M41 159l25 80h121l35 102h-123l24 80h124l51 157h80l-51 -157h106l50 157h80l-50 -157h131l-24 -80h-132l-34 -102l132 -1l-24 -79h-133l-52 -160h-80l51 160h-105l-52 -160h-80l51 160h-121zM268 239h106l33 102h-105z" />
<glyph horiz-adv-x="513" d="M63 13l13 83q2 0 89 -0.5t136 -0.5q66 0 74 53l5 29q5 29 -8.5 41.5t-44.5 12.5h-84q-31 0 -56 7t-40.5 18.5t-26.5 26.5t-15 32.5t-5.5 36.5t2.5 36l5 33q24 151 195 153l11 72h79l-11 -74q74 -6 153 -18l-13 -85q-176 3 -216 3q-72 0 -82 -61l-4 -24q-5 -29 9.5 -40.5 t47.5 -11.5h93q51 0 83.5 -25.5t42 -61t2.5 -76.5l-5 -35q-6 -33 -15 -57t-24 -39.5t-30.5 -25.5t-39 -15t-44 -6.5t-50.5 -1.5l-11 -68h-79l11 72q-126 10 -147 17z" />
<glyph horiz-adv-x="917" d="M80 368l14 93q11 67 42.5 96t108.5 29h72q67 0 94.5 -32.5t17.5 -99.5l-14 -93q-7 -47 -22 -73t-45.5 -39t-81.5 -13h-72q-41 0 -69 15t-39.5 45t-5.5 72zM168 375q-4 -30 5 -41.5t40 -11.5h55q34 0 46 11t17 42l11 72q4 22 1 33.5t-13 15.5t-33 4h-54q-34 0 -46.5 -10.5 t-17.5 -42.5zM253 0l405 570h90l-403 -570h-92zM578 133l14 93q11 67 42 96t108 29h72q68 0 95.5 -32.5t17.5 -99.5l-14 -93q-10 -70 -42 -97.5t-107 -27.5h-72q-63 0 -93 34.5t-21 97.5zM666 140q-4 -31 4.5 -42t39.5 -11h54q24 0 37 5.5t19 16t9 31.5l10 72q6 33 -2.5 43 t-41.5 10h-55q-33 0 -46 -11t-17 -42z" />
<glyph horiz-adv-x="562" d="M75 75q-68 129 66 231l66 49l-23 39q-25 46 -16.5 84t37 63t63.5 29q107 10 215 -18l-13 -81h-131q-38 0 -49.5 -17t5.5 -46l108 -188l106 80l38 -50l-62 -91l-29 -25l82 -134h-122l-43 72l-50 -41q-33 -25 -79.5 -33.5t-95 10t-73.5 67.5zM170 128q10 -15 23.5 -24 t33 -7.5t39.5 17.5l54 44l-65 110l-58 -42q-60 -44 -27 -98z" />
<glyph horiz-adv-x="256" d="M148 413l10 134l11 67h113l-11 -67l-31 -134h-92z" />
<glyph horiz-adv-x="431" d="M106 403l7 50l144 26l-9 -81zM142 252l46 136l77 -19l-78 -132zM245 307l56 68l96 -91l-34 -40zM257 556l51 18l52 -121l-80 -32zM308 408l131 78l21 -43l-110 -97z" />
<glyph horiz-adv-x="571" d="M84 169l38 246q24 155 198 155h118q38 0 66.5 -11t43 -29t24 -40t9 -45t-2.5 -44l-38 -246q-13 -85 -61 -120t-132 -35h-118q-74 0 -116 42t-29 127zM202 181q-2 -12 -2 -21.5t0.5 -17t4 -13t6 -9t9 -5.5t10 -3.5t11.5 -2t12 -0.5h13h78q71 0 83 72l33 205q3 24 1 40.5 t-16.5 25.5t-44.5 9h-78q-44 0 -63 -20t-24 -55z" />
<glyph horiz-adv-x="346" d="M98 409l12 77q36 0 80.5 30.5t64.5 53.5h114l-87 -570h-116l69 444q-39 -35 -137 -35z" />
<glyph horiz-adv-x="511" d="M40 0l17 103q30 13 59 26.5t71.5 35t77.5 45t68 50.5t54 57t26 59q4 23 1.5 39.5t-13.5 27.5t-32.5 16t-55.5 5h-206l14 84q64 16 109.5 21t127.5 5q54 0 91.5 -16.5t56 -44.5t25.5 -65.5t0 -79.5q-8 -47 -38.5 -93.5t-70 -79t-76 -55t-62.5 -31.5h203l-17 -109h-430z " />
<glyph horiz-adv-x="506" d="M32 16l14 86h230q30 0 50.5 11t25.5 42l3 19q3 14 0.5 24t-6.5 16.5t-12.5 10t-17 5t-20.5 2.5l-184 5l16 94l184 4q37 1 54 12.5t22 43.5l3 23q2 17 1.5 27t-9.5 15.5t-20 7.5t-30 2h-238l14 85q34 11 83.5 16.5t97.5 5.5h102q61 -1 94.5 -42.5t22.5 -104.5l-4 -31 q-7 -48 -24 -76.5t-53 -39.5q53 -30 40 -119l-4 -22q-11 -75 -49.5 -108.5t-118.5 -34.5h-94t-94.5 5t-78.5 16z" />
<glyph horiz-adv-x="551" d="M46 186l263 384h127l-225 -333h168l23 137l50 82h79l-36 -219h76l-13 -91l-80 -18l-19 -126h-116l19 126h-287z" />
<glyph horiz-adv-x="533" d="M67 23l14 87h239q37 0 53 14t21 43l6 41q2 15 2.5 27t-13.5 20t-43 8h-78q-26 0 -45 -13.5t-24 -43.5h-102l75 364h376l-17 -109h-274l-27 -131q25 25 73 30q9 1 76 1q83 0 115.5 -44t21.5 -113l-9 -56q-13 -83 -58 -115.5t-127 -33.5q-86 -1 -143 3.5t-112 20.5z" />
<glyph horiz-adv-x="540" d="M100 307q9 64 25.5 112.5t36.5 78t45 47.5t49 24.5t52 6.5q176 0 253 -15l-15 -97h-235q-17 0 -32 -9t-24 -22t-16.5 -31.5t-11 -33t-5.5 -29.5q72 10 185 12q66 1 96.5 -40t20.5 -100l-12 -77q-8 -49 -28.5 -79.5t-52 -43t-76.5 -12.5h-116q-32 0 -56 8t-46.5 28 t-32.5 55t-13.5 88.5t9.5 128.5zM208 254q-21 -143 44 -143h92q25 0 38 8.5t17 34.5l9 61q3 24 -6 31.5t-35 7.5h-159z" />
<glyph horiz-adv-x="476" d="M98 461l17 109h391l26 -58l-274 -512h-127l249 461h-282z" />
<glyph horiz-adv-x="564" d="M83 137l10 63q3 21 11.5 36t21.5 23t24.5 12.5t27.5 7.5q-33 11 -46 43.5t-9 67.5l6 43q13 82 50.5 112t114.5 30h166q60 0 91.5 -39.5t20.5 -109.5l-7 -39q-2 -10 -5.5 -20.5t-11.5 -26.5t-23 -27.5t-35 -16.5q27 -8 38.5 -38.5t6.5 -61.5l-11 -70q-6 -39 -21 -65.5 t-37.5 -39t-44 -17t-51.5 -4.5h-171q-32 0 -56 9t-36 23.5t-19.5 33t-6.5 36.5t2 35zM200 148q-4 -27 6.5 -36t44.5 -9h102q17 0 28 3.5t19 13.5t10 27l8 47q4 26 -6.5 36.5t-34.5 10.5h-112q-16 0 -26.5 -3.5t-19 -14t-11.5 -28.5zM238 384q-8 -48 42 -48h113q16 0 27 4 t16.5 11.5t8 14t3.5 17.5l6 38q2 16 1.5 26t-6 15.5t-14 7.5t-22.5 2h-106h-13.5t-11 -1t-10 -2t-8 -3.5t-7 -6.5t-5.5 -9t-5 -12.5t-3 -16.5z" />
<glyph horiz-adv-x="539" d="M71 14l15 97h235q21 0 38 12.5t27 34t15.5 40t9.5 38.5q-81 -11 -190 -12q-44 0 -72.5 20t-37.5 52t-3 69l12 77q12 73 50 103.5t107 30.5h116q31 0 55.5 -8t46.5 -28.5t32.5 -55.5t14 -89t-9.5 -128q-12 -80 -33.5 -135t-50.5 -83t-58.5 -39t-65.5 -11q-176 0 -253 15z M224 360q-4 -24 5 -31.5t35 -7.5h159q22 143 -43 143h-93q-16 0 -26 -3t-17.5 -12.5t-10.5 -27.5z" />
<glyph horiz-adv-x="446" d="M90 460l15 93q51 8 73.5 11t66.5 6t84 1q85 0 122 -45.5t26 -128.5l-4 -34q-13 -77 -67.5 -113t-132.5 -23l-2 -12t-4 -24.5t-1 -13.5h-97l21 137q63 -1 102 0q56 3 64 55l4 28q4 33 -9.5 48t-53.5 15h-207zM129 23l12 78q3 25 28 25h74q26 0 21 -25l-12 -78 q-4 -23 -29 -23h-74q-10 0 -16 6.5t-4 16.5z" />
<glyph horiz-adv-x="886" d="M62 57l78 494q16 95 73.5 142t163.5 47h368q95 0 132 -55.5t22 -154.5l-50 -336q-4 -24 -9.5 -43.5t-18.5 -42.5t-32 -38.5t-51 -26t-73 -10.5h-79l-23 57q-54 -64 -142 -64q-195 0 -152 285q41 264 226 264q159 0 226 -65l-54 -378q39 0 58 16.5t28 73.5l47 315 q3 22 3 38.5t-2 27.5t-8 19t-11.5 12t-16 6.5t-18.5 3t-21 0.5h-368q-34 0 -57.5 -10.5t-36 -29t-17.5 -33.5t-8 -34l-78 -487q-7 -50 10 -78.5t77 -28.5h386l-12 -72q-135 -27 -292 -27h-95q-68 0 -111 30t-57 77t-5 106zM366 291q-12 -89 2 -128t68 -38q42 0 74 14t64 49 l43 277q-51 12 -124 12q-22 0 -40 -7.5t-36 -27t-31 -57.5t-20 -94z" />
<glyph horiz-adv-x="601" d="M30 0l302 570h133l107 -570h-115l-27 129h-207l-66 -129h-127zM273 228h144l-39 197z" />
<glyph horiz-adv-x="547" d="M68 0l90 571h263q88 0 125.5 -44t26.5 -113q-18 -111 -93 -123q32 -7 48.5 -43.5t7.5 -92.5q-13 -82 -60 -118.5t-141 -36.5h-267zM200 103h145q27 0 49 16t26 55q3 24 0 39.5t-15.5 25.5t-36.5 10q-121 -1 -145 0zM238 341h145q36 0 51 15t21 51q6 37 -7.5 49.5 t-44.5 12.5h-145z" />
<glyph horiz-adv-x="516" d="M94 317q5 36 12.5 65t19 56t26 48.5t34 39t44 29t55.5 17.5t68 6q53 0 117.5 -7.5t103.5 -20.5l-12 -84q-15 3 -87.5 8.5t-116.5 5.5q-72 0 -102.5 -44t-45.5 -141q-5 -31 -7.5 -50.5t-3 -45.5t5 -42t15.5 -31.5t30 -23t48 -8.5q34 1 85.5 4.5t86.5 6.5l34 3l-13 -82 q-99 -30 -230 -30q-46 0 -80 13t-53.5 37t-30.5 53.5t-13 68t0.5 73t9.5 76.5z" />
<glyph horiz-adv-x="591" d="M68 0l91 572h259q52 -1 88.5 -20.5t56 -49.5t28.5 -71.5t8.5 -81t-6.5 -84.5q-8 -55 -23 -98.5t-31 -71t-39.5 -47t-41.5 -28.5t-44.5 -14t-39.5 -5.5t-36 -0.5h-9h-261zM201 106h135q34 0 59 14t41 40t25.5 55.5t15.5 67.5q15 94 -8 139t-76 45h-135z" />
<glyph horiz-adv-x="513" d="M82 97l59 370q8 52 44 78t90 26q257 -8 289 -14l-15 -91h-260q-15 0 -22.5 -3.5t-10 -9.5t-4.5 -20l-16 -96l257 -8l-14 -89l-259 -7l-15 -98q-4 -19 4 -25.5t27 -6.5h256l-14 -90q-12 -2 -48.5 -4.5t-80.5 -4.5t-86 -3.5t-70 -1.5l-28 -1q-45 1 -67.5 26.5t-15.5 72.5z " />
<glyph horiz-adv-x="514" d="M68 0l74 467q8 52 43.5 78t90.5 26q257 -8 289 -14l-15 -91h-260q-21 0 -27 -6.5t-11 -25.5l-16 -106l256 -8l-13 -89l-260 -7l-35 -224h-116z" />
<glyph horiz-adv-x="570" d="M92 311q22 143 77 204.5t175 63.5q50 2 131.5 -5.5t122.5 -19.5l-13 -86q-114 13 -222 13q-52 0 -79 -14t-45 -54.5t-31 -124.5q-4 -25 -5.5 -46.5t0.5 -48.5t10.5 -46t27.5 -32.5t48 -13.5q45 0 87 15.5t56 33.5l14 85h-129l11 67q82 21 181 21q30 0 66 -3l-51 -320h-87 l-19 44q-69 -51 -171 -51q-41 0 -72.5 15.5t-48.5 38t-27.5 56t-13.5 62t-1.5 62.5t3.5 50.5t5 33.5z" />
<glyph horiz-adv-x="590" d="M67 -1l90 571h116l-38 -240h241l38 240h116l-90 -571h-116l35 221h-241l-35 -221h-116z" />
<glyph horiz-adv-x="234" d="M68 0l90 570h116l-90 -570h-116z" />
<glyph horiz-adv-x="334" d="M33 21l17 89q74 -9 106 7t43 76l60 377h116l-64 -405q-18 -116 -86 -149q-51 -22 -104.5 -20t-87.5 25z" />
<glyph horiz-adv-x="567" d="M67 -1l90 571h112l-37 -240h61l202 240h133l-236 -298l149 -273h-131l-127 229h-68l-36 -229h-112z" />
<glyph horiz-adv-x="499" d="M85 107l73 463h116l-67 -420q-3 -9 -1 -15.5t2 -10.5t4.5 -7t7 -4.5t9.5 -2.5t11 -1h13h235l-17 -109h-296q-49 0 -73.5 27.5t-16.5 79.5z" />
<glyph horiz-adv-x="753" d="M47 0l144 571h148l65 -401l190 401h150l-36 -571h-114l24 389l-180 -389h-112l-65 389l-100 -389h-114z" />
<glyph horiz-adv-x="602" d="M68 0l90 571h113l197 -373l59 373h115l-90 -571h-112l-196 374l-60 -374h-116z" />
<glyph horiz-adv-x="601" d="M90 289q12 72 30 123t41.5 83t58 49.5t72 24t90.5 6.5q38 0 66.5 -3t55.5 -11t45.5 -22t33.5 -36.5t21 -53.5t5.5 -74t-9.5 -97q-11 -73 -29.5 -123.5t-41.5 -82t-57.5 -48.5t-72 -23t-91.5 -6q-37 0 -65.5 3t-55 11.5t-45.5 22.5t-33.5 36.5t-21 53t-6 72.5t8.5 95z M207 285q-8 -49 -8 -81t6 -52t22 -30.5t36 -14t53 -3.5q24 0 39.5 1.5t34.5 7t31.5 17.5t25 32t22 51t15.5 74q6 33 8 58t0 43.5t-5 31.5t-12 21.5t-17 13.5t-23.5 7.5t-27.5 3t-33 0.5q-22 0 -34 -0.5t-30 -4t-28 -10.5t-23 -20t-21.5 -32t-16.5 -47.5t-14 -66.5z" />
<glyph horiz-adv-x="527" d="M51 0l90 569h274q71 0 110 -42.5t29 -136.5q-4 -38 -13 -67.5t-20.5 -48.5t-29 -32.5t-31 -20t-34 -10.5t-32 -4.5t-29.5 -1.5q-10 0 -86.5 6t-76.5 7l-34 -218h-117zM215 300h146q29 0 48 16.5t27 68.5q8 40 -6.5 61t-42.5 21h-146z" />
<glyph horiz-adv-x="601" d="M90 287q14 90 37.5 147.5t61.5 88t82 41.5t111 11q38 0 66 -3t55.5 -11t46 -21.5t33.5 -36t21 -53t5.5 -73.5t-9.5 -97q-11 -73 -29.5 -123.5t-41.5 -82.5t-57.5 -49.5t-72 -23.5t-91.5 -6q-37 0 -65.5 3t-55.5 11.5t-45.5 22t-33 36t-21 53t-6 72t8.5 94.5zM207 285 q-8 -49 -8 -81t6 -52t22 -30.5t36 -14t53 -3.5q24 0 39.5 1.5t34.5 7t31.5 17.5t25 32t22 51t15.5 74q6 33 8 58t0 43.5t-5 31.5t-12 21.5t-17 13.5t-23.5 7.5t-27.5 3t-33 0.5q-22 0 -34 -0.5t-30 -4t-28 -10.5t-23 -20t-21.5 -32t-16.5 -47.5t-14 -66.5zM262 -33h70 q41 -60 160 -25l-16 -101q-29 -8 -59 -8t-59 8t-51 23.5t-34.5 42t-10.5 60.5z" />
<glyph horiz-adv-x="540" d="M51 0l90 570h264q31 0 57.5 -9.5t48.5 -30t33 -58t5 -88.5q-15 -148 -122 -164l86 -220h-123l-74 209q-16 1 -65 6t-49 6l-35 -221h-116zM215 301h140q28 0 48 17.5t29 69.5q2 13 2 23t-2.5 18t-6 14t-8 10.5t-9.5 7t-10 4.5t-9 2.5t-7 0.5h-141z" />
<glyph horiz-adv-x="538" d="M70 13l13 83q163 -4 261 -4q46 0 53 42l8 50q4 18 0.5 27.5t-12 12.5t-27.5 3h-139q-143 0 -123 149l8 51q23 146 173 146q47 0 132 -6t135 -16l-13 -85q-149 6 -253 6q-50 0 -57 -52l-8 -42q-5 -30 5.5 -37.5t37.5 -7.5h143q71 0 98 -42t16 -108l-9 -56q-6 -42 -22 -70 t-39 -42t-46 -19.5t-52 -5.5q-62 0 -161 6t-122 17z" />
<glyph horiz-adv-x="518" d="M102 461l18 109h460l-18 -109h-172l-73 -461h-116l73 461h-172z" />
<glyph horiz-adv-x="603" d="M107 270l49 300h117l-49 -310q-4 -29 -5 -51t1 -38.5t8.5 -28t15 -19t22 -12t28 -6t34.5 -1.5q32 0 54 6t42 22.5t33 48t20 79.5l49 310h117l-49 -320q-10 -68 -31 -116t-45 -74.5t-59.5 -41.5t-65.5 -19t-72 -4q-27 0 -49.5 2t-46 7.5t-42 15t-35 23.5t-26.5 35 t-16.5 48.5t-6 64t7.5 79.5z" />
<glyph horiz-adv-x="604" d="M120 570h121l83 -418l214 418h127l-292 -570h-134z" />
<glyph horiz-adv-x="849" d="M120 570h120l67 -420l195 420h123l-82 -172l51 -248l195 420h122l-271 -570h-133l-45 220l-107 -220h-135z" />
<glyph horiz-adv-x="581" d="M30 0l233 290l-141 280h139l90 -188l144 188h147l-239 -291l141 -279h-133l-94 185l-143 -185h-144z" />
<glyph horiz-adv-x="579" d="M120 570h122l95 -249l173 249h130l-259 -376l-30 -195h-116l30 195z" />
<glyph horiz-adv-x="499" d="M30 0l17 109l346 352h-290l17 109h440l-17 -109l-338 -352h282l-17 -109h-440z" />
<glyph horiz-adv-x="250" d="M122 668h108l87 -137h-83z" />
<glyph horiz-adv-x="667" d="M498 0h49q-70 -48 -64 -86q6 -30 53 -28l-12 -70q-55 -11 -91.5 21t-22 81.5t87.5 81.5zM30 0l302 570h133l107 -570h-115l-27 129h-207l-66 -129h-127zM273 228h144l-39 197z" />
<glyph horiz-adv-x="540" d="M205 -248l6 38q10 -1 16.5 1.5t9.5 7t4 7.5t2 9l3 16h-10q-10 0 -15.5 5.5t-3.5 16.5l10 68q4 24 27 24h65q20 0 17 -24l-16 -100q-4 -27 -17.5 -43.5t-29.5 -22t-31.5 -7t-25.5 1.5zM51 0l90 570h264q31 0 57.5 -9.5t48.5 -30t33 -58t5 -88.5q-15 -148 -122 -164 l86 -220h-123l-74 209q-16 1 -65 6t-49 6l-35 -221h-116zM215 301h140q28 0 48 17.5t29 69.5q5 23 0 40.5t-15 25t-19 11t-16 3.5h-141z" />
<glyph horiz-adv-x="234" d="M59 680q37 32 68 50t62 18q26 -1 56 -17.5t44 -17.5q20 -1 54 12.5t46 23.5l15 -53q-2 -1 -16 -12t-18 -14t-16 -11.5t-19 -11.5t-17.5 -8t-20 -6.5t-18.5 -1.5q-28 0 -58 17t-47 17q-10 0 -20 -2t-17 -3.5t-17 -6t-14.5 -6.5t-16 -8.5t-15.5 -8.5zM70 0l90 570h116 l-90 -570h-116z" />
<glyph horiz-adv-x="499" d="M183 -262l6 39q8 -1 14 1t9 4t5 6t2.5 6.5t1.5 6.5l3 17h-10q-10 0 -15.5 5.5t-3.5 16.5l10 68q4 24 27 24h65q20 0 17 -24l-16 -100q-4 -27 -17.5 -44t-29.5 -22t-31.5 -6.5t-25.5 0.5zM85 107l73 463h116l-67 -420q-4 -28 6.5 -34.5t39.5 -6.5h235l-17 -109h-296 q-49 0 -73.5 27.5t-16.5 79.5z" />
<glyph horiz-adv-x="450" d="M134.5 581q3.5 23 22.5 39.5t42 16.5t36.5 -16t10 -39.5t-22 -40t-42 -16.5t-37 16.5t-10 39.5zM389.5 581q3.5 23 22.5 39.5t42 16.5t36.5 -16t10 -39.5t-22 -40t-42 -16.5t-37 16.5t-10 39.5z" />
<glyph horiz-adv-x="538" d="M238 766h81l49 -71l78 71h94l-132 -133h-90zM70 13l13 83q163 -4 261 -4q46 0 53 42l8 50q1 14 1 22t-5 13t-13 6.5t-22 1.5h-139q-143 0 -123 149l8 51q23 146 173 146q47 0 132 -6t135 -16l-13 -85q-149 6 -253 6q-50 0 -58 -52l-7 -42q-5 -30 5.5 -37.5t37.5 -7.5h143 q71 0 98 -42t16 -108l-9 -56q-6 -42 -22 -70t-39 -42t-46 -19.5t-52 -5.5q-62 0 -161 6t-122 17z" />
<glyph horiz-adv-x="513" d="M226 632l12 74h292l-12 -74h-292zM82 97l59 370q8 52 44 78t90 26q257 -8 289 -14l-15 -91h-260q-15 0 -22.5 -3.5t-10 -9.5t-4.5 -19l-16 -97l257 -8l-14 -89l-259 -7l-15 -97q-4 -20 4 -26t27 -6h256l-14 -91q-12 -2 -48.5 -4.5t-80.5 -4.5t-86 -3.5t-70 -1.5l-28 -1 q-45 1 -67.5 26.5t-15.5 72.5z" />
<glyph horiz-adv-x="570" d="M92 311q22 143 77 204.5t175 63.5q50 2 131.5 -5.5t122.5 -19.5l-13 -86q-114 13 -222 13q-52 0 -79 -14t-45 -54.5t-31 -124.5q-4 -25 -5.5 -46.5t0.5 -48.5t10.5 -46t27.5 -32.5t48 -13.5q45 0 87 15.5t56 33.5l14 85h-129l11 67q82 21 181 21q30 0 66 -3l-51 -320h-87 l-19 44q-69 -51 -171 -51q-41 0 -72.5 15.5t-48.5 38t-27.5 56t-13.5 62t-1.5 62.5t3.5 50.5t5 33.5zM239 -160l11 67q4 25 27 25h64q21 0 18 -25l-16 -99q-4 -27 -17.5 -44t-29.5 -22t-31.5 -6.5t-26.5 0.5l-10 2l6 39q12 -1 19.5 4t9 9t3.5 11l2 17h-10q-10 0 -15 5.5 t-4 16.5z" />
<glyph horiz-adv-x="490" d="M68 462l17 109h447l-17 -109h-168l-19 -124h93l-9 -61h-94l-44 -277h-116l44 277h-96l9 61h97l19 124h-163z" />
<glyph horiz-adv-x="499" d="M217 764h81l50 -72l77 72h95l-133 -134h-90zM30 0l17 109l346 352h-290l17 109h440l-17 -109l-338 -352h282l-17 -109h-440z" />
<glyph horiz-adv-x="376" d="M123 513l12 73h292l-12 -73h-292z" />
<glyph horiz-adv-x="285" d="M115 467.5q6 42.5 39.5 72t75.5 29.5t67.5 -30t19.5 -73q-5 -42 -38.5 -71t-75.5 -29t-68 29.5t-20 72zM169 467q-3 -19 9.5 -33t31.5 -14q20 0 35 13.5t18 33.5t-8.5 33.5t-31.5 13.5q-13 0 -24.5 -6.5t-19.5 -17t-10 -23.5z" />
<glyph horiz-adv-x="242" d="M101 531l118 137h113l-148 -137h-83z" />
<glyph horiz-adv-x="385" d="M150 684h78l51 -77l90 77h82l-134 -153h-92z" />
<glyph horiz-adv-x="599" d="M59 -3l91 573h113l195 -368l58 368h115l-89 -566l-10 -59q-14 -83 -75.5 -123t-160.5 -34l14 85q42 0 69.5 18t40.5 69l7 42l-192 365l-61 -370h-115z" />
<glyph horiz-adv-x="601" d="M261 630l12 74h292l-12 -74h-292zM30 0l302 570h133l107 -570h-115l-27 129h-207l-66 -129h-127zM273 228h144l-39 197z" />
<glyph horiz-adv-x="601" d="M367 630l118 136h112l-147 -136h-83zM30 0l302 570h133l107 -570h-115l-27 129h-207l-66 -129h-127zM273 228h144l-39 197z" />
<glyph horiz-adv-x="601" d="M257 630l132 134h92l79 -134h-82l-47 72l-79 -72h-95zM30 0l302 570h133l107 -570h-115l-27 129h-207l-66 -129h-127zM273 228h144l-39 197z" />
<glyph horiz-adv-x="601" d="M245 680q38 32 68.5 50t62.5 18q25 -1 55 -17.5t45 -17.5q13 0 35 6.5t40 15.5t25 14l14 -53q-2 -1 -15.5 -12t-17.5 -14t-16.5 -11.5t-19 -11.5t-17.5 -8t-20 -6.5t-19 -1.5q-27 0 -57.5 17t-47.5 17q-10 0 -20 -2t-17 -3.5t-17 -6t-14 -6.5t-16 -8.5t-16 -8.5zM30 0 l302 570h133l107 -570h-115l-27 129h-207l-66 -129h-127zM273 228h144l-39 197z" />
<glyph horiz-adv-x="601" d="M234.5 686q3.5 23 22.5 39.5t42 16.5t36.5 -16.5t10.5 -39.5q-2 -11 -8 -21.5t-14.5 -18t-19.5 -12t-23 -4.5q-23 0 -36.5 16.5t-10 39.5zM489.5 686q3.5 23 22.5 39.5t42 16.5t36.5 -16.5t10.5 -39.5q-2 -11 -8 -21.5t-14.5 -18t-19.5 -12t-23 -4.5q-23 0 -36.5 16.5 t-10 39.5zM30 0l302 570h133l107 -570h-115l-27 129h-207l-66 -129h-127zM273 228h144l-39 197z" />
<glyph horiz-adv-x="601" d="M305 666q2 17 8.5 32.5t16.5 28t23.5 22t29.5 14.5t32 5q43 0 70 -29.5t23 -72.5q-2 -28 -17.5 -51.5t-39.5 -36.5t-52 -13q-42 0 -70 29.5t-24 71.5zM359 666q0 -10 3 -18.5t8.5 -14.5t14 -10t18.5 -4q13 0 24 6.5t18.5 17t8.5 23.5q2 20 -10.5 34t-32 14t-35 -14 t-17.5 -34zM30 0l302 570h133l107 -570h-115l-27 129h-207l-66 -129h-127zM273 228h144l-39 197z" />
<glyph horiz-adv-x="769" d="M20 0l285 469q12 20 28 36t31.5 26.5t36.5 18t37 11t41 6t40 3t41 0.5q231 -8 262 -14l-14 -90h-234q-12 0 -18.5 -2t-10.5 -7t-6 -9.5t-4 -14.5l-16 -100l232 -7l-13 -89l-236 -8l-14 -94q-4 -21 4 -26.5t28 -5.5l231 -1l-15 -90q-18 -4 -88 -7.5t-131 -5.5l-60 -1 q-47 -2 -73 22.5t-19 71.5l8 55h-132l-90 -147h-131zM294 237h92l34 207z" />
<glyph horiz-adv-x="234" d="M104 0h50q-70 -48 -65 -86q6 -30 53 -28l-11 -70q-56 -11 -92.5 21t-22 81.5t87.5 81.5zM68 0l90 570h116l-90 -570h-116z" />
<glyph horiz-adv-x="516" d="M251 773h81l50 -72l77 72h95l-132 -133h-91zM94 317q10 63 26.5 108.5t46 81t76 53.5t110.5 18q53 0 117.5 -7.5t103.5 -20.5l-12 -84q-15 3 -87.5 8.5t-116.5 5.5q-72 0 -102.5 -44t-45.5 -141q-5 -31 -7.5 -50.5t-3 -45.5t5 -42t15.5 -31.5t30 -23t48 -8.5 q34 1 85.5 4.5t86.5 6.5l34 3l-13 -82q-99 -30 -230 -30q-46 0 -80 13t-53.5 37t-30.5 53.5t-13 68t0.5 73t9.5 76.5z" />
<glyph horiz-adv-x="513" d="M340 631l119 137h112l-148 -137h-83zM82 97l59 370q8 52 44 78t90 26q257 -8 289 -14l-15 -91h-260q-15 0 -22.5 -3.5t-10 -9.5t-4.5 -19l-16 -97l257 -8l-14 -89l-259 -7l-15 -97q-4 -20 4 -26t27 -6h256l-14 -91q-12 -2 -48.5 -4.5t-80.5 -4.5t-86 -3.5t-70 -1.5 l-28 -1q-45 1 -67.5 26.5t-15.5 72.5z" />
<glyph horiz-adv-x="513" d="M428 14h49q-69 -48 -64 -87q6 -30 53 -27l-12 -70q-55 -11 -91.5 21t-22 81.5t87.5 81.5zM82 97l59 370q8 52 44 78t90 26q257 -8 289 -14l-15 -91h-260q-15 0 -22.5 -3.5t-10 -9.5t-4.5 -19l-16 -97l257 -8l-14 -89l-259 -7l-15 -97q-4 -20 4 -26t27 -6h256l-14 -91 q-12 -2 -48.5 -4.5t-80.5 -4.5t-86 -3.5t-70 -1.5l-28 -1q-45 1 -67.5 26.5t-15.5 72.5z" />
<glyph horiz-adv-x="513" d="M199 682q3 23 22.5 39.5t42.5 16.5t36.5 -16.5t9.5 -39.5q-1 -11 -7 -21.5t-15 -18t-20 -12t-22 -4.5q-15 0 -26.5 7.5t-17 20.5t-3.5 28zM453.5 682q3.5 23 23 39.5t42.5 16.5t36.5 -16.5t9.5 -39.5q-1 -11 -7 -21.5t-15 -18t-20 -12t-22 -4.5q-23 0 -37 16.5 t-10.5 39.5zM82 97l59 370q8 52 44 78t90 26q257 -8 289 -14l-15 -91h-260q-15 0 -22.5 -3.5t-10 -9.5t-4.5 -19l-16 -97l257 -8l-14 -89l-259 -7l-15 -97q-4 -20 4 -26t27 -6h256l-14 -91q-12 -2 -48.5 -4.5t-80.5 -4.5t-86 -3.5t-70 -1.5l-28 -1q-45 1 -67.5 26.5 t-15.5 72.5z" />
<glyph horiz-adv-x="513" d="M323 655l11 68q4 25 28 25h64q11 0 16 -7t3 -18l-11 -68q-3 -23 -26 -23h-64q-11 0 -16.5 6t-4.5 17zM82 97l59 370q8 52 44 78t90 26q257 -8 289 -14l-15 -91h-260q-15 0 -22.5 -3.5t-10 -9.5t-4.5 -19l-16 -97l257 -8l-14 -89l-259 -7l-15 -97q-4 -20 4 -26t27 -6h256 l-14 -91q-12 -2 -48.5 -4.5t-80.5 -4.5t-86 -3.5t-70 -1.5l-28 -1q-45 1 -67.5 26.5t-15.5 72.5z" />
<glyph horiz-adv-x="234" d="M150 630l119 136h112l-148 -136h-83zM68 0l90 570h116l-90 -570h-116z" />
<glyph horiz-adv-x="234" d="M69 630l132 134h92l78 -134h-81l-48 72l-78 -72h-95zM68 0l90 570h116l-90 -570h-116z" />
<glyph horiz-adv-x="234" d="M75 630l12 74h292l-12 -74h-292zM68 0l90 570h116l-90 -570h-116z" />
<glyph horiz-adv-x="603" d="M58 260l10 60h71l39 252h242q52 -1 89.5 -19.5t57 -49.5t30.5 -70.5t9 -81.5t-7 -83q-8 -56 -23.5 -100t-31.5 -72t-39.5 -47.5t-40.5 -29t-43 -14t-39.5 -5t-36.5 -0.5h-12h-245l41 260h-71zM220 106h123q33 0 58.5 14t41.5 40t25 55.5t15 67.5q30 183 -83 183h-122 l-23 -146h80l-9 -60h-81z" />
<glyph horiz-adv-x="602" d="M223 -248l6 38q10 -1 16 1.5t9.5 7t4.5 7.5t2 9l2 16h-9q-10 0 -15.5 5.5t-3.5 16.5l10 68q4 24 27 24h65q20 0 17 -24l-16 -100q-4 -27 -17.5 -43.5t-29.5 -22t-31.5 -7t-26.5 1.5zM68 0l90 571h113l197 -373l59 373h115l-90 -571h-112l-196 374l-60 -374h-116z" />
<glyph horiz-adv-x="601" d="M246 635l12 73h292l-12 -73h-292zM90 289q12 72 30 123t41.5 83t58 49.5t72 24t90.5 6.5q38 0 66.5 -3t55.5 -11t45.5 -22t33.5 -36.5t21 -53.5t5.5 -74t-9.5 -97q-11 -73 -29.5 -123.5t-41.5 -82t-57.5 -48.5t-72 -23t-91.5 -6q-37 0 -65.5 3t-55 11.5t-45.5 22.5 t-33.5 36.5t-21 53t-6 72.5t8.5 95zM207 285q-8 -49 -8 -81t6 -52t22 -30.5t36 -14t53 -3.5q24 0 39.5 1.5t34.5 7t31.5 17.5t25 32t22 51t15.5 74q6 33 8 58t0 43.5t-5 31.5t-12 21.5t-17 13.5t-23.5 7.5t-27.5 3t-33 0.5q-20 0 -30.5 -0.5t-26.5 -2.5t-25 -7t-21.5 -13.5 t-20.5 -22t-16.5 -32t-15 -44.5t-11.5 -59z" />
<glyph horiz-adv-x="567" d="M210 -248l7 38q12 -1 19.5 4t9 9t2.5 12l3 16h-10q-10 0 -15.5 5.5t-3.5 16.5l11 68q4 24 26 24h65q21 0 17 -24l-15 -100q-5 -27 -18 -43.5t-29.5 -22t-32 -7t-25.5 1.5zM67 -1l90 571h112l-37 -240h61l202 240h133l-236 -298l149 -273h-131l-127 229h-68l-36 -229h-112 z" />
<glyph horiz-adv-x="601" d="M241 635l132 133h92l78 -133h-81l-48 72l-78 -72h-95zM90 289q12 72 30 123t41.5 83t58 49.5t72 24t90.5 6.5q38 0 66.5 -3t55.5 -11t45.5 -22t33.5 -36.5t21 -53.5t5.5 -74t-9.5 -97q-11 -73 -29.5 -123.5t-41.5 -82t-57.5 -48.5t-72 -23t-91.5 -6q-37 0 -65.5 3 t-55 11.5t-45.5 22.5t-33.5 36.5t-21 53t-6 72.5t8.5 95zM207 285q-8 -49 -8 -81t6 -52t22 -30.5t36 -14t53 -3.5q24 0 39.5 1.5t34.5 7t31.5 17.5t25 32t22 51t15.5 74q6 33 8 58t0 43.5t-5 31.5t-12 21.5t-17 13.5t-23.5 7.5t-27.5 3t-33 0.5q-20 0 -30.5 -0.5t-26.5 -2.5 t-25 -7t-21.5 -13.5t-20.5 -22t-16.5 -32t-15 -44.5t-11.5 -59z" />
<glyph horiz-adv-x="601" d="M229 685q37 32 68 50t62 18q26 -1 56 -17.5t44 -17.5q20 -1 54 12.5t46 23.5l15 -53q-3 -2 -13.5 -10.5t-15 -12t-15 -11t-16 -10.5t-15 -8t-17 -7.5t-16.5 -4t-17 -1.5q-27 0 -57.5 17t-47.5 17q-10 0 -20 -2t-17 -3.5t-17 -6t-14.5 -6.5t-16 -8.5t-15.5 -8.5zM90 289 q12 72 30 123t41.5 83t58 49.5t72 24t90.5 6.5q38 0 66.5 -3t55.5 -11t45.5 -22t33.5 -36.5t21 -53.5t5.5 -74t-9.5 -97q-11 -73 -29.5 -123.5t-41.5 -82t-57.5 -48.5t-72 -23t-91.5 -6q-37 0 -65.5 3t-55 11.5t-45.5 22.5t-33.5 36.5t-21 53t-6 72.5t8.5 95zM207 285 q-8 -49 -8 -81t6 -52t22 -30.5t36 -14t53 -3.5q24 0 39.5 1.5t34.5 7t31.5 17.5t25 32t22 51t15.5 74q6 33 8 58t0 43.5t-5 31.5t-12 21.5t-17 13.5t-23.5 7.5t-27.5 3t-33 0.5q-20 0 -30.5 -0.5t-26.5 -2.5t-25 -7t-21.5 -13.5t-20.5 -22t-16.5 -32t-15 -44.5t-11.5 -59z " />
<glyph horiz-adv-x="601" d="M218.5 691q3.5 23 22.5 39t42 16t36.5 -16t10 -39t-22.5 -39.5t-42 -16.5t-36.5 16.5t-10 39.5zM473.5 691q3.5 23 22.5 39t42 16t36.5 -16t10 -39t-22.5 -39.5t-42 -16.5t-36.5 16.5t-10 39.5zM90 289q12 72 30 123t41.5 83t58 49.5t72 24t90.5 6.5q38 0 66.5 -3 t55.5 -11t45.5 -22t33.5 -36.5t21 -53.5t5.5 -74t-9.5 -97q-11 -73 -29.5 -123.5t-41.5 -82t-57.5 -48.5t-72 -23t-91.5 -6q-37 0 -65.5 3t-55 11.5t-45.5 22.5t-33.5 36.5t-21 53t-6 72.5t8.5 95zM207 285q-8 -49 -8 -81t6 -52t22 -30.5t36 -14t53 -3.5q24 0 39.5 1.5 t34.5 7t31.5 17.5t25 32t22 51t15.5 74q6 33 8 58t0 43.5t-5 31.5t-12 21.5t-17 13.5t-23.5 7.5t-27.5 3t-33 0.5q-20 0 -30.5 -0.5t-26.5 -2.5t-25 -7t-21.5 -13.5t-20.5 -22t-16.5 -32t-15 -44.5t-11.5 -59z" />
<glyph horiz-adv-x="598" d="M52 0l64 73q-37 71 -13 214q15 90 38.5 147.5t61.5 88t82 41.5t111 11q98 0 142 -25l18 20h70l-48 -55q46 -67 20 -235q-12 -73 -30 -123.5t-41.5 -82.5t-58 -49.5t-72 -23.5t-92.5 -6q-107 0 -154 38l-29 -33h-69zM220 285q-10 -63 -5 -100l242 273q-16 8 -69 8h-26.5 t-23.5 -2t-23 -5t-20.5 -9t-19.5 -15t-16.5 -22.5t-15.5 -31.5t-12 -42t-11 -54zM233 125q21 -21 80 -21q25 0 41 1.5t35 7t31 17.5t24.5 32t21.5 51t16 74q14 86 4 124z" />
<glyph horiz-adv-x="573" d="M295 -2h49q-70 -48 -64 -86q6 -30 53 -28l-12 -70q-55 -11 -91.5 21t-22 81.5t87.5 81.5zM107 270l49 300h117l-49 -310q-8 -40 -5.5 -67.5t7.5 -45t21 -27t34.5 -13t46.5 -3.5q32 0 54 6t42 22.5t33 48t20 79.5l49 310h117l-49 -320q-10 -68 -31 -116t-45 -74.5 t-59.5 -41.5t-65.5 -19t-72 -4q-27 0 -49.5 2t-46 7.5t-42 15t-35 23.5t-26.5 35t-16.5 48.5t-6 64t7.5 79.5z" />
<glyph horiz-adv-x="603" d="M368 630l118 136h113l-148 -136h-83zM107 270l49 300h117l-49 -310q-8 -40 -5.5 -67.5t7.5 -45t21 -27t34.5 -13t46.5 -3.5q32 0 54 6t42 22.5t33 48t20 79.5l49 310h117l-49 -320q-10 -68 -31 -116t-45 -74.5t-59.5 -41.5t-65.5 -19t-72 -4q-27 0 -49.5 2t-46 7.5 t-42 15t-35 23.5t-26.5 35t-16.5 48.5t-6 64t7.5 79.5z" />
<glyph horiz-adv-x="603" d="M258 630l133 134h92l78 -134h-81l-48 72l-79 -72h-95zM107 270l49 300h117l-49 -310q-8 -40 -5.5 -67.5t7.5 -45t21 -27t34.5 -13t46.5 -3.5q32 0 54 6t42 22.5t33 48t20 79.5l49 310h117l-49 -320q-10 -68 -31 -116t-45 -74.5t-59.5 -41.5t-65.5 -19t-72 -4 q-27 0 -49.5 2t-46 7.5t-42 15t-35 23.5t-26.5 35t-16.5 48.5t-6 64t7.5 79.5z" />
<glyph horiz-adv-x="603" d="M235.5 686q3.5 23 22.5 39.5t42 16.5t36.5 -16.5t10 -39.5t-22 -39.5t-41.5 -16.5t-37 16.5t-10.5 39.5zM490.5 686q3.5 23 22.5 39.5t42 16.5t36.5 -16.5t10.5 -39.5q-2 -15 -11.5 -28t-23.5 -20.5t-29 -7.5q-23 0 -37 16.5t-10.5 39.5zM107 270l49 300h117l-49 -310 q-8 -40 -5.5 -67.5t7.5 -45t21 -27t34.5 -13t46.5 -3.5q32 0 54 6t42 22.5t33 48t20 79.5l49 310h117l-49 -320q-10 -68 -31 -116t-45 -74.5t-59.5 -41.5t-65.5 -19t-72 -4q-27 0 -49.5 2t-46 7.5t-42 15t-35 23.5t-26.5 35t-16.5 48.5t-6 64t7.5 79.5z" />
<glyph horiz-adv-x="603" d="M246 680q38 32 69 50t62 18q26 -1 55.5 -17.5t44.5 -17.5q13 0 35.5 6.5t40 15.5t24.5 14l14 -53q-1 -1 -15 -12t-18 -14t-16.5 -11.5t-19 -11.5t-17 -8t-20 -6.5t-19.5 -1.5q-27 0 -57.5 17t-47.5 17q-8 0 -16.5 -1t-16 -3t-13.5 -4t-14 -6t-12.5 -6.5l-13.5 -7.5 t-13 -7zM107 270l49 300h117l-49 -310q-8 -40 -5.5 -67.5t7.5 -45t21 -27t34.5 -13t46.5 -3.5q32 0 54 6t42 22.5t33 48t20 79.5l49 310h117l-49 -320q-10 -68 -31 -116t-45 -74.5t-59.5 -41.5t-65.5 -19t-72 -4q-27 0 -49.5 2t-46 7.5t-42 15t-35 23.5t-26.5 35t-16.5 48.5 t-6 64t7.5 79.5z" />
<glyph horiz-adv-x="603" d="M264 630l11 74h292l-11 -74h-292zM107 270l49 300h117l-49 -310q-8 -40 -5.5 -67.5t7.5 -45t21 -27t34.5 -13t46.5 -3.5q32 0 54 6t42 22.5t33 48t20 79.5l49 310h117l-49 -320q-10 -68 -31 -116t-45 -74.5t-59.5 -41.5t-65.5 -19t-72 -4q-27 0 -49.5 2t-46 7.5t-42 15 t-35 23.5t-26.5 35t-16.5 48.5t-6 64t7.5 79.5z" />
<glyph horiz-adv-x="1009" d="M55 13l13 83q162 -4 261 -4q46 0 52 42l9 50q4 27 -4 35t-35 8h-139q-143 0 -123 149l7 51q23 146 174 146q46 0 131.5 -6t135.5 -16l-14 -85q-148 6 -252 6q-50 0 -58 -52l-7 -42q-5 -30 5.5 -37.5t37.5 -7.5h143q71 0 97.5 -42t16.5 -108l-9 -56q-6 -42 -22 -70 t-39 -42t-46.5 -19.5t-51.5 -5.5q-62 0 -161 6t-122 17zM550 14l13 83q162 -5 261 -5q46 0 52 42l9 51q4 26 -4 34.5t-35 8.5h-139q-143 0 -123 148l7 52q23 145 174 145q47 0 132 -6t135 -15l-14 -85q-148 5 -252 5q-50 0 -58 -52l-7 -42q-5 -30 5.5 -37.5t37.5 -7.5h143 q71 0 97.5 -42t16.5 -108l-9 -56q-6 -41 -22 -69.5t-39 -42.5t-46.5 -19.5t-51.5 -5.5q-62 0 -161 6t-122 18z" />
<glyph horiz-adv-x="601" d="M255 766h107l88 -136h-83zM30 0l302 570h133l107 -570h-115l-27 129h-207l-66 -129h-127zM273 228h144l-39 197z" />
<glyph horiz-adv-x="516" d="M159 -178l8 51l49 15q21 9 29.5 25t13.5 48h84q-12 -78 -40 -108.5t-90 -30.5h-54zM94 317q10 63 26.5 108.5t46 81t76 53.5t110.5 18q53 0 117.5 -7.5t103.5 -20.5l-12 -84q-15 3 -87.5 8.5t-116.5 5.5q-72 0 -102.5 -44t-45.5 -141q-5 -31 -7.5 -50.5t-3 -45.5t5 -42 t15.5 -31.5t30 -23t48 -8.5q34 1 85.5 4.5t86.5 6.5l34 3l-13 -82q-99 -30 -230 -30q-46 0 -80 13t-53.5 37t-30.5 53.5t-13 68t0.5 73t9.5 76.5z" />
<glyph horiz-adv-x="610" d="M31 260l10 60h71l40 252h242q51 -1 89 -19.5t57 -49.5t30 -70.5t9 -81.5t-6 -83q-9 -56 -24.5 -100t-31.5 -72t-39 -47.5t-40.5 -29t-43.5 -14t-39 -5t-36 -0.5h-12h-246l41 260h-71zM194 106h122q34 0 59 14t41 40t25.5 55.5t15.5 67.5q29 183 -83 183h-122l-24 -146h80 l-9 -60h-81z" />
<glyph horiz-adv-x="513" d="M225 768h108l88 -137h-83zM82 97l59 370q8 52 44 78t90 26q257 -8 289 -14l-15 -91h-260q-15 0 -22.5 -3.5t-10 -9.5t-4.5 -19l-16 -97l257 -8l-14 -89l-259 -7l-15 -97q-4 -20 4 -26t27 -6h256l-14 -91q-12 -2 -48.5 -4.5t-80.5 -4.5t-86 -3.5t-70 -1.5l-28 -1 q-45 1 -67.5 26.5t-15.5 72.5z" />
<glyph horiz-adv-x="513" d="M225 631l132 133h92l78 -133h-81l-48 72l-79 -72h-94zM82 97l59 370q8 52 44 78t90 26q257 -8 289 -14l-15 -91h-260q-15 0 -22.5 -3.5t-10 -9.5t-4.5 -19l-16 -97l257 -8l-14 -89l-259 -7l-15 -97q-4 -20 4 -26t27 -6h256l-14 -91q-12 -2 -48.5 -4.5t-80.5 -4.5 t-86 -3.5t-70 -1.5l-28 -1q-45 1 -67.5 26.5t-15.5 72.5z" />
<glyph horiz-adv-x="234" d="M35 766h107l88 -136h-83zM68 0l90 570h116l-90 -570h-116z" />
<glyph horiz-adv-x="234" d="M6.5 686q3.5 23 22.5 39.5t42.5 16.5t37 -16.5t10 -39.5t-22.5 -39.5t-42 -16.5t-37 16.5t-10.5 39.5zM261.5 686q3.5 23 22.5 39.5t42.5 16.5t37 -16.5t10 -39.5t-22.5 -39.5t-42 -16.5t-37 16.5t-10.5 39.5zM60 0l90 570h116l-90 -570h-116z" />
<glyph horiz-adv-x="602" d="M235 681q38 32 68.5 50t62.5 18q25 -1 55 -17.5t45 -17.5q20 -1 54 12.5t46 23.5l14 -53q-2 -1 -15.5 -12t-17.5 -14t-16.5 -11.5t-19 -11.5t-17.5 -8t-20 -6.5t-19 -1.5q-27 0 -57.5 17t-47.5 17q-10 0 -20 -2t-17 -3.5t-17 -6t-14 -6.5t-16 -8.5t-16 -8.5zM68 0l90 571 h113l197 -373l59 373h115l-90 -571h-112l-196 374l-60 -374h-116z" />
<glyph horiz-adv-x="601" d="M237 772h107l88 -137h-83zM90 289q12 72 30 123t41.5 83t58 49.5t72 24t90.5 6.5q38 0 66.5 -3t55.5 -11t45.5 -22t33.5 -36.5t21 -53.5t5.5 -74t-9.5 -97q-11 -73 -29.5 -123.5t-41.5 -82t-57.5 -48.5t-72 -23t-91.5 -6q-37 0 -65.5 3t-55 11.5t-45.5 22.5t-33.5 36.5 t-21 53t-6 72.5t8.5 95zM207 285q-8 -49 -8 -81t6 -52t22 -30.5t36 -14t53 -3.5q24 0 39.5 1.5t34.5 7t31.5 17.5t25 32t22 51t15.5 74q6 33 8 58t0 43.5t-5 31.5t-12 21.5t-17 13.5t-23.5 7.5t-27.5 3t-33 0.5q-20 0 -30.5 -0.5t-26.5 -2.5t-25 -7t-21.5 -13.5t-20.5 -22 t-16.5 -32t-15 -44.5t-11.5 -59z" />
<glyph horiz-adv-x="601" d="M349 635l118 137h113l-148 -137h-83zM90 289q12 72 30 123t41.5 83t58 49.5t72 24t90.5 6.5q38 0 66.5 -3t55.5 -11t45.5 -22t33.5 -36.5t21 -53.5t5.5 -74t-9.5 -97q-11 -73 -29.5 -123.5t-41.5 -82t-57.5 -48.5t-72 -23t-91.5 -6q-37 0 -65.5 3t-55 11.5t-45.5 22.5 t-33.5 36.5t-21 53t-6 72.5t8.5 95zM207 285q-8 -49 -8 -81t6 -52t22 -30.5t36 -14t53 -3.5q24 0 39.5 1.5t34.5 7t31.5 17.5t25 32t22 51t15.5 74q6 33 8 58t0 43.5t-5 31.5t-12 21.5t-17 13.5t-23.5 7.5t-27.5 3t-33 0.5q-20 0 -30.5 -0.5t-26.5 -2.5t-25 -7t-21.5 -13.5 t-20.5 -22t-16.5 -32t-15 -44.5t-11.5 -59z" />
<glyph horiz-adv-x="603" d="M252 766h107l88 -136h-83zM107 270l49 300h117l-49 -310q-8 -40 -5.5 -67.5t7.5 -45t21 -27t34.5 -13t46.5 -3.5q32 0 54 6t42 22.5t33 48t20 79.5l49 310h117l-49 -320q-10 -68 -31 -116t-45 -74.5t-59.5 -41.5t-65.5 -19t-72 -4q-27 0 -49.5 2t-46 7.5t-42 15t-35 23.5 t-26.5 35t-16.5 48.5t-6 64t7.5 79.5z" />
<glyph horiz-adv-x="579" d="M345 630l118 136h113l-148 -136h-83zM120 570h122l95 -249l173 249h130l-259 -376l-30 -195h-116l30 195z" />
<glyph horiz-adv-x="521" d="M63 0l90 569h115l-15 -99h129q21 0 39.5 -4t38.5 -16t33.5 -31t20 -52.5t1.5 -77.5q-6 -50 -21 -85.5t-32 -54t-42 -29t-42.5 -12.5t-40.5 -2q-83 0 -139 16l-20 -122h-115zM212 212l115 -1q21 0 34 6.5t22.5 25t14.5 52.5q7 40 -4.5 56.5t-41.5 16.5h-115z" />
<glyph horiz-adv-x="249" d="M54 -105l8 48q14 0 23 7t11 12.5t4 14.5l3 23h-11q-12 0 -18.5 7t-4.5 20l13 78q5 29 31 29h75q27 0 22 -29l-20 -120q-5 -32 -21 -53t-35 -28t-37 -9.5t-31 -1.5z" />
<glyph horiz-adv-x="414" d="M117 361l18 121q4 23 13.5 40.5t22 27t26.5 15.5t27 7t24 1t17 -1l7 -1l-8 -48q-14 0 -23 -6.5t-11 -12t-4 -14.5l-4 -24h12q12 0 18.5 -6.5t4.5 -19.5l-13 -79q-4 -29 -31 -29h-76q-25 0 -20 29zM284 361l19 121q6 32 21.5 53t34.5 28t37.5 9.5t30.5 0.5l13 -2l-8 -48 q-15 0 -24 -6.5t-11 -12t-3 -14.5l-4 -24h12q12 0 18.5 -6.5t4.5 -19.5l-13 -79q-5 -29 -32 -29h-75q-25 0 -21 29z" />
<glyph horiz-adv-x="414" d="M117 335l8 48q11 0 19 3t11.5 9.5t5 10.5t2.5 10l4 23h-11q-12 0 -18.5 7t-4.5 20l13 79q4 29 30 29h76q26 0 21 -29l-19 -121q-5 -32 -21 -53t-35 -28t-37.5 -9.5t-30.5 -0.5zM285 335l8 48q7 0 13 1.5t10 4.5t6.5 6t4.5 7.5t2.5 7t1.5 6.5l4 23h-12q-12 0 -18.5 7 t-4.5 20l13 79q5 29 31 29h76q25 0 21 -29l-19 -121q-5 -32 -21 -53t-35.5 -28t-37.5 -9.5t-31 -0.5z" />
<glyph horiz-adv-x="413" d="M48 -104l8 48q15 0 24 6.5t11 12t3 14.5l4 23h-11q-12 0 -18.5 7t-4.5 20l13 79q4 28 31 28h75q26 0 21 -28l-19 -121q-5 -32 -21 -53t-35 -28t-37.5 -9.5t-30.5 -0.5zM216 -104l8 48q14 0 23 6.5t11 12t4 14.5l4 23h-12q-11 0 -18 7t-5 20l13 79q5 28 31 28h76 q25 0 21 -28l-19 -121q-5 -32 -21 -53t-35.5 -28t-37.5 -9.5t-31 -0.5z" />
<glyph horiz-adv-x="269" d="M74 0l70 392h100l-48 -392h-122zM146 469l12 78q3 23 26 23h76q10 0 16 -6.5t5 -16.5l-13 -78q-3 -25 -28 -25h-76q-10 0 -15 7t-3 18z" />
<glyph horiz-adv-x="413" d="M70 126l10 65h317l-11 -65h-316zM95 398q17 106 58 144.5t138 39.5q92 0 127.5 -43t19.5 -148q-16 -98 -57 -135.5t-142 -37.5q-90 0 -124.5 43t-19.5 137zM187 395q-4 -24 -4.5 -40.5t3 -27.5t8 -17t14.5 -9t18.5 -4t23.5 -1t23 0.5t19.5 3t18 9t14 17t12.5 28t9 41.5 q5 31 5 50.5t-2.5 31.5t-13 17.5t-21 7t-31.5 2.5q-24 0 -37 -3t-26 -13.5t-20 -32.5t-13 -60z" />
<glyph horiz-adv-x="411" d="M72 128l10 65h336l-10 -65h-336zM88 224l165 348h114l55 -348h-85l-13 81h-105l-39 -81h-92zM248 374h69l-17 113z" />
<glyph horiz-adv-x="517" d="M44 197l9 58l63 5l7 45l-60 6l8 54l62 7q3 20 6 33.5t10.5 36.5t17 39.5t27.5 35.5t40.5 31.5t56.5 20.5t75 8q31 0 95.5 -7t111.5 -16l-13 -90q-130 11 -193 11q-32 0 -54.5 -9t-34.5 -25.5t-18 -32t-10 -36.5l178 -6l-9 -56l-179 -5l-7 -45l177 -5l-9 -58 q-12 0 -30.5 -0.5t-58 -1.5t-65.5 -2t-26 -2q-6 -24 -1.5 -41t10.5 -27t19.5 -15.5t25.5 -7t28 -1.5q36 0 86.5 3.5t83.5 6.5l33 3l-14 -89q-86 -28 -219 -28q-26 0 -49 4t-49.5 17t-43.5 33.5t-25 57t-1 84.5z" />
<glyph horiz-adv-x="494" d="M79 107l73 463h116l-66 -420q-5 -28 5.5 -34.5t39.5 -6.5h235l-17 -109h-296q-49 0 -73.5 27.5t-16.5 79.5zM316 411l10 134l11 67h88l-11 -67l-31 -134h-67z" />
<glyph horiz-adv-x="538" d="M314 633l118 137h113l-148 -137h-83zM70 13l13 83q163 -4 261 -4q46 0 53 42l8 50q1 14 1 22t-5 13t-13 6.5t-22 1.5h-139q-143 0 -123 149l8 51q23 146 173 146q47 0 132 -6t135 -16l-13 -85q-149 6 -253 6q-50 0 -58 -52l-7 -42q-5 -30 5.5 -37.5t37.5 -7.5h143 q71 0 98 -42t16 -108l-9 -56q-6 -42 -22 -70t-39 -42t-46 -19.5t-52 -5.5q-62 0 -161 6t-122 17z" />
<glyph horiz-adv-x="538" d="M149 -174l9 51l49 15q21 9 29.5 25t13.5 48h84q-12 -78 -40 -108.5t-90 -30.5h-55zM70 13l13 83q163 -4 261 -4q46 0 53 42l8 50q1 14 1 22t-5 13t-13 6.5t-22 1.5h-139q-143 0 -123 149l8 51q23 146 173 146q47 0 132 -6t135 -16l-13 -85q-149 6 -253 6q-50 0 -58 -52 l-7 -42q-5 -30 5.5 -37.5t37.5 -7.5h143q71 0 98 -42t16 -108l-9 -56q-6 -42 -22 -70t-39 -42t-46 -19.5t-52 -5.5q-62 0 -161 6t-122 17z" />
<glyph horiz-adv-x="597" d="M299 773h81l50 -72l77 72h95l-133 -133h-90zM169 461l18 109h460l-18 -109h-172l-73 -461h-116l73 461h-172z" />
<glyph horiz-adv-x="499" d="M301 630l119 136h112l-148 -136h-83zM30 0l17 109l346 352h-290l17 109h440l-17 -109l-338 -352h282l-17 -109h-440z" />
<glyph horiz-adv-x="499" d="M297 653l12 68q3 25 28 25h64q10 0 15 -7t4 -18l-12 -68q-3 -23 -26 -23h-64q-10 0 -16 6.5t-5 16.5zM30 0l17 109l346 352h-290l17 109h440l-17 -109l-338 -352h282l-17 -109h-440z" />
<glyph horiz-adv-x="540" d="M314 630l119 137h112l-148 -137h-83zM51 0l90 570h264q31 0 57.5 -9.5t48.5 -30t33 -58t5 -88.5q-15 -148 -122 -164l86 -220h-123l-74 209q-16 1 -65 6t-49 6l-35 -221h-116zM215 301h140q28 0 48 17.5t29 69.5q5 23 0 40.5t-15 25t-19 11t-16 3.5h-141z" />
<glyph horiz-adv-x="601" d="M306 743h53q-3 -28 11 -44t40 -16q62 -1 71 60h53q-7 -56 -39.5 -84.5t-85.5 -28.5q-46 0 -77 31t-26 82zM30 0l302 570h133l107 -570h-115l-27 129h-207l-66 -129h-127zM273 228h144l-39 197z" />
<glyph horiz-adv-x="499" d="M184 630l118 136h113l-148 -136h-83zM85 107l73 463h116l-67 -420q-4 -28 6.5 -34.5t39.5 -6.5h235l-17 -109h-296q-49 0 -73.5 27.5t-16.5 79.5z" />
<glyph horiz-adv-x="516" d="M321 643l118 137h113l-148 -137h-83zM94 317q10 63 26.5 108.5t46 81t76 53.5t110.5 18q53 0 117.5 -7.5t103.5 -20.5l-12 -84q-15 3 -87.5 8.5t-116.5 5.5q-72 0 -102.5 -44t-45.5 -141q-5 -31 -7.5 -50.5t-3 -45.5t5 -42t15.5 -31.5t30 -23t48 -8.5q34 1 85.5 4.5 t86.5 6.5l34 3l-13 -82q-99 -30 -230 -30q-46 0 -80 13t-53.5 37t-30.5 53.5t-13 68t0.5 73t9.5 76.5z" />
<glyph horiz-adv-x="513" d="M251 764h81l49 -71l77 71h95l-132 -133h-91zM82 97l59 370q8 52 44 78t90 26q257 -8 289 -14l-15 -91h-260q-15 0 -22.5 -3.5t-10 -9.5t-4.5 -19l-16 -97l257 -8l-14 -89l-259 -7l-15 -97q-4 -20 4 -26t27 -6h256l-14 -91q-12 -2 -48.5 -4.5t-80.5 -4.5t-86 -3.5 t-70 -1.5l-28 -1q-45 1 -67.5 26.5t-15.5 72.5z" />
<glyph horiz-adv-x="594" d="M296 766h81l50 -72l77 72h95l-133 -134h-90zM109 0l91 572h260q51 -1 88 -20.5t56 -49.5t28 -71.5t8.5 -81t-6.5 -84.5q-8 -55 -23 -98.5t-31 -71t-39.5 -47t-41 -28.5t-44 -14t-40 -5.5t-36.5 -0.5h-9h-261zM242 106h135q34 0 59.5 14t41 40t25 55.5t15.5 67.5 q15 94 -8 138.5t-76 44.5h-135z" />
<glyph horiz-adv-x="602" d="M368 631l118 137h113l-148 -137h-83zM68 0l90 571h113l197 -373l59 373h115l-90 -571h-112l-196 374l-60 -374h-116z" />
<glyph horiz-adv-x="602" d="M280 764h81l49 -71l78 71h94l-132 -133h-90zM68 0l90 571h113l197 -373l59 373h115l-90 -571h-112l-196 374l-60 -374h-116z" />
<glyph horiz-adv-x="601" d="M277 635l118 137h112l-147 -137h-83zM425 635l118 137h113l-148 -137h-83zM90 289q12 72 30 123t41.5 83t58 49.5t72 24t90.5 6.5q38 0 66.5 -3t55.5 -11t45.5 -22t33.5 -36.5t21 -53.5t5.5 -74t-9.5 -97q-11 -73 -29.5 -123.5t-41.5 -82t-57.5 -48.5t-72 -23t-91.5 -6 q-37 0 -65.5 3t-55 11.5t-45.5 22.5t-33.5 36.5t-21 53t-6 72.5t8.5 95zM207 285q-8 -49 -8 -81t6 -52t22 -30.5t36 -14t53 -3.5q24 0 39.5 1.5t34.5 7t31.5 17.5t25 32t22 51t15.5 74q6 33 8 58t0 43.5t-5 31.5t-12 21.5t-17 13.5t-23.5 7.5t-27.5 3t-33 0.5 q-20 0 -30.5 -0.5t-26.5 -2.5t-25 -7t-21.5 -13.5t-20.5 -22t-16.5 -32t-15 -44.5t-11.5 -59z" />
<glyph horiz-adv-x="540" d="M222 764h81l50 -72l77 72h95l-133 -134h-90zM51 0l90 570h264q31 0 57.5 -9.5t48.5 -30t33 -58t5 -88.5q-15 -148 -122 -164l86 -220h-123l-74 209q-16 1 -65 6t-49 6l-35 -221h-116zM215 301h140q28 0 48 17.5t29 69.5q5 23 0 40.5t-15 25t-19 11t-16 3.5h-141z" />
<glyph horiz-adv-x="603" d="M324 731q4 43 36 72.5t74 29.5t69.5 -29.5t23.5 -72t-35.5 -72t-73.5 -29.5t-70 29.5t-24 71.5zM378 731.5q-2 -19.5 11 -33t32.5 -13.5t34.5 13.5t16.5 33t-10.5 33.5t-31.5 14t-35 -14t-17.5 -33.5zM107 270l49 300h117l-49 -310q-8 -40 -5.5 -67.5t7.5 -45t21 -27 t34.5 -13t46.5 -3.5q32 0 54 6t42 22.5t33 48t20 79.5l49 310h117l-49 -320q-10 -68 -31 -116t-45 -74.5t-59.5 -41.5t-65.5 -19t-72 -4q-27 0 -49.5 2t-46 7.5t-42 15t-35 23.5t-26.5 35t-16.5 48.5t-6 64t7.5 79.5z" />
<glyph horiz-adv-x="603" d="M294 630l118 136h113l-148 -136h-83zM442 630l118 136h113l-148 -136h-83zM107 270l49 300h117l-49 -310q-8 -40 -5.5 -67.5t7.5 -45t21 -27t34.5 -13t46.5 -3.5q32 0 54 6t42 22.5t33 48t20 79.5l49 310h117l-49 -320q-10 -68 -31 -116t-45 -74.5t-59.5 -41.5t-65.5 -19 t-72 -4q-27 0 -49.5 2t-46 7.5t-42 15t-35 23.5t-26.5 35t-16.5 48.5t-6 64t7.5 79.5z" />
<glyph horiz-adv-x="518" d="M116 -186l8 51l49 15q21 9 29.5 25t13.5 48h84q-12 -78 -40 -108.5t-90 -30.5h-54zM110 461l18 109h460l-18 -109h-172l-73 -461h-116l73 461h-172z" />
<glyph horiz-adv-x="504" d="M46 238l11 69l71 27l38 236h116l-30 -190l106 41l-11 -68l-106 -40l-25 -163q-5 -28 5.5 -34.5t39.5 -6.5h235l-17 -109h-296q-49 0 -73.5 27.5t-16.5 79.5l25 158z" />
<glyph horiz-adv-x="470" d="M73 168l4 34q12 79 67 117t132 25l4.5 24.5t3.5 25.5h97l-21 -137q-63 1 -103 0q-56 -3 -64 -55l-3 -28q-4 -33 9 -48t53 -15h207l-14 -93q-52 -8 -74 -11t-66 -6t-84 -1q-170 0 -148 168zM285 470l13 78q4 23 29 23h74q10 0 15.5 -6t4.5 -17l-13 -78q-3 -25 -28 -25h-74 q-25 0 -21 25z" />
<glyph horiz-adv-x="871" d="M77 289q7 46 16.5 82.5t22.5 65t27 50t32.5 37t38.5 25.5t45.5 15.5t51.5 8t59 2.5q41 0 70 -3t56.5 -13t45.5 -28q33 42 98 40q257 -8 288 -14l-14 -91h-261q-21 0 -27 -6.5t-10 -26.5l-15 -96l256 -8l-13 -89l-259 -7l-16 -98q-2 -13 2 -20.5t10.5 -9.5t18.5 -2h257 l-15 -90q-18 -4 -96.5 -7.5t-147.5 -5.5l-69 -2q-48 -1 -65 33q-54 -36 -169 -36q-37 0 -65.5 3t-55 11.5t-45.5 22.5t-33.5 36.5t-21 53t-6 72.5t8.5 95zM194 285q-8 -49 -8 -81t6 -52t22 -30.5t36 -14t53 -3.5q24 0 39.5 1.5t34.5 7t31.5 17.5t25.5 32t22 51t16 74 q5 33 7 58t0 43.5t-5 31.5t-12 21.5t-16.5 13.5t-23.5 7.5t-28 3t-33 0.5q-20 0 -30 -0.5t-26.5 -2.5t-25.5 -7t-21.5 -13.5t-20 -22t-16.5 -32t-15.5 -44.5t-11.5 -59z" />
<glyph horiz-adv-x="579" d="M215.5 686q3.5 23 22.5 39.5t42 16.5t36.5 -16.5t10.5 -39.5q-2 -11 -8 -21.5t-14.5 -18t-19.5 -12t-23 -4.5q-23 0 -36.5 16.5t-10 39.5zM470.5 686q3.5 23 22.5 39.5t42 16.5t36.5 -16.5t10.5 -39.5q-2 -9 -6 -17.5t-10 -15.5t-14 -12t-16.5 -8t-18.5 -3 q-23 0 -36.5 16.5t-10 39.5zM120 570h122l95 -249l173 249h130l-259 -376l-30 -195h-116l30 195z" />
<glyph horiz-adv-x="514" d="M42 0l13 80l59 20l23 140h-56l9 62l60 16l10 62q30 191 229 191q18 0 61 -3.5t77 -6.5l34 -3l-14 -94h-161q-55 0 -80 -22t-31 -64l-10 -56l195 -15l-11 -69h-197l-21 -134h258l-17 -104h-430z" />
<glyph horiz-adv-x="532" d="M98 108l9 61h127l4 27h-126l9 62h107l-121 313h125l81 -226l156 226h137l-224 -313h117l-9 -62h-136l-4 -27h135l-9 -61h-136l-17 -108h-116l17 108h-126z" />
<glyph horiz-adv-x="1310" d="M81 364l14 93q10 67 43 98t110 31h71q68 0 94.5 -31t16.5 -98l-15 -93q-10 -70 -43.5 -99.5t-108.5 -29.5h-72q-63 0 -91.5 33t-18.5 96zM168 374q-4 -30 5 -41.5t40 -11.5h55q34 0 46.5 11.5t16.5 41.5l11 73q4 21 1 32.5t-13 16t-33 4.5h-54q-34 0 -46.5 -11t-17.5 -42 zM248 0l405 570h90l-403 -570h-92zM567 130l14 94q7 44 21.5 71t46.5 42t85 15h71q46 0 72.5 -13.5t35.5 -42t2 -72.5l-14 -94q-10 -69 -43.5 -98.5t-109.5 -29.5h-71q-63 0 -91.5 32.5t-18.5 95.5zM654 141q-4 -31 5 -42t40 -11h54q35 0 47.5 11t16.5 42l11 72q4 21 1 33 t-12.5 16t-33.5 4h-54q-34 0 -46.5 -11t-17.5 -42zM963 130l14 94q10 67 43 97.5t109 30.5h72q68 0 94.5 -31t15.5 -97l-14 -94q-7 -46 -23 -73.5t-47 -41t-83 -13.5h-72q-62 0 -90 32.5t-19 95.5zM1050 141q-2 -15 -1.5 -25t6 -16.5t15 -9t25.5 -2.5h54q34 0 47 11t17 42 l11 72q5 33 -3.5 43t-42.5 10h-54q-33 0 -45.5 -10.5t-17.5 -42.5z" />
<glyph horiz-adv-x="387" d="M126 531l133 133h92l78 -133h-84l-48 70l-77 -70h-94z" />
<glyph horiz-adv-x="426" d="M134 581q2 2 14 12.5t15.5 13t14.5 11t16 11.5t15.5 8.5t17.5 7.5t17 4t20 2q23 0 52 -17.5t48 -17.5q18 0 38.5 7t31 13.5t30.5 19.5l15 -53q-2 -2 -6 -5q-12 -12 -19 -18.5t-21 -17t-25 -16.5t-25.5 -10.5t-28.5 -4.5q-23 0 -55.5 17.5t-51.5 17.5q-13 0 -27 -3.5 t-22 -7t-24.5 -12t-24.5 -12.5z" />
<glyph horiz-adv-x="285" d="M141 632q6 43 39.5 73t75.5 30t67.5 -30t19.5 -73q-3 -28 -20 -51.5t-42 -37.5t-52 -14q-42 0 -68 30t-20 73zM195 632.5q-3 -19.5 9.5 -33.5t31.5 -14q20 0 35 13.5t18 33.5t-8.5 33.5t-31 13.5t-35.5 -13.5t-19 -33z" />
<glyph horiz-adv-x="618" d="M74 -1l65 403h-51l8 58h51l17 110h116l-17 -110h229l18 110h116l-18 -110h47l-8 -58h-47l-64 -403h-116l35 222h-229l-36 -222h-116zM243 330h229l12 72h-229z" />
<glyph horiz-adv-x="590" d="M252 630l133 134h92l78 -134h-81l-48 72l-79 -72h-95zM67 -1l90 571h116l-38 -240h241l38 240h116l-90 -571h-116l35 221h-241l-35 -221h-116z" />
<glyph horiz-adv-x="570" d="M291 753h53q-3 -28 11 -44.5t40 -16.5q62 -1 71 61h53q-7 -56 -39 -84.5t-86 -28.5q-46 0 -76.5 30.5t-26.5 82.5zM92 311q22 143 77 204.5t175 63.5q50 2 131.5 -5.5t122.5 -19.5l-13 -86q-114 12 -222 12q-39 0 -62 -6.5t-42 -27.5t-30 -58t-21 -100q-30 -187 81 -187 q45 0 87 15.5t56 33.5l14 85h-129l11 67q82 21 181 21q30 0 66 -3l-51 -320h-87l-19 44q-69 -51 -171 -51q-41 0 -72.5 15.5t-48.5 38t-27.5 56t-13.5 62t-1.5 62.5t3.5 50.5t5 33.5z" />
<glyph horiz-adv-x="334" d="M168 630l132 134h92l78 -134h-81l-48 72l-78 -72h-95zM33 21l17 89q35 -4 60.5 -3.5t43 9.5t28.5 27.5t17 49.5l60 377h116l-64 -405q-18 -116 -86 -149q-51 -22 -104.5 -20t-87.5 25z" />
<glyph horiz-adv-x="516" d="M327 666l11 68q3 25 28 25h64q11 0 15.5 -7t3.5 -18l-11 -68q-3 -23 -26 -23h-64q-11 0 -17 6.5t-4 16.5zM94 317q10 63 26.5 108.5t46 81t76 53.5t110.5 18q53 0 117.5 -7.5t103.5 -20.5l-12 -84q-15 3 -87.5 8.5t-116.5 5.5q-72 0 -102.5 -44t-45.5 -141 q-5 -31 -7.5 -50.5t-3 -45.5t5 -42t15.5 -31.5t30 -23t48 -8.5q34 1 85.5 4.5t86.5 6.5l34 3l-13 -82q-99 -30 -230 -30q-46 0 -80 13t-53.5 37t-30.5 53.5t-13 68t0.5 73t9.5 76.5z" />
<glyph horiz-adv-x="516" d="M227 643l133 133h92l78 -133h-81l-48 72l-79 -72h-95zM94 317q10 63 26.5 108.5t46 81t76 53.5t110.5 18q53 0 117.5 -7.5t103.5 -20.5l-12 -84q-15 3 -87.5 8.5t-116.5 5.5q-72 0 -102.5 -44t-45.5 -141q-5 -31 -7.5 -50.5t-3 -45.5t5 -42t15.5 -31.5t30 -23t48 -8.5 q34 1 85.5 4.5t86.5 6.5l34 3l-13 -82q-99 -30 -230 -30q-46 0 -80 13t-53.5 37t-30.5 53.5t-13 68t0.5 73t9.5 76.5z" />
<glyph horiz-adv-x="570" d="M344 663l11 68q3 25 28 25h64q11 0 16 -7t3 -18l-11 -68q-3 -23 -26 -23h-64q-11 0 -17 6t-4 17zM92 311q22 143 77 204.5t175 63.5q50 2 131.5 -5.5t122.5 -19.5l-13 -86q-114 12 -222 12q-39 0 -62 -6.5t-42 -27.5t-30 -58t-21 -100q-30 -187 81 -187q45 0 87 15.5 t56 33.5l14 85h-129l11 67q82 21 181 21q30 0 66 -3l-51 -320h-87l-19 44q-69 -51 -171 -51q-41 0 -72.5 15.5t-48.5 38t-27.5 56t-13.5 62t-1.5 62.5t3.5 50.5t5 33.5z" />
<glyph horiz-adv-x="570" d="M238 640l132 133h92l78 -133h-81l-48 72l-78 -72h-95zM92 311q22 143 77 204.5t175 63.5q50 2 131.5 -5.5t122.5 -19.5l-13 -86q-114 12 -222 12q-39 0 -62 -6.5t-42 -27.5t-30 -58t-21 -100q-30 -187 81 -187q45 0 87 15.5t56 33.5l14 85h-129l11 67q82 21 181 21 q30 0 66 -3l-51 -320h-87l-19 44q-69 -51 -171 -51q-41 0 -72.5 15.5t-48.5 38t-27.5 56t-13.5 62t-1.5 62.5t3.5 50.5t5 33.5z" />
<glyph horiz-adv-x="603" d="M310 743h54q-4 -28 10.5 -44t39.5 -16q63 -1 71 60h53q-4 -37 -20.5 -62.5t-42.5 -38t-61 -12.5q-30 0 -54.5 13t-38.5 39.5t-11 60.5zM107 270l49 300h117l-49 -310q-8 -40 -5.5 -67.5t7.5 -45t21 -27t34.5 -13t46.5 -3.5q32 0 54 6t42 22.5t33 48t20 79.5l49 310h117 l-49 -320q-10 -68 -31 -116t-45 -74.5t-59.5 -41.5t-65.5 -19t-72 -4q-27 0 -49.5 2t-46 7.5t-42 15t-35 23.5t-26.5 35t-16.5 48.5t-6 64t7.5 79.5z" />
<glyph horiz-adv-x="538" d="M208 633l133 133h92l78 -133h-81l-48 72l-79 -72h-95zM70 13l13 83q163 -4 261 -4q46 0 53 42l8 50q1 14 1 22t-5 13t-13 6.5t-22 1.5h-139q-143 0 -123 149l8 51q23 146 173 146q47 0 132 -6t135 -16l-13 -85q-149 6 -253 6q-50 0 -58 -52l-7 -42q-5 -30 5.5 -37.5 t37.5 -7.5h143q71 0 98 -42t16 -108l-9 -56q-6 -42 -22 -70t-39 -42t-46 -19.5t-52 -5.5q-62 0 -161 6t-122 17z" />
<glyph horiz-adv-x="232" d="M49 0l90 570h116l-90 -570h-116zM154 648l11 68q3 25 28 25h64q11 0 15.5 -7t3.5 -18l-11 -68q-3 -23 -26 -23h-64q-11 0 -17 6.5t-4 16.5z" />
<glyph horiz-adv-x="265" d="M115 254l12 78q3 25 28 25h74q26 0 21 -25l-12 -78q-4 -23 -28 -23h-74q-11 0 -17 6t-4 17z" />
<glyph horiz-adv-x="308" d="M115 271l16 104q2 16 12.5 25.5t26.5 9.5h98q34 0 29 -35l-16 -104q-5 -32 -41 -32h-98q-15 0 -22 8.5t-5 23.5z" />
<glyph horiz-adv-x="259" d="M123 364l19 120q5 32 21 53t35 28t37 9.5t31 0.5l12 -2l-7 -48q-33 1 -39 -33l-3 -24h12q11 0 17.5 -6.5t4.5 -19.5l-12 -78q-5 -29 -32 -29h-75q-26 0 -21 29z" />
<glyph horiz-adv-x="259" d="M124 337l7 49q15 -1 24 6t11 12.5t3 14.5l4 22h-12q-11 0 -17.5 7t-4.5 20l13 79q4 29 31 29h75q26 0 21 -29l-19 -121q-5 -32 -21 -52.5t-35 -28t-37.5 -10t-30.5 -0.5z" />
<glyph horiz-adv-x="547" d="M314 654l11 68q3 25 28 25h64q11 0 15.5 -7t3.5 -18l-11 -68q-3 -23 -26 -23h-64q-11 0 -17 6.5t-4 16.5zM68 0l90 571h263q88 0 125.5 -44t26.5 -113q-18 -111 -93 -123q32 -7 48.5 -43.5t7.5 -92.5q-13 -82 -60 -118.5t-141 -36.5h-267zM200 103h145q16 0 30.5 5t28 22 t16.5 44q3 24 0 39.5t-15.5 25.5t-36.5 10q-121 -1 -145 0zM238 341h145q36 0 51 15t21 52q6 36 -7.5 48.5t-44.5 12.5h-145z" />
<glyph horiz-adv-x="591" d="M320 655l11 68q4 25 28 25h64q11 0 16 -7t3 -18l-11 -68q-3 -23 -26 -23h-64q-11 0 -16.5 6.5t-4.5 16.5zM68 0l91 572h259q44 0 77 -13.5t52.5 -37t32 -52.5t16 -65t3 -69t-5.5 -70q-8 -55 -23 -98.5t-31 -71t-39.5 -47t-41.5 -28.5t-44.5 -14t-39.5 -5.5t-36 -0.5h-9 h-261zM201 106h135q34 0 59 14t41 40t25.5 55.5t15.5 67.5q15 94 -8 138.5t-76 44.5h-135z" />
<glyph horiz-adv-x="514" d="M321 655l11 68q4 25 28 25h64q11 0 16 -7t3 -18l-11 -68q-3 -23 -26 -23h-64q-10 0 -16 6t-5 17zM68 0l74 467q8 52 43.5 78t90.5 26q257 -8 289 -14l-15 -91h-260q-15 0 -22.5 -4t-10 -9.5t-5.5 -18.5l-16 -106l256 -8l-13 -89l-260 -7l-35 -224h-116z" />
<glyph horiz-adv-x="753" d="M425 654l11 68q4 25 28 25h64q11 0 16 -7t3 -18l-11 -68q-3 -23 -26 -23h-64q-10 0 -16 6.5t-5 16.5zM47 0l144 571h148l65 -401l190 401h150l-36 -571h-114l24 389l-180 -389h-112l-65 389l-100 -389h-114z" />
<glyph horiz-adv-x="849" d="M372 766h108l87 -136h-83zM120 570h120l67 -420l195 420h122l-81 -172l51 -248l195 420h122l-271 -570h-133l-45 220l-107 -220h-135z" />
<glyph horiz-adv-x="527" d="M298 652l11 68q3 25 28 25h64q11 0 15.5 -7t3.5 -18l-11 -68q-3 -23 -26 -23h-64q-11 0 -17 6.5t-4 16.5zM51 0l90 569h274q71 0 110 -42.5t29 -136.5q-3 -27 -8 -49.5t-12.5 -39.5t-16 -30.5t-20 -23.5t-21 -17t-23 -11.5t-23 -7t-23.5 -4t-22 -1.5h-20q-10 -1 -86.5 5 t-76.5 7l-34 -218h-117zM215 300h146q29 0 48 16.5t27 68.5q8 40 -6.5 61t-42.5 21h-146z" />
<glyph horiz-adv-x="849" d="M488 630l119 136h112l-148 -136h-83zM120 570h120l67 -420l195 420h122l-81 -172l51 -248l195 420h122l-271 -570h-133l-45 220l-107 -220h-135z" />
<glyph horiz-adv-x="579" d="M233 766h107l88 -136h-83zM120 570h122l95 -249l173 249h130l-259 -376l-30 -195h-116l30 195z" />
<glyph horiz-adv-x="849" d="M350.5 686q3.5 23 23 39.5t42.5 16.5t36.5 -16.5t9.5 -39.5q-1 -11 -7 -21.5t-14.5 -18t-20 -12t-22.5 -4.5q-23 0 -37 16.5t-10.5 39.5zM605.5 686q3.5 23 23 39.5t42.5 16.5t36.5 -16.5t9.5 -39.5q-1 -11 -7 -21.5t-14.5 -18t-20 -12t-22.5 -4.5q-23 0 -37 16.5 t-10.5 39.5zM120 570h120l67 -420l195 420h122l-81 -172l51 -248l195 420h122l-271 -570h-133l-45 220l-107 -220h-135z" />
<glyph horiz-adv-x="538" d="M307 656l11 68q3 25 28 25h64q11 0 16 -7t3 -18l-11 -68q-3 -23 -26 -23h-64q-11 0 -17 6.5t-4 16.5zM70 13l13 83q163 -4 261 -4q46 0 53 42l8 50q1 14 1 22t-5 13t-13 6.5t-22 1.5h-139q-143 0 -123 149l8 51q23 146 173 146q47 0 132 -6t135 -16l-13 -85 q-149 6 -253 6q-50 0 -58 -52l-7 -42q-5 -30 5.5 -37.5t37.5 -7.5h143q71 0 98 -42t16 -108l-9 -56q-6 -42 -22 -70t-39 -42t-46 -19.5t-52 -5.5q-62 0 -161 6t-122 17z" />
<glyph horiz-adv-x="849" d="M374 630l132 134h92l78 -134h-81l-48 72l-78 -72h-95zM120 570h120l67 -420l195 420h122l-81 -172l51 -248l195 420h122l-271 -570h-133l-45 220l-107 -220h-135z" />
<glyph horiz-adv-x="518" d="M303 653l11 68q4 25 28 25h64q11 0 16 -7t3 -18l-11 -68q-3 -23 -26 -23h-64q-10 0 -16 6.5t-5 16.5zM102 461l18 109h460l-18 -109h-172l-73 -461h-116l73 461h-172z" />
<glyph horiz-adv-x="579" d="M239 630l132 134h92l78 -134h-81l-48 72l-79 -72h-94zM120 570h122l95 -249l173 249h130l-259 -376l-30 -195h-116l30 195z" />
<glyph horiz-adv-x="973" d="M75 276q11 66 27.5 113.5t35.5 75.5t45 44.5t51.5 22t58.5 5.5q44 0 113.5 -8.5t120.5 -22.5l-12 -74q-110 7 -199 7q-14 0 -22.5 -1t-19.5 -3t-18.5 -7.5t-16 -14t-14.5 -21.5t-12.5 -31t-11.5 -42.5t-10 -55.5q-4 -36 -5.5 -62t5.5 -45t15.5 -31t24.5 -19t31.5 -10 t37.5 -4q87 -3 264 102l93 588h116l-80 -507q87 61 151 133t72 123h125q-13 -46 -48 -99.5t-75.5 -97.5t-79.5 -74l171 -260h-132l-130 188q-4 -2 -21 -14t-34 -23t-21 -13l-22 -138h-116l12 73q-149 -78 -246 -78q-38 0 -69.5 5.5t-61 18t-49 33.5t-34 52t-16 73.5 t5.5 98.5z" />
<glyph horiz-adv-x="698" d="M68 0l97 626q6 42 33 70.5t62.5 36t70 2.5t60 -29t28.5 -60l107 -526q2 -15 12 -13.5t13 16.5l97 609h116l-97 -626q-5 -35 -25.5 -60.5t-47 -38t-57.5 -13.5t-57 10t-45 37t-23 62l-104 520q-2 13 -15 8q-9 -4 -11 -15l-98 -616h-116z" />
<glyph horiz-adv-x="837" d="M47 0l136 634q7 37 34 63t61.5 33t68 1t56 -32.5t22.5 -67.5l25 -337q1 -13 12 -12.5t15 12.5l124 352q11 37 41.5 60.5t66 27.5t68.5 -3.5t53.5 -33.5t17.5 -62l-55 -635h-118l55 594q2 13 -10 14q-13 -1 -17 -11l-126 -345q-10 -31 -37 -52.5t-60 -26.5t-64 1 t-52.5 30.5t-22.5 60.5l-26 332q0 8 -6 11t-12.5 -1t-8.5 -14l-126 -593h-115z" />
<glyph horiz-adv-x="837" d="M465 823l11 68q4 25 28 25h64q11 0 16 -7t3 -18l-11 -68q-3 -23 -26 -23h-64q-10 0 -16 6.5t-5 16.5zM47 0l136 634q7 37 34 63t61.5 33t68 1t56 -32.5t23.5 -67.5l24 -337q1 -13 12 -12.5t15 12.5l124 352q11 37 41.5 60.5t66 27.5t68.5 -3.5t53.5 -33.5t17.5 -62 l-55 -635h-118l55 594q2 13 -10 14q-13 -1 -17 -11l-125 -345q-11 -31 -38 -52.5t-60 -26.5t-64 1t-52.5 30.5t-22.5 60.5l-26 332q0 8 -6 11t-12.5 -1t-8.5 -14l-126 -593h-115z" />
</font>
</defs>
</svg>
