<?xml version="1.0" standalone="no"?>
<!DOCTYPE svg PUBLIC "-//W3C//DTD SVG 1.1//EN" "http://www.w3.org/Graphics/SVG/1.1/DTD/svg11.dtd" >
<svg xmlns="http://www.w3.org/2000/svg">
<metadata></metadata>
<defs>
<font id="exolight" horiz-adv-x="546" >
<font-face units-per-em="1000" ascent="800" descent="-200" />
<missing-glyph horiz-adv-x="260" />
<glyph unicode="fi" horiz-adv-x="603" d="M22 472v43l98 14v55q0 90 51 146t140 56q21 0 54.5 -4t68.5 -10.5t62 -14.5v-37l-172 10q-62 3 -104.5 -31.5t-42.5 -114.5v-55l365 -9v-520h-58v472h-307v-472h-57v472h-98z" />
<glyph unicode="fl" horiz-adv-x="718" d="M22 474v42l99 15v53q0 42 9 77.5t27.5 64t51 44.5t75.5 16h259v-596q0 -32 4 -55t9 -36.5t15.5 -22t18.5 -12t22 -6.5q77 -18 84 -18v-39h-81q-69 0 -99 43.5t-30 145.5v540h-189q-58 0 -88.5 -32.5t-30.5 -113.5v-53h146v-57h-147v-474h-57v474h-98z" />
<glyph unicode="&#xd;" horiz-adv-x="969" />
<glyph unicode=" "  horiz-adv-x="260" />
<glyph unicode="&#x09;" horiz-adv-x="260" />
<glyph unicode="&#xa0;" horiz-adv-x="260" />
<glyph unicode="!" horiz-adv-x="265" d="M92 19v59q0 21 20 21h40q19 0 19 -21v-59q0 -19 -19 -19h-40q-9 0 -14.5 5.5t-5.5 13.5zM98 731h66l-6 -535h-54z" />
<glyph unicode="&#x22;" horiz-adv-x="339" d="M80 665v67h58v-67l-9 -134h-40zM203 665v67h58v-67l-9 -134h-40z" />
<glyph unicode="#" horiz-adv-x="675" d="M22 238l6 39h166l28 178h-166l7 39h165l38 238h39l-38 -238h172l38 238h38l-37 -238h177l-7 -39h-177l-28 -179h177l-6 -39h-177l-38 -237h-38l37 237l-172 1l-38 -238h-38l37 238h-165zM233 277l171 -1l28 179h-171z" />
<glyph unicode="$" horiz-adv-x="578" d="M61 494v66q1 53 15.5 88.5t42 54.5t60.5 27t78 8v86h45v-88q40 -3 186 -20v-43l-230 9q-69 2 -104.5 -23t-35.5 -99v-66q0 -60 32 -83t87 -23h121q49 0 82 -13.5t49 -38.5t22 -51t6 -61v-68q0 -173 -215 -164v-81h-45v85q-123 10 -174 18v41q182 -6 234 -6q143 0 143 107 v68q0 35 -9 57.5t-32 35.5t-61 13h-120q-43 0 -75.5 10t-51.5 25.5t-30.5 38t-15.5 44t-4 46.5z" />
<glyph unicode="%" horiz-adv-x="954" d="M47 474v133q0 66 28 95.5t101 29.5h101q71 0 99 -29.5t28 -95.5v-133q0 -66 -28 -95.5t-101 -29.5h-101q-71 0 -99 29.5t-28 95.5zM95 474q0 -45 17.5 -61t61.5 -16h101q48 0 64.5 16t16.5 61v133q0 30 -7.5 46.5t-24 23.5t-47.5 7h-101q-33 0 -50 -7t-24 -23t-7 -47 v-133zM232 0l438 732h54l-438 -732h-54zM551 127v133q0 67 28 96t101 29h101q71 0 99 -29.5t28 -95.5v-133q0 -66 -28 -95.5t-101 -29.5h-101q-71 0 -99 29.5t-28 95.5zM599 127q0 -45 17.5 -61t61.5 -16h101q48 0 64.5 16t16.5 61v133q0 30 -7.5 46.5t-24 23.5t-47.5 7 h-101q-49 0 -65 -15.5t-16 -61.5v-133z" />
<glyph unicode="&#x26;" horiz-adv-x="642" d="M82 82q-54 74 -42.5 150.5t78.5 133.5l86 73l-63 85q-38 54 -32.5 98t35 72.5t67.5 33.5q115 15 266 -13v-38h-203q-47 0 -75 -14t-32 -45t33 -80l254 -343l127 129l19 -19l-58 -99l-53 -55l109 -151h-69l-82 111l-72 -67q-40 -37 -94 -46.5t-108 12.5t-91 72zM130 114 q38 -49 97 -60.5t107 29.5l78 73l-175 236l-78 -65q-41 -34 -56 -71t-7.5 -72t34.5 -70z" />
<glyph unicode="'" horiz-adv-x="160" d="M51 665v67h58v-67l-8 -134h-40z" />
<glyph unicode="(" horiz-adv-x="328" d="M84 326q0 56 8.5 115.5t22.5 110.5t31 99t34 85t31 65.5t23 43.5l9 15h62q-6 -11 -17 -30t-39.5 -79t-50.5 -120t-39.5 -144.5t-17.5 -160.5q0 -84 17 -170t41 -149t48.5 -114t41.5 -77l17 -26h-63q-7 9 -17.5 25.5t-38 71.5t-48.5 114t-38 148t-17 177z" />
<glyph unicode=")" horiz-adv-x="327" d="M22 -210q7 10 18 27.5t39.5 74.5t50 116t39.5 146.5t18 171.5q0 76 -17 159t-41 147t-48.5 117.5t-41.5 81.5l-17 29h63q6 -11 17 -30t38.5 -78.5t48.5 -119.5t38 -144.5t17 -161.5q0 -88 -16.5 -176t-39.5 -150t-46.5 -111.5t-40.5 -73.5l-16 -25h-63z" />
<glyph unicode="*" horiz-adv-x="449" d="M56 575v31l140 20l3 -56zM128 412l27 135l57 -13l-55 -131zM186 719l30 12l73 -120l-53 -24zM219 482l31 49l112 -88l-16 -25zM262 565l117 78l15 -27l-94 -95z" />
<glyph unicode="+" horiz-adv-x="517" d="M56 328v56h174v175h57v-175h175v-56h-175v-175h-57v175h-174z" />
<glyph unicode="," horiz-adv-x="236" d="M80 21v57q0 22 20 22h37q20 0 20 -22v-98q0 -21 -7.5 -35.5t-18.5 -19.5t-21.5 -6.5t-18.5 -0.5l-7 1v23q25 -1 25 26v32h-9q-20 0 -20 21z" />
<glyph unicode="-" horiz-adv-x="348" d="M22 262v56h304v-56h-304z" />
<glyph unicode="." horiz-adv-x="238" d="M80 19v59q0 21 19 21h39q21 0 21 -21v-59q0 -19 -21 -19h-39q-8 0 -13.5 5.5t-5.5 13.5z" />
<glyph unicode="/" horiz-adv-x="384" d="M22 -72l281 842h59l-281 -842h-59z" />
<glyph unicode="0" horiz-adv-x="649" d="M78 162v408q0 78 48.5 120t123.5 42h154q44 0 77 -13t52.5 -35.5t28.5 -51t9 -62.5v-408q0 -162 -167 -162h-154q-36 0 -65.5 8.5t-54 27t-38.5 51t-14 75.5zM135 162q0 -53 32 -79t83 -26h154q110 0 110 105v408q0 105 -110 105h-154q-56 0 -85.5 -28.5t-29.5 -76.5 v-408z" />
<glyph unicode="1" horiz-adv-x="359" d="M45 608v39l168 85h57v-732h-57v667z" />
<glyph unicode="2" horiz-adv-x="597" d="M45 684v41q130 17 294 17q52 0 92.5 -17t63.5 -47t35 -66.5t12 -79.5q0 -54 -34.5 -118.5t-80.5 -117.5t-105.5 -107.5t-96.5 -83t-66 -48.5h383v-57h-490v53q31 22 57.5 41.5t73.5 57t84 70.5t79.5 76.5t70.5 81t47.5 79t19.5 75.5q0 36 -9.5 63.5t-27.5 47t-45.5 29.5 t-64.5 10h-292z" />
<glyph unicode="3" horiz-adv-x="596" d="M33 677v35q53 16 125.5 20t182.5 2q82 -1 127 -47t45 -118v-69q0 -39 -14 -69.5t-32 -45t-39 -21.5q85 -42 85 -144v-59q0 -168 -178 -168q-81 0 -117 0.5t-90.5 5.5t-88.5 16l2 36h289q26 0 45.5 4t38.5 15t29.5 34t10.5 57v59q0 59 -35.5 86t-83.5 29l-234 7v43l234 9 q55 1 88 28.5t33 77.5v69q0 54 -34.5 81t-85.5 27h-303z" />
<glyph unicode="4" horiz-adv-x="593" d="M22 228l317 504h67l-298 -477h316v217l28 75h29v-292h90v-44l-90 -15v-194h-57v194h-375z" />
<glyph unicode="5" horiz-adv-x="618" d="M85 15v41h304q51 0 79 31.5t28 80.5v105q0 15 -1.5 26.5t-7.5 28.5t-16.5 28.5t-31.5 19.5t-50 8h-154q-37 0 -66.5 -25.5t-29.5 -66.5h-52l22 440h422v-57h-369l-14 -276q11 14 35.5 27t55.5 15q21 1 45 1.5t41 0t36.5 -1t27.5 -0.5q85 0 124.5 -44.5t39.5 -121.5v-109 q0 -39 -11.5 -70t-28.5 -49t-39.5 -30t-43 -16.5t-41.5 -4.5q-107 0 -166.5 3t-137.5 16z" />
<glyph unicode="6" horiz-adv-x="627" d="M73 384q0 95 14.5 165.5t39.5 110.5t54.5 59t63.5 19q173 0 292 -16v-41h-283q-29 0 -52 -20.5t-36 -50.5t-21.5 -69.5t-11.5 -72.5t-3 -65q149 17 270 17q48 0 81.5 -11.5t50 -33t23 -46t6.5 -57.5v-124q0 -149 -161 -149h-139q-35 0 -62 10t-51.5 36.5t-40.5 69 t-25 110.5t-9 159zM130 363q0 -35 1.5 -63.5t5.5 -66.5t13 -67t22.5 -55.5t36.5 -40.5t52 -14h139q49 0 77 19.5t28 75.5v121q0 52 -28 71.5t-77 19.5h-270z" />
<glyph unicode="7" horiz-adv-x="542" d="M33 675v57h452l24 -40l-256 -692h-68l251 675h-403z" />
<glyph unicode="8" horiz-adv-x="641" d="M84 154v98q0 90 90 109q-49 14 -69.5 52.5t-20.5 85.5v65q0 95 46 134t130 39h136q54 0 89.5 -17.5t54 -56t18.5 -99.5v-65q0 -14 -3.5 -31t-11.5 -35.5t-25.5 -32.5t-40.5 -18q41 -9 61 -48t20 -82v-98q0 -37 -11 -65.5t-28 -45t-39.5 -26.5t-43 -13.5t-41.5 -3.5h-135 q-36 0 -64 6.5t-46 16.5t-31.5 25t-20 28t-10 30t-4 26.5t-0.5 21.5zM141 151q0 -94 119 -94h135q42 0 74 23.5t32 70.5v105q0 26 -9.5 44.5t-25.5 28t-32.5 13.5t-35.5 4h-149q-42 0 -75 -21.5t-33 -68.5v-105zM141 494q0 -28 10 -47.5t27.5 -28.5t34 -12.5t36.5 -3.5h149 q55 0 79 28t24 64v68q0 63 -25.5 90.5t-79.5 27.5h-136q-63 0 -91 -25t-28 -93v-68z" />
<glyph unicode="9" horiz-adv-x="627" d="M67 463v124q0 149 161 149h139q35 0 62 -10t51 -36t40 -68.5t25.5 -111t9.5 -159.5q0 -94 -14.5 -165t-39.5 -111t-54.5 -59t-63.5 -19q-206 0 -292 16v41h282q37 0 63 29.5t38.5 76.5t17.5 88.5t6 84.5q-150 -18 -270 -18q-49 0 -82 11.5t-49.5 33.5t-23 46t-6.5 57z M123 463q0 -52 28 -71.5t77 -19.5h270q0 35 -1.5 63.5t-5.5 67t-13 67t-23 55t-36.5 40.5t-51.5 14h-139q-49 0 -77 -19.5t-28 -75.5v-121z" />
<glyph unicode=":" horiz-adv-x="239" d="M80 19v59q0 21 19 21h39q21 0 21 -21v-59q0 -19 -21 -19h-39q-8 0 -13.5 5.5t-5.5 13.5zM80 452v59q0 20 19 20h39q21 0 21 -20v-59q0 -19 -21 -19h-39q-8 0 -13.5 5t-5.5 14z" />
<glyph unicode=";" horiz-adv-x="239" d="M80 21v57q0 6 2.5 11t7 8t10.5 3h37q20 0 20 -22v-98q0 -21 -7.5 -35.5t-18.5 -19.5t-21.5 -6.5t-18.5 -0.5l-7 1v23q25 -1 25 26v32h-9q-8 0 -14 6.5t-6 14.5zM81 452v59q0 21 20 21h39q20 0 20 -21v-59q0 -19 -20 -19h-39q-9 0 -14.5 5.5t-5.5 13.5z" />
<glyph unicode="&#x3c;" horiz-adv-x="476" d="M56 325v59l365 172v-62l-289 -140l289 -150v-64z" />
<glyph unicode="=" horiz-adv-x="471" d="M22 212v57h427v-57h-427zM22 438v57h427v-57h-427z" />
<glyph unicode="&#x3e;" horiz-adv-x="476" d="M56 140v64l289 150l-289 140v62l365 -172v-59z" />
<glyph unicode="?" horiz-adv-x="537" d="M22 681v41q162 20 272 17q199 1 199 -185v-101q0 -190 -251 -157v-101h-58v148h129q56 1 90 27.5t34 82.5v101q0 69 -35 98t-115 29h-265zM173 19v59q0 21 20 21h41q19 0 19 -21v-59q0 -19 -19 -19h-41q-8 0 -14 5.5t-6 13.5z" />
<glyph unicode="@" horiz-adv-x="851" d="M73 0v348q0 12 0.5 21t4 27t9.5 32t18.5 30.5t29.5 27.5t44.5 18.5t61.5 7.5h210q29 0 54 -6.5t48.5 -21.5t37 -44t13.5 -68v-372h-43l-11 64l-12 -7.5t-31.5 -18t-43.5 -21.5t-53 -18.5t-54 -7.5q-56 -1 -92.5 32.5t-35.5 84.5v53q0 61 33.5 97t95.5 36h191q1 76 0 76 q0 47 -25 66t-75 19h-207q-52 0 -81.5 -23t-29.5 -84v-348q0 -35 10 -60t27 -37.5t35 -17.5t39 -5h339q65 0 92.5 29t27.5 91v512q0 31 -8.5 55.5t-23.5 41t-37.5 25.5t-50.5 9h-399v36q108 22 288 21h111q53 -1 92.5 -21.5t62 -63t22.5 -103.5v-512q0 -178 -177 -178h-339 q-78 0 -123 46t-45 132zM285 114q0 -26 22.5 -46t55.5 -20q64 -1 185 57v150l-186 -14q-34 -3 -56 -23t-21 -59q-1 -1 -1 -22.5t1 -22.5z" />
<glyph unicode="A" horiz-adv-x="666" d="M50 0l271 732h61l258 -732h-67l-72 221h-306l-76 -221h-69zM216 278h265l-130 371z" />
<glyph unicode="B" horiz-adv-x="597" d="M90 0v732h272q52 0 90.5 -16t59.5 -44t30.5 -59.5t9.5 -68.5q0 -62 -27.5 -106t-77.5 -57q40 -9 74 -54.5t34 -122.5q0 -41 -9 -75.5t-29.5 -64.5t-60 -47t-94.5 -17h-272zM147 57h215q136 0 136 149q0 63 -37 106t-99 43h-215v-298zM147 412h215q62 0 97 34t36 98 q1 131 -133 131h-215v-263z" />
<glyph unicode="C" horiz-adv-x="575" d="M61 368q0 74 6.5 128.5t22.5 102.5t43 77.5t70 46.5t102 17q39 0 110.5 -7.5t123.5 -17.5v-43l-8.5 0.5t-22.5 1.5t-32.5 2t-40.5 2.5t-43.5 2.5t-44.5 1.5t-42 0.5q-69 0 -108 -26t-59 -95t-20 -196q0 -315 187 -315q30 0 65 1t63.5 2t53 2.5t38.5 2.5l14 1v-44 q-50 -9 -121 -15.5t-113 -6.5q-244 0 -244 374z" />
<glyph unicode="D" horiz-adv-x="661" d="M90 0v732h265q41 0 76 -9.5t60 -27t45 -40.5t33.5 -51.5t22.5 -57.5t14 -62t7 -61.5t2 -59.5q0 -52 -8.5 -101.5t-28.5 -97.5t-49 -84t-74 -58t-100 -22h-265zM147 59h208q52 0 92 26t63.5 70t35.5 97t12 112q0 311 -203 311h-208v-616z" />
<glyph unicode="E" horiz-adv-x="572" d="M90 123v479q0 69 35.5 100.5t90.5 29.5l309 -14v-43h-309q-39 0 -54 -18.5t-15 -54.5v-209l338 -8v-44l-338 -8v-210q0 -24 6.5 -38.5t19.5 -21t24 -8t29 -1.5h299v-42l-299 -15q-28 -1 -50 3t-43 16t-32 39.5t-11 67.5z" />
<glyph unicode="F" horiz-adv-x="572" d="M90 0v602q0 69 35.5 100.5t90.5 29.5l309 -14v-43h-309q-39 0 -54 -18.5t-15 -54.5v-209l338 -8v-44l-338 -8v-333h-57z" />
<glyph unicode="G" horiz-adv-x="616" d="M61 370q0 66 4.5 116t19 100t39 82t66.5 52t100 20q39 0 119.5 -8.5t132.5 -18.5v-45q-1 0 -18.5 1.5t-45 3.5t-59 4.5t-67 4t-62.5 1.5q-43 0 -73 -13.5t-49.5 -37.5t-30 -64.5t-15 -87t-4.5 -112.5q0 -175 38 -245.5t138 -71.5q34 0 86 12t87 24l35 12v232h-184v38 q74 20 173 20q32 0 68 -3v-386h-42l-13 51q-22 -12 -50 -23.5t-73 -22t-87 -10.5q-43 0 -77.5 9.5t-59 26.5t-42 44.5t-27.5 57.5t-16.5 71t-8.5 79t-2 87z" />
<glyph unicode="H" horiz-adv-x="646" d="M90 0v732h57v-350h380v350h57v-732h-57v326h-380v-326h-57z" />
<glyph unicode="I" horiz-adv-x="209" d="M90 0v732h57v-732h-57z" />
<glyph unicode="J" horiz-adv-x="355" d="M39 21l4 40q19 -5 31.5 -7.5t31.5 -6t32.5 -2.5t30 3.5t27.5 11.5t20.5 22t14.5 34t5 49v567h57v-567q0 -112 -52 -147q-38 -25 -100.5 -24t-101.5 27z" />
<glyph unicode="K" horiz-adv-x="591" d="M90 0v732h57v-336h105l234 336h69l-250 -365l250 -367h-69l-234 338h-104v-338h-58z" />
<glyph unicode="L" horiz-adv-x="557" d="M90 126v606h57v-606q0 -24 6 -38.5t19.5 -21t24.5 -8t29 -1.5h295v-57h-295q-29 0 -50 4t-42.5 16t-32.5 39t-11 67z" />
<glyph unicode="M" horiz-adv-x="799" d="M61 0l60 732h79l201 -637l196 637h80l65 -732h-57l-57 634l-196 -634h-59l-202 634l-53 -634h-57z" />
<glyph unicode="N" horiz-adv-x="674" d="M90 0v732h58l407 -625v625h57v-732h-57l-408 625v-625h-57z" />
<glyph unicode="O" horiz-adv-x="675" d="M73 361q0 72 7 128.5t18.5 96t31 67.5t40.5 44t52.5 25t60 12t68.5 3q42 0 71 -3t60 -12t51.5 -25t40 -44t30.5 -67.5t18 -95.5t7 -129q0 -80 -8 -139t-25 -99t-38 -65.5t-55 -39t-68.5 -18t-83.5 -4.5q-42 0 -72 2.5t-61.5 11.5t-52 25t-39.5 42.5t-30 65.5t-17 93 t-6 125zM130 361q0 -59 3.5 -102.5t11 -77t21 -55.5t29.5 -37t40.5 -22.5t51 -10.5t64.5 -3q52 0 85.5 6.5t61.5 25t43 53.5t23 89t8 134q0 51 -3.5 92t-8 72.5t-14 55t-19 40t-25.5 27.5t-29.5 17.5t-35.5 9.5t-39.5 4t-46.5 1q-42 0 -65 -2t-53 -11t-45 -29.5t-30.5 -55 t-21.5 -89.5t-6 -132z" />
<glyph unicode="P" horiz-adv-x="582" d="M67 0v732h293q26 0 48.5 -4t47 -17.5t41 -35.5t27.5 -60.5t11 -90.5q0 -43 -6 -77t-15.5 -56.5t-24.5 -39t-29 -25t-33.5 -13t-33.5 -6t-33 -1.5q-30 0 -131 7.5t-105 9.5v-323h-57zM124 364h236q26 0 44.5 5.5t36.5 21t27 49t9 84.5q0 40 -8 69t-19.5 44t-28.5 24 t-30.5 11t-30.5 2h-236v-310z" />
<glyph unicode="Q" horiz-adv-x="675" d="M73 361q0 73 6.5 129t18 95.5t31 67.5t40 44t51.5 25t60 12t70 3t70 -3t60.5 -12t52 -25t40.5 -44t31 -67.5t18 -95.5t7 -129q0 -80 -8 -139t-25 -99t-38.5 -65.5t-55.5 -39t-68.5 -18t-83.5 -4.5q-37 0 -63.5 2t-55 8t-48.5 17.5t-39 30t-31 45.5t-22 64t-14 86.5 t-4 111.5zM130 361q0 -69 4.5 -117t16 -83t27 -55.5t42.5 -32.5t56.5 -16t73.5 -4q52 0 85.5 6.5t61.5 25t43.5 53.5t23.5 89t8 134q0 51 -3.5 92t-8 72.5t-14.5 55t-19 40t-25.5 27.5t-30 17.5t-35.5 9.5t-40 4t-46 1q-42 0 -65 -2t-53 -11t-45 -29.5t-30 -55t-21 -89.5 t-6 -132zM328 -33h39q64 -72 170 -35v-61q-26 -11 -60 -9.5t-65 11t-54.5 34.5t-29.5 60z" />
<glyph unicode="R" horiz-adv-x="586" d="M67 0v732h300q171 0 171 -213q0 -54 -10.5 -94t-25 -61t-35.5 -34t-35 -16.5t-32 -4.5l157 -309h-62l-156 307q-14 0 -114 6t-101 7v-320h-57zM124 368h243q21 0 34.5 2t30 10.5t26 23.5t16 44t6.5 71q0 49 -9.5 82t-27 48t-35 20t-41.5 5h-243v-306z" />
<glyph unicode="S" horiz-adv-x="584" d="M73 494v66q0 53 14.5 89t42 55t61 26.5t78.5 7.5q36 0 118 -8t123 -14v-44l-241 9q-69 3 -104 -21.5t-35 -99.5v-66q0 -23 3.5 -41t11 -29.5t17 -18.5t24 -11t28.5 -5t33 -1h133q47 0 80 -13.5t49 -38.5t22.5 -51.5t6.5 -60.5v-68q0 -41 -12 -71.5t-30 -48t-45 -27.5 t-53.5 -13.5t-59.5 -3.5q-36 0 -122.5 7.5t-122.5 14.5v44q97 -9 245 -9q21 0 37.5 1.5t37.5 8t34.5 17.5t23.5 31.5t10 48.5v68q0 53 -23 79.5t-78 26.5h-131q-46 0 -79 10t-51.5 24.5t-29 37t-13.5 43.5t-3 49z" />
<glyph unicode="T" horiz-adv-x="586" d="M46 675v57h511v-57h-230v-675h-57v675h-224z" />
<glyph unicode="U" horiz-adv-x="679" d="M90 320v412h57v-412q0 -56 5.5 -99t13 -71.5t24 -47.5t29.5 -29t39.5 -15t42.5 -5.5t50 -0.5h4q22 0 36 0.5t33.5 3t32 7.5t28 14.5t25 23t20 34t16 46.5t9.5 61t4 78v412h57v-412q0 -67 -8.5 -119.5t-21 -86.5t-35.5 -57.5t-41.5 -35.5t-50 -18t-50.5 -7t-54 -1h-7 q-38 0 -57.5 1t-52 7t-49.5 17.5t-39 35t-33 57.5t-19 86.5t-8 120.5z" />
<glyph unicode="V" horiz-adv-x="666" d="M50 732h63l227 -646l238 646h62l-270 -732h-61z" />
<glyph unicode="W" horiz-adv-x="965" d="M50 732h63l226 -639l203 639h64l-80 -257l144 -386l207 643h62l-237 -732h-61l-145 381l-126 -381h-61z" />
<glyph unicode="X" horiz-adv-x="585" d="M50 732h64l189 -320l192 320h64l-218 -364l213 -368h-64l-187 318l-186 -318h-64l213 368z" />
<glyph unicode="Y" horiz-adv-x="626" d="M50 732h63l202 -403l223 403h62l-256 -472v-260h-57v260z" />
<glyph unicode="Z" horiz-adv-x="558" d="M39 0v57l409 618h-409v57h483v-57l-409 -618h409v-57h-483z" />
<glyph unicode="[" horiz-adv-x="323" d="M95 -38v708q0 17 2 33.5t6.5 37.5t14.5 38t24 31.5t37 23t52 8.5h70v-57h-70q-36 0 -57.5 -30t-21.5 -85v-708q0 -52 20.5 -83.5t58.5 -31.5h70v-57h-70q-25 0 -45.5 6.5t-34.5 17t-24.5 25.5t-16 30t-9.5 33t-5 31.5t-1 28.5z" />
<glyph unicode="\" horiz-adv-x="384" d="M22 770h59l281 -842h-59z" />
<glyph unicode="]" horiz-adv-x="323" d="M22 -153h70q39 0 59 31.5t20 83.5v708q0 55 -21 85t-58 30h-70v57h70q35 0 61 -12.5t39.5 -30.5t22 -43t11 -45t2.5 -41v-708q0 -21 -2.5 -41t-11 -45t-22 -43t-39.5 -30.5t-61 -12.5h-70v57z" />
<glyph unicode="^" horiz-adv-x="397" d="M56 531l122 130h54l109 -130h-53l-84 86l-94 -86h-54zM232 661z" />
<glyph unicode="_" horiz-adv-x="668" d="M22 -1v57h624v-57h-624z" />
<glyph unicode="`" horiz-adv-x="228" d="M22 664h72l112 -133h-51z" />
<glyph unicode="a" horiz-adv-x="519" d="M45 126v61q0 41 16 71t46 46t71 16q229 -1 229 0q1 66 0 67q0 99 -99 99q-83 0 -246 -16v41q106 29 249 30q67 1 110 -37.5t43 -116.5v-387h-42l-15 64q-1 0 -16 -7t-39.5 -17.5t-53 -21t-61.5 -17.5t-59 -7q-57 0 -95 35t-38 97zM102 131q0 -42 21.5 -61t54.5 -19 q22 0 54 5.5t61.5 13.5t55.5 16t42 13l16 6v172l-229 -14q-76 -5 -76 -80v-52z" />
<glyph unicode="b" horiz-adv-x="553" d="M67 0v785h55v-286q45 18 102.5 29t94.5 11t66 -10.5t48 -31t32 -45.5t20 -57.5t10 -63.5t3 -68q0 -40 -4.5 -75.5t-17 -72t-32 -62.5t-51.5 -42.5t-74 -16.5q-46 0 -109 23t-87 42l-16 -59h-40zM123 100q111 -49 196 -49q56 0 89 53.5t33 158.5q0 65 -9 109t-26 67.5 t-37.5 33t-49.5 9.5q-91 0 -196 -27v-355z" />
<glyph unicode="c" horiz-adv-x="500" d="M56 266q0 68 9 117t23 78.5t37.5 46.5t47.5 22.5t58 5.5q86 0 218 -26v-40q-129 9 -218 9q-17 0 -29 -1.5t-25 -7t-22 -14.5t-17.5 -25t-13.5 -39t-8 -55.5t-3 -74.5q0 -83 14 -130t38.5 -63.5t65.5 -16.5t97 3.5t92 7.5l36 3v-42q-97 -27 -225 -29q-33 0 -57 5.5 t-47.5 23t-38 46.5t-23.5 78.5t-9 117.5z" />
<glyph unicode="d" horiz-adv-x="553" d="M56 263q0 45 4 81.5t15.5 74t30.5 63t51.5 41.5t76.5 16q37 0 94.5 -11t102.5 -29v286h55v-785h-39l-17 59q-23 -19 -86.5 -42t-109.5 -23q-42 0 -74 16.5t-51.5 42.5t-31.5 62.5t-16.5 72t-4.5 75.5zM113 263q0 -107 32.5 -159.5t88.5 -52.5q85 0 196 49v355 q-105 27 -196 27q-22 0 -39.5 -5.5t-33.5 -20t-26 -39t-16 -63.5t-6 -91z" />
<glyph unicode="e" horiz-adv-x="525" d="M56 268q0 59 5 101.5t17.5 72.5t28.5 48t43 28t56 13.5t72 3.5q30 0 50.5 -1t43.5 -5.5t38 -12t29.5 -21.5t22.5 -34t13.5 -48.5t5.5 -65.5q0 -39 -15 -64t-45.5 -37t-76.5 -12h-231q0 -75 13.5 -115t37 -53.5t67.5 -13.5q148 0 240 13v-42q-101 -29 -240 -28 q-69 0 -106.5 26.5t-53 84t-15.5 162.5zM113 290h231q39 0 59.5 12.5t20.5 44.5q0 46 -6.5 71.5t-25.5 39t-43 17t-70 3.5q-35 0 -55.5 -1.5t-41.5 -8t-32 -18.5t-20.5 -33t-13 -52t-3.5 -75z" />
<glyph unicode="f" horiz-adv-x="394" d="M22 474v42l94 15v99q0 22 1 37.5t7 40t17.5 40t33.5 27t54 11.5q78 0 143 -20v-36h-129q-24 1 -38.5 -6t-21 -22.5t-8.5 -30.5t-2 -41v-99h158v-57h-158v-474h-57v474h-94z" />
<glyph unicode="g" horiz-adv-x="560" d="M53 117q0 27 18 50t50 28q-68 36 -68 149q0 189 173 189h312v-42l-91 -15q0 -1 6 -8.5t8 -11t7.5 -12.5t8 -17.5t5.5 -21t4.5 -28t1.5 -33.5q0 -21 -3.5 -42.5t-14 -48.5t-27.5 -47.5t-48 -34.5t-72 -14h-156q-11 0 -22.5 -2t-23 -11.5t-11.5 -25.5q0 -21 16.5 -31.5 t37.5 -10.5h211q64 0 99 -36.5t35 -99.5v-59q0 -17 -2 -32.5t-7.5 -33.5t-16.5 -32.5t-26.5 -26.5t-40.5 -19t-57 -7h-150q-48 0 -83 17t-55.5 52t-20.5 85v88l31 79q-28 21 -28 66zM108 -116q0 -30 10 -51t27 -30t32 -12.5t32 -3.5h150q93 0 93 94v56q0 41 -18.5 62 t-67.5 21h-201q-17 0 -31.5 3.5t-19.5 7.5l-6 4v-151zM110 344q0 -57 26.5 -93.5t82.5 -36.5h99q32 0 55.5 12.5t35.5 32t17.5 41t4.5 44.5q-1 66 -24.5 99t-74.5 33h-109q-63 0 -88 -36t-25 -96z" />
<glyph unicode="h" d="M67 0v784h57v-315q38 23 63 35.5t63.5 24t76.5 11.5q51 0 89 -24.5t56.5 -62.5t18.5 -83v-370h-57v370q0 53 -29 83t-78 30q-40 0 -74 -7.5t-59 -18t-70 -32.5v-425h-57z" />
<glyph unicode="i" horiz-adv-x="187" d="M56 619v56q0 21 20 21h37q19 0 19 -21v-56q0 -20 -19 -20h-37q-6 0 -10.5 2.5t-7 7t-2.5 10.5zM64 0v531h57v-531h-57z" />
<glyph unicode="j" horiz-adv-x="210" d="M67 619v56q0 21 20 21h37q19 0 19 -21v-56q0 -20 -19 -20h-37q-6 0 -10.5 2.5t-7 7t-2.5 10.5zM76 -270v801h57v-535q2 -174 -20 -266h-37z" />
<glyph unicode="k" horiz-adv-x="499" d="M67 0v782h57v-448h47l225 197h81l-252 -226l252 -305h-73l-233 276h-47v-276h-57z" />
<glyph unicode="l" horiz-adv-x="299" d="M67 189v594h57v-594q0 -40 6 -66t17 -39t21 -18.5t25 -8.5q77 -18 84 -18v-39h-81q-129 0 -129 189z" />
<glyph unicode="m" horiz-adv-x="909" d="M67 0v531h39l18 -63q39 23 62 35t61 23.5t75 11.5q50 0 89 -21.5t57 -57.5q42 34 101.5 56.5t119.5 22.5q72 0 118 -48.5t46 -122.5v-367h-57v367q0 50 -29.5 82t-77.5 32q-40 0 -75 -6.5t-66.5 -20t-65.5 -34.5q5 -13 5 -51v-369h-57v367q0 50 -30 82t-78 32 q-39 0 -72 -7.5t-57 -17.5t-69 -33v-423h-57z" />
<glyph unicode="n" d="M67 0v531h39l18 -62q38 23 63 35.5t63.5 24t76.5 11.5q51 0 89 -24.5t56.5 -62.5t18.5 -83v-370h-57v370q0 52 -29.5 82.5t-77.5 30.5q-40 0 -74 -7.5t-59 -18t-70 -32.5v-425h-57z" />
<glyph unicode="o" horiz-adv-x="569" d="M56 258q0 109 22.5 169t71 84.5t135.5 24.5q130 0 179.5 -61.5t49.5 -216.5q0 -148 -49.5 -205.5t-179.5 -57.5q-68 0 -111.5 14t-70 46.5t-37 80.5t-10.5 122zM113 258q0 -35 2.5 -63t8.5 -49t13.5 -36t19.5 -25.5t24 -17t30 -10t34.5 -4.5t39.5 -1q31 0 52.5 2.5 t42.5 10t34 21.5t23.5 36.5t15 56t4.5 79.5q0 50 -4.5 85.5t-14.5 60t-22.5 39.5t-34 23t-43 10.5t-54 2.5t-53 -2t-42 -9.5t-34 -22t-23 -39t-15 -61t-4.5 -87.5z" />
<glyph unicode="p" horiz-adv-x="553" d="M67 -269v800h40l16 -59q14 11 46.5 26t75.5 27t74 12q42 0 74 -16.5t51.5 -42.5t32 -62.5t17 -72t4.5 -75.5q0 -45 -4 -81.5t-16 -74t-31 -63t-51.5 -41.5t-76.5 -16q-23 0 -56 4.5t-71.5 14t-69.5 21.5v-301h-55zM123 76q105 -27 196 -27q29 0 49.5 9.5t37.5 33t26 67.5 t9 109q0 105 -33 158.5t-89 53.5q-85 0 -196 -49v-355z" />
<glyph unicode="q" horiz-adv-x="556" d="M56 268q0 129 46 199t138 70q30 0 61 -1.5t60.5 -4t48.5 -4.5t46.5 -5.5t32.5 -3.5v-788h-57v299q-45 -18 -100 -28.5t-92 -10.5q-45 0 -78 14t-53 38t-32 60.5t-16.5 75.5t-4.5 90zM113 268q0 -39 2 -66.5t9 -59t20.5 -50.5t37.5 -32t58 -13q54 0 91 5.5t101 21.5v406 h-192q-127 0 -127 -212z" />
<glyph unicode="r" horiz-adv-x="425" d="M67 0v531h39l18 -67q2 1 18 10t19.5 11l17.5 10t19.5 10t19 8.5t21 8.5t20 6t22.5 5t22.5 2.5t25.5 1.5q55 0 74 -8v-56q-28 6 -74 6q-12 0 -24 -1t-21 -1.5t-21.5 -4t-18.5 -4t-20 -6t-18 -7t-20 -8.5t-18.5 -8.5t-21.5 -10.5t-22 -10v-418h-57z" />
<glyph unicode="s" horiz-adv-x="505" d="M45 360v46q0 64 31.5 97t106.5 33q37 0 123 -5t128 -9v-42h-251q-50 0 -65.5 -17.5t-15.5 -56.5v-46q0 -24 5 -38.5t17.5 -20.5t24 -7t34.5 -1h148q61 0 95.5 -33.5t34.5 -90.5v-49q0 -39 -11 -65.5t-31 -38.5t-40.5 -16.5t-47.5 -4.5q-34 0 -132.5 6t-131.5 10v41h264 h14t17.5 3.5t20.5 9.5t14 20t7 35v49q0 67 -73 67h-148q-75 0 -106.5 25t-31.5 99z" />
<glyph unicode="t" horiz-adv-x="368" d="M22 475v42l94 15l15 148h42v-148h162v-57h-162v-286q0 -39 6 -65.5t17 -39.5t21 -18.5t25 -8.5q77 -17 84 -17v-40h-81q-129 0 -129 189v286h-94z" />
<glyph unicode="u" d="M56 161v370h57v-370q0 -52 29.5 -82.5t77.5 -30.5q30 0 55 3.5t50.5 12t44.5 17.5t53 26v424h57v-531h-39l-18 62q-38 -22 -63 -35t-63.5 -24.5t-76.5 -11.5q-76 0 -120 50t-44 120z" />
<glyph unicode="v" horiz-adv-x="530" d="M22 531h62l180 -448l183 448h61l-216 -531h-58z" />
<glyph unicode="w" horiz-adv-x="793" d="M22 531h63l170 -448l155 448h62l-61 -180l123 -268l175 448h62l-206 -531h-58l-124 275l-97 -275h-62z" />
<glyph unicode="x" horiz-adv-x="509" d="M27 0l192 266l-192 265h71l155 -217l158 217h71l-193 -267l188 -264h-66l-156 216l-157 -216h-71z" />
<glyph unicode="y" horiz-adv-x="545" d="M23 531h63l135 -415q21 -61 69 -58l9 1l159 472h63l-234 -699l-65 -102h-34l91 270q-86 1 -119 110z" />
<glyph unicode="z" horiz-adv-x="462" d="M33 474v57h396v-57l-306 -416h306v-57h-380v57l309 416h-325z" />
<glyph unicode="{" horiz-adv-x="314" d="M22 307v53q16 2 23 2.5t22.5 4.5t23.5 9.5t14.5 17t6.5 26.5v236q0 38 10 70t30 58.5t56 42t84 15.5v-57q-28 0 -49.5 -6t-38.5 -20t-26 -40t-9 -63v-236q0 -35 -23 -57.5t-60 -28.5q35 -5 58.5 -28.5t23.5 -54.5v-289q0 -60 32.5 -88.5t91.5 -26.5v-57q-36 0 -65 7 t-48 20t-33 29.5t-21 36.5t-10.5 39t-3.5 40v285q0 31 -27.5 46.5t-61.5 13.5z" />
<glyph unicode="|" horiz-adv-x="248" d="M96 -72v842h57v-842h-57z" />
<glyph unicode="}" horiz-adv-x="314" d="M22 -153q60 -2 92 26.5t32 88.5v289q0 31 23.5 54.5t58.5 28.5q-36 6 -59.5 28.5t-23.5 57.5v236q0 71 -32 100t-91 29v57q48 0 84 -15.5t56.5 -42t30 -58.5t9.5 -70v-236q0 -15 7 -26.5t14.5 -17t23.5 -9.5t22.5 -4.5t22.5 -2.5v-53q-33 2 -61 -13.5t-28 -46.5v-285 q0 -33 -7.5 -60.5t-26 -54t-56 -42t-91.5 -15.5v57z" />
<glyph unicode="~" horiz-adv-x="449" d="M56 572q6 5 18 15.5t18 16t16.5 13t18.5 11t19.5 6.5t22.5 3q22 0 58.5 -24t54.5 -24q11 0 22 2.5t22.5 8.5t17.5 9.5t18.5 12.5t15.5 11l16 -30l-14.5 -14.5t-17 -16l-16.5 -13.5t-19.5 -13.5t-20.5 -8t-24 -3.5q-23 0 -60 24t-54.5 24t-31.5 -5t-34.5 -17.5 t-30.5 -17.5z" />
<glyph unicode="&#xa1;" horiz-adv-x="268" d="M93 386v56q0 18 20 19h36q8 -1 14 -6.5t6 -14.5v-54q-2 -22 -19 -22h-37q-20 0 -20 22zM99 -270l5 533h54l7 -533h-66z" />
<glyph unicode="&#xa2;" horiz-adv-x="489" d="M45 266q0 70 9 120t24.5 80t41 46.5t52 21t64.5 3.5v92h46v-95q78 -8 156 -24v-40q-129 10 -218 10q-24 0 -40 -3.5t-32 -16t-25.5 -36t-15 -64t-5.5 -98.5q0 -83 14 -130.5t38.5 -64t65.5 -16.5t97 3.5t92 6.5l36 4v-42q-78 -23 -163 -27v-87h-46v85q-38 -1 -64 4 t-52 21t-41.5 45.5t-24.5 80t-9 121.5z" />
<glyph unicode="&#xa3;" horiz-adv-x="597" d="M56 0v44l72 13v280h-72v34l72 14v120q0 40 4 71.5t13.5 54.5t20 40t27.5 28t33 17.5t39.5 10t43 4.5t47.5 1q25 0 71.5 -3.5t80.5 -6.5l34 -4v-42h-184q-36 0 -57 -1.5t-43.5 -7t-33.5 -16t-21.5 -30t-14 -47.5t-3.5 -69v-120l278 -14v-34h-278v-280h356v-57h-485z" />
<glyph unicode="&#xa4;" horiz-adv-x="461" d="M57 457l30 27l42 -44q43 34 98 34q58 0 102 -35l47 46l27 -30l-46 -46q31 -41 31 -94q0 -57 -32 -101l48 -48l-32 -28l-44 45q-44 -37 -101 -37q-55 0 -97 36l-45 -44l-27 31l43 42q-33 45 -33 104q0 54 33 97zM110 313q0 -33 15 -61.5t42.5 -45.5t60 -17t60 17t43 45.5 t15.5 61.5t-16 60t-43 42.5t-60 15.5q-48 0 -82.5 -34.5t-34.5 -83.5z" />
<glyph unicode="&#xa5;" horiz-adv-x="594" d="M22 732h64l201 -354l220 354h65l-255 -411h189v-44h-190v-65h190v-44h-190v-168h-57v168h-180v44h180v65h-180v44h179z" />
<glyph unicode="&#xa6;" horiz-adv-x="249" d="M96 -72v328h57v-328h-57zM96 429v341h57v-341h-57z" />
<glyph unicode="&#xa7;" horiz-adv-x="554" d="M62 353v62q0 40 10.5 63t37.5 30q-49 12 -49 82v70q0 35 11 60.5t30.5 38.5t41.5 19t47 6q34 0 132.5 -6t131.5 -10v-41h-264q-37 0 -54.5 -16t-18.5 -51v-70q0 -32 19 -44t54 -12h169q80 0 107 -28.5t26 -89.5v-62q0 -83 -45 -89q15 -3 24.5 -11t13.5 -21t5 -24t1 -26 v-73q0 -31 -8.5 -54t-21 -35t-32.5 -19t-36.5 -8.5t-39.5 -1.5q-33 0 -127.5 6t-128.5 10v41h256q40 0 60.5 12.5t20.5 48.5v73q0 24 -6.5 35.5t-21.5 15.5t-47 4h-169q-33 0 -54 4t-39.5 15.5t-27 35t-8.5 60.5zM118 353q0 -39 15 -48.5t58 -9.5h169q36 0 52 7t19.5 17.5 t3.5 34.5v62q0 36 -13.5 49t-61.5 13h-169q-43 0 -58 -11t-15 -53v-61z" />
<glyph unicode="&#xa8;" horiz-adv-x="445" d="M56 582q0 11 5.5 20t14.5 14t20 5q16 0 27 -11.5t11 -27.5q0 -11 -5 -20t-14 -14.5t-19 -5.5q-17 0 -28.5 12t-11.5 28zM311 582q0 16 11.5 27.5t28 11.5t27.5 -11.5t11 -28t-11 -28t-27.5 -11.5t-28 12t-11.5 28z" />
<glyph unicode="&#xa9;" horiz-adv-x="829" d="M61 368q0 54 5.5 101t21.5 97t40.5 85.5t67 58t97.5 22.5h265q210 0 210 -364q0 -60 -7.5 -112.5t-23.5 -100t-39.5 -81.5t-59.5 -54t-80 -20h-265q-52 0 -94 25.5t-67 65t-41.5 90.5t-23 97t-6.5 90zM108 368q0 -57 11 -112.5t33 -103t58.5 -76.5t82.5 -29h265 q71 1 117 84t46 237q0 317 -163 317h-265q-183 0 -185 -317zM237 365q0 59 11 102t31 68t45.5 36.5t56.5 11.5q57 0 178 -22v-37q-84 12 -178 12q-97 0 -97 -174q0 -53 8 -88t30.5 -57.5t58.5 -22.5q96 0 184 16v-37q-91 -26 -184 -26q-31 0 -55.5 9.5t-45.5 32.5t-32 67.5 t-11 108.5z" />
<glyph unicode="&#xaa;" horiz-adv-x="362" d="M33 276v43h296v-43h-296zM33 463v46q0 27 12 47.5t35 31.5t53 11q148 -1 148 0q1 31 0 32q0 64 -77 64q-46 0 -159 -10v31q9 2 35.5 7.5t40 7.5t39.5 5t52 3q50 1 82.5 -25t32.5 -78v-258h-30l-15 49q-1 0 -10.5 -5.5t-25.5 -13t-34.5 -15.5t-39.5 -13.5t-39 -5.5 q-41 0 -70.5 23.5t-29.5 65.5zM80 473q0 -53 59 -53q27 0 62.5 9.5t57.5 18.5l22 10v108l-142 -8q-59 -4 -59 -55v-30z" />
<glyph unicode="&#xab;" horiz-adv-x="548" d="M56 354l205 203l41 -40l-166 -163l171 -168l-40 -40zM241 354l206 203l40 -40l-166 -163l172 -168l-41 -40z" />
<glyph unicode="&#xac;" horiz-adv-x="528" d="M56 264v58h417v-163h-57v105h-360z" />
<glyph unicode="&#xad;" horiz-adv-x="358" d="M22 262v56h314v-56h-314z" />
<glyph unicode="&#xae;" horiz-adv-x="829" d="M61 368q0 54 5.5 101t21.5 97t40.5 85.5t67 58t97.5 22.5h265q210 0 210 -364q0 -60 -7.5 -112.5t-23.5 -100t-39.5 -81.5t-59.5 -54t-80 -20h-265q-52 0 -94 25.5t-67 65t-41.5 90.5t-23 97t-6.5 90zM108 368q0 -57 11 -112.5t33 -103t58.5 -76.5t82.5 -29h265 q71 1 117 84t46 237q0 317 -163 317h-265q-183 0 -185 -317zM269 153v427h177q27 0 48.5 -5.5t41 -18.5t30.5 -39t11 -64q0 -17 -2.5 -31.5t-5 -25.5t-8.5 -20l-10 -15t-12.5 -11t-12.5 -8t-14 -5.5t-12.5 -3t-13 -2t-10.5 -2.5l97 -176h-53l-98 177l-106 10v-187h-47z M316 372h136q45 0 61.5 16t16.5 64t-21 64.5t-57 16.5h-136v-161z" />
<glyph unicode="&#xaf;" horiz-adv-x="390" d="M56 531v47h279v-47h-279z" />
<glyph unicode="&#xb0;" horiz-adv-x="314" d="M56 632q0 28 14 51.5t37.5 37.5t51 14t50.5 -14t36.5 -37.5t13.5 -51.5q0 -43 -29.5 -72.5t-71.5 -29.5q-27 0 -50.5 13.5t-37.5 37t-14 51.5zM92 632q0 -27 19.5 -46t46.5 -19t46 19t19 46t-19 46.5t-46 19.5t-46.5 -19.5t-19.5 -46.5z" />
<glyph unicode="&#xb1;" horiz-adv-x="529" d="M63 104v57h406v-57h-406zM63 395v57h174v175h57v-175h175v-57h-175v-174h-57v174h-174z" />
<glyph unicode="&#xb2;" horiz-adv-x="395" d="M35 824q-1 0 -1 9t0.5 17.5l0.5 8.5q102 12 183 12q130 0 130 -136q0 -118 -216 -293q-5 -4 -7 -6h222v-47h-309v43q8 6 35.5 27.5t46.5 37t48.5 41t49.5 47.5t40 48t30.5 51t10.5 48q0 47 -19.5 69.5t-70.5 22.5h-174z" />
<glyph unicode="&#xb3;" horiz-adv-x="416" d="M33 820v31q9 3 18 5t20 3.5t19 3t22 2t21 1t23.5 0.5h22.5h25.5h24.5q61 0 91 -32.5t30 -82.5v-35q0 -34 -19.5 -58t-41.5 -31q61 -30 61 -95v-28q0 -28 -6 -49t-20 -37t-39 -24.5t-62 -8.5h-54.5t-44 1.5t-48.5 5t-39 9.5l1 30l177 1q48 0 67.5 17t19.5 59v23 q0 38 -24 56.5t-59 19.5l-142 5v34l142 6q39 2 62 20.5t23 50.5v26q0 71 -82 71h-189z" />
<glyph unicode="&#xb4;" horiz-adv-x="228" d="M22 531l112 133h72l-133 -133h-51z" />
<glyph unicode="&#xb5;" horiz-adv-x="602" d="M101 161v370h57v-370q0 -52 29 -82.5t78 -30.5q57 0 97 13t106 46v424h57v-531h-39l-18 62q-28 -16 -47 -26.5t-46 -22t-54 -17t-56 -5.5q-66 0 -107 43v-304h-57v431z" />
<glyph unicode="&#xb6;" horiz-adv-x="577" d="M45 499v93q0 67 46.5 103.5t109.5 36.5h355v-59h-69v-673h-57v675h-118v-945h-57v640l-5 -3t-9 -4.5t-10.5 -3.5t-14 -3t-15.5 -1q-74 0 -115 41t-41 103zM102 501q0 -27 11 -46.5t28.5 -27.5t31.5 -11.5t28 -3.5h54v263h-54q-34 0 -57.5 -13t-32.5 -31.5t-9 -40.5v-89z " />
<glyph unicode="&#xb7;" horiz-adv-x="269" d="M95 361v42q0 21 20 21h39q20 0 20 -21v-42q0 -19 -20 -19h-39q-4 0 -8 1.5t-6.5 4t-4 6t-1.5 7.5z" />
<glyph unicode="&#xb8;" horiz-adv-x="257" d="M56 -146l46 11q27 8 38 30t11 68h50q0 -40 -4.5 -64.5t-16 -41.5t-30.5 -23.5t-50 -6.5h-44v27z" />
<glyph unicode="&#xb9;" horiz-adv-x="265" d="M18 775v35l128 55h47v-476h-47v424z" />
<glyph unicode="&#xba;" horiz-adv-x="386" d="M33 550q0 108 33.5 147.5t128.5 39.5q94 0 126 -39.5t32 -147.5q0 -99 -33 -138t-125 -39q-94 0 -128 39.5t-34 137.5zM45 278v42h298v-42h-298zM80 550q0 -43 6 -69.5t22 -40t35 -17.5t52 -4t51 3.5t33.5 16.5t21 39.5t6.5 71.5q0 48 -5 76t-20.5 42t-34 18.5t-52.5 4.5 q-36 0 -54 -3.5t-34 -17.5t-21.5 -42.5t-5.5 -77.5z" />
<glyph unicode="&#xbb;" horiz-adv-x="548" d="M56 186l172 168l-167 163l40 40l206 -203l-210 -208zM241 186l172 168l-166 163l40 40l206 -203l-211 -208z" />
<glyph unicode="&#xbc;" horiz-adv-x="893" d="M18 642v35l128 55h47v-476h-47v424zM217 0l361 745h49l-361 -745h-49zM491 155l202 319h54l-182 -289h200v121l21 48h26v-169h59v-37l-59 -13v-135h-47v135h-258z" />
<glyph unicode="&#xbd;" horiz-adv-x="963" d="M18 642v35l128 55h47v-476h-47v424zM210 0l360 745h49l-360 -745h-49zM605 435q-1 0 -1 9t0.5 18t0.5 8q102 12 183 12q130 0 130 -136q0 -117 -216 -293q-5 -4 -7 -6h222v-47h-309v43q5 4 42 33t57 45.5t55.5 49.5t55 58t35.5 56.5t16 57.5q0 47 -19.5 69.5t-70.5 22.5 h-174z" />
<glyph unicode="&#xbe;" horiz-adv-x="1012" d="M33 687v31q9 3 18 5t20 3.5t19 3t22 2t21 1t23.5 0.5h22.5h25.5h24.5q61 0 91 -32.5t30 -82.5v-35q0 -34 -19.5 -58t-41.5 -31q61 -30 61 -95v-28q0 -28 -6 -49t-20 -37t-39 -24.5t-62 -8.5h-54.5t-44 1.5t-48.5 5t-39 9.5l1 30l177 1q48 0 67.5 17t19.5 59v23 q0 38 -24 56.5t-59 19.5l-142 5v34l142 6q39 2 62 20.5t23 50.5v26q0 71 -82 71h-189zM323 0l361 745h49l-361 -745h-49zM575 155l202 319h51l-182 -291h205v123l20 48h25v-171h59v-35l-59 -12v-136h-45v136h-260z" />
<glyph unicode="&#xbf;" horiz-adv-x="538" d="M44 21q-1 90 66 129.5t184 24.5v5.5t0.5 14.5t0.5 19.5v21v19v14.5t-1 7h60l1 -148q-87 1 -131 0q-51 -1 -81.5 -31t-32.5 -81q-1 -87 -1 -101q0 -59 34 -93t108 -33l266 1q-1 0 -1 -11v-20t-1 -10q-162 -20 -272 -17q-59 -1 -100 14t-61.5 43t-29 59t-8.5 71v102z M286 395v54q0 9 5.5 15t13.5 7h37q20 -1 20 -20v-56q-2 -20 -18 -21h-41q-16 4 -17 21z" />
<glyph unicode="&#xc0;" horiz-adv-x="666" d="M193 930h72l111 -133h-50zM50 0l271 732h61l258 -732h-67l-72 221h-306l-76 -221h-69zM216 278h265l-130 371z" />
<glyph unicode="&#xc1;" horiz-adv-x="666" d="M326 797l112 133h71l-133 -133h-50zM50 0l271 732h61l258 -732h-67l-72 221h-306l-76 -221h-69zM216 278h265l-130 371z" />
<glyph unicode="&#xc2;" horiz-adv-x="666" d="M209 797l122 130h53l110 -130h-53l-85 86l-94 -86h-53zM50 0l271 732h61l258 -732h-67l-72 221h-306l-76 -221h-69zM216 278h265l-130 371z" />
<glyph unicode="&#xc3;" horiz-adv-x="666" d="M182 835q15 12 23 18.5t21.5 16.5t23.5 14.5t22.5 8.5t23.5 4q20 -1 42 -13t41 -23.5t31 -11.5q6 0 12.5 1t14 4t13 5t14.5 7.5t13 8t14 8.5t13 7l16 -30q-2 -2 -13.5 -11.5t-16 -13t-14.5 -11.5t-16.5 -11.5t-16 -7.5t-18 -6t-17.5 -1q-27 1 -62 24t-51 23 q-19 0 -33.5 -5.5t-34 -17.5t-29.5 -17zM50 0l271 732h61l258 -732h-67l-72 221h-306l-76 -221h-69zM216 278h265l-130 371z" />
<glyph unicode="&#xc4;" horiz-adv-x="666" d="M185 836.5q0 16.5 11.5 28t28 11.5t27.5 -11.5t11 -27.5q0 -11 -5 -20t-14 -14.5t-20 -5.5q-16 0 -27.5 11.5t-11.5 28zM439 837q0 11 5.5 19.5t14.5 14t20 5.5q17 0 28 -11.5t11 -28t-11.5 -28t-27.5 -11.5t-28 11.5t-12 28.5zM50 0l271 732h61l258 -732h-67l-72 221 h-306l-76 -221h-69zM216 278h265l-130 371z" />
<glyph unicode="&#xc5;" horiz-adv-x="666" d="M250 832q0 43 30 73t72 30q28 0 51 -13.5t36.5 -37.5t13.5 -52q0 -43 -29.5 -72.5t-71.5 -29.5q-28 0 -51.5 13.5t-37 37t-13.5 51.5zM286 832q0 -27 19.5 -46t46.5 -19t46 19t19 46t-19 46.5t-46 19.5t-46.5 -19.5t-19.5 -46.5zM50 0l271 732h61l258 -732h-67l-72 221 h-306l-76 -221h-69zM216 278h265l-130 371z" />
<glyph unicode="&#xc6;" horiz-adv-x="925" d="M33 0l325 599q20 38 40.5 63.5t38.5 39.5t42.5 21t44 8.5t52.5 0.5l302 -14v-44h-302q-24 0 -38.5 -4t-20.5 -14.5t-7 -19.5t-2 -27v-9v-210l330 -9v-43l-330 -9v-207q0 -16 3 -28t9.5 -19t12.5 -11t17 -5.5t17.5 -2t19.5 -0.5l290 -1v-45l-290 -14q-28 -2 -49.5 2 t-42.5 16.5t-32.5 39.5t-11.5 67v115h-226l-128 -236h-64zM255 293h196v361z" />
<glyph unicode="&#xc7;" horiz-adv-x="575" d="M216 -145l46 11q28 8 39 30t10 68h50q0 -78 -20.5 -107t-80.5 -29h-44v27zM61 368q0 74 6.5 128.5t22.5 102.5t43 77.5t70 46.5t102 17q39 0 110.5 -7.5t123.5 -17.5v-43l-8.5 0.5t-22.5 1.5t-32.5 2t-40.5 2.5t-43.5 2.5t-44.5 1.5t-42 0.5q-69 0 -108 -26t-59 -95 t-20 -196q0 -315 187 -315q30 0 65 1t63.5 2t53 2.5t38.5 2.5l14 1v-44q-50 -9 -121 -15.5t-113 -6.5q-244 0 -244 374z" />
<glyph unicode="&#xc8;" horiz-adv-x="572" d="M184 925h72l111 -133h-50zM90 123v479q0 69 35.5 100.5t90.5 29.5l309 -14v-43h-309q-39 0 -54 -18.5t-15 -54.5v-209l338 -8v-44l-338 -8v-210q0 -24 6.5 -38.5t19.5 -21t24 -8t29 -1.5h299v-42l-299 -15q-28 -1 -50 3t-43 16t-32 39.5t-11 67.5z" />
<glyph unicode="&#xc9;" horiz-adv-x="572" d="M302 792l112 133h72l-133 -133h-51zM90 123v479q0 69 35.5 100.5t90.5 29.5l309 -14v-43h-309q-39 0 -54 -18.5t-15 -54.5v-209l338 -8v-44l-338 -8v-210q0 -24 6.5 -38.5t19.5 -21t24 -8t29 -1.5h299v-42l-299 -15q-28 -1 -50 3t-43 16t-32 39.5t-11 67.5z" />
<glyph unicode="&#xca;" horiz-adv-x="572" d="M180 797l122 130h54l109 -130h-53l-85 86l-93 -86h-54zM90 123v479q0 69 35.5 100.5t90.5 29.5l309 -14v-43h-309q-39 0 -54 -18.5t-15 -54.5v-209l338 -8v-44l-338 -8v-210q0 -24 6.5 -38.5t19.5 -21t24 -8t29 -1.5h299v-42l-299 -15q-28 -1 -50 3t-43 16t-32 39.5 t-11 67.5z" />
<glyph unicode="&#xcb;" horiz-adv-x="572" d="M153 843q0 11 5 20t14 14t20 5q16 0 27.5 -11.5t11.5 -28t-11.5 -28t-27.5 -11.5t-27.5 12t-11.5 28zM407 843q0 16 12 27.5t28 11.5t27.5 -11.5t11.5 -28t-11.5 -28t-27.5 -11.5t-28 12t-12 28zM90 123v479q0 69 35.5 100.5t90.5 29.5l309 -14v-43h-309q-39 0 -54 -18.5 t-15 -54.5v-209l338 -8v-44l-338 -8v-210q0 -24 6.5 -38.5t19.5 -21t24 -8t29 -1.5h299v-42l-299 -15q-28 -1 -50 3t-43 16t-32 39.5t-11 67.5z" />
<glyph unicode="&#xcc;" horiz-adv-x="209" d="M-40 930h71l112 -133h-50zM90 0v732h57v-732h-57z" />
<glyph unicode="&#xcd;" horiz-adv-x="209" d="M93 797l112 133h71l-133 -133h-50zM90 0v732h57v-732h-57z" />
<glyph unicode="&#xce;" horiz-adv-x="209" d="M-25 797l123 130h53l110 -130h-53l-85 86l-94 -86h-54zM90 0v732h57v-732h-57z" />
<glyph unicode="&#xcf;" horiz-adv-x="209" d="M-49 836.5q0 16.5 11.5 28t28 11.5t28 -11.5t11.5 -28t-11.5 -28t-28 -11.5t-28 11.5t-11.5 28zM206 836.5q0 16.5 11.5 28t28 11.5t28 -11.5t11.5 -28t-11.5 -28t-28 -11.5t-28 11.5t-11.5 28zM90 0v732h57v-732h-57z" />
<glyph unicode="&#xd0;" horiz-adv-x="661" d="M25 353v40h65v338q0 1 262 1q47 0 85.5 -13t65 -34t46.5 -51.5t31.5 -62t18.5 -70t9.5 -70.5t2.5 -68q0 -43 -6 -84.5t-18.5 -83t-33.5 -76.5t-49 -62t-67 -42t-85 -15h-262v353h-65zM147 59h205q52 0 92 26t63 70t34 97t11 112q0 158 -52 233t-148 75l-205 -1v-278h145 v-40h-145v-294z" />
<glyph unicode="&#xd1;" horiz-adv-x="674" d="M182 835q25 21 38.5 31t35 20.5t40.5 10.5q25 -2 62.5 -25t50.5 -23q6 0 12.5 1t14 4t13.5 5t15 7.5t13 8t14 8.5t12 7l17 -30q-3 -2 -14 -11.5t-15.5 -13t-15 -11.5t-17 -11.5t-15.5 -7.5t-17.5 -6t-17.5 -1q-22 0 -43 12t-38.5 23.5t-32.5 11.5q-14 0 -27.5 -4t-22 -9 t-23 -13.5t-24.5 -13.5zM90 0v732h58l407 -625v625h57v-732h-57l-408 625v-625h-57z" />
<glyph unicode="&#xd2;" horiz-adv-x="675" d="M193 930h72l112 -133h-51zM73 361q0 72 7 128.5t18.5 96t31 67.5t40.5 44t52.5 25t60 12t68.5 3q42 0 71 -3t60 -12t51.5 -25t40 -44t30.5 -67.5t18 -95.5t7 -129q0 -80 -8 -139t-25 -99t-38 -65.5t-55 -39t-68.5 -18t-83.5 -4.5q-42 0 -72 2.5t-61.5 11.5t-52 25 t-39.5 42.5t-30 65.5t-17 93t-6 125zM130 361q0 -59 3.5 -102.5t11 -77t21 -55.5t29.5 -37t40.5 -22.5t51 -10.5t64.5 -3q52 0 85.5 6.5t61.5 25t43 53.5t23 89t8 134q0 51 -3.5 92t-8 72.5t-14 55t-19 40t-25.5 27.5t-29.5 17.5t-35.5 9.5t-39.5 4t-46.5 1q-42 0 -65 -2 t-53 -11t-45 -29.5t-30.5 -55t-21.5 -89.5t-6 -132z" />
<glyph unicode="&#xd3;" horiz-adv-x="675" d="M326 797l112 133h72l-133 -133h-51zM73 361q0 72 7 128.5t18.5 96t31 67.5t40.5 44t52.5 25t60 12t68.5 3q42 0 71 -3t60 -12t51.5 -25t40 -44t30.5 -67.5t18 -95.5t7 -129q0 -80 -8 -139t-25 -99t-38 -65.5t-55 -39t-68.5 -18t-83.5 -4.5q-42 0 -72 2.5t-61.5 11.5 t-52 25t-39.5 42.5t-30 65.5t-17 93t-6 125zM130 361q0 -59 3.5 -102.5t11 -77t21 -55.5t29.5 -37t40.5 -22.5t51 -10.5t64.5 -3q52 0 85.5 6.5t61.5 25t43 53.5t23 89t8 134q0 51 -3.5 92t-8 72.5t-14 55t-19 40t-25.5 27.5t-29.5 17.5t-35.5 9.5t-39.5 4t-46.5 1 q-42 0 -65 -2t-53 -11t-45 -29.5t-30.5 -55t-21.5 -89.5t-6 -132z" />
<glyph unicode="&#xd4;" horiz-adv-x="675" d="M209 797l122 130h54l109 -130h-53l-85 86l-94 -86h-53zM73 361q0 72 7 128.5t18.5 96t31 67.5t40.5 44t52.5 25t60 12t68.5 3q42 0 71 -3t60 -12t51.5 -25t40 -44t30.5 -67.5t18 -95.5t7 -129q0 -80 -8 -139t-25 -99t-38 -65.5t-55 -39t-68.5 -18t-83.5 -4.5 q-42 0 -72 2.5t-61.5 11.5t-52 25t-39.5 42.5t-30 65.5t-17 93t-6 125zM130 361q0 -59 3.5 -102.5t11 -77t21 -55.5t29.5 -37t40.5 -22.5t51 -10.5t64.5 -3q52 0 85.5 6.5t61.5 25t43 53.5t23 89t8 134q0 51 -3.5 92t-8 72.5t-14 55t-19 40t-25.5 27.5t-29.5 17.5t-35.5 9.5 t-39.5 4t-46.5 1q-42 0 -65 -2t-53 -11t-45 -29.5t-30.5 -55t-21.5 -89.5t-6 -132z" />
<glyph unicode="&#xd5;" horiz-adv-x="675" d="M182 835q25 21 39 31t35 20.5t40 10.5q20 -1 42 -13t41 -23.5t31 -11.5q6 0 12.5 1t14 4t13 5t14.5 7.5t13 8t14 8.5t13 7l16 -30q-2 -2 -13.5 -11.5t-16 -13t-14.5 -11.5t-16.5 -11.5t-16 -7.5t-18 -6t-17.5 -1q-17 0 -34 8t-28.5 16.5t-25 15.5t-25.5 7 q-19 0 -33.5 -5.5t-34 -17.5t-29.5 -17zM73 361q0 72 7 128.5t18.5 96t31 67.5t40.5 44t52.5 25t60 12t68.5 3q42 0 71 -3t60 -12t51.5 -25t40 -44t30.5 -67.5t18 -95.5t7 -129q0 -80 -8 -139t-25 -99t-38 -65.5t-55 -39t-68.5 -18t-83.5 -4.5q-42 0 -72 2.5t-61.5 11.5 t-52 25t-39.5 42.5t-30 65.5t-17 93t-6 125zM130 361q0 -59 3.5 -102.5t11 -77t21 -55.5t29.5 -37t40.5 -22.5t51 -10.5t64.5 -3q52 0 85.5 6.5t61.5 25t43 53.5t23 89t8 134q0 51 -3.5 92t-8 72.5t-14 55t-19 40t-25.5 27.5t-29.5 17.5t-35.5 9.5t-39.5 4t-46.5 1 q-42 0 -65 -2t-53 -11t-45 -29.5t-30.5 -55t-21.5 -89.5t-6 -132z" />
<glyph unicode="&#xd6;" horiz-adv-x="675" d="M185 836.5q0 16.5 11.5 28t28 11.5t27.5 -11.5t11 -27.5q0 -11 -5 -20t-14 -14.5t-20 -5.5q-16 0 -27.5 11.5t-11.5 28zM439 837q0 11 5.5 19.5t14.5 14t20 5.5q17 0 28 -11.5t11 -28t-11 -28t-27.5 -11.5t-28.5 11.5t-12 28.5zM73 361q0 72 7 128.5t18.5 96t31 67.5 t40.5 44t52.5 25t60 12t68.5 3q42 0 71 -3t60 -12t51.5 -25t40 -44t30.5 -67.5t18 -95.5t7 -129q0 -80 -8 -139t-25 -99t-38 -65.5t-55 -39t-68.5 -18t-83.5 -4.5q-42 0 -72 2.5t-61.5 11.5t-52 25t-39.5 42.5t-30 65.5t-17 93t-6 125zM130 361q0 -59 3.5 -102.5t11 -77 t21 -55.5t29.5 -37t40.5 -22.5t51 -10.5t64.5 -3q52 0 85.5 6.5t61.5 25t43 53.5t23 89t8 134q0 51 -3.5 92t-8 72.5t-14 55t-19 40t-25.5 27.5t-29.5 17.5t-35.5 9.5t-39.5 4t-46.5 1q-42 0 -65 -2t-53 -11t-45 -29.5t-30.5 -55t-21.5 -89.5t-6 -132z" />
<glyph unicode="&#xd7;" horiz-adv-x="451" d="M63 233l123 122l-123 124l40 40l123 -123l124 123l40 -40l-124 -124l124 -122l-40 -41l-124 123l-122 -122z" />
<glyph unicode="&#xd8;" horiz-adv-x="675" d="M73 361q0 64 4.5 115t14.5 88.5t23 66t32.5 47.5t39.5 30.5t48 18t54 8.5t62 2q65 0 109 -8.5t76 -34.5l25 38h46l-43 -66q65 -83 65 -305q0 -80 -8 -139t-25 -99t-38.5 -65.5t-55 -39t-68 -18t-83.5 -4.5q-68 0 -112.5 8.5t-76.5 33.5l-25 -38h-47l43 67q-60 79 -60 294 zM130 361q0 -175 38 -239l337 523q-25 22 -60 28.5t-94 6.5q-43 0 -65.5 -2t-52.5 -11t-45 -29.5t-30.5 -55t-21.5 -89.5t-6 -132zM194 90q17 -15 41 -23t51 -11t65 -3q51 0 85 6.5t62 25t43 53.5t23 89t8 134q0 184 -41 252z" />
<glyph unicode="&#xd9;" horiz-adv-x="679" d="M195 930h71l112 -133h-50zM90 320v412h57v-412q0 -56 5.5 -99t13 -71.5t24 -47.5t29.5 -29t39.5 -15t42.5 -5.5t50 -0.5h4q22 0 36 0.5t33.5 3t32 7.5t28 14.5t25 23t20 34t16 46.5t9.5 61t4 78v412h57v-412q0 -67 -8.5 -119.5t-21 -86.5t-35.5 -57.5t-41.5 -35.5 t-50 -18t-50.5 -7t-54 -1h-7q-38 0 -57.5 1t-52 7t-49.5 17.5t-39 35t-33 57.5t-19 86.5t-8 120.5z" />
<glyph unicode="&#xda;" horiz-adv-x="679" d="M328 797l112 133h71l-133 -133h-50zM90 320v412h57v-412q0 -56 5.5 -99t13 -71.5t24 -47.5t29.5 -29t39.5 -15t42.5 -5.5t50 -0.5h4q22 0 36 0.5t33.5 3t32 7.5t28 14.5t25 23t20 34t16 46.5t9.5 61t4 78v412h57v-412q0 -67 -8.5 -119.5t-21 -86.5t-35.5 -57.5 t-41.5 -35.5t-50 -18t-50.5 -7t-54 -1h-7q-38 0 -57.5 1t-52 7t-49.5 17.5t-39 35t-33 57.5t-19 86.5t-8 120.5z" />
<glyph unicode="&#xdb;" horiz-adv-x="679" d="M210 797l122 130h54l110 -130h-53l-85 86l-94 -86h-54zM90 320v412h57v-412q0 -56 5.5 -99t13 -71.5t24 -47.5t29.5 -29t39.5 -15t42.5 -5.5t50 -0.5h4q22 0 36 0.5t33.5 3t32 7.5t28 14.5t25 23t20 34t16 46.5t9.5 61t4 78v412h57v-412q0 -67 -8.5 -119.5t-21 -86.5 t-35.5 -57.5t-41.5 -35.5t-50 -18t-50.5 -7t-54 -1h-7q-38 0 -57.5 1t-52 7t-49.5 17.5t-39 35t-33 57.5t-19 86.5t-8 120.5z" />
<glyph unicode="&#xdc;" horiz-adv-x="679" d="M186 836.5q0 16.5 11.5 28t28 11.5t28 -11.5t11.5 -28t-11.5 -28t-28 -11.5t-28 11.5t-11.5 28zM441 837q0 11 5.5 19.5t14.5 14t20 5.5q16 0 27.5 -11.5t11.5 -28t-11.5 -28t-28 -11.5t-28 11.5t-11.5 28.5zM90 320v412h57v-412q0 -56 5.5 -99t13 -71.5t24 -47.5 t29.5 -29t39.5 -15t42.5 -5.5t50 -0.5h4q22 0 36 0.5t33.5 3t32 7.5t28 14.5t25 23t20 34t16 46.5t9.5 61t4 78v412h57v-412q0 -67 -8.5 -119.5t-21 -86.5t-35.5 -57.5t-41.5 -35.5t-50 -18t-50.5 -7t-54 -1h-7q-38 0 -57.5 1t-52 7t-49.5 17.5t-39 35t-33 57.5t-19 86.5 t-8 120.5z" />
<glyph unicode="&#xdd;" horiz-adv-x="626" d="M300 797l112 133h71l-133 -133h-50zM50 732h63l202 -403l223 403h62l-256 -472v-260h-57v260z" />
<glyph unicode="&#xde;" horiz-adv-x="555" d="M67 0v729h57v-141h204q176 -1 176 -213q0 -59 -11.5 -102t-28.5 -66t-42.5 -37t-46.5 -17.5t-47 -3.5h-21h-24.5t-24 0.5t-29.5 1.5t-30 3t-36.5 4.5t-38.5 6.5v-165h-57zM124 206h204q27 0 47 7t37 25t25.5 53t8.5 86q0 41 -8.5 70.5t-20 45t-29 24.5t-30.5 11t-30 2 h-204v-324z" />
<glyph unicode="&#xdf;" horiz-adv-x="568" d="M67 0v566q0 91 57.5 151t160.5 60q71 0 120 -18t71.5 -47t29 -65t-4 -71t-31 -66t-47.5 -50q-13 -10 -34 -25.5t-29.5 -23t-19.5 -18.5t-15 -21.5t-4 -23.5q0 -19 16.5 -31t42 -16.5t54.5 -12t54 -17.5t42 -33.5t17 -58.5v-47q0 -37 -14 -65t-37.5 -44t-50.5 -23.5 t-56 -7.5q-24 0 -52 2t-45 4.5t-44 6.5t-32 5v44q9 0 72 -2.5t104 -2.5q45 0 71 24.5t27 58.5v47q0 25 -23 38.5t-56.5 19.5t-66.5 14.5t-56.5 32t-23.5 64.5q0 44 23 71.5t102 85.5q55 40 60 105q5 58 -41 84t-123 26q-72 0 -116.5 -38.5t-44.5 -115.5v-566h-57z" />
<glyph unicode="&#xe0;" horiz-adv-x="519" d="M110 734h71l112 -133h-50zM45 126v61q0 41 16 71t46 46t71 16q229 -1 229 0q1 66 0 67q0 99 -99 99q-83 0 -246 -16v41q106 29 249 30q67 1 110 -37.5t43 -116.5v-387h-42l-15 64q-1 0 -16 -7t-39.5 -17.5t-53 -21t-61.5 -17.5t-59 -7q-57 0 -95 35t-38 97zM102 131 q0 -42 21.5 -61t54.5 -19q22 0 54 5.5t61.5 13.5t55.5 16t42 13l16 6v172l-229 -14q-76 -5 -76 -80v-52z" />
<glyph unicode="&#xe1;" horiz-adv-x="519" d="M238 601l111 133h72l-133 -133h-50zM45 126v61q0 41 16 71t46 46t71 16q229 -1 229 0q1 66 0 67q0 99 -99 99q-83 0 -246 -16v41q106 29 249 30q67 1 110 -37.5t43 -116.5v-387h-42l-15 64q-1 0 -16 -7t-39.5 -17.5t-53 -21t-61.5 -17.5t-59 -7q-57 0 -95 35t-38 97z M102 131q0 -42 21.5 -61t54.5 -19q22 0 54 5.5t61.5 13.5t55.5 16t42 13l16 6v172l-229 -14q-76 -5 -76 -80v-52z" />
<glyph unicode="&#xe2;" horiz-adv-x="519" d="M122 601l123 130h53l110 -130h-53l-85 86l-94 -86h-54zM45 126v61q0 41 16 71t46 46t71 16q229 -1 229 0q1 66 0 67q0 99 -99 99q-83 0 -246 -16v41q106 29 249 30q67 1 110 -37.5t43 -116.5v-387h-42l-15 64q-1 0 -16 -7t-39.5 -17.5t-53 -21t-61.5 -17.5t-59 -7 q-57 0 -95 35t-38 97zM102 131q0 -42 21.5 -61t54.5 -19q22 0 54 5.5t61.5 13.5t55.5 16t42 13l16 6v172l-229 -14q-76 -5 -76 -80v-52z" />
<glyph unicode="&#xe3;" horiz-adv-x="519" d="M91 642q25 21 38.5 31.5t35 20.5t40.5 10q25 -1 63 -24.5t50 -23.5q6 0 12.5 1t14.5 4t13.5 5.5t14.5 7.5t13 7.5t14 8.5t12 8l17 -30q-3 -3 -14 -12.5t-15.5 -13t-15 -11.5t-16.5 -11t-15.5 -7.5t-18 -6t-17.5 -1.5q-27 1 -62 24.5t-51 22.5q-19 0 -33.5 -5t-34.5 -17.5 t-30 -17.5zM45 126v61q0 41 16 71t46 46t71 16q229 -1 229 0q1 66 0 67q0 99 -99 99q-83 0 -246 -16v41q106 29 249 30q67 1 110 -37.5t43 -116.5v-387h-42l-15 64q-1 0 -16 -7t-39.5 -17.5t-53 -21t-61.5 -17.5t-59 -7q-57 0 -95 35t-38 97zM102 131q0 -42 21.5 -61 t54.5 -19q22 0 54 5.5t61.5 13.5t55.5 16t42 13l16 6v172l-229 -14q-76 -5 -76 -80v-52z" />
<glyph unicode="&#xe4;" horiz-adv-x="519" d="M97 652q0 16 11.5 27.5t28 11.5t27.5 -11.5t11 -27.5t-11 -28t-27.5 -12t-28 12t-11.5 28zM352 652q0 16 11.5 27.5t28 11.5t27.5 -11.5t11 -27.5t-11 -28t-27.5 -12t-28 12t-11.5 28zM45 126v61q0 41 16 71t46 46t71 16q229 -1 229 0q1 66 0 67q0 99 -99 99 q-83 0 -246 -16v41q106 29 249 30q67 1 110 -37.5t43 -116.5v-387h-42l-15 64q-1 0 -16 -7t-39.5 -17.5t-53 -21t-61.5 -17.5t-59 -7q-57 0 -95 35t-38 97zM102 131q0 -42 21.5 -61t54.5 -19q22 0 54 5.5t61.5 13.5t55.5 16t42 13l16 6v172l-229 -14q-76 -5 -76 -80v-52z " />
<glyph unicode="&#xe5;" horiz-adv-x="519" d="M162 673q0 28 13.5 51.5t37 37.5t51 14t51 -14t36.5 -37.5t13 -51.5q0 -43 -29 -72.5t-71 -29.5q-21 0 -40 8t-32.5 21.5t-21.5 32.5t-8 40zM197 673q0 -27 19.5 -46t47 -19t46.5 19t19 46t-19 46.5t-46 19.5t-47 -19.5t-20 -46.5zM45 126v61q0 41 16 71t46 46t71 16 q229 -1 229 0q1 66 0 67q0 99 -99 99q-83 0 -246 -16v41q106 29 249 30q67 1 110 -37.5t43 -116.5v-387h-42l-15 64q-1 0 -16 -7t-39.5 -17.5t-53 -21t-61.5 -17.5t-59 -7q-57 0 -95 35t-38 97zM102 131q0 -42 21.5 -61t54.5 -19q22 0 54 5.5t61.5 13.5t55.5 16t42 13l16 6 v172l-229 -14q-76 -5 -76 -80v-52z" />
<glyph unicode="&#xe6;" horiz-adv-x="877" d="M45 130v36q0 41 16 71t46 46t71 16q229 -1 229 0q1 91 0 92q0 98 -99 99q-80 0 -246 -16v41q94 28 249 30q98 2 134 -74q22 39 65.5 53.5t118.5 14.5q32 0 51 -1t43 -5t38.5 -11.5t29.5 -20.5t23 -32.5t13 -48t5 -65.5q0 -58 -33.5 -85.5t-103.5 -27.5h-230 q-1 -48 1.5 -76.5t9 -52t20 -35t34 -17t53.5 -5.5q144 -1 239 13v-42q-98 -28 -239 -28q-37 0 -63 5t-44 17t-27 21t-23 26l-17 -7t-44.5 -17.5t-59 -21t-66.5 -17.5t-61 -7q-57 0 -95 35t-38 97zM102 135q0 -42 21.5 -61t54.5 -19q16 0 37.5 3t42.5 8t43 11t40.5 12 t33.5 11t23 8l9 3v148l-229 -13q-40 -2 -58 -24t-18 -56v-31zM465 298h230q41 0 60.5 12.5t19.5 44.5q0 31 -2.5 51.5t-10 35t-16.5 22t-28 12t-37 5.5t-51 1q-35 0 -56 -2t-42 -8.5t-31.5 -18t-20 -32.5t-12.5 -50.5t-3 -72.5z" />
<glyph unicode="&#xe7;" horiz-adv-x="500" d="M56 266q0 68 8.5 117t23 78.5t38 47t48 23t57.5 5.5q80 0 218 -27v-40q-129 10 -218 10q-24 0 -40 -3.5t-32 -16t-25 -36t-15 -64t-6 -98.5q0 -84 14 -131t38.5 -63.5t65.5 -16.5t97 3.5t92 6.5l36 4v-42q-97 -28 -225 -29q-33 0 -57 5.5t-47 23t-38 47t-24 79t-9 117.5z M170 -146l46 12q27 8 38 30t11 68h50q0 -78 -21 -107t-80 -29h-44v26z" />
<glyph unicode="&#xe8;" horiz-adv-x="525" d="M125 727h71l112 -133h-50zM56 268q0 59 5 101.5t17.5 72.5t28.5 48t43 28t56 13.5t72 3.5q30 0 50.5 -1t43.5 -5.5t38 -12t29.5 -21.5t22.5 -34t13.5 -48.5t5.5 -65.5q0 -58 -33.5 -85.5t-103.5 -27.5h-231q0 -75 13.5 -115t37 -53.5t67.5 -13.5q148 0 240 13v-42 q-101 -29 -240 -28q-69 0 -106.5 26.5t-53 84t-15.5 162.5zM113 290h231q39 0 59.5 12.5t20.5 44.5q0 46 -6.5 71.5t-25.5 39t-43 17t-70 3.5q-35 0 -55.5 -1.5t-41.5 -8t-32 -18.5t-20.5 -33t-13 -52t-3.5 -75z" />
<glyph unicode="&#xe9;" horiz-adv-x="525" d="M249 594l112 133h72l-133 -133h-51zM56 268q0 59 5 101.5t17.5 72.5t28.5 48t43 28t56 13.5t72 3.5q30 0 50.5 -1t43.5 -5.5t38 -12t29.5 -21.5t22.5 -34t13.5 -48.5t5.5 -65.5q0 -58 -33.5 -85.5t-103.5 -27.5h-231q0 -75 13.5 -115t37 -53.5t67.5 -13.5q148 0 240 13 v-42q-101 -29 -240 -28q-69 0 -106.5 26.5t-53 84t-15.5 162.5zM113 290h231q39 0 59.5 12.5t20.5 44.5q0 46 -6.5 71.5t-25.5 39t-43 17t-70 3.5q-35 0 -55.5 -1.5t-41.5 -8t-32 -18.5t-20.5 -33t-13 -52t-3.5 -75z" />
<glyph unicode="&#xea;" horiz-adv-x="525" d="M130 594l122 130h54l110 -130h-53l-85 86l-94 -86h-54zM56 268q0 59 5 101.5t17.5 72.5t28.5 48t43 28t56 13.5t72 3.5q30 0 50.5 -1t43.5 -5.5t38 -12t29.5 -21.5t22.5 -34t13.5 -48.5t5.5 -65.5q0 -58 -33.5 -85.5t-103.5 -27.5h-231q0 -75 13.5 -115t37 -53.5 t67.5 -13.5q148 0 240 13v-42q-101 -29 -240 -28q-69 0 -106.5 26.5t-53 84t-15.5 162.5zM113 290h231q39 0 59.5 12.5t20.5 44.5q0 46 -6.5 71.5t-25.5 39t-43 17t-70 3.5q-35 0 -55.5 -1.5t-41.5 -8t-32 -18.5t-20.5 -33t-13 -52t-3.5 -75z" />
<glyph unicode="&#xeb;" horiz-adv-x="525" d="M107 645q0 11 5 20t14 14t20 5q16 0 27.5 -11t11.5 -27.5t-11.5 -28t-27.5 -11.5t-27.5 11.5t-11.5 27.5zM361 645.5q0 16.5 12 27.5t28 11t27.5 -11t11.5 -27.5t-11.5 -28t-27.5 -11.5t-28 11.5t-12 28zM56 268q0 59 5 101.5t17.5 72.5t28.5 48t43 28t56 13.5t72 3.5 q30 0 50.5 -1t43.5 -5.5t38 -12t29.5 -21.5t22.5 -34t13.5 -48.5t5.5 -65.5q0 -58 -33.5 -85.5t-103.5 -27.5h-231q0 -75 13.5 -115t37 -53.5t67.5 -13.5q148 0 240 13v-42q-101 -29 -240 -28q-69 0 -106.5 26.5t-53 84t-15.5 162.5zM113 290h231q39 0 59.5 12.5t20.5 44.5 q0 46 -6.5 71.5t-25.5 39t-43 17t-70 3.5q-35 0 -55.5 -1.5t-41.5 -8t-32 -18.5t-20.5 -33t-13 -52t-3.5 -75z" />
<glyph unicode="&#xec;" horiz-adv-x="191" d="M-63 729h72l112 -133h-51zM67 0v531h57v-531h-57z" />
<glyph unicode="&#xed;" horiz-adv-x="191" d="M70 596l112 133h72l-133 -133h-51zM67 0v531h57v-531h-57z" />
<glyph unicode="&#xee;" horiz-adv-x="191" d="M-47 596l122 130h54l109 -130h-53l-85 86l-93 -86h-54zM67 0v531h57v-531h-57z" />
<glyph unicode="&#xef;" horiz-adv-x="191" d="M-71 635.5q0 16.5 11.5 28t28 11.5t27.5 -11.5t11 -28t-11 -28t-27.5 -11.5t-28 11.5t-11.5 28zM184 635.5q0 16.5 11.5 28t28 11.5t27.5 -11.5t11 -28t-11 -28t-27.5 -11.5t-28 11.5t-11.5 28zM67 0v531h57v-531h-57z" />
<glyph unicode="&#xf0;" horiz-adv-x="538" d="M45 264q0 134 40 200.5t138 66.5h90q25 0 54.5 -10t38.5 -22q-27 105 -83 161l-151 -60l-17 45l124 49q-62 41 -150 39v50q130 0 210 -66l122 49l18 -45l-101 -40q115 -135 115 -417q0 -142 -47 -203t-133 -61h-90q-100 0 -139 62.5t-39 201.5zM102 264q0 -55 6 -93 t15.5 -60t26 -33.5t33 -15t40.5 -3.5h90q69 0 96 52t27 153q0 111 -25 160.5t-98 49.5h-90q-30 0 -50.5 -8t-37.5 -30t-25 -64.5t-8 -107.5z" />
<glyph unicode="&#xf1;" d="M110 638q25 21 38.5 31t35 20.5t40.5 10.5q25 -2 63 -25t50 -23q6 0 12.5 1t14.5 4t13.5 5t14.5 7.5t13 8t14 8.5t12 7l17 -30q-3 -2 -14 -11.5t-15.5 -13t-15 -11.5t-16.5 -11.5t-15.5 -7.5t-18 -6t-17.5 -1q-27 1 -62 24t-51 23q-19 0 -33.5 -5.5t-34.5 -17.5t-30 -17z M67 0v531h39l18 -62q28 17 47 27t45.5 21.5t54 17t56.5 5.5q51 0 89 -24.5t56.5 -62.5t18.5 -83v-370h-57v370q0 52 -29.5 82.5t-77.5 30.5q-57 0 -97 -13t-106 -45v-425h-57z" />
<glyph unicode="&#xf2;" horiz-adv-x="569" d="M133 729h72l111 -133h-50zM56 258q0 82 11.5 135t39.5 85t70 45t108 13q130 0 179.5 -61.5t49.5 -216.5q0 -148 -49.5 -205.5t-179.5 -57.5q-131 0 -180 58.5t-49 204.5zM113 258q0 -35 2.5 -63t8.5 -49t13.5 -36t19.5 -25.5t24 -17t30 -10t34.5 -4.5t39.5 -1 q38 0 62.5 3.5t47 15.5t35 34.5t20 60t7.5 92.5q0 50 -4.5 85.5t-14.5 60t-22.5 39.5t-34 23t-43 10.5t-54 2.5t-53 -2t-42 -9.5t-34 -22t-23 -39t-15 -61t-4.5 -87.5z" />
<glyph unicode="&#xf3;" horiz-adv-x="569" d="M260 596l111 133h72l-133 -133h-50zM56 258q0 82 11.5 135t39.5 85t70 45t108 13q130 0 179.5 -61.5t49.5 -216.5q0 -148 -49.5 -205.5t-179.5 -57.5q-131 0 -180 58.5t-49 204.5zM113 258q0 -35 2.5 -63t8.5 -49t13.5 -36t19.5 -25.5t24 -17t30 -10t34.5 -4.5t39.5 -1 q38 0 62.5 3.5t47 15.5t35 34.5t20 60t7.5 92.5q0 50 -4.5 85.5t-14.5 60t-22.5 39.5t-34 23t-43 10.5t-54 2.5t-53 -2t-42 -9.5t-34 -22t-23 -39t-15 -61t-4.5 -87.5z" />
<glyph unicode="&#xf4;" horiz-adv-x="569" d="M145 596l122 130h54l110 -130h-53l-85 86l-94 -86h-54zM56 258q0 82 11.5 135t39.5 85t70 45t108 13q130 0 179.5 -61.5t49.5 -216.5q0 -148 -49.5 -205.5t-179.5 -57.5q-131 0 -180 58.5t-49 204.5zM113 258q0 -35 2.5 -63t8.5 -49t13.5 -36t19.5 -25.5t24 -17t30 -10 t34.5 -4.5t39.5 -1q38 0 62.5 3.5t47 15.5t35 34.5t20 60t7.5 92.5q0 50 -4.5 85.5t-14.5 60t-22.5 39.5t-34 23t-43 10.5t-54 2.5t-53 -2t-42 -9.5t-34 -22t-23 -39t-15 -61t-4.5 -87.5z" />
<glyph unicode="&#xf5;" horiz-adv-x="569" d="M122 634q25 21 38.5 31t35 20.5t40.5 10.5q25 -2 62.5 -25t50.5 -23q5 0 10 0.5t10.5 2t10.5 3.5t11 5t10.5 5.5t11 6t10.5 6t10.5 6.5t9.5 6l17 -30q-3 -2 -14.5 -11.5t-15.5 -13t-14.5 -11.5t-17 -11.5t-15.5 -7.5t-18 -6t-17 -1q-28 1 -63 24t-51 23q-19 0 -33.5 -5.5 t-34 -17.5t-29.5 -17zM56 258q0 82 11.5 135t39.5 85t70 45t108 13q130 0 179.5 -61.5t49.5 -216.5q0 -148 -49.5 -205.5t-179.5 -57.5q-131 0 -180 58.5t-49 204.5zM113 258q0 -35 2.5 -63t8.5 -49t13.5 -36t19.5 -25.5t24 -17t30 -10t34.5 -4.5t39.5 -1q38 0 62.5 3.5 t47 15.5t35 34.5t20 60t7.5 92.5q0 50 -4.5 85.5t-14.5 60t-22.5 39.5t-34 23t-43 10.5t-54 2.5t-53 -2t-42 -9.5t-34 -22t-23 -39t-15 -61t-4.5 -87.5z" />
<glyph unicode="&#xf6;" horiz-adv-x="569" d="M119 635.5q0 16.5 11.5 28t28 11.5t27.5 -11.5t11 -28t-11.5 -28t-27.5 -11.5t-27.5 11.5t-11.5 28zM373 636q0 11 5.5 19.5t14.5 14t20 5.5q17 0 28 -11.5t11 -28t-11.5 -28t-27.5 -11.5t-28 11.5t-12 28.5zM56 258q0 82 11.5 135t39.5 85t70 45t108 13 q130 0 179.5 -61.5t49.5 -216.5q0 -148 -49.5 -205.5t-179.5 -57.5q-131 0 -180 58.5t-49 204.5zM113 258q0 -35 2.5 -63t8.5 -49t13.5 -36t19.5 -25.5t24 -17t30 -10t34.5 -4.5t39.5 -1q38 0 62.5 3.5t47 15.5t35 34.5t20 60t7.5 92.5q0 50 -4.5 85.5t-14.5 60t-22.5 39.5 t-34 23t-43 10.5t-54 2.5t-53 -2t-42 -9.5t-34 -22t-23 -39t-15 -61t-4.5 -87.5z" />
<glyph unicode="&#xf7;" horiz-adv-x="527" d="M56 324v58h416v-58h-416zM229 168v50q0 21 20 21h37q19 0 19 -21v-50q0 -19 -19 -19h-37q-6 0 -10.5 2.5t-7 7t-2.5 9.5zM229 479v51q0 20 20 20h37q19 0 19 -20v-51q0 -18 -19 -18h-37q-4 0 -8 1t-6.5 3.5t-4 6t-1.5 7.5z" />
<glyph unicode="&#xf8;" horiz-adv-x="569" d="M56 258q0 109 22.5 169t71 84.5t135.5 24.5q96 0 145 -32l21 27h50l-39 -53q52 -60 52 -220q0 -148 -49.5 -205.5t-179.5 -57.5q-104 0 -155 36l-23 -31h-47l42 57q-46 57 -46 201zM113 258q0 -104 27 -150l257 349q-33 22 -112 22q-33 0 -53.5 -2t-42 -9.5t-34 -22 t-23 -39t-15 -61t-4.5 -87.5zM164 78q33 -26 121 -26q31 0 52.5 2.5t42.5 9.5t34 21t23.5 37t15 56.5t4.5 79.5q0 124 -32 172z" />
<glyph unicode="&#xf9;" d="M116 729h72l112 -133h-51zM56 161v370h57v-370q0 -52 29.5 -82.5t77.5 -30.5q57 0 97 13t106 46v424h57v-531h-39l-18 62q-38 -22 -63 -35t-63.5 -24.5t-76.5 -11.5q-76 0 -120 50t-44 120z" />
<glyph unicode="&#xfa;" d="M243 596l112 133h71l-133 -133h-50zM56 161v370h57v-370q0 -52 29.5 -82.5t77.5 -30.5q57 0 97 13t106 46v424h57v-531h-39l-18 62q-38 -22 -63 -35t-63.5 -24.5t-76.5 -11.5q-76 0 -120 50t-44 120z" />
<glyph unicode="&#xfb;" d="M125 596l123 130h53l110 -130h-53l-85 86l-94 -86h-54zM56 161v370h57v-370q0 -52 29.5 -82.5t77.5 -30.5q57 0 97 13t106 46v424h57v-531h-39l-18 62q-38 -22 -63 -35t-63.5 -24.5t-76.5 -11.5q-76 0 -120 50t-44 120z" />
<glyph unicode="&#xfc;" d="M101 635.5q0 16.5 11.5 28t28 11.5t28 -11.5t11.5 -28t-11.5 -28t-28 -11.5t-28 11.5t-11.5 28zM356 635.5q0 16.5 11.5 28t28 11.5t28 -11.5t11.5 -27.5q0 -11 -5.5 -20t-14 -14.5t-19.5 -5.5q-17 0 -28.5 11.5t-11.5 28zM56 161v370h57v-370q0 -52 29.5 -82.5 t77.5 -30.5q57 0 97 13t106 46v424h57v-531h-39l-18 62q-38 -22 -63 -35t-63.5 -24.5t-76.5 -11.5q-76 0 -120 50t-44 120z" />
<glyph unicode="&#xfd;" horiz-adv-x="545" d="M247 596l112 133h71l-133 -133h-50zM23 531h63l135 -415q21 -61 69 -58l9 1l159 472h63l-234 -699l-65 -102h-34l91 270q-86 1 -119 110z" />
<glyph unicode="&#xfe;" horiz-adv-x="556" d="M78 -270v1052h57v-311q26 19 91.5 44t110.5 25q49 0 84.5 -23t54.5 -63t27.5 -86t8.5 -101q0 -45 -3 -80.5t-14 -74t-29.5 -64t-51 -42t-77.5 -16.5q-38 0 -98 10.5t-104 28.5v-299h-57zM135 73q30 -8 56 -13t54 -7.5t44 -3.5t48 -2q61 0 89.5 50t28.5 172 q0 104 -31.5 159t-86.5 55q-72 -3 -202 -53v-357z" />
<glyph unicode="&#xff;" horiz-adv-x="545" d="M105 636q0 16 11.5 27.5t28 11.5t28 -11.5t11.5 -28t-11.5 -28t-27.5 -11.5q-11 0 -20 5.5t-14.5 14.5t-5.5 20zM360 636q0 11 5.5 19.5t14.5 14t20 5.5q16 0 27.5 -11.5t11.5 -28t-11.5 -28t-27.5 -11.5t-28 11.5t-12 28.5zM23 531h63l135 -415q21 -61 69 -58l9 1 l159 472h63l-234 -699l-65 -102h-34l91 270q-86 1 -119 110z" />
<glyph unicode="&#x100;" horiz-adv-x="666" d="M212 797v47h279v-47h-279zM50 0l271 732h61l258 -732h-67l-72 221h-306l-76 -221h-69zM216 278h265l-130 371z" />
<glyph unicode="&#x101;" horiz-adv-x="519" d="M131 601v47h279v-47h-279zM45 126v61q0 41 16 71t46 46t71 16q229 -1 229 0q1 66 0 67q0 99 -99 99q-83 0 -246 -16v41q106 29 249 30q67 1 110 -37.5t43 -116.5v-387h-42l-15 64q-1 0 -16 -7t-39.5 -17.5t-53 -21t-61.5 -17.5t-59 -7q-57 0 -95 35t-38 97zM102 131 q0 -42 21.5 -61t54.5 -19q22 0 54 5.5t61.5 13.5t55.5 16t42 13l16 6v172l-229 -14q-76 -5 -76 -80v-52z" />
<glyph unicode="&#x102;" horiz-adv-x="666" d="M239 911h36q0 -33 23.5 -55.5t54.5 -22.5q35 0 57.5 21.5t22.5 56.5h36q0 -27 -10.5 -49.5t-27 -36t-37 -21t-41.5 -7.5q-44 0 -79 31.5t-35 82.5zM50 0l271 732h61l258 -732h-67l-72 221h-306l-76 -221h-69zM216 278h265l-130 371z" />
<glyph unicode="&#x103;" horiz-adv-x="519" d="M157 715h36q0 -33 23.5 -55.5t54.5 -22.5q35 0 57.5 21.5t22.5 56.5h36q0 -53 -35 -83.5t-81 -30.5q-44 0 -79 31.5t-35 82.5zM45 126v61q0 41 16 71t46 46t71 16q229 -1 229 0q1 66 0 67q0 99 -99 99q-83 0 -246 -16v41q106 29 249 30q67 1 110 -37.5t43 -116.5v-387 h-42l-15 64q-1 0 -16 -7t-39.5 -17.5t-53 -21t-61.5 -17.5t-59 -7q-57 0 -95 35t-38 97zM102 131q0 -42 21.5 -61t54.5 -19q22 0 54 5.5t61.5 13.5t55.5 16t42 13l16 6v172l-229 -14q-76 -5 -76 -80v-52z" />
<glyph unicode="&#x104;" horiz-adv-x="666" d="M594 0h30q-45 -29 -59.5 -61.5t5.5 -53.5t67 -22v-44q-34 -5 -63.5 6t-44.5 32.5t-17.5 46t18.5 51.5t64 45zM50 0l271 732h61l258 -732h-67l-72 221h-306l-76 -221h-69zM216 278h265l-130 371z" />
<glyph unicode="&#x105;" horiz-adv-x="533" d="M435 0h30q-45 -29 -59 -61.5t5.5 -53.5t66.5 -22v-44q-33 -5 -63 6t-45 32.5t-17.5 46t19 51.5t63.5 45zM51 126v61q0 41 16 71t46 46t71 16q229 -1 229 0q1 66 0 67q0 99 -98 99q-83 0 -247 -16v41q107 29 249 30q67 1 110 -37.5t43 -116.5v-387h-41l-16 64l-15 -7 t-39.5 -17.5t-53.5 -21t-62 -17.5t-59 -7q-57 0 -95 35t-38 97zM108 131q0 -29 11.5 -47.5t27.5 -25.5t37 -7q23 0 54.5 5.5t61 13.5t55.5 16t42 13l16 6v172l-229 -14q-76 -5 -76 -80v-52z" />
<glyph unicode="&#x106;" horiz-adv-x="575" d="M302 800l112 133h71l-133 -133h-50zM61 368q0 74 6.5 128.5t22.5 102.5t43 77.5t70 46.5t102 17q39 0 110.5 -7.5t123.5 -17.5v-43l-8.5 0.5t-22.5 1.5t-32.5 2t-40.5 2.5t-43.5 2.5t-44.5 1.5t-42 0.5q-69 0 -108 -26t-59 -95t-20 -196q0 -315 187 -315q30 0 65 1 t63.5 2t53 2.5t38.5 2.5l14 1v-44q-50 -9 -121 -15.5t-113 -6.5q-244 0 -244 374z" />
<glyph unicode="&#x107;" horiz-adv-x="500" d="M245 597l111 133h72l-133 -133h-50zM56 266q0 68 9 117t23 78.5t37.5 46.5t47.5 22.5t58 5.5q86 0 218 -26v-40q-129 9 -218 9q-17 0 -29 -1.5t-25 -7t-22 -14.5t-17.5 -25t-13.5 -39t-8 -55.5t-3 -74.5q0 -83 14 -130t38.5 -63.5t65.5 -16.5t97 3.5t92 7.5l36 3v-42 q-97 -27 -225 -29q-33 0 -57 5.5t-47.5 23t-38 46.5t-23.5 78.5t-9 117.5z" />
<glyph unicode="&#x108;" horiz-adv-x="575" d="M188 800l122 130h54l109 -130h-53l-85 86l-93 -86h-54zM61 368q0 74 6.5 128.5t22.5 102.5t43 77.5t70 46.5t102 17q39 0 110.5 -7.5t123.5 -17.5v-43l-8.5 0.5t-22.5 1.5t-32.5 2t-40.5 2.5t-43.5 2.5t-44.5 1.5t-42 0.5q-69 0 -108 -26t-59 -95t-20 -196 q0 -315 187 -315q30 0 65 1t63.5 2t53 2.5t38.5 2.5l14 1v-44q-50 -9 -121 -15.5t-113 -6.5q-244 0 -244 374z" />
<glyph unicode="&#x109;" horiz-adv-x="500" d="M136 597l122 130h53l110 -130h-53l-85 86l-94 -86h-53zM56 266q0 68 9 117t23 78.5t37.5 46.5t47.5 22.5t58 5.5q86 0 218 -26v-40q-129 9 -218 9q-17 0 -29 -1.5t-25 -7t-22 -14.5t-17.5 -25t-13.5 -39t-8 -55.5t-3 -74.5q0 -83 14 -130t38.5 -63.5t65.5 -16.5t97 3.5 t92 7.5l36 3v-42q-97 -27 -225 -29q-33 0 -57 5.5t-47.5 23t-38 46.5t-23.5 78.5t-9 117.5z" />
<glyph unicode="&#x10a;" horiz-adv-x="575" d="M303 821v56q0 21 20 21h37q19 0 19 -21v-56q0 -20 -19 -20h-37q-8 0 -14 5.5t-6 14.5zM61 368q0 74 6.5 128.5t22.5 102.5t43 77.5t70 46.5t102 17q39 0 110.5 -7.5t123.5 -17.5v-43l-8.5 0.5t-22.5 1.5t-32.5 2t-40.5 2.5t-43.5 2.5t-44.5 1.5t-42 0.5q-69 0 -108 -26 t-59 -95t-20 -196q0 -315 187 -315q30 0 65 1t63.5 2t53 2.5t38.5 2.5l14 1v-44q-50 -9 -121 -15.5t-113 -6.5q-244 0 -244 374z" />
<glyph unicode="&#x10b;" horiz-adv-x="500" d="M250 618v57q0 20 20 20h36q20 0 20 -20v-57q0 -19 -20 -19h-36q-9 0 -14.5 5t-5.5 14zM56 266q0 68 9 117t23 78.5t37.5 46.5t47.5 22.5t58 5.5q86 0 218 -26v-40q-129 9 -218 9q-17 0 -29 -1.5t-25 -7t-22 -14.5t-17.5 -25t-13.5 -39t-8 -55.5t-3 -74.5q0 -83 14 -130 t38.5 -63.5t65.5 -16.5t97 3.5t92 7.5l36 3v-42q-97 -27 -225 -29q-33 0 -57 5.5t-47.5 23t-38 46.5t-23.5 78.5t-9 117.5z" />
<glyph unicode="&#x10c;" horiz-adv-x="575" d="M193 930h53l91 -86l88 86h53l-113 -130h-55zM61 368q0 74 6.5 128.5t22.5 102.5t43 77.5t70 46.5t102 17q39 0 110.5 -7.5t123.5 -17.5v-43l-8.5 0.5t-22.5 1.5t-32.5 2t-40.5 2.5t-43.5 2.5t-44.5 1.5t-42 0.5q-69 0 -108 -26t-59 -95t-20 -196q0 -315 187 -315 q30 0 65 1t63.5 2t53 2.5t38.5 2.5l14 1v-44q-50 -9 -121 -15.5t-113 -6.5q-244 0 -244 374z" />
<glyph unicode="&#x10d;" horiz-adv-x="500" d="M131 727h53l91 -86l88 86h53l-113 -130h-54zM56 266q0 68 9 117t23 78.5t37.5 46.5t47.5 22.5t58 5.5q86 0 218 -26v-40q-129 9 -218 9q-17 0 -29 -1.5t-25 -7t-22 -14.5t-17.5 -25t-13.5 -39t-8 -55.5t-3 -74.5q0 -83 14 -130t38.5 -63.5t65.5 -16.5t97 3.5t92 7.5l36 3 v-42q-97 -27 -225 -29q-33 0 -57 5.5t-47.5 23t-38 46.5t-23.5 78.5t-9 117.5z" />
<glyph unicode="&#x10e;" horiz-adv-x="661" d="M189 922h53l91 -86l88 86h53l-114 -130h-54zM90 0v732h265q41 0 76 -9.5t60 -27t45 -40.5t33.5 -51.5t22.5 -57.5t14 -62t7 -61.5t2 -59.5q0 -52 -8.5 -101.5t-28.5 -97.5t-49 -84t-74 -58t-100 -22h-265zM147 59h208q52 0 92 26t63.5 70t35.5 97t12 112q0 311 -203 311 h-208v-616z" />
<glyph unicode="&#x10f;" horiz-adv-x="553" d="M56 263q0 45 4 81.5t15.5 74t30.5 63t51.5 41.5t76.5 16q37 0 94.5 -11t102.5 -29v286h55v-785h-39l-17 59q-23 -19 -86.5 -42t-109.5 -23q-42 0 -74 16.5t-51.5 42.5t-31.5 62.5t-16.5 72t-4.5 75.5zM113 263q0 -107 32.5 -159.5t88.5 -52.5q85 0 196 49v355 q-105 27 -196 27q-22 0 -39.5 -5.5t-33.5 -20t-26 -39t-16 -63.5t-6 -91zM539 758l49 23l9 -45l-7 -111l-37 -45l-11 88z" />
<glyph unicode="&#x110;" horiz-adv-x="661" d="M25 353v40h65v338q0 1 262 1q47 0 85.5 -13t65 -34t46.5 -51.5t31.5 -62t18.5 -70t9.5 -70.5t2.5 -68q0 -52 -8.5 -101.5t-28 -97.5t-48.5 -84t-74 -58t-100 -22h-262v353h-65zM147 59h205q52 0 92 26t63 70t34 97t11 112q0 158 -52 233t-148 75l-205 -1v-278h145v-40 h-145v-294z" />
<glyph unicode="&#x111;" horiz-adv-x="553" d="M56 263q0 45 4 81.5t15.5 74t30.5 63t52 41.5t77 16q37 0 94 -11t102 -29v125h-126v41h126v120h56v-120h75v-41h-75v-624h-40l-16 59q-24 -19 -87 -42t-109 -23q-42 0 -74.5 16.5t-51.5 42.5t-31.5 62.5t-17 72t-4.5 75.5zM113 263q0 -105 33 -158.5t89 -53.5 q84 0 196 49v355q-105 27 -196 27q-19 0 -34 -4t-29 -13.5t-24.5 -26t-18.5 -40t-12 -57.5t-4 -78z" />
<glyph unicode="&#x112;" horiz-adv-x="572" d="M185 795v47h278v-47h-278zM90 123v479q0 69 35.5 100.5t90.5 29.5l309 -14v-43h-309q-39 0 -54 -18.5t-15 -54.5v-209l338 -8v-44l-338 -8v-210q0 -24 6.5 -38.5t19.5 -21t24 -8t29 -1.5h299v-42l-299 -15q-28 -1 -50 3t-43 16t-32 39.5t-11 67.5z" />
<glyph unicode="&#x113;" horiz-adv-x="525" d="M134 595v47h278v-47h-278zM56 268q0 59 5 101.5t17.5 72.5t28.5 48t43 28t56 13.5t72 3.5q30 0 50.5 -1t43.5 -5.5t38 -12t29.5 -21.5t22.5 -34t13.5 -48.5t5.5 -65.5q0 -58 -33.5 -85.5t-103.5 -27.5h-231q0 -75 13.5 -115t37 -53.5t67.5 -13.5q148 0 240 13v-42 q-101 -29 -240 -28q-69 0 -106.5 26.5t-53 84t-15.5 162.5zM113 290h231q39 0 59.5 12.5t20.5 44.5q0 46 -6.5 71.5t-25.5 39t-43 17t-70 3.5q-35 0 -55.5 -1.5t-41.5 -8t-32 -18.5t-20.5 -33t-13 -52t-3.5 -75z" />
<glyph unicode="&#x116;" horiz-adv-x="572" d="M287 814v57q0 21 20 21h37q19 0 19 -21v-57q0 -19 -19 -19h-37q-9 0 -14.5 5.5t-5.5 13.5zM90 123v479q0 69 35.5 100.5t90.5 29.5l309 -14v-43h-309q-39 0 -54 -18.5t-15 -54.5v-209l338 -8v-44l-338 -8v-210q0 -24 6.5 -38.5t19.5 -21t24 -8t29 -1.5h299v-42l-299 -15 q-28 -1 -50 3t-43 16t-32 39.5t-11 67.5z" />
<glyph unicode="&#x117;" horiz-adv-x="525" d="M241 615v57q0 21 20 21h36q20 0 20 -21v-57q0 -19 -20 -19h-36q-6 0 -10.5 2.5t-7 7t-2.5 9.5zM56 268q0 59 5 101.5t17.5 72.5t28.5 48t43 28t56 13.5t72 3.5q30 0 50.5 -1t43.5 -5.5t38 -12t29.5 -21.5t22.5 -34t13.5 -48.5t5.5 -65.5q0 -58 -33.5 -85.5t-103.5 -27.5 h-231q0 -75 13.5 -115t37 -53.5t67.5 -13.5q148 0 240 13v-42q-101 -29 -240 -28q-69 0 -106.5 26.5t-53 84t-15.5 162.5zM113 290h231q39 0 59.5 12.5t20.5 44.5q0 46 -6.5 71.5t-25.5 39t-43 17t-70 3.5q-35 0 -55.5 -1.5t-41.5 -8t-32 -18.5t-20.5 -33t-13 -52t-3.5 -75z " />
<glyph unicode="&#x118;" horiz-adv-x="572" d="M495 12h30q-34 -22 -50.5 -47t-14.5 -44.5t22.5 -32.5t55.5 -13v-44q-34 -5 -63.5 6t-44.5 32t-17.5 46t18.5 51.5t64 45.5zM90 123v479q0 69 35.5 100.5t90.5 29.5l309 -14v-43h-309q-39 0 -54 -18.5t-15 -54.5v-209l338 -8v-44l-338 -8v-210q0 -24 6.5 -38.5t19.5 -21 t24 -8t29 -1.5h299v-42l-299 -15q-28 -1 -50 3t-43 16t-32 39.5t-11 67.5z" />
<glyph unicode="&#x119;" horiz-adv-x="525" d="M441 23h30q-34 -22 -50.5 -46.5t-14.5 -44t22 -33t55 -13.5v-44q-33 -5 -62.5 6t-44.5 32.5t-18 46t18.5 51.5t64.5 45zM56 268q0 59 5 101.5t17.5 72.5t28.5 48t43 28t56 13.5t72 3.5q30 0 50.5 -1t43.5 -5.5t38 -12t29.5 -21.5t22.5 -34t13.5 -48.5t5.5 -65.5 q0 -58 -33.5 -85.5t-103.5 -27.5h-231q0 -75 13.5 -115t37 -53.5t67.5 -13.5q148 0 240 13v-42q-101 -29 -240 -28q-69 0 -106.5 26.5t-53 84t-15.5 162.5zM113 290h231q39 0 59.5 12.5t20.5 44.5q0 46 -6.5 71.5t-25.5 39t-43 17t-70 3.5q-35 0 -55.5 -1.5t-41.5 -8 t-32 -18.5t-20.5 -33t-13 -52t-3.5 -75z" />
<glyph unicode="&#x11a;" horiz-adv-x="572" d="M181 922h53l91 -86l88 86h53l-113 -130h-54zM90 123v479q0 69 35.5 100.5t90.5 29.5l309 -14v-43h-309q-39 0 -54 -18.5t-15 -54.5v-209l338 -8v-44l-338 -8v-210q0 -24 6.5 -38.5t19.5 -21t24 -8t29 -1.5h299v-42l-299 -15q-28 -1 -50 3t-43 16t-32 39.5t-11 67.5z" />
<glyph unicode="&#x11b;" horiz-adv-x="525" d="M138 723h53l91 -86l88 86h53l-113 -130h-55zM56 268q0 59 5 101.5t17.5 72.5t28.5 48t43 28t56 13.5t72 3.5q30 0 50.5 -1t43.5 -5.5t38 -12t29.5 -21.5t22.5 -34t13.5 -48.5t5.5 -65.5q0 -58 -33.5 -85.5t-103.5 -27.5h-231q0 -75 13.5 -115t37 -53.5t67.5 -13.5 q148 0 240 13v-42q-101 -29 -240 -28q-69 0 -106.5 26.5t-53 84t-15.5 162.5zM113 290h231q39 0 59.5 12.5t20.5 44.5q0 46 -6.5 71.5t-25.5 39t-43 17t-70 3.5q-35 0 -55.5 -1.5t-41.5 -8t-32 -18.5t-20.5 -33t-13 -52t-3.5 -75z" />
<glyph unicode="&#x11c;" horiz-adv-x="616" d="M190 800l122 130h54l110 -130h-53l-85 86l-94 -86h-54zM61 370q0 66 4.5 116t19 100t39 82t66.5 52t100 20q39 0 119.5 -8.5t132.5 -18.5v-45q-1 0 -18.5 1.5t-45 3.5t-59 4.5t-67 4t-62.5 1.5q-43 0 -73 -13.5t-49.5 -37.5t-30 -64.5t-15 -87t-4.5 -112.5 q0 -175 38 -245.5t138 -71.5q34 0 86 12t87 24l35 12v232h-184v38q74 20 173 20q32 0 68 -3v-386h-42l-13 51q-22 -12 -50 -23.5t-73 -22t-87 -10.5q-43 0 -77.5 9.5t-59 26.5t-42 44.5t-27.5 57.5t-16.5 71t-8.5 79t-2 87z" />
<glyph unicode="&#x11d;" horiz-adv-x="560" d="M135 597l122 130h54l109 -130h-53l-85 86l-93 -86h-54zM53 117q0 27 18 50t50 28q-68 36 -68 149q0 189 173 189h312v-42l-91 -15q0 -1 6 -8.5t8 -11t7.5 -12.5t8 -17.5t5.5 -21t4.5 -28t1.5 -33.5q0 -21 -3.5 -42.5t-14 -48.5t-27.5 -47.5t-48 -34.5t-72 -14h-156 q-11 0 -22.5 -2t-23 -11.5t-11.5 -25.5q0 -21 16.5 -31.5t37.5 -10.5h211q42 0 72.5 -17t46 -47.5t15.5 -71.5v-59q0 -17 -2 -32.5t-7.5 -33.5t-16.5 -32.5t-26.5 -26.5t-40.5 -19t-57 -7h-150q-48 0 -83 17t-55.5 52t-20.5 85v88l31 79q-28 21 -28 66zM108 -116 q0 -30 10 -51t27 -30t32 -12.5t32 -3.5h150q93 0 93 94v56q0 41 -18.5 62t-67.5 21h-201q-17 0 -31.5 3.5t-19.5 7.5l-6 4v-151zM110 344q0 -57 26.5 -93.5t82.5 -36.5h99q32 0 55.5 12.5t35.5 32t17.5 41t4.5 44.5q-1 66 -24.5 99t-74.5 33h-109q-63 0 -88 -36t-25 -96z " />
<glyph unicode="&#x11e;" horiz-adv-x="616" d="M223 914h36q0 -33 23.5 -55.5t54.5 -22.5q35 0 57.5 21.5t22.5 56.5h36q0 -27 -10.5 -49.5t-27 -36t-37 -21t-41.5 -7.5q-44 0 -79 31.5t-35 82.5zM61 370q0 66 4.5 116t19 100t39 82t66.5 52t100 20q39 0 119.5 -8.5t132.5 -18.5v-45q-1 0 -18.5 1.5t-45 3.5t-59 4.5 t-67 4t-62.5 1.5q-43 0 -73 -13.5t-49.5 -37.5t-30 -64.5t-15 -87t-4.5 -112.5q0 -175 38 -245.5t138 -71.5q34 0 86 12t87 24l35 12v232h-184v38q74 20 173 20q32 0 68 -3v-386h-42l-13 51q-22 -12 -50 -23.5t-73 -22t-87 -10.5q-43 0 -77.5 9.5t-59 26.5t-42 44.5 t-27.5 57.5t-16.5 71t-8.5 79t-2 87z" />
<glyph unicode="&#x11f;" horiz-adv-x="560" d="M161 711h35q0 -33 24 -56t55 -23q22 1 40.5 10.5t29 27t10.5 41.5h36q0 -54 -35.5 -84t-80.5 -30q-21 0 -41.5 7.5t-36.5 22t-26 36.5t-10 48zM53 117q0 27 18 50t50 28q-68 36 -68 149q0 189 173 189h312v-42l-91 -15q0 -1 6 -8.5t8 -11t7.5 -12.5t8 -17.5t5.5 -21 t4.5 -28t1.5 -33.5q0 -21 -3.5 -42.5t-14 -48.5t-27.5 -47.5t-48 -34.5t-72 -14h-156q-11 0 -22.5 -2t-23 -11.5t-11.5 -25.5q0 -21 16.5 -31.5t37.5 -10.5h211q42 0 72.5 -17t46 -47.5t15.5 -71.5v-59q0 -17 -2 -32.5t-7.5 -33.5t-16.5 -32.5t-26.5 -26.5t-40.5 -19t-57 -7 h-150q-48 0 -83 17t-55.5 52t-20.5 85v88l31 79q-28 21 -28 66zM108 -116q0 -30 10 -51t27 -30t32 -12.5t32 -3.5h150q93 0 93 94v56q0 41 -18.5 62t-67.5 21h-201q-17 0 -31.5 3.5t-19.5 7.5l-6 4v-151zM110 344q0 -57 26.5 -93.5t82.5 -36.5h99q32 0 55.5 12.5t35.5 32 t17.5 41t4.5 44.5q-1 66 -24.5 99t-74.5 33h-109q-63 0 -88 -36t-25 -96z" />
<glyph unicode="&#x120;" horiz-adv-x="616" d="M294 819v57q0 21 20 21h37q19 0 19 -21v-57q0 -19 -19 -19h-37q-5 0 -9.5 2.5t-7.5 7t-3 9.5zM61 370q0 66 4.5 116t19 100t39 82t66.5 52t100 20q39 0 119.5 -8.5t132.5 -18.5v-45q-1 0 -18.5 1.5t-45 3.5t-59 4.5t-67 4t-62.5 1.5q-43 0 -73 -13.5t-49.5 -37.5 t-30 -64.5t-15 -87t-4.5 -112.5q0 -175 38 -245.5t138 -71.5q34 0 86 12t87 24l35 12v232h-184v38q74 20 173 20q32 0 68 -3v-386h-42l-13 51q-22 -12 -50 -23.5t-73 -22t-87 -10.5q-43 0 -77.5 9.5t-59 26.5t-42 44.5t-27.5 57.5t-16.5 71t-8.5 79t-2 87z" />
<glyph unicode="&#x121;" horiz-adv-x="560" d="M243 617v57q0 21 20 21h37q19 0 19 -21v-57q0 -19 -19 -19h-37q-6 0 -10.5 2.5t-7 7t-2.5 9.5zM53 117q0 27 18 50t50 28q-68 36 -68 149q0 189 173 189h312v-42l-91 -15q0 -1 6 -8.5t8 -11t7.5 -12.5t8 -17.5t5.5 -21t4.5 -28t1.5 -33.5q0 -21 -3.5 -42.5t-14 -48.5 t-27.5 -47.5t-48 -34.5t-72 -14h-156q-11 0 -22.5 -2t-23 -11.5t-11.5 -25.5q0 -21 16.5 -31.5t37.5 -10.5h211q42 0 72.5 -17t46 -47.5t15.5 -71.5v-59q0 -17 -2 -32.5t-7.5 -33.5t-16.5 -32.5t-26.5 -26.5t-40.5 -19t-57 -7h-150q-48 0 -83 17t-55.5 52t-20.5 85v88l31 79 q-28 21 -28 66zM108 -116q0 -30 10 -51t27 -30t32 -12.5t32 -3.5h150q93 0 93 94v56q0 41 -18.5 62t-67.5 21h-201q-17 0 -31.5 3.5t-19.5 7.5l-6 4v-151zM110 344q0 -57 26.5 -93.5t82.5 -36.5h99q32 0 55.5 12.5t35.5 32t17.5 41t4.5 44.5q-1 66 -24.5 99t-74.5 33h-109 q-63 0 -88 -36t-25 -96z" />
<glyph unicode="&#x122;" horiz-adv-x="616" d="M290 -141v51q0 20 18 20h34q17 0 17 -20v-88q0 -19 -6.5 -31.5t-16.5 -17t-19.5 -6.5t-16.5 -1l-7 1v21q24 -1 24 23v29h-9q-18 0 -18 19zM61 370q0 66 4.5 116t19 100t39 82t66.5 52t100 20q39 0 119.5 -8.5t132.5 -18.5v-45q-1 0 -18.5 1.5t-45 3.5t-59 4.5t-67 4 t-62.5 1.5q-43 0 -73 -13.5t-49.5 -37.5t-30 -64.5t-15 -87t-4.5 -112.5q0 -175 38 -245.5t138 -71.5q34 0 86 12t87 24l35 12v232h-184v38q74 20 173 20q32 0 68 -3v-386h-42l-13 51q-22 -12 -50 -23.5t-73 -22t-87 -10.5q-43 0 -77.5 9.5t-59 26.5t-42 44.5t-27.5 57.5 t-16.5 71t-8.5 79t-2 87z" />
<glyph unicode="&#x123;" horiz-adv-x="560" d="M243 613v87q0 20 7 32.5t16.5 17t19.5 6t16 0.5l7 -1v-20q-23 0 -23 -23v-30h8q19 0 19 -18v-51q0 -20 -19 -20h-33q-18 0 -18 20zM53 116q0 28 17.5 51.5t50.5 27.5q-68 36 -68 149q0 189 173 189h312v-42l-91 -15q0 -1 6 -8.5t8 -11t7.5 -12.5t8 -17.5t5.5 -21t4.5 -28 t1.5 -33.5q0 -21 -3.5 -42.5t-14 -48.5t-27.5 -47.5t-48 -34.5t-72 -14h-156q-11 0 -22 -2t-23 -11.5t-12 -25.5q0 -35 57 -43l197 -25q65 -8 105 -42t40 -91v-33q0 -21 -3 -39.5t-12.5 -40.5t-25 -37.5t-43.5 -26t-66 -10.5h-150q-48 0 -83 17t-55.5 52t-20.5 85v88l31 78 q-28 22 -28 66zM108 -116q0 -30 10 -51t27 -30t32 -12.5t32 -3.5h150q93 0 93 97v28q0 70 -98 83l-182 24q-14 2 -30 6t-25 7l-9 3v-151zM110 344q0 -57 26.5 -93t82.5 -36h99q32 0 55.5 12t35.5 31.5t17.5 41t4.5 44.5q-1 66 -24.5 99t-74.5 33h-109q-63 0 -88 -36t-25 -96 z" />
<glyph unicode="&#x124;" horiz-adv-x="646" d="M194 797l122 130h54l109 -130h-53l-84 86l-94 -86h-54zM90 0v732h57v-350h380v350h57v-732h-57v326h-380v-326h-57z" />
<glyph unicode="&#x125;" d="M-43 844l122 130h54l109 -130h-53l-85 86l-93 -86h-54zM74 0v784h57v-315q38 23 62.5 35.5t63.5 24t77 11.5q51 0 89 -24.5t56.5 -62.5t18.5 -83v-370h-57v370q0 53 -29 83t-78 30q-40 0 -74.5 -7.5t-59 -18t-69.5 -32.5v-425h-57z" />
<glyph unicode="&#x126;" horiz-adv-x="660" d="M27 523v41h63v168h57v-168h380v168h57v-168h61v-41h-61v-523h-57v326h-380v-326h-57v523h-63zM147 382h380v141h-380v-141z" />
<glyph unicode="&#x127;" d="M-7 617v41h74v126h59v-126h138v-41h-138v-148q120 72 207 71q74 2 116 -48t42 -121v-371h-59v369q-2 54 -28.5 84.5t-81.5 30.5q-47 -1 -91.5 -15t-104.5 -44v-425h-59v617h-74z" />
<glyph unicode="&#x128;" horiz-adv-x="209" d="M-51 835q25 21 38.5 31t35 20.5t40.5 10.5q25 -2 63 -25t50 -23q5 0 10 0.5t10.5 2t10.5 3.5t11 5t10.5 5.5t11 6t10.5 6t10.5 6.5t9.5 6l17 -30q-3 -2 -14 -11.5t-15.5 -13t-15 -11.5t-16.5 -11.5t-15.5 -7.5t-18 -6t-17.5 -1q-27 1 -62 24t-51 23q-19 0 -33.5 -5.5 t-34.5 -17.5t-30 -17zM90 0v732h57v-732h-57z" />
<glyph unicode="&#x129;" horiz-adv-x="191" d="M-73 634q18 15 28.5 23t26.5 18.5t30 15.5t29 5q25 -2 62.5 -25t50.5 -23q5 0 11 1t11.5 2.5t12.5 4.5t12 5.5t12.5 7t11.5 7t12 7t11 6.5l17 -30q-3 -2 -14.5 -11.5t-15.5 -13t-14.5 -11.5t-17 -11.5t-15.5 -7.5t-18 -6t-17 -1q-28 1 -63 24t-51 23q-19 0 -33 -5.5 t-34 -17.5t-30 -17zM67 0v531h57v-531h-57z" />
<glyph unicode="&#x12a;" horiz-adv-x="209" d="M-21 797v47h278v-47h-278zM90 0v732h57v-732h-57z" />
<glyph unicode="&#x12b;" horiz-adv-x="191" d="M-44 596v47h279v-47h-279zM67 0v531h57v-531h-57z" />
<glyph unicode="&#x12e;" horiz-adv-x="209" d="M105 0h30q-45 -29 -59.5 -61.5t5.5 -53.5t67 -22v-44q-34 -5 -63.5 6t-44.5 32.5t-17.5 46t18.5 51.5t64 45zM90 0v732h57v-732h-57z" />
<glyph unicode="&#x12f;" horiz-adv-x="187" d="M88 0h30q-45 -29 -59.5 -61.5t5 -53.5t66.5 -22v-44q-33 -5 -62.5 6t-44.5 32.5t-18 46t18.5 51.5t64.5 45zM63 619v56q0 21 19 21h37q19 0 19 -21v-56q0 -20 -19 -20h-37q-5 0 -9.5 2.5t-7 7t-2.5 10.5zM71 0v531h57v-531h-57z" />
<glyph unicode="&#x130;" horiz-adv-x="209" d="M80 816v57q0 21 20 21h37q19 0 19 -21v-57q0 -19 -19 -19h-37q-9 0 -14.5 5.5t-5.5 13.5zM90 0v732h57v-732h-57z" />
<glyph unicode="&#x131;" horiz-adv-x="191" d="M67 0v531h57v-531h-57z" />
<glyph unicode="&#x134;" horiz-adv-x="355" d="M122 797l122 130h54l109 -130h-53l-85 86l-94 -86h-53zM39 21l4 40q22 -5 36 -8.5t36 -6t37 -1t32 8.5t27.5 20.5t17.5 36.5t7 54v567h57v-567q0 -112 -52 -147q-38 -25 -100.5 -24t-101.5 27z" />
<glyph unicode="&#x135;" horiz-adv-x="201" d="M-47 598l122 150h54l109 -150h-45l-93 99l-100 -99h-47zM69 -270v801h61v-535q1 -155 -21 -266h-40zM129 748z" />
<glyph unicode="&#x136;" horiz-adv-x="591" d="M276 -136v51q0 20 19 20h33q18 0 18 -20v-88q0 -19 -7 -32t-16.5 -17.5t-19 -6t-16.5 -0.5l-7 1v21q23 -1 23 23v29h-8q-19 0 -19 19zM90 0v732h57v-336h105l234 336h69l-250 -365l250 -367h-69l-234 338h-104v-338h-58z" />
<glyph unicode="&#x137;" horiz-adv-x="499" d="M230 -136v51q0 20 19 20h33q18 0 18 -20v-88q0 -19 -6.5 -31.5t-16.5 -17t-19.5 -6.5t-16.5 -1l-7 1v21q23 -1 23 23v29h-8q-19 0 -19 19zM67 0v782h57v-448h47l225 197h81l-252 -226l252 -305h-73l-233 276h-47v-276h-57z" />
<glyph unicode="&#x138;" horiz-adv-x="502" d="M67 0v531h57v-238h95l191 238h70l-210 -266l196 -265h-71l-178 236h-92l-1 -236h-57z" />
<glyph unicode="&#x139;" horiz-adv-x="557" d="M94 795l112 133h72l-133 -133h-51zM90 126v606h57v-606q0 -24 6 -38.5t19.5 -21t24.5 -8t29 -1.5h295v-57h-295q-29 0 -50 4t-42.5 16t-32.5 39t-11 67z" />
<glyph unicode="&#x13a;" horiz-adv-x="299" d="M91 843l112 133h72l-133 -133h-51zM67 189v594h57v-594q0 -40 6 -66t17 -39t21 -18.5t25 -8.5q77 -18 84 -18v-39h-81q-129 0 -129 189z" />
<glyph unicode="&#x13b;" horiz-adv-x="557" d="M278 -136v51q0 20 19 20h33q18 0 18 -20v-88q0 -14 -3.5 -24.5t-9.5 -16t-13 -9.5t-14 -5t-13 -1t-9 1h-4v21q23 -1 23 23v29h-8q-19 0 -19 19zM90 126v606h57v-606q0 -24 6 -38.5t19.5 -21t24.5 -8t29 -1.5h295v-57h-295q-29 0 -50 4t-42.5 16t-32.5 39t-11 67z" />
<glyph unicode="&#x13c;" horiz-adv-x="299" d="M123 -136v51q0 20 19 20h33q18 0 18 -20v-88q0 -19 -6.5 -31.5t-16.5 -17t-19.5 -6.5t-16.5 -1l-7 1v21q23 -1 23 23v29h-8q-19 0 -19 19zM67 189v594h57v-594q0 -40 6 -66t17 -39t21 -18.5t25 -8.5q77 -18 84 -18v-39h-81q-129 0 -129 189z" />
<glyph unicode="&#x13d;" horiz-adv-x="557" d="M90 126v606h57v-606q0 -24 6 -38.5t19.5 -21t24.5 -8t29 -1.5h295v-57h-295q-29 0 -50 4t-42.5 16t-32.5 39t-11 67zM226 705v67h58v-67l-9 -134h-39z" />
<glyph unicode="&#x13e;" horiz-adv-x="299" d="M67 189v594h57v-594q0 -50 8 -78t21.5 -38t39.5 -16q77 -18 84 -18v-39h-83q-67 0 -97 42.5t-30 146.5zM208 714v67h58v-67l-9 -134h-39z" />
<glyph unicode="&#x141;" horiz-adv-x="557" d="M7 334v47l83 36v315h57v-290l133 57l-1 -47l-132 -58v-268q0 -24 6 -38.5t19.5 -21t24.5 -8t29 -1.5h295v-57h-295q-29 0 -50 4t-42.5 16t-32.5 39t-11 67v244z" />
<glyph unicode="&#x142;" horiz-adv-x="319" d="M10 379v48l77 34v322h57v-296l140 64l-1 -46l-139 -65v-251q0 -49 9.5 -78t23 -39t36.5 -15q77 -18 84 -18v-39h-83q-61 0 -94 44t-33 145v226z" />
<glyph unicode="&#x143;" horiz-adv-x="674" d="M335 797l111 133h72l-133 -133h-50zM90 0v732h58l407 -625v625h57v-732h-57l-408 625v-625h-57z" />
<glyph unicode="&#x144;" d="M252 600l111 133h72l-133 -133h-50zM67 0v531h39l18 -62q28 17 47 27t45.5 21.5t54 17t56.5 5.5q51 0 89 -24.5t56.5 -62.5t18.5 -83v-370h-57v370q0 52 -29.5 82.5t-77.5 30.5q-57 0 -97 -13t-106 -45v-425h-57z" />
<glyph unicode="&#x145;" horiz-adv-x="674" d="M316 -138v51q0 20 18 20h34q18 0 18 -20v-87q0 -20 -7 -32.5t-16.5 -17t-19.5 -6.5t-17 -1l-6 1v21q23 0 23 23v30h-9q-18 0 -18 18zM90 0v732h58l407 -625v625h57v-732h-57l-408 625v-625h-57z" />
<glyph unicode="&#x146;" d="M245 -136v51q0 20 19 20h33q18 0 18 -20v-88q0 -19 -7 -31.5t-16.5 -17t-19.5 -6.5t-16 -1l-7 1v21q23 -1 23 23v29h-8q-19 0 -19 19zM67 0v531h39l18 -62q28 17 47 27t45.5 21.5t54 17t56.5 5.5q51 0 89 -24.5t56.5 -62.5t18.5 -83v-370h-57v370q0 52 -29.5 82.5 t-77.5 30.5q-57 0 -97 -13t-106 -45v-425h-57z" />
<glyph unicode="&#x147;" horiz-adv-x="674" d="M215 927h53l91 -86l88 86h53l-113 -130h-55zM90 0v732h58l407 -625v625h57v-732h-57l-408 625v-625h-57z" />
<glyph unicode="&#x148;" d="M144 730h53l91 -86l88 86h53l-114 -130h-54zM67 0v531h39l18 -62q28 17 47 27t45.5 21.5t54 17t56.5 5.5q51 0 89 -24.5t56.5 -62.5t18.5 -83v-370h-57v370q0 52 -29.5 82.5t-77.5 30.5q-57 0 -97 -13t-106 -45v-425h-57z" />
<glyph unicode="&#x14a;" horiz-adv-x="673" d="M90 0v732h58l406 -618v618h57v-732v-84q0 -45 -9.5 -76.5t-25.5 -50t-42.5 -29t-53.5 -14t-66 -3.5v44q8 1 25 4t25.5 5t23 6.5t22 10t17.5 15t15 22.5t8.5 32t3.5 43v75l-406 625l-1 -625h-57z" />
<glyph unicode="&#x14b;" horiz-adv-x="558" d="M67 0v531h39l18 -62q4 2 11 6q28 17 44 25t41.5 19t50.5 16t53 5q51 0 89.5 -24.5t58 -62.5t19.5 -83v-370l-1 -90q-1 -28 -7.5 -51t-15 -38.5t-23 -28.5t-26 -20.5t-30.5 -14.5t-28.5 -10t-28.5 -7l-24 30q26 9 43 18t38.5 25t33 40t12.5 55v92v370q0 50 -31 81.5 t-79 31.5q-39 0 -74.5 -8.5t-58 -18.5t-67.5 -32v-424h-57z" />
<glyph unicode="&#x14c;" horiz-adv-x="675" d="M212 797v47h279v-47h-279zM73 361q0 72 7 128.5t18.5 96t31 67.5t40.5 44t52.5 25t60 12t68.5 3q42 0 71 -3t60 -12t51.5 -25t40 -44t30.5 -67.5t18 -95.5t7 -129q0 -80 -8 -139t-25 -99t-38 -65.5t-55 -39t-68.5 -18t-83.5 -4.5q-42 0 -72 2.5t-61.5 11.5t-52 25 t-39.5 42.5t-30 65.5t-17 93t-6 125zM130 361q0 -59 3.5 -102.5t11 -77t21 -55.5t29.5 -37t40.5 -22.5t51 -10.5t64.5 -3q52 0 85.5 6.5t61.5 25t43 53.5t23 89t8 134q0 51 -3.5 92t-8 72.5t-14 55t-19 40t-25.5 27.5t-29.5 17.5t-35.5 9.5t-39.5 4t-46.5 1q-42 0 -65 -2 t-53 -11t-45 -29.5t-30.5 -55t-21.5 -89.5t-6 -132z" />
<glyph unicode="&#x14d;" horiz-adv-x="569" d="M145 596v47h279v-47h-279zM56 258q0 82 11.5 135t39.5 85t70 45t108 13q130 0 179.5 -61.5t49.5 -216.5q0 -148 -49.5 -205.5t-179.5 -57.5q-131 0 -180 58.5t-49 204.5zM113 258q0 -35 2.5 -63t8.5 -49t13.5 -36t19.5 -25.5t24 -17t30 -10t34.5 -4.5t39.5 -1 q38 0 62.5 3.5t47 15.5t35 34.5t20 60t7.5 92.5q0 50 -4.5 85.5t-14.5 60t-22.5 39.5t-34 23t-43 10.5t-54 2.5t-53 -2t-42 -9.5t-34 -22t-23 -39t-15 -61t-4.5 -87.5z" />
<glyph unicode="&#x150;" horiz-adv-x="675" d="M258 797l112 133h71l-133 -133h-50zM394 797l112 133h72l-133 -133h-51zM73 361q0 72 7 128.5t18.5 96t31 67.5t40.5 44t52.5 25t60 12t68.5 3q42 0 71 -3t60 -12t51.5 -25t40 -44t30.5 -67.5t18 -95.5t7 -129q0 -80 -8 -139t-25 -99t-38 -65.5t-55 -39t-68.5 -18 t-83.5 -4.5q-42 0 -72 2.5t-61.5 11.5t-52 25t-39.5 42.5t-30 65.5t-17 93t-6 125zM130 361q0 -59 3.5 -102.5t11 -77t21 -55.5t29.5 -37t40.5 -22.5t51 -10.5t64.5 -3q52 0 85.5 6.5t61.5 25t43 53.5t23 89t8 134q0 51 -3.5 92t-8 72.5t-14 55t-19 40t-25.5 27.5 t-29.5 17.5t-35.5 9.5t-39.5 4t-46.5 1q-42 0 -65 -2t-53 -11t-45 -29.5t-30.5 -55t-21.5 -89.5t-6 -132z" />
<glyph unicode="&#x151;" horiz-adv-x="569" d="M191 596l112 133h72l-133 -133h-51zM328 596l111 133h72l-133 -133h-50zM56 258q0 82 11.5 135t39.5 85t70 45t108 13q130 0 179.5 -61.5t49.5 -216.5q0 -148 -49.5 -205.5t-179.5 -57.5q-131 0 -180 58.5t-49 204.5zM113 258q0 -35 2.5 -63t8.5 -49t13.5 -36t19.5 -25.5 t24 -17t30 -10t34.5 -4.5t39.5 -1q38 0 62.5 3.5t47 15.5t35 34.5t20 60t7.5 92.5q0 50 -4.5 85.5t-14.5 60t-22.5 39.5t-34 23t-43 10.5t-54 2.5t-53 -2t-42 -9.5t-34 -22t-23 -39t-15 -61t-4.5 -87.5z" />
<glyph unicode="&#x152;" horiz-adv-x="1054" d="M130 361q0 -59 3.5 -102.5t11 -77t20.5 -55.5t29 -37t41 -22.5t51.5 -10.5t64.5 -3q44 0 74.5 4.5t56.5 17.5t42 34.5t27 57t15.5 83t4.5 114.5q0 45 -2 82t-7 66.5t-10.5 52.5t-15.5 40t-19.5 29.5t-25 21t-28.5 13.5t-33 7.5t-37 3t-42 0.5q-43 0 -65.5 -2t-52.5 -11 t-45 -29.5t-30.5 -55t-21.5 -89.5t-6 -132zM73 361q0 72 7 128.5t18 96t31 67.5t41 44t52 25t59.5 12t69.5 3q43 0 73 -3.5t61 -13t53.5 -30t39.5 -51.5q9 50 41.5 72.5t77.5 20.5l300 -14v-43h-300q-26 0 -42 -9.5t-21.5 -25t-5.5 -38.5q0 -184 1 -209l328 -8v-44l-328 -8 l-1 -210q1 -24 7 -38.5t19 -21t24 -8t29 -1.5h290v-42l-290 -15q-52 -3 -86.5 16.5t-43.5 76.5q-32 -56 -85.5 -75t-140.5 -19q-43 0 -72.5 2.5t-61 11.5t-52 25t-39.5 42.5t-30 65.5t-17 93t-6 125z" />
<glyph unicode="&#x153;" horiz-adv-x="924" d="M56 258q0 109 22.5 169t71 84.5t135.5 24.5q79 0 126 -22t71 -71q7 20 17.5 34.5t24 24.5t28.5 16.5t35.5 10t41.5 5t48 1.5q31 0 51 -1t43.5 -5.5t38 -12t29.5 -21.5t23 -34t13 -48.5t5 -65.5q0 -58 -33.5 -85.5t-103.5 -27.5h-230q-1 -71 11.5 -111t37.5 -55.5 t68 -15.5q149 0 240 13v-42q-101 -29 -240 -28q-60 0 -95.5 21t-53.5 67q-23 -47 -70 -67.5t-126 -20.5q-68 0 -111.5 14t-70 46.5t-37 80.5t-10.5 122zM113 258q0 -47 4.5 -81t15.5 -56.5t24 -36.5t34.5 -21t42 -9t51.5 -2q52 0 83.5 8.5t52 32.5t28 64t7.5 108 q0 67 -9 109t-31.5 65.5t-52 31.5t-78.5 8q-33 0 -53.5 -2t-42 -9.5t-34 -22t-23 -39t-15 -61t-4.5 -87.5zM513 290h230q40 0 60 12.5t20 44.5q0 46 -6 71.5t-25.5 39t-43 17t-70.5 3.5q-34 0 -55.5 -2t-42.5 -9t-32.5 -19.5t-20.5 -33.5t-12 -51.5t-2 -72.5z" />
<glyph unicode="&#x154;" horiz-adv-x="586" d="M264 792l112 133h72l-133 -133h-51zM67 0v732h300q171 0 171 -213q0 -54 -10.5 -94t-25 -61t-35.5 -34t-35 -16.5t-32 -4.5l157 -309h-62l-156 307q-14 0 -114 6t-101 7v-320h-57zM124 368h243q21 0 34.5 2t30 10.5t26 23.5t16 44t6.5 71q0 49 -9.5 82t-27 48t-35 20 t-41.5 5h-243v-306z" />
<glyph unicode="&#x155;" horiz-adv-x="425" d="M223 598l112 133h71l-133 -133h-50zM67 0v531h39l18 -67q2 1 18 10t19.5 11l17.5 10t19.5 10t19 8.5t21 8.5t20 6t22.5 5t22.5 2.5t25.5 1.5q55 0 74 -8v-56q-28 6 -74 6q-12 0 -24 -1t-21 -1.5t-21.5 -4t-18.5 -4t-20 -6t-18 -7t-20 -8.5t-18.5 -8.5t-21.5 -10.5 t-22 -10v-418h-57z" />
<glyph unicode="&#x156;" horiz-adv-x="586" d="M262 -136v51q0 20 18 20h33q18 0 18 -20v-88q0 -19 -6.5 -31.5t-16.5 -17t-19.5 -6.5t-16.5 -1l-7 1v21q23 -1 23 23v29h-8q-18 0 -18 19zM67 0v732h300q171 0 171 -213q0 -54 -10.5 -94t-25 -61t-35.5 -34t-35 -16.5t-32 -4.5l157 -309h-62l-156 307q-14 0 -114 6 t-101 7v-320h-57zM124 368h243q21 0 34.5 2t30 10.5t26 23.5t16 44t6.5 71q0 49 -9.5 82t-27 48t-35 20t-41.5 5h-243v-306z" />
<glyph unicode="&#x157;" horiz-adv-x="425" d="M60 -136v51q0 20 18 20h33q18 0 18 -20v-88q0 -14 -3.5 -24.5t-9.5 -16t-13 -9.5t-14 -5t-13 -1t-9 1h-4v21q23 -1 23 23v29h-8q-18 0 -18 19zM66 0v531h38l19 -67q2 1 17.5 10t19 11t18 10t19.5 10t18.5 8.5t21 8.5t20.5 6t23 5t22.5 2.5t25.5 1.5q55 0 74 -8v-56 q-28 6 -74 6q-13 0 -25 -1t-21 -1.5t-21.5 -4t-18.5 -4t-19.5 -6t-17.5 -7t-20 -8.5t-18.5 -8.5t-22 -10.5t-21.5 -10v-418h-57z" />
<glyph unicode="&#x158;" horiz-adv-x="586" d="M148 925h53l91 -86l88 86h53l-113 -130h-55zM67 0v732h300q171 0 171 -213q0 -54 -10.5 -94t-25 -61t-35.5 -34t-35 -16.5t-32 -4.5l157 -309h-62l-156 307q-14 0 -114 6t-101 7v-320h-57zM124 368h243q21 0 34.5 2t30 10.5t26 23.5t16 44t6.5 71q0 49 -9.5 82t-27 48 t-35 20t-41.5 5h-243v-306z" />
<glyph unicode="&#x159;" horiz-adv-x="425" d="M92 727h53l92 -86l88 86h53l-114 -130h-54zM67 0v531h39l18 -67q2 1 18 10t19.5 11l17.5 10t19.5 10t19 8.5t21 8.5t20 6t22.5 5t22.5 2.5t25.5 1.5q55 0 74 -8v-56q-28 6 -74 6q-12 0 -24 -1t-21 -1.5t-21.5 -4t-18.5 -4t-20 -6t-18 -7t-20 -8.5t-18.5 -8.5t-21.5 -10.5 t-22 -10v-418h-57z" />
<glyph unicode="&#x15a;" horiz-adv-x="584" d="M283 798l111 133h72l-133 -133h-50zM73 494v66q0 53 14.5 89t42 55t61 26.5t78.5 7.5q36 0 118 -8t123 -14v-44l-241 9q-69 3 -104 -21.5t-35 -99.5v-66q0 -23 3.5 -41t11 -29.5t17 -18.5t24 -11t28.5 -5t33 -1h133q47 0 80 -13.5t49 -38.5t22.5 -51.5t6.5 -60.5v-68 q0 -41 -12 -71.5t-30 -48t-45 -27.5t-53.5 -13.5t-59.5 -3.5q-36 0 -122.5 7.5t-122.5 14.5v44q97 -9 245 -9q21 0 37.5 1.5t37.5 8t34.5 17.5t23.5 31.5t10 48.5v68q0 53 -23 79.5t-78 26.5h-131q-46 0 -79 10t-51.5 24.5t-29 37t-13.5 43.5t-3 49z" />
<glyph unicode="&#x15b;" horiz-adv-x="505" d="M228 601l112 133h71l-133 -133h-50zM45 360v46q0 64 31.5 97t106.5 33q37 0 123 -5t128 -9v-42h-251q-50 0 -65.5 -17.5t-15.5 -56.5v-46q0 -24 5 -38.5t17.5 -20.5t24 -7.5t34.5 -1.5h148q61 0 95.5 -33t34.5 -90v-49q0 -39 -11 -65.5t-31 -38.5t-40.5 -16.5t-47.5 -4.5 q-34 0 -132.5 6t-131.5 10v41h264h14t17.5 3.5t20.5 9.5t14 20t7 35v49q0 67 -73 67h-148q-75 0 -106.5 25t-31.5 99z" />
<glyph unicode="&#x15c;" horiz-adv-x="584" d="M168 798l122 130h54l109 -130h-53l-85 86l-93 -86h-54zM73 494v66q0 53 14.5 89t42 55t61 26.5t78.5 7.5q36 0 118 -8t123 -14v-44l-241 9q-69 3 -104 -21.5t-35 -99.5v-66q0 -23 3.5 -41t11 -29.5t17 -18.5t24 -11t28.5 -5t33 -1h133q47 0 80 -13.5t49 -38.5t22.5 -51.5 t6.5 -60.5v-68q0 -41 -12 -71.5t-30 -48t-45 -27.5t-53.5 -13.5t-59.5 -3.5q-36 0 -122.5 7.5t-122.5 14.5v44q97 -9 245 -9q21 0 37.5 1.5t37.5 8t34.5 17.5t23.5 31.5t10 48.5v68q0 53 -23 79.5t-78 26.5h-131q-46 0 -79 10t-51.5 24.5t-29 37t-13.5 43.5t-3 49z" />
<glyph unicode="&#x15d;" horiz-adv-x="505" d="M109 596l122 130h54l109 -130h-53l-85 86l-93 -86h-54zM45 360v46q0 64 31.5 97t106.5 33q37 0 123 -5t128 -9v-42h-251q-50 0 -65.5 -17.5t-15.5 -56.5v-46q0 -24 5 -38.5t17.5 -20.5t24 -7.5t34.5 -1.5h148q61 0 95.5 -33t34.5 -90v-49q0 -39 -11 -65.5t-31 -38.5 t-40.5 -16.5t-47.5 -4.5q-34 0 -132.5 6t-131.5 10v41h264h14t17.5 3.5t20.5 9.5t14 20t7 35v49q0 67 -73 67h-148q-75 0 -106.5 25t-31.5 99z" />
<glyph unicode="&#x15e;" horiz-adv-x="584" d="M200 -154l46 11q27 8 38 30t11 68h50q0 -78 -20.5 -107t-80.5 -29h-44v27zM73 494v66q0 53 14.5 89t42 55t61 26.5t78.5 7.5q36 0 118 -8t123 -14v-44l-241 9q-69 3 -104 -21.5t-35 -99.5v-66q0 -23 3.5 -41t11 -29.5t17 -18.5t24 -11t28.5 -5t33 -1h133q47 0 80 -13.5 t49 -38.5t22.5 -51.5t6.5 -60.5v-68q0 -41 -12 -71.5t-30 -48t-45 -27.5t-53.5 -13.5t-59.5 -3.5q-36 0 -122.5 7.5t-122.5 14.5v44q97 -9 245 -9q21 0 37.5 1.5t37.5 8t34.5 17.5t23.5 31.5t10 48.5v68q0 53 -23 79.5t-78 26.5h-131q-46 0 -79 10t-51.5 24.5t-29 37 t-13.5 43.5t-3 49z" />
<glyph unicode="&#x15f;" horiz-adv-x="505" d="M148 -148l46 11q27 8 38 30t11 68h50q0 -78 -21 -107t-80 -29h-44v27zM45 360v46q0 64 31.5 97t106.5 33q37 0 123 -5t128 -9v-42h-251q-50 0 -65.5 -17.5t-15.5 -56.5v-46q0 -24 5 -38.5t17.5 -20.5t24 -7.5t34.5 -1.5h148q61 0 95.5 -33t34.5 -90v-49q0 -39 -11 -65.5 t-31 -38.5t-40.5 -16.5t-47.5 -4.5q-34 0 -132.5 6t-131.5 10v41h264h14t17.5 3.5t20.5 9.5t14 20t7 35v49q0 67 -73 67h-148q-75 0 -106.5 25t-31.5 99z" />
<glyph unicode="&#x160;" horiz-adv-x="584" d="M168 928h53l91 -86l88 86h53l-113 -130h-54zM73 494v66q0 53 14.5 89t42 55t61 26.5t78.5 7.5q36 0 118 -8t123 -14v-44l-241 9q-69 3 -104 -21.5t-35 -99.5v-66q0 -23 3.5 -41t11 -29.5t17 -18.5t24 -11t28.5 -5t33 -1h133q47 0 80 -13.5t49 -38.5t22.5 -51.5t6.5 -60.5 v-68q0 -41 -12 -71.5t-30 -48t-45 -27.5t-53.5 -13.5t-59.5 -3.5q-36 0 -122.5 7.5t-122.5 14.5v44q97 -9 245 -9q21 0 37.5 1.5t37.5 8t34.5 17.5t23.5 31.5t10 48.5v68q0 53 -23 79.5t-78 26.5h-131q-46 0 -79 10t-51.5 24.5t-29 37t-13.5 43.5t-3 49z" />
<glyph unicode="&#x161;" horiz-adv-x="505" d="M115 731h53l91 -86l88 86h53l-113 -130h-55zM45 360v46q0 64 31.5 97t106.5 33q37 0 123 -5t128 -9v-42h-251q-50 0 -65.5 -17.5t-15.5 -56.5v-46q0 -24 5 -38.5t17.5 -20.5t24 -7.5t34.5 -1.5h148q61 0 95.5 -33t34.5 -90v-49q0 -39 -11 -65.5t-31 -38.5t-40.5 -16.5 t-47.5 -4.5q-34 0 -132.5 6t-131.5 10v41h264h14t17.5 3.5t20.5 9.5t14 20t7 35v49q0 67 -73 67h-148q-75 0 -106.5 25t-31.5 99z" />
<glyph unicode="&#x162;" horiz-adv-x="586" d="M177 -157l46 12q28 8 39 29.5t10 67.5h50q0 -77 -20.5 -106.5t-80.5 -29.5h-44v27zM46 675v57h511v-57h-230v-675h-57v675h-224z" />
<glyph unicode="&#x163;" horiz-adv-x="368" d="M89 -160l45 11q28 8 39 30t10 68h50q0 -78 -20.5 -107t-80.5 -29h-43v27zM22 475v42l94 15l15 148h42v-148h162v-57h-162v-286q0 -39 6 -65.5t17 -39.5t21 -18.5t25 -8.5q77 -17 84 -17v-40h-81q-129 0 -129 189v286h-94z" />
<glyph unicode="&#x164;" horiz-adv-x="586" d="M152 927h53l91 -86l88 86h53l-113 -130h-54zM46 675v57h511v-57h-230v-675h-57v675h-224z" />
<glyph unicode="&#x165;" horiz-adv-x="357" d="M22 475v42l94 15l15 148h42v-148h162v-57h-162v-285q0 -40 5.5 -66t16.5 -39t21 -18.5t26 -8.5q77 -18 84 -18v-39h-83q-40 0 -67 17.5t-43.5 60.5t-16.5 111v285h-94zM243 777l49 22l9 -44l-8 -111l-37 -46l-10 89z" />
<glyph unicode="&#x166;" horiz-adv-x="586" d="M39 675v57h511v-57h-230v-238h130v-40h-130v-397h-57v397h-123v40h123v238h-224z" />
<glyph unicode="&#x167;" horiz-adv-x="357" d="M22 475v42l94 15l15 148h42v-148h162v-57h-162v-150h112v-40h-112v-95q0 -35 4 -58.5t8.5 -36.5t15.5 -21t18 -10t25 -6q73 -16 76 -16v-41h-76q-68 0 -98 42.5t-30 146.5v95h-81v40h81v150h-94z" />
<glyph unicode="&#x168;" horiz-adv-x="679" d="M184 831q25 21 38.5 31.5t35 20.5t40.5 10q25 -1 62.5 -24t50.5 -24q6 0 12.5 1t14 4t13 5.5t14.5 7.5l13.5 7.5t14 9t12.5 7.5l17 -30q-4 -3 -13 -10.5t-13 -11t-13 -10.5t-14.5 -10.5t-13.5 -8t-15 -7t-15 -4t-15 -1.5q-28 1 -63 24.5t-51 23.5q-19 -1 -33.5 -6 t-34 -17.5t-29.5 -16.5zM90 320v412h57v-412q0 -56 5.5 -99t13 -71.5t24 -47.5t29.5 -29t39.5 -15t42.5 -5.5t50 -0.5h4q22 0 36 0.5t33.5 3t32 7.5t28 14.5t25 23t20 34t16 46.5t9.5 61t4 78v412h57v-412q0 -67 -8.5 -119.5t-21 -86.5t-35.5 -57.5t-41.5 -35.5t-50 -18 t-50.5 -7t-54 -1h-7q-38 0 -57.5 1t-52 7t-49.5 17.5t-39 35t-33 57.5t-19 86.5t-8 120.5z" />
<glyph unicode="&#x169;" d="M99 634q25 21 38.5 31t35 20.5t40.5 10.5q25 -2 63 -25t50 -23q6 0 12.5 1t14.5 4t13.5 5t14.5 7.5t13 8t14 8.5t12 7l17 -30q-3 -2 -14 -11.5t-15.5 -13t-15 -11.5t-16.5 -11.5t-15.5 -7.5t-18 -6t-17.5 -1q-27 1 -62 24t-51 23q-19 0 -33.5 -5.5t-34.5 -17.5t-30 -17z M56 161v370h57v-370q0 -52 29.5 -82.5t77.5 -30.5q57 0 97 13t106 46v424h57v-531h-39l-18 62q-38 -22 -63 -35t-63.5 -24.5t-76.5 -11.5q-76 0 -120 50t-44 120z" />
<glyph unicode="&#x16a;" horiz-adv-x="679" d="M214 797v47h278v-47h-278zM90 320v412h57v-412q0 -56 5.5 -99t13 -71.5t24 -47.5t29.5 -29t39.5 -15t42.5 -5.5t50 -0.5h4q22 0 36 0.5t33.5 3t32 7.5t28 14.5t25 23t20 34t16 46.5t9.5 61t4 78v412h57v-412q0 -67 -8.5 -119.5t-21 -86.5t-35.5 -57.5t-41.5 -35.5 t-50 -18t-50.5 -7t-54 -1h-7q-38 0 -57.5 1t-52 7t-49.5 17.5t-39 35t-33 57.5t-19 86.5t-8 120.5z" />
<glyph unicode="&#x16b;" d="M129 596v47h278v-47h-278zM56 161v370h57v-370q0 -52 29.5 -82.5t77.5 -30.5q57 0 97 13t106 46v424h57v-531h-39l-18 62q-38 -22 -63 -35t-63.5 -24.5t-76.5 -11.5q-76 0 -120 50t-44 120z" />
<glyph unicode="&#x16c;" horiz-adv-x="679" d="M238 911h36q0 -33 23.5 -55.5t54.5 -22.5q34 0 57 21.5t23 56.5h36q0 -27 -10.5 -49.5t-27 -36t-37 -21t-41.5 -7.5q-44 0 -79 31.5t-35 82.5zM90 320v412h57v-412q0 -56 5.5 -99t13 -71.5t24 -47.5t29.5 -29t39.5 -15t42.5 -5.5t50 -0.5h4q22 0 36 0.5t33.5 3t32 7.5 t28 14.5t25 23t20 34t16 46.5t9.5 61t4 78v412h57v-412q0 -67 -8.5 -119.5t-21 -86.5t-35.5 -57.5t-41.5 -35.5t-50 -18t-50.5 -7t-54 -1h-7q-38 0 -57.5 1t-52 7t-49.5 17.5t-39 35t-33 57.5t-19 86.5t-8 120.5z" />
<glyph unicode="&#x16d;" d="M158 710h36q0 -33 23.5 -55.5t54.5 -22.5q35 0 58 21.5t23 56.5h35q0 -27 -10 -49.5t-27 -36t-37.5 -21t-41.5 -7.5t-41 8t-36.5 22t-26.5 36t-10 48zM56 161v370h57v-370q0 -52 29.5 -82.5t77.5 -30.5q57 0 97 13t106 46v424h57v-531h-39l-18 62q-38 -22 -63 -35 t-63.5 -24.5t-76.5 -11.5q-76 0 -120 50t-44 120z" />
<glyph unicode="&#x16e;" horiz-adv-x="679" d="M252 899q0 28 13.5 51.5t37 37.5t51 14t50.5 -14t36.5 -37.5t13.5 -51.5q0 -43 -29 -72.5t-71 -29.5q-28 0 -51.5 13.5t-37 37t-13.5 51.5zM287 899q0 -18 9 -33t24.5 -23.5t33.5 -8.5q27 0 45.5 19t18.5 46t-18.5 46.5t-46 19.5t-47 -19.5t-19.5 -46.5zM90 320v412h57 v-412q0 -56 5.5 -99t13 -71.5t24 -47.5t29.5 -29t39.5 -15t42.5 -5.5t50 -0.5h4q22 0 36 0.5t33.5 3t32 7.5t28 14.5t25 23t20 34t16 46.5t9.5 61t4 78v412h57v-412q0 -67 -8.5 -119.5t-21 -86.5t-35.5 -57.5t-41.5 -35.5t-50 -18t-50.5 -7t-54 -1h-7q-38 0 -57.5 1t-52 7 t-49.5 17.5t-39 35t-33 57.5t-19 86.5t-8 120.5z" />
<glyph unicode="&#x16f;" d="M167 698q0 28 13.5 51.5t37 37.5t51.5 14q42 0 71 -30t29 -73t-29 -72.5t-71 -29.5q-21 0 -40 8t-32.5 21.5t-21.5 32.5t-8 40zM202 698q0 -27 20 -46t47 -19q17 0 32 8.5t24 23.5t9 33q0 11 -3.5 21t-9.5 18t-14 14t-18 9.5t-20 3.5q-27 0 -47 -19.5t-20 -46.5zM56 161 v370h57v-370q0 -52 29.5 -82.5t77.5 -30.5q57 0 97 13t106 46v424h57v-531h-39l-18 62q-38 -22 -63 -35t-63.5 -24.5t-76.5 -11.5q-76 0 -120 50t-44 120z" />
<glyph unicode="&#x170;" horiz-adv-x="679" d="M260 797l111 133h72l-133 -133h-50zM396 797l112 133h71l-133 -133h-50zM90 320v412h57v-412q0 -56 5.5 -99t13 -71.5t24 -47.5t29.5 -29t39.5 -15t42.5 -5.5t50 -0.5h4q22 0 36 0.5t33.5 3t32 7.5t28 14.5t25 23t20 34t16 46.5t9.5 61t4 78v412h57v-412 q0 -67 -8.5 -119.5t-21 -86.5t-35.5 -57.5t-41.5 -35.5t-50 -18t-50.5 -7t-54 -1h-7q-38 0 -57.5 1t-52 7t-49.5 17.5t-39 35t-33 57.5t-19 86.5t-8 120.5z" />
<glyph unicode="&#x171;" d="M175 596l111 133h72l-133 -133h-50zM311 596l112 133h71l-133 -133h-50zM56 161v370h57v-370q0 -52 29.5 -82.5t77.5 -30.5q57 0 97 13t106 46v424h57v-531h-39l-18 62q-38 -22 -63 -35t-63.5 -24.5t-76.5 -11.5q-76 0 -120 50t-44 120z" />
<glyph unicode="&#x172;" horiz-adv-x="679" d="M337 -4h29q-45 -29 -59 -61.5t5.5 -53.5t66.5 -22v-44q-33 -5 -62.5 6t-45 32.5t-18 46t19 51.5t64.5 45zM90 320v412h57v-412q0 -56 5.5 -99t13 -71.5t24 -47.5t29.5 -29t39.5 -15t42.5 -5.5t50 -0.5h4q22 0 36 0.5t33.5 3t32 7.5t28 14.5t25 23t20 34t16 46.5t9.5 61 t4 78v412h57v-412q0 -67 -8.5 -119.5t-21 -86.5t-35.5 -57.5t-41.5 -35.5t-50 -18t-50.5 -7t-54 -1h-7q-38 0 -57.5 1t-52 7t-49.5 17.5t-39 35t-33 57.5t-19 86.5t-8 120.5z" />
<glyph unicode="&#x173;" horiz-adv-x="574" d="M454 0h30q-45 -29 -59.5 -61t5.5 -53.5t67 -21.5v-45q-34 -4 -63.5 7t-44.5 32t-17.5 46t18.5 51.5t64 44.5zM64 161v370h57v-370q0 -52 29.5 -82.5t77.5 -30.5q57 0 97 13t106 46v424h57v-531h-39l-18 62q-38 -22 -62.5 -35t-63.5 -24.5t-77 -11.5q-76 0 -120 50 t-44 120z" />
<glyph unicode="&#x174;" horiz-adv-x="965" d="M359 794l122 130h53l110 -130h-53l-85 86l-94 -86h-53zM50 732h63l226 -639l203 639h64l-80 -257l144 -386l207 643h62l-237 -732h-61l-145 381l-126 -381h-61z" />
<glyph unicode="&#x175;" horiz-adv-x="793" d="M261 593l122 130h54l109 -130h-53l-85 86l-94 -86h-53zM22 531h63l170 -448l155 448h62l-61 -180l123 -268l175 448h62l-206 -531h-58l-124 275l-97 -275h-62z" />
<glyph unicode="&#x176;" horiz-adv-x="626" d="M176 794l122 130h54l109 -130h-53l-85 86l-93 -86h-54zM50 732h63l202 -403l223 403h62l-256 -472v-260h-57v260z" />
<glyph unicode="&#x177;" horiz-adv-x="545" d="M130 596l122 130h54l109 -130h-53l-85 86l-94 -86h-53zM23 531h63l135 -415q21 -61 69 -58l9 1l159 472h63l-234 -699l-65 -102h-34l91 270q-86 1 -119 110z" />
<glyph unicode="&#x178;" horiz-adv-x="626" d="M159 836.5q0 16.5 11.5 28t28 11.5t27.5 -11.5t11 -28t-11.5 -28t-27.5 -11.5t-27.5 11.5t-11.5 28zM413 837q0 11 5.5 19.5t14.5 14t20 5.5q17 0 28 -11.5t11 -28t-11.5 -28t-27.5 -11.5t-28 11.5t-12 28.5zM50 732h63l202 -403l223 403h62l-256 -472v-260h-57v260z" />
<glyph unicode="&#x179;" horiz-adv-x="558" d="M262 797l112 133h71l-133 -133h-50zM39 0v57l409 618h-409v57h483v-57l-409 -618h409v-57h-483z" />
<glyph unicode="&#x17a;" horiz-adv-x="462" d="M207 594l111 133h72l-133 -133h-50zM33 474v57h396v-57l-306 -416h306v-57h-380v57l309 416h-325z" />
<glyph unicode="&#x17b;" horiz-adv-x="558" d="M243 816v57q0 21 19 21h37q19 0 19 -21v-57q0 -19 -19 -19h-37q-8 0 -13.5 5.5t-5.5 13.5zM39 0v57l409 618h-409v57h483v-57l-409 -618h409v-57h-483z" />
<glyph unicode="&#x17c;" horiz-adv-x="462" d="M193 615v57q0 21 20 21h37q19 0 19 -21v-57q0 -19 -19 -19h-37q-8 0 -14 5.5t-6 13.5zM33 474v57h396v-57l-306 -416h306v-57h-380v57l309 416h-325z" />
<glyph unicode="&#x17d;" horiz-adv-x="558" d="M138 927h53l91 -86l88 86h53l-113 -130h-55zM39 0v57l409 618h-409v57h483v-57l-409 -618h409v-57h-483z" />
<glyph unicode="&#x17e;" horiz-adv-x="462" d="M96 726h53l91 -86l88 86h53l-113 -130h-54zM33 474v57h396v-57l-306 -416h306v-57h-380v57l309 416h-325z" />
<glyph unicode="&#x192;" horiz-adv-x="595" d="M22 -183l6 36h85q20 0 36.5 10t29 29.5t21.5 40t16 51t11 52t9 52.5l49 317h-102l10 58h102l7 43q8 53 16.5 91t22.5 78.5t32 66t45 42t61 16.5q14 0 28 -2t25 -5t19 -5.5t15 -5.5l7 -3l-6 -36h-88q-14 0 -26.5 -5t-23 -17.5t-18 -23.5t-14.5 -32.5t-11.5 -35t-10 -41 t-8 -40.5t-6.5 -42l-7 -44h142l-10 -57h-142l-49 -317q-6 -38 -10.5 -62t-12.5 -58.5t-16.5 -56t-22.5 -45.5t-30.5 -38t-39.5 -23t-50 -9q-26 0 -54.5 8t-36.5 13z" />
<glyph unicode="&#x2c6;" horiz-adv-x="397" d="M56 531l122 130h54l109 -130h-53l-85 86l-93 -86h-54zM232 661z" />
<glyph unicode="&#x2c7;" horiz-adv-x="397" d="M56 661h53l91 -86l88 86h53l-113 -130h-55zM228 531z" />
<glyph unicode="&#x2d8;" horiz-adv-x="340" d="M56 644h36q0 -33 23.5 -55.5t54.5 -22.5q35 0 57.5 21.5t22.5 56.5h36q0 -27 -10 -49.5t-27 -36t-37.5 -21t-41.5 -7.5q-44 0 -79 31.5t-35 82.5z" />
<glyph unicode="&#x2d9;" horiz-adv-x="187" d="M54 563v57q0 21 20 21h37q19 0 19 -21v-57q0 -19 -19 -19h-37q-9 0 -14.5 5.5t-5.5 13.5z" />
<glyph unicode="&#x2da;" horiz-adv-x="314" d="M56 632q0 28 14 51.5t37.5 37.5t51 14t50.5 -14t36.5 -37.5t13.5 -51.5q0 -43 -29.5 -72.5t-71.5 -29.5q-27 0 -50.5 13.5t-37.5 37t-14 51.5zM92 632q0 -27 19.5 -46t46.5 -19t46 19t19 46t-19 46.5t-46 19.5t-46.5 -19.5t-19.5 -46.5z" />
<glyph unicode="&#x2db;" horiz-adv-x="235" d="M137 0h30q-45 -29 -59.5 -61.5t5.5 -53.5t67 -22v-44q-34 -5 -63.5 6t-44.5 32.5t-17.5 46t18.5 51.5t64 45z" />
<glyph unicode="&#x2dc;" horiz-adv-x="449" d="M56 572q25 21 38.5 31.5t35 20.5t40.5 10q25 -1 63 -24.5t51 -23.5q6 0 12.5 1t14 4t13 5.5t14.5 7.5t13 7.5t14 8.5t13 8l16 -30q-3 -3 -14 -12.5t-15.5 -13t-14.5 -11.5t-16.5 -11t-16 -7.5t-18 -6t-17.5 -1.5q-27 1 -62 24.5t-51 22.5q-19 0 -33.5 -5t-34.5 -17.5 t-30 -17.5z" />
<glyph unicode="&#x2dd;" horiz-adv-x="367" d="M22 531l112 133h72l-133 -133h-51zM159 531l111 133h72l-133 -133h-50z" />
<glyph unicode="&#x338;" horiz-adv-x="648" d="M78 162v408q0 78 48.5 120t123.5 42h154q86 0 126.5 -45t40.5 -117v-408q0 -162 -167 -162h-154q-36 0 -65.5 8.5t-54 27t-38.5 51t-14 75.5zM135 162q0 -34 15 -58l305 557q-18 14 -51 14h-154q-56 0 -85.5 -28.5t-29.5 -76.5v-408zM187 75q26 -18 63 -18h154 q110 0 110 105v408q0 45 -19 69z" />
<glyph unicode="&#x3a9;" horiz-adv-x="783" d="M72 388q0 50 8 96t29.5 94t56 82.5t93 56.5t133.5 22q46 0 85 -7.5t69 -22.5t54.5 -34.5t41.5 -45t29.5 -53.5t20 -60.5t11 -65t3.5 -67.5q0 -49 -5.5 -89t-20 -83.5t-44 -82t-73.5 -69.5l148 -11v-48h-228v60q52 34 85.5 70.5t51 78t23.5 82t6 94.5q0 50 -6.5 90.5 t-24 80t-45.5 66.5t-74 43.5t-107 16.5q-263 0 -263 -302q0 -56 5.5 -92.5t23.5 -75t51 -74t89 -78.5v-60h-220v49l150 11q-37 25 -64.5 51.5t-44 55.5t-26.5 53t-14.5 57t-5.5 54t-1 57z" />
<glyph unicode="&#x3c0;" horiz-adv-x="626" d="M22 474v57h533v-57h-129v-308q0 -32 5 -53.5t14.5 -34.5t24 -19t34.5 -6h99v-34q-56 -24 -99 -24q-68 0 -101.5 38t-33.5 133v308h-204v-474h-57v474h-86z" />
<glyph unicode="&#x1e02;" horiz-adv-x="597" d="M273 814v56q0 21 20 21h36q20 0 20 -21v-56q0 -20 -20 -20h-36q-9 0 -14.5 5.5t-5.5 14.5zM90 0v732h272q52 0 90.5 -16t59.5 -44t30.5 -59.5t9.5 -68.5q0 -62 -27.5 -106t-77.5 -57q40 -9 74 -54.5t34 -122.5q0 -41 -9 -75.5t-29.5 -64.5t-60 -47t-94.5 -17h-272z M147 57h215q136 0 136 149q0 63 -37 106t-99 42h-215v-297zM147 412h215q62 0 97 34t36 98q1 131 -133 131h-215v-263z" />
<glyph unicode="&#x1e03;" horiz-adv-x="553" d="M59 870v57q0 21 20 21h36q20 0 20 -21v-57q0 -19 -20 -19h-36q-6 0 -10.5 2.5t-7 6.5t-2.5 10zM67 0v785h55v-286q45 18 102.5 29t94.5 11t66 -10.5t48 -31t32 -45.5t20 -57.5t10 -63.5t3 -68q0 -40 -4.5 -75.5t-17 -72t-32 -62.5t-51.5 -42.5t-74 -16.5q-46 0 -109 23 t-87 42l-16 -59h-40zM123 100q111 -49 196 -49q56 0 89 53.5t33 158.5q0 65 -9 109t-26 67.5t-37.5 33t-49.5 9.5q-91 0 -196 -27v-355z" />
<glyph unicode="&#x1e0a;" horiz-adv-x="661" d="M288 820v56q0 21 20 21h37q19 0 19 -21v-56q0 -20 -19 -20h-37q-6 0 -10.5 2.5t-7 7t-2.5 10.5zM90 0v732h265q41 0 76 -9.5t60 -27t45 -40.5t33.5 -51.5t22.5 -57.5t14 -62t7 -61.5t2 -59.5q0 -52 -8.5 -101.5t-28.5 -97.5t-49 -84t-74 -58t-100 -22h-265zM147 59h208 q52 0 92 26t63.5 70t35.5 97t12 112q0 311 -203 311h-208v-616z" />
<glyph unicode="&#x1e0b;" horiz-adv-x="553" d="M419 865v57q0 20 20 20h37q19 0 19 -20v-57q0 -19 -19 -19h-37q-9 0 -14.5 5t-5.5 14zM56 263q0 45 4 81.5t15.5 74t30.5 63t51.5 41.5t76.5 16q37 0 94.5 -11t102.5 -29v286h55v-785h-39l-17 59q-23 -19 -86.5 -42t-109.5 -23q-42 0 -74 16.5t-51.5 42.5t-31.5 62.5 t-16.5 72t-4.5 75.5zM113 263q0 -107 32.5 -159.5t88.5 -52.5q85 0 196 49v355q-105 27 -196 27q-22 0 -39.5 -5.5t-33.5 -20t-26 -39t-16 -63.5t-6 -91z" />
<glyph unicode="&#x1e1e;" horiz-adv-x="572" d="M275 823v57q0 21 20 21h36q20 0 20 -21v-57q0 -19 -20 -19h-36q-9 0 -14.5 5.5t-5.5 13.5zM90 0v602q0 69 35.5 100.5t90.5 29.5l309 -14v-43h-309q-39 0 -54 -18.5t-15 -54.5v-209l338 -8v-44l-338 -8v-333h-57z" />
<glyph unicode="&#x1e1f;" horiz-adv-x="394" d="M215 879v57q0 20 20 20h36q20 0 20 -20v-57q0 -19 -20 -19h-36q-9 0 -14.5 5t-5.5 14zM22 474v42l94 15v99q0 22 1 37.5t7 40t17.5 40t33.5 27t54 11.5q78 0 143 -20v-36h-129q-24 1 -38.5 -6t-21 -22.5t-8.5 -30.5t-2 -41v-99h158v-57h-158v-474h-57v474h-94z" />
<glyph unicode="&#x1e40;" horiz-adv-x="799" d="M361 816v57q0 21 20 21h36q20 0 20 -21v-57q0 -19 -20 -19h-36q-6 0 -10.5 2.5t-7 7t-2.5 9.5zM61 0l60 732h79l201 -637l196 637h80l65 -732h-57l-57 634l-196 -634h-59l-202 634l-53 -634h-57z" />
<glyph unicode="&#x1e41;" horiz-adv-x="909" d="M445 617v57q0 21 20 21h37q19 0 19 -21v-57q0 -19 -19 -19h-37q-8 0 -14 5.5t-6 13.5zM67 0v531h39l18 -63q29 17 46.5 26.5t44 21t53 17t54.5 5.5q50 0 89 -21.5t57 -57.5q27 21 61 38.5t76.5 29t83.5 11.5q72 0 118 -48.5t46 -122.5v-367h-57v367q0 50 -29.5 82 t-77.5 32q-59 0 -107 -14.5t-100 -46.5q5 -13 5 -51v-369h-57v367q0 50 -30 82t-78 32q-55 0 -93.5 -12.5t-104.5 -45.5v-423h-57z" />
<glyph unicode="&#x1e56;" horiz-adv-x="582" d="M258 834v57q0 21 20 21h37q19 0 19 -21v-57q0 -19 -19 -19h-37q-9 0 -14.5 5.5t-5.5 13.5zM67 0v732h293q21 0 40 -3t40 -11t37 -23t29.5 -37t21 -56.5t7.5 -77.5t-6 -77t-15.5 -56.5t-24.5 -39t-29 -25t-33.5 -13t-33.5 -6t-33 -1.5q-30 0 -131 7.5t-105 9.5v-323h-57z M124 364h236q26 0 44.5 5.5t36.5 21t27 49t9 84.5q0 40 -8 69t-19.5 44t-28.5 24t-30.5 11t-30.5 2h-236v-310z" />
<glyph unicode="&#x1e57;" horiz-adv-x="553" d="M256 624v57q0 20 20 20h36q20 0 20 -20v-57q0 -19 -20 -19h-36q-6 0 -10.5 2.5t-7 6.5t-2.5 10zM67 -269v800h40l16 -59q23 19 86.5 42t109.5 23q42 0 74 -16.5t51.5 -42.5t32 -62.5t17 -72t4.5 -75.5q0 -45 -4 -81.5t-16 -74t-31 -63t-51.5 -41.5t-76.5 -16 q-37 0 -94.5 11t-102.5 29v-301h-55zM123 76q105 -27 196 -27q29 0 49.5 9.5t37.5 33t26 67.5t9 109q0 105 -33 158.5t-89 53.5q-85 0 -196 -49v-355z" />
<glyph unicode="&#x1e60;" horiz-adv-x="584" d="M267 824v57q0 20 20 20h37q19 0 19 -20v-57q0 -19 -19 -19h-37q-8 0 -14 5t-6 14zM73 494v66q0 53 14.5 89t42 55t61 26.5t78.5 7.5q36 0 118 -8t123 -14v-44l-241 9q-69 3 -104 -21.5t-35 -99.5v-66q0 -23 3.5 -41t11 -29.5t17 -18.5t24 -11t28.5 -5t33 -1h133 q47 0 80 -13.5t49 -38.5t22.5 -51.5t6.5 -60.5v-68q0 -41 -12 -71.5t-30 -48t-45 -27.5t-53.5 -13.5t-59.5 -3.5q-36 0 -122.5 7.5t-122.5 14.5v44q97 -9 245 -9q21 0 37.5 1.5t37.5 8t34.5 17.5t23.5 31.5t10 48.5v68q0 53 -23 79.5t-78 26.5h-131q-46 0 -79 10t-51.5 24.5 t-29 37t-13.5 43.5t-3 49z" />
<glyph unicode="&#x1e61;" horiz-adv-x="505" d="M230 623v57q0 20 20 20h37q19 0 19 -20v-57q0 -19 -19 -19h-37q-6 0 -10.5 2.5t-7 6.5t-2.5 10zM45 360v46q0 64 31.5 97t106.5 33q37 0 123 -5t128 -9v-42h-251q-50 0 -65.5 -17.5t-15.5 -56.5v-46q0 -24 5 -38.5t17.5 -20.5t24 -7.5t34.5 -1.5h148q61 0 95.5 -33 t34.5 -90v-49q0 -39 -11 -65.5t-31 -38.5t-40.5 -16.5t-47.5 -4.5q-34 0 -132.5 6t-131.5 10v41h264h14t17.5 3.5t20.5 9.5t14 20t7 35v49q0 67 -73 67h-148q-75 0 -106.5 25t-31.5 99z" />
<glyph unicode="&#x1e6a;" horiz-adv-x="586" d="M256 816v57q0 21 20 21h37q19 0 19 -21v-57q0 -19 -19 -19h-37q-5 0 -9.5 2.5t-7.5 7t-3 9.5zM46 675v57h511v-57h-230v-675h-57v675h-224z" />
<glyph unicode="&#x1e6b;" horiz-adv-x="368" d="M114 760v57q0 20 20 20h37q19 0 19 -20v-57q0 -19 -19 -19h-37q-9 0 -14.5 5t-5.5 14zM22 475v42l94 15l15 148h42v-148h162v-57h-162v-286q0 -39 6 -65.5t17 -39.5t21 -18.5t25 -8.5q77 -17 84 -17v-40h-81q-129 0 -129 189v286h-94z" />
<glyph unicode="&#x1e80;" horiz-adv-x="965" d="M343 927h71l112 -133h-50zM50 732h63l226 -639l203 639h64l-80 -257l144 -386l207 643h62l-237 -732h-61l-145 381l-126 -381h-61z" />
<glyph unicode="&#x1e81;" horiz-adv-x="793" d="M245 726h72l111 -133h-50zM22 531h63l170 -448l155 448h62l-61 -180l123 -268l175 448h62l-206 -531h-58l-124 275l-97 -275h-62z" />
<glyph unicode="&#x1e82;" horiz-adv-x="965" d="M477 794l111 133h72l-133 -133h-50zM50 732h63l226 -639l203 639h64l-80 -257l144 -386l207 643h62l-237 -732h-61l-145 381l-126 -381h-61z" />
<glyph unicode="&#x1e83;" horiz-adv-x="793" d="M379 593l111 133h72l-133 -133h-50zM22 531h63l170 -448l155 448h62l-61 -180l123 -268l175 448h62l-206 -531h-58l-124 275l-97 -275h-62z" />
<glyph unicode="&#x1e84;" horiz-adv-x="965" d="M335 833q0 17 11.5 28t28 11t27.5 -11t11 -27.5t-11.5 -28t-27.5 -11.5q-8 0 -15.5 3t-12.5 8.5t-8 12.5t-3 15zM589 833q0 17 12 28t28.5 11t27.5 -11t11 -27.5t-11.5 -28t-27.5 -11.5q-11 0 -20 5t-14.5 14.5t-5.5 19.5zM50 732h63l226 -639l203 639h64l-80 -257 l144 -386l207 643h62l-237 -732h-61l-145 381l-126 -381h-61z" />
<glyph unicode="&#x1e85;" horiz-adv-x="793" d="M237 632.5q0 16.5 11.5 27.5t28 11t27.5 -11t11 -27.5t-11 -28t-27.5 -11.5t-28 11.5t-11.5 28zM492 632q0 17 11.5 28t28 11t27.5 -11t11 -27.5t-11 -28t-28 -11.5q-10 0 -19.5 5t-14.5 14.5t-5 19.5zM22 531h63l170 -448l155 448h62l-61 -180l123 -268l175 448h62 l-206 -531h-58l-124 275l-97 -275h-62z" />
<glyph unicode="&#x1ef2;" horiz-adv-x="626" d="M167 930h72l111 -133h-50zM50 732h63l202 -403l223 403h62l-256 -472v-260h-57v260z" />
<glyph unicode="&#x1ef3;" horiz-adv-x="545" d="M121 729h71l112 -133h-50zM23 531h63l135 -415q21 -61 69 -58l9 1l159 472h63l-234 -699l-65 -102h-34l91 270q-86 1 -119 110z" />
<glyph unicode="&#x2013;" horiz-adv-x="517" d="M22 258v58h473v-58h-473z" />
<glyph unicode="&#x2014;" horiz-adv-x="740" d="M22 260v58h696v-58h-696z" />
<glyph unicode="&#x2018;" horiz-adv-x="235" d="M75 568v101q0 23 8.5 39t20.5 21.5t24 7.5t20 1l8 -1v-26q-18 1 -23.5 -7.5t-5.5 -20.5v-31h11q6 0 11.5 -2.5t8.5 -8t3 -13.5v-60q0 -25 -23 -25h-41q-22 0 -22 25z" />
<glyph unicode="&#x2019;" horiz-adv-x="235" d="M75 653v60q0 26 24 26h40q23 0 23 -26l-1 -101q0 -24 -8.5 -39.5t-20.5 -21t-24 -8t-20 -1.5l-8 2v25q29 -1 29 29v31h-11q-6 0 -11.5 2.5t-8.5 8t-3 13.5z" />
<glyph unicode="&#x201a;" horiz-adv-x="235" d="M75 23v60q0 26 23 26h41q22 0 22 -26v-100q0 -24 -8 -40t-20 -22t-24 -8t-21 -1l-8 2v25q29 -1 29 30v30h-11q-10 0 -16.5 6.5t-6.5 17.5z" />
<glyph unicode="&#x201c;" horiz-adv-x="362" d="M208 568v101q0 23 8.5 39t20.5 21.5t24 7.5t21 1l8 -1v-26q-29 2 -29 -28v-31h11q6 0 11 -2.5t8 -8t3 -13.5v-60q0 -25 -22 -25h-41q-23 0 -23 25zM68 568v101q0 23 8.5 39t20.5 21.5t24 7.5t20 1l9 -1v-26q-29 1 -29 -28v-31h10q6 0 11.5 -2.5t9 -8t3.5 -13.5v-60 q0 -25 -24 -25h-41q-22 0 -22 25z" />
<glyph unicode="&#x201d;" horiz-adv-x="362" d="M68 653v60q0 26 23 26h41q23 0 23 -26v-101q0 -24 -8.5 -39.5t-20.5 -21t-24 -8t-21 -1.5l-8 2v25q28 -1 28 29v31h-10q-10 0 -16.5 6t-6.5 18zM208 653v60q0 26 24 26h41q21 0 21 -26v-101q0 -24 -8 -39.5t-20 -21t-24 -8t-21 -1.5l-8 2v25q29 -1 29 29v31h-10 q-7 0 -12 2.5t-8.5 8t-3.5 13.5z" />
<glyph unicode="&#x201e;" horiz-adv-x="362" d="M68 24v60q0 26 23 26h41q23 0 23 -26v-101q0 -24 -8.5 -40t-20.5 -21.5t-24 -7.5t-21 -1l-8 1v26q28 -1 28 29v31h-10q-10 0 -16.5 6t-6.5 18zM208 24v60q0 26 24 26h41q21 0 21 -26v-101q0 -24 -8 -40t-20 -21.5t-24 -7.5t-21 -1l-8 1v26q29 -1 29 29v31h-10 q-7 0 -12 2.5t-8.5 8t-3.5 13.5z" />
<glyph unicode="&#x2020;" horiz-adv-x="388" d="M22 497v44l143 7l7 222h46l7 -222l141 -7v-44l-141 -8l-8 -561h-46l-6 561z" />
<glyph unicode="&#x2021;" horiz-adv-x="411" d="M22 181v43l144 8l-1 257l-143 8v44l143 7l7 222h46l7 -222l141 -7v-44l-141 -8l-3 -257l144 -8v-43l-145 -9l-4 -244h-46l-4 244z" />
<glyph unicode="&#x2022;" horiz-adv-x="315" d="M95 350v62q0 36 33 36h57q35 0 35 -36v-62q0 -32 -35 -32h-57q-15 0 -24 8.5t-9 23.5z" />
<glyph unicode="&#x2026;" horiz-adv-x="813" d="M637 19v59q0 21 20 21h39q20 0 20 -21v-59q0 -19 -20 -19h-39q-9 0 -14.5 5.5t-5.5 13.5zM365 19v59q0 21 20 21h39q20 0 20 -21v-59q0 -19 -20 -19h-39q-9 0 -14.5 5.5t-5.5 13.5zM93 19v59q0 21 20 21h39q20 0 20 -21v-59q0 -19 -20 -19h-39q-9 0 -14.5 5.5t-5.5 13.5z " />
<glyph unicode="&#x2030;" horiz-adv-x="1380" d="M47 474v133q0 66 28 95.5t101 29.5h101q71 0 99 -29.5t28 -95.5v-133q0 -66 -28 -95.5t-101 -29.5h-101q-71 0 -99 29.5t-28 95.5zM95 474q0 -45 17.5 -61t61.5 -16h101q48 0 64.5 16t16.5 61v133q0 30 -7.5 46.5t-24 23.5t-47.5 7h-101q-33 0 -50 -7t-24 -23t-7 -47 v-133zM232 0l438 732h54l-438 -732h-54zM551 127v133q0 67 28 96t101 29h101q71 0 99 -29.5t28 -95.5v-133q0 -66 -28 -95.5t-101 -29.5h-101q-71 0 -99 29.5t-28 95.5zM599 127q0 -45 17.5 -61t61.5 -16h101q48 0 64.5 16t16.5 61v133q0 30 -7.5 46.5t-24 23.5t-47.5 7 h-101q-49 0 -65 -15.5t-16 -61.5v-133zM977 127v133q0 45 11 71t39.5 40t78.5 14h101q71 0 99 -29.5t28 -95.5v-133q0 -44 -11.5 -70.5t-40 -40.5t-77.5 -14h-101q-72 0 -99.5 29.5t-27.5 95.5zM1025 127q0 -45 17 -61t62 -16h101q48 0 64.5 16t16.5 61v133q0 44 -17 60.5 t-62 16.5h-101q-49 0 -65 -15.5t-16 -61.5v-133z" />
<glyph unicode="&#x2039;" horiz-adv-x="355" d="M56 354l206 203l40 -40l-167 -163l172 -168l-40 -40z" />
<glyph unicode="&#x203a;" horiz-adv-x="355" d="M56 186l172 168l-167 163l40 40l206 -203l-211 -208z" />
<glyph unicode="&#x2044;" horiz-adv-x="208" d="M-101 0l361 745h49l-361 -745h-49z" />
<glyph unicode="&#x2070;" horiz-adv-x="482" d="M67 498v255q0 41 15 66t40 34.5t62 9.5h117q113 0 113 -110v-255q0 -66 -28.5 -88t-84.5 -22h-117q-26 0 -43.5 3.5t-36 14t-28 33.5t-9.5 59zM115 502q0 -27 7 -41.5t22 -20t44 -5.5h109q44 0 57.5 15t13.5 52v247q0 35 -15 51t-56 16h-109q-42 0 -57.5 -16t-15.5 -51 v-247z" />
<glyph unicode="&#x2074;" horiz-adv-x="414" d="M18 544l202 319h54l-182 -289h200v121l21 48h26v-169h59v-37l-59 -12v-136h-47v136h-258z" />
<glyph unicode="&#x2075;" horiz-adv-x="430" d="M61 396v36h211q66 0 66 70v56q0 16 -1 25t-6.5 21t-20 18t-36.5 6h-113q-25 0 -42 -15.5t-17 -41.5h-41l15 292h295v-47h-251l-9 -170q8 11 22.5 18t35.5 9.5t35.5 3t40 -0.5t31.5 -1q109 0 109 -113v-64q0 -40 -14 -66t-38 -37t-57 -11q-147 0 -215 12z" />
<glyph unicode="&#x2076;" horiz-adv-x="450" d="M61 639q1 57 8 99t17.5 66t27.5 39t32.5 20t37.5 6q95 5 205 -10v-37h-203q-19 0 -33.5 -11t-22.5 -27.5t-13 -41t-6.5 -45.5t-2.5 -48q107 11 192 11q61 0 83 -24.5t22 -68.5v-73q0 -52 -28.5 -78.5t-76.5 -26.5h-107q-23 0 -41.5 5t-36.5 21.5t-29.5 43t-18 72.5 t-6.5 108zM108 613q0 -34 4 -63t12.5 -56t25.5 -42.5t41 -15.5h106q61 0 61 63v65q0 30 -14.5 39.5t-46.5 9.5h-189z" />
<glyph unicode="&#x2077;" horiz-adv-x="370" d="M17 818v47h321l15 -26l-182 -450h-53l175 429h-276z" />
<glyph unicode="&#x2078;" horiz-adv-x="480" d="M74 491v58q0 32 18.5 50t42.5 23q-22 6 -36.5 21.5t-19.5 32t-5 35.5v40q0 65 30.5 91t85.5 26h110q54 0 81 -27t27 -90v-40q1 -23 -12 -47t-44 -30q24 -4 40 -30.5t16 -54.5v-58q0 -104 -105 -104h-120q-63 0 -86 28t-23 76zM121 495q0 -22 6 -35t20 -19t40 -6h112 q20 0 33 5.5t21 19t8 35.5v50q0 15 -5 27t-13 19t-18.5 10.5t-21.5 3.5h-118q-30 0 -47 -15t-17 -44v-51zM121 715q0 -22 9 -36.5t22 -20t29 -5.5h118q32 0 47 17.5t15 44.5v32q0 43 -16.5 58.5t-53.5 15.5h-97q-27 0 -42.5 -6.5t-23 -22.5t-7.5 -45v-32z" />
<glyph unicode="&#x2079;" horiz-adv-x="450" d="M50 691v73q0 52 29 78.5t76 26.5h107q24 0 42 -5.5t36 -21.5t29.5 -43t18.5 -72.5t6 -107.5q0 -57 -7 -99t-17.5 -66t-27 -39t-32.5 -20t-38 -6q-116 -7 -206 10v37h203q24 0 40.5 15t24 43t10.5 54.5t3 60.5q-106 -12 -192 -12q-60 0 -82.5 25t-22.5 69zM97 694 q0 -30 14.5 -39.5t46.5 -9.5h189q0 177 -81 177h-108q-61 0 -61 -63v-65z" />
<glyph unicode="&#x207f;" horiz-adv-x="398" d="M42 378v354h32l15 -46q23 14 33 19.5t31 15.5t41 14t41 4q39 0 66.5 -16.5t40.5 -41.5t13 -56v-247h-47v240q0 24 -10.5 41.5t-27.5 25.5t-39 8q-10 0 -20.5 -1t-17.5 -2t-18.5 -4.5t-15.5 -4.5t-17 -6t-15.5 -6t-18.5 -8.5t-19 -8.5v-274h-47z" />
<glyph unicode="&#x2080;" horiz-adv-x="482" d="M67 -90v255q0 60 30 85t87 25h117q113 0 113 -110v-255q0 -66 -28.5 -88t-84.5 -22h-117q-26 0 -43.5 3.5t-36 14t-28 33.5t-9.5 59zM115 -86q0 -40 15.5 -53.5t57.5 -13.5h109q44 0 57.5 15t13.5 52v247q0 35 -15 51t-56 16h-109q-42 0 -57.5 -16t-15.5 -51v-247z" />
<glyph unicode="&#x2081;" horiz-adv-x="265" d="M18 187v35l128 55h47v-476h-47v424z" />
<glyph unicode="&#x2082;" horiz-adv-x="395" d="M35 236q-1 0 -1 9t0.5 17.5l0.5 8.5q102 12 183 12q130 0 130 -136q0 -118 -216 -293q-5 -4 -7 -6h222v-47h-309v43q5 4 42 32.5t57 45.5t55.5 50t55 58t35.5 56.5t16 57.5q0 47 -19.5 69.5t-70.5 22.5h-174z" />
<glyph unicode="&#x2083;" horiz-adv-x="416" d="M33 232v31q9 3 18 5t20 3.5t19 3t22 2t21 1t23.5 0.5h22.5h25.5h24.5q61 0 91 -32.5t30 -82.5v-35q0 -34 -19.5 -58t-41.5 -31q61 -30 61 -95v-28q0 -58 -28.5 -88.5t-98.5 -30.5q-50 0 -72 0.5t-55.5 4t-58.5 11.5l1 30l177 1q48 0 67.5 17t19.5 59v23q0 38 -24 56.5 t-59 19.5l-142 5v34l142 6q39 2 62 20.5t23 50.5v26q0 71 -82 71h-189z" />
<glyph unicode="&#x2084;" horiz-adv-x="414" d="M18 -44l202 319h54l-182 -289h200v121l21 48h26v-169h59v-37l-59 -12v-136h-47v136h-258z" />
<glyph unicode="&#x2085;" horiz-adv-x="430" d="M61 -17l15 292h295v-47h-251l-9 -170q8 11 22.5 18t35.5 9.5t35.5 3t40 -0.5t31.5 -1q109 0 109 -113v-64q0 -40 -14 -66t-38 -37t-57 -11q-147 0 -215 12v36h211q66 0 66 70v56q0 16 -1 25t-6.5 21t-20 18t-36.5 6h-113q-25 0 -42 -15.5t-17 -41.5h-41z" />
<glyph unicode="&#x2086;" horiz-adv-x="450" d="M61 51q1 57 8 99t17.5 66t27.5 39t32.5 20t37.5 6q116 6 205 -10v-37h-203q-19 0 -33.5 -11t-22.5 -27.5t-13 -41t-6.5 -45.5t-2.5 -48q107 11 192 11q61 0 83 -24.5t22 -68.5v-73q0 -52 -28.5 -78.5t-76.5 -26.5h-107q-23 0 -41.5 5t-36.5 21.5t-29.5 43t-18 72.5 t-6.5 108zM108 25q0 -26 2 -49.5t8 -47.5t15 -41.5t24 -28t34 -10.5h106q61 0 61 63v65q0 30 -14.5 39.5t-46.5 9.5h-189z" />
<glyph unicode="&#x2087;" horiz-adv-x="370" d="M17 230v47h321l15 -26l-182 -450h-53l175 429h-276z" />
<glyph unicode="&#x2088;" horiz-adv-x="480" d="M74 -39q0 32 18.5 50t42.5 23q-22 6 -36.5 21.5t-19.5 32t-5 35.5v40q0 65 30.5 91t85.5 26h110q54 0 81 -27t27 -90v-40q1 -23 -12 -47t-44 -30q24 -4 40 -30.5t16 -54.5v-58q0 -104 -105 -104h-120q-63 0 -86 28t-23 76v58zM121 -42v-51q0 -33 14 -46.5t52 -13.5h112 q20 0 33 5.5t21 19t8 35.5v50q0 30 -17 45t-41 15h-118q-30 0 -47 -15t-17 -44zM121 127q0 -22 9 -36.5t22 -20t29 -5.5h118q32 0 47 17.5t15 44.5v32q0 30 -8 46t-22.5 22t-39.5 6h-97q-27 0 -42.5 -6.5t-23 -22.5t-7.5 -45v-32z" />
<glyph unicode="&#x2089;" horiz-adv-x="450" d="M50 103v73q0 52 29 78.5t76 26.5h107q24 0 42 -5.5t36 -21.5t29.5 -43t18.5 -72.5t6 -107.5q0 -57 -7 -99t-17.5 -66t-27 -39t-32.5 -20t-38 -6q-114 -7 -206 10v37h203q24 0 40.5 15t24 43t10.5 54.5t3 60.5q-106 -12 -192 -12q-60 0 -82.5 25t-22.5 69zM97 106 q0 -30 14.5 -39.5t46.5 -9.5h189q0 177 -81 177h-108q-61 0 -61 -63v-65z" />
<glyph unicode="&#x20ac;" horiz-adv-x="605" d="M22 261v36l88 5v115l-88 6v33l88 7v8q0 36 1.5 59.5t13.5 67.5t34.5 71t70.5 49t114 22q38 0 109.5 -8t125.5 -19v-43q-17 1 -44.5 3.5t-90.5 6t-100 3.5q-47 0 -80 -11.5t-52 -29.5t-29 -48.5t-13 -59t-3 -71.5l251 -5v-36l-251 -5v-115l251 -6v-36q-16 0 -42 -0.5 t-81.5 -1.5t-92 -2t-35.5 -1q0 -99 47 -151t130 -53q45 0 105 3.5t97 7.5l37 4v-42q-113 -30 -239 -30q-27 0 -54 5t-61 22t-59 44t-42.5 76t-17.5 114z" />
<glyph unicode="&#x2113;" horiz-adv-x="396" d="M33 248q28 25 58 56v328q0 49 32.5 78t79.5 29q39 0 67.5 -20t42.5 -51.5t14 -69.5q-1 -71 -50.5 -151.5t-129.5 -152.5v-105q1 -55 9 -82.5t21 -36t40 -13.5q0 -1 20 -5.5t41 -8.5t23 -4v-39q0 -1 -20.5 -1t-41.5 1h-21q-68 0 -97.5 43.5t-29.5 145.5v59 q-14 -13 -38 -25zM147 372q15 18 25 30.5t23.5 31.5t23 34t20 33.5t16 35.5t9.5 34.5t3.5 35t-5.5 33.5q-5 20 -24 31.5t-39 11t-36 -15t-16 -41.5v-254z" />
<glyph unicode="&#x2116;" horiz-adv-x="1074" d="M80 0v651q0 37 21.5 59.5t49 26.5t55.5 -11t41 -46l256 -606q10 -25 32 -20t23 32v482q0 87 40 127t111 40l189 -1q74 -2 103 -44.5t29 -136.5q0 -86 -29.5 -129t-102.5 -43h-66q-77 0 -104.5 50.5t-27.5 183.5h47q0 -80 11 -122t28 -53.5t50 -11.5h58q45 0 67 26.5 t22 98.5q0 35 -4.5 60t-11.5 38.5t-20 21t-24.5 9.5t-30.5 2q-113 1 -185 1q-45 0 -68.5 -30.5t-23.5 -84.5v-491q0 -32 -20.5 -55t-47 -29.5t-54.5 7t-42 47.5l-258 608q-10 26 -32.5 20.5t-22.5 -32.5v-645h-58z" />
<glyph unicode="&#x2122;" horiz-adv-x="696" d="M22 685v47h259v-47h-105v-302h-47v302h-107zM320 383l27 349h46l110 -268l98 268h47l31 -349h-46l-21 241l-88 -241h-39l-100 242l-18 -242h-47z" />
<glyph unicode="&#x212e;" horiz-adv-x="736" d="M67 266q0 113 84 192q43 38 94.5 56.5t122.5 18.5q66 0 115 -16t93 -50q87 -67 93 -209h-479h-2h-5.5t-3 -3t-1.5 -8v-133q0 -11 14 -26t38 -30.5t61 -26t77 -10.5q37 0 73.5 11t66 30t51.5 43h56q-58 -61 -113 -83q-58 -22 -134 -22q-138 0 -218 74q-83 77 -83 192z M178 284q0 -6 2 -7.5t7 -1.5h357h7q4 -1 5 0t1 7v133q0 32 -63 65.5t-127 33.5q-38 0 -74.5 -11t-60.5 -26.5t-39 -31t-15 -24.5v-137z" />
<glyph unicode="&#x2202;" horiz-adv-x="655" d="M64 227q0 113 65 171.5t190 58.5q112 0 187 -57q-5 153 -53 218t-158 65q-50 0 -98 -16t-82 -37l-17 35q41 28 64.5 40.5t59.5 23.5t76 11q140 0 203 -91.5t63 -261.5q0 -61 -9 -116.5t-29 -106.5t-49 -88t-72.5 -59t-96.5 -22q-67 0 -121.5 24.5t-88.5 78t-34 129.5z M121 229q0 -57 26.5 -98.5t67.5 -60t91 -18.5q47 0 84 24t58 59t35 79t19 79t5 65q-29 16 -82 29t-106 13q-198 0 -198 -171z" />
<glyph unicode="&#x2206;" horiz-adv-x="728" d="M22 0l321 732h55l308 -732h-684zM111 57h510l-250 597z" />
<glyph unicode="&#x220f;" horiz-adv-x="624" d="M22 675v57h581v-57h-87v-675h-57v675h-294v-675h-57v675h-86z" />
<glyph unicode="&#x2211;" horiz-adv-x="579" d="M45 -140l214 410l-214 405v57h512v-57h-444l213 -405l-213 -410h444v-60h-512v60z" />
<glyph unicode="&#x2212;" horiz-adv-x="450" d="M22 328v56h406v-56h-406z" />
<glyph unicode="&#x221a;" horiz-adv-x="615" d="M22 301v57h123l133 -276l258 718h57l-285 -800h-51l-147 301h-88z" />
<glyph unicode="&#x221e;" horiz-adv-x="797" d="M56 341q0 29 3 51.5t13.5 46.5t27 39.5t46 25.5t69.5 10q53 0 102.5 -35.5t81.5 -84.5q31 48 81 84t103 36q40 0 69.5 -10.5t46.5 -26t27 -39.5t13 -46.5t3 -50.5q0 -172 -159 -172q-59 0 -106 33t-79 90q-67 -123 -183 -123q-159 0 -159 172zM113 341q0 -28 4.5 -48 t16 -36t31.5 -23.5t50 -7.5q84 0 159 116q-31 47 -75 81t-84 34q-63 0 -82.5 -27.5t-19.5 -88.5zM424 342q72 -116 159 -116q58 0 80 30t22 85q0 28 -3 46.5t-13 36t-31.5 25.5t-54.5 8q-27 0 -58 -17.5t-57 -43.5t-44 -54z" />
<glyph unicode="&#x222b;" horiz-adv-x="445" d="M22 -147h92q15 0 26.5 4.5t19.5 15.5t14 21t9.5 30.5t5.5 34t3 41t1.5 42t0.5 46.5v418q0 44 1.5 77t6 69t13.5 61t23 45.5t36 31t50 10.5q22 0 39 -2.5t25 -4.5t19.5 -7t15.5 -6v-37h-91q-15 0 -26.5 -5t-19.5 -16.5t-14 -23t-10 -31.5t-6 -35.5t-3 -41t-1.5 -41 t-0.5 -43.5v-418q0 -47 -1 -77.5t-5 -68t-13 -61t-22.5 -44.5t-35 -31t-51.5 -10q-71 0 -101 20v37z" />
<glyph unicode="&#x2248;" horiz-adv-x="511" d="M56 250q27 23 41 33.5t40 22t52 11.5q27 0 71.5 -24.5t69.5 -24.5q20 0 37 6t39 19t33 18l17 -30q-7 -5 -22 -17.5t-24 -19t-23 -15.5t-28.5 -12.5t-29.5 -3.5q-27 0 -71.5 25t-69.5 25q-21 0 -38.5 -5.5t-42 -18.5t-36.5 -18zM56 427q27 22 41 32.5t40 22.5t52 12 q27 0 71.5 -25t69.5 -25q20 0 37 6.5t39 19.5t33 18l17 -30q-7 -5 -22 -18t-24 -19.5t-23 -15t-28.5 -12.5t-29.5 -4q-27 0 -71.5 25t-69.5 25q-16 0 -32 -4t-27 -9.5t-28 -14.5t-30 -14z" />
<glyph unicode="&#x2260;" horiz-adv-x="471" d="M22 212v60h143l99 163h-242v60h278l46 75h47l-46 -75h102v-60h-139l-99 -163h238v-60h-274l-52 -86h-47l52 86h-106z" />
<glyph unicode="&#x2264;" horiz-adv-x="487" d="M56 112v57h377v-57h-377zM56 405v59l365 172v-62l-289 -140l289 -150v-64z" />
<glyph unicode="&#x2265;" horiz-adv-x="487" d="M56 112v57h377v-57h-377zM68 220v64l289 150l-289 140v62l365 -172v-59z" />
<glyph unicode="&#x25ca;" horiz-adv-x="526" d="M22 373l216 359h57l209 -359l-209 -373h-57zM90 373l176 -299l171 299l-171 290z" />
<glyph unicode="&#xe000;" horiz-adv-x="530" d="M0 530h530v-530h-530v530z" />
<glyph unicode="&#xfb00;" horiz-adv-x="772" d="M22 474v42l99 15v89q0 22 1 38t8 40t19 39.5t36.5 27t58.5 11.5q51 0 130 -22v-37l-117 3q-46 2 -62.5 -22.5t-16.5 -77.5v-89h316v99q0 22 1 37.5t7 40t17.5 40t33.5 27t54 11.5q69 0 143 -22v-37l-129 3q-19 1 -32.5 -4.5t-20.5 -13.5t-11 -22.5t-5 -27.5t-1 -32v-99 h157v-57h-158v-475h-57v475h-317v-474h-57v474h-97z" />
<glyph unicode="&#xfb03;" horiz-adv-x="968" d="M22 474v42l99 15v89q0 22 1 38t8 40t19 39.5t36.5 27t58.5 11.5q51 0 130 -22v-37l-117 3q-32 1 -49.5 -11t-23.5 -33t-6 -56l-2 -89h305v53q0 90 50.5 146t139.5 56q32 0 87.5 -8.5t97.5 -20.5v-37l-172 10q-62 3 -104 -31.5t-42 -114.5v-53l363 -9v-522h-58v474h-306 v-474h-57v474h-304v-474h-57v474h-97z" />
<glyph unicode="&#xfb04;" horiz-adv-x="1076" d="M22 474v42l99 15v89q0 22 1 38t8 40t19 39.5t36.5 27t58.5 11.5q51 0 130 -22v-37l-117 3q-46 2 -62.5 -22.5t-16.5 -77.5l-2 -89h304v53q0 42 8.5 77t27.5 63.5t51.5 44.5t75.5 16h259v-595q0 -40 4.5 -65.5t15.5 -39t21 -18.5t28 -9q77 -18 84 -18v-39h-81 q-46 0 -74 18.5t-41.5 60t-13.5 110.5v541h-188q-59 0 -89.5 -33t-30.5 -114v-53h146v-57h-148v-474h-57v474h-302v-474h-57v474h-97z" />
<glyph unicode="&#xfb06;" horiz-adv-x="872" d="M45 353v47q0 43 12.5 71.5t44 44.5t81.5 16h442l14 148h43v-148h162v-56h-162v-287q0 -29 2 -50.5t7.5 -35t10.5 -22t15 -13.5t16 -6.5t19 -4.5q74 -16 77 -16v-41h-75q-69 0 -99 43.5t-30 145.5v287h-442q-50 0 -65.5 -18t-15.5 -58v-47q0 -19 4 -32t9.5 -19.5t18 -9.5 t21.5 -3.5t28 -0.5h148q61 0 95.5 -32.5t34.5 -88.5v-45q0 -39 -11 -65.5t-31 -39.5t-40.5 -18t-47.5 -5q-34 0 -132.5 6t-131.5 10v41h264q73 0 73 71v45q0 64 -73 64h-148q-75 0 -106.5 24t-31.5 98z" />
<glyph horiz-adv-x="265" d="M92 653v59q0 19 19 19h40q6 0 10.5 -2.5t7 -7t2.5 -9.5v-59q0 -21 -20 -21h-40q-19 0 -19 21zM99 0l6 535h54l6 -535h-66z" />
<glyph horiz-adv-x="649" d="M78 162v307q0 78 48.5 120t123.5 42h154q87 0 127 -44t40 -118v-307q0 -162 -167 -162h-154q-36 0 -65.5 8.5t-54 27t-38.5 51t-14 75.5zM135 162q0 -53 32 -79t83 -26h154q110 0 110 105v307q0 105 -110 105h-154q-56 0 -85.5 -28.5t-29.5 -76.5v-307z" />
<glyph horiz-adv-x="353" d="M33 508v39l168 85h57v-632h-57v567z" />
<glyph horiz-adv-x="597" d="M46 581v40q155 23 292 17q102 0 152.5 -49.5t50.5 -137.5q0 -48 -33.5 -103t-80 -100t-102 -87.5t-94 -67t-61.5 -36.5h366v-57h-485v53q45 24 90.5 51.5t111 73t113.5 88.5t83 94t35 93q0 131 -150 128h-288z" />
<glyph horiz-adv-x="618" d="M56 580v35q53 16 125.5 20t182.5 2q82 -1 126.5 -47t44.5 -118v-69q0 -39 -14 -69.5t-32 -45t-39 -21.5q85 -42 85 -144v-59q0 -168 -178 -168q-81 0 -116.5 0.5t-90.5 5.5t-88 16l1 36h290q25 0 45 4.5t38.5 16t29 34t10.5 55.5v59q0 58 -35.5 85.5t-83.5 29.5l-233 7 v43l233 8q27 1 49 8.5t38 20.5t25 32.5t9 45.5v69q0 54 -34 81t-85 27h-303z" />
<glyph horiz-adv-x="593" d="M22 128l317 504h67l-298 -477h316v217l28 75h29v-292h90v-44l-90 -16v-193h-57v193h-375z" />
<glyph horiz-adv-x="637" d="M85 -44h304q51 0 79 31.5t28 80.5v105q0 15 -1.5 26.5t-7.5 28.5t-16.5 28t-31.5 19.5t-50 8.5h-154q-37 0 -66.5 -25.5t-29.5 -66.5h-52l22 440h422v-57h-369l-14 -277q11 15 35.5 28t55.5 15q21 1 45 1.5t41 0t36.5 -1t27.5 -0.5q85 0 124.5 -44.5t39.5 -121.5v-109 q0 -40 -11.5 -70.5t-28.5 -49t-39.5 -30.5t-43 -16t-41.5 -4q-107 0 -166.5 3t-137.5 16v41z" />
<glyph horiz-adv-x="627" d="M83 384q0 95 14.5 165.5t39.5 110.5t54.5 59t63.5 19q173 0 292 -16v-41h-283q-29 0 -52 -20.5t-36 -50.5t-21.5 -69.5t-11.5 -72.5t-3 -65q149 17 270 17q48 0 81.5 -11.5t50 -33t23 -46t6.5 -57.5v-124q0 -149 -161 -149h-139q-35 0 -62 10t-51.5 36.5t-40.5 69 t-25 110.5t-9 159zM140 363q0 -35 1.5 -63.5t5.5 -66.5t13 -67t22.5 -55.5t36.5 -40.5t52 -14h139q49 0 77 19.5t28 75.5v121q0 52 -28 71.5t-77 19.5h-270z" />
<glyph horiz-adv-x="542" d="M33 575v57h452l24 -40l-256 -692h-68l251 675h-403z" />
<glyph horiz-adv-x="641" d="M84 154v98q0 90 90 109q-49 14 -69.5 52.5t-20.5 85.5v65q0 95 46 134t130 39h136q54 0 89.5 -17.5t54 -56t18.5 -99.5v-65q0 -14 -3.5 -31t-11.5 -35.5t-25.5 -32.5t-40.5 -18q41 -9 61 -48t20 -82v-98q0 -37 -11 -65.5t-28 -45t-39.5 -26.5t-43 -13.5t-41.5 -3.5h-135 q-36 0 -64 6.5t-46 16.5t-31.5 25t-20 28t-10 30t-4 26.5t-0.5 21.5zM141 151q0 -94 119 -94h135q42 0 74 23.5t32 70.5v105q0 26 -9.5 44.5t-25.5 28t-32.5 13.5t-35.5 4h-149q-42 0 -75 -21.5t-33 -68.5v-105zM141 494q0 -28 10 -47.5t27.5 -28.5t34 -12.5t36.5 -3.5h149 q55 0 79 28t24 64v68q0 63 -25.5 90.5t-79.5 27.5h-136q-63 0 -91 -25t-28 -93v-68z" />
<glyph horiz-adv-x="627" d="M67 359v124q0 149 161 149h139q35 0 62 -10t51 -36.5t40 -69t25.5 -110.5t9.5 -159q0 -95 -14.5 -165.5t-39.5 -110.5t-54.5 -59t-63.5 -19q-199 0 -292 16v41h282q37 0 63 29t38.5 76t17.5 89t6 84q-150 -17 -270 -17q-49 0 -82 11.5t-49.5 33t-23 46t-6.5 57.5z M123 359q0 -52 28 -71.5t77 -19.5h270q0 35 -1.5 63.5t-5.5 66.5t-13 67t-23 55.5t-36.5 40.5t-51.5 14h-139q-49 0 -77 -19.5t-28 -75.5v-121z" />
<glyph horiz-adv-x="537" d="M45 179v101q0 190 251 157v101h58v-148q-86 1 -130 0q-55 -1 -89 -27.5t-34 -82.5v-101q0 -28 5.5 -49t16.5 -36t29.5 -24.5t42.5 -14t56 -4.5l265 1v-41q-162 -20 -272 -17q-199 -1 -199 185zM287 655v58q0 20 19 20h41q8 0 14 -5.5t6 -14.5v-58q0 -21 -20 -21h-41 q-19 0 -19 21z" />
<glyph horiz-adv-x="853" d="M73 433q0 18 1 32t10.5 41t25.5 45t50.5 32t80.5 14h210q29 0 54.5 -6.5t48.5 -21.5t36.5 -43.5t13.5 -68.5v-372h-42l-12 64l-11.5 -7.5t-31.5 -18t-43.5 -21t-52.5 -18.5t-55 -8q-55 -1 -91.5 32.5t-36.5 84.5v53q0 62 34 97.5t95 35.5h192q1 76 0 76q0 47 -25.5 66 t-75.5 19h-207q-52 0 -81.5 -23t-29.5 -84v-348q0 -35 10 -60t27.5 -37t35.5 -17.5t38 -5.5h339q65 0 92.5 29.5t27.5 90.5v512q0 31 -8 55.5t-23.5 41.5t-38 25.5t-50.5 8.5h-399v36q109 23 288 21h111q82 -2 129.5 -49t47.5 -139v-512q0 -178 -177 -178h-339 q-77 0 -122.5 46.5t-45.5 131.5v348zM285 199q0 -26 23 -46t55 -20q65 -1 186 58v149l-187 -14q-33 -2 -55 -22t-22 -60v-45z" />
<glyph horiz-adv-x="557" d="M56 268q0 129 46 199t138 70q47 0 96.5 -4t97 -9.5t57.5 -6.5v-621q0 -44 -15 -79t-39 -54.5t-51 -28.5t-54 -6l-248 24v37l248 -5q43 -1 72.5 27.5t29.5 84.5v133q-45 -18 -100.5 -28.5t-93.5 -10.5q-45 0 -78 14t-53 38t-32 60.5t-16.5 75.5t-4.5 90zM113 268 q0 -40 2 -68.5t9.5 -59.5t21 -49.5t37.5 -31t57 -12.5q22 0 41 1t35 3t35.5 5.5t37 7.5t45.5 11v405h-194q-127 0 -127 -212z" />
<glyph horiz-adv-x="943" d="M49 286v89q0 40 9.5 68.5t25.5 46t44 27t58 12.5t74 3h448l15 148h42v-149h155v-39l-155 -17v-288q0 -45 -14.5 -79t-37.5 -54t-55 -32.5t-62 -17t-64 -4.5h-154q-46 0 -77 5.5t-58 22t-40 49.5t-13 85q-24 0 -47.5 6.5t-45 19.5t-35 38.5t-13.5 59.5zM106 286 q0 -19 7.5 -33.5t20.5 -21.5t26.5 -10t29.5 -3q0 89 39 131.5t122 42.5h129q20 0 32 -1t29.5 -4t28.5 -10.5t22 -20t16.5 -33t5.5 -47.5q0 -69 -29.5 -92t-104.5 -23h-233q0 -21 4 -37.5t9.5 -27t16.5 -18t19.5 -11.5t25.5 -6t26 -2.5t30 -1.5h154q36 0 66 6.5t55.5 20.5 t40 40t14.5 63v288h-448q-37 0 -57.5 -1.5t-42 -6.5t-31.5 -16t-16.5 -29.5t-6.5 -46.5v-89zM247 218h233q48 0 62.5 9.5t14.5 48.5q0 38 -14.5 48.5t-62.5 10.5h-129q-21 0 -35 -2t-28.5 -9t-22.5 -20t-13 -34.5t-5 -51.5z" />
<glyph horiz-adv-x="369" d="M35 463v46q0 27 12 47.5t34.5 31.5t53.5 11q145 0 145 1v31q0 64 -74 64q-73 0 -159 -7v31q67 17 165 20q50 1 82.5 -25t32.5 -78v-258h-31l-16 52l-9.5 -5.5t-25 -14t-33.5 -16.5t-39 -14t-38 -6q-42 0 -71 23.5t-29 65.5zM82 471q0 -17 8 -29t20.5 -16.5t28.5 -4.5 q26 0 61.5 10.5t57.5 21.5l22 11v104l-142 -11q-56 -4 -56 -52v-34z" />
<glyph horiz-adv-x="392" d="M42 378v524h47v-193q72 30 135 30q33 0 57 -11t37.5 -27.5t21.5 -42.5t10.5 -49.5t2.5 -54.5q0 -180 -130 -180q-63 0 -134 52l-16 -48h-31zM89 459q6 -2 27 -12t31 -13.5t30.5 -8t41.5 -4.5q87 0 87 133q0 80 -20 109t-67 29q-17 0 -30 -1t-27 -3t-21.5 -3.5t-25 -6 t-26.5 -5.5v-214z" />
<glyph horiz-adv-x="360" d="M35 554.5q0 56.5 9 94t28 56t40.5 25.5t53.5 7q51 0 152 -20v-35q-89 8 -148 8q-23 0 -36.5 -3.5t-27 -16.5t-19 -41.5t-5.5 -75.5q0 -76 20 -104.5t68 -28.5q21 0 44 1t41.5 2.5t34 3t24.5 2.5l9 1v-35q-69 -21 -157 -22q-31 0 -52.5 7t-40.5 25.5t-28.5 55.5t-9.5 93.5 z" />
<glyph horiz-adv-x="390" d="M35 555q0 31 2 54.5t10 49.5t21.5 42.5t37.5 27.5t57 11q63 0 135 -30v193h46v-525h-31l-16 48q-70 -52 -133 -52q-129 0 -129 181zM82 555q0 -134 87 -134q21 0 41 4.5t30.5 8t31 13t25.5 12.5v214q-5 2 -21.5 5.5t-21 5t-17.5 4t-21 3t-20.5 1.5t-27.5 1q-46 0 -66 -29 t-20 -109z" />
<glyph horiz-adv-x="390" d="M35 557q0 94 33.5 136t127.5 42q29 0 48 -2t41.5 -9t35.5 -20t22 -37.5t9 -59.5q0 -78 -106 -78h-164q0 -45 10 -69t28.5 -32t52.5 -8q110 0 171 10v-34q-83 -23 -177 -23q-71 0 -101.5 39t-30.5 145zM82 577h161q61 0 61 35q0 31 -9.5 47t-32 22.5t-66.5 6.5 q-31 0 -50.5 -4t-35 -16t-22 -34t-6.5 -57z" />
<glyph horiz-adv-x="327" d="M29 679v36l75 10v73q0 105 96 105q41 0 98 -13v-33l-84 2q-20 0 -33 -4.5t-19.5 -13.5t-8.5 -20t-2 -28v-67h115v-47h-117v-301h-47v301h-73z" />
<glyph horiz-adv-x="415" d="M37 291v42l20 52q-21 17 -21 55q0 20 14 37.5t42 20.5q-24 11 -38.5 41t-14.5 64q0 63 32.5 96t88.5 33h221v-28l-63 -17q11 -8 22 -32t11 -52q0 -22 -5.5 -43t-18.5 -41.5t-38 -33.5t-60 -13h-103h-8.5t-10.5 -2t-11 -5t-8.5 -8.5t-3.5 -12.5q0 -15 7.5 -21.5t24.5 -8.5 l147 -17q46 -6 72 -30t26 -64v-8q0 -19 -3.5 -35t-13 -34.5t-31 -29t-53.5 -10.5h-114q-50 0 -79.5 26.5t-29.5 78.5zM83 300q0 -39 19 -53.5t53 -14.5h97q34 0 49 15.5t15 47.5v5q0 27 -18 38t-50 15l-133 16l-32 6v-75zM87 603q0 -35 19.5 -59.5t60.5 -24.5h58 q27 0 45.5 12.5t26 31t7.5 40.5q0 23 -8 41.5t-24.5 30t-40.5 11.5h-62q-81 0 -82 -83z" />
<glyph horiz-adv-x="398" d="M42 378v523h47v-216q3 1 8 4q19 12 30.5 18.5t30.5 15t38 12.5t39 4q39 0 66.5 -16.5t40.5 -41.5t13 -56v-247h-47v240q0 35 -22 54.5t-55 19.5q-27 0 -53.5 -6.5t-38.5 -11.5t-50 -22v-274h-47z" />
<glyph horiz-adv-x="136" d="M38 795v40q0 16 16 16h27q16 0 16 -16v-40q0 -15 -16 -15h-27q-16 0 -16 15zM43 378v356h47v-356h-47z" />
<glyph horiz-adv-x="139" d="M39 798v39q0 17 16 17h28q15 0 15 -17v-39q0 -16 -15 -16h-28q-16 0 -16 16zM43 196v537h49v-358q1 -98 -17 -179h-32z" />
<glyph horiz-adv-x="373" d="M42 378v521h47v-301h38l147 133h67l-171 -155l172 -198h-62l-148 173h-43v-173h-47z" />
<glyph horiz-adv-x="238" d="M41 504v396h47v-391q0 -47 12 -64t42 -23q62 -12 65 -12v-32h-67q-53 0 -76 29.5t-23 96.5z" />
<glyph horiz-adv-x="660" d="M42 378v354h35l12 -48q32 19 45 26.5t42 17t56 9.5q37 0 65.5 -15t40.5 -41q72 56 158 56q36 0 63.5 -15t42.5 -41t15 -58v-245h-47v238q0 22 -10.5 39.5t-27.5 26t-38 8.5q-71 0 -141 -38q3 -8 3 -34v-240h-47v238q0 34 -22.5 54t-55.5 20q-27 0 -53 -6.5t-38.5 -11.5 t-50.5 -22v-272h-47z" />
<glyph horiz-adv-x="395" d="M35 550q0 95 34.5 140t127.5 45q46 0 77.5 -11.5t48.5 -36t24.5 -57.5t7.5 -80q0 -44 -7.5 -74.5t-24.5 -54t-48.5 -35t-77.5 -11.5q-92 0 -127 43t-35 132zM82 550q0 -77 26 -102.5t89 -25.5q62 0 86.5 26.5t24.5 101.5q0 83 -24.5 110.5t-89 27.5t-88.5 -29.5 t-24 -108.5z" />
<glyph horiz-adv-x="390" d="M42 194v539h31l14 -47q21 16 61 34t76 18q37 0 63.5 -16t39.5 -44.5t18.5 -57.5t5.5 -64q0 -31 -2.5 -55t-10.5 -49.5t-21.5 -42.5t-36.5 -28t-54 -11q-27 0 -66.5 8t-72.5 22v-206h-45zM87 436q76 -19 133 -19q44 0 64 29t20 110q0 135 -85 135q-11 0 -22 -1t-22.5 -4 t-19.5 -5t-19.5 -7t-16.5 -7t-17 -7.5t-15 -7.5v-216z" />
<glyph horiz-adv-x="393" d="M35 556q0 58 15 98.5t46 62.5t78 22q35 0 69 -3t64.5 -7t39.5 -5v-530h-47v203q-72 -30 -126 -30q-139 0 -139 189zM82 556q0 -20 1 -35t4.5 -32.5t10.5 -30t17.5 -23t27 -16t38.5 -5.5q16 0 27 0.5t21.5 2t17.5 3.5t23 5.5t30 7.5v259h-119q-99 0 -99 -136z" />
<glyph horiz-adv-x="332" d="M42 378v354h33l14 -51q5 2 13.5 7.5t13 8t13 7.5t13.5 7.5t13.5 6.5t15 6t15 4.5t16 4t16.5 2.5t18 1q43 0 56 -6v-45q-18 4 -56 4q-28 0 -54.5 -6t-40 -12t-52.5 -22v-271h-47z" />
<glyph horiz-adv-x="375" d="M35 616v35q0 45 22 68t73 23q69 0 186 -13v-35l-177 1q-36 0 -46.5 -12t-10.5 -40v-24q0 -29 11.5 -35.5t42.5 -6.5h113q21 0 38 -6t28 -17.5t16.5 -27t5.5 -35.5v-37q0 -87 -89 -87q-58 0 -196 16v34l185 -2l5 -0.5t7.5 -0.5t8.5 1t9.5 2.5t8 5t7.5 9t5 13.5t2 18v25 q0 15 -5 24t-15.5 13t-29.5 4h-112q-34 0 -53 7t-29.5 26t-10.5 54z" />
<glyph horiz-adv-x="310" d="M30 687v34l74 11l14 101h33v-99h112v-47h-112v-180q0 -34 5 -50.5t16 -23.5t34 -11q56 -10 57 -10v-33h-59q-54 0 -77 28t-23 96v184h-74z" />
<glyph horiz-adv-x="394" d="M40 491v243h47v-240q0 -34 22.5 -54t54.5 -20q26 0 51 6.5t36 11t49 21.5v275h48v-354h-33l-15 47q-3 -3 -16.5 -11t-18.5 -11t-17 -9.5t-20 -9.5t-19.5 -6.5t-23.5 -5t-24 -1.5q-57 0 -89 35t-32 83z" />
<glyph horiz-adv-x="416" d="M28 732h53l129 -285l125 285h52l-157 -354h-41z" />
<glyph horiz-adv-x="616" d="M28 732h53l129 -285l125 285h52l-53 -118l76 -167l124 285h53l-157 -354h-41l-81 176l-78 -176h-41z" />
<glyph horiz-adv-x="393" d="M29 378l140 179l-140 175h58l110 -137l105 137h59l-136 -175l138 -179h-58l-108 142l-110 -142h-58z" />
<glyph horiz-adv-x="429" d="M28 733h52l109 -272q16 -37 42 -37l116 309h52l-173 -469l-52 -68h-32l71 180q-23 3 -40.5 22t-27.5 44z" />
<glyph horiz-adv-x="375" d="M35 686v46h300v-40l-227 -267h226v-46h-288v46l224 261h-235z" />
<glyph horiz-adv-x="623" d="M65 162v408q0 78 48.5 120t123.5 42h154q44 0 77 -13t52.5 -35.5t28.5 -51t9 -62.5v-408q0 -162 -167 -162h-154q-36 0 -66 8.5t-54.5 27t-38 51t-13.5 75.5zM122 162q0 -53 32 -79t83 -26h154q110 0 110 105v408q0 105 -110 105h-154q-56 0 -85.5 -28.5t-29.5 -76.5 v-408z" />
<glyph horiz-adv-x="623" d="M158 606v39l177 87h58v-674h169v-58h-404v58h177v609z" />
<glyph horiz-adv-x="623" d="M63 684v41q130 17 294 17q52 0 92.5 -17t63.5 -47t35 -66.5t12 -79.5q0 -34 -13.5 -73t-37.5 -76t-53 -73t-63.5 -70t-65.5 -62.5t-63 -54t-51.5 -40.5t-35.5 -26h383v-57h-490v53q31 22 57.5 41.5t73.5 57t84 70.5t79.5 76.5t70.5 81t47.5 79t19.5 75.5q0 36 -9.5 63.5 t-27.5 47t-45.5 29.5t-64.5 10h-292z" />
<glyph horiz-adv-x="623" d="M74 677v35q53 16 125.5 20t182.5 2q82 -1 126 -47t44 -118v-69q0 -39 -14 -69.5t-32 -45t-38 -21.5q84 -42 84 -144v-59q0 -168 -178 -168q-81 0 -116.5 0.5t-90 5.5t-87.5 16v36h290q26 0 45.5 4t38.5 15t29 34t10 57v59q0 59 -35 86t-84 29l-232 7v43l232 9 q56 1 88.5 28.5t32.5 77.5v69q0 28 -10 49t-26.5 33.5t-37.5 19t-45 6.5h-302z" />
<glyph horiz-adv-x="623" d="M31 228l317 504h68l-298 -477h316v217l27 75h30v-292h90v-44l-90 -15v-194h-57v194h-376z" />
<glyph horiz-adv-x="623" d="M85 15v41h304q51 0 79 31.5t28 80.5v105q0 15 -1.5 26.5t-7.5 28.5t-16.5 28.5t-31.5 19.5t-50 8h-154q-37 0 -66.5 -25.5t-29.5 -66.5h-52l22 440h422v-57h-369l-14 -276q11 14 34.5 26.5t55.5 14.5q26 2 55.5 2.5t59 -0.5t36.5 -1q85 0 124.5 -44.5t39.5 -121.5v-109 q0 -39 -11.5 -70t-28.5 -49t-39.5 -30t-43 -16.5t-41.5 -4.5q-107 0 -166.5 3t-137.5 16z" />
<glyph horiz-adv-x="623" d="M68 384q0 95 14.5 165.5t39.5 110.5t54.5 59t63.5 19q169 0 292 -16v-41h-282q-37 0 -63 -29t-38.5 -76t-17.5 -89t-6 -84q150 17 270 17q49 0 82 -11.5t49.5 -33t23 -46t6.5 -57.5v-124q0 -149 -161 -149h-139q-35 0 -61.5 10t-51 36.5t-40.5 69t-25.5 110.5t-9.5 159z M125 363q0 -35 1.5 -63.5t5.5 -66.5t13 -67t23 -55.5t36.5 -40.5t51.5 -14h139q49 0 77 19.5t28 75.5v121q0 52 -28 71.5t-77 19.5h-270z" />
<glyph horiz-adv-x="623" d="M75 675v57h452l23 -40l-256 -692h-67l251 675h-403z" />
<glyph horiz-adv-x="623" d="M76 154v98q0 90 90 109q-49 14 -69.5 52.5t-20.5 85.5v65q0 95 46 134t130 39h136q82 0 122 -41t40 -132v-65q0 -14 -3.5 -31t-11.5 -35.5t-25 -32.5t-41 -18q41 -9 61.5 -48t19.5 -82v-98q0 -37 -11 -65.5t-27.5 -45t-39.5 -26.5t-43 -13.5t-42 -3.5h-135 q-35 0 -63.5 6.5t-46.5 16.5t-31 25t-19.5 28t-10.5 30t-4.5 26.5t-0.5 21.5zM133 151q0 -94 119 -94h135q42 0 74 23.5t32 70.5v105q0 26 -9.5 44.5t-25.5 28t-32.5 13.5t-35.5 4h-149q-42 0 -75 -21.5t-33 -68.5v-105zM133 494q0 -28 10 -47.5t27.5 -28.5t34.5 -12.5 t36 -3.5h149q55 0 79 28t24 64v68q0 63 -25.5 90.5t-79.5 27.5h-136q-63 0 -91 -25t-28 -93v-68z" />
<glyph horiz-adv-x="623" d="M68 463v124q0 149 161 149h139q35 0 62 -10t51 -36t40 -68.5t25.5 -111t9.5 -159.5q0 -94 -14.5 -165t-39.5 -111t-54.5 -59t-63.5 -19q-196 0 -292 16v41h282q37 0 63 29.5t38.5 76.5t17.5 88.5t6 84.5q-150 -18 -270 -18q-49 0 -82 11.5t-49.5 33.5t-23 46t-6.5 57z M124 463q0 -52 28 -71.5t77 -19.5h270q0 35 -1.5 63.5t-5.5 67t-13 67t-23 55t-36.5 40.5t-51.5 14h-139q-49 0 -77 -19.5t-28 -75.5v-121z" />
<glyph horiz-adv-x="623" d="M65 162v307q0 78 48.5 120t123.5 42h154q86 0 126.5 -44t40.5 -118v-307q0 -162 -167 -162h-154q-36 0 -66 8.5t-54.5 27t-38 51t-13.5 75.5zM122 162q0 -53 32 -79t83 -26h154q110 0 110 105v307q0 105 -110 105h-154q-56 0 -85.5 -28.5t-29.5 -76.5v-307z" />
<glyph horiz-adv-x="623" d="M161 508v39l168 85h57v-574h163v-58h-390v58h170v509z" />
<glyph horiz-adv-x="623" d="M63 581v40q155 23 292 17q102 0 152.5 -49.5t50.5 -137.5q0 -48 -33 -103t-80 -100t-102.5 -87.5t-94 -67t-61.5 -36.5h366v-57h-485v53q37 19 73.5 41t89.5 56.5t97.5 70.5t85 75t64 80t23.5 77q0 131 -150 128h-288z" />
<glyph horiz-adv-x="623" d="M74 579v35q53 17 125.5 20.5t182.5 1.5q82 -1 126 -47t44 -118v-69q0 -57 -25.5 -91t-58.5 -44q84 -42 84 -145v-59q0 -168 -178 -168q-81 0 -116.5 0.5t-90 6t-87.5 16.5v35h290q26 0 45.5 4t38.5 15t29 34t10 57v59q0 59 -35 86t-84 29l-232 7v43l232 9q56 2 88.5 29 t32.5 77v69q0 28 -10 49.5t-26.5 34t-37.5 18.5t-45 6h-302z" />
<glyph horiz-adv-x="623" d="M31 128l317 504h68l-298 -477h316v217l27 75h30v-292h90v-44l-90 -16v-193h-57v193h-376z" />
<glyph horiz-adv-x="623" d="M85 -44h304q51 0 79 31.5t28 80.5v105q0 15 -1.5 26.5t-7.5 28.5t-16.5 28t-31.5 19.5t-50 8.5h-154q-37 0 -66.5 -25.5t-29.5 -66.5h-52l22 440h422v-57h-369l-14 -277q11 15 35.5 28t55.5 15q21 1 45 1.5t41 0t36.5 -1t27.5 -0.5q85 0 124.5 -44.5t39.5 -121.5v-109 q0 -40 -11.5 -70.5t-28.5 -49t-39.5 -30.5t-43 -16t-41.5 -4q-107 0 -166.5 3t-137.5 16v41z" />
<glyph horiz-adv-x="623" d="M68 384q0 95 14.5 165.5t39.5 110.5t54.5 59t63.5 19q169 0 292 -16v-41h-282q-37 0 -63 -29t-38.5 -76t-17.5 -89t-6 -84q150 17 270 17q49 0 82 -11.5t49.5 -33t23 -46t6.5 -57.5v-124q0 -149 -161 -149h-139q-35 0 -61.5 10t-51 36.5t-40.5 69t-25.5 110.5t-9.5 159z M125 363q0 -35 1.5 -63.5t5.5 -66.5t13 -67t23 -55.5t36.5 -40.5t51.5 -14h139q49 0 77 19.5t28 75.5v121q0 52 -28 71.5t-77 19.5h-270z" />
<glyph horiz-adv-x="623" d="M75 575v57h452l23 -40l-256 -692h-67l251 675h-403z" />
<glyph horiz-adv-x="623" d="M76 154v98q0 90 90 109q-49 14 -69.5 52.5t-20.5 85.5v65q0 95 46 134t130 39h136q82 0 122 -41t40 -132v-65q0 -14 -3.5 -31t-11.5 -35.5t-25 -32.5t-41 -18q41 -9 61.5 -48t19.5 -82v-98q0 -37 -11 -65.5t-27.5 -45t-39.5 -26.5t-43 -13.5t-42 -3.5h-135 q-35 0 -63.5 6.5t-46.5 16.5t-31 25t-19.5 28t-10.5 30t-4.5 26.5t-0.5 21.5zM133 151q0 -94 119 -94h135q42 0 74 23.5t32 70.5v105q0 26 -9.5 44.5t-25.5 28t-32.5 13.5t-35.5 4h-149q-42 0 -75 -21.5t-33 -68.5v-105zM133 494q0 -28 10 -47.5t27.5 -28.5t34.5 -12.5 t36 -3.5h149q55 0 79 28t24 64v68q0 63 -25.5 90.5t-79.5 27.5h-136q-63 0 -91 -25t-28 -93v-68z" />
<glyph horiz-adv-x="623" d="M68 359v124q0 149 161 149h139q35 0 62 -10t51 -36.5t40 -69t25.5 -110.5t9.5 -159q0 -95 -14.5 -165.5t-39.5 -110.5t-54.5 -59t-63.5 -19q-199 0 -292 16v41h282q37 0 63 29t38.5 76t17.5 89t6 84q-150 -17 -270 -17q-49 0 -82 11.5t-49.5 33t-23 46t-6.5 57.5z M124 359q0 -52 28 -71.5t77 -19.5h270q0 29 -1 53.5t-4 57.5t-8.5 58.5t-15 52.5t-23 44.5t-34 29t-45.5 11.5h-139q-49 0 -77 -19.5t-28 -75.5v-121z" />
<glyph horiz-adv-x="557" d="M177 707h36q0 -33 23.5 -55.5t54.5 -22.5q23 0 41 9.5t28.5 27.5t10.5 41h36q0 -27 -10.5 -49.5t-27 -36t-37 -21t-41.5 -7.5t-41 8t-36.5 22t-26.5 36t-10 48zM56 268q0 129 46 199t138 70q47 0 96.5 -4t97 -9.5t57.5 -6.5v-621q0 -44 -15 -79t-39 -54.5t-51 -28.5 t-54 -6l-248 24v37l248 -5q43 -1 72.5 27.5t29.5 84.5v133q-45 -18 -100.5 -28.5t-93.5 -10.5q-45 0 -78 14t-53 38t-32 60.5t-16.5 75.5t-4.5 90zM113 268q0 -40 2 -68.5t9.5 -59.5t21 -49.5t37.5 -31t57 -12.5q22 0 41 1t35 3t35.5 5.5t37 7.5t45.5 11v405h-194 q-127 0 -127 -212z" />
<glyph horiz-adv-x="557" d="M256 615v57q0 20 20 20h37q19 0 19 -20v-57q0 -19 -19 -19h-37q-8 0 -14 5t-6 14zM56 268q0 129 46 199t138 70q47 0 96.5 -4t97 -9.5t57.5 -6.5v-621q0 -44 -15 -79t-39 -54.5t-51 -28.5t-54 -6l-248 24v37l248 -5q43 -1 72.5 27.5t29.5 84.5v133q-45 -18 -100.5 -28.5 t-93.5 -10.5q-45 0 -78 14t-53 38t-32 60.5t-16.5 75.5t-4.5 90zM113 268q0 -40 2 -68.5t9.5 -59.5t21 -49.5t37.5 -31t57 -12.5q22 0 41 1t35 3t35.5 5.5t37 7.5t45.5 11v405h-194q-127 0 -127 -212z" />
<glyph horiz-adv-x="557" d="M155 594l122 130h53l110 -130h-53l-85 86l-94 -86h-53zM56 268q0 129 46 199t138 70q47 0 96.5 -4t97 -9.5t57.5 -6.5v-621q0 -44 -15 -79t-39 -54.5t-51 -28.5t-54 -6l-248 24v37l248 -5q43 -1 72.5 27.5t29.5 84.5v133q-45 -18 -100.5 -28.5t-93.5 -10.5q-45 0 -78 14 t-53 38t-32 60.5t-16.5 75.5t-4.5 90zM113 268q0 -40 2 -68.5t9.5 -59.5t21 -49.5t37.5 -31t57 -12.5q22 0 41 1t35 3t35.5 5.5t37 7.5t45.5 11v405h-194q-127 0 -127 -212z" />
<glyph horiz-adv-x="836" d="M45 262q0 68 8.5 117t23.5 78t38 46t47.5 23t57.5 6h376l14 147h43v-148h162v-57h-162v-286q0 -34 4 -58t9 -37t16 -21t18 -10.5t23 -5.5q74 -15 77 -15v-42h-74q-69 0 -99.5 43.5t-30.5 145.5v285h-376q-15 0 -25.5 -1.5t-22 -5t-20 -10t-17 -17.5t-14.5 -27 t-10.5 -37.5t-6.5 -51t-2 -65.5q0 -83 14 -129.5t38.5 -62.5t65.5 -16t97 3.5t92 7.5l36 3v-42q-97 -27 -225 -29q-33 0 -57 5.5t-47.5 22.5t-38 45.5t-23.5 78t-9 117.5z" />
<glyph horiz-adv-x="727" d="M22 475v42l94 15l15 148h42v-148h314l14 148h43v-148h161v-57h-161v-285q0 -35 4 -59t8.5 -36.5t16 -20.5t18.5 -10.5t23 -5.5q73 -16 76 -16v-41h-74q-69 0 -99 43.5t-30 145.5v285h-314v-286q0 -34 4.5 -58t9 -37t15.5 -21t18 -10t24 -6q73 -15 76 -15v-42h-74 q-69 0 -99.5 43.5t-30.5 145.5v286h-94z" />
<glyph horiz-adv-x="756" d="M22 474v42l95 15v99q0 22 1 37.5t7.5 40t17.5 40t33.5 27t53.5 11.5q78 0 143 -20v-36h-129q-24 1 -38.5 -6t-21 -22.5t-8.5 -30.5t-2 -41v-98h341l15 148h42v-148h162v-57h-162l1 -286q0 -34 4 -58t8.5 -37t16 -21t18.5 -10t23 -6q73 -15 76 -15v-42h-74q-69 0 -99 43.5 t-30 145.5l-1 286h-342v-475h-57v474h-94z" />
<glyph horiz-adv-x="930" d="M22 475v42l94 15l15 148h42v-148h159q43 0 70 -5.5t45 -20.5t28 -33t22 -52l112 -304q20 -57 71 -57l7 1l158 471h64l-233 -699l-66 -102h-38l97 270q-12 1 -24.5 4.5t-31 13.5t-36 33.5t-29.5 58.5l-107 290q-15 43 -37 58.5t-72 15.5h-159v-286q0 -34 4 -58t9 -37 t16 -21t18.5 -10.5t23.5 -5.5q73 -15 76 -15v-42h-74q-69 0 -99.5 43.5t-30.5 145.5v286h-94z" />
<glyph horiz-adv-x="954" d="M22 474v42l95 15v99q0 22 1 37.5t7.5 40t17.5 40t33.5 27t53.5 11.5q56 0 143 -26v-37l-129 7q-19 1 -32.5 -3.5t-20.5 -12.5t-11 -22.5t-5 -27.5t-1 -34v-99h175q43 0 70.5 -5t46 -20t28.5 -33t23 -52l115 -303q27 -57 78 -57l157 472h64l-233 -699l-66 -102h-37l97 270 q-12 0 -25 3.5t-31.5 13.5t-36 34t-29.5 59l-109 289q-11 29 -24 44.5t-33.5 22t-54.5 6.5h-176v-474h-57v474h-94z" />
<glyph horiz-adv-x="557" d="M257 613v87q0 20 7 32.5t16.5 17t19.5 6t17 0.5l7 -1v-20q-24 0 -24 -23v-30h9q18 0 18 -18v-51q0 -20 -18 -20h-34q-18 0 -18 20zM56 268q0 129 46 199t138 70q47 0 96.5 -4t97 -9.5t57.5 -6.5v-621q0 -44 -15 -79t-39 -54.5t-51 -28.5t-54 -6l-248 24v37l248 -5 q43 -1 72.5 27.5t29.5 84.5v133q-45 -18 -100.5 -28.5t-93.5 -10.5q-45 0 -78 14t-53 38t-32 60.5t-16.5 75.5t-4.5 90zM113 268q0 -40 2 -68.5t9.5 -59.5t21 -49.5t37.5 -31t57 -12.5q22 0 41 1t35 3t35.5 5.5t37 7.5t45.5 11v405h-194q-127 0 -127 -212z" />
<glyph horiz-adv-x="265" d="M92 19v59q0 21 20 21h40q19 0 19 -21v-59q0 -19 -19 -19h-40q-9 0 -14.5 5.5t-5.5 13.5zM98 570h66l-6 -403h-54z" />
<glyph horiz-adv-x="339" d="M80 555v67h57v-67l-9 -134h-39zM203 555v67h57v-67l-9 -134h-39z" />
<glyph horiz-adv-x="567" d="M22 180l6 38h129l23 132h-131l5 37h132l31 183h39l-31 -183h137l30 183h39l-31 -183h146l-5 -37h-146l-23 -132h148l-6 -38h-148l-30 -181h-39l30 181h-136l-31 -181h-39l31 181h-130zM196 218h138l21 132h-136z" />
<glyph horiz-adv-x="514" d="M56 393v31q0 32 7 57t20.5 41.5t29.5 27t38 16t41 7.5t44 2v65h48v-67q71 -4 151 -14v-42h-207q-60 0 -87.5 -20.5t-27.5 -72.5v-31q0 -41 28.5 -60.5t76.5 -19.5h82q74 0 114.5 -42t40.5 -96v-38q0 -50 -26.5 -84t-64.5 -47.5t-80 -11.5v-63h-48v66q-18 2 -83 7t-79 7 v41q10 0 94.5 0.5t124.5 0.5q17 0 33.5 3.5t33 12.5t27 26.5t10.5 41.5v38q0 37 -27 60t-70 23h-82q-84 0 -123 36.5t-39 98.5z" />
<glyph horiz-adv-x="799" d="M32 383v63q0 66 28 95.5t101 29.5h46q71 0 99 -29.5t28 -95.5v-63q0 -66 -28 -95.5t-101 -29.5h-46q-48 0 -76 14t-39.5 40.5t-11.5 70.5zM80 383q0 -45 17.5 -61t61.5 -16h46q33 0 50 7t24 23t7 47v63q0 44 -17 60.5t-62 16.5h-46q-33 0 -50 -7t-24 -23t-7 -47v-63z M200 0l343 570h54l-343 -570h-54zM465 125v62q0 66 28 95.5t101 29.5h46q71 0 99 -29.5t28 -95.5v-62q0 -67 -28 -96t-101 -29h-46q-71 0 -99 29.5t-28 95.5zM513 125q0 -45 17.5 -61t61.5 -16h46q48 0 64.5 15.5t16.5 61.5v62q0 44 -17 60.5t-62 16.5h-46q-48 0 -64.5 -16 t-16.5 -61v-62z" />
<glyph horiz-adv-x="550" d="M72 62q-43 59 -34.5 117.5t65.5 105.5l71 58l-44 56q-33 44 -31 80.5t25 60.5t55 29q84 13 228 -12v-39h-178q-39 0 -56.5 -13.5t-13.5 -35t25 -47.5l192 -242l93 87l18 -20l-49 -85l-27 -27l104 -135h-67l-78 98l-67 -64q-31 -29 -73 -38t-85 7.5t-73 58.5zM119.5 94.5 q16.5 -21.5 41 -34t54.5 -9.5t54 27l66 63l-124 158l-68 -56q-31 -25 -41.5 -53.5t-4.5 -51t22.5 -44z" />
<glyph horiz-adv-x="216" d="M80 555v67h57v-67l-9 -134h-39z" />
<glyph horiz-adv-x="448" d="M56 423v31l140 21l3 -57zM128 260l27 135l57 -13l-56 -131zM186 567l30 12l73 -120l-53 -23zM219 331l31 49l112 -89l-16 -25zM262 413l117 78l15 -27l-94 -95z" />
<glyph horiz-adv-x="589" d="M78 162v246q0 54 23.5 91.5t61.5 54t87 16.5h94q44 0 76.5 -12.5t49 -30t27 -42t12.5 -42t2 -35.5v-246q0 -162 -167 -162h-94q-36 0 -65.5 8.5t-54 27t-38.5 51t-14 75.5zM135 162q0 -55 33.5 -80t81.5 -25h94q58 0 84 28.5t26 76.5v246q0 105 -110 105h-94 q-58 0 -86.5 -28t-28.5 -77v-246z" />
<glyph horiz-adv-x="340" d="M45 454v40l149 85h57v-579h-57v514z" />
<glyph horiz-adv-x="518" d="M45 513v37q27 4 60.5 9t49 7t45 3.5t69.5 1.5q193 0 193 -187q0 -164 -299 -327h294v-57h-406v53q20 14 62 40t76.5 47.5t76 52.5t70 59t47.5 63.5t19 69.5q0 64 -33 97.5t-109 31.5z" />
<glyph horiz-adv-x="519" d="M33 516v38q64 22 270 19q42 -1 72.5 -21t45.5 -51.5t15 -70.5v-35q0 -46 -19 -75t-43 -36q26 -13 44 -43t18 -74v-28q0 -69 -34 -106.5t-104 -37.5h-19q-189 0 -240 18v39h241q46 0 71.5 18.5t25.5 68.5v28q0 47 -26.5 67t-63.5 21l-200 5v48l200 4q92 1 92 83v35 q0 42 -24 64t-70 22h-252z" />
<glyph horiz-adv-x="538" d="M22 180l223 390h67l-204 -362h261v173l28 75h29v-248h90v-44l-90 -16v-146h-57v146h-318z" />
<glyph horiz-adv-x="556" d="M85 19v41h247q55 0 78 24t23 69v54q0 20 -2 32.5t-11 26.5t-30 21t-54 7h-101q-25 0 -46.5 -9.5t-35.5 -28.5t-14 -45h-53l17 359h361v-57h-305l-10 -205q13 18 36 30.5t50 12.5h101q84 0 119 -37t35 -105v-58q0 -79 -43.5 -115t-114.5 -37q-168 -2 -247 20z" />
<glyph horiz-adv-x="560" d="M73 300q0 64 9.5 113.5t24.5 79t36 49t41.5 27t42.5 7.5q124 2 248 -13v-44h-248q-29 0 -50 -22t-30.5 -56.5t-13 -63t-3.5 -54.5q90 11 228 11q75 0 105 -30.5t30 -85.5v-92q0 -65 -37.5 -96t-97.5 -31h-125q-23 0 -41.5 5t-37.5 17t-33 34.5t-25.5 54.5t-17 80.5 t-5.5 109.5zM130 277q0 -221 103 -221h125q36 0 57 16t21 58v88q0 34 -18.5 46.5t-59.5 12.5h-228z" />
<glyph horiz-adv-x="479" d="M33 513v57h390l24 -40l-200 -530h-63l193 513h-344z" />
<glyph horiz-adv-x="591" d="M84 132v58q0 24 6.5 41.5t19.5 27t23.5 14t24.5 8.5q-24 7 -41.5 26t-25 41.5t-7.5 47.5v38q0 77 33 109t103 32h162q126 0 126 -141v-38q0 -15 -3.5 -30.5t-11 -30t-21.5 -25.5t-32 -14q31 -5 49.5 -38t18.5 -69v-57q0 -70 -37 -101t-90 -31h-162q-38 0 -65 10.5 t-40 23.5t-20.5 34t-8.5 33.5t-1 30.5zM141 130q0 -38 19 -55t65 -17h150q35 0 55.5 18t20.5 54v53q0 78 -78 78h-152q-80 0 -80 -76v-55zM141 394q0 -75 80 -75h152q29 0 47.5 11t25 27t6.5 37v38q0 49 -17 67t-59 18h-150q-25 0 -38.5 -2t-25.5 -10.5t-16.5 -25.5 t-4.5 -47v-38z" />
<glyph horiz-adv-x="560" d="M67 355v92q0 44 19 73.5t48.5 41.5t67.5 12h126q27 0 49 -7t43.5 -27t35.5 -52.5t23 -87t9 -127.5q0 -63 -10 -112.5t-25 -79.5t-36 -49.5t-41 -27t-42 -7.5q-154 -2 -249 13v44h248q30 0 51 22t30 56.5t13 63.5t4 54q-91 -11 -229 -11q-74 0 -104.5 30.5t-30.5 85.5z M124 355q0 -34 18.5 -46.5t59.5 -12.5h229q0 221 -103 221h-126q-35 0 -56.5 -15.5t-21.5 -58.5v-88z" />
<glyph horiz-adv-x="465" d="M22 515v43q132 17 216 14q92 0 137 -41t45 -114v-47q0 -76 -58.5 -111t-142.5 -23v-70h-59v121q62 -2 93 0q20 0 38 4.5t35 13.5t27 25.5t10 39.5v47q0 52 -31 75t-98 23h-212zM150 19v59q0 21 20 21h39q20 0 20 -21v-59q0 -19 -20 -19h-39q-9 0 -14.5 5.5t-5.5 13.5z " />
<glyph horiz-adv-x="851" d="M73 42v348q0 12 0.5 21t4 27t9.5 32t18.5 30.5t29.5 27.5t44.5 18.5t61.5 7.5h210q29 0 54 -6.5t48.5 -21.5t37 -44t13.5 -68v-372h-43l-11 64l-12 -7.5t-31.5 -18t-43.5 -21.5t-53 -18.5t-54 -7.5q-56 -1 -92.5 32.5t-35.5 84.5v53q0 61 33.5 97t95.5 36h191q1 76 0 76 q0 47 -25 66t-75 19h-207q-52 0 -81.5 -23t-29.5 -84v-348q0 -35 10 -60t27 -37.5t35 -17.5t39 -5h339q65 0 92.5 29t27.5 91v512q0 31 -8.5 55.5t-23.5 41t-37.5 25.5t-50.5 9h-399v36q108 22 288 21h111q53 -1 92.5 -21.5t62 -63t22.5 -103.5v-512q0 -178 -177 -178h-339 q-78 0 -123 46t-45 132zM285 156q0 -26 22.5 -46t55.5 -20q64 -1 185 57v150l-186 -14q-34 -3 -56 -23t-21 -59q-1 -1 -1 -22.5t1 -22.5z" />
<glyph horiz-adv-x="586" d="M39 0l236 570h57l218 -570h-62l-64 162h-254l-69 -162h-62zM193 219h211l-101 271z" />
<glyph horiz-adv-x="547" d="M90 0v571h253q45 0 76.5 -14t47.5 -37t23 -48t7 -52q0 -55 -20.5 -84t-54.5 -45q27 -9 52.5 -42.5t25.5 -88.5q0 -160 -157 -160h-253zM147 58h196q20 0 34.5 3t31 12.5t25.5 31.5t9 55q0 48 -26 77t-74 29q-173 -1 -196 0v-208zM147 323h196q49 0 73 23t24 74 q0 94 -97 94h-196v-191z" />
<glyph horiz-adv-x="524" d="M61 295q0 47 5 85.5t18.5 76.5t35.5 63.5t59 41.5t86 16q36 0 111.5 -7.5t111.5 -15.5v-44q-12 2 -94 6t-129 4q-79 0 -113 -56.5t-34 -169.5q0 -56 6.5 -97t22.5 -75t45.5 -52t72.5 -18l223 10v-42q-130 -25 -223 -25q-52 0 -90 18.5t-59.5 46.5t-34 70t-16.5 79.5 t-4 84.5z" />
<glyph horiz-adv-x="606" d="M90 0v572h240q50 -1 89.5 -19.5t63.5 -47.5t39 -68t21 -76.5t6 -77.5q0 -58 -9.5 -104.5t-23 -75.5t-35.5 -50t-39.5 -31t-42.5 -15.5t-37.5 -6t-31.5 -0.5h-240zM147 57h183q47 0 79.5 17.5t50 50t25 71t7.5 87.5q0 118 -45.5 175t-116.5 57h-183v-458z" />
<glyph horiz-adv-x="520" d="M90 83v398q0 44 27.5 67t76.5 23l280 -11v-45h-278q-31 0 -40 -10.5t-9 -33.5v-157l296 -7v-45l-296 -6v-158q0 -43 44 -43h283v-44l-300 -13q-38 0 -61 23t-23 62z" />
<glyph horiz-adv-x="520" d="M90 0v481q0 44 27.5 67t76.5 23l280 -11v-45h-278q-30 0 -39 -11t-10 -33v-158l296 -8v-45l-296 -6v-254h-57z" />
<glyph horiz-adv-x="576" d="M61 286q0 73 9.5 124t32.5 91t65.5 59t105.5 19q22 0 64.5 -3.5t90 -9.5t76.5 -12v-46q-141 14 -231 14q-58 0 -90.5 -20t-49 -71t-16.5 -143q0 -44 8.5 -84.5t26 -76t49 -57t72.5 -21.5q55 0 110.5 19.5t77.5 35.5v150h-185v37q5 1 21.5 4t22.5 4t20.5 3.5t24.5 3.5 t24.5 2.5t29.5 2t32 0.5q31 0 67 -3v-308h-41l-14 47q-39 -25 -91.5 -39.5t-98.5 -14.5q-37 0 -68 10t-52 28.5t-37.5 40t-26 49t-16 50.5t-9 48.5t-3.5 39t-1 27.5z" />
<glyph horiz-adv-x="601" d="M90 -1v571h57v-266h334v266h57v-571h-57v247h-334v-247h-57z" />
<glyph horiz-adv-x="209" d="M90 0v570h57v-570h-57z" />
<glyph horiz-adv-x="332" d="M39 21l4 40q27 -5 45.5 -7.5t39.5 -2t34.5 7t26 19t18.5 35t6 53.5v404h57v-404q0 -112 -56 -148q-44 -25 -89.5 -22t-85.5 25z" />
<glyph horiz-adv-x="550" d="M90 -1v571h57v-262h93l203 262h71l-224 -290l224 -281h-71l-204 251h-92v-251h-57z" />
<glyph horiz-adv-x="504" d="M90 86v484h57v-472q-1 -24 11 -32.5t37 -8.5h273v-57h-292q-41 0 -63.5 22.5t-22.5 63.5z" />
<glyph horiz-adv-x="735" d="M61 0l61 571h67l183 -474l184 474h64l58 -571h-55l-47 464l-179 -464h-47l-181 468l-54 -468h-54z" />
<glyph horiz-adv-x="608" d="M90 0v571h54l346 -466v466h56v-571h-53l-346 469v-469h-57z" />
<glyph horiz-adv-x="607" d="M61 280q0 91 14.5 149t46.5 90t74.5 44t108.5 12q38 0 65.5 -2.5t54.5 -10t45.5 -20.5t34.5 -34t25.5 -51.5t14.5 -72.5t5 -97q0 -73 -9.5 -124.5t-27.5 -84t-49 -51t-68 -25.5t-91 -7q-43 0 -74 4t-60 14.5t-48 30.5t-33.5 51.5t-21.5 77t-7 107.5zM118 285 q0 -62 7.5 -103.5t20 -67.5t37 -39.5t52 -18t70.5 -4.5q40 0 66 4t52 18t40 39t22.5 68.5t7.5 105.5q0 54 -4.5 92t-15.5 64t-24 41t-37 22.5t-46.5 9.5t-60.5 2q-28 0 -46.5 -1.5t-40 -6.5t-35 -14.5t-27 -26t-21 -41.5t-12 -60.5t-5.5 -82.5z" />
<glyph horiz-adv-x="530" d="M67 0v569h264q28 0 53.5 -8.5t48.5 -26.5t36.5 -50t13.5 -74q0 -36 -5.5 -64.5t-13.5 -47t-22 -31.5t-25.5 -20t-29.5 -10.5t-29.5 -4t-28.5 -0.5l-204 11v-243h-58zM125 288h206q23 0 37.5 3.5t29 14.5t21.5 35.5t7 62.5q2 54 -26 81t-69 27h-206v-224z" />
<glyph horiz-adv-x="607" d="M61 280q0 91 14.5 149t46.5 90t74.5 44t108.5 12q38 0 65.5 -2.5t54.5 -10t45.5 -20.5t34.5 -34t25.5 -51.5t14.5 -72.5t5 -97q0 -73 -9.5 -124.5t-27.5 -84t-49 -51t-68 -25.5t-91 -7q-43 0 -74 4t-60 14.5t-48 30.5t-33.5 51.5t-21.5 77t-7 107.5zM118 285 q0 -62 7.5 -103.5t20 -67.5t37 -39.5t52 -18t70.5 -4.5q40 0 66 4t51.5 18t39.5 39t22.5 68.5t8.5 105.5q0 41 -2.5 72.5t-8.5 55.5t-13.5 41t-20.5 28.5t-25.5 18t-33 10t-38.5 4.5t-46 1q-22 0 -36.5 -0.5t-32.5 -3t-30 -7.5t-25.5 -13.5t-22 -20.5t-17 -29.5t-13 -40 t-7.5 -52t-3 -66.5zM288 -33h39q65 -72 171 -35v-61q-27 -11 -61 -9.5t-64.5 11t-54.5 34.5t-30 60z" />
<glyph horiz-adv-x="537" d="M67 0v571h264q16 0 32 -3t34 -9t33 -18.5t27.5 -29.5t19.5 -43t7 -59q0 -71 -31.5 -118t-88.5 -51l138 -240h-66l-131 234q-180 12 -181 14v-248h-57zM124 291h210q16 0 30 4.5t29.5 16t24.5 36.5t9 60q0 20 -4 36.5t-10.5 27.5t-16 19t-18 12t-18.5 7t-16.5 3.5 t-12.5 0.5h-207v-223z" />
<glyph horiz-adv-x="543" d="M61 374v62q0 137 138 137q26 0 74.5 -2.5t101 -7t84.5 -8.5v-43q-162 5 -260 5q-81 0 -81 -81v-62q0 -14 2.5 -25t5 -18t10 -11.5t11 -6.5t16 -3t16.5 -1.5t20 -0.5h157q64 0 97 -31.5t33 -88.5v-70q0 -39 -12 -66t-33 -39.5t-41 -17.5t-44 -5q-51 0 -149.5 6t-123.5 14 v41q177 -4 273 -4q36 0 54.5 25.5t18.5 45.5v70q0 33 -17 48.5t-56 15.5h-157q-49 0 -78 10t-44.5 37.5t-15.5 74.5z" />
<glyph horiz-adv-x="524" d="M39 513v57h449v-57h-196v-513h-57v513h-196z" />
<glyph horiz-adv-x="618" d="M89 260v310h58v-310q0 -52 6.5 -88t19.5 -59.5t35 -37t49.5 -18.5t67.5 -5q44 0 74 9t53 31.5t34 64t11 103.5v310h58v-310q0 -68 -12.5 -117t-33 -77t-52 -44.5t-62 -21.5t-70.5 -5q-32 0 -55.5 2t-49.5 8.5t-44.5 18.5t-36 31.5t-28 47.5t-16.5 67.5t-6 89.5z" />
<glyph horiz-adv-x="594" d="M39 570h63l199 -484l195 484h62l-229 -570h-55z" />
<glyph horiz-adv-x="842" d="M39 570h63l181 -485l173 485h62l-65 -186l118 -299l176 485h59l-207 -570h-57l-119 306l-109 -306h-59z" />
<glyph horiz-adv-x="557" d="M39 0l205 286l-203 284h74l165 -233l167 233h75l-206 -284l204 -286h-72l-168 234l-169 -234h-72z" />
<glyph horiz-adv-x="564" d="M39 570h63l183 -320l180 320h63l-215 -380v-191h-57v191z" />
<glyph horiz-adv-x="498" d="M39 0v57l348 456h-348v57h423v-57l-345 -456h345v-57h-423z" />
<glyph horiz-adv-x="228" d="M22 664h72l112 -133h-51z" />
<glyph horiz-adv-x="608" d="M512 0h30q-45 -29 -59.5 -61.5t5.5 -53.5t67 -22v-44q-34 -5 -63.5 6t-44.5 32.5t-17.5 46t18.5 51.5t64 45zM45 0l236 570h57l218 -570h-63l-64 162h-253l-69 -162h-62zM199 219h211l-101 271z" />
<glyph horiz-adv-x="537" d="M240 -136v51q0 20 18 20h34q17 0 17 -20v-88q0 -19 -6.5 -31.5t-16.5 -17t-19.5 -6.5t-16.5 -1l-7 1v21q24 -1 24 23v29h-9q-18 0 -18 19zM67 0v571h264q16 0 32 -3t34 -9t33 -18.5t27.5 -29.5t19.5 -43t7 -59q0 -46 -13.5 -83t-41 -60t-65.5 -26l138 -240h-66l-131 234 q-180 12 -181 14v-248h-57zM124 291h210q16 0 30 4.5t29.5 16t24.5 36.5t9 60q0 20 -4 36.5t-10.5 27.5t-16 19t-18 12t-18.5 7t-16.5 3.5t-12.5 0.5h-207v-223z" />
<glyph horiz-adv-x="209" d="M-57 668q25 21 38.5 31t35 20.5t40.5 10.5q25 -2 63 -25t50 -23q7 0 13.5 1t14 4t13 5t14.5 7.5t13 8t14 8.5t13 7l16 -30q-3 -2 -14 -11.5t-15.5 -13t-14.5 -11.5t-16.5 -11.5t-16 -7.5t-18 -6t-17.5 -1q-27 1 -62 24t-51 23q-19 0 -33.5 -5.5t-34.5 -17.5t-30 -17z M90 0v570h57v-570h-57z" />
<glyph horiz-adv-x="504" d="M254 -136v51q0 20 18 20h34q18 0 18 -20v-88q0 -19 -7 -31.5t-16.5 -17t-19.5 -6.5t-17 -1l-6 1v21q23 -1 23 23v29h-9q-18 0 -18 19zM90 86v484h57v-472q-1 -24 11 -32.5t37 -8.5h273v-57h-292q-41 0 -63.5 22.5t-22.5 63.5z" />
<glyph horiz-adv-x="445" d="M56 581.5q0 16.5 11.5 28t28.5 11.5q10 0 19 -5.5t14.5 -14.5t5.5 -20q0 -16 -11.5 -27.5t-28 -11.5t-28 11.5t-11.5 28zM311 581.5q0 16.5 11.5 28t28 11.5t27.5 -11.5t11 -28t-11 -28t-27.5 -11.5t-28 11.5t-11.5 28z" />
<glyph horiz-adv-x="543" d="M132 763h53l91 -86l88 86h53l-113 -130h-55zM61 374v62q0 137 138 137q26 0 74.5 -2.5t101 -7t84.5 -8.5v-43q-162 5 -260 5q-81 0 -81 -81v-62q0 -14 2.5 -25t5 -18t10 -11.5t11 -6.5t16 -3t16.5 -1.5t20 -0.5h157q64 0 97 -31.5t33 -88.5v-70q0 -39 -12 -66t-33 -39.5 t-41 -17.5t-44 -5q-51 0 -149.5 6t-123.5 14v41q177 -4 273 -4q36 0 54.5 25.5t18.5 45.5v70q0 33 -17 48.5t-56 15.5h-157q-49 0 -78 10t-44.5 37.5t-15.5 74.5z" />
<glyph horiz-adv-x="520" d="M155 632v47h278v-47h-278zM90 83v398q0 44 27.5 67t76.5 23l280 -11v-45h-278q-31 0 -40 -10.5t-9 -33.5v-157l296 -7v-45l-296 -6v-158q0 -43 44 -43h283v-44l-300 -13q-38 0 -61 23t-23 62z" />
<glyph horiz-adv-x="576" d="M61 286q0 73 10 124t35 90.5t69 59t108 19.5q34 0 104 -8t115 -17v-45q-22 2 -109 8t-106 6q-62 0 -97 -19.5t-53 -71t-18 -144.5q0 -114 38.5 -174t125.5 -63q59 -2 105 11t71 32v159h-192v38q106 20 182 20q31 0 67 -3v-308q-4 -1 -20.5 0t-21.5 0l-14 41 q-74 -48 -181 -48q-36 0 -65.5 8.5t-50.5 22t-38 34.5t-27.5 40t-18 45.5t-11 44t-5.5 41.5t-2 33.5v23.5zM267 -137v51q0 20 18 20h33q18 0 18 -20v-88q0 -19 -6.5 -32t-16.5 -17.5t-19.5 -6t-16.5 -0.5l-7 1v21q23 -1 23 23v29h-8q-18 0 -18 19z" />
<glyph horiz-adv-x="494" d="M22 513v57h450v-57h-196v-168h105v-40h-105v-305h-57v305h-109v40h109v168h-197z" />
<glyph horiz-adv-x="498" d="M108 760h53l91 -86l88 86h53l-114 -130h-54zM39 0v57l348 456h-348v57h423v-57l-345 -456h345v-57h-423z" />
<glyph horiz-adv-x="403" d="M56 530v47h292v-47h-292z" />
<glyph horiz-adv-x="314" d="M56 468.5q0 42.5 29.5 73t71.5 30.5t71.5 -30t29.5 -73t-29.5 -73t-71.5 -30t-71.5 30t-29.5 72.5zM92 469q0 -27 19 -46.5t46.5 -19.5t46 19.5t18.5 46.5t-19 46t-46 19t-46 -19t-19 -46z" />
<glyph horiz-adv-x="228" d="M22 531l112 133h72l-133 -133h-51z" />
<glyph horiz-adv-x="397" d="M56 681h45l93 -99l100 99h47l-122 -150h-54zM219 531z" />
<glyph horiz-adv-x="608" d="M90 0v571h54l346 -467v467h56v-571v-56q-3 -158 -178 -158v47q25 2 44.5 7t38.5 16.5t29 34t10 55.5v56l-343 467v-469h-57z" />
<glyph horiz-adv-x="586" d="M165 630v47h278v-47h-278zM39 0l236 570h57l218 -570h-62l-64 162h-254l-69 -162h-62zM193 219h211l-101 271z" />
<glyph horiz-adv-x="586" d="M279 630l112 133h71l-133 -133h-50zM39 0l236 570h57l218 -570h-62l-64 162h-254l-69 -162h-62zM193 219h211l-101 271z" />
<glyph horiz-adv-x="586" d="M161 630l122 130h54l110 -130h-53l-85 86l-94 -86h-54zM39 0l236 570h57l218 -570h-62l-64 162h-254l-69 -162h-62zM193 219h211l-101 271z" />
<glyph horiz-adv-x="586" d="M135 668q25 21 38.5 31t35 20.5t40.5 10.5q25 -2 63 -25t50 -23q6 0 12.5 1t14.5 4t13.5 5t14.5 7.5t13 8t14 8.5t12 7l17 -30q-3 -2 -14 -11.5t-15.5 -13t-15 -11.5t-16.5 -11.5t-15.5 -7.5t-18 -6t-17.5 -1q-27 1 -62 24t-51 23q-19 0 -33.5 -5.5t-34.5 -17.5t-30 -17z M39 0l236 570h57l218 -570h-62l-64 162h-254l-69 -162h-62zM193 219h211l-101 271z" />
<glyph horiz-adv-x="586" d="M137 669.5q0 16.5 11.5 28t28 11.5t28 -11.5t11.5 -28t-11.5 -28t-28 -11.5t-28 11.5t-11.5 28zM392 669.5q0 16.5 11.5 28t28 11.5t28 -11.5t11.5 -27.5q0 -11 -5.5 -20t-14 -14.5t-19.5 -5.5q-17 0 -28.5 11.5t-11.5 28zM39 0l236 570h57l218 -570h-62l-64 162h-254 l-69 -162h-62zM193 219h211l-101 271z" />
<glyph horiz-adv-x="586" d="M204 668q0 28 13.5 52t37 37.5t51 13.5t51 -13.5t36.5 -37.5t13 -52q0 -43 -29 -72.5t-71 -29.5q-28 0 -51.5 13.5t-37 37t-13.5 51.5zM239 668q0 -27 19.5 -46t47 -19t46.5 19t19 46t-19 46.5t-46 19.5t-47 -19.5t-20 -46.5zM39 0l236 570h57l218 -570h-62l-64 162h-254 l-69 -162h-62zM193 219h211l-101 271z" />
<glyph horiz-adv-x="794" d="M26 0l271 482q30 53 67 69t114 18l271 -11v-45h-269q-32 0 -41 -9t-10 -35v-159l289 -7v-45l-289 -8v-155q0 -26 13 -34t33 -8h274v-44l-288 -13q-28 0 -48 10t-30.5 29t-10.5 45v96h-180l-102 -176h-64zM221 233h151v265z" />
<glyph horiz-adv-x="209" d="M110 0h30q-45 -29 -59.5 -61.5t5 -53.5t66.5 -22v-44q-33 -5 -62.5 6t-44.5 32.5t-18 46t18.5 51.5t64.5 45zM92 0v570h57v-570h-57z" />
<glyph horiz-adv-x="524" d="M157 773h53l91 -86l88 86h53l-113 -130h-55zM61 295q0 47 5 85.5t18.5 76.5t35.5 63.5t59 41.5t86 16q36 0 111.5 -7.5t111.5 -15.5v-44q-12 2 -94 6t-129 4q-79 0 -113 -56.5t-34 -169.5q0 -56 6.5 -97t22.5 -75t45.5 -52t72.5 -18l223 10v-42q-130 -25 -223 -25 q-52 0 -90 18.5t-59.5 46.5t-34 70t-16.5 79.5t-4 84.5z" />
<glyph horiz-adv-x="520" d="M270 632l112 133h71l-133 -133h-50zM90 83v398q0 44 27.5 67t76.5 23l280 -11v-45h-278q-31 0 -40 -10.5t-9 -33.5v-157l296 -7v-45l-296 -6v-158q0 -43 44 -43h283v-44l-300 -13q-38 0 -61 23t-23 62z" />
<glyph horiz-adv-x="520" d="M444 11h30q-45 -29 -59.5 -61.5t5.5 -54t67 -21.5v-44q-34 -5 -63.5 6t-44.5 32.5t-17.5 46t18.5 51.5t64 45zM90 83v398q0 44 27.5 67t76.5 23l280 -11v-45h-278q-31 0 -40 -10.5t-9 -33.5v-157l296 -7v-45l-296 -6v-158q0 -43 44 -43h283v-44l-300 -13q-38 0 -61 23 t-23 62z" />
<glyph horiz-adv-x="520" d="M124 683q0 16 11.5 27.5t28 11.5t27.5 -11.5t11 -28t-11 -28t-27.5 -11.5t-28 12t-11.5 28zM379 683q0 16 11.5 27.5t28 11.5t28 -11.5t11.5 -28t-11.5 -28t-28 -11.5t-28 12t-11.5 28zM90 83v398q0 44 27.5 67t76.5 23l280 -11v-45h-278q-31 0 -40 -10.5t-9 -33.5v-157 l296 -7v-45l-296 -6v-158q0 -43 44 -43h283v-44l-300 -13q-38 0 -61 23t-23 62z" />
<glyph horiz-adv-x="520" d="M262 651v57q0 20 20 20h36q20 0 20 -20v-57q0 -19 -20 -19h-36q-9 0 -14.5 5t-5.5 14zM90 83v398q0 44 27.5 67t76.5 23l280 -11v-45h-278q-31 0 -40 -10.5t-9 -33.5v-157l296 -7v-45l-296 -6v-158q0 -43 44 -43h283v-44l-300 -13q-38 0 -61 23t-23 62z" />
<glyph horiz-adv-x="209" d="M99 630l112 133h71l-133 -133h-50zM90 0v570h57v-570h-57z" />
<glyph horiz-adv-x="209" d="M-20 630l122 130h53l110 -130h-53l-85 86l-94 -86h-53zM90 0v570h57v-570h-57z" />
<glyph horiz-adv-x="209" d="M-13 630v47h279v-47h-279zM93 0v570h57v-570h-57z" />
<glyph horiz-adv-x="598" d="M22 270v40h67v262h37h75t76.5 -0.5t42.5 -0.5q48 0 86.5 -18.5t61.5 -47.5t37.5 -68t20 -76.5t5.5 -77.5q0 -58 -9.5 -104.5t-23.5 -75.5t-36 -50t-39.5 -31t-42 -15.5t-36 -6t-28.5 -0.5h-227v270h-67zM148 58h158q47 0 80 17t51 48.5t25.5 70.5t7.5 89q0 119 -44 174 t-116 55h-162v-202h108v-40h-108v-212z" />
<glyph horiz-adv-x="608" d="M285 -136v51q0 20 18 20h34q17 0 17 -20v-88q0 -14 -3.5 -24.5t-9 -16.5t-13 -9.5t-14.5 -4.5t-12.5 -1h-9.5l-4 1v21q24 -1 24 23v29h-9q-18 0 -18 19zM90 0v571h54l346 -466v466h56v-571h-53l-346 469v-469h-57z" />
<glyph horiz-adv-x="607" d="M167 642v47h279v-47h-279zM61 280q0 91 14.5 149t46.5 90t74.5 44t108.5 12q38 0 65.5 -2.5t54.5 -10t45.5 -20.5t34.5 -34t25.5 -51.5t14.5 -72.5t5 -97q0 -73 -9.5 -124.5t-27.5 -84t-49 -51t-68 -25.5t-91 -7q-43 0 -74 4t-60 14.5t-48 30.5t-33.5 51.5t-21.5 77 t-7 107.5zM118 285q0 -62 7.5 -103.5t20 -67.5t37 -39.5t52 -18t70.5 -4.5q40 0 66 4t52 18t40 39t22.5 68.5t7.5 105.5q0 41 -2.5 72.5t-9 55t-13.5 40.5t-20 28.5t-25 18.5t-32.5 10.5t-39 4.5t-46.5 1t-46.5 -1.5t-40 -6.5t-35 -14.5t-27 -26t-21 -41.5t-12 -60.5 t-5.5 -82.5z" />
<glyph horiz-adv-x="550" d="M251 -137v51q0 20 19 20h33q18 0 18 -20v-87q0 -14 -3.5 -25t-9.5 -16.5t-13 -9.5t-14 -4.5t-13 -1t-10 0.5h-3v21q23 0 23 23v30h-8q-19 0 -19 18zM90 -1v571h57v-262h93l203 262h71l-224 -290l224 -281h-71l-204 251h-92v-251h-57z" />
<glyph horiz-adv-x="607" d="M161 632l122 130h54l109 -130h-53l-85 86l-94 -86h-53zM61 280q0 91 14.5 149t46.5 90t74.5 44t108.5 12q38 0 65.5 -2.5t54.5 -10t45.5 -20.5t34.5 -34t25.5 -51.5t14.5 -72.5t5 -97q0 -73 -9.5 -124.5t-27.5 -84t-49 -51t-68 -25.5t-91 -7q-43 0 -74 4t-60 14.5 t-48 30.5t-33.5 51.5t-21.5 77t-7 107.5zM118 285q0 -62 7.5 -103.5t20 -67.5t37 -39.5t52 -18t70.5 -4.5q40 0 66 4t52 18t40 39t22.5 68.5t7.5 105.5q0 41 -2.5 72.5t-9 55t-13.5 40.5t-20 28.5t-25 18.5t-32.5 10.5t-39 4.5t-46.5 1t-46.5 -1.5t-40 -6.5t-35 -14.5 t-27 -26t-21 -41.5t-12 -60.5t-5.5 -82.5z" />
<glyph horiz-adv-x="607" d="M146 673q25 21 39 31t35 20.5t40 10.5q25 -2 63 -25t51 -23q6 0 12.5 1t14 4t13 5t14.5 7.5t13 8t14 8.5t13 7l16 -30q-2 -2 -13.5 -11.5t-16 -13t-14.5 -11.5t-16.5 -11.5t-16 -7.5t-18 -6t-17.5 -1q-27 1 -62 24t-51 23q-19 0 -33.5 -5.5t-34.5 -17.5t-30 -17zM61 280 q0 91 14.5 149t46.5 90t74.5 44t108.5 12q38 0 65.5 -2.5t54.5 -10t45.5 -20.5t34.5 -34t25.5 -51.5t14.5 -72.5t5 -97q0 -73 -9.5 -124.5t-27.5 -84t-49 -51t-68 -25.5t-91 -7q-43 0 -74 4t-60 14.5t-48 30.5t-33.5 51.5t-21.5 77t-7 107.5zM118 285q0 -62 7.5 -103.5 t20 -67.5t37 -39.5t52 -18t70.5 -4.5q40 0 66 4t52 18t40 39t22.5 68.5t7.5 105.5q0 41 -2.5 72.5t-9 55t-13.5 40.5t-20 28.5t-25 18.5t-32.5 10.5t-39 4.5t-46.5 1t-46.5 -1.5t-40 -6.5t-35 -14.5t-27 -26t-21 -41.5t-12 -60.5t-5.5 -82.5z" />
<glyph horiz-adv-x="607" d="M137 674.5q0 16.5 11.5 28t28 11.5t27.5 -11.5t11 -28t-11 -28t-27.5 -11.5t-28 11.5t-11.5 28zM391 675q0 11 5.5 19.5t14.5 14t20 5.5q17 0 28 -11.5t11 -28t-11 -28t-27.5 -11.5t-28.5 11.5t-12 28.5zM61 280q0 91 14.5 149t46.5 90t74.5 44t108.5 12q38 0 65.5 -2.5 t54.5 -10t45.5 -20.5t34.5 -34t25.5 -51.5t14.5 -72.5t5 -97q0 -73 -9.5 -124.5t-27.5 -84t-49 -51t-68 -25.5t-91 -7q-43 0 -74 4t-60 14.5t-48 30.5t-33.5 51.5t-21.5 77t-7 107.5zM118 285q0 -62 7.5 -103.5t20 -67.5t37 -39.5t52 -18t70.5 -4.5q40 0 66 4t52 18t40 39 t22.5 68.5t7.5 105.5q0 41 -2.5 72.5t-9 55t-13.5 40.5t-20 28.5t-25 18.5t-32.5 10.5t-39 4.5t-46.5 1t-46.5 -1.5t-40 -6.5t-35 -14.5t-27 -26t-21 -41.5t-12 -60.5t-5.5 -82.5z" />
<glyph horiz-adv-x="597" d="M54 0q49 65 49 67q-42 64 -42 213q0 91 14 149t45.5 90t73.5 44t108 12q39 0 66 -2.5t53 -10t45 -20.5q2 3 10.5 14t10.5 14h47q-5 -7 -20 -27t-21 -27q51 -60 51 -229q0 -61 -6 -106.5t-19.5 -78t-32 -53.5t-47 -33t-61 -16.5t-76.5 -4.5q-62 0 -103.5 9.5t-70.5 34.5 q-18 -24 -28 -39h-46zM118 285q0 -117 25 -166q14 17 133.5 174.5t153.5 201.5q-20 14 -49.5 18.5t-78.5 4.5q-28 0 -46.5 -1.5t-40 -6.5t-34.5 -14.5t-26 -26.5t-20.5 -41.5t-12 -60t-4.5 -82.5zM165 87q21 -20 53.5 -27.5t83.5 -7.5q40 0 65.5 4t50.5 17.5t38.5 39 t22 68.5t8.5 106q0 131 -33 180q-28 -36 -289 -380z" />
<glyph horiz-adv-x="567" d="M325 -2h30q-45 -29 -59 -61t5.5 -53.5t66.5 -21.5v-45q-33 -4 -63 7t-45 32t-17.5 46t19 51.5t63.5 44.5zM102 260v310h58v-310q0 -64 9.5 -104.5t32 -63.5t54 -31.5t81.5 -8.5q44 0 74.5 9t53.5 31.5t34 64t11 103.5v310h58v-310q0 -68 -13 -117t-33 -77t-52 -44.5 t-62 -21.5t-71 -5q-31 0 -55 2t-50 8.5t-44 18.5t-35.5 31.5t-28 47.5t-16.5 67.5t-6 89.5z" />
<glyph horiz-adv-x="618" d="M297 630l112 133h71l-133 -133h-50zM89 260v310h58v-310q0 -64 9.5 -104.5t32.5 -63.5t54.5 -31.5t81.5 -8.5q44 0 74 9t53 31.5t34 64t11 103.5v310h58v-310q0 -68 -12.5 -117t-33 -77t-52 -44.5t-62 -21.5t-70.5 -5q-32 0 -55.5 2t-49.5 8.5t-44.5 18.5t-36 31.5 t-28 47.5t-16.5 67.5t-6 89.5z" />
<glyph horiz-adv-x="618" d="M178 630l122 130h54l109 -130h-53l-85 86l-93 -86h-54zM89 260v310h58v-310q0 -64 9.5 -104.5t32.5 -63.5t54.5 -31.5t81.5 -8.5q44 0 74 9t53 31.5t34 64t11 103.5v310h58v-310q0 -68 -12.5 -117t-33 -77t-52 -44.5t-62 -21.5t-70.5 -5q-32 0 -55.5 2t-49.5 8.5 t-44.5 18.5t-36 31.5t-28 47.5t-16.5 67.5t-6 89.5z" />
<glyph horiz-adv-x="618" d="M153 669.5q0 16.5 11.5 28t28 11.5t28 -11.5t11.5 -28t-11.5 -28t-28 -11.5t-28 11.5t-11.5 28zM408 669.5q0 16.5 11.5 28t28 11.5t28 -11.5t11.5 -28t-11.5 -28t-28 -11.5t-28 11.5t-11.5 28zM89 260v310h58v-310q0 -64 9.5 -104.5t32.5 -63.5t54.5 -31.5t81.5 -8.5 q44 0 74 9t53 31.5t34 64t11 103.5v310h58v-310q0 -68 -12.5 -117t-33 -77t-52 -44.5t-62 -21.5t-70.5 -5q-32 0 -55.5 2t-49.5 8.5t-44.5 18.5t-36 31.5t-28 47.5t-16.5 67.5t-6 89.5z" />
<glyph horiz-adv-x="618" d="M152 668q25 21 38.5 31t35 20.5t40.5 10.5q19 -1 41.5 -13t41 -23.5t30.5 -11.5q6 0 12.5 1t14 4t13 5t14.5 7.5t13.5 8t14 8.5t12.5 7l17 -30q-3 -2 -14.5 -11.5t-15.5 -13t-14.5 -11.5t-17 -11.5t-15.5 -7.5t-18 -6t-17 -1q-22 0 -43 12t-39 23.5t-32 11.5 q-12 0 -22.5 -2.5t-19.5 -7t-16.5 -9t-18.5 -11t-20 -10.5zM89 260v310h58v-310q0 -64 9.5 -104.5t32.5 -63.5t54.5 -31.5t81.5 -8.5q44 0 74 9t53 31.5t34 64t11 103.5v310h58v-310q0 -68 -12.5 -117t-33 -77t-52 -44.5t-62 -21.5t-70.5 -5q-32 0 -55.5 2t-49.5 8.5 t-44.5 18.5t-36 31.5t-28 47.5t-16.5 67.5t-6 89.5z" />
<glyph horiz-adv-x="618" d="M181 630v47h279v-47h-279zM89 260v310h58v-310q0 -64 9.5 -104.5t32.5 -63.5t54.5 -31.5t81.5 -8.5q44 0 74 9t53 31.5t34 64t11 103.5v310h58v-310q0 -68 -12.5 -117t-33 -77t-52 -44.5t-62 -21.5t-70.5 -5q-32 0 -55.5 2t-49.5 8.5t-44.5 18.5t-36 31.5t-28 47.5 t-16.5 67.5t-6 89.5z" />
<glyph horiz-adv-x="1007" d="M41 374q0 -70 32.5 -96t105.5 -26h150q27 0 43 -7t23 -21t7 -36v-70q0 -31 -17 -51t-56 -20l-266 4v-41q25 -8 120.5 -14t145.5 -6q24 0 44.5 5t41 17.5t32.5 39.5t12 66v70q0 28 -8 50.5t-24 38t-41 23.5t-57 8h-150q-16 0 -20 0.5t-16.5 1.5t-16 3t-11 6.5t-10 11.5 t-5 18t-2.5 25v67q0 38 19 57t62 19l253 -5v43q-32 4 -82.5 8.5t-97.5 7t-73 2.5q-74 0 -106 -33.5t-32 -98.5v-67zM540 441q0 65 32 98.5t106 33.5q40 0 122 -6t131 -12v-43q-155 5 -253 5q-44 0 -62.5 -19t-18.5 -57v-67q0 -24 5 -38t17 -19.5t22.5 -7t32.5 -1.5h4h150 q43 0 72.5 -14.5t43.5 -41t14 -64.5v-70q0 -39 -12 -66t-33 -39.5t-41 -17.5t-44 -5q-50 0 -145.5 6t-120.5 14v41q170 -4 266 -4q38 0 55.5 20t17.5 51v70q0 33 -17 48.5t-56 15.5h-150q-73 0 -105.5 26t-32.5 96v67z" />
<glyph horiz-adv-x="586" d="M128 763h72l111 -133h-50zM39 0l236 570h57l218 -570h-62l-64 162h-254l-69 -162h-62zM193 219h211l-101 271z" />
<glyph horiz-adv-x="524" d="M188 -147l45 11q28 8 39 30t10 68h50q0 -78 -20.5 -107t-80.5 -29h-43v27zM61 295q0 47 5 85.5t18.5 76.5t35.5 63.5t59 41.5t86 16q36 0 111.5 -7.5t111.5 -15.5v-44q-12 2 -94 6t-129 4q-79 0 -113 -56.5t-34 -169.5q0 -56 6.5 -97t22.5 -75t45.5 -52t72.5 -18l223 10 v-42q-130 -25 -223 -25q-52 0 -90 18.5t-59.5 46.5t-34 70t-16.5 79.5t-4 84.5z" />
<glyph horiz-adv-x="600" d="M28 270v40h66v262h37h75t77 -0.5t42 -0.5q49 0 87 -18.5t61 -47.5t38 -68t20.5 -76.5t5.5 -77.5q0 -58 -10 -104.5t-24 -75.5t-36 -50t-39.5 -31t-42 -15.5t-36 -6t-27.5 -0.5h-228v270h-66zM154 58h158q47 0 80 17t50.5 48.5t25 70.5t7.5 89q0 119 -44 174t-115 55h-162 v-202h108v-40h-108v-212z" />
<glyph horiz-adv-x="520" d="M150 765h71l112 -133h-50zM90 83v398q0 44 27.5 67t76.5 23l280 -11v-45h-278q-31 0 -40 -10.5t-9 -33.5v-157l296 -7v-45l-296 -6v-158q0 -43 44 -43h283v-44l-300 -13q-38 0 -61 23t-23 62z" />
<glyph horiz-adv-x="520" d="M153 632l122 130h54l109 -130h-53l-85 86l-94 -86h-53zM90 83v398q0 44 27.5 67t76.5 23l280 -11v-45h-278q-31 0 -40 -10.5t-9 -33.5v-157l296 -7v-45l-296 -6v-158q0 -43 44 -43h283v-44l-300 -13q-38 0 -61 23t-23 62z" />
<glyph horiz-adv-x="209" d="M-33 763h72l112 -133h-51zM90 0v570h57v-570h-57z" />
<glyph horiz-adv-x="209" d="M-45 670q0 16 11.5 27.5t27.5 11.5t27.5 -11.5t11.5 -27.5q0 -11 -5 -20t-14 -14.5t-20 -5.5t-20 5.5t-14 14.5t-5 20zM209 669.5q0 16.5 12 28t28 11.5t27.5 -11.5t11.5 -27.5q0 -11 -5 -20t-14 -14.5t-20 -5.5q-16 0 -28 11.5t-12 28zM90 0v570h57v-570h-57z" />
<glyph horiz-adv-x="608" d="M142 669q25 21 38.5 31t35 20.5t40.5 10.5q25 -2 62.5 -25t50.5 -23q6 0 12.5 1t14 4t13 5t14.5 7.5t13.5 8t14 8.5t12.5 7l17 -30q-3 -2 -14.5 -11.5t-15.5 -13t-14.5 -11.5t-17 -11.5t-15.5 -7.5t-18 -6t-17 -1q-22 0 -43 12t-38.5 23.5t-32.5 11.5q-19 0 -33 -5.5 t-34 -17.5t-30 -17zM90 0v571h54l346 -466v466h56v-571h-53l-346 469v-469h-57z" />
<glyph horiz-adv-x="607" d="M157 768h72l112 -133h-51zM61 280q0 91 14.5 149t46.5 90t74.5 44t108.5 12q38 0 65.5 -2.5t54.5 -10t45.5 -20.5t34.5 -34t25.5 -51.5t14.5 -72.5t5 -97q0 -73 -9.5 -124.5t-27.5 -84t-49 -51t-68 -25.5t-91 -7q-43 0 -74 4t-60 14.5t-48 30.5t-33.5 51.5t-21.5 77 t-7 107.5zM118 285q0 -62 7.5 -103.5t20 -67.5t37 -39.5t52 -18t70.5 -4.5q40 0 66 4t52 18t40 39t22.5 68.5t7.5 105.5q0 41 -2.5 72.5t-9 55t-13.5 40.5t-20 28.5t-25 18.5t-32.5 10.5t-39 4.5t-46.5 1t-46.5 -1.5t-40 -6.5t-35 -14.5t-27 -26t-21 -41.5t-12 -60.5 t-5.5 -82.5z" />
<glyph horiz-adv-x="607" d="M290 635l112 133h71l-133 -133h-50zM61 280q0 91 14.5 149t46.5 90t74.5 44t108.5 12q38 0 65.5 -2.5t54.5 -10t45.5 -20.5t34.5 -34t25.5 -51.5t14.5 -72.5t5 -97q0 -73 -9.5 -124.5t-27.5 -84t-49 -51t-68 -25.5t-91 -7q-43 0 -74 4t-60 14.5t-48 30.5t-33.5 51.5 t-21.5 77t-7 107.5zM118 285q0 -62 7.5 -103.5t20 -67.5t37 -39.5t52 -18t70.5 -4.5q40 0 66 4t52 18t40 39t22.5 68.5t7.5 105.5q0 41 -2.5 72.5t-9 55t-13.5 40.5t-20 28.5t-25 18.5t-32.5 10.5t-39 4.5t-46.5 1t-46.5 -1.5t-40 -6.5t-35 -14.5t-27 -26t-21 -41.5 t-12 -60.5t-5.5 -82.5z" />
<glyph horiz-adv-x="618" d="M171 763h71l112 -133h-50zM89 260v310h58v-310q0 -64 9.5 -104.5t32.5 -63.5t54.5 -31.5t81.5 -8.5q44 0 74 9t53 31.5t34 64t11 103.5v310h58v-310q0 -68 -12.5 -117t-33 -77t-52 -44.5t-62 -21.5t-70.5 -5q-32 0 -55.5 2t-49.5 8.5t-44.5 18.5t-36 31.5t-28 47.5 t-16.5 67.5t-6 89.5z" />
<glyph horiz-adv-x="564" d="M249 630l112 133h71l-133 -133h-50zM39 570h63l183 -320l180 320h63l-215 -380v-191h-57v191z" />
<glyph d="M84 0v569h56v-103h187q17 0 34 -3.5t38 -14.5t37 -29t26.5 -50t10.5 -75q0 -49 -9.5 -84.5t-23.5 -54.5t-35 -30t-38.5 -13.5t-39.5 -2.5q-136 0 -187 14v-123h-56zM140 169h187q31 0 49.5 9.5t29 38t10.5 78.5q0 109 -89 114h-187v-240z" />
<glyph horiz-adv-x="232" d="M74 24v65q0 28 25 28h45q24 0 24 -28v-107q0 -26 -9 -43.5t-22 -23.5t-26.5 -8.5t-22.5 -0.5l-9 1v27q31 -1 31 32v33h-11q-11 0 -18 6.5t-7 18.5z" />
<glyph horiz-adv-x="373" d="M212 394v107q0 26 9.5 43.5t23 23.5t26.5 8t22 1l10 -1v-28q-33 1 -33 -31v-33h13q10 0 17 -6.5t7 -18.5v-65q0 -27 -24 -27h-46q-25 0 -25 27zM67 394v107q0 26 9.5 43.5t22.5 23.5t26 8t22 1l9 -1v-28q-31 1 -31 -31v-33h11q11 0 18.5 -6.5t7.5 -18.5v-65 q0 -27 -26 -27h-44q-25 0 -25 27z" />
<glyph horiz-adv-x="373" d="M67 485v65q0 27 25 27h45q25 0 25 -27v-108q0 -26 -9.5 -43t-22.5 -23t-26.5 -8.5t-22.5 -1.5l-9 2v27q32 -1 32 31v34h-12q-25 0 -25 25zM212 485v65q0 27 26 27h45q24 0 24 -27v-108q0 -26 -9 -43t-22 -23t-26.5 -8.5t-22.5 -1.5l-9 2v27q31 -1 31 31v34h-11 q-11 0 -18.5 6.5t-7.5 18.5z" />
<glyph horiz-adv-x="373" d="M67 24v66q0 27 25 27h45q25 0 25 -27v-108q0 -26 -9.5 -43t-22.5 -23.5t-26.5 -8.5t-22.5 -1l-9 1v28q32 -1 32 31v33h-12q-25 0 -25 25zM212 24v66q0 27 26 27h45q24 0 24 -27v-108q0 -26 -9 -43t-22 -23.5t-26.5 -8.5t-22.5 -1l-9 1v28q31 -1 31 31v33h-11 q-11 0 -18.5 6.5t-7.5 18.5z" />
<glyph horiz-adv-x="265" d="M92 492v59q0 19 19 19h40q9 0 14.5 -5.5t5.5 -13.5v-59q0 -21 -20 -21h-40q-19 0 -19 21zM99 0l6 403h54l6 -403h-66z" />
<glyph horiz-adv-x="424" d="M50 395q0 107 34.5 147t128.5 40t127.5 -39.5t33.5 -147.5q0 -98 -34 -137.5t-127 -39.5t-128 39.5t-35 137.5zM61 145v44h301v-44h-301zM97 395q0 -43 7 -70t23.5 -39.5t35 -16.5t50.5 -4q27 0 42.5 2t31 9.5t23 21.5t12 37.5t5.5 59.5q0 48 -6 76.5t-21.5 42t-34 17.5 t-52.5 4q-35 0 -54 -4t-34.5 -18.5t-21.5 -42t-6 -75.5z" />
<glyph horiz-adv-x="416" d="M67 147v44h317v-44h-317zM71 225l135 346h57l119 -346h-45l-34 99h-147l-37 -99h-48zM172 365h116l-53 161z" />
<glyph horiz-adv-x="513" d="M18 205v34l68 6v71l-68 6v32l68 7q0 216 193 216q68 0 194 -23v-45q-130 11 -194 11q-36 0 -62 -10t-40 -24.5t-22 -37.5t-9.5 -42t-1.5 -45l185 -6v-34l-185 -5v-71l185 -5v-35q-12 0 -31.5 -0.5t-60 -1.5t-67.5 -2.5t-26 -1.5q0 -73 36.5 -109t98.5 -36q16 0 36 1 t38.5 2t37 2.5t33.5 3t27 2.5t19 2l6 1v-45q-98 -28 -197 -28q-23 0 -46.5 5t-50.5 19t-47.5 35.5t-34.5 59t-14 85.5z" />
<glyph horiz-adv-x="504" d="M90 86v484h57v-472q-1 -24 11 -32.5t37 -8.5h273v-57h-292q-41 0 -63.5 22.5t-22.5 63.5zM223 544v67h57v-67l-8 -134h-39z" />
<glyph horiz-adv-x="543" d="M239 639l112 133h72l-133 -133h-51zM61 374v62q0 137 138 137q26 0 74.5 -2.5t101 -7t84.5 -8.5v-43q-162 5 -260 5q-81 0 -81 -81v-62q0 -14 2.5 -25t5 -18t10 -11.5t11 -6.5t16 -3t16.5 -1.5t20 -0.5h157q64 0 97 -31.5t33 -88.5v-70q0 -39 -12 -66t-33 -39.5 t-41 -17.5t-44 -5q-51 0 -149.5 6t-123.5 14v41q177 -4 273 -4q36 0 54.5 25.5t18.5 45.5v70q0 33 -17 48.5t-56 15.5h-157q-49 0 -78 10t-44.5 37.5t-15.5 74.5z" />
<glyph horiz-adv-x="543" d="M153 -150l46 12q28 8 39 30t10 68h50q0 -78 -20.5 -107t-80.5 -29h-44v26zM61 374v62q0 137 138 137q26 0 74.5 -2.5t101 -7t84.5 -8.5v-43q-162 5 -260 5q-81 0 -81 -81v-62q0 -14 2.5 -25t5 -18t10 -11.5t11 -6.5t16 -3t16.5 -1.5t20 -0.5h157q64 0 97 -31.5t33 -88.5 v-70q0 -39 -12 -66t-33 -39.5t-41 -17.5t-44 -5q-51 0 -149.5 6t-123.5 14v41q177 -4 273 -4q36 0 54.5 25.5t18.5 45.5v70q0 33 -17 48.5t-56 15.5h-157q-49 0 -78 10t-44.5 37.5t-15.5 74.5z" />
<glyph horiz-adv-x="584" d="M176 773h53l92 -86l88 86h53l-114 -130h-54zM93 513v57h449v-57h-196v-513h-57v513h-196z" />
<glyph horiz-adv-x="498" d="M227 630l112 133h71l-133 -133h-50zM39 0v57l348 456h-348v57h423v-57l-345 -456h345v-57h-423z" />
<glyph horiz-adv-x="498" d="M212 649v57q0 21 20 21h37q19 0 19 -21v-57q0 -19 -19 -19h-37q-5 0 -9.5 2.5t-7.5 7t-3 9.5zM39 0v57l348 456h-348v57h423v-57l-345 -456h345v-57h-423z" />
<glyph horiz-adv-x="537" d="M243 631l112 133h72l-133 -133h-51zM67 0v571h264q16 0 32 -3t34 -9t33 -18.5t27.5 -29.5t19.5 -43t7 -59q0 -46 -13.5 -83t-41 -60t-65.5 -26l138 -240h-66l-131 234q-180 12 -181 14v-248h-57zM124 291h210q16 0 30 4.5t29.5 16t24.5 36.5t9 60q0 20 -4 36.5 t-10.5 27.5t-16 19t-18 12t-18.5 7t-16.5 3.5t-12.5 0.5h-207v-223z" />
<glyph horiz-adv-x="586" d="M189 744h36q0 -22 11 -40t29 -28t38 -10q23 0 41 9.5t28.5 27.5t10.5 41h36q0 -27 -10.5 -49.5t-27 -36t-37 -21t-41.5 -7.5t-41 8t-36.5 22t-26.5 36t-10 48zM39 0l236 570h57l218 -570h-62l-64 162h-254l-69 -162h-62zM193 219h211l-101 271z" />
<glyph horiz-adv-x="504" d="M99 630l112 133h71l-133 -133h-50zM90 86v484h57v-472q-1 -24 11 -32.5t37 -8.5h273v-57h-292q-41 0 -63.5 22.5t-22.5 63.5z" />
<glyph horiz-adv-x="524" d="M256 643l112 133h71l-133 -133h-50zM61 295q0 47 5 85.5t18.5 76.5t35.5 63.5t59 41.5t86 16q36 0 111.5 -7.5t111.5 -15.5v-44q-12 2 -94 6t-129 4q-79 0 -113 -56.5t-34 -169.5q0 -56 6.5 -97t22.5 -75t45.5 -52t72.5 -18l223 10v-42q-130 -25 -223 -25q-52 0 -90 18.5 t-59.5 46.5t-34 70t-16.5 79.5t-4 84.5z" />
<glyph horiz-adv-x="520" d="M146 761h53l91 -86l88 86h53l-113 -130h-55zM90 83v398q0 44 27.5 67t76.5 23l280 -11v-45h-278q-31 0 -40 -10.5t-9 -33.5v-157l296 -7v-45l-296 -6v-158q0 -43 44 -43h283v-44l-300 -13q-38 0 -61 23t-23 62z" />
<glyph horiz-adv-x="603" d="M197 762h53l91 -86l88 86h53l-114 -130h-54zM128 0v572h240q63 -1 108 -28t68 -72t33 -91.5t10 -97.5q0 -58 -9.5 -104.5t-23 -75.5t-35.5 -50t-39.5 -31t-42.5 -15.5t-37.5 -6t-31.5 -0.5h-240zM185 57h183q162 0 162 226q0 118 -45.5 175t-116.5 57h-183v-458z" />
<glyph horiz-adv-x="608" d="M304 631l111 133h72l-133 -133h-50zM90 0v571h54l346 -466v466h56v-571h-53l-346 469v-469h-57z" />
<glyph horiz-adv-x="608" d="M177 761h53l92 -86l88 86h53l-114 -130h-54zM90 0v571h54l346 -466v466h56v-571h-53l-346 469v-469h-57z" />
<glyph horiz-adv-x="607" d="M213 635l111 133h72l-133 -133h-50zM349 635l112 133h71l-133 -133h-50zM61 280q0 91 14.5 149t46.5 90t74.5 44t108.5 12q38 0 65.5 -2.5t54.5 -10t45.5 -20.5t34.5 -34t25.5 -51.5t14.5 -72.5t5 -97q0 -73 -9.5 -124.5t-27.5 -84t-49 -51t-68 -25.5t-91 -7q-43 0 -74 4 t-60 14.5t-48 30.5t-33.5 51.5t-21.5 77t-7 107.5zM118 285q0 -62 7.5 -103.5t20 -67.5t37 -39.5t52 -18t70.5 -4.5q40 0 66 4t52 18t40 39t22.5 68.5t7.5 105.5q0 41 -2.5 72.5t-9 55t-13.5 40.5t-20 28.5t-25 18.5t-32.5 10.5t-39 4.5t-46.5 1t-46.5 -1.5t-40 -6.5 t-35 -14.5t-27 -26t-21 -41.5t-12 -60.5t-5.5 -82.5z" />
<glyph horiz-adv-x="537" d="M123 761h53l91 -86l88 86h53l-113 -130h-55zM67 0v571h264q16 0 32 -3t34 -9t33 -18.5t27.5 -29.5t19.5 -43t7 -59q0 -46 -13.5 -83t-41 -60t-65.5 -26l138 -240h-66l-131 234q-180 12 -181 14v-248h-57zM124 291h210q16 0 30 4.5t29.5 16t24.5 36.5t9 60q0 20 -4 36.5 t-10.5 27.5t-16 19t-18 12t-18.5 7t-16.5 3.5t-12.5 0.5h-207v-223z" />
<glyph horiz-adv-x="618" d="M221 712q0 28 13.5 52t37 37.5t51 13.5t51 -13.5t37 -37.5t13.5 -52q0 -43 -29.5 -72.5t-71.5 -29.5q-28 0 -51.5 13.5t-37 37t-13.5 51.5zM257 712q0 -18 9 -33t24 -23.5t33 -8.5q27 0 46 19t19 46t-19 46.5t-46 19.5t-46.5 -19.5t-19.5 -46.5zM89 260v310h58v-310 q0 -64 9.5 -104.5t32.5 -63.5t54.5 -31.5t81.5 -8.5q44 0 74 9t53 31.5t34 64t11 103.5v310h58v-310q0 -68 -12.5 -117t-33 -77t-52 -44.5t-62 -21.5t-70.5 -5q-32 0 -55.5 2t-49.5 8.5t-44.5 18.5t-36 31.5t-28 47.5t-16.5 67.5t-6 89.5z" />
<glyph horiz-adv-x="618" d="M226 630l112 133h71l-133 -133h-50zM362 630l112 133h72l-133 -133h-51zM89 260v310h58v-310q0 -64 9.5 -104.5t32.5 -63.5t54.5 -31.5t81.5 -8.5q44 0 74 9t53 31.5t34 64t11 103.5v310h58v-310q0 -68 -12.5 -117t-33 -77t-52 -44.5t-62 -21.5t-70.5 -5q-32 0 -55.5 2 t-49.5 8.5t-44.5 18.5t-36 31.5t-28 47.5t-16.5 67.5t-6 89.5z" />
<glyph horiz-adv-x="524" d="M134 -156l46 11q27 8 38 30t11 68h50q0 -78 -21 -107t-80 -29h-44v27zM39 513v57h449v-57h-196v-513h-57v513h-196z" />
<glyph horiz-adv-x="498" d="M30 241v50l63 26v253h57v-230l118 48l-1 -49l-117 -48v-193q0 -24 12 -32.5t37 -8.5h273v-57h-293q-40 0 -63 22.5t-23 63.5v182z" />
<glyph horiz-adv-x="499" d="M63 152v48q0 77 58.5 111.5t142.5 22.5v70h59v-120q-62 1 -93 0q-20 -1 -38 -5t-35 -13t-27 -26t-10 -40v-48q0 -51 31 -74t98 -23h212v-44q-132 -16 -216 -14q-92 0 -137 41.5t-45 113.5zM254 492v59q0 19 20 19h39q9 0 14.5 -5.5t5.5 -13.5v-59q0 -21 -20 -21h-39 q-20 0 -20 21z" />
<glyph horiz-adv-x="898" d="M45 280q0 91 14 149t46 90t75 44t109 12q30 0 52.5 -1.5t44.5 -6t39 -12t31.5 -19.5t25.5 -29q15 64 99 64l276 -11v-45h-274q-21 0 -32 -6t-14 -14.5t-3 -23.5v-157l292 -7v-45l-292 -6v-158q0 -43 44 -43h279v-44l-296 -13q-34 0 -55 18.5t-25 49.5q-26 -39 -72.5 -55 t-119.5 -16q-37 0 -64.5 2.5t-54.5 10t-45.5 21t-34.5 35t-25.5 51.5t-14.5 71t-5 94zM102 285q0 -62 7 -103.5t20 -67.5t37 -39.5t51.5 -18t71.5 -4.5q40 0 65.5 4t51 18t39.5 39t23 68.5t9 105.5q0 41 -2.5 72.5t-9 55.5t-14 41t-20.5 28.5t-25.5 18t-33 10t-38.5 4.5 t-45 1q-22 0 -37 -0.5t-33 -3t-30 -7.5t-25.5 -13.5t-22 -20.5t-16.5 -29.5t-13 -40t-7.5 -52t-2.5 -66.5z" />
<glyph horiz-adv-x="564" d="M117 669.5q0 16.5 11.5 28t28 11.5t27.5 -11.5t11 -28t-11 -28t-27.5 -11.5t-28 11.5t-11.5 28zM372 669.5q0 16.5 11.5 28t28 11.5t27.5 -11.5t11 -28t-11 -28t-27.5 -11.5t-28 11.5t-11.5 28zM39 570h63l183 -320l180 320h63l-215 -380v-191h-57v191z" />
<glyph horiz-adv-x="527" d="M56 0v36l56 16v206h-56v32l57 12v89q0 180 196 180l164 -12v-43h-163q-79 0 -110 -31.5t-31 -95.5v-84l242 -13v-36h-242v-200h303v-56h-416z" />
<glyph horiz-adv-x="509" d="M22 571h65l168 -269l165 269h67l-194 -313h155v-44h-165v-45h165v-44h-165v-125h-57v125h-156v44h156v45h-156v44h145z" />
<glyph horiz-adv-x="1168" d="M32 383v63q0 66 28 95.5t101 29.5h46q71 0 99 -29.5t28 -95.5v-63q0 -66 -28 -95.5t-101 -29.5h-46q-48 0 -76 14t-39.5 40.5t-11.5 70.5zM80 383q0 -45 17.5 -61t61.5 -16h46q33 0 50 7t24 23t7 47v63q0 44 -17 60.5t-62 16.5h-46q-33 0 -50 -7t-24 -23t-7 -47v-63z M200 0l343 570h54l-343 -570h-54zM467 125v62q0 66 27.5 95.5t101.5 29.5h45q71 0 99 -29.5t28 -95.5v-62q0 -67 -28 -96t-101 -29h-45q-72 0 -99.5 29.5t-27.5 95.5zM515 125q0 -45 17 -61t62 -16h45q48 0 64.5 15.5t16.5 61.5v62q0 30 -7.5 46.5t-24 23.5t-47.5 7h-45 q-49 0 -65 -16t-16 -61v-62zM823 125v62q0 66 28 95.5t101 29.5h45q72 0 99.5 -29.5t27.5 -95.5v-62q0 -67 -28 -96t-101 -29h-45q-71 0 -99 29.5t-28 95.5zM871 125q0 -45 17.5 -61t61.5 -16h45q48 0 64.5 15.5t16.5 61.5v62q0 44 -17 60.5t-62 16.5h-45q-49 0 -65 -16 t-16 -61v-62z" />
<glyph horiz-adv-x="397" d="M56 531l122 130h54l109 -130h-53l-85 86l-93 -86h-54zM232 661z" />
<glyph horiz-adv-x="449" d="M56 572q25 21 38.5 31.5t35 20.5t40.5 10q25 -1 63 -24.5t51 -23.5q6 0 12.5 1t14 4t13 5.5t14.5 7.5t13 7.5t14 8.5t13 8l16 -30q-3 -3 -14 -12.5t-15.5 -13t-14.5 -11.5t-16.5 -11t-16 -7.5t-18 -6t-17.5 -1.5q-27 1 -62 24.5t-51 22.5q-19 0 -33.5 -5t-34.5 -17.5 t-30 -17.5z" />
<glyph horiz-adv-x="314" d="M56 632q0 43 29.5 73t71.5 30q28 0 51 -14t36.5 -37.5t13.5 -51.5q0 -43 -29.5 -73t-71.5 -30t-71.5 30t-29.5 73zM92 632q0 -27 19 -46t46.5 -19t46 19t18.5 46t-19 46.5t-46 19.5t-46 -19.5t-19 -46.5z" />
<glyph horiz-adv-x="601" d="M41 406v37h49v127h57v-127h334v127h57v-127h49v-37h-49v-407h-57v248h-334v-248h-57v407h-49zM147 304h334v102h-334v-102z" />
<glyph horiz-adv-x="601" d="M168 630l122 130h53l110 -130h-53l-85 86l-94 -86h-53zM90 -1v571h57v-266h334v266h57v-571h-57v247h-334v-247h-57z" />
<glyph horiz-adv-x="576" d="M194 753h36q0 -33 23.5 -55.5t54.5 -22.5q34 0 57 21.5t23 56.5h36q0 -53 -35.5 -83.5t-80.5 -30.5q-21 0 -41 8t-36.5 22t-26.5 36t-10 48zM61 286q0 73 9.5 124t32.5 91t65.5 59t105.5 19q22 0 64.5 -3.5t90 -9.5t76.5 -12v-46q-141 14 -231 14q-58 0 -90.5 -20 t-49 -71t-16.5 -143q0 -44 8.5 -84.5t26 -76t49 -57t72.5 -21.5q55 0 110.5 19.5t77.5 35.5v150h-185v37q5 1 21.5 4t22.5 4t20.5 3.5t24.5 3.5t24.5 2.5t29.5 2t32 0.5q31 0 67 -3v-308h-41l-14 47q-39 -25 -91.5 -39.5t-98.5 -14.5q-37 0 -68 10t-52 28.5t-37.5 40t-26 49 t-16 50.5t-9 48.5t-3.5 39t-1 27.5z" />
<glyph horiz-adv-x="332" d="M87 630l122 130h54l109 -130h-53l-85 86l-93 -86h-54zM39 21l4 40q33 -6 54 -8.5t45 0.5t38 15t23 36.5t10 61.5v404h57v-404q0 -112 -56 -148q-44 -25 -89.5 -22t-85.5 25z" />
<glyph horiz-adv-x="524" d="M267 662v57q0 21 20 21h37q19 0 19 -21v-57q0 -19 -19 -19h-37q-9 0 -14.5 5.5t-5.5 13.5zM61 295q0 47 5 85.5t18.5 76.5t35.5 63.5t59 41.5t86 16q36 0 111.5 -7.5t111.5 -15.5v-44q-12 2 -94 6t-129 4q-79 0 -113 -56.5t-34 -169.5q0 -56 6.5 -97t22.5 -75t45.5 -52 t72.5 -18l223 10v-42q-130 -25 -223 -25q-52 0 -90 18.5t-59.5 46.5t-34 70t-16.5 79.5t-4 84.5z" />
<glyph horiz-adv-x="524" d="M165 643l122 130h54l110 -130h-53l-85 86l-94 -86h-54zM61 295q0 47 5 85.5t18.5 76.5t35.5 63.5t59 41.5t86 16q36 0 111.5 -7.5t111.5 -15.5v-44q-12 2 -94 6t-129 4q-79 0 -113 -56.5t-34 -169.5q0 -56 6.5 -97t22.5 -75t45.5 -52t72.5 -18l223 10v-42 q-130 -25 -223 -25q-52 0 -90 18.5t-59.5 46.5t-34 70t-16.5 79.5t-4 84.5z" />
<glyph horiz-adv-x="576" d="M275 658v57q0 21 20 21h37q19 0 19 -21v-57q0 -19 -19 -19h-37q-9 0 -14.5 5.5t-5.5 13.5zM61 286q0 73 9.5 124t32.5 91t65.5 59t105.5 19q22 0 64.5 -3.5t90 -9.5t76.5 -12v-46q-141 14 -231 14q-58 0 -90.5 -20t-49 -71t-16.5 -143q0 -44 8.5 -84.5t26 -76t49 -57 t72.5 -21.5q55 0 110.5 19.5t77.5 35.5v150h-185v37q5 1 21.5 4t22.5 4t20.5 3.5t24.5 3.5t24.5 2.5t29.5 2t32 0.5q31 0 67 -3v-308h-41l-14 47q-39 -25 -91.5 -39.5t-98.5 -14.5q-37 0 -68 10t-52 28.5t-37.5 40t-26 49t-16 50.5t-9 48.5t-3.5 39t-1 27.5z" />
<glyph horiz-adv-x="576" d="M172 638l122 130h54l110 -130h-53l-85 86l-94 -86h-54zM61 286q0 73 9.5 124t32.5 91t65.5 59t105.5 19q22 0 64.5 -3.5t90 -9.5t76.5 -12v-46q-141 14 -231 14q-58 0 -90.5 -20t-49 -71t-16.5 -143q0 -44 8.5 -84.5t26 -76t49 -57t72.5 -21.5q55 0 110.5 19.5t77.5 35.5 v150h-185v37q5 1 21.5 4t22.5 4t20.5 3.5t24.5 3.5t24.5 2.5t29.5 2t32 0.5q31 0 67 -3v-308h-41l-14 47q-39 -25 -91.5 -39.5t-98.5 -14.5q-37 0 -68 10t-52 28.5t-37.5 40t-26 49t-16 50.5t-9 48.5t-3.5 39t-1 27.5z" />
<glyph horiz-adv-x="618" d="M208 744h35q0 -33 24 -55.5t55 -22.5q22 0 40.5 9.5t29 27.5t10.5 41h36q0 -27 -10.5 -49.5t-27.5 -36t-37 -21t-41 -7.5t-41.5 8t-36.5 22t-26 36t-10 48zM89 260v310h58v-310q0 -64 9.5 -104.5t32.5 -63.5t54.5 -31.5t81.5 -8.5q44 0 74 9t53 31.5t34 64t11 103.5v310 h58v-310q0 -68 -12.5 -117t-33 -77t-52 -44.5t-62 -21.5t-70.5 -5q-32 0 -55.5 2t-49.5 8.5t-44.5 18.5t-36 31.5t-28 47.5t-16.5 67.5t-6 89.5z" />
<glyph horiz-adv-x="543" d="M115 637l123 130h53l110 -130h-53l-85 86l-94 -86h-54zM61 374v62q0 137 138 137q26 0 74.5 -2.5t101 -7t84.5 -8.5v-43q-162 5 -260 5q-81 0 -81 -81v-62q0 -14 2.5 -25t5 -18t10 -11.5t11 -6.5t16 -3t16.5 -1.5t20 -0.5h157q64 0 97 -31.5t33 -88.5v-70q0 -39 -12 -66 t-33 -39.5t-41 -17.5t-44 -5q-51 0 -149.5 6t-123.5 14v41q177 -4 273 -4q36 0 54.5 25.5t18.5 45.5v70q0 33 -17 48.5t-56 15.5h-157q-49 0 -78 10t-44.5 37.5t-15.5 74.5z" />
<glyph horiz-adv-x="198" d="M78 0v570h57v-570h-57zM70 669v57q0 21 20 21h37q19 0 19 -21v-57q0 -19 -19 -19h-37q-9 0 -14.5 5.5t-5.5 13.5z" />
<glyph horiz-adv-x="269" d="M100 284v41q0 21 19 21h40q20 0 20 -21v-41q0 -20 -20 -20h-40q-8 0 -13.5 5.5t-5.5 14.5z" />
<glyph horiz-adv-x="315" d="M95 291v63q0 35 33 35h57q35 0 35 -35v-63q0 -32 -35 -32h-57q-10 0 -17.5 4t-11.5 11.5t-4 16.5z" />
<glyph horiz-adv-x="242" d="M74 394v107q0 26 9 43.5t22.5 23.5t26.5 8t23 1l9 -1v-28q-32 1 -32 -31v-33h12q24 0 24 -25v-65q0 -27 -24 -27h-45q-25 0 -25 27z" />
<glyph horiz-adv-x="242" d="M74 485v65q0 27 25 27h45q24 0 24 -27v-108q0 -26 -9 -43t-22 -23t-26.5 -8.5t-22.5 -1.5l-9 2v27q31 -1 31 31v34h-11q-11 0 -18 6t-7 19z" />
<glyph horiz-adv-x="547" d="M245 650v57q0 21 20 21h36q20 0 20 -21v-57q0 -19 -20 -19h-36q-6 0 -10.5 2.5t-7 7t-2.5 9.5zM90 0v571h253q45 0 76.5 -14t47.5 -37t23 -48t7 -52q0 -55 -20.5 -84t-54.5 -45q27 -9 52.5 -42.5t25.5 -88.5q0 -160 -157 -160h-253zM147 58h196q20 0 34.5 3t31 12.5 t25.5 31.5t9 55q0 48 -26 77t-74 29q-173 -1 -196 0v-208zM147 323h196q49 0 73 23t24 74q0 94 -97 94h-196v-191z" />
<glyph horiz-adv-x="606" d="M249 651v57q0 21 20 21h37q19 0 19 -21v-57q0 -19 -19 -19h-37q-6 0 -10.5 2.5t-7 7t-2.5 9.5zM90 0v572h240q50 -1 89.5 -19.5t63.5 -47.5t39 -68t21 -76.5t6 -77.5q0 -58 -9.5 -104.5t-23 -75.5t-35.5 -50t-39.5 -31t-42.5 -15.5t-37.5 -6t-31.5 -0.5h-240zM147 57h183 q47 0 79.5 17.5t50 50t25 71t7.5 87.5q0 118 -45.5 175t-116.5 57h-183v-458z" />
<glyph horiz-adv-x="520" d="M251 651v57q0 20 19 20h37q19 0 19 -20v-57q0 -19 -19 -19h-37q-8 0 -13.5 5t-5.5 14zM90 0v481q0 44 27.5 67t76.5 23l280 -11v-45h-278q-30 0 -39 -11t-10 -33v-158l296 -8v-45l-296 -6v-254h-57z" />
<glyph horiz-adv-x="735" d="M343 650v57q0 21 20 21h37q19 0 19 -21v-57q0 -19 -19 -19h-37q-9 0 -14.5 5.5t-5.5 13.5zM61 0l61 571h67l183 -474l184 474h64l58 -571h-55l-47 464l-179 -464h-47l-181 468l-54 -468h-54z" />
<glyph horiz-adv-x="842" d="M268 764h72l112 -133h-51zM39 570h63l181 -485l173 485h62l-65 -186l118 -299l176 485h59l-207 -570h-57l-119 306l-109 -306h-59z" />
<glyph horiz-adv-x="530" d="M235 648v57q0 21 20 21h37q19 0 19 -21v-57q0 -19 -19 -19h-37q-6 0 -10.5 2.5t-7 7t-2.5 9.5zM67 0v569h264q28 0 53.5 -8.5t48.5 -26.5t36.5 -50t13.5 -74q0 -36 -5.5 -64.5t-13.5 -47t-22 -31.5t-25.5 -20t-29.5 -10.5t-29.5 -4t-28.5 -0.5l-204 11v-243h-58zM125 288 h206q23 0 37.5 3.5t29 14.5t21.5 35.5t7 62.5q2 54 -26 81t-69 27h-206v-224z" />
<glyph horiz-adv-x="842" d="M401 631l112 133h72l-133 -133h-51zM39 570h63l181 -485l173 485h62l-65 -186l118 -299l176 485h59l-207 -570h-57l-119 306l-109 -306h-59z" />
<glyph horiz-adv-x="564" d="M129 763h72l111 -133h-50zM39 570h63l183 -320l180 320h63l-215 -380v-191h-57v191z" />
<glyph horiz-adv-x="842" d="M259 670.5q0 16.5 11.5 27.5t28 11t28 -11t11.5 -27.5t-11.5 -28t-27.5 -11.5t-28 11.5t-12 28zM514 670q0 11 5.5 20t14.5 14t20 5q16 0 27.5 -11t11.5 -27.5t-11.5 -28t-28 -11.5t-28 11.5t-11.5 27.5zM39 570h63l181 -485l173 485h62l-65 -186l118 -299l176 485h59 l-207 -570h-57l-119 306l-109 -306h-59z" />
<glyph horiz-adv-x="543" d="M229 652v57q0 21 20 21h37q19 0 19 -21v-57q0 -19 -19 -19h-37q-6 0 -10.5 2.5t-7 7t-2.5 9.5zM61 374v62q0 137 138 137q26 0 74.5 -2.5t101 -7t84.5 -8.5v-43q-162 5 -260 5q-81 0 -81 -81v-62q0 -14 2.5 -25t5 -18t10 -11.5t11 -6.5t16 -3t16.5 -1.5t20 -0.5h157 q64 0 97 -31.5t33 -88.5v-70q0 -39 -12 -66t-33 -39.5t-41 -17.5t-44 -5q-51 0 -149.5 6t-123.5 14v41q177 -4 273 -4q36 0 54.5 25.5t18.5 45.5v70q0 33 -17 48.5t-56 15.5h-157q-49 0 -78 10t-44.5 37.5t-15.5 74.5z" />
<glyph horiz-adv-x="842" d="M284 631l122 130h54l109 -130h-53l-85 86l-93 -86h-54zM39 570h63l181 -485l173 485h62l-65 -186l118 -299l176 485h59l-207 -570h-57l-119 306l-109 -306h-59z" />
<glyph horiz-adv-x="524" d="M225 649v57q0 21 20 21h37q19 0 19 -21v-57q0 -19 -19 -19h-37q-6 0 -10.5 2.5t-7 7t-2.5 9.5zM39 513v57h449v-57h-196v-513h-57v513h-196z" />
<glyph horiz-adv-x="564" d="M141 630l122 130h54l109 -130h-53l-85 86l-93 -86h-54zM39 570h63l183 -320l180 320h63l-215 -380v-191h-57v191z" />
<glyph horiz-adv-x="1005" d="M45 266q0 68 8.5 117t23 78.5t38 47t47.5 23t58 5.5q80 0 218 -27v-40q-129 10 -218 10q-24 0 -40 -3.5t-32 -16t-25.5 -36t-15 -64t-5.5 -98.5q0 -50 8 -87.5t21 -61t33.5 -37.5t43.5 -19.5t51 -5.5q109 0 315 190v541h57v-491l268 241l81 -1l-253 -230l255 -301h-70 l-227 264l-54 -50v-214h-57v164q-99 -87 -175.5 -129t-139.5 -41q-33 0 -60.5 5.5t-57 23t-50 46.5t-33.5 79.5t-13 117.5z" />
<glyph horiz-adv-x="683" d="M90 0v652q0 36 20.5 59t48 26.5t55.5 -11.5t41 -46l254 -605q6 -17 19.5 -21t24.5 4.5t11 24.5v649h57v-653q0 -32 -20.5 -55t-47 -29t-54.5 7.5t-41 47.5l-256 609q-6 15 -19.5 19t-24.5 -5t-11 -26v-647h-57z" />
<glyph horiz-adv-x="803" d="M61 0l40 652q0 36 21.5 59.5t49 27t54.5 -11.5t37 -47l123 -410q6 -20 19.5 -19t18.5 19l111 411q9 32 36 47t54.5 11t49 -27t22.5 -59l49 -653h-57l-50 651q-1 12 -8 20t-15 9t-16.5 -4t-11.5 -16l-110 -410q-7 -26 -27.5 -40.5t-43.5 -14.5t-44.5 14t-29.5 41l-124 409 q-7 24 -27.5 20t-22.5 -28l-42 -651h-56z" />
<glyph horiz-adv-x="803" d="M374 819v57q0 20 20 20h37q19 0 19 -20v-57q0 -19 -19 -19h-37q-9 0 -14.5 5t-5.5 14zM61 0l40 652q0 36 21.5 59.5t49 27t54.5 -11.5t37 -47l123 -410q6 -20 19.5 -19t18.5 19l111 411q9 32 36 47t54.5 11t49 -27t22.5 -59l49 -653h-57l-50 651q-1 16 -12 24t-23 4 t-16 -19l-110 -410q-4 -13 -11 -23.5t-16.5 -17t-21 -10.5t-23 -4t-23 3.5t-21 10t-17.5 17t-12 24.5l-124 409q-7 24 -27.5 20t-22.5 -28l-42 -651h-56z" />
<glyph horiz-adv-x="683" d="M197 838q25 21 38.5 31.5t35 20.5t40.5 10q16 -1 33.5 -8.5t30 -16t26.5 -16t23 -7.5q7 0 13.5 1t14 4t13 5.5t14.5 7.5t13 7.5t14 8.5t13 8l16 -30q-3 -3 -14 -12.5t-15.5 -13t-14.5 -11.5t-16.5 -11t-16 -7.5t-18 -6t-17.5 -1.5q-17 1 -34 8.5t-28.5 16t-25.5 16 t-25 6.5q-19 0 -33.5 -5t-34.5 -17.5t-30 -17.5zM90 0v652q0 36 20.5 59t48 26.5t55.5 -11.5t41 -46l254 -605q6 -17 19.5 -21t24.5 4.5t11 24.5v649h57v-653q0 -32 -20.5 -55t-47 -29t-54.5 7.5t-41 47.5l-256 609q-6 15 -19.5 19t-24.5 -5t-11 -26v-647h-57z" />
<glyph horiz-adv-x="683" d="M349 797l112 133h71l-133 -133h-50zM90 0v652q0 36 20.5 59t48 26.5t55.5 -11.5t41 -46l254 -605q6 -17 19.5 -21t24.5 4.5t11 24.5v649h57v-653q0 -32 -20.5 -55t-47 -29t-54.5 7.5t-41 47.5l-256 609q-6 15 -19.5 19t-24.5 -5t-11 -26v-647h-57z" />
<glyph horiz-adv-x="683" d="M229 927h53l91 -86l88 86h53l-113 -130h-55zM90 0v652q0 36 20.5 59t48 26.5t55.5 -11.5t41 -46l254 -605q6 -17 19.5 -21t24.5 4.5t11 24.5v649h57v-653q0 -32 -20.5 -55t-47 -29t-54.5 7.5t-41 47.5l-256 609q-6 15 -19.5 19t-24.5 -5t-11 -26v-647h-57z" />
<glyph horiz-adv-x="683" d="M305 -143v51q0 20 19 20h33q18 0 18 -20v-87q0 -20 -7 -32.5t-16.5 -17t-19 -6t-16.5 -1.5l-7 1v21q23 0 23 23v30h-8q-19 0 -19 18zM90 0v652q0 36 20.5 59t48 26.5t55.5 -11.5t41 -46l254 -605q6 -17 19.5 -21t24.5 4.5t11 24.5v649h57v-653q0 -32 -20.5 -55t-47 -29 t-54.5 7.5t-41 47.5l-256 609q-6 15 -19.5 19t-24.5 -5t-11 -26v-647h-57z" />
<glyph horiz-adv-x="482" d="M67 365v255q0 60 30 85t87 25h117q113 0 113 -110v-255q0 -66 -28.5 -88t-84.5 -22h-117q-26 0 -43.5 3.5t-36 14t-28 33.5t-9.5 59zM115 369q0 -40 15.5 -53.5t57.5 -13.5h109q44 0 57.5 15t13.5 52v247q0 35 -15 51t-56 16h-109q-42 0 -57.5 -16t-15.5 -51v-247z" />
<glyph horiz-adv-x="265" d="M18 642v35l128 55h47v-476h-47v424z" />
<glyph horiz-adv-x="395" d="M35 691q-1 0 -1 9t0.5 17.5l0.5 8.5q102 12 183 12q130 0 130 -136q0 -118 -216 -293q-5 -4 -7 -6h222v-47h-309v43q8 6 35.5 27.5t46.5 37t48.5 41t49.5 47.5t40 48t30.5 51t10.5 48q0 47 -19.5 69.5t-70.5 22.5h-174z" />
<glyph horiz-adv-x="416" d="M33 687v31q9 3 18 5t20 3.5t19 3t22 2t21 1t23.5 0.5h22.5h25.5h24.5q61 0 91 -32.5t30 -82.5v-35q0 -34 -19.5 -58t-41.5 -31q61 -30 61 -95v-28q0 -28 -6 -49t-20 -37t-39 -24.5t-62 -8.5h-54.5t-44 1.5t-48.5 5t-39 9.5l1 30l177 1q48 0 67.5 17t19.5 59v23 q0 38 -24 56.5t-59 19.5l-142 5v34l142 6q39 2 62 20.5t23 50.5v26q0 71 -82 71h-189z" />
<glyph horiz-adv-x="414" d="M18 411l202 319h54l-182 -289h200v121l21 48h26v-169h59v-37l-59 -12v-136h-47v136h-258z" />
<glyph horiz-adv-x="430" d="M61 263v36h211q66 0 66 70v56q0 16 -1 25t-6.5 21t-20 18t-36.5 6h-113q-25 0 -42 -15.5t-17 -41.5h-41l15 292h295v-47h-251l-9 -170q8 11 22.5 18t35.5 9.5t35.5 3t40 -0.5t31.5 -1q109 0 109 -113v-64q0 -40 -14 -66t-38 -37t-57 -11q-147 0 -215 12z" />
<glyph horiz-adv-x="450" d="M61 506q1 57 8 99t17.5 66t27.5 39t32.5 20t37.5 6q101 5 205 -10v-37h-203q-19 0 -33.5 -11t-22.5 -27.5t-13 -41t-6.5 -45.5t-2.5 -48q107 11 192 11q61 0 83 -24.5t22 -68.5v-73q0 -52 -28.5 -78.5t-76.5 -26.5h-107q-23 0 -41.5 5t-36.5 21.5t-29.5 43t-18 72.5 t-6.5 108zM108 480q0 -34 4 -63t12.5 -56t25.5 -42.5t41 -15.5h106q61 0 61 63v65q0 30 -14.5 39.5t-46.5 9.5h-189z" />
<glyph horiz-adv-x="370" d="M17 685v47h321l15 -26l-182 -450h-53l175 429h-276z" />
<glyph horiz-adv-x="480" d="M74 358v58q0 32 18.5 50t42.5 23q-17 5 -29 14.5t-19 22t-10 25.5t-3 27v40q0 65 30.5 91t85.5 26h110q54 0 81 -27t27 -90v-40q1 -23 -12 -47t-44 -30q24 -4 40 -30.5t16 -54.5v-58q0 -104 -105 -104h-120q-63 0 -86 28t-23 76zM121 362q0 -22 6 -35t20 -19t40 -6h112 q20 0 33 5.5t21 19t8 35.5v50q0 30 -17 45t-41 15h-118q-30 0 -47 -15t-17 -44v-51zM121 582q0 -22 9 -36.5t22 -20t29 -5.5h118q32 0 47 17.5t15 44.5v32q0 43 -16.5 58.5t-53.5 15.5h-97q-27 0 -42.5 -6.5t-23 -22.5t-7.5 -45v-32z" />
<glyph horiz-adv-x="450" d="M50 558v73q0 52 29 78.5t76 26.5h107q24 0 42 -5.5t36 -21.5t29.5 -43t18.5 -72.5t6 -107.5q0 -57 -7 -99t-17.5 -66t-27 -39t-32.5 -20t-38 -6q-122 -7 -206 10v37h203q24 0 40.5 15t24 43t10.5 54.5t3 60.5q-106 -12 -192 -12q-60 0 -82.5 25t-22.5 69zM97 561 q0 -30 14.5 -39.5t46.5 -9.5h189q0 177 -81 177h-108q-61 0 -61 -63v-65z" />
<glyph horiz-adv-x="482" d="M67 110v255q0 60 30 85t87 25h117q113 0 113 -110v-255q0 -66 -28.5 -88t-84.5 -22h-117q-26 0 -43.5 3.5t-36 14t-28 33.5t-9.5 59zM115 114q0 -40 15.5 -53.5t57.5 -13.5h109q44 0 57.5 15t13.5 52v247q0 35 -15 51t-56 16h-109q-42 0 -57.5 -16t-15.5 -51v-247z" />
<glyph horiz-adv-x="265" d="M18 387v35l128 55h47v-476h-47v424z" />
<glyph horiz-adv-x="395" d="M35 436q-1 0 -1 9t0.5 17.5l0.5 8.5q102 12 183 12q130 0 130 -136q0 -118 -216 -293q-5 -4 -7 -6h222v-47h-309v43q5 4 42 32.5t57 45.5t55.5 50t55 58t35.5 56.5t16 57.5q0 47 -19.5 69.5t-70.5 22.5h-174z" />
<glyph horiz-adv-x="416" d="M33 432v31q9 3 18 5t20 3.5t19 3t22 2t21 1t23.5 0.5h22.5h25.5h24.5q31 0 55 -9.5t38 -25.5t21 -36t7 -44v-35q0 -34 -19.5 -58t-41.5 -31q61 -30 61 -95v-28q0 -58 -28.5 -88.5t-98.5 -30.5q-50 0 -72 0.5t-55.5 4t-58.5 11.5l1 30l177 1q48 0 67.5 17t19.5 59v23 q0 38 -24 56.5t-59 19.5l-142 5v34l142 6q39 2 62 20.5t23 50.5v26q0 71 -82 71h-189z" />
<glyph horiz-adv-x="414" d="M18 156l202 319h54l-182 -289h200v121l21 48h26v-169h59v-37l-59 -12v-136h-47v136h-258z" />
<glyph horiz-adv-x="430" d="M61 8v36h211q66 0 66 70v56q0 16 -1 25t-6.5 21t-20 18t-36.5 6h-113q-25 0 -42 -15.5t-17 -41.5h-41l15 292h295v-47h-251l-9 -170q8 11 22.5 18t35.5 9.5t35.5 3t40 -0.5t31.5 -1q109 0 109 -113v-64q0 -40 -14 -66t-38 -37t-57 -11q-147 0 -215 12z" />
<glyph horiz-adv-x="450" d="M61 251q1 57 8 99t17.5 66t27.5 39t32.5 20t37.5 6q115 5 205 -10v-37h-203q-16 0 -29 -7.5t-21 -21t-13.5 -29t-8.5 -36.5t-4.5 -39t-1.5 -40q107 11 192 11q61 0 83 -24.5t22 -68.5v-73q0 -52 -28.5 -78.5t-76.5 -26.5h-107q-23 0 -41.5 5t-36.5 21.5t-29.5 43 t-18 72.5t-6.5 108zM108 225q0 -34 4 -63t12.5 -56t25.5 -42.5t41 -15.5h106q61 0 61 63v65q0 20 -8 31.5t-20 14.5t-33 3h-189z" />
<glyph horiz-adv-x="370" d="M17 430v47h321l15 -26l-182 -450h-53l175 429h-276z" />
<glyph horiz-adv-x="480" d="M74 103v58q0 32 18.5 50t42.5 23q-32 9 -46.5 34t-14.5 55v40q0 65 30.5 91t85.5 26h110q54 0 81 -27t27 -90v-40q1 -23 -12 -47t-44 -30q24 -4 40 -30.5t16 -54.5v-58q0 -104 -105 -104h-120q-63 0 -86 28t-23 76zM121 107q0 -33 14 -46.5t52 -13.5h112q20 0 33 5.5 t21 19t8 35.5v50q0 30 -17 45t-41 15h-118q-30 0 -47 -15t-17 -44v-51zM121 327q0 -22 9 -36.5t22 -20t29 -5.5h118q32 0 47 17.5t15 44.5v32q0 43 -16.5 58.5t-53.5 15.5h-97q-21 0 -34 -3.5t-22 -12t-13 -22.5t-4 -36v-32z" />
<glyph horiz-adv-x="450" d="M50 303v73q0 52 29 78.5t76 26.5h107q24 0 42 -5.5t36 -21.5t29.5 -43t18.5 -72.5t6 -107.5q0 -48 -4.5 -85t-13 -61.5t-19 -41t-25 -25t-28 -12.5t-32.5 -5q-120 -7 -206 10v37h203q24 0 40.5 15t24 43t10.5 54.5t3 60.5q-106 -12 -192 -12q-60 0 -82.5 25t-22.5 69z M97 306q0 -30 14.5 -39.5t46.5 -9.5h189q0 177 -81 177h-108q-61 0 -61 -63v-65z" />
<glyph horiz-adv-x="1045" d="M45 266q0 68 8.5 117t23 78.5t38 47t47.5 23t58 5.5q80 0 218 -27v-40q-129 10 -218 10q-24 0 -40 -3.5t-32 -16t-25.5 -36t-15 -64t-5.5 -98.5q0 -83 14 -130.5t38.5 -64t65.5 -16.5q20 0 59 -1h89.5t79 8t62.5 23.5t41 46.5t15 78v578h57v-315q37 23 61 35t63.5 24 t78.5 12q75 0 119.5 -50t44.5 -120v-370h-58v370q0 54 -29 83.5t-77 29.5q-42 0 -79.5 -9t-59 -18t-64.5 -31v-219q0 -52 -13.5 -90t-37 -60t-55.5 -36.5t-68.5 -18.5t-76 -6.5t-78 -0.5t-74.5 0q-33 0 -57.5 5.5t-47.5 23t-37.5 47t-23.5 79t-9 117.5z" />
<glyph horiz-adv-x="898" d="M67 0v483q89 35 136 46t124 11q72 0 116 -46q48 19 81 28t69.5 13.5t85.5 4.5q76 0 120 -50t44 -120v-370h-57v370q0 35 -13.5 60.5t-37.5 39t-56 13.5q-56 0 -99.5 -7.5t-105.5 -30.5q17 -33 17 -75v-370h-57v370q0 52 -29.5 82.5t-77.5 30.5q-56 0 -97.5 -7.5 t-105.5 -31.5v-444h-57z" />
<glyph d="M67 0v483q89 35 136 46t124 11q51 0 89 -24.5t56.5 -62.5t18.5 -83v-370h-57v370q0 52 -29.5 82.5t-77.5 30.5q-56 0 -97.5 -7.5t-105.5 -31.5v-444h-57z" />
<glyph d="M110 638q25 21 38.5 31t35 20.5t40.5 10.5q25 -2 63 -25t50 -23q6 0 12.5 1t14.5 4t13.5 5t14.5 7.5t13 8t14 8.5t12 7l17 -30q-3 -2 -14 -11.5t-15.5 -13t-15 -11.5t-16.5 -11.5t-15.5 -7.5t-18 -6t-17.5 -1q-27 1 -62 24t-51 23q-19 0 -33.5 -5.5t-34.5 -17.5t-30 -17z M67 0v483q89 35 136 46t124 11q51 0 89 -24.5t56.5 -62.5t18.5 -83v-370h-57v370q0 52 -29.5 82.5t-77.5 30.5q-38 0 -65.5 -3t-60.5 -11t-77 -25v-444h-57z" />
<glyph d="M241 -136v51q0 20 18 20h33q18 0 18 -20v-88q0 -19 -6.5 -31.5t-16.5 -17t-19.5 -6.5t-16.5 -1l-7 1v21q23 -1 23 23v29h-8q-18 0 -18 19zM67 0v483q89 35 136 46t124 11q51 0 89 -24.5t56.5 -62.5t18.5 -83v-370h-57v370q0 52 -29.5 82.5t-77.5 30.5q-38 0 -65.5 -3 t-60.5 -11t-77 -25v-444h-57z" />
<glyph d="M134 730h53l92 -86l88 86h53l-114 -130h-54zM67 0v483q89 35 136 46t124 11q51 0 89 -24.5t56.5 -62.5t18.5 -83v-370h-57v370q0 52 -29.5 82.5t-77.5 30.5q-38 0 -65.5 -3t-60.5 -11t-77 -25v-444h-57z" />
<glyph d="M260 600l112 133h71l-133 -133h-50zM67 0v483q89 35 136 46t124 11q51 0 89 -24.5t56.5 -62.5t18.5 -83v-370h-57v370q0 52 -29.5 82.5t-77.5 30.5q-38 0 -65.5 -3t-60.5 -11t-77 -25v-444h-57z" />
<glyph horiz-adv-x="898" d="M430 619v57q0 21 20 21h37q19 0 19 -21v-57q0 -19 -19 -19h-37q-6 0 -10.5 2.5t-7 7t-2.5 9.5zM67 0v483q89 35 136 46t124 11q72 0 116 -46q70 27 117 36.5t119 9.5q51 0 89 -24.5t56.5 -62.5t18.5 -83v-370h-57v370q0 35 -13.5 60.5t-37.5 39t-56 13.5 q-56 0 -99.5 -7.5t-105.5 -30.5q17 -33 17 -75v-370h-57v370q0 52 -29.5 82.5t-77.5 30.5q-38 0 -65.5 -3t-60.5 -11t-77 -25v-444h-57z" />
<glyph horiz-adv-x="428" d="M67 0v483q91 38 158.5 51.5t179.5 3.5v-58q-77 8 -142.5 0t-138.5 -36v-444h-57z" />
</font>
</defs>
</svg>
