<?xml version="1.0" standalone="no"?>
<!DOCTYPE svg PUBLIC "-//W3C//DTD SVG 1.1//EN" "http://www.w3.org/Graphics/SVG/1.1/DTD/svg11.dtd" >
<svg xmlns="http://www.w3.org/2000/svg">
<metadata></metadata>
<defs>
<font id="exodemibold" horiz-adv-x="547" >
<font-face units-per-em="1000" ascent="800" descent="-200" />
<missing-glyph horiz-adv-x="250" />
<glyph unicode="fi" horiz-adv-x="620" d="M17 436v78l89 17v45q0 90 57 149.5t153 60.5q40 0 112.5 -9.5t104.5 -20.5v-71l-180 7q-24 1 -45.5 -3.5t-42 -16.5t-32 -37.5t-11.5 -62.5v-41l352 -10v-521h-117v436h-235v-436h-116v436h-89z" />
<glyph unicode="fl" horiz-adv-x="720" d="M17 436v78l89 17v48q0 101 47.5 154t137.5 53l287 -1v-582q0 -57 11 -77.5t39 -30.5q68 -21 75 -21v-74h-105q-72 0 -104 42.5t-32 146.5v503h-148q-47 0 -69.5 -24t-22.5 -89v-48h130v-95h-131v-436h-116v436h-88z" />
<glyph unicode="&#xd;" horiz-adv-x="846" />
<glyph unicode=" "  horiz-adv-x="250" />
<glyph unicode="&#x09;" horiz-adv-x="250" />
<glyph unicode="&#xa0;" horiz-adv-x="250" />
<glyph unicode="!" horiz-adv-x="271" d="M72 23v78q0 25 24 25h76q11 0 17 -7t6 -18v-78q0 -23 -23 -23h-76q-10 0 -17 6.5t-7 16.5zM73 731h123l-12 -535h-100z" />
<glyph unicode="&#x22;" horiz-adv-x="420" d="M72 665v67h113v-67l-10 -134h-92zM236 665v67h113v-67l-10 -134h-92z" />
<glyph unicode="#" horiz-adv-x="708" d="M17 218l12 80h155l22 137h-155l13 80h157l37 217h80l-37 -217h138l36 217h80l-36 -217h174l-13 -80h-174l-22 -138h174l-12 -80h-178l-37 -217h-80l37 217l-139 1l-37 -218h-80l37 218h-152zM264 298l140 -1l22 138h-140z" />
<glyph unicode="$" horiz-adv-x="571" d="M47 489v64q0 52 14.5 88.5t42 56.5t60.5 29.5t76 10.5v86h76v-88q89 -6 183 -25v-91q-210 10 -230 10q-55 1 -80.5 -15t-25.5 -69v-47q0 -44 23 -62t65 -18h107q168 0 168 -186v-56q0 -55 -18 -93.5t-49 -58t-66 -27t-77 -6.5v-82h-76v85q-97 7 -170 25v89q9 -1 30 -2 t43.5 -2t49.5 -2t56.5 -1.5t55.5 -0.5q105 0 105 73v50q0 25 -6 41.5t-22.5 27t-44.5 10.5h-105q-47 0 -82 13t-54 32.5t-30.5 46t-15 48.5t-3.5 46z" />
<glyph unicode="%" horiz-adv-x="959" d="M36 478v126q0 66 29.5 97t102.5 31h101q72 0 101.5 -31t29.5 -97v-126q0 -33 -6.5 -56.5t-22 -40t-41 -24.5t-63.5 -8h-101q-71 0 -100.5 31t-29.5 98zM122 488q0 -30 11 -41.5t42 -11.5h83q36 0 46 11.5t10 41.5v105q0 32 -11.5 42.5t-42.5 10.5h-83q-23 0 -34.5 -5 t-16 -16t-4.5 -32v-105zM215 0l443 732h90l-441 -732h-92zM560 131v126q0 66 29.5 97t102.5 31h102q48 0 77 -14.5t41 -42t12 -71.5v-126q0 -67 -29.5 -98t-102.5 -31h-102q-71 0 -100.5 31.5t-29.5 97.5zM646 141q0 -30 11 -41.5t42 -11.5h84q35 0 45 11.5t10 41.5v105 q0 32 -11.5 42.5t-41.5 10.5h-84q-23 0 -34.5 -4.5t-16 -15.5t-4.5 -33v-105z" />
<glyph unicode="&#x26;" horiz-adv-x="664" d="M70 82q-52 75 -39 151.5t80 134.5l76 65l-56 78q-38 55 -32 102t37 79.5t71 37.5q42 5 81 5.5t74.5 -4t59.5 -9t58 -12.5v-83h-178q-62 0 -73 -24.5t30 -81.5l193 -263l119 116l39 -47l-56 -107l-39 -44l129 -176h-136l-75 102l-68 -62q-37 -33 -91.5 -42.5t-111.5 12 t-92 72.5zM166 147q16 -21 39.5 -33t51 -9.5t49.5 23.5l61 58l-121 161l-61 -52q-81 -69 -19 -148z" />
<glyph unicode="'" horiz-adv-x="209" d="M47 665v67h117v-67l-10 -134h-96z" />
<glyph unicode="(" horiz-adv-x="362" d="M63 326q0 86 17.5 172.5t42.5 148.5t50 112t42 76l18 25h112q-6 -10 -17.5 -29t-40 -78t-50.5 -119t-40 -145t-18 -163q0 -62 9.5 -125.5t24 -114.5t32 -98.5t35.5 -83t32.5 -61.5t23.5 -40l9 -13h-112q-7 8 -18.5 23t-40.5 66.5t-51.5 109t-41 149.5t-18.5 188z" />
<glyph unicode=")" horiz-adv-x="362" d="M17 -210q7 9 18 26.5t39.5 74t50.5 115.5t40 146.5t18 173.5q0 78 -17 161.5t-41.5 147.5t-49 116.5t-41.5 80.5l-17 28h112q7 -9 18.5 -26.5t41 -73t51.5 -114.5t40.5 -146.5t18.5 -173.5q0 -96 -17.5 -187t-42.5 -151.5t-50 -107t-42 -68.5l-18 -22h-112z" />
<glyph unicode="*" horiz-adv-x="432" d="M42 566v50l139 26l5 -81zM103 415l25 136l78 -19l-55 -132zM169 719l49 18l70 -121l-75 -32zM197 470l44 68l112 -90l-29 -41zM244 571l119 78l27 -43l-95 -97z" />
<glyph unicode="+" horiz-adv-x="495" d="M40 305v102h156v157h102v-157h158v-102h-158v-157h-102v157h-156z" />
<glyph unicode="," horiz-adv-x="264" d="M72 25v75q0 27 25 27h72q24 0 24 -27v-111q0 -29 -12 -48t-29 -24.5t-34 -7.5t-29 1l-12 2v42q14 0 21.5 5t8.5 10t1 13v18h-11q-11 0 -18 6.5t-7 18.5z" />
<glyph unicode="-" horiz-adv-x="354" d="M20 239v102h314v-102h-314z" />
<glyph unicode="." horiz-adv-x="266" d="M72 23v78q0 25 24 25h74q25 0 25 -25v-78q0 -23 -25 -23h-74q-11 0 -17.5 6.5t-6.5 16.5z" />
<glyph unicode="/" horiz-adv-x="435" d="M17 -72l281 842h121l-281 -842h-121z" />
<glyph unicode="0" horiz-adv-x="635" d="M59 172v384q0 85 49 130.5t131 45.5h164q91 0 132 -48t41 -124v-388q0 -86 -45.5 -129t-127.5 -43h-164q-83 0 -131.5 43t-48.5 129zM175 187q0 -43 24.5 -60.5t59.5 -17.5h121q80 0 80 77v360q0 77 -77 77h-127q-43 0 -62 -23t-19 -54v-359z" />
<glyph unicode="1" horiz-adv-x="367" d="M34 571v77l151 84h115v-732h-116v613z" />
<glyph unicode="2" horiz-adv-x="591" d="M34 632v86q151 24 304 24q54 0 95.5 -18t66.5 -49t37 -70t12 -83q0 -32 -10 -66t-28 -66t-39.5 -62.5t-49 -59.5t-51.5 -52t-51 -46t-43 -35.5t-33 -25.5h305v-109h-508v103q29 20 63.5 45.5t81.5 62.5t88.5 76.5t78 80.5t58.5 81.5t22 72.5q0 110 -124 110h-275z" />
<glyph unicode="3" horiz-adv-x="587" d="M25 625v81q42 15 97 21.5t109 7t116 -0.5q82 -1 129.5 -48t47.5 -124v-58q0 -112 -72 -140q72 -35 72 -147v-49q0 -85 -46.5 -130t-137.5 -45h-36.5h-39t-34.5 0.5t-37.5 1t-33 2t-35 3.5t-31 5t-33 7t-29.5 9l1 82h270q55 0 80 14t25 63v42q0 32 -13.5 51.5t-33.5 26.5 t-52 8l-215 8v92l215 10q53 3 77 22t24 60v48q0 77 -101 77h-283z" />
<glyph unicode="4" horiz-adv-x="614" d="M17 224l282 508h130l-246 -450h219v182l33 76h83v-258h79v-90l-79 -22v-168h-116v168h-351z" />
<glyph unicode="5" horiz-adv-x="599" d="M64 20v90h290q80 0 80 79v82q0 9 -0.5 15.5t-2.5 15t-5 15t-8.5 13.5t-13 11t-19.5 7t-27 3h-115q-30 0 -49.5 -16t-19.5 -49h-108l22 446h436v-109h-326l-9 -193q23 21 71 26q20 3 43.5 3t50 -1t30.5 -2q57 -1 95 -24.5t54.5 -61.5t16.5 -90v-107q0 -39 -11.5 -70.5 t-29.5 -51t-42 -32.5t-47.5 -18t-47.5 -5q-102 0 -157.5 4t-150.5 20z" />
<glyph unicode="6" horiz-adv-x="613" d="M55 384q0 95 14.5 165.5t40 109t54.5 57t63 20.5q144 8 313 -19v-88h-265q-100 0 -104 -211q109 20 225 20q40 0 70.5 -8.5t49 -22.5t29.5 -36t15 -44.5t4 -50.5v-118q0 -159 -172 -159h-145q-36 0 -63.5 10t-52.5 35.5t-41 68t-25.5 111t-9.5 160.5zM171 333 q0 -24 1 -43.5t3 -44t6.5 -42.5t12 -37t18 -31t26.5 -19.5t35 -7.5h103q37 0 54.5 13.5t17.5 55.5v88q0 39 -17.5 53.5t-52.5 14.5h-207z" />
<glyph unicode="7" horiz-adv-x="551" d="M25 623v109h467l34 -58l-252 -674h-130l237 623h-356z" />
<glyph unicode="8" horiz-adv-x="628" d="M63 163v82q0 90 82 110q-82 33 -82 144v65q0 49 14 84t40 54t57 27t72 8h150q85 0 127 -41t42 -132v-58q0 -9 -1 -20t-5.5 -27t-12 -29.5t-22 -24.5t-34.5 -15q27 -5 45.5 -30.5t24 -52.5t5.5 -52v-90q0 -165 -170 -165h-149q-36 0 -65.5 6.5t-48.5 16.5t-32.5 25.5 t-20.5 29t-10.5 31.5t-4.5 29t-1 25zM179 172q0 -34 19.5 -50.5t63.5 -16.5h113q33 0 53.5 17t20.5 50v82q0 34 -19.5 51.5t-52.5 17.5h-122q-76 0 -76 -69v-82zM179 494q0 -39 22.5 -54.5t53.5 -15.5h122q22 0 37 6t22.5 16.5t10 21.5t2.5 26v55q0 31 -9 50t-24.5 25.5 t-40.5 6.5h-113q-44 0 -63.5 -15t-19.5 -67v-55z" />
<glyph unicode="9" horiz-adv-x="613" d="M51 460v117q0 159 171 159h146q36 0 63.5 -9.5t52.5 -35.5t41 -68.5t25 -110.5t9 -161q0 -95 -14.5 -165t-39.5 -109t-54 -57.5t-64 -20.5q-172 -10 -312 20v87h264q101 0 104 212q-109 -21 -224 -21q-51 0 -85 12.5t-51.5 36t-24.5 50.5t-7 64zM166 470q0 -38 18 -53 t53 -15h206q0 29 -1 51.5t-4 50.5t-10 48t-18 38t-28.5 27.5t-40.5 9.5h-103q-37 0 -54.5 -13.5t-17.5 -55.5v-88z" />
<glyph unicode=":" horiz-adv-x="266" d="M72 23v78q0 25 24 25h74q25 0 25 -25v-78q0 -23 -25 -23h-74q-11 0 -17.5 6.5t-6.5 16.5zM72 429v78q0 25 24 25h74q25 0 25 -25v-78q0 -23 -25 -23h-74q-7 0 -12.5 2.5t-8.5 8t-3 12.5z" />
<glyph unicode=";" horiz-adv-x="268" d="M72 25v75q0 12 7 19.5t18 7.5h72q8 0 13.5 -3.5t8 -9.5t2.5 -14v-111q0 -29 -12 -48t-29 -24.5t-34 -7.5t-29 1l-12 2v42q14 0 21.5 5t8.5 10t1 13v18h-11q-10 0 -17.5 7.5t-7.5 17.5zM73 429v78q0 25 24 25h74q25 0 25 -25v-78q0 -23 -25 -23h-74q-7 0 -12 3t-8.5 8 t-3.5 12z" />
<glyph unicode="&#x3c;" horiz-adv-x="459" d="M42 297v112l375 150v-111l-244 -94l244 -105v-113z" />
<glyph unicode="=" horiz-adv-x="467" d="M20 194v102h427v-102h-427zM20 407v102h427v-102h-427z" />
<glyph unicode="&#x3e;" horiz-adv-x="459" d="M42 136v113l244 105l-244 94v112l375 -151v-112z" />
<glyph unicode="?" horiz-adv-x="542" d="M17 629v87q61 10 93 14.5t83 7.5t106 1q55 0 96.5 -16t65.5 -43.5t35.5 -61t11.5 -71.5v-83q0 -100 -60.5 -143.5t-171.5 -31.5v-94h-100v183h125q41 2 66.5 22.5t25.5 64.5v71q0 49 -28.5 71t-90.5 22h-257zM165 23v78q0 25 24 25h75q24 0 24 -25v-78q0 -23 -24 -23h-75 q-11 0 -17.5 6.5t-6.5 16.5z" />
<glyph unicode="@" horiz-adv-x="859" d="M55 7v320q0 24 3.5 45.5t16 48.5t32 46t56 32t85.5 13h200q167 0 167 -150v-362h-78l-17 60l-8.5 -7t-24 -17t-34.5 -20.5t-45 -17.5t-52 -7q-58 -1 -93 36.5t-35 90.5v46q0 43 16.5 74t48 47t75.5 16h150q1 55 0 55q0 34 -16.5 46t-53.5 12h-200q-21 0 -35.5 -3.5 t-29 -12t-22 -27.5t-7.5 -47v-310q0 -32 8.5 -54.5t23.5 -33t30 -14.5t32 -4h338q59 0 81 26t22 80v477q0 56 -28 86t-75 30h-404v71q48 10 131.5 19t167.5 8h105q89 -1 145.5 -53.5t56.5 -160.5v-477q0 -206 -198 -206h-342q-87 0 -140 49.5t-53 149.5zM330 132 q0 -17 15 -30t37 -12q68 -1 136 46v96l-138 -13q-51 -5 -50 -54v-16v-17z" />
<glyph unicode="A" horiz-adv-x="684" d="M38 0l255 732h128l245 -732h-127l-56 177h-259l-57 -177h-129zM257 283h196l-96 291z" />
<glyph unicode="B" horiz-adv-x="601" d="M68 0v732h294q54 0 94.5 -16.5t63 -44.5t33 -61t10.5 -72q0 -58 -23.5 -102.5t-73.5 -55.5q44 -9 75 -53.5t31 -115.5q0 -211 -208 -211h-296zM184 106h177q95 0 95 110q0 50 -23.5 83t-71.5 33h-177v-226zM184 434h173q45 0 68 25t23 72q0 53 -26.5 74t-64.5 21h-173 v-192z" />
<glyph unicode="C" horiz-adv-x="574" d="M47 368q0 74 6.5 129t23 102.5t44 77.5t71 46.5t102.5 16.5q134 0 251 -30v-91l-8 0.5t-21.5 1.5t-31.5 2.5t-39 2.5t-42.5 2.5t-45 2t-42.5 0.5q-36 0 -59 -5.5t-42.5 -21.5t-29.5 -46t-15.5 -76.5t-5.5 -115.5q0 -133 33 -198t119 -65q47 0 104.5 2t91.5 4l34 2v-91 q-105 -28 -251 -26q-55 0 -97 17.5t-70.5 49t-46.5 78.5t-25.5 103t-7.5 126z" />
<glyph unicode="D" horiz-adv-x="660" d="M68 0v732h297q256 0 256 -369q0 -76 -14.5 -140t-44.5 -115t-80.5 -79.5t-116.5 -28.5h-297zM184 107h174q51 0 84.5 34t48 89.5t14.5 133.5q0 99 -18.5 158t-49.5 81.5t-79 22.5h-174v-519z" />
<glyph unicode="E" horiz-adv-x="567" d="M66 136v452q0 34 9 60t23 42t34 26t39.5 13.5t41.5 2.5q279 -10 320 -16v-95h-299q-19 0 -30 -4t-15.5 -14t-5.5 -17t-1 -21v-145l307 -10v-95l-307 -10v-145q0 -16 4.5 -26t9 -15.5t14.5 -8t16 -2.5h18h289v-94q-16 -2 -93.5 -6.5t-147.5 -7.5l-69 -3q-22 -1 -41.5 1 t-41.5 10.5t-37.5 23t-26 41.5t-10.5 63z" />
<glyph unicode="F" horiz-adv-x="567" d="M66 0v587q0 77 42.5 112t104.5 33q279 -10 320 -16v-95h-299q-19 0 -30 -4t-15.5 -14t-5.5 -17t-1 -21v-145l307 -10v-95l-307 -10v-305h-116z" />
<glyph unicode="G" horiz-adv-x="614" d="M47 370q0 67 5 118.5t20.5 101t41.5 81t69 50.5t101 19q139 0 271 -31v-90q-1 0 -17.5 1.5t-42.5 4t-56.5 4.5t-67 3.5t-66.5 1.5q-86 0 -114 -59t-28 -207q0 -153 28.5 -207.5t110.5 -55.5q32 -1 69.5 10.5t58.5 23.5l22 12v156h-126v74q67 25 174 25q32 0 68 -3v-403 h-84l-30 49q-67 -52 -169 -54q-44 -1 -79 8.5t-59.5 26.5t-42.5 44.5t-29 58t-17.5 71t-8.5 79t-2 87.5z" />
<glyph unicode="H" horiz-adv-x="637" d="M68 0v732h116v-324h287v324h116v-732h-116v300h-287v-300h-116z" />
<glyph unicode="I" horiz-adv-x="234" d="M68 0v732h116v-732h-116z" />
<glyph unicode="J" horiz-adv-x="357" d="M30 22l2 89h7l30 -4.5t27.5 -2.5t26.5 1t22 5t19.5 11t13.5 18.5t10 27t3 37.5v528h116v-567q0 -31 -2.5 -53t-15 -50.5t-35.5 -43.5q-40 -25 -112.5 -23t-111.5 27z" />
<glyph unicode="K" horiz-adv-x="615" d="M68 0v732h112v-314h68l201 314h137l-234 -366l234 -366h-137l-201 312h-67v-312h-113z" />
<glyph unicode="L" horiz-adv-x="546" d="M68 136v596h116v-571q0 -19 4.5 -30.5t16 -15.5t18.5 -5t23 -1h271v-109h-303q-31 0 -55 5.5t-45.5 20t-33.5 42.5t-12 68z" />
<glyph unicode="M" horiz-adv-x="830" d="M47 0l58 732h161l148 -540l146 540h160l64 -732h-114l-47 528l-144 -528h-127l-148 528l-42 -528h-115z" />
<glyph unicode="N" horiz-adv-x="678" d="M68 0v732h118l326 -517v517h116v-732h-116l-327 514v-514h-117z" />
<glyph unicode="O" horiz-adv-x="672" d="M55 361q0 72 7.5 128.5t20.5 96t34 67.5t43.5 44t54.5 25t61.5 12t69.5 3q41 0 70.5 -3t62 -12t54.5 -25t42.5 -44t33 -67.5t19.5 -96t7 -128.5q0 -68 -7 -121.5t-18.5 -92t-31.5 -66t-42.5 -44t-54 -26t-62.5 -12.5t-73 -3q-37 0 -64.5 2t-57 8t-50 17.5t-41 30t-34 46 t-24 64t-15.5 86t-5 111.5zM171 361q0 -48 2.5 -83.5t8 -63.5t15.5 -46.5t22.5 -31t32 -19.5t41.5 -9.5t53 -2.5q52 0 83 9.5t52.5 37.5t29.5 77.5t8 131.5q0 48 -2 84.5t-8 64t-12.5 47.5t-19 33t-24 20.5t-30.5 11.5t-35 5t-42 1q-23 0 -37 -0.5t-32 -3.5t-28.5 -8 t-23.5 -14.5t-20 -23.5t-14.5 -33.5t-11 -46t-6 -60.5t-2.5 -77z" />
<glyph unicode="P" horiz-adv-x="594" d="M54 0v732h310q29 0 53.5 -4.5t51.5 -18.5t45.5 -37.5t30.5 -64.5t12 -96q0 -62 -13 -107.5t-31.5 -69t-46.5 -36.5t-50.5 -15.5t-51.5 -2.5q-19 1 -65.5 5.5t-86 9t-42.5 5.5v-300h-116zM170 386h187q40 0 61.5 26t21.5 98q0 30 -5.5 51.5t-13.5 33.5t-20 19t-22 9t-22 2 h-187v-239z" />
<glyph unicode="Q" horiz-adv-x="672" d="M55 361q0 72 7.5 128.5t20 96t33.5 67.5t43 44t54 25t61.5 12t70.5 3t70.5 -3t62 -12t54.5 -25t43 -44t33 -67.5t19.5 -96t7.5 -128.5q0 -68 -7 -121.5t-19 -92t-32 -65.5t-42 -43.5t-54 -26t-63 -13t-73 -3.5q-38 0 -65 2t-56.5 8t-50 17.5t-41 30t-33.5 46t-23.5 64 t-15.5 86t-5 111.5zM171 361q0 -68 5.5 -111.5t16 -73.5t32 -45t49 -20.5t71.5 -5.5q52 0 83 9.5t53 37.5t30 77.5t8 131.5q0 42 -2 76t-5.5 60t-11 46t-14.5 34t-19.5 23.5t-23.5 15t-28.5 8t-32.5 3.5t-37 1q-26 0 -41.5 -1t-35 -4.5t-30.5 -11t-23.5 -20.5t-19.5 -32.5 t-13 -47.5t-8.5 -65t-2.5 -85zM306 -33h70q50 -60 164 -25v-101q-27 -8 -57.5 -8t-60.5 8t-54.5 23.5t-41.5 42t-20 60.5z" />
<glyph unicode="R" horiz-adv-x="602" d="M54 0v732h318q188 0 188 -225q0 -53 -10 -92.5t-21.5 -60t-32 -35t-30 -18t-26.5 -8.5l144 -293h-130l-133 285l-151 14v-299h-116zM171 393h192q21 0 33 3.5t24 14t17.5 34.5t5.5 62q0 69 -21 94t-59 25h-192v-233z" />
<glyph unicode="S" horiz-adv-x="588" d="M55 489v64q0 53 15 90t43 57t62 29t78 9q62 1 146 -8t125 -19v-92q-42 3 -132.5 6.5t-113.5 3.5q-57 2 -82 -13t-25 -70v-47q0 -49 20 -64.5t67 -15.5h126q29 0 53 -6.5t41 -16.5t30 -25t21 -31t13 -35t7 -36.5t2 -35.5v-56q0 -46 -12 -80t-30.5 -53.5t-46.5 -31.5 t-54.5 -16t-59.5 -4q-164 0 -270 28v92q110 -11 253 -11q19 0 34 2t32.5 8.5t27.5 22.5t10 40v50q0 38 -16 58.5t-56 20.5h-123q-49 0 -84.5 13t-54.5 31.5t-30 45.5t-13.5 48.5t-2.5 47.5z" />
<glyph unicode="T" horiz-adv-x="588" d="M36 623v109h529v-109h-209v-623h-116v623h-204z" />
<glyph unicode="U" horiz-adv-x="669" d="M68 320v412h116v-412q0 -50 4 -85.5t14 -59.5t21.5 -38t32 -21.5t40 -9.5t50.5 -2q32 0 53 4t42.5 16.5t33.5 36t19.5 63t7.5 96.5v412h117v-412q0 -59 -6.5 -106.5t-20 -80.5t-27.5 -57.5t-37.5 -39t-41.5 -23.5t-47 -12.5t-46 -4.5t-47 -1h-10q-38 0 -57.5 1t-53 7 t-51.5 17.5t-41.5 35t-35.5 57.5t-20.5 86.5t-8.5 120.5z" />
<glyph unicode="V" horiz-adv-x="680" d="M38 732h124l182 -572l191 572h124l-251 -732h-130z" />
<glyph unicode="W" horiz-adv-x="981" d="M38 732h124l181 -565l149 565h126l-57 -205l122 -364l154 569h124l-212 -732h-130l-112 327l-99 -327h-130z" />
<glyph unicode="X" horiz-adv-x="625" d="M38 732h128l154 -271l156 271h128l-219 -364l214 -368h-128l-151 269l-151 -269h-128l213 368z" />
<glyph unicode="Y" horiz-adv-x="647" d="M38 732h126l160 -363l176 363h126l-245 -493v-239h-116v239z" />
<glyph unicode="Z" horiz-adv-x="559" d="M30 0v109l357 514h-357v109h500v-109l-347 -514h347v-109h-500z" />
<glyph unicode="[" horiz-adv-x="329" d="M72 -20v680q0 35 7 64.5t23.5 57.5t49 44t77.5 16h84v-102h-63q-29 0 -45.5 -23.5t-16.5 -67.5v-666q0 -44 16.5 -67.5t45.5 -23.5h63v-102h-84q-33 0 -59.5 8.5t-43 24.5t-27.5 34t-17 41t-8 42t-2 40z" />
<glyph unicode="\" horiz-adv-x="435" d="M17 770h121l281 -842h-121z" />
<glyph unicode="]" horiz-adv-x="329" d="M17 -108h62q29 0 45.5 23.5t16.5 67.5v666q0 44 -16.5 67.5t-45.5 23.5h-62v102h83q46 0 78.5 -16t48.5 -44t23 -57.5t7 -64.5v-680q0 -26 -2.5 -48.5t-12.5 -50t-26.5 -46.5t-46 -32t-69.5 -13h-83v102z" />
<glyph unicode="^" horiz-adv-x="387" d="M42 531l111 133h92l100 -133h-85l-63 64l-69 -64h-86zM245 664z" />
<glyph unicode="_" horiz-adv-x="674" d="M20 -1v102h634v-102h-634z" />
<glyph unicode="`" horiz-adv-x="242" d="M17 668h112l97 -137h-83z" />
<glyph unicode="a" horiz-adv-x="519" d="M34 132v54q0 62 37 101.5t110 39.5q180 -1 180 0q1 45 0 46q0 41 -18.5 56t-56.5 15q-74 0 -235 -11v75q93 32 248 33q178 1 178 -164v-377h-90l-26 61q-3 -6 -29.5 -21t-71 -30.5t-82.5 -15.5q-67 1 -105.5 40.5t-38.5 97.5zM150 146q0 -31 14 -42t39 -11q29 0 68.5 11 t64.5 22l25 11v114l-162 -12q-49 -5 -49 -58v-35z" />
<glyph unicode="b" horiz-adv-x="555" d="M51 0v785h115v-283q26 12 58.5 20.5t62.5 12.5t53 4q36 0 64 -9.5t47 -28t31.5 -42t19 -56.5t9.5 -65.5t3 -74.5q0 -269 -174 -269q-44 0 -95 20t-78 42l-24 -56h-92zM167 135q71 -38 150 -38q40 0 60.5 40t20.5 129q0 71 -10 110.5t-26.5 52.5t-44.5 13q-82 0 -150 -22 v-285z" />
<glyph unicode="c" horiz-adv-x="496" d="M42 266q0 81 12.5 136t37.5 83.5t54.5 39.5t70.5 11q134 0 239 -30v-74q-112 6 -201 6q-15 0 -24.5 -1t-21.5 -4.5t-18.5 -10.5t-13.5 -19.5t-10.5 -31.5t-6 -46t-2.5 -62q0 -71 10 -107.5t29.5 -49t57.5 -12.5q41 0 93 2t83 5l32 2v-76q-13 -5 -26 -9.5t-28 -7.5 t-26 -5.5t-28.5 -4t-26.5 -2.5t-28.5 -1.5t-26.5 -1t-28.5 -0.5h-27.5q-32 0 -56.5 6.5t-47.5 24.5t-38 47.5t-24 78t-9 114.5z" />
<glyph unicode="d" horiz-adv-x="555" d="M42 263q0 51 4 89.5t15 75t30 60t50.5 37.5t74.5 14q36 0 85.5 -10t88.5 -27v283h115v-785h-92l-24 56q-27 -22 -77.5 -42t-95.5 -20q-174 0 -174 269zM158 266q0 -89 20.5 -129t60.5 -40q79 0 150 38v285q-68 22 -150 22q-27 0 -44 -13t-27 -52.5t-10 -110.5z" />
<glyph unicode="e" horiz-adv-x="525" d="M42 268q0 50 4.5 88t12.5 66.5t22.5 48t31.5 32.5t42.5 20t53 9.5t65.5 2.5q40 0 66.5 -2t53.5 -8.5t43 -19.5t29.5 -34t19 -52.5t5.5 -74.5q0 -129 -144 -129h-189q0 -40 6 -64t20 -37t32.5 -17t49.5 -4q145 0 215 11v-81q-82 -28 -264 -28q-100 0 -137.5 60.5 t-37.5 212.5zM158 305h166q51 0 51 43q0 60 -16.5 76t-78.5 16q-27 0 -40.5 -1t-30 -5t-24 -12t-15 -23t-10 -38t-2.5 -56z" />
<glyph unicode="f" horiz-adv-x="402" d="M17 436v78l88 17v99q0 156 144 156q71 0 137 -24v-71l-106 1q-17 1 -28.5 -3.5t-17.5 -9.5t-9 -18t-3.5 -22.5t-0.5 -29.5v-78h131v-95h-131v-436h-116v436h-88z" />
<glyph unicode="g" horiz-adv-x="558" d="M40 107q0 31 15.5 56.5t45.5 33.5q-31 20 -45 60.5t-14 86.5q0 94 46.5 141.5t133.5 47.5h319v-73l-67 -18l5.5 -11t6 -12.5t4.5 -13.5t4.5 -18.5t2.5 -22.5t1 -30q0 -24 -4 -47t-15.5 -49t-30 -45t-51 -31.5t-74.5 -12.5h-135q-41 0 -41 -26q0 -29 41 -29h181 q69 0 108 -39t39 -111v-60q0 -23 -4 -43.5t-15 -41t-28.5 -35.5t-46.5 -24.5t-67 -9.5h-150q-73 0 -118 39t-45 115v74l44 54q-21 13 -33.5 38.5t-12.5 56.5zM158 -105q0 -41 19.5 -53.5t51.5 -12.5h108q37 0 50 16.5t13 47.5v46q0 19 -4.5 30.5t-17.5 18.5t-36 7h-141 q-10 0 -21 1.5t-16 2.5l-6 1v-105zM158 344q0 -96 75 -96h71q44 0 61.5 27.5t16.5 68.5q-1 48 -18 69.5t-61 21.5h-67q-23 0 -39.5 -7.5t-24 -21.5t-11 -28.5t-3.5 -33.5z" />
<glyph unicode="h" d="M51 0v783h116v-311q2 2 8 6q31 21 49.5 31t52 20.5t68.5 10.5q83 0 122 -50.5t39 -129.5v-360h-116v361q0 81 -70 81q-46 0 -77 -11.5t-76 -38.5v-392h-116z" />
<glyph unicode="i" horiz-adv-x="216" d="M42 612v76q0 26 24 26h85q11 0 17 -7.5t6 -18.5v-76q0 -23 -23 -23h-85q-10 0 -17 6.5t-7 16.5zM49 0v531h116v-531h-116z" />
<glyph unicode="j" horiz-adv-x="233" d="M51 612v76q0 26 24 26h85q11 0 17 -7.5t6 -18.5v-76q0 -23 -23 -23h-85q-11 0 -17.5 6.5t-6.5 16.5zM59 -270v801h116v-535q2 -179 -33 -266h-83z" />
<glyph unicode="k" horiz-adv-x="536" d="M51 0v782h116v-433h33l170 182h150l-213 -229l213 -302h-139l-181 254h-33v-254h-116z" />
<glyph unicode="l" horiz-adv-x="308" d="M51 189v594h116v-580q0 -56 12 -78t38 -30q68 -21 75 -21v-74h-106q-66 0 -100.5 44t-34.5 145z" />
<glyph unicode="m" horiz-adv-x="883" d="M51 0v531h90l26 -60q2 2 16.5 11.5t17.5 11.5t16 9.5t18 10t17 8t20 7t20 4.5t24 4t25 1q50 0 87 -19t54 -53q94 72 199 72q79 0 120 -49.5t41 -131.5v-357h-116v358q0 39 -19 60.5t-51 21.5q-33 0 -58 -4.5t-49 -15t-47 -27.5v-17.5v-17.5v-358h-116v358 q0 39 -19.5 60.5t-51.5 21.5q-44 0 -73.5 -11t-74.5 -39v-390h-116z" />
<glyph unicode="n" d="M51 0v531h90l26 -59l9 6q31 21 49.5 31.5t51.5 20.5t68 10q83 0 122 -50.5t39 -129.5v-360h-116v361q0 28 -9 46.5t-24.5 26.5t-36.5 8q-46 0 -77 -11.5t-76 -38.5v-392h-116z" />
<glyph unicode="o" horiz-adv-x="563" d="M42 258q0 109 23.5 169t74 84.5t142.5 24.5q136 0 187.5 -60t51.5 -218q0 -149 -51.5 -206t-187.5 -57q-69 0 -114.5 14t-73.5 46.5t-40 81t-12 121.5zM158 258q0 -38 3 -65t10.5 -45t16.5 -29t24.5 -16.5t30.5 -7t39 -1.5q30 0 47 2.5t34 11t24.5 26.5t12.5 48t5 76 q0 42 -2.5 70.5t-9 49t-14.5 32t-23.5 18t-31.5 8.5t-42 2t-42 -2t-31.5 -8.5t-24 -18t-15 -32t-9 -49t-2.5 -70.5z" />
<glyph unicode="p" horiz-adv-x="555" d="M51 -270v801h92l23 -55q27 21 78.5 41t95.5 20q174 0 174 -269q0 -48 -4 -85.5t-15 -75t-29.5 -61.5t-50.5 -39t-75 -15q-36 0 -86 10t-88 26v-298h-115zM166 111q69 -22 151 -22q28 0 44.5 13t26.5 52.5t10 109.5q0 90 -20.5 130t-60.5 40q-79 0 -151 -38v-285z" />
<glyph unicode="q" horiz-adv-x="555" d="M42 268q0 269 191 269q139 0 271 -28v-779h-116v299q-71 -39 -155 -39q-56 0 -94 19t-59 57t-29.5 86t-8.5 116zM158 270v-31.5t1 -29.5t2.5 -29t4.5 -25t7.5 -23.5t11.5 -18t16 -15t21.5 -8t27.5 -3.5q41 0 68 4.5t70 18.5v332h-138q-21 0 -37.5 -8t-26 -23.5 t-15.5 -30.5t-8.5 -38t-3.5 -37t-1 -35z" />
<glyph unicode="r" horiz-adv-x="420" d="M51 0v531h94l22 -67q29 23 49 36t53 25t67 12q48 0 64 -7v-113q-26 4 -75 4q-51 0 -86 -12.5t-72 -46.5v-362h-116z" />
<glyph unicode="s" horiz-adv-x="507" d="M34 351v46q0 139 138 139q77 0 161 -6t114 -17v-77h-248q-32 0 -40.5 -10t-8.5 -35v-32q0 -28 11.5 -35t37.5 -7h138q69 0 103 -37t34 -97v-53q0 -135 -130 -135q-76 0 -169.5 7t-118.5 18v76h259q43 0 43 41v34q0 21 -9.5 31.5t-33.5 10.5h-136q-74 0 -109.5 31.5 t-35.5 106.5z" />
<glyph unicode="t" horiz-adv-x="380" d="M17 437v70l90 25l22 148h94v-148h132v-95h-132v-233q0 -56 12.5 -78.5t37.5 -30.5q68 -21 75 -21v-74h-110q-131 0 -131 190v247h-90z" />
<glyph unicode="u" d="M42 172v359h116v-361q0 -41 19 -60.5t51 -19.5q46 0 77 11t76 39v391h116v-531h-90l-26 58q-8 -4 -26 -15.5t-27 -16.5t-26 -13t-30 -12t-31.5 -7t-37.5 -3q-83 0 -122 50.5t-39 130.5z" />
<glyph unicode="v" horiz-adv-x="554" d="M17 531h125l134 -387l137 387h124l-200 -531h-126z" />
<glyph unicode="w" horiz-adv-x="817" d="M17 531h125l124 -387l111 387h118l-43 -153l98 -234l126 387h125l-183 -531h-127l-93 217l-70 -217h-131z" />
<glyph unicode="x" horiz-adv-x="554" d="M20 0l187 266l-186 265h141l114 -175l117 175h141l-188 -268l180 -263h-133l-116 174l-115 -174h-142z" />
<glyph unicode="y" horiz-adv-x="569" d="M18 531h123l105 -387q3 -12 8.5 -20t11.5 -12t12.5 -6t11 -2t9.5 0.5l5 0.5l123 426h123l-202 -699l-74 -102h-80l82 270q-109 0 -145 126z" />
<glyph unicode="z" horiz-adv-x="467" d="M25 429v102h417v-102l-248 -326h248v-102h-402v101l257 327h-272z" />
<glyph unicode="{" horiz-adv-x="320" d="M17 288v91q14 2 21 2.5t20.5 4t20 8.5t12 15t5.5 23v224q0 83 52.5 134.5t155.5 51.5v-102q-46 0 -69 -24t-23 -88v-201q0 -41 -24.5 -64t-67.5 -29q41 -7 66 -31t25 -59v-258q0 -49 23.5 -74t69.5 -24v-98q-111 0 -160 47t-49 125v273q0 28 -23 41.5t-55 11.5z" />
<glyph unicode="|" horiz-adv-x="246" d="M73 -72v842h102v-842h-102z" />
<glyph unicode="}" horiz-adv-x="320" d="M17 -112q46 -1 69 24t23 75v257q0 35 25 59t66 31q-42 6 -67 29t-25 64v201q0 64 -22.5 88t-68.5 24v102q103 0 155 -51.5t52 -134.5v-224q0 -13 6 -23t12.5 -15t19.5 -8.5t20.5 -4t21.5 -2.5v-91q-32 2 -55.5 -11.5t-23.5 -41.5v-273q0 -78 -48.5 -125t-159.5 -47v98z " />
<glyph unicode="~" horiz-adv-x="426" d="M42 581l13 13t13.5 13t12.5 11t14 11t14 8.5t16 7.5t17 4t19 2q23 0 55 -17.5t51 -17.5t37.5 7t28.5 13.5t27 19.5l24 -53l-5 -5q-18 -20 -29.5 -31t-34 -23.5t-45.5 -12.5t-58 17.5t-54 17.5q-13 0 -26.5 -3.5t-21 -7t-22.5 -12t-23 -12.5z" />
<glyph unicode="&#xa1;" horiz-adv-x="273" d="M75 363v75q0 21 24 23h71q6 -1 11.5 -4t9 -9t3.5 -13v-71q-1 -27 -22 -27h-73q-24 0 -24 26zM74 -270l11 532h100l12 -532h-123z" />
<glyph unicode="&#xa2;" horiz-adv-x="488" d="M34 266q0 83 12.5 138.5t38.5 84t58 39.5t76 9v97h77v-101q86 -9 152 -27v-74q-112 7 -201 7q-22 0 -34.5 -2t-26.5 -11.5t-20.5 -28t-11 -52t-4.5 -82.5q0 -71 9.5 -108t29.5 -50t58 -13q41 0 92.5 2.5t83.5 5.5l31 2v-76q-65 -27 -159 -31v-91h-77v90q-35 0 -61 6 t-50 23.5t-39.5 47.5t-24.5 79t-9 116z" />
<glyph unicode="&#xa3;" horiz-adv-x="587" d="M42 0v91l69 18v211h-69v62l69 21v88q0 46 6 82t16.5 61.5t28 43t36 28.5t46 16.5t52.5 7.5t60 2q26 0 73 -4t82 -8l34 -4v-92h-190q-29 0 -44.5 -1t-32.5 -5t-25 -11.5t-15 -21.5t-9 -35t-2 -51v-97l239 -16v-66h-239v-211h317v-109h-502z" />
<glyph unicode="&#xa4;" horiz-adv-x="451" d="M43 442l46 44l43 -44q41 29 91 29q51 0 93 -30l47 47l44 -44l-48 -49q23 -38 23 -82q0 -53 -29 -94l50 -50l-45 -45l-52 50q-38 -26 -83 -26q-47 0 -86 28l-47 -48l-45 47l47 46q-27 42 -27 92q0 46 24 84zM135 312q0 -15 4 -29t12 -25.5t19 -20t24.5 -13.5t28.5 -5 q24 0 45 13t32.5 34t11.5 46q0 37 -26 62.5t-63 25.5q-18 0 -34.5 -7t-28 -19t-18.5 -28t-7 -34z" />
<glyph unicode="&#xa5;" horiz-adv-x="621" d="M17 732h126l160 -333l173 333h129l-222 -400h136v-74h-159v-41h159v-73h-159v-144h-116v144h-152v73h152v41h-152v74h130z" />
<glyph unicode="&#xa6;" horiz-adv-x="247" d="M73 -72v328h102v-328h-102zM73 429v341h102v-341h-102z" />
<glyph unicode="&#xa7;" horiz-adv-x="545" d="M48 342v45q0 20 1.5 33.5t6.5 29.5t16.5 27t29.5 17q-55 22 -55 96v56q0 70 37 104t100 34q51 0 146.5 -6.5t130.5 -12.5v-83h-253q-23 0 -34 -9t-11 -32v-48q0 -39 46 -39h143q81 0 114.5 -31.5t32.5 -94.5v-45q0 -88 -52 -101q51 -8 51 -92v-62q0 -42 -12 -70.5 t-33.5 -42t-43 -18.5t-49.5 -5q-55 0 -149.5 6.5t-126.5 12.5v83h247q26 0 38.5 7t12.5 29v52q0 15 -5 23.5t-14.5 11.5t-27.5 3h-144q-72 0 -107.5 26t-35.5 96zM163 361q0 -27 11 -35t38 -8h119q34 0 42.5 10t8.5 34v47q0 13 -1 20t-5.5 14t-15.5 10t-29 3h-119 q-30 0 -39.5 -10t-9.5 -39v-46z" />
<glyph unicode="&#xa8;" horiz-adv-x="451" d="M42 582q0 23 16.5 39t40 16t39.5 -16t16 -39t-16 -39.5t-39.5 -16.5t-40 16.5t-16.5 39.5zM297 582q0 23 16.5 39t40 16t39.5 -16t16 -39t-16 -39.5t-39.5 -16.5t-40 16.5t-16.5 39.5z" />
<glyph unicode="&#xa9;" horiz-adv-x="804" d="M47 368q0 364 244 364h246q41 0 74.5 -12.5t56 -32.5t39.5 -49.5t26.5 -60.5t15.5 -69t7.5 -70t1.5 -70q0 -110 -23.5 -191.5t-74 -129t-123.5 -47.5h-246q-45 0 -83 15.5t-64 43.5t-45.5 63t-30.5 77.5t-16 84t-5 84.5zM128 368q0 -78 16.5 -141.5t54.5 -106t92 -42.5 h242q43 0 74 29.5t50.5 95.5t19.5 165q0 36 -1.5 63.5t-6 63.5t-14 61.5t-24 49t-39 36t-55.5 12.5h-246q-17 0 -32.5 -3t-30.5 -9t-27.5 -17t-24 -26.5t-20 -37.5t-15 -50t-10 -64t-3.5 -79zM226 365q0 218 144 218q33 0 87 -7t95 -17v-66q-84 12 -168 12q-40 0 -58 -33.5 t-18 -109.5q0 -68 17 -102.5t62 -34.5q73 0 171 16v-66q-78 -28 -185 -28q-32 0 -56.5 9.5t-46 32.5t-33 67.5t-11.5 108.5z" />
<glyph unicode="&#xaa;" horiz-adv-x="365" d="M25 264v66h315v-66h-315zM25 465v39q0 41 27 67t80 26q116 -1 116 0q1 21 0 22q0 26 -13.5 35t-41.5 9t-55.5 -1t-55.5 -3.5t-45 -2.5v57q94 25 169 26q133 1 133 -110v-251h-67l-24 46q-2 -4 -18.5 -15.5t-45.5 -23t-54 -11.5q-31 1 -55 13t-37 32.5t-13 45.5zM113 482 q0 -34 38 -34q10 0 21 1.5t20 4t18 5.5t15.5 6t11.5 5.5t8 3.5l3 2v68l-100 -7q-35 -4 -35 -36v-19z" />
<glyph unicode="&#xab;" horiz-adv-x="569" d="M42 354l206 203l68 -67l-139 -136l143 -140l-67 -68zM250 354l206 203l67 -67l-139 -136l143 -140l-66 -68z" />
<glyph unicode="&#xac;" horiz-adv-x="506" d="M40 246v98h426v-185h-98v87h-328z" />
<glyph unicode="&#xad;" horiz-adv-x="354" d="M20 239v102h314v-102h-314z" />
<glyph unicode="&#xae;" horiz-adv-x="804" d="M47 368q0 364 244 364h246q41 0 74.5 -12.5t56 -32.5t39.5 -49.5t26.5 -60.5t15.5 -69t7.5 -70t1.5 -70q0 -110 -23.5 -191.5t-74 -129t-123.5 -47.5h-246q-45 0 -83 15.5t-64 43.5t-45.5 63t-30.5 77.5t-16 84t-5 84.5zM128 368q0 -78 16.5 -141.5t54.5 -106t92 -42.5 h242q43 0 74 29.5t50.5 95.5t19.5 165q0 36 -1.5 63.5t-6 63.5t-14 61.5t-24 49t-39 36t-55.5 12.5h-246q-17 0 -32.5 -3t-30.5 -9t-27.5 -17t-24 -26.5t-20 -37.5t-15 -50t-10 -64t-3.5 -79zM253 153v427h180q134 0 134 -132q0 -36 -7.5 -61.5t-21.5 -39t-26 -19.5t-30 -10 l89 -165h-89l-86 163l-62 12v-175h-81zM334 386h91q39 0 50 11t11 51q0 35 -15 44.5t-46 9.5h-91v-116z" />
<glyph unicode="&#xaf;" horiz-adv-x="376" d="M42 531v73h292v-73h-292z" />
<glyph unicode="&#xb0;" horiz-adv-x="287" d="M42 632q0 28 14 51.5t37.5 37.5t51 14t50.5 -14t36.5 -37.5t13.5 -51.5t-13.5 -51.5t-36.5 -37t-50.5 -13.5t-51 13.5t-37.5 37t-14 51.5zM96 632q0 -20 14 -33.5t34 -13.5t34 13.5t14 33.5t-14 34t-34 14t-34 -14t-14 -34z" />
<glyph unicode="&#xb1;" horiz-adv-x="510" d="M48 76v102h416v-102h-416zM48 384v102h156v156h102v-156h158v-102h-158v-158h-102v158h-156z" />
<glyph unicode="&#xb2;" horiz-adv-x="395" d="M27 788q-1 0 -1 17.5v34.5t1 17q112 17 193 17q73 0 106.5 -38t33.5 -104q0 -110 -181 -258h180v-86h-329v82q4 3 24.5 18t31 23t33 25.5t36.5 30t33.5 30t31.5 32.5t23.5 32t17.5 33t6 30q0 36 -17 50t-60 14h-163z" />
<glyph unicode="&#xb3;" horiz-adv-x="407" d="M25 784v66q28 10 65.5 14.5t63.5 5t78 -0.5q61 0 93 -33.5t32 -85.5v-32q0 -72 -54 -91q54 -25 54 -97v-25q0 -121 -130 -121h-24h-25h-22t-24 0.5t-20.5 1.5t-22 2.5t-19.5 3.5t-21.5 4.5t-19.5 6.5l1 66l166 1q40 0 55 10t15 37v17q0 51 -66 53l-130 5v72l130 7 q12 1 21 2.5t16.5 4t13 6.5t9.5 9.5t5.5 12t1.5 15.5v15q0 48 -67 48h-175z" />
<glyph unicode="&#xb4;" horiz-adv-x="242" d="M17 531l96 137h113l-126 -137h-83z" />
<glyph unicode="&#xb5;" horiz-adv-x="590" d="M76 172v359h116v-361q0 -41 19 -60.5t51 -19.5t57.5 6t45.5 15.5t50 28.5v391h116v-531h-90l-26 58q-5 -2 -20 -11.5t-21 -12.5t-19 -10.5t-21.5 -10.5t-21 -7.5t-24.5 -6.5t-25 -3q-39 -2 -71 12v-278h-116v442z" />
<glyph unicode="&#xb6;" horiz-adv-x="578" d="M34 499v93q0 68 44.5 104t111.5 36h372v-94h-59v-638h-91v640h-77v-910h-91v642q-1 0 -9 -5t-19.5 -8.5t-25.5 -3.5q-77 0 -116.5 41t-39.5 103zM125 507q0 -61 68 -61h51v194h-51q-26 0 -42 -9t-21 -21.5t-5 -30.5v-72z" />
<glyph unicode="&#xb7;" horiz-adv-x="266" d="M72 345v78q0 25 24 25h74q25 0 25 -25v-78q0 -23 -25 -23h-74q-7 0 -12.5 3t-8.5 8t-3 12z" />
<glyph unicode="&#xb8;" horiz-adv-x="247" d="M42 -125l48 15q13 6 20 16.5t8.5 22.5t1.5 34h85q0 -78 -23 -108.5t-85 -30.5h-55v51z" />
<glyph unicode="&#xb9;" horiz-adv-x="270" d="M14 753v60l111 55h91v-480h-92v392z" />
<glyph unicode="&#xba;" horiz-adv-x="392" d="M25 550q0 107 37 146.5t135 39.5t134.5 -40t36.5 -146q0 -66 -15.5 -103.5t-52.5 -55t-103 -17.5q-97 0 -134.5 39.5t-37.5 136.5zM38 266v65h317v-65h-317zM117 550q0 -34 4.5 -54.5t16.5 -30t24 -11.5t35 -2q25 0 36.5 2t23 11t15.5 29.5t4 55.5q1 38 -3 60t-15.5 32.5 t-23.5 13t-37 2.5t-37.5 -2.5t-24 -13t-15 -32t-3.5 -60.5z" />
<glyph unicode="&#xbb;" horiz-adv-x="569" d="M42 214l143 140l-139 136l68 67l206 -203l-211 -208zM250 214l142 140l-139 136l68 67l206 -203l-211 -208z" />
<glyph unicode="&#xbc;" horiz-adv-x="920" d="M14 621v59l111 56h91v-480h-92v392zM192 0l389 745h88l-389 -745h-88zM502 144l185 335h98l-154 -284h129v109l25 49h66v-159h52v-72l-52 -17v-105h-91v105h-236z" />
<glyph unicode="&#xbd;" horiz-adv-x="984" d="M14 621v59l111 56h91v-480h-92v392zM185 0l389 745h88l-389 -745h-88zM615 400l-0.5 17.5t0 34.5l0.5 17q113 17 194 17q74 0 107.5 -38t33.5 -104q0 -26 -9.5 -54.5t-28.5 -55t-36 -47.5t-42.5 -44t-36.5 -32.5t-29 -24.5h182v-86h-332v82q5 4 22 16.5t27.5 20.5 t30 22.5t32.5 26t31 27.5t30.5 29t26 29.5t21.5 30t13 28.5t5 28q0 22 -7.5 35t-24 19t-45.5 6h-165z" />
<glyph unicode="&#xbe;" horiz-adv-x="1035" d="M25 652v66q28 10 63 14.5t70 4.5h76q40 0 69 -16.5t42.5 -43t13.5 -60.5v-31q0 -72 -54 -92q54 -24 54 -97v-25q0 -121 -130 -121h-25h-25t-22 0.5t-24 1t-20.5 1.5t-22.5 2.5t-20 3t-21.5 4.5t-19.5 6l1 67h168q40 0 55 10.5t15 37.5v16q0 52 -66 53l-132 5v72l132 8 q35 1 51 12.5t16 36.5v16q0 48 -67 48h-177zM293 0l389 745h88l-389 -745h-88zM590 145l185 334h95l-154 -286h135v111l23 49h65v-160h53v-71l-53 -16v-105h-88v105h-239z" />
<glyph unicode="&#xbf;" horiz-adv-x="543" d="M34 10q-1 93 60 138.5t171 33.5v94h101v-183q-83 2 -125 0q-36 -1 -58.5 -25t-24.5 -64q-1 -57 -1 -70q0 -40 27.5 -67t83.5 -25h258v-9v-21.5v-25.5v-21.5t-1 -8.5q-61 -11 -93 -15.5t-83 -7.5t-106 -1q-58 0 -101 17.5t-65.5 47t-32.5 61.5t-10 68v84zM255 372v74 q0 11 7 18t17 7h72q10 0 17 -6t7 -17v-76q-1 -24 -22 -25h-76q-21 4 -22 25z" />
<glyph unicode="&#xc0;" horiz-adv-x="684" d="M38 0l255 732h128l245 -732h-127l-56 177h-259l-57 -177h-129zM257 283h196l-96 291zM190 934h112l97 -137h-83z" />
<glyph unicode="&#xc1;" horiz-adv-x="684" d="M38 0l255 732h128l245 -732h-127l-56 177h-259l-57 -177h-129zM257 283h196l-96 291zM316 797l96 137h113l-126 -137h-83z" />
<glyph unicode="&#xc2;" horiz-adv-x="684" d="M38 0l255 732h128l245 -732h-127l-56 177h-259l-57 -177h-129zM257 283h196l-96 291zM206 797l111 133h92l99 -133h-85l-63 64l-68 -64h-86zM409 930z" />
<glyph unicode="&#xc3;" horiz-adv-x="684" d="M38 0l255 732h128l245 -732h-127l-56 177h-259l-57 -177h-129zM257 283h196l-96 291zM186 847q21 21 37 33.5t38.5 23.5t44.5 11q20 -1 40 -9.5t37 -17t30 -8.5q33 -2 91 37l24 -53q-22 -22 -34 -32t-35.5 -22.5t-44.5 -11.5q-27 1 -60 17.5t-50 16.5q-15 0 -28.5 -3.5 t-21 -7t-22 -12t-23.5 -12.5z" />
<glyph unicode="&#xc4;" horiz-adv-x="684" d="M38 0l255 732h128l245 -732h-127l-56 177h-259l-57 -177h-129zM257 283h196l-96 291zM174 853q0 23 16.5 39t39.5 16t39 -16t16 -39t-16 -39.5t-39 -16.5t-39.5 16.5t-16.5 39.5zM429 853q0 23 16.5 39t39.5 16t39 -16t16 -39t-16 -39.5t-39 -16.5t-39.5 16.5t-16.5 39.5 z" />
<glyph unicode="&#xc5;" horiz-adv-x="684" d="M38 0l255 732h128l245 -732h-127l-56 177h-259l-57 -177h-129zM257 283h196l-96 291zM256 832q0 43 30 73t72 30t71.5 -30t29.5 -73q0 -28 -13.5 -51.5t-37 -37t-51 -13.5t-51 13.5t-37 37t-13.5 51.5zM310 832.5q0 -19.5 14 -33t33.5 -13.5t33 13.5t13.5 32.5 q0 10 -3.5 18.5t-9.5 15t-15 10.5t-18 4q-20 0 -34 -14t-14 -33.5z" />
<glyph unicode="&#xc6;" horiz-adv-x="942" d="M25 0l289 586q22 44 47.5 73.5t52 44t56 22t58.5 7t61 -0.5q274 -10 315 -16v-95h-294q-18 0 -29 -4t-15 -14t-5 -16t-2 -20v-150l302 -11v-94l-302 -10v-144q0 -7 1 -13.5t2 -11.5t5 -8.5t5.5 -6t7 -4.5t7 -2.5t8.5 -1t8 -0.5h9h9l282 -1v-96q-10 -2 -45 -4t-77.5 -4.5 t-84 -4.5t-68.5 -3l-28 -1q-23 -2 -43 0t-41.5 9.5t-37 21t-25.5 38t-10 56.5v85h-188l-102 -206h-128zM306 312h137v281z" />
<glyph unicode="&#xc7;" horiz-adv-x="574" d="M47 368q0 61 4.5 109t15 91t29 74t45.5 53.5t65.5 33.5t87.5 11q134 0 251 -30v-91l-8 0.5t-21.5 1.5t-31.5 2.5t-39 2.5t-42.5 2.5t-45 2t-42.5 0.5q-36 0 -59 -5.5t-42.5 -21.5t-29.5 -46t-15.5 -76.5t-5.5 -115.5q0 -133 33 -198t119 -65q47 0 104.5 2t91.5 4l34 2 v-91q-105 -28 -251 -26q-68 0 -116.5 26.5t-77 77t-41 116.5t-12.5 154zM152 -124l47 15q13 6 20 16.5t9 22.5t2 34h84q0 -78 -23 -109t-85 -31h-54v52z" />
<glyph unicode="&#xc8;" horiz-adv-x="567" d="M66 136v452q0 55 23.5 89t54.5 45t69 10q279 -10 320 -16v-95h-299q-19 0 -30 -4t-15.5 -14t-5.5 -17t-1 -21v-145l307 -10v-95l-307 -10v-145q0 -16 4.5 -26t9 -15.5t14.5 -8t16 -2.5h18h289v-94q-16 -2 -93.5 -6.5t-147.5 -7.5l-69 -3q-22 -1 -41.5 1t-41.5 10.5 t-37.5 23t-26 41.5t-10.5 63zM169 931h112l97 -137h-83z" />
<glyph unicode="&#xc9;" horiz-adv-x="567" d="M66 136v452q0 55 23.5 89t54.5 45t69 10q279 -10 320 -16v-95h-299q-19 0 -30 -4t-15.5 -14t-5.5 -17t-1 -21v-145l307 -10v-95l-307 -10v-145q0 -16 4.5 -26t9 -15.5t14.5 -8t16 -2.5h18h289v-94q-16 -2 -93.5 -6.5t-147.5 -7.5l-69 -3q-22 -1 -41.5 1t-41.5 10.5 t-37.5 23t-26 41.5t-10.5 63zM280 794l96 136h113l-126 -136h-83z" />
<glyph unicode="&#xca;" horiz-adv-x="567" d="M66 136v452q0 55 23.5 89t54.5 45t69 10q279 -10 320 -16v-95h-299q-19 0 -30 -4t-15.5 -14t-5.5 -17t-1 -21v-145l307 -10v-95l-307 -10v-145q0 -16 4.5 -26t9 -15.5t14.5 -8t16 -2.5h18h289v-94q-16 -2 -93.5 -6.5t-147.5 -7.5l-69 -3q-22 -1 -41.5 1t-41.5 10.5 t-37.5 23t-26 41.5t-10.5 63zM166 797l111 133h92l99 -133h-85l-63 64l-68 -64h-86zM369 930z" />
<glyph unicode="&#xcb;" horiz-adv-x="567" d="M66 136v452q0 55 23.5 89t54.5 45t69 10q279 -10 320 -16v-95h-299q-19 0 -30 -4t-15.5 -14t-5.5 -17t-1 -21v-145l307 -10v-95l-307 -10v-145q0 -16 4.5 -26t9 -15.5t14.5 -8t16 -2.5h18h289v-94q-16 -2 -93.5 -6.5t-147.5 -7.5l-69 -3q-22 -1 -41.5 1t-41.5 10.5 t-37.5 23t-26 41.5t-10.5 63zM131 850q0 23 16.5 39t39.5 16t39 -16t16 -39t-16 -39.5t-39 -16.5t-39.5 16.5t-16.5 39.5zM386 850q0 23 16.5 39t39.5 16t39 -16t16 -39t-16 -39.5t-39 -16.5t-39.5 16.5t-16.5 39.5z" />
<glyph unicode="&#xcc;" horiz-adv-x="234" d="M68 0v732h116v-732h-116zM-42 934h113l96 -137h-83z" />
<glyph unicode="&#xcd;" horiz-adv-x="234" d="M68 0v732h116v-732h-116zM84 797l97 137h112l-126 -137h-83z" />
<glyph unicode="&#xce;" horiz-adv-x="234" d="M68 0v732h116v-732h-116zM-26 797l112 133h92l99 -133h-85l-63 64l-69 -64h-86zM178 930z" />
<glyph unicode="&#xcf;" horiz-adv-x="234" d="M68 0v732h116v-732h-116zM-58 853q0 23 17 39t40 16t39 -16t16 -39t-16 -39.5t-39 -16.5t-40 16.5t-17 39.5zM198 853q0 23 16.5 39t39.5 16t39 -16t16 -39t-16 -39.5t-39 -16.5t-39.5 16.5t-16.5 39.5z" />
<glyph unicode="&#xd0;" horiz-adv-x="660" d="M3 342v62h65v327q0 1 297 1q256 0 256 -369q0 -77 -14.5 -140.5t-44 -114.5t-80 -79.5t-117.5 -28.5h-297v342h-65zM184 107h174q145 0 145 257q0 73 -10 124.5t-30 80.5t-45.5 41.5t-59.5 12.5h-174v-219h121v-62h-121v-235z" />
<glyph unicode="&#xd1;" horiz-adv-x="678" d="M68 0v732h118l326 -517v517h116v-732h-116l-327 514v-514h-117zM177 847q33 32 61 50t59 18q26 -1 59 -18t48 -17q33 -2 91 37l24 -53q-23 -22 -34.5 -32t-35 -22.5t-44.5 -11.5q-27 1 -60 17.5t-50 16.5q-15 0 -28.5 -3.5t-21 -7t-22 -12t-23.5 -12.5z" />
<glyph unicode="&#xd2;" horiz-adv-x="672" d="M55 361q0 72 7.5 128.5t20.5 96t34 67.5t43.5 44t54.5 25t61.5 12t69.5 3q41 0 70.5 -3t62 -12t54.5 -25t42.5 -44t33 -67.5t19.5 -96t7 -128.5q0 -68 -7 -121.5t-18.5 -92t-31.5 -66t-42.5 -44t-54 -26t-62.5 -12.5t-73 -3q-30 0 -52.5 1.5t-47 4.5t-43 9.5t-37.5 17 t-33 25.5t-27 35t-22 46.5t-16 59.5t-10 74.5t-3 91.5zM171 361q0 -56 3.5 -95.5t12 -69t20.5 -46.5t33 -27.5t45 -14t61 -3.5q52 0 83 9.5t52.5 37.5t29.5 77.5t8 131.5q0 38 -1.5 69t-5 56t-8 44.5t-12 34t-14.5 25t-19 17.5t-22.5 11t-26.5 6.5t-30 3t-34 0.5 q-26 0 -41.5 -1t-35 -4.5t-30.5 -11t-24 -20.5t-19.5 -32.5t-13 -47t-9 -65t-2.5 -85.5zM178 934h113l96 -137h-83z" />
<glyph unicode="&#xd3;" horiz-adv-x="672" d="M55 361q0 72 7.5 128.5t20.5 96t34 67.5t43.5 44t54.5 25t61.5 12t69.5 3q41 0 70.5 -3t62 -12t54.5 -25t42.5 -44t33 -67.5t19.5 -96t7 -128.5q0 -68 -7 -121.5t-18.5 -92t-31.5 -66t-42.5 -44t-54 -26t-62.5 -12.5t-73 -3q-30 0 -52.5 1.5t-47 4.5t-43 9.5t-37.5 17 t-33 25.5t-27 35t-22 46.5t-16 59.5t-10 74.5t-3 91.5zM171 361q0 -56 3.5 -95.5t12 -69t20.5 -46.5t33 -27.5t45 -14t61 -3.5q52 0 83 9.5t52.5 37.5t29.5 77.5t8 131.5q0 38 -1.5 69t-5 56t-8 44.5t-12 34t-14.5 25t-19 17.5t-22.5 11t-26.5 6.5t-30 3t-34 0.5 q-26 0 -41.5 -1t-35 -4.5t-30.5 -11t-24 -20.5t-19.5 -32.5t-13 -47t-9 -65t-2.5 -85.5zM304 797l97 137h112l-126 -137h-83z" />
<glyph unicode="&#xd4;" horiz-adv-x="672" d="M55 361q0 72 7.5 128.5t20.5 96t34 67.5t43.5 44t54.5 25t61.5 12t69.5 3q41 0 70.5 -3t62 -12t54.5 -25t42.5 -44t33 -67.5t19.5 -96t7 -128.5q0 -68 -7 -121.5t-18.5 -92t-31.5 -66t-42.5 -44t-54 -26t-62.5 -12.5t-73 -3q-30 0 -52.5 1.5t-47 4.5t-43 9.5t-37.5 17 t-33 25.5t-27 35t-22 46.5t-16 59.5t-10 74.5t-3 91.5zM171 361q0 -56 3.5 -95.5t12 -69t20.5 -46.5t33 -27.5t45 -14t61 -3.5q52 0 83 9.5t52.5 37.5t29.5 77.5t8 131.5q0 38 -1.5 69t-5 56t-8 44.5t-12 34t-14.5 25t-19 17.5t-22.5 11t-26.5 6.5t-30 3t-34 0.5 q-26 0 -41.5 -1t-35 -4.5t-30.5 -11t-24 -20.5t-19.5 -32.5t-13 -47t-9 -65t-2.5 -85.5zM195 797l111 133h92l99 -133h-85l-63 64l-68 -64h-86zM398 930z" />
<glyph unicode="&#xd5;" horiz-adv-x="672" d="M55 361q0 72 7.5 128.5t20.5 96t34 67.5t43.5 44t54.5 25t61.5 12t69.5 3q41 0 70.5 -3t62 -12t54.5 -25t42.5 -44t33 -67.5t19.5 -96t7 -128.5q0 -68 -7 -121.5t-18.5 -92t-31.5 -66t-42.5 -44t-54 -26t-62.5 -12.5t-73 -3q-30 0 -52.5 1.5t-47 4.5t-43 9.5t-37.5 17 t-33 25.5t-27 35t-22 46.5t-16 59.5t-10 74.5t-3 91.5zM171 361q0 -56 3.5 -95.5t12 -69t20.5 -46.5t33 -27.5t45 -14t61 -3.5q52 0 83 9.5t52.5 37.5t29.5 77.5t8 131.5q0 38 -1.5 69t-5 56t-8 44.5t-12 34t-14.5 25t-19 17.5t-22.5 11t-26.5 6.5t-30 3t-34 0.5 q-26 0 -41.5 -1t-35 -4.5t-30.5 -11t-24 -20.5t-19.5 -32.5t-13 -47t-9 -65t-2.5 -85.5zM175 847q33 32 61 50t59 18q26 -1 59 -18t48 -17q33 -2 91 37l24 -53q-23 -22 -34.5 -32t-35.5 -22.5t-44 -11.5q-27 1 -60 17.5t-51 16.5q-14 0 -27.5 -3.5t-21 -7t-22.5 -12 t-23 -12.5z" />
<glyph unicode="&#xd6;" horiz-adv-x="672" d="M55 361q0 72 7.5 128.5t20.5 96t34 67.5t43.5 44t54.5 25t61.5 12t69.5 3q41 0 70.5 -3t62 -12t54.5 -25t42.5 -44t33 -67.5t19.5 -96t7 -128.5q0 -68 -7 -121.5t-18.5 -92t-31.5 -66t-42.5 -44t-54 -26t-62.5 -12.5t-73 -3q-30 0 -52.5 1.5t-47 4.5t-43 9.5t-37.5 17 t-33 25.5t-27 35t-22 46.5t-16 59.5t-10 74.5t-3 91.5zM171 361q0 -56 3.5 -95.5t12 -69t20.5 -46.5t33 -27.5t45 -14t61 -3.5q52 0 83 9.5t52.5 37.5t29.5 77.5t8 131.5q0 38 -1.5 69t-5 56t-8 44.5t-12 34t-14.5 25t-19 17.5t-22.5 11t-26.5 6.5t-30 3t-34 0.5 q-26 0 -41.5 -1t-35 -4.5t-30.5 -11t-24 -20.5t-19.5 -32.5t-13 -47t-9 -65t-2.5 -85.5zM163 853q0 23 16.5 39t39.5 16t39 -16t16 -39t-16 -39.5t-39 -16.5t-39.5 16.5t-16.5 39.5zM418 853q0 23 16.5 39t39.5 16t39 -16t16 -39t-16 -39.5t-39 -16.5t-39.5 16.5t-16.5 39.5 z" />
<glyph unicode="&#xd7;" horiz-adv-x="460" d="M48 245l110 110l-110 111l71 73l111 -111l112 111l72 -72l-112 -112l112 -110l-72 -73l-112 111l-110 -110z" />
<glyph unicode="&#xd8;" horiz-adv-x="678" d="M58 361q0 72 7.5 128.5t20 96t33.5 67.5t43 44t54.5 25t62 12t69.5 3q62 0 105.5 -7.5t76.5 -29.5l21 32h70l-48 -72q65 -85 65 -299q0 -68 -6.5 -121.5t-18.5 -92t-32 -66t-42.5 -44t-54.5 -26t-63 -12.5t-73 -3q-66 0 -112 8t-80 32l-24 -36h-70l53 79q-57 81 -57 282z M174 361q0 -117 21 -166l270 410q-19 15 -45.5 19t-71.5 4q-20 0 -33 -0.5t-29.5 -2.5t-26.5 -6t-22.5 -11t-19.5 -17t-15 -25t-12.5 -34t-8.5 -44.5t-5.5 -57t-1.5 -69.5zM224 136q35 -31 124 -31q53 0 83.5 9.5t52.5 37.5t30 77.5t8 131.5q0 135 -23 191z" />
<glyph unicode="&#xd9;" horiz-adv-x="669" d="M68 320v412h116v-412q0 -50 4 -85.5t14 -59.5t21.5 -38t32 -21.5t40 -9.5t50.5 -2q32 0 53 4t42.5 16.5t33.5 36t19.5 63t7.5 96.5v412h117v-412q0 -59 -6.5 -106.5t-20 -80.5t-27.5 -57.5t-37.5 -39t-41.5 -23.5t-47 -12.5t-46 -4.5t-47 -1h-10q-38 0 -57.5 1t-53 7 t-51.5 17.5t-41.5 35t-35.5 57.5t-20.5 86.5t-8.5 120.5zM176 934h112l97 -137h-83z" />
<glyph unicode="&#xda;" horiz-adv-x="669" d="M68 320v412h116v-412q0 -50 4 -85.5t14 -59.5t21.5 -38t32 -21.5t40 -9.5t50.5 -2q32 0 53 4t42.5 16.5t33.5 36t19.5 63t7.5 96.5v412h117v-412q0 -59 -6.5 -106.5t-20 -80.5t-27.5 -57.5t-37.5 -39t-41.5 -23.5t-47 -12.5t-46 -4.5t-47 -1h-10q-38 0 -57.5 1t-53 7 t-51.5 17.5t-41.5 35t-35.5 57.5t-20.5 86.5t-8.5 120.5zM302 797l96 137h113l-126 -137h-83z" />
<glyph unicode="&#xdb;" horiz-adv-x="669" d="M68 320v412h116v-412q0 -50 4 -85.5t14 -59.5t21.5 -38t32 -21.5t40 -9.5t50.5 -2q32 0 53 4t42.5 16.5t33.5 36t19.5 63t7.5 96.5v412h117v-412q0 -59 -6.5 -106.5t-20 -80.5t-27.5 -57.5t-37.5 -39t-41.5 -23.5t-47 -12.5t-46 -4.5t-47 -1h-10q-38 0 -57.5 1t-53 7 t-51.5 17.5t-41.5 35t-35.5 57.5t-20.5 86.5t-8.5 120.5zM192 797l111 133h92l99 -133h-84l-64 64l-68 -64h-86zM395 930z" />
<glyph unicode="&#xdc;" horiz-adv-x="669" d="M68 320v412h116v-412q0 -50 4 -85.5t14 -59.5t21.5 -38t32 -21.5t40 -9.5t50.5 -2q32 0 53 4t42.5 16.5t33.5 36t19.5 63t7.5 96.5v412h117v-412q0 -59 -6.5 -106.5t-20 -80.5t-27.5 -57.5t-37.5 -39t-41.5 -23.5t-47 -12.5t-46 -4.5t-47 -1h-10q-38 0 -57.5 1t-53 7 t-51.5 17.5t-41.5 35t-35.5 57.5t-20.5 86.5t-8.5 120.5zM160 853q0 23 16.5 39t39.5 16t39.5 -16t16.5 -39t-16.5 -39.5t-39.5 -16.5t-39.5 16.5t-16.5 39.5zM415 853q0 23 16.5 39t39.5 16t39 -16t16 -39t-16 -39.5t-39 -16.5t-39.5 16.5t-16.5 39.5z" />
<glyph unicode="&#xdd;" horiz-adv-x="647" d="M38 732h126l160 -363l176 363h126l-245 -493v-239h-116v239zM290 797l97 137h113l-126 -137h-84z" />
<glyph unicode="&#xde;" horiz-adv-x="550" d="M51 0v729h116v-141h165q176 -1 176 -213q0 -59 -11.5 -101.5t-28.5 -66t-42.5 -37t-46 -17.5t-47.5 -4q-4 0 -16.5 -0.5t-16.5 -0.5t-15 0.5t-17 1t-17.5 2t-22.5 3.5t-26.5 5.5t-33.5 7.5v-168h-116zM167 254h137q22 0 36.5 4.5t27 16.5t18 37t5.5 63q0 37 -8 60 t-22.5 32.5t-26.5 12t-30 2.5h-137v-228z" />
<glyph unicode="&#xdf;" horiz-adv-x="571" d="M51 0v566q0 91 61.5 152t171.5 61q70 0 121 -17.5t76.5 -46.5t36.5 -65t5 -73t-23 -71t-43 -59q-11 -10 -31 -28t-27.5 -25t-14.5 -20t-7 -26q0 -16 18.5 -27t44.5 -20.5t52 -22t44.5 -39t18.5 -63.5v-37q0 -42 -15 -72t-40 -45.5t-52.5 -22.5t-57.5 -7q-19 0 -38 1 t-37.5 4t-29.5 4.5t-29.5 5t-22.5 4.5v85q11 -1 29.5 -2t34 -1.5t35.5 -1.5t37 -1q28 0 48.5 16t21.5 44v33q0 19 -18 31.5t-43.5 20.5t-51 19t-43.5 35t-18 60q0 24 4.5 41.5t17.5 35.5t30 33.5t48 39.5q45 37 45 90q0 83 -122 83q-121 0 -121 -138v-534h-116z" />
<glyph unicode="&#xe0;" horiz-adv-x="519" d="M34 132v54q0 62 37 101.5t110 39.5q180 -1 180 0q1 45 0 46q0 41 -18.5 56t-56.5 15q-74 0 -235 -11v75q93 32 248 33q178 1 178 -165v-376h-90l-26 60q-3 -5 -29.5 -20t-71 -30.5t-82.5 -15.5q-67 1 -105.5 40.5t-38.5 97.5zM150 146q0 -31 14 -42.5t39 -11.5 q29 0 68.5 11.5t64.5 22.5l25 11v114l-162 -12q-49 -5 -49 -58v-35zM100 738h112l97 -137h-83z" />
<glyph unicode="&#xe1;" horiz-adv-x="519" d="M34 132v54q0 62 37 101.5t110 39.5q180 -1 180 0q1 45 0 46q0 41 -18.5 56t-56.5 15q-74 0 -235 -11v75q93 32 248 33q178 1 178 -165v-376h-90l-26 60q-3 -5 -29.5 -20t-71 -30.5t-82.5 -15.5q-67 1 -105.5 40.5t-38.5 97.5zM150 146q0 -31 14 -42.5t39 -11.5 q29 0 68.5 11.5t64.5 22.5l25 11v114l-162 -12q-49 -5 -49 -58v-35zM222 601l97 137h112l-126 -137h-83z" />
<glyph unicode="&#xe2;" horiz-adv-x="519" d="M34 132v54q0 62 37 101.5t110 39.5q180 -1 180 0q1 45 0 46q0 41 -18.5 56t-56.5 15q-74 0 -235 -11v75q93 32 248 33q178 1 178 -165v-376h-90l-26 60q-3 -5 -29.5 -20t-71 -30.5t-82.5 -15.5q-67 1 -105.5 40.5t-38.5 97.5zM150 146q0 -31 14 -42.5t39 -11.5 q29 0 68.5 11.5t64.5 22.5l25 11v114l-162 -12q-49 -5 -49 -58v-35zM114 601l111 133h92l99 -133h-85l-63 64l-68 -64h-86zM317 734z" />
<glyph unicode="&#xe3;" horiz-adv-x="519" d="M34 132v54q0 62 37 101.5t110 39.5q180 -1 180 0q1 45 0 46q0 41 -18.5 56t-56.5 15q-74 0 -235 -11v75q93 32 248 33q178 1 178 -165v-376h-90l-26 60q-3 -5 -29.5 -20t-71 -30.5t-82.5 -15.5q-67 1 -105.5 40.5t-38.5 97.5zM150 146q0 -31 14 -42.5t39 -11.5 q29 0 68.5 11.5t64.5 22.5l25 11v114l-162 -12q-49 -5 -49 -58v-35zM91 651q32 32 60 50t59 18q26 -1 59.5 -18t47.5 -17q34 -2 92 37l23 -53q-22 -22 -33.5 -32t-35.5 -22.5t-45 -11.5q-27 1 -59.5 17.5t-50.5 16.5q-15 0 -28.5 -3.5t-21 -7t-22 -12t-22.5 -12.5z" />
<glyph unicode="&#xe4;" horiz-adv-x="519" d="M34 132v54q0 62 37 101.5t110 39.5q180 -1 180 0q1 45 0 46q0 41 -18.5 56t-56.5 15q-74 0 -235 -11v75q93 32 248 33q178 1 178 -165v-376h-90l-26 60q-3 -5 -29.5 -20t-71 -30.5t-82.5 -15.5q-67 1 -105.5 40.5t-38.5 97.5zM150 146q0 -31 14 -42.5t39 -11.5 q29 0 68.5 11.5t64.5 22.5l25 11v114l-162 -12q-49 -5 -49 -58v-35zM80 657q0 23 16.5 39.5t40 16.5t39.5 -16.5t16 -39.5t-16 -39.5t-39 -16.5t-40 16.5t-17 39.5zM335 657q0 23 16.5 39.5t40 16.5t39.5 -16.5t16 -39.5q0 -15 -7.5 -28t-20 -20.5t-27.5 -7.5 q-23 0 -40 16.5t-17 39.5z" />
<glyph unicode="&#xe5;" horiz-adv-x="519" d="M34 132v54q0 62 37 101.5t110 39.5q180 -1 180 0q1 45 0 46q0 41 -18.5 56t-56.5 15q-74 0 -235 -11v75q93 32 248 33q178 1 178 -165v-376h-90l-26 60q-3 -5 -29.5 -20t-71 -30.5t-82.5 -15.5q-67 1 -105.5 40.5t-38.5 97.5zM150 146q0 -31 14 -42.5t39 -11.5 q29 0 68.5 11.5t64.5 22.5l25 11v114l-162 -12q-49 -5 -49 -58v-35zM164 684q0 28 13.5 51.5t37 37t51 13.5t51 -13.5t37 -37t13.5 -51.5q0 -43 -29.5 -72.5t-71.5 -29.5q-21 0 -40 7.5t-32.5 21.5t-21.5 33t-8 40zM218 683.5q0 -19.5 14 -33t33.5 -13.5t33 13.5t13.5 33 t-13.5 33.5t-33 14t-33.5 -14t-14 -33.5z" />
<glyph unicode="&#xe6;" horiz-adv-x="853" d="M34 136v37q0 62 37 101.5t110 39.5q180 -1 180 0q1 62 0 63q0 41 -18.5 56t-56.5 15q-64 0 -235 -12v75q84 33 248 34q94 0 135 -48q28 25 67 33.5t101 8.5q34 0 57.5 -1.5t48 -6t40.5 -13t30.5 -22t23 -33.5t13 -47.5t4.5 -63.5q0 -66 -35.5 -96t-108.5 -30h-189 q0 -53 12 -81t34 -38t62 -10q145 0 215 10v-80q-82 -28 -264 -28q-56 0 -88.5 17t-59.5 52q-7 -13 -86 -42t-133 -28q-67 1 -105.5 40.5t-38.5 97.5zM150 149q0 -32 13.5 -42.5t39.5 -10.5q29 0 68.5 11.5t64.5 22.5l25 11v101l-162 -12q-49 -5 -49 -58v-23zM486 313h166 q51 0 51 43q0 60 -16 74t-79 14h-3q-20 0 -29.5 -0.5t-24.5 -2t-21.5 -4.5t-16 -9.5t-13 -15.5t-7.5 -23t-5.5 -32.5t-1.5 -43.5z" />
<glyph unicode="&#xe7;" horiz-adv-x="496" d="M42 266q0 81 12.5 136t37.5 84t54.5 40t70.5 11q29 0 66.5 -2.5t86 -10t86.5 -18.5v-74q-112 7 -201 7q-22 0 -34.5 -2t-26 -11.5t-20.5 -28t-11.5 -52t-4.5 -82.5q0 -54 5 -87t17 -52t29.5 -25.5t45.5 -6.5q41 0 93 2.5t83 5.5l32 2v-76q-13 -6 -26 -10t-28 -7.5 t-26 -5.5t-28.5 -4t-26.5 -2.5t-28.5 -1.5t-26.5 -1h-28.5h-27.5q-31 0 -56 6.5t-48 24.5t-38 48t-24 78.5t-9 114.5zM164 -125l48 15q19 8 24.5 24t5.5 49h85q0 -78 -23 -109t-85 -31h-55v52z" />
<glyph unicode="&#xe8;" horiz-adv-x="525" d="M42 268q0 58 5.5 100t18 72t29.5 48.5t45 29t59 14t75 3.5q40 0 66.5 -2t53.5 -8.5t43 -19.5t29.5 -34t19 -52.5t5.5 -74.5q0 -130 -144 -130h-189q0 -39 6 -63t20 -37t32.5 -17t49.5 -4q145 0 215 11v-81q-82 -28 -264 -28q-100 0 -137.5 60.5t-37.5 212.5zM158 305h166 q51 0 51 43q0 60 -16.5 76t-78.5 16q-27 0 -40.5 -1t-30 -5t-24 -12t-15 -23t-10 -38t-2.5 -56zM109 732h113l96 -136h-83z" />
<glyph unicode="&#xe9;" horiz-adv-x="525" d="M42 268q0 58 5.5 100t18 72t29.5 48.5t45 29t59 14t75 3.5q40 0 66.5 -2t53.5 -8.5t43 -19.5t29.5 -34t19 -52.5t5.5 -74.5q0 -130 -144 -130h-189q0 -39 6 -63t20 -37t32.5 -17t49.5 -4q145 0 215 11v-81q-82 -28 -264 -28q-100 0 -137.5 60.5t-37.5 212.5zM158 305h166 q51 0 51 43q0 60 -16.5 76t-78.5 16q-27 0 -40.5 -1t-30 -5t-24 -12t-15 -23t-10 -38t-2.5 -56zM229 596l96 136h113l-126 -136h-83z" />
<glyph unicode="&#xea;" horiz-adv-x="525" d="M42 268q0 58 5.5 100t18 72t29.5 48.5t45 29t59 14t75 3.5q40 0 66.5 -2t53.5 -8.5t43 -19.5t29.5 -34t19 -52.5t5.5 -74.5q0 -130 -144 -130h-189q0 -39 6 -63t20 -37t32.5 -17t49.5 -4q145 0 215 11v-81q-82 -28 -264 -28q-100 0 -137.5 60.5t-37.5 212.5zM158 305h166 q51 0 51 43q0 60 -16.5 76t-78.5 16q-27 0 -40.5 -1t-30 -5t-24 -12t-15 -23t-10 -38t-2.5 -56zM118 596l111 134h92l99 -134h-85l-63 64l-68 -64h-86zM321 730z" />
<glyph unicode="&#xeb;" horiz-adv-x="525" d="M42 268q0 58 5.5 100t18 72t29.5 48.5t45 29t59 14t75 3.5q40 0 66.5 -2t53.5 -8.5t43 -19.5t29.5 -34t19 -52.5t5.5 -74.5q0 -130 -144 -130h-189q0 -39 6 -63t20 -37t32.5 -17t49.5 -4q145 0 215 11v-81q-82 -28 -264 -28q-100 0 -137.5 60.5t-37.5 212.5zM158 305h166 q51 0 51 43q0 60 -16.5 76t-78.5 16q-27 0 -40.5 -1t-30 -5t-24 -12t-15 -23t-10 -38t-2.5 -56zM84 652q0 23 16.5 39.5t39.5 16.5t39 -16.5t16 -39.5t-16 -39.5t-39 -16.5t-39.5 16.5t-16.5 39.5zM339 652q0 23 16.5 39.5t39.5 16.5t39 -16.5t16 -39.5t-16 -39.5t-39 -16.5 t-39.5 16.5t-16.5 39.5z" />
<glyph unicode="&#xec;" horiz-adv-x="217" d="M51 0v531h116v-531h-116zM-59 732h113l96 -136h-83z" />
<glyph unicode="&#xed;" horiz-adv-x="217" d="M51 0v531h116v-531h-116zM67 596l97 136h112l-126 -136h-83z" />
<glyph unicode="&#xee;" horiz-adv-x="217" d="M51 0v531h116v-531h-116zM-42 596l111 134h92l99 -134h-85l-63 64l-68 -64h-86zM161 730z" />
<glyph unicode="&#xef;" horiz-adv-x="217" d="M51 0v531h116v-531h-116zM-74 652q0 23 16.5 39.5t39.5 16.5t39 -16.5t16 -39.5t-16 -39.5t-39 -16.5t-39.5 16.5t-16.5 39.5zM181 652q0 23 16.5 39.5t39.5 16.5t39 -16.5t16 -39.5t-16 -39.5t-39 -16.5t-39.5 16.5t-16.5 39.5z" />
<glyph unicode="&#xf0;" horiz-adv-x="539" d="M34 264q0 133 42.5 200t140.5 67h72q58 0 74 -11q-21 68 -64 109l-125 -55l-27 58l86 38q-48 20 -127 16v97q153 0 239 -60l101 45l28 -59l-76 -33q108 -126 108 -412q0 -264 -185 -264h-104q-100 0 -141.5 63t-41.5 201zM150 264q0 -52 5 -83.5t17 -46.5t24.5 -19 t35.5 -4h75q49 0 66 35t17 118q0 97 -16 127.5t-67 30.5h-75q-30 0 -46.5 -11t-26 -46.5t-9.5 -100.5z" />
<glyph unicode="&#xf1;" d="M51 0v531h90l26 -59l9 6q31 21 49.5 31.5t51.5 20.5t68 10q83 0 122 -50.5t39 -129.5v-360h-116v361q0 28 -9 46.5t-24.5 26.5t-36.5 8q-46 0 -77 -11.5t-76 -38.5v-392h-116zM108 650q32 32 60 50t59 18q26 -1 59.5 -18t47.5 -17q34 -2 92 37l23 -53q-17 -17 -25 -23.5 t-25 -19.5t-32.5 -18.5t-31.5 -4.5q-27 1 -60 17.5t-50 16.5q-15 0 -28.5 -3.5t-21 -7t-22 -12t-22.5 -12.5z" />
<glyph unicode="&#xf2;" horiz-adv-x="563" d="M42 258q0 109 23.5 169t74 84.5t142.5 24.5q136 0 187.5 -60t51.5 -218q0 -149 -51.5 -206t-187.5 -57q-69 0 -114.5 14t-73.5 46.5t-40 81t-12 121.5zM158 258q0 -38 3 -65t10.5 -45t16.5 -29t24.5 -16.5t30.5 -7t39 -1.5q30 0 47 2.5t34 11t24.5 26.5t12.5 48t5 76 q0 42 -2.5 70.5t-9 49t-14.5 32t-23.5 18t-31.5 8.5t-42 2t-42 -2t-31.5 -8.5t-24 -18t-15 -32t-9 -49t-2.5 -70.5zM121 732h112l97 -136h-83z" />
<glyph unicode="&#xf3;" horiz-adv-x="563" d="M42 258q0 109 23.5 169t74 84.5t142.5 24.5q136 0 187.5 -60t51.5 -218q0 -149 -51.5 -206t-187.5 -57q-69 0 -114.5 14t-73.5 46.5t-40 81t-12 121.5zM158 258q0 -38 3 -65t10.5 -45t16.5 -29t24.5 -16.5t30.5 -7t39 -1.5q30 0 47 2.5t34 11t24.5 26.5t12.5 48t5 76 q0 42 -2.5 70.5t-9 49t-14.5 32t-23.5 18t-31.5 8.5t-42 2t-42 -2t-31.5 -8.5t-24 -18t-15 -32t-9 -49t-2.5 -70.5zM240 596l97 136h112l-126 -136h-83z" />
<glyph unicode="&#xf4;" horiz-adv-x="563" d="M42 258q0 109 23.5 169t74 84.5t142.5 24.5q136 0 187.5 -60t51.5 -218q0 -149 -51.5 -206t-187.5 -57q-69 0 -114.5 14t-73.5 46.5t-40 81t-12 121.5zM158 258q0 -38 3 -65t10.5 -45t16.5 -29t24.5 -16.5t30.5 -7t39 -1.5q30 0 47 2.5t34 11t24.5 26.5t12.5 48t5 76 q0 42 -2.5 70.5t-9 49t-14.5 32t-23.5 18t-31.5 8.5t-42 2t-42 -2t-31.5 -8.5t-24 -18t-15 -32t-9 -49t-2.5 -70.5zM134 596l111 134h92l99 -134h-85l-63 64l-68 -64h-86zM337 730z" />
<glyph unicode="&#xf5;" horiz-adv-x="563" d="M42 258q0 109 23.5 169t74 84.5t142.5 24.5q136 0 187.5 -60t51.5 -218q0 -149 -51.5 -206t-187.5 -57q-69 0 -114.5 14t-73.5 46.5t-40 81t-12 121.5zM158 258q0 -38 3 -65t10.5 -45t16.5 -29t24.5 -16.5t30.5 -7t39 -1.5q30 0 47 2.5t34 11t24.5 26.5t12.5 48t5 76 q0 42 -2.5 70.5t-9 49t-14.5 32t-23.5 18t-31.5 8.5t-42 2t-42 -2t-31.5 -8.5t-24 -18t-15 -32t-9 -49t-2.5 -70.5zM117 646q32 32 60 50t59 18q26 -1 59.5 -18t47.5 -17q34 -2 92 37l23 -53q-17 -17 -25 -23.5t-25 -19.5t-32.5 -18.5t-31.5 -4.5q-27 1 -60 17.5t-50 16.5 q-15 0 -28.5 -3.5t-21 -7t-22 -12t-22.5 -12.5z" />
<glyph unicode="&#xf6;" horiz-adv-x="563" d="M42 258q0 109 23.5 169t74 84.5t142.5 24.5q136 0 187.5 -60t51.5 -218q0 -149 -51.5 -206t-187.5 -57q-69 0 -114.5 14t-73.5 46.5t-40 81t-12 121.5zM158 258q0 -38 3 -65t10.5 -45t16.5 -29t24.5 -16.5t30.5 -7t39 -1.5q30 0 47 2.5t34 11t24.5 26.5t12.5 48t5 76 q0 42 -2.5 70.5t-9 49t-14.5 32t-23.5 18t-31.5 8.5t-42 2t-42 -2t-31.5 -8.5t-24 -18t-15 -32t-9 -49t-2.5 -70.5zM99 652q0 23 16.5 39.5t39.5 16.5t39 -16.5t16 -39.5t-16 -39.5t-39 -16.5t-39.5 16.5t-16.5 39.5zM354 652q0 23 16.5 39.5t39.5 16.5t39 -16.5t16 -39.5 t-16 -39.5t-39 -16.5t-39.5 16.5t-16.5 39.5z" />
<glyph unicode="&#xf7;" horiz-adv-x="504" d="M42 302v102h420v-102h-420zM196 161v63q0 24 24 24h65q23 0 23 -24v-63q0 -23 -23 -23h-65q-11 0 -17.5 6.5t-6.5 16.5zM196 476v62q0 25 24 25h65q23 0 23 -25v-62q0 -23 -23 -23h-65q-5 0 -8.5 1t-6.5 3t-5 4.5t-3 6.5t-1 8z" />
<glyph unicode="&#xf8;" horiz-adv-x="576" d="M49 258q0 109 23.5 169t74 84.5t142.5 24.5q96 0 147 -27l17 22h73l-46 -59q48 -60 48 -214q0 -149 -51.5 -206t-187.5 -57q-102 0 -155 32l-21 -27h-70l50 65q-44 58 -44 193zM165 258q0 -58 13 -87l190 252q-22 15 -79 15q-26 0 -42 -2t-31.5 -8.5t-24 -18t-15 -32 t-9 -49t-2.5 -70.5zM203 113q22 -19 86 -19q30 0 47 2.5t34 11t24.5 26.5t12.5 48t5 76q0 79 -16 110z" />
<glyph unicode="&#xf9;" d="M42 172v359h116v-361q0 -41 19 -60.5t51 -19.5q46 0 77 11t76 39v391h116v-531h-90l-26 58q-8 -4 -26 -15.5t-27 -16.5t-26 -13t-30 -12t-31.5 -7t-37.5 -3q-83 0 -122 50.5t-39 130.5zM109 732h112l97 -136h-83z" />
<glyph unicode="&#xfa;" d="M42 172v359h116v-361q0 -41 19 -60.5t51 -19.5q46 0 77 11t76 39v391h116v-531h-90l-26 58q-8 -4 -26 -15.5t-27 -16.5t-26 -13t-30 -12t-31.5 -7t-37.5 -3q-83 0 -122 50.5t-39 130.5zM228 596l97 136h112l-126 -136h-83z" />
<glyph unicode="&#xfb;" d="M42 172v359h116v-361q0 -41 19 -60.5t51 -19.5q46 0 77 11t76 39v391h116v-531h-90l-26 58q-8 -4 -26 -15.5t-27 -16.5t-26 -13t-30 -12t-31.5 -7t-37.5 -3q-83 0 -122 50.5t-39 130.5zM119 596l111 134h92l99 -134h-85l-63 64l-68 -64h-86zM322 730z" />
<glyph unicode="&#xfc;" d="M42 172v359h116v-361q0 -41 19 -60.5t51 -19.5q46 0 77 11t76 39v391h116v-531h-90l-26 58q-8 -4 -26 -15.5t-27 -16.5t-26 -13t-30 -12t-31.5 -7t-37.5 -3q-83 0 -122 50.5t-39 130.5zM87 652q0 23 16.5 39.5t39.5 16.5t39 -16.5t16 -39.5t-16 -39.5t-39 -16.5 t-39.5 16.5t-16.5 39.5zM342 652q0 23 16.5 39.5t39.5 16.5t39 -16.5t16 -39.5t-16 -39.5t-39 -16.5t-39.5 16.5t-16.5 39.5z" />
<glyph unicode="&#xfd;" horiz-adv-x="569" d="M18 531h123l105 -387q3 -12 8.5 -20t11.5 -12t12.5 -6t11 -2t9.5 0.5l5 0.5l123 426h123l-202 -699l-74 -102h-80l82 270q-109 0 -145 126zM242 596l97 136h112l-126 -136h-83z" />
<glyph unicode="&#xfe;" horiz-adv-x="555" d="M59 -270v1052h116v-310q29 23 79 44t94 21q174 0 174 -272q0 -48 -3.5 -85t-14.5 -75t-29.5 -62t-51 -39.5t-75.5 -15.5q-37 0 -86 10t-87 28v-296h-116zM175 106q9 -3 18 -5.5t19 -4.5t17 -3t18 -2.5t16 -2t17 -1t14.5 -1t16 -1t14.5 -0.5q20 0 33.5 7.5t25 26t17 54.5 t5.5 90q0 170 -81 170q-76 -3 -150 -40v-287z" />
<glyph unicode="&#xff;" horiz-adv-x="569" d="M18 531h123l105 -387q3 -12 8.5 -20t11.5 -12t12.5 -6t11 -2t9.5 0.5l5 0.5l123 426h123l-202 -699l-74 -102h-80l82 270q-109 0 -145 126zM101 652q0 23 16.5 39.5t39.5 16.5t39 -16.5t16 -39.5t-16 -39.5t-39 -16.5t-39.5 16.5t-16.5 39.5zM356 652q0 23 16.5 39.5 t39.5 16.5t39 -16.5t16 -39.5t-16 -39.5t-39 -16.5t-39.5 16.5t-16.5 39.5z" />
<glyph unicode="&#x100;" horiz-adv-x="684" d="M38 0l255 732h128l245 -732h-127l-56 177h-259l-57 -177h-129zM257 283h196l-96 291zM211 797v73h292v-73h-292z" />
<glyph unicode="&#x101;" horiz-adv-x="519" d="M34 132v54q0 62 37 101.5t110 39.5q180 -1 180 0q1 45 0 46q0 41 -18.5 56t-56.5 15q-74 0 -235 -11v75q93 32 248 33q178 1 178 -165v-376h-90l-26 60q-3 -5 -29.5 -20t-71 -30.5t-82.5 -15.5q-67 1 -105.5 40.5t-38.5 97.5zM150 146q0 -31 14 -42.5t39 -11.5 q29 0 68.5 11.5t64.5 22.5l25 11v114l-162 -12q-49 -5 -49 -58v-35zM125 601v73h292v-73h-292z" />
<glyph unicode="&#x102;" horiz-adv-x="684" d="M38 0l255 732h128l245 -732h-127l-56 177h-259l-57 -177h-129zM257 283h196l-96 291zM242 911h54q0 -17 8.5 -31t22 -21.5t29.5 -7.5q29 0 45.5 16t16.5 44h54q0 -35 -16.5 -61.5t-42.5 -39.5t-57 -13q-15 0 -29 3.5t-27 10.5t-23.5 17t-18 22t-12 28t-4.5 33z" />
<glyph unicode="&#x103;" horiz-adv-x="519" d="M34 132v54q0 62 37 101.5t110 39.5q180 -1 180 0q1 45 0 46q0 41 -18.5 56t-56.5 15q-74 0 -235 -11v75q93 32 248 33q178 1 178 -165v-376h-90l-26 60q-3 -5 -29.5 -20t-71 -30.5t-82.5 -15.5q-67 1 -105.5 40.5t-38.5 97.5zM150 146q0 -31 14 -42.5t39 -11.5 q29 0 68.5 11.5t64.5 22.5l25 11v114l-162 -12q-49 -5 -49 -58v-35zM156 715h54q0 -26 17.5 -43t42.5 -17q29 0 45.5 16t16.5 44h54q0 -35 -16.5 -61.5t-42.5 -39.5t-57 -13q-47 0 -80.5 31.5t-33.5 82.5z" />
<glyph unicode="&#x104;" horiz-adv-x="684" d="M38 0l255 732h128l245 -732h-127l-56 177h-259l-57 -177h-129zM257 283h196l-96 291zM581 1h50q-39 -30 -48.5 -57.5t6.5 -42.5t48 -14v-71q-32 -6 -62 4t-47 31.5t-21.5 47.5t14.5 54t60 48z" />
<glyph unicode="&#x105;" horiz-adv-x="519" d="M34 132v54q0 62 37 101.5t110 39.5q180 -1 180 0q1 45 0 46q0 41 -18.5 56t-56.5 15q-74 0 -235 -11v75q93 32 248 33q178 1 178 -165v-376h-90l-26 60q-3 -5 -29.5 -20t-71 -30.5t-82.5 -15.5q-67 1 -105.5 40.5t-38.5 97.5zM150 146q0 -31 14 -42.5t39 -11.5 q29 0 68.5 11.5t64.5 22.5l25 11v114l-162 -12q-49 -5 -49 -58v-35zM409 0h50q-39 -30 -48.5 -57t6.5 -42t48 -15v-70q-31 -7 -61.5 3.5t-47 32t-21.5 47.5t14 54t60 47z" />
<glyph unicode="&#x106;" horiz-adv-x="574" d="M47 368q0 61 4.5 109t15 91t29 74t45.5 53.5t65.5 33.5t87.5 11q134 0 251 -30v-91l-8 0.5t-21.5 1.5t-31.5 2.5t-39 2.5t-42.5 2.5t-45 2t-42.5 0.5q-36 0 -59 -5.5t-42.5 -21.5t-29.5 -46t-15.5 -76.5t-5.5 -115.5q0 -133 33 -198t119 -65q47 0 104.5 2t91.5 4l34 2 v-91q-105 -28 -251 -26q-68 0 -116.5 26.5t-77 77t-41 116.5t-12.5 154zM289 800l97 136h112l-126 -136h-83z" />
<glyph unicode="&#x107;" horiz-adv-x="496" d="M42 266q0 66 9 114t23.5 77.5t37.5 47.5t48 24.5t57 6.5q134 0 239 -30v-74q-112 6 -201 6q-22 0 -34 -2t-26 -11.5t-21 -27.5t-11.5 -51.5t-4.5 -82.5q0 -71 10 -107.5t29.5 -49t57.5 -12.5q41 0 93 2t83 5l32 2v-76q-13 -5 -26 -9.5t-28 -7.5t-26 -5.5t-28.5 -4 t-26.5 -2.5t-28.5 -1.5t-26.5 -1t-28.5 -0.5h-27.5q-32 0 -56.5 6.5t-47.5 24.5t-38 47.5t-24 78t-9 114.5zM231 597l96 137h113l-126 -137h-83z" />
<glyph unicode="&#x108;" horiz-adv-x="574" d="M47 368q0 61 4.5 109t15 91t29 74t45.5 53.5t65.5 33.5t87.5 11q134 0 251 -30v-91l-8 0.5t-21.5 1.5t-31.5 2.5t-39 2.5t-42.5 2.5t-45 2t-42.5 0.5q-36 0 -59 -5.5t-42.5 -21.5t-29.5 -46t-15.5 -76.5t-5.5 -115.5q0 -133 33 -198t119 -65q47 0 104.5 2t91.5 4l34 2 v-91q-105 -28 -251 -26q-68 0 -116.5 26.5t-77 77t-41 116.5t-12.5 154zM179 800l111 134h92l99 -134h-85l-63 64l-68 -64h-86zM382 934z" />
<glyph unicode="&#x109;" horiz-adv-x="496" d="M42 266q0 66 9 114t23.5 77.5t37.5 47.5t48 24.5t57 6.5q134 0 239 -30v-74q-112 6 -201 6q-22 0 -34 -2t-26 -11.5t-21 -27.5t-11.5 -51.5t-4.5 -82.5q0 -71 10 -107.5t29.5 -49t57.5 -12.5q41 0 93 2t83 5l32 2v-76q-13 -5 -26 -9.5t-28 -7.5t-26 -5.5t-28.5 -4 t-26.5 -2.5t-28.5 -1.5t-26.5 -1t-28.5 -0.5h-27.5q-32 0 -56.5 6.5t-47.5 24.5t-38 47.5t-24 78t-9 114.5zM123 597l111 134h92l100 -134h-85l-63 64l-69 -64h-86zM326 731z" />
<glyph unicode="&#x10a;" horiz-adv-x="574" d="M47 368q0 61 4.5 109t15 91t29 74t45.5 53.5t65.5 33.5t87.5 11q134 0 251 -30v-91l-8 0.5t-21.5 1.5t-31.5 2.5t-39 2.5t-42.5 2.5t-45 2t-42.5 0.5q-36 0 -59 -5.5t-42.5 -21.5t-29.5 -46t-15.5 -76.5t-5.5 -115.5q0 -133 33 -198t119 -65q47 0 104.5 2t91.5 4l34 2 v-91q-105 -28 -251 -26q-68 0 -116.5 26.5t-77 77t-41 116.5t-12.5 154zM278 824v68q0 25 24 25h64q11 0 17 -7t6 -18v-68q0 -23 -23 -23h-64q-11 0 -17.5 6.5t-6.5 16.5z" />
<glyph unicode="&#x10b;" horiz-adv-x="496" d="M42 266q0 66 9 114t23.5 77.5t37.5 47.5t48 24.5t57 6.5q134 0 239 -30v-74q-112 6 -201 6q-22 0 -34 -2t-26 -11.5t-21 -27.5t-11.5 -51.5t-4.5 -82.5q0 -71 10 -107.5t29.5 -49t57.5 -12.5q41 0 93 2t83 5l32 2v-76q-13 -5 -26 -9.5t-28 -7.5t-26 -5.5t-28.5 -4 t-26.5 -2.5t-28.5 -1.5t-26.5 -1t-28.5 -0.5h-27.5q-32 0 -56.5 6.5t-47.5 24.5t-38 47.5t-24 78t-9 114.5zM232 622v68q0 25 24 25h64q11 0 17 -7t6 -18v-68q0 -23 -23 -23h-64q-11 0 -17.5 6t-6.5 17z" />
<glyph unicode="&#x10c;" horiz-adv-x="574" d="M47 368q0 61 4.5 109t15 91t29 74t45.5 53.5t65.5 33.5t87.5 11q134 0 251 -30v-91l-8 0.5t-21.5 1.5t-31.5 2.5t-39 2.5t-42.5 2.5t-45 2t-42.5 0.5q-36 0 -59 -5.5t-42.5 -21.5t-29.5 -46t-15.5 -76.5t-5.5 -115.5q0 -133 33 -198t119 -65q47 0 104.5 2t91.5 4l34 2 v-91q-105 -28 -251 -26q-68 0 -116.5 26.5t-77 77t-41 116.5t-12.5 154zM186 934h85l69 -64l63 64h85l-103 -134h-92zM385 800z" />
<glyph unicode="&#x10d;" horiz-adv-x="496" d="M42 266q0 66 9 114t23.5 77.5t37.5 47.5t48 24.5t57 6.5q134 0 239 -30v-74q-112 6 -201 6q-22 0 -34 -2t-26 -11.5t-21 -27.5t-11.5 -51.5t-4.5 -82.5q0 -71 10 -107.5t29.5 -49t57.5 -12.5q41 0 93 2t83 5l32 2v-76q-13 -5 -26 -9.5t-28 -7.5t-26 -5.5t-28.5 -4 t-26.5 -2.5t-28.5 -1.5t-26.5 -1t-28.5 -0.5h-27.5q-32 0 -56.5 6.5t-47.5 24.5t-38 47.5t-24 78t-9 114.5zM119 731h85l69 -64l63 64h85l-103 -134h-92zM318 597z" />
<glyph unicode="&#x10e;" horiz-adv-x="660" d="M68 0v732h297q256 0 256 -369q0 -76 -14.5 -140t-44.5 -115t-80.5 -79.5t-116.5 -28.5h-297zM184 107h174q51 0 84.5 34t48 89.5t14.5 133.5q0 99 -18.5 158t-49.5 81.5t-79 22.5h-174v-519zM167 927h85l70 -64l62 64h85l-102 -133h-92zM367 794z" />
<glyph unicode="&#x10f;" horiz-adv-x="588" d="M42 263q0 51 4 89.5t15 75t30 60t50.5 37.5t74.5 14q36 0 85.5 -10t88.5 -27v283h115v-785h-92l-23 56q-17 -14 -44 -27.5t-63 -24t-67 -10.5q-174 0 -174 269zM158 266q0 -89 20.5 -129t60.5 -40q79 0 151 38v285q-69 22 -151 22q-27 0 -44 -13t-27 -52.5t-10 -110.5z M555 781h88v-67l-10 -134h-68l-10 134v67z" />
<glyph unicode="&#x110;" horiz-adv-x="660" d="M3 342v62h65v327q0 1 297 1q256 0 256 -369q0 -77 -14.5 -140.5t-44 -114.5t-80 -79.5t-117.5 -28.5h-297v342h-65zM184 107h174q145 0 145 257q0 73 -10 124.5t-30 80.5t-45.5 41.5t-59.5 12.5h-174v-219h121v-62h-121v-235z" />
<glyph unicode="&#x111;" horiz-adv-x="560" d="M40 263q0 51 4 89.5t15 75t29.5 60t50.5 37.5t75 14q36 0 85.5 -10t88.5 -27v107h-112v61h112v115h115v-115h68v-61h-68v-609h-92l-23 56q-28 -22 -79 -42t-95 -20q-174 0 -174 269zM156 266q0 -89 20.5 -129t60.5 -40q79 0 151 38v285q-69 22 -151 22q-28 0 -44.5 -13 t-26.5 -52.5t-10 -110.5z" />
<glyph unicode="&#x112;" horiz-adv-x="567" d="M66 136v452q0 55 23.5 89t54.5 45t69 10q279 -10 320 -16v-95h-299q-19 0 -30 -4t-15.5 -14t-5.5 -17t-1 -21v-145l307 -10v-95l-307 -10v-145q0 -16 4.5 -26t9 -15.5t14.5 -8t16 -2.5h18h289v-94q-16 -2 -93.5 -6.5t-147.5 -7.5l-69 -3q-22 -1 -41.5 1t-41.5 10.5 t-37.5 23t-26 41.5t-10.5 63zM168 796v73h292v-73h-292z" />
<glyph unicode="&#x113;" horiz-adv-x="525" d="M42 268q0 58 5.5 100t18 72t29.5 48.5t45 29t59 14t75 3.5q40 0 66.5 -2t53.5 -8.5t43 -19.5t29.5 -34t19 -52.5t5.5 -74.5q0 -130 -144 -130h-189q0 -39 6 -63t20 -37t32.5 -17t49.5 -4q145 0 215 11v-81q-82 -28 -264 -28q-100 0 -137.5 60.5t-37.5 212.5zM158 305h166 q51 0 51 43q0 60 -16.5 76t-78.5 16q-27 0 -40.5 -1t-30 -5t-24 -12t-15 -23t-10 -38t-2.5 -56zM127 595v74h292v-74h-292z" />
<glyph unicode="&#x116;" horiz-adv-x="567" d="M66 136v452q0 55 23.5 89t54.5 45t69 10q279 -10 320 -16v-95h-299q-19 0 -30 -4t-15.5 -14t-5.5 -17t-1 -21v-145l307 -10v-95l-307 -10v-145q0 -16 4.5 -26t9 -15.5t14.5 -8t16 -2.5h18h289v-94q-16 -2 -93.5 -6.5t-147.5 -7.5l-69 -3q-22 -1 -41.5 1t-41.5 10.5 t-37.5 23t-26 41.5t-10.5 63zM268 818v68q0 25 24 25h64q11 0 17 -7t6 -18v-68q0 -23 -23 -23h-64q-11 0 -17.5 6.5t-6.5 16.5z" />
<glyph unicode="&#x117;" horiz-adv-x="525" d="M42 268q0 58 5.5 100t18 72t29.5 48.5t45 29t59 14t75 3.5q40 0 66.5 -2t53.5 -8.5t43 -19.5t29.5 -34t19 -52.5t5.5 -74.5q0 -130 -144 -130h-189q0 -39 6 -63t20 -37t32.5 -17t49.5 -4q145 0 215 11v-81q-82 -28 -264 -28q-100 0 -137.5 60.5t-37.5 212.5zM158 305h166 q51 0 51 43q0 60 -16.5 76t-78.5 16q-27 0 -40.5 -1t-30 -5t-24 -12t-15 -23t-10 -38t-2.5 -56zM216 619v68q0 25 24 25h64q11 0 17 -7t6 -18v-68q0 -23 -23 -23h-64q-10 0 -17 6.5t-7 16.5z" />
<glyph unicode="&#x118;" horiz-adv-x="567" d="M66 136v452q0 55 23.5 89t54.5 45t69 10q279 -10 320 -16v-95h-299q-19 0 -30 -4t-15.5 -14t-5.5 -17t-1 -21v-145l307 -10v-95l-307 -10v-145q0 -16 4.5 -26t9 -15.5t14.5 -8t16 -2.5h18h289v-94q-16 -2 -93.5 -6.5t-147.5 -7.5l-69 -3q-22 -1 -41.5 1t-41.5 10.5 t-37.5 23t-26 41.5t-10.5 63zM483 14h50q-39 -30 -48.5 -57t6.5 -42t48 -15v-70q-31 -7 -61.5 3.5t-47 32t-21.5 47.5t14 53.5t60 47.5z" />
<glyph unicode="&#x119;" horiz-adv-x="525" d="M42 268q0 58 5.5 100t18 72t29.5 48.5t45 29t59 14t75 3.5q40 0 66.5 -2t53.5 -8.5t43 -19.5t29.5 -34t19 -52.5t5.5 -74.5q0 -130 -144 -130h-189q0 -39 6 -63t20 -37t32.5 -17t49.5 -4q145 0 215 11v-81q-82 -28 -264 -28q-100 0 -137.5 60.5t-37.5 212.5zM158 305h166 q51 0 51 43q0 60 -16.5 76t-78.5 16q-27 0 -40.5 -1t-30 -5t-24 -12t-15 -23t-10 -38t-2.5 -56zM432 23h49q-38 -30 -48 -57t6 -42t49 -15v-71q-32 -6 -62 4.5t-47 32t-22 47t14 53.5t61 48z" />
<glyph unicode="&#x11a;" horiz-adv-x="567" d="M66 136v452q0 55 23.5 89t54.5 45t69 10q279 -10 320 -16v-95h-299q-19 0 -30 -4t-15.5 -14t-5.5 -17t-1 -21v-145l307 -10v-95l-307 -10v-145q0 -16 4.5 -26t9 -15.5t14.5 -8t16 -2.5h18h289v-94q-16 -2 -93.5 -6.5t-147.5 -7.5l-69 -3q-22 -1 -41.5 1t-41.5 10.5 t-37.5 23t-26 41.5t-10.5 63zM167 927h85l69 -64l63 64h85l-103 -133h-92zM366 794z" />
<glyph unicode="&#x11b;" horiz-adv-x="525" d="M42 268q0 58 5.5 100t18 72t29.5 48.5t45 29t59 14t75 3.5q40 0 66.5 -2t53.5 -8.5t43 -19.5t29.5 -34t19 -52.5t5.5 -74.5q0 -130 -144 -130h-189q0 -39 6 -63t20 -37t32.5 -17t49.5 -4q145 0 215 11v-81q-82 -28 -264 -28q-100 0 -137.5 60.5t-37.5 212.5zM158 305h166 q51 0 51 43q0 60 -16.5 76t-78.5 16q-27 0 -40.5 -1t-30 -5t-24 -12t-15 -23t-10 -38t-2.5 -56zM124 726h86l69 -64l63 64h85l-103 -133h-92zM324 593z" />
<glyph unicode="&#x11c;" horiz-adv-x="614" d="M47 370q0 67 5 118.5t20.5 101t41.5 81t69 50.5t101 19q139 0 271 -30v-91q-1 0 -17.5 1.5t-42.5 4t-56.5 4.5t-67 3.5t-66.5 1.5q-86 0 -114 -59t-28 -207q0 -153 28.5 -207.5t110.5 -55.5q20 0 43 4.5t41 11.5t33.5 13.5t24.5 11.5l8 5v156h-126v75q67 24 174 24 q32 0 68 -2v-404h-84l-30 49q-67 -52 -169 -54q-61 -2 -104.5 17t-69 51t-40.5 83.5t-19.5 102.5t-4.5 121zM183 800l111 134h92l100 -134h-85l-63 64l-69 -64h-86zM386 934z" />
<glyph unicode="&#x11d;" horiz-adv-x="558" d="M40 107q0 31 15.5 56.5t45.5 33.5q-31 20 -45 60.5t-14 86.5q0 94 46.5 141.5t133.5 47.5h319v-73l-67 -18l5.5 -11t6 -12.5t4.5 -13.5t4.5 -18.5t2.5 -22.5t1 -30q0 -24 -4 -47t-15.5 -49t-30 -45t-51 -31.5t-74.5 -12.5h-135q-41 0 -41 -26q0 -29 41 -29h181 q69 0 108 -39t39 -111v-60q0 -23 -4 -43.5t-15 -41t-28.5 -35.5t-46.5 -24.5t-67 -9.5h-150q-73 0 -118 39t-45 115v74l44 54q-21 13 -33.5 38.5t-12.5 56.5zM158 -105q0 -41 19.5 -54t52.5 -13h107q37 0 50 17t13 48v46q0 14 -2.5 24t-9 17.5t-18 11t-28.5 3.5h-141 q-10 0 -21 1t-16 3l-6 1v-105zM158 344q0 -96 75 -96h71q44 0 61.5 27.5t16.5 68.5q-1 48 -18 69t-61 21h-67q-45 0 -61.5 -24.5t-16.5 -65.5zM126 597l111 133h92l99 -133h-85l-63 64l-68 -64h-86zM329 730z" />
<glyph unicode="&#x11e;" horiz-adv-x="614" d="M47 370q0 67 5 118.5t20.5 101t41.5 81t69 50.5t101 19q139 0 271 -30v-91q-1 0 -17.5 1.5t-42.5 4t-56.5 4.5t-67 3.5t-66.5 1.5q-86 0 -114 -59t-28 -207q0 -153 28.5 -207.5t110.5 -55.5q20 0 43 4.5t41 11.5t33.5 13.5t24.5 11.5l8 5v156h-126v75q67 24 174 24 q32 0 68 -2v-404h-84l-30 49q-67 -52 -169 -54q-61 -2 -104.5 17t-69 51t-40.5 83.5t-19.5 102.5t-4.5 121zM215 914h54q0 -17 8 -31t22 -21.5t30 -7.5q29 0 45.5 16t16.5 44h54q0 -53 -34 -83.5t-82 -30.5q-30 0 -56 13.5t-42 40t-16 60.5z" />
<glyph unicode="&#x11f;" horiz-adv-x="558" d="M40 107q0 31 15.5 56.5t45.5 33.5q-31 20 -45 60.5t-14 86.5q0 94 46.5 141.5t133.5 47.5h319v-73l-67 -18l5.5 -11t6 -12.5t4.5 -13.5t4.5 -18.5t2.5 -22.5t1 -30q0 -24 -4 -47t-15.5 -49t-30 -45t-51 -31.5t-74.5 -12.5h-135q-41 0 -41 -26q0 -29 41 -29h181 q69 0 108 -39t39 -111v-60q0 -23 -4 -43.5t-15 -41t-28.5 -35.5t-46.5 -24.5t-67 -9.5h-150q-73 0 -118 39t-45 115v74l44 54q-21 13 -33.5 38.5t-12.5 56.5zM158 -105q0 -41 19.5 -54t52.5 -13h107q37 0 50 17t13 48v46q0 14 -2.5 24t-9 17.5t-18 11t-28.5 3.5h-141 q-10 0 -21 1t-16 3l-6 1v-105zM158 344q0 -96 75 -96h71q44 0 61.5 27.5t16.5 68.5q-1 48 -18 69t-61 21h-67q-45 0 -61.5 -24.5t-16.5 -65.5zM162 711h54q0 -27 17.5 -43.5t42.5 -16.5q28 0 45 16t17 44h54q0 -53 -34 -83.5t-82 -30.5q-47 0 -80.5 31.5t-33.5 82.5z" />
<glyph unicode="&#x120;" horiz-adv-x="614" d="M47 370q0 67 5 118.5t20.5 101t41.5 81t69 50.5t101 19q139 0 271 -30v-91q-1 0 -17.5 1.5t-42.5 4t-56.5 4.5t-67 3.5t-66.5 1.5q-86 0 -114 -59t-28 -207q0 -153 28.5 -207.5t110.5 -55.5q20 0 43 4.5t41 11.5t33.5 13.5t24.5 11.5l8 5v156h-126v75q67 24 174 24 q32 0 68 -2v-404h-84l-30 49q-67 -52 -169 -54q-61 -2 -104.5 17t-69 51t-40.5 83.5t-19.5 102.5t-4.5 121zM271 823v68q0 25 24 25h64q11 0 17 -7t6 -18v-68q0 -23 -23 -23h-64q-11 0 -17.5 6.5t-6.5 16.5z" />
<glyph unicode="&#x121;" horiz-adv-x="558" d="M40 107q0 31 15.5 56.5t45.5 33.5q-31 20 -45 60.5t-14 86.5q0 94 46.5 141.5t133.5 47.5h319v-73l-67 -18l5.5 -11t6 -12.5t4.5 -13.5t4.5 -18.5t2.5 -22.5t1 -30q0 -24 -4 -47t-15.5 -49t-30 -45t-51 -31.5t-74.5 -12.5h-135q-41 0 -41 -26q0 -29 41 -29h181 q69 0 108 -39t39 -111v-60q0 -23 -4 -43.5t-15 -41t-28.5 -35.5t-46.5 -24.5t-67 -9.5h-150q-73 0 -118 39t-45 115v74l44 54q-21 13 -33.5 38.5t-12.5 56.5zM158 -105q0 -41 19.5 -54t52.5 -13h107q37 0 50 17t13 48v46q0 14 -2.5 24t-9 17.5t-18 11t-28.5 3.5h-141 q-10 0 -21 1t-16 3l-6 1v-105zM158 344q0 -96 75 -96h71q44 0 61.5 27.5t16.5 68.5q-1 48 -18 69t-61 21h-67q-45 0 -61.5 -24.5t-16.5 -65.5zM224 621v68q0 25 24 25h64q11 0 17 -7t6 -18v-68q0 -23 -23 -23h-64q-11 0 -17.5 6.5t-6.5 16.5z" />
<glyph unicode="&#x122;" horiz-adv-x="614" d="M47 370q0 67 5 118.5t20.5 101t41.5 81t69 50.5t101 19q139 0 271 -30v-91q-1 0 -17.5 1.5t-42.5 4t-56.5 4.5t-67 3.5t-66.5 1.5q-86 0 -114 -59t-28 -207q0 -153 28.5 -207.5t110.5 -55.5q20 0 43 4.5t41 11.5t33.5 13.5t24.5 11.5l8 5v156h-126v75q67 24 174 24 q32 0 68 -2v-404h-84l-30 49q-67 -52 -169 -54q-61 -2 -104.5 17t-69 51t-40.5 83.5t-19.5 102.5t-4.5 121zM262 -168v68q0 24 22 24h65q22 0 22 -24v-100q0 -27 -11 -43.5t-26.5 -22t-30.5 -7t-26 0.5l-11 2v39q13 -1 19.5 4t7.5 9.5t1 11.5v16h-10q-22 0 -22 22z" />
<glyph unicode="&#x123;" horiz-adv-x="558" d="M220 617v100q0 27 11 43.5t26 22t30.5 7t26.5 -0.5l11 -2v-39q-13 1 -19.5 -4t-7.5 -9.5t-1 -10.5v-17h10q22 0 22 -22v-68q0 -24 -22 -24h-65q-22 0 -22 24zM40 106q0 34 15 59.5t46 31.5q-31 20 -45 60.5t-14 86.5q0 94 46.5 141.5t133.5 47.5h319v-73l-67 -18l5.5 -11 t6 -12.5t4.5 -13.5t4.5 -18.5t2.5 -22.5t1 -30q0 -24 -4 -47t-15.5 -49t-30 -45t-51 -31.5t-74.5 -12.5h-135q-41 0 -41 -27q0 -16 10 -21.5t31 -8.5l173 -20q75 -9 115 -45t40 -110v-33q0 -23 -4 -43.5t-15 -41t-28.5 -35.5t-46.5 -24.5t-67 -9.5h-150q-73 0 -118 39 t-45 115v78l48 53q-50 31 -50 91zM158 -105q0 -41 19.5 -54t51.5 -13h108q37 0 50 17t13 48v23q0 50 -71 58l-121 16l-50 7v-102zM158 344q0 -100 75 -100h71q43 0 61 29t17 71q-1 50 -18 72t-61 22h-67q-78 0 -78 -94z" />
<glyph unicode="&#x124;" horiz-adv-x="637" d="M68 0v732h116v-324h287v324h116v-732h-116v300h-287v-300h-116zM176 797l111 133h92l99 -133h-84l-64 64l-68 -64h-86zM379 930z" />
<glyph unicode="&#x125;" d="M24 0v783h116v-311q2 2 8 6q31 21 49.5 31t52 20.5t68.5 10.5q83 0 122 -50.5t39 -129.5v-360h-116v361q0 81 -70 81q-46 0 -77 -11.5t-76 -38.5v-392h-116zM-68 843l111 134h92l99 -134h-85l-63 64l-68 -64h-86zM135 977z" />
<glyph unicode="&#x126;" horiz-adv-x="676" d="M16 516v61h63v155h116v-155h287v155h116v-155h61v-61h-61v-516h-116v300h-287v-300h-116v516h-63zM195 408h287v108h-287v-108z" />
<glyph unicode="&#x127;" horiz-adv-x="556" d="M-11 606v62h71v115h118v-115h120v-61h-120v-134q41 24 59 33.5t54 21.5t69 12q42 1 73 -13t48.5 -39.5t25.5 -57t8 -69.5v-361h-118v360q-1 42 -18 62.5t-55 20.5q-67 -3 -146 -51v-392h-118v606h-71z" />
<glyph unicode="&#x128;" horiz-adv-x="234" d="M68 0v732h116v-732h-116zM-45 847q32 32 60.5 50t59.5 18q25 -1 58.5 -18t47.5 -17q34 -2 92 37l23 -53q-22 -22 -33.5 -32t-35.5 -22.5t-44 -11.5q-27 1 -60 17.5t-51 16.5q-15 0 -28 -3.5t-20.5 -7t-22.5 -12t-23 -12.5z" />
<glyph unicode="&#x129;" horiz-adv-x="217" d="M51 0v531h116v-531h-116zM-62 646q33 32 61 50t59 18q26 -1 59 -18t48 -17q33 -2 91 37l24 -53q-23 -22 -34.5 -32t-35.5 -22.5t-44 -11.5q-27 1 -60 17.5t-50 16.5q-15 0 -28.5 -3.5t-21 -7t-22.5 -12t-23 -12.5z" />
<glyph unicode="&#x12a;" horiz-adv-x="234" d="M68 0v732h116v-732h-116zM-20 797v73h292v-73h-292z" />
<glyph unicode="&#x12b;" horiz-adv-x="217" d="M51 0v531h116v-531h-116zM-37 596v74h292v-74h-292z" />
<glyph unicode="&#x12e;" horiz-adv-x="234" d="M68 0v732h116v-732h-116zM106 0h50q-39 -30 -48.5 -57t6.5 -42t48 -15v-70q-32 -7 -62 3.5t-46.5 32t-21.5 47.5t14 54t60 47z" />
<glyph unicode="&#x12f;" horiz-adv-x="216" d="M42 612v76q0 26 24 26h85q11 0 17 -7.5t6 -18.5v-76q0 -23 -23 -23h-85q-10 0 -17 6.5t-7 16.5zM49 0v531h116v-531h-116zM87 0h50q-39 -30 -48.5 -57t6.5 -42t48 -15v-70q-32 -7 -62 3.5t-47 32t-21.5 47.5t14.5 54t60 47z" />
<glyph unicode="&#x130;" horiz-adv-x="234" d="M68 0v732h116v-732h-116zM70 820v68q0 25 24 25h64q11 0 17 -7t6 -18v-68q0 -23 -23 -23h-64q-10 0 -17 6.5t-7 16.5z" />
<glyph unicode="&#x131;" horiz-adv-x="217" d="M51 0v531h116v-531h-116z" />
<glyph unicode="&#x134;" horiz-adv-x="357" d="M30 22l2 89h7l30 -4.5t27.5 -2.5t26.5 1t22 5t19.5 11t13.5 18.5t10 27t3 37.5v528h116v-567q0 -31 -2.5 -53t-15 -50.5t-35.5 -43.5q-40 -25 -112.5 -23t-111.5 27zM98 797l111 133h92l99 -133h-85l-63 64l-68 -64h-86zM301 930z" />
<glyph unicode="&#x135;" horiz-adv-x="233" d="M-34 597l111 153h92l100 -153h-78l-71 77l-74 -77h-80zM60 -270v801h119v-535q2 -165 -33 -266h-86zM169 750z" />
<glyph unicode="&#x136;" horiz-adv-x="615" d="M68 0v732h112v-314h68l201 314h137l-234 -366l234 -366h-137l-201 312h-67v-312h-113zM256 -163v68q0 24 22 24h65q22 0 22 -24v-100q0 -27 -11 -43.5t-26.5 -22t-30.5 -7t-26 0.5l-11 3v38q8 -1 13.5 1t8.5 4.5t4.5 6t1.5 6.5v6v17h-10q-22 0 -22 22z" />
<glyph unicode="&#x137;" horiz-adv-x="536" d="M51 0v782h116v-433h33l170 182h150l-213 -229l213 -302h-139l-181 254h-33v-254h-116zM215 -163v68q0 24 23 24h64q22 0 22 -24v-100q0 -20 -6 -34t-15 -21.5t-20 -12t-22 -5t-20.5 0t-15.5 1.5l-5 2v38q12 -1 18.5 4t7.5 9.5t1 10.5v17h-9q-23 0 -23 22z" />
<glyph unicode="&#x138;" horiz-adv-x="550" d="M51 0v531h116v-221h63l163 221h141l-199 -267l181 -264h-138l-151 216h-59l-1 -216h-116z" />
<glyph unicode="&#x139;" horiz-adv-x="546" d="M68 136v596h116v-571q0 -19 4.5 -30.5t16 -15.5t18.5 -5t23 -1h271v-109h-303q-31 0 -55 5.5t-45.5 20t-33.5 42.5t-12 68zM84 797l97 137h112l-126 -137h-83z" />
<glyph unicode="&#x13a;" horiz-adv-x="308" d="M51 189v594h116v-580q0 -56 12 -78t38 -30q68 -21 75 -21v-74h-106q-66 0 -100.5 44t-34.5 145zM88 843l96 137h113l-126 -137h-83z" />
<glyph unicode="&#x13b;" horiz-adv-x="546" d="M68 136v596h116v-571q0 -19 4.5 -30.5t16 -15.5t18.5 -5t23 -1h271v-109h-303q-31 0 -55 5.5t-45.5 20t-33.5 42.5t-12 68zM245 -161v67q0 25 23 25h64q22 0 22 -25v-99q0 -27 -10.5 -44t-26 -22t-31 -6.5t-26.5 0.5l-10 2v39q12 -1 18.5 3.5t8 9t1.5 11.5v16h-10 q-23 0 -23 23z" />
<glyph unicode="&#x13c;" horiz-adv-x="308" d="M51 189v594h116v-580q0 -56 12 -78t38 -30q68 -21 75 -21v-74h-106q-66 0 -100.5 44t-34.5 145zM116 -161v67q0 24 23 24h64q22 0 22 -24v-100q0 -26 -11 -43t-26 -22t-30.5 -6.5t-26.5 0.5l-10 2v38q12 0 18.5 4.5t7.5 9t1 11.5v16h-9q-23 0 -23 23z" />
<glyph unicode="&#x13d;" horiz-adv-x="546" d="M68 136v596h116v-571q0 -19 4.5 -30.5t16 -15.5t18.5 -5t23 -1h271v-109h-303q-31 0 -55 5.5t-45.5 20t-33.5 42.5t-12 68zM251 705v67h88v-67l-10 -134h-67z" />
<glyph unicode="&#x13e;" horiz-adv-x="337" d="M51 189v594h116v-580q0 -57 10.5 -77.5t39.5 -30.5q68 -21 75 -21v-74h-106q-72 0 -103.5 42.5t-31.5 146.5zM236 714v67h88v-67l-10 -134h-67z" />
<glyph unicode="&#x141;" horiz-adv-x="565" d="M8 311v68l80 34v319h116v-269l122 52v-67l-122 -53v-234q0 -19 4.5 -30.5t16 -15.5t18.5 -5t23 -1h271v-109h-303q-31 0 -55 5.5t-45.5 20t-33.5 42.5t-12 68v209z" />
<glyph unicode="&#x142;" horiz-adv-x="347" d="M10 357v68l77 33v325h116v-276l126 55l-1 -68l-125 -54v-237q0 -56 12.5 -78t37.5 -30q68 -21 75 -21v-74h-105q-66 0 -101 44t-35 145v201z" />
<glyph unicode="&#x143;" horiz-adv-x="678" d="M68 0v732h118l326 -517v517h116v-732h-116l-327 514v-514h-117zM313 797l97 137h112l-126 -137h-83z" />
<glyph unicode="&#x144;" d="M51 0v531h90l26 -59l9 6q31 21 49.5 31.5t51.5 20.5t68 10q83 0 122 -50.5t39 -129.5v-360h-116v361q0 28 -9 46.5t-24.5 26.5t-36.5 8q-46 0 -77 -11.5t-76 -38.5v-392h-116zM235 600l96 136h113l-126 -136h-83z" />
<glyph unicode="&#x145;" horiz-adv-x="678" d="M68 0v732h118l326 -517v517h116v-732h-116l-327 514v-514h-117zM291 -163v68q0 24 23 24h64q22 0 22 -24v-100q0 -27 -11 -43.5t-26 -22t-30.5 -7t-26.5 0.5l-10 3v38q12 -1 18.5 4t7.5 9.5t1 10.5v17h-9q-23 0 -23 22z" />
<glyph unicode="&#x146;" d="M51 0v531h90l26 -59l9 6q31 21 49.5 31.5t51.5 20.5t68 10q83 0 122 -50.5t39 -129.5v-360h-116v361q0 28 -9 46.5t-24.5 26.5t-36.5 8q-46 0 -77 -11.5t-76 -38.5v-392h-116zM223 -163v68q0 24 22 24h65q21 0 21 -24v-100q0 -20 -5.5 -34t-14.5 -21.5t-20.5 -12 t-22.5 -5t-20 0t-15 1.5l-6 2v38q12 -1 19 4t8 9.5t1 10.5v17h-10q-22 0 -22 22z" />
<glyph unicode="&#x147;" horiz-adv-x="678" d="M68 0v732h118l326 -517v517h116v-732h-116l-327 514v-514h-117zM203 930h86l69 -64l62 64h86l-103 -133h-92zM403 797z" />
<glyph unicode="&#x148;" d="M51 0v531h90l26 -59l9 6q31 21 49.5 31.5t51.5 20.5t68 10q83 0 122 -50.5t39 -129.5v-360h-116v361q0 28 -9 46.5t-24.5 26.5t-36.5 8q-46 0 -77 -11.5t-76 -38.5v-392h-116zM134 734h86l69 -64l62 64h86l-103 -134h-92zM334 600z" />
<glyph unicode="&#x14a;" horiz-adv-x="677" d="M68 0v732h118l325 -510v510h116v-732v-77q0 -48 -14 -83t-35.5 -54t-54.5 -29.5t-63.5 -13t-70.5 -0.5v85q6 1 23.5 4t25.5 4.5t22 6t21 11.5t15 17.5t11.5 26t3.5 36.5v66l-326 514l-1 -514h-116z" />
<glyph unicode="&#x14b;" horiz-adv-x="556" d="M51 0v531h90l26 -59q8 5 22.5 14t23 14t22 12.5t24.5 11.5t25 8t29.5 6t31.5 2q43 0 74.5 -14.5t50 -40t27.5 -57t9 -69.5v-359l-1 -76q-2 -43 -15.5 -76.5t-32 -52.5t-45.5 -33t-46.5 -19.5t-44.5 -10.5l-34 62q21 10 29 13.5t25.5 15t25.5 23t15 31t8 43.5v80v361 q0 28 -9 46.5t-24.5 26.5t-36.5 8q-46 0 -77 -11.5t-76 -38.5v-392h-116z" />
<glyph unicode="&#x14c;" horiz-adv-x="672" d="M55 361q0 72 7.5 128.5t20.5 96t34 67.5t43.5 44t54.5 25t61.5 12t69.5 3q41 0 70.5 -3t62 -12t54.5 -25t42.5 -44t33 -67.5t19.5 -96t7 -128.5q0 -68 -7 -121.5t-18.5 -92t-31.5 -66t-42.5 -44t-54 -26t-62.5 -12.5t-73 -3q-30 0 -52.5 1.5t-47 4.5t-43 9.5t-37.5 17 t-33 25.5t-27 35t-22 46.5t-16 59.5t-10 74.5t-3 91.5zM171 361q0 -56 3.5 -95.5t12 -69t20.5 -46.5t33 -27.5t45 -14t61 -3.5q52 0 83 9.5t52.5 37.5t29.5 77.5t8 131.5q0 38 -1.5 69t-5 56t-8 44.5t-12 34t-14.5 25t-19 17.5t-22.5 11t-26.5 6.5t-30 3t-34 0.5 q-26 0 -41.5 -1t-35 -4.5t-30.5 -11t-24 -20.5t-19.5 -32.5t-13 -47t-9 -65t-2.5 -85.5zM200 797v73h292v-73h-292z" />
<glyph unicode="&#x14d;" horiz-adv-x="563" d="M42 258q0 109 23.5 169t74 84.5t142.5 24.5q136 0 187.5 -60t51.5 -218q0 -149 -51.5 -206t-187.5 -57q-69 0 -114.5 14t-73.5 46.5t-40 81t-12 121.5zM158 258q0 -38 3 -65t10.5 -45t16.5 -29t24.5 -16.5t30.5 -7t39 -1.5q30 0 47 2.5t34 11t24.5 26.5t12.5 48t5 76 q0 42 -2.5 70.5t-9 49t-14.5 32t-23.5 18t-31.5 8.5t-42 2t-42 -2t-31.5 -8.5t-24 -18t-15 -32t-9 -49t-2.5 -70.5zM136 596v74h292v-74h-292z" />
<glyph unicode="&#x150;" horiz-adv-x="672" d="M55 361q0 72 7.5 128.5t20.5 96t34 67.5t43.5 44t54.5 25t61.5 12t69.5 3q41 0 70.5 -3t62 -12t54.5 -25t42.5 -44t33 -67.5t19.5 -96t7 -128.5q0 -68 -7 -121.5t-18.5 -92t-31.5 -66t-42.5 -44t-54 -26t-62.5 -12.5t-73 -3q-30 0 -52.5 1.5t-47 4.5t-43 9.5t-37.5 17 t-33 25.5t-27 35t-22 46.5t-16 59.5t-10 74.5t-3 91.5zM171 361q0 -56 3.5 -95.5t12 -69t20.5 -46.5t33 -27.5t45 -14t61 -3.5q52 0 83 9.5t52.5 37.5t29.5 77.5t8 131.5q0 38 -1.5 69t-5 56t-8 44.5t-12 34t-14.5 25t-19 17.5t-22.5 11t-26.5 6.5t-30 3t-34 0.5 q-26 0 -41.5 -1t-35 -4.5t-30.5 -11t-24 -20.5t-19.5 -32.5t-13 -47t-9 -65t-2.5 -85.5zM230 797l97 137h112l-126 -137h-83zM378 797l97 137h113l-126 -137h-84z" />
<glyph unicode="&#x151;" horiz-adv-x="563" d="M42 258q0 109 23.5 169t74 84.5t142.5 24.5q136 0 187.5 -60t51.5 -218q0 -149 -51.5 -206t-187.5 -57q-69 0 -114.5 14t-73.5 46.5t-40 81t-12 121.5zM158 258q0 -38 3 -65t10.5 -45t16.5 -29t24.5 -16.5t30.5 -7t39 -1.5q30 0 47 2.5t34 11t24.5 26.5t12.5 48t5 76 q0 42 -2.5 70.5t-9 49t-14.5 32t-23.5 18t-31.5 8.5t-42 2t-42 -2t-31.5 -8.5t-24 -18t-15 -32t-9 -49t-2.5 -70.5zM166 596l96 136h113l-126 -136h-83zM314 596l97 136h112l-126 -136h-83z" />
<glyph unicode="&#x152;" horiz-adv-x="1025" d="M171 361q0 -68 5.5 -111.5t16 -73.5t32.5 -45t49 -20.5t71 -5.5q42 0 69 6t48.5 21.5t33 45t17.5 73.5t6 110q0 48 -2.5 84.5t-8 64t-12.5 47.5t-19 33t-23.5 20.5t-30.5 11.5t-35.5 5t-42.5 1q-20 0 -33 -0.5t-29.5 -2.5t-26.5 -6t-22.5 -11t-19.5 -17t-15 -25 t-12.5 -34t-8.5 -44.5t-5.5 -57t-1.5 -69.5zM55 361q0 72 7.5 128.5t20.5 96t34 67.5t43 44t54.5 25t61.5 12t69 3q72 0 121 -12t82 -47q35 59 118 54q272 -10 313 -16v-95h-292q-19 0 -30 -4t-15.5 -14t-5.5 -17t-1 -21v-145l301 -10v-95l-301 -10v-145q0 -19 5 -30.5 t16 -16t18.5 -5t22.5 -0.5h282v-94q-10 -1 -45 -3.5t-77.5 -4.5t-84 -4t-68.5 -4l-28 -1q-97 -5 -131 54q-33 -32 -81 -43.5t-119 -11.5q-33 0 -57.5 1.5t-51.5 6t-46.5 13t-39.5 22t-33.5 33t-26 47t-19.5 62.5t-11.5 80t-4.5 100z" />
<glyph unicode="&#x153;" horiz-adv-x="886" d="M42 258q0 109 23.5 169t74 84.5t142.5 24.5q126 0 176 -55q17 22 43.5 34t57 16t76.5 4q41 0 67 -2t53 -8.5t43 -19.5t29.5 -34t19 -52.5t5.5 -74.5q0 -129 -144 -129h-188q-2 -72 22.5 -97t84.5 -25q145 0 215 11v-81q-82 -28 -264 -28q-87 0 -123 50q-50 -50 -173 -50 q-69 0 -114.5 14t-73.5 46.5t-40 81t-12 121.5zM158 258q0 -38 3 -65t10.5 -45t16.5 -29t24.5 -16.5t30.5 -7t39 -1.5t41 2t30.5 6.5t22 14.5t14.5 21.5t8.5 32t3.5 42.5t1 55q0 73 -10 108t-35 48.5t-76 13.5q-26 0 -42 -2t-31.5 -8.5t-24 -18t-15 -32t-9 -49t-2.5 -70.5z M520 305h165q51 0 51 43q0 60 -16.5 76t-78.5 16q-38 0 -58 -3.5t-37 -17t-22.5 -40.5t-3.5 -74z" />
<glyph unicode="&#x154;" horiz-adv-x="602" d="M54 0v732h318q188 0 188 -225q0 -53 -10 -92.5t-21.5 -60t-32 -35t-30 -18t-26.5 -8.5l144 -293h-130l-133 285l-151 14v-299h-116zM171 393h192q21 0 33 3.5t24 14t17.5 34.5t5.5 62q0 69 -21 94t-59 25h-192v-233zM258 794l96 136h113l-126 -136h-83z" />
<glyph unicode="&#x155;" horiz-adv-x="420" d="M51 0v531h94l22 -67q29 23 49 36t53 25t67 12q48 0 64 -7v-113q-26 4 -75 4q-34 0 -59.5 -5.5t-49.5 -18t-49 -35.5v-362h-116zM197 597l96 137h113l-126 -137h-83z" />
<glyph unicode="&#x156;" horiz-adv-x="602" d="M54 0v732h318q188 0 188 -225q0 -53 -10 -92.5t-21.5 -60t-32 -35t-30 -18t-26.5 -8.5l144 -293h-130l-133 285l-151 14v-299h-116zM171 393h192q21 0 33 3.5t24 14t17.5 34.5t5.5 62q0 69 -21 94t-59 25h-192v-233zM245 -160v67q0 24 22 24h65q21 0 21 -24v-100 q0 -26 -10.5 -43t-26 -22t-30.5 -6.5t-26 0.5l-11 2v38q12 0 19 4.5t8 9t1 11.5v16h-10q-22 0 -22 23z" />
<glyph unicode="&#x157;" horiz-adv-x="420" d="M48 0v531h94l22 -67q29 23 49 36t53.5 25t66.5 12q48 0 65 -7v-113q-27 4 -76 4q-51 0 -86 -12.5t-72 -46.5v-362h-116zM50 -163v68q0 24 22 24h65q21 0 21 -24v-100q0 -27 -10.5 -43.5t-26 -22t-30.5 -7t-26 0.5l-11 3v38q12 -1 19 4t8 9.5t1 10.5v17h-10q-22 0 -22 22z " />
<glyph unicode="&#x158;" horiz-adv-x="602" d="M54 0v732h318q188 0 188 -225q0 -53 -10 -92.5t-21.5 -60t-32 -35t-30 -18t-26.5 -8.5l144 -293h-130l-133 285l-151 14v-299h-116zM171 393h192q21 0 33 3.5t24 14t17.5 34.5t5.5 62q0 69 -21 94t-59 25h-192v-233zM147 930h86l69 -64l62 64h86l-103 -133h-92zM347 797z " />
<glyph unicode="&#x159;" horiz-adv-x="420" d="M51 0v531h94l22 -67q29 23 49 36t53 25t67 12q48 0 64 -7v-113q-26 4 -75 4q-34 0 -59.5 -5.5t-49.5 -18t-49 -35.5v-362h-116zM74 730h86l69 -64l63 64h85l-103 -133h-92zM274 597z" />
<glyph unicode="&#x15a;" horiz-adv-x="588" d="M55 489v64q0 53 15 90t43 57t62 29t78 9q62 1 146 -8t125 -19v-92q-42 3 -132.5 6.5t-113.5 3.5q-57 2 -82 -13t-25 -70v-47q0 -49 20 -64.5t67 -15.5h126q40 0 70.5 -12t48.5 -30t29 -44t15 -49.5t4 -50.5v-56q0 -46 -12 -80t-30.5 -53.5t-46.5 -31.5t-54.5 -16 t-59.5 -4q-164 0 -270 28v92q110 -11 253 -11q19 0 34 2t32.5 8.5t27.5 22.5t10 40v50q0 25 -6 41.5t-22.5 27t-43.5 10.5h-123q-49 0 -84.5 13t-54.5 31.5t-30 45.5t-13.5 48.5t-2.5 47.5zM265 798l97 137h112l-126 -137h-83z" />
<glyph unicode="&#x15b;" horiz-adv-x="507" d="M34 351v46q0 139 138 139q77 0 161 -6t114 -17v-77h-248q-32 0 -40.5 -10t-8.5 -35v-32q0 -28 11.5 -35t37.5 -7h138q69 0 103 -37t34 -98v-52q0 -135 -130 -135q-76 0 -169.5 7t-118.5 18v76h259q43 0 43 41v34q0 21 -9.5 31.5t-33.5 10.5h-136q-74 0 -109.5 31.5 t-35.5 106.5zM212 599l97 137h112l-126 -137h-83z" />
<glyph unicode="&#x15c;" horiz-adv-x="588" d="M55 489v64q0 53 15 90t43 57t62 29t78 9q62 1 146 -8t125 -19v-92q-42 3 -132.5 6.5t-113.5 3.5q-57 2 -82 -13t-25 -70v-47q0 -49 20 -64.5t67 -15.5h126q40 0 70.5 -12t48.5 -30t29 -44t15 -49.5t4 -50.5v-56q0 -46 -12 -80t-30.5 -53.5t-46.5 -31.5t-54.5 -16 t-59.5 -4q-164 0 -270 28v92q110 -11 253 -11q19 0 34 2t32.5 8.5t27.5 22.5t10 40v50q0 25 -6 41.5t-22.5 27t-43.5 10.5h-123q-49 0 -84.5 13t-54.5 31.5t-30 45.5t-13.5 48.5t-2.5 47.5zM159 798l112 134h92l99 -134h-85l-63 64l-69 -64h-86zM363 932z" />
<glyph unicode="&#x15d;" horiz-adv-x="507" d="M34 351v46q0 139 138 139q77 0 161 -6t114 -17v-77h-248q-32 0 -40.5 -10t-8.5 -35v-32q0 -28 11.5 -35t37.5 -7h138q69 0 103 -37t34 -98v-52q0 -135 -130 -135q-76 0 -169.5 7t-118.5 18v76h259q43 0 43 41v34q0 21 -9.5 31.5t-33.5 10.5h-136q-74 0 -109.5 31.5 t-35.5 106.5zM103 596l111 134h92l100 -134h-85l-64 64l-68 -64h-86zM306 730z" />
<glyph unicode="&#x15e;" horiz-adv-x="588" d="M55 489v64q0 53 15 90t43 57t62 29t78 9q62 1 146 -8t125 -19v-92q-42 3 -132.5 6.5t-113.5 3.5q-57 2 -82 -13t-25 -70v-47q0 -49 20 -64.5t67 -15.5h126q40 0 70.5 -12t48.5 -30t29 -44t15 -49.5t4 -50.5v-56q0 -46 -12 -80t-30.5 -53.5t-46.5 -31.5t-54.5 -16 t-59.5 -4q-164 0 -270 28v92q110 -11 253 -11q19 0 34 2t32.5 8.5t27.5 22.5t10 40v50q0 25 -6 41.5t-22.5 27t-43.5 10.5h-123q-49 0 -84.5 13t-54.5 31.5t-30 45.5t-13.5 48.5t-2.5 47.5zM196 -132l47 15q20 8 25.5 24t5.5 49h84q0 -78 -22.5 -109t-85.5 -31h-54v52z" />
<glyph unicode="&#x15f;" horiz-adv-x="507" d="M34 351v46q0 139 138 139q77 0 161 -6t114 -17v-77h-248q-32 0 -40.5 -10t-8.5 -35v-32q0 -28 11.5 -35t37.5 -7h138q69 0 103 -37t34 -98v-52q0 -135 -130 -135q-76 0 -169.5 7t-118.5 18v76h259q43 0 43 41v34q0 21 -9.5 31.5t-33.5 10.5h-136q-74 0 -109.5 31.5 t-35.5 106.5zM107 -126l47 15q19 8 25 24t6 49h84q0 -78 -23 -109t-85 -31h-54v52z" />
<glyph unicode="&#x160;" horiz-adv-x="588" d="M55 489v64q0 53 15 90t43 57t62 29t78 9q62 1 146 -8t125 -19v-92q-42 3 -132.5 6.5t-113.5 3.5q-57 2 -82 -13t-25 -70v-47q0 -49 20 -64.5t67 -15.5h126q40 0 70.5 -12t48.5 -30t29 -44t15 -49.5t4 -50.5v-56q0 -46 -12 -80t-30.5 -53.5t-46.5 -31.5t-54.5 -16 t-59.5 -4q-164 0 -270 28v92q110 -11 253 -11q19 0 34 2t32.5 8.5t27.5 22.5t10 40v50q0 25 -6 41.5t-22.5 27t-43.5 10.5h-123q-49 0 -84.5 13t-54.5 31.5t-30 45.5t-13.5 48.5t-2.5 47.5zM157 932h85l70 -64l62 64h85l-102 -134h-92zM357 798z" />
<glyph unicode="&#x161;" horiz-adv-x="507" d="M34 351v46q0 139 138 139q77 0 161 -6t114 -17v-77h-248q-32 0 -40.5 -10t-8.5 -35v-32q0 -28 11.5 -35t37.5 -7h138q69 0 103 -37t34 -98v-52q0 -135 -130 -135q-76 0 -169.5 7t-118.5 18v76h259q43 0 43 41v34q0 21 -9.5 31.5t-33.5 10.5h-136q-74 0 -109.5 31.5 t-35.5 106.5zM107 733h86l69 -64l62 64h86l-103 -134h-92zM307 599z" />
<glyph unicode="&#x162;" horiz-adv-x="588" d="M36 623v109h529v-109h-209v-623h-116v623h-204zM124 -133l48 15q19 9 24.5 25t5.5 48h85q0 -78 -23 -108.5t-85 -30.5h-55v51z" />
<glyph unicode="&#x163;" horiz-adv-x="380" d="M17 437v70l90 25l22 148h94v-148h132v-95h-132v-233q0 -56 12.5 -78.5t37.5 -30.5q68 -21 75 -21v-74h-110q-131 0 -131 190v247h-90zM70 -134l47 15q13 6 20 16.5t9 22.5t2 34h84q0 -78 -23 -109t-85 -31h-54v52z" />
<glyph unicode="&#x164;" horiz-adv-x="588" d="M36 623v109h529v-109h-209v-623h-116v623h-204zM143 930h86l69 -64l62 64h86l-103 -133h-92zM343 797z" />
<glyph unicode="&#x165;" horiz-adv-x="397" d="M17 437v70l90 25l22 148h94v-148h132v-95h-132v-233q0 -56 12.5 -78.5t37.5 -30.5q68 -21 75 -21v-74h-110q-131 0 -131 190v247h-90zM281 800h88v-67l-10 -134h-67l-11 134v67z" />
<glyph unicode="&#x166;" horiz-adv-x="582" d="M27 623v109h529v-109h-210v-186h106v-61h-106v-376h-116v376h-106v61h106v186h-203z" />
<glyph unicode="&#x167;" horiz-adv-x="372" d="M17 437v70l90 25l22 148h94v-148h132v-95h-132v-115h91v-61h-91v-57q1 -44 6.5 -66t14.5 -29t30 -14q65 -19 68 -19v-76h-103q-69 0 -100.5 43.5t-31.5 146.5v71h-74v61h74v115h-90z" />
<glyph unicode="&#x168;" horiz-adv-x="669" d="M68 320v412h116v-412q0 -50 4 -85.5t14 -59.5t21.5 -38t32 -21.5t40 -9.5t50.5 -2q32 0 53 4t42.5 16.5t33.5 36t19.5 63t7.5 96.5v412h117v-412q0 -59 -6.5 -106.5t-20 -80.5t-27.5 -57.5t-37.5 -39t-41.5 -23.5t-47 -12.5t-46 -4.5t-47 -1h-10q-38 0 -57.5 1t-53 7 t-51.5 17.5t-41.5 35t-35.5 57.5t-20.5 86.5t-8.5 120.5zM172 844q33 32 61 49.5t59 17.5q26 -1 59 -17.5t48 -17.5q33 -1 91 38l24 -53q-23 -22 -34.5 -32t-35 -22.5t-44.5 -12.5q-27 1 -60 18t-50 17q-15 0 -28.5 -3.5t-21 -7.5l-22.5 -12t-23 -12z" />
<glyph unicode="&#x169;" d="M42 172v359h116v-361q0 -41 19 -60.5t51 -19.5q46 0 77 11t76 39v391h116v-531h-90l-26 58q-8 -4 -26 -15.5t-27 -16.5t-26 -13t-30 -12t-31.5 -7t-37.5 -3q-83 0 -122 50.5t-39 130.5zM99 646q33 32 61 50t59 18q26 -1 59 -18t47 -17q34 -2 92 37l24 -53 q-23 -22 -34.5 -32t-35.5 -22.5t-44 -11.5q-27 1 -60 17.5t-51 16.5q-14 0 -27.5 -3.5t-21 -7t-22.5 -12t-23 -12.5z" />
<glyph unicode="&#x16a;" horiz-adv-x="669" d="M68 320v412h116v-412q0 -50 4 -85.5t14 -59.5t21.5 -38t32 -21.5t40 -9.5t50.5 -2q32 0 53 4t42.5 16.5t33.5 36t19.5 63t7.5 96.5v412h117v-412q0 -59 -6.5 -106.5t-20 -80.5t-27.5 -57.5t-37.5 -39t-41.5 -23.5t-47 -12.5t-46 -4.5t-47 -1h-10q-38 0 -57.5 1t-53 7 t-51.5 17.5t-41.5 35t-35.5 57.5t-20.5 86.5t-8.5 120.5zM197 797v73h292v-73h-292z" />
<glyph unicode="&#x16b;" d="M42 172v359h116v-361q0 -41 19 -60.5t51 -19.5q46 0 77 11t76 39v391h116v-531h-90l-26 58q-8 -4 -26 -15.5t-27 -16.5t-26 -13t-30 -12t-31.5 -7t-37.5 -3q-83 0 -122 50.5t-39 130.5zM124 596v74h292v-74h-292z" />
<glyph unicode="&#x16c;" horiz-adv-x="669" d="M68 320v412h116v-412q0 -50 4 -85.5t14 -59.5t21.5 -38t32 -21.5t40 -9.5t50.5 -2q32 0 53 4t42.5 16.5t33.5 36t19.5 63t7.5 96.5v412h117v-412q0 -59 -6.5 -106.5t-20 -80.5t-27.5 -57.5t-37.5 -39t-41.5 -23.5t-47 -12.5t-46 -4.5t-47 -1h-10q-38 0 -57.5 1t-53 7 t-51.5 17.5t-41.5 35t-35.5 57.5t-20.5 86.5t-8.5 120.5zM228 911h54q0 -17 8.5 -31t22 -21.5t29.5 -7.5q29 0 45.5 16t16.5 44h54q0 -35 -16.5 -61.5t-42.5 -39.5t-57 -13q-47 0 -80.5 31.5t-33.5 82.5z" />
<glyph unicode="&#x16d;" d="M42 172v359h116v-361q0 -41 19 -60.5t51 -19.5q46 0 77 11t76 39v391h116v-531h-90l-26 58q-8 -4 -26 -15.5t-27 -16.5t-26 -13t-30 -12t-31.5 -7t-37.5 -3q-83 0 -122 50.5t-39 130.5zM160 710h54q0 -26 17.5 -43t42.5 -17q29 0 45.5 16t16.5 44h54q0 -53 -34 -83.5 t-82 -30.5q-47 0 -80.5 31.5t-33.5 82.5z" />
<glyph unicode="&#x16e;" horiz-adv-x="669" d="M68 320v412h116v-412q0 -50 4 -85.5t14 -59.5t21.5 -38t32 -21.5t40 -9.5t50.5 -2q32 0 53 4t42.5 16.5t33.5 36t19.5 63t7.5 96.5v412h117v-412q0 -59 -6.5 -106.5t-20 -80.5t-27.5 -57.5t-37.5 -39t-41.5 -23.5t-47 -12.5t-46 -4.5t-47 -1h-10q-38 0 -57.5 1t-53 7 t-51.5 17.5t-41.5 35t-35.5 57.5t-20.5 86.5t-8.5 120.5zM242 899q0 28 13.5 51.5t37 37.5t51.5 14q42 0 71.5 -30t29.5 -73t-29.5 -72.5t-71.5 -29.5q-14 0 -27 3.5t-24.5 10t-21 16t-16 20.5t-10 24.5t-3.5 27.5zM296 899q0 -20 14 -33.5t33.5 -13.5t33 13.5t13.5 33.5 q0 10 -3.5 18.5t-9.5 15t-15 10.5t-18 4q-20 0 -34 -14t-14 -34z" />
<glyph unicode="&#x16f;" d="M42 172v359h116v-361q0 -41 19 -60.5t51 -19.5q46 0 77 11t76 39v391h116v-531h-90l-26 58q-8 -4 -26 -15.5t-27 -16.5t-26 -13t-30 -12t-31.5 -7t-37.5 -3q-83 0 -122 50.5t-39 130.5zM168 698q0 28 14 51.5t37.5 37.5t51 14t50.5 -14t36.5 -37.5t13.5 -51.5 t-13.5 -51.5t-36.5 -37t-51 -13.5q-20 0 -39 8t-32.5 21.5t-22 32.5t-8.5 40zM223 698q0 -20 14 -33.5t33.5 -13.5t33 13.5t13.5 33.5t-13.5 34t-33.5 14q-13 0 -24 -6.5t-17 -17.5t-6 -24z" />
<glyph unicode="&#x170;" horiz-adv-x="669" d="M68 320v412h116v-412q0 -50 4 -85.5t14 -59.5t21.5 -38t32 -21.5t40 -9.5t50.5 -2q32 0 53 4t42.5 16.5t33.5 36t19.5 63t7.5 96.5v412h117v-412q0 -59 -6.5 -106.5t-20 -80.5t-27.5 -57.5t-37.5 -39t-41.5 -23.5t-47 -12.5t-46 -4.5t-47 -1h-10q-38 0 -57.5 1t-53 7 t-51.5 17.5t-41.5 35t-35.5 57.5t-20.5 86.5t-8.5 120.5zM228 797l96 137h113l-126 -137h-83zM376 797l96 137h113l-126 -137h-83z" />
<glyph unicode="&#x171;" d="M42 172v359h116v-361q0 -41 19 -60.5t51 -19.5q46 0 77 11t76 39v391h116v-531h-90l-26 58q-8 -4 -26 -15.5t-27 -16.5t-26 -13t-30 -12t-31.5 -7t-37.5 -3q-83 0 -122 50.5t-39 130.5zM154 596l97 136h112l-126 -136h-83zM302 596l97 136h112l-126 -136h-83z" />
<glyph unicode="&#x172;" horiz-adv-x="669" d="M68 320v412h116v-412q0 -50 4 -85.5t14 -59.5t21.5 -38t32 -21.5t40 -9.5t50.5 -2q32 0 53 4t42.5 16.5t33.5 36t19.5 63t7.5 96.5v412h117v-412q0 -59 -6.5 -106.5t-20 -80.5t-27.5 -57.5t-37.5 -39t-41.5 -23.5t-47 -12.5t-46 -4.5t-47 -1h-10q-38 0 -57.5 1t-53 7 t-51.5 17.5t-41.5 35t-35.5 57.5t-20.5 86.5t-8.5 120.5zM318 -3h50q-39 -29 -48.5 -56.5t6.5 -42.5t48 -15v-70q-31 -7 -61.5 3.5t-47 32t-21.5 47.5t14 54t60 47z" />
<glyph unicode="&#x173;" d="M42 172v359h116v-361q0 -41 19 -60.5t51 -19.5q46 0 77 11t76 39v391h116v-531h-90l-26 58q-8 -4 -26 -15.5t-27 -16.5t-26 -13t-30 -12t-31.5 -7t-37.5 -3q-83 0 -122 50.5t-39 130.5zM429 -1h49q-38 -30 -48 -57t6 -42t49 -15v-70q-32 -7 -62 3.5t-47 32t-22 47.5 t14 54t61 47z" />
<glyph unicode="&#x174;" horiz-adv-x="981" d="M38 732h124l181 -565l149 565h126l-57 -205l122 -364l154 569h124l-212 -732h-130l-112 327l-99 -327h-130zM357 794l111 133h92l100 -133h-85l-63 64l-69 -64h-86zM560 927z" />
<glyph unicode="&#x175;" horiz-adv-x="817" d="M17 531h125l124 -387l111 387h118l-43 -153l98 -234l126 387h125l-183 -531h-127l-93 217l-70 -217h-131zM265 593l111 133h92l99 -133h-85l-63 64l-68 -64h-86zM468 726z" />
<glyph unicode="&#x176;" horiz-adv-x="647" d="M38 732h126l160 -363l176 363h126l-245 -493v-239h-116v239zM174 794l111 133h92l100 -133h-85l-64 64l-68 -64h-86zM377 927z" />
<glyph unicode="&#x177;" horiz-adv-x="569" d="M18 531h123l105 -387q3 -12 8.5 -20t11.5 -12t12.5 -6t11 -2t9.5 0.5l5 0.5l123 426h123l-202 -699l-74 -102h-80l82 270q-109 0 -145 126zM133 596l111 134h92l99 -134h-85l-63 64l-68 -64h-86zM336 730z" />
<glyph unicode="&#x178;" horiz-adv-x="647" d="M38 732h126l160 -363l176 363h126l-245 -493v-239h-116v239zM149 853q0 23 16.5 39t39.5 16t39 -16t16 -39t-16 -39.5t-39 -16.5t-39.5 16.5t-16.5 39.5zM404 853q0 23 16.5 39t39.5 16t39 -16t16 -39t-16 -39.5t-39 -16.5t-39.5 16.5t-16.5 39.5z" />
<glyph unicode="&#x179;" horiz-adv-x="559" d="M30 0v109l357 514h-357v109h500v-109l-347 -514h347v-109h-500zM238 797l97 137h112l-126 -137h-83z" />
<glyph unicode="&#x17a;" horiz-adv-x="467" d="M25 429v102h417v-102l-248 -326h248v-102h-402v101l257 327h-272zM192 596l97 136h112l-126 -136h-83z" />
<glyph unicode="&#x17b;" horiz-adv-x="559" d="M30 0v109l357 514h-357v109h500v-109l-347 -514h347v-109h-500zM224 820v68q0 25 24 25h64q11 0 17 -7t6 -18v-68q0 -23 -23 -23h-64q-10 0 -17 6.5t-7 16.5z" />
<glyph unicode="&#x17c;" horiz-adv-x="467" d="M25 429v102h417v-102l-248 -326h248v-102h-402v101l257 327h-272zM178 619v68q0 25 24 25h64q11 0 17 -7t6 -18v-68q0 -23 -23 -23h-64q-10 0 -17 6.5t-7 16.5z" />
<glyph unicode="&#x17d;" horiz-adv-x="559" d="M30 0v109l357 514h-357v109h500v-109l-347 -514h347v-109h-500zM128 930h86l69 -64l63 64h85l-103 -133h-92zM328 797z" />
<glyph unicode="&#x17e;" horiz-adv-x="467" d="M25 429v102h417v-102l-248 -326h248v-102h-402v101l257 327h-272zM83 730h85l70 -64l62 64h85l-102 -134h-92zM283 596z" />
<glyph unicode="&#x192;" horiz-adv-x="592" d="M17 -179l11 73h73q20 0 36 12.5t26.5 30t19 46t13 51t9.5 54.5l46 295h-93l16 96h92l5 27q46 294 196 294q18 0 34.5 -2t29 -5.5t21 -6.5t16 -7t8.5 -4l-11 -73h-71q-16 0 -30 -7.5t-24.5 -23t-18 -31.5t-14 -41.5t-10.5 -44.5t-8 -48l-5 -28h125l-16 -95h-124l-46 -295 q-7 -45 -15 -80t-19 -70t-25.5 -59.5t-34 -44t-45 -29t-56.5 -9.5q-34 0 -67.5 9t-43.5 16z" />
<glyph unicode="&#x2c6;" horiz-adv-x="387" d="M42 531l111 133h92l100 -133h-85l-64 64l-68 -64h-86zM245 664z" />
<glyph unicode="&#x2c7;" horiz-adv-x="387" d="M42 664h86l69 -64l62 64h86l-103 -133h-92zM242 531z" />
<glyph unicode="&#x2d8;" horiz-adv-x="313" d="M42 644h54q0 -26 17.5 -43t42.5 -17q29 0 45.5 16t16.5 44h54q0 -53 -34 -83.5t-82 -30.5q-47 0 -80.5 31.5t-33.5 82.5z" />
<glyph unicode="&#x2d9;" horiz-adv-x="195" d="M42 549v68q0 25 24 25h64q11 0 17 -7t6 -18v-68q0 -23 -23 -23h-64q-10 0 -17 6.5t-7 16.5z" />
<glyph unicode="&#x2da;" horiz-adv-x="287" d="M42 632q0 28 14 51.5t37.5 37.5t51 14t50.5 -14t36.5 -37.5t13.5 -51.5t-13.5 -51.5t-36.5 -37t-50.5 -13.5t-51 13.5t-37.5 37t-14 51.5zM97 632q0 -20 14 -33.5t33.5 -13.5t33 13.5t13.5 33.5q0 13 -6 24t-17 17.5t-24 6.5q-19 0 -33 -14t-14 -34z" />
<glyph unicode="&#x2db;" horiz-adv-x="214" d="M117 0h49q-38 -30 -48 -57t6 -42t49 -15v-71q-32 -6 -62 4.5t-47 32t-22 47t14 53.5t61 48z" />
<glyph unicode="&#x2dc;" horiz-adv-x="426" d="M42 581q21 21 37 33.5t38.5 23.5t44.5 11q26 -1 59 -18t48 -17q33 -2 91 37l24 -53q-17 -17 -25 -23.5t-25 -19.5t-32.5 -18.5t-31.5 -4.5q-22 0 -42 9t-36.5 17t-31.5 8q-12 0 -22.5 -2t-19.5 -6t-16 -7.5t-18 -9.5t-19 -10z" />
<glyph unicode="&#x2dd;" horiz-adv-x="393" d="M17 531l96 137h113l-126 -137h-83zM165 531l97 137h112l-126 -137h-83z" />
<glyph unicode="&#x338;" horiz-adv-x="635" d="M59 172v384q0 85 49 130.5t131 45.5h164q91 0 132 -48t41 -124v-388q0 -86 -45.5 -129t-127.5 -43h-164q-83 0 -131.5 43t-48.5 129zM175 229q0 -34 7 -45l222 436q-8 3 -21 3h-127q-43 0 -62 -23t-19 -54v-317zM221 116q16 -7 38 -7h121q80 0 80 77v323q0 39 -11 53z " />
<glyph unicode="&#x3a9;" horiz-adv-x="769" d="M55 392q0 49 9 95t32 93t59 81.5t95.5 56t134.5 21.5q72 0 128.5 -19.5t93 -52t60 -78.5t33 -95.5t9.5 -107.5q0 -98 -21.5 -161.5t-87.5 -116.5l114 -10v-98h-242v110q33 23 55.5 48.5t35.5 48.5t20 54t8.5 57.5t1.5 66.5q0 245 -208 245q-214 0 -214 -250 q0 -41 1.5 -64.5t8 -52.5t20 -50.5t36.5 -48t58 -54.5v-110h-234v100l119 10q-34 22 -58 48t-37 50.5t-20 57.5t-8.5 59.5t-1.5 66.5z" />
<glyph unicode="&#x3c0;" horiz-adv-x="642" d="M17 422v109h560v-109h-104v-242q0 -50 16 -68t53 -18h83v-68q-45 -31 -118 -31q-74 0 -112 43t-38 138v246h-145v-422h-116v422h-79z" />
<glyph unicode="&#x1e02;" horiz-adv-x="601" d="M68 0v732h294q54 0 94.5 -16.5t63 -44.5t33 -61t10.5 -72q0 -58 -24 -102.5t-73 -55.5q44 -9 75 -53.5t31 -115.5q0 -211 -208 -211h-296zM184 106h177q95 0 95 110q0 50 -23.5 83t-71.5 33h-177v-226zM184 434h173q45 0 68 25t23 72q0 28 -8 48t-22 29.5t-29 13.5t-32 4 h-173v-192zM253 817v68q0 25 24 25h64q11 0 17 -7t6 -18v-68q0 -23 -23 -23h-64q-11 0 -17.5 6.5t-6.5 16.5z" />
<glyph unicode="&#x1e03;" horiz-adv-x="555" d="M47 0v785h115v-283q39 17 88.5 27t85.5 10q44 0 75.5 -14.5t50.5 -38t30 -60t14.5 -74.5t3.5 -89q0 -269 -174 -269q-44 0 -95 20t-78 42l-23 -56h-93zM163 135q72 -38 150 -38q41 0 61 40t20 129q0 71 -10 110.5t-26.5 52.5t-44.5 13q-81 0 -150 -22v-285zM51 874v68 q0 25 24 25h64q11 0 17 -7t6 -18v-68q0 -23 -23 -23h-64q-11 0 -17.5 6t-6.5 17z" />
<glyph unicode="&#x1e0a;" horiz-adv-x="660" d="M68 0v732h297q256 0 256 -369q0 -76 -14.5 -140t-44.5 -115t-80.5 -79.5t-116.5 -28.5h-297zM184 107h174q51 0 84.5 34t48 89.5t14.5 133.5q0 99 -18.5 158t-49.5 81.5t-79 22.5h-174v-519zM261 823v68q0 25 24 25h64q11 0 17 -7t6 -18v-68q0 -23 -23 -23h-64 q-11 0 -17.5 6.5t-6.5 16.5z" />
<glyph unicode="&#x1e0b;" horiz-adv-x="555" d="M42 263q0 51 4 89.5t15 75t30 60t50.5 37.5t74.5 14q23 0 52.5 -4t62.5 -12.5t59 -20.5v283h115v-785h-92l-23 56q-28 -22 -78.5 -42t-95.5 -20q-174 0 -174 269zM158 266q0 -60 9.5 -98t27 -54.5t44.5 -16.5q79 0 151 38v285q-69 22 -151 22q-27 0 -44 -13t-27 -52.5 t-10 -110.5zM391 869v68q0 25 24 25h64q10 0 16.5 -7t6.5 -18v-68q0 -23 -23 -23h-64q-11 0 -17.5 6t-6.5 17z" />
<glyph unicode="&#x1e1e;" horiz-adv-x="567" d="M66 0v587q0 77 42.5 112t104.5 33q279 -10 320 -16v-95h-299q-19 0 -30 -4t-15.5 -14t-5.5 -17t-1 -21v-145l307 -10v-95l-307 -10v-305h-116zM260 817v68q0 25 24 25h64q10 0 16.5 -7t6.5 -18v-68q0 -23 -23 -23h-64q-11 0 -17.5 6.5t-6.5 16.5z" />
<glyph unicode="&#x1e1f;" horiz-adv-x="402" d="M17 436v78l88 17v99q0 156 144 156q71 0 137 -24v-71l-106 1q-17 1 -28.5 -3.5t-17.5 -9.5t-9 -18t-3.5 -22.5t-0.5 -29.5v-78h131v-95h-131v-436h-116v436h-88zM194 883v68q0 25 24 25h64q11 0 17 -7t6 -18v-68q0 -23 -23 -23h-64q-10 0 -17 6t-7 17z" />
<glyph unicode="&#x1e40;" horiz-adv-x="830" d="M47 0l58 732h161l148 -540l146 540h160l64 -732h-114l-47 528l-144 -528h-127l-148 528l-42 -528h-115zM357 820v68q0 25 24 25h64q11 0 17 -7t6 -18v-68q0 -23 -23 -23h-64q-10 0 -17 6.5t-7 16.5z" />
<glyph unicode="&#x1e41;" horiz-adv-x="883" d="M51 0v531h90l26 -60q2 2 16.5 11.5t17.5 11.5t16 9.5t18 10t17 8t20 7t20 4.5t24 4t25 1q20 0 38 -3t34 -9t29 -15t23 -20.5t17 -24.5q94 72 199 72q79 0 120 -49.5t41 -131.5v-357h-116v358q0 39 -19 60.5t-51 21.5q-49 0 -84 -10.5t-70 -36.5v-17.5v-17.5v-358h-116 v358q0 39 -19.5 60.5t-51.5 21.5q-44 0 -73.5 -11t-74.5 -39v-390h-116zM420 621v68q0 25 24 25h64q11 0 17 -7t6 -18v-68q0 -23 -23 -23h-64q-11 0 -17.5 6.5t-6.5 16.5z" />
<glyph unicode="&#x1e56;" horiz-adv-x="594" d="M54 0v732h310q24 0 45 -3.5t44 -11.5t40.5 -24t32.5 -39.5t23 -60t8 -82.5q0 -62 -13 -107.5t-31.5 -69t-46.5 -36.5t-50.5 -15.5t-51.5 -2.5q-19 1 -65.5 5.5t-86 9t-42.5 5.5v-300h-116zM170 386h187q40 0 61.5 26t21.5 98q0 37 -8 61.5t-21.5 35.5t-25.5 15t-28 4 h-187v-240zM231 825v68q0 25 24 25h64q11 0 17 -7.5t6 -17.5v-68q0 -23 -23 -23h-64q-11 0 -17.5 6t-6.5 17z" />
<glyph unicode="&#x1e57;" horiz-adv-x="555" d="M51 -270v801h92l23 -55q27 21 78.5 41t95.5 20q174 0 174 -269q0 -48 -4 -85.5t-15 -75t-29.5 -61.5t-50.5 -39t-75 -15q-36 0 -86 10t-88 26v-298h-115zM166 111q69 -22 151 -22q28 0 44.5 13t26.5 52.5t10 109.5q0 61 -9.5 99t-27 54.5t-44.5 16.5q-79 0 -151 -38v-285 zM238 628v68q0 25 24 25h64q11 0 17 -7t6 -18v-68q0 -23 -23 -23h-64q-11 0 -17.5 6t-6.5 17z" />
<glyph unicode="&#x1e60;" horiz-adv-x="588" d="M55 489v64q0 53 15 90t43 57t62 29t78 9q62 1 146 -8t125 -19v-92q-42 3 -132.5 6.5t-113.5 3.5q-57 2 -82 -13t-25 -70v-47q0 -49 20 -64.5t67 -15.5h126q40 0 70.5 -12t48.5 -30t29 -44t15 -49.5t4 -50.5v-56q0 -46 -12 -80t-30.5 -53.5t-46.5 -31.5t-54.5 -16 t-59.5 -4q-164 0 -270 28v92q110 -11 253 -11q19 0 34 2t32.5 8.5t27.5 22.5t10 40v50q0 25 -6 41.5t-22.5 27t-43.5 10.5h-123q-49 0 -84.5 13t-54.5 31.5t-30 45.5t-13.5 48.5t-2.5 47.5zM242 828v68q0 25 24 25h64q10 0 16 -7t6 -18v-68q0 -23 -22 -23h-64q-11 0 -17.5 6 t-6.5 17z" />
<glyph unicode="&#x1e61;" horiz-adv-x="507" d="M34 351v46q0 139 138 139q77 0 161 -6t114 -17v-77h-248q-32 0 -40.5 -10t-8.5 -35v-32q0 -28 11.5 -35t37.5 -7h138q69 0 103 -37t34 -98v-52q0 -135 -130 -135q-76 0 -169.5 7t-118.5 18v76h259q43 0 43 41v34q0 21 -9.5 31.5t-33.5 10.5h-136q-74 0 -109.5 31.5 t-35.5 106.5zM212 627v68q0 25 24 25h64q11 0 17 -7t6 -18v-68q0 -23 -23 -23h-64q-10 0 -17 6t-7 17z" />
<glyph unicode="&#x1e6a;" horiz-adv-x="588" d="M36 623v109h529v-109h-209v-623h-116v623h-204zM239 820v68q0 25 24 25h64q11 0 17 -7t6 -18v-68q0 -23 -23 -23h-64q-11 0 -17.5 6.5t-6.5 16.5z" />
<glyph unicode="&#x1e6b;" horiz-adv-x="380" d="M17 437v70l90 25l22 148h94v-148h132v-95h-132v-233q0 -56 12.5 -78.5t37.5 -30.5q68 -21 75 -21v-74h-110q-131 0 -131 190v247h-90zM115 764v68q0 25 24 25h64q11 0 17 -7t6 -18v-68q0 -23 -23 -23h-64q-10 0 -17 6t-7 17z" />
<glyph unicode="&#x1e80;" horiz-adv-x="981" d="M38 732h124l181 -565l149 565h126l-57 -205l122 -364l154 569h124l-212 -732h-130l-112 327l-99 -327h-130zM338 930h113l96 -136h-83z" />
<glyph unicode="&#x1e81;" horiz-adv-x="817" d="M17 531h125l124 -387l111 387h118l-43 -153l98 -234l126 387h125l-183 -531h-127l-93 217l-70 -217h-131zM245 729h113l96 -136h-83z" />
<glyph unicode="&#x1e82;" horiz-adv-x="981" d="M38 732h124l181 -565l149 565h126l-57 -205l122 -364l154 569h124l-212 -732h-130l-112 327l-99 -327h-130zM465 794l96 136h113l-126 -136h-83z" />
<glyph unicode="&#x1e83;" horiz-adv-x="817" d="M17 531h125l124 -387l111 387h118l-43 -153l98 -234l126 387h125l-183 -531h-127l-93 217l-70 -217h-131zM372 593l96 136h113l-126 -136h-83z" />
<glyph unicode="&#x1e84;" horiz-adv-x="981" d="M38 732h124l181 -565l149 565h126l-57 -205l122 -364l154 569h124l-212 -732h-130l-112 327l-99 -327h-130zM320 850q0 23 16.5 39t40 16t39.5 -16t16 -39t-16.5 -39.5t-39.5 -16.5t-39.5 16.5t-16.5 39.5zM575 850q0 15 7.5 28t20.5 20t28 7q24 0 40 -16t16 -39 t-16.5 -39.5t-39.5 -16.5t-39.5 16.5t-16.5 39.5z" />
<glyph unicode="&#x1e85;" horiz-adv-x="817" d="M17 531h125l124 -387l111 387h118l-43 -153l98 -234l126 387h125l-183 -531h-127l-93 217l-70 -217h-131zM230 649q0 23 16.5 39t39.5 16t39.5 -16t16.5 -39t-16.5 -39.5t-39.5 -16.5t-39.5 16.5t-16.5 39.5zM485 649q0 15 7.5 28t20.5 20t28 7q23 0 39.5 -16t16.5 -39 q0 -15 -7.5 -28t-20.5 -20.5t-28 -7.5q-23 0 -39.5 16.5t-16.5 39.5z" />
<glyph unicode="&#x1ef2;" horiz-adv-x="647" d="M38 732h126l160 -363l176 363h126l-245 -493v-239h-116v239zM164 934h113l97 -137h-84z" />
<glyph unicode="&#x1ef3;" horiz-adv-x="569" d="M18 531h123l105 -387q3 -12 8.5 -20t11.5 -12t12.5 -6t11 -2t9.5 0.5l5 0.5l123 426h123l-202 -699l-74 -102h-80l82 270q-109 0 -145 126zM123 732h112l97 -136h-83z" />
<glyph unicode="&#x2013;" horiz-adv-x="513" d="M20 236v103h473v-103h-473z" />
<glyph unicode="&#x2014;" horiz-adv-x="736" d="M20 238v103h696v-103h-696z" />
<glyph unicode="&#x2018;" horiz-adv-x="263" d="M68 531v120q0 32 12.5 53t30.5 28t35.5 9.5t30.5 0.5l13 -2v-48q-15 0 -23 -6.5t-9 -12.5t-1 -14v-23h11q27 0 27 -27v-78q0 -29 -27 -29h-75q-25 0 -25 29z" />
<glyph unicode="&#x2019;" horiz-adv-x="263" d="M68 636v78q0 29 27 29h75q25 0 25 -29v-121q0 -31 -12.5 -52t-30.5 -28t-35.5 -10t-30.5 -1l-13 2v48q33 -1 33 34v23h-11q-12 0 -19.5 6.5t-7.5 20.5z" />
<glyph unicode="&#x201a;" horiz-adv-x="263" d="M68 26v79q0 29 27 29h75q25 0 25 -29v-121q0 -32 -12.5 -53t-30.5 -28t-35.5 -9.5t-30.5 -0.5l-13 2v48q33 -1 33 34v22h-11q-12 0 -19.5 7t-7.5 20z" />
<glyph unicode="&#x201c;" horiz-adv-x="422" d="M234 530v121q0 32 12.5 52.5t30.5 27.5t36 9.5t31 0.5l12 -2v-48q-33 1 -33 -33v-22h12q12 0 19 -7t7 -20v-79q0 -29 -26 -29h-75q-26 0 -26 29zM62 530v121q0 32 12.5 52.5t30.5 27.5t36 9.5t30 0.5l13 -2v-48q-15 1 -23 -5.5t-9 -12.5t-1 -15v-22h11q12 0 19.5 -7 t7.5 -20v-79q0 -29 -27 -29h-75q-25 0 -25 29z" />
<glyph unicode="&#x201d;" horiz-adv-x="422" d="M62 635v78q0 29 26 29h75q26 0 26 -29v-120q0 -32 -12.5 -53t-30.5 -28t-36 -9.5t-31 -0.5l-12 2v47q33 0 33 34v23h-12q-7 0 -13 3t-9.5 9t-3.5 15zM234 635v78q0 29 27 29h75q25 0 25 -29v-120q0 -32 -12.5 -53t-30 -28t-35.5 -9.5t-31 -0.5l-12 2v47q33 0 33 34v23 h-12q-12 0 -19.5 7t-7.5 20z" />
<glyph unicode="&#x201e;" horiz-adv-x="422" d="M62 26v79q0 29 26 29h75q26 0 26 -29v-121q0 -32 -12.5 -53t-30.5 -28t-36 -9.5t-31 -0.5l-12 2v48q33 -1 33 34v22h-12q-7 0 -13 3t-9.5 9t-3.5 15zM234 26v79q0 29 27 29h75q25 0 25 -29v-121q0 -32 -12.5 -53t-30 -28t-35.5 -9.5t-31 -0.5l-12 2v48q33 -1 33 34v22 h-12q-12 0 -19.5 7t-7.5 20z" />
<glyph unicode="&#x2020;" horiz-adv-x="419" d="M17 466v91l133 11l10 202h101l10 -202l132 -11v-91l-132 -12l-11 -526h-101l-9 526z" />
<glyph unicode="&#x2021;" horiz-adv-x="436" d="M17 156v91l135 13l-2 194l-133 12v91l133 11l10 202h101l10 -202l132 -11v-91l-132 -12l-3 -194l135 -13v-91l-139 -12l-4 -216h-101l-4 215z" />
<glyph unicode="&#x2022;" horiz-adv-x="310" d="M72 329v104q0 35 33 35h99q35 0 35 -35v-104q0 -32 -35 -32h-99q-15 0 -24 8.5t-9 23.5z" />
<glyph unicode="&#x2026;" horiz-adv-x="810" d="M254 23v78q0 25 24 25h74q25 0 25 -25v-78q0 -23 -25 -23h-74q-11 0 -17.5 6.5t-6.5 16.5zM336 23v78q0 25 24 25h74q25 0 25 -25v-78q0 -23 -25 -23h-74q-11 0 -17.5 6.5t-6.5 16.5zM417 23v78q0 25 24 25h74q25 0 25 -25v-78q0 -23 -25 -23h-74q-10 0 -17 6.5t-7 16.5z " />
<glyph unicode="&#x2030;" horiz-adv-x="1379" d="M36 478v126q0 66 29.5 97t102.5 31h101q72 0 101.5 -31t29.5 -97v-126q0 -33 -6.5 -56.5t-22 -40t-41 -24.5t-63.5 -8h-101q-71 0 -100.5 31t-29.5 98zM122 488q0 -30 11 -41.5t42 -11.5h83q36 0 46 11.5t10 41.5v105q0 32 -11.5 42.5t-42.5 10.5h-83q-23 0 -34.5 -5 t-16 -16t-4.5 -32v-105zM215 0l443 732h90l-441 -732h-92zM560 131v126q0 66 29.5 97t102.5 31h102q48 0 77 -14.5t41 -42t12 -71.5v-126q0 -67 -29.5 -98t-102.5 -31h-102q-71 0 -100.5 31.5t-29.5 97.5zM646 141q0 -30 11 -41.5t42 -11.5h84q35 0 45 11.5t10 41.5v105 q0 32 -11.5 42.5t-41.5 10.5h-84q-23 0 -34.5 -4.5t-16 -15.5t-4.5 -33v-105zM981 131v126q0 44 11.5 71.5t41 42t79.5 14.5h101q71 0 101 -31t30 -97v-126q0 -67 -30 -98t-103 -31h-101q-48 0 -77 15t-41 42.5t-12 71.5zM1067 141q0 -30 11 -41.5t42 -11.5h83q19 0 30 3 t16.5 10t7.5 16t2 24v105q0 32 -11.5 42.5t-42.5 10.5h-83q-34 0 -44.5 -10.5t-10.5 -42.5v-105z" />
<glyph unicode="&#x2039;" horiz-adv-x="356" d="M42 354l206 203l68 -67l-139 -136l143 -140l-67 -68z" />
<glyph unicode="&#x203a;" horiz-adv-x="356" d="M42 214l143 140l-139 136l68 67l206 -203l-211 -208z" />
<glyph unicode="&#x2044;" horiz-adv-x="289" d="M-76 0l354 745h88l-354 -745h-88z" />
<glyph unicode="&#x2070;" horiz-adv-x="465" d="M51 504v244q0 119 125 119h118q121 0 121 -117v-246q0 -64 -31.5 -90t-89.5 -26h-118q-60 0 -92.5 25.5t-32.5 90.5zM143 520q0 -28 11 -37t40 -9h81q29 0 39 9.5t10 35.5v216q0 25 -10 35.5t-38 10.5h-84q-17 0 -27.5 -4t-15 -11t-5.5 -14t-1 -17v-215z" />
<glyph unicode="&#x2074;" horiz-adv-x="425" d="M14 532l184 335h96l-156 -284h131v109l26 49h66v-158h52v-73l-52 -10v-111h-92v105h-233z" />
<glyph unicode="&#x2075;" horiz-adv-x="417" d="M47 399v73h198q27 0 37 12t10 33v42q0 10 -1 16.5t-4.5 15t-13.5 13t-25 4.5h-85q-39 0 -39 -40h-77l15 299h304v-86h-223l-6 -107q20 16 66 18.5t67 -0.5q58 -2 86 -35.5t28 -89.5v-64q0 -61 -34 -90t-87 -29q-52 0 -75.5 0.5t-61 4t-79.5 10.5z" />
<glyph unicode="&#x2076;" horiz-adv-x="439" d="M46 640q0 35 3 64.5t8 51.5t12 39.5t16 29.5t18 20.5t21 14t22.5 8t23.5 3.5q83 9 218 -12v-72h-186q-17 0 -30 -8.5t-19 -20t-10 -30.5t-4.5 -31.5t-0.5 -32.5q74 15 151 15q66 0 91 -30t25 -81v-69q0 -56 -31.5 -83.5t-85.5 -27.5h-105q-25 0 -44.5 6t-37.5 22 t-30 43.5t-18.5 73t-6.5 107.5zM138 596q0 -122 62 -122h73q8 0 15 1.5t11.5 4.5t7.5 8t4.5 11.5t1.5 15.5v43q0 23 -8.5 30.5t-30.5 7.5h-136z" />
<glyph unicode="&#x2077;" horiz-adv-x="386" d="M13 782v86h336l24 -41l-183 -439h-100l164 394h-241z" />
<glyph unicode="&#x2078;" horiz-adv-x="464" d="M56 496v50q0 31 15 49.5t40 24.5q-55 21 -55 94v41q0 64 33.5 90t91.5 26h111q59 0 88 -27t29 -89v-36q0 -8 -1.5 -17.5t-5.5 -22t-15.5 -22.5t-28.5 -13q15 -3 25.5 -13t15.5 -24.5t7.5 -27.5t2.5 -25v-56q0 -64 -31 -87.5t-84 -23.5h-117q-39 0 -64.5 9.5t-37 27 t-15.5 34t-4 38.5zM147 508q0 -20 9.5 -28.5t34.5 -8.5h85q22 0 32 8.5t10 28.5v40q0 43 -41 43h-87q-22 0 -32.5 -10t-10.5 -33v-40zM147 715q0 -43 43 -43h84q28 0 36 11.5t8 31.5v26q0 19 -6 29.5t-15 14t-26 3.5h-75q-28 0 -38.5 -9.5t-10.5 -37.5v-26z" />
<glyph unicode="&#x2079;" horiz-adv-x="439" d="M38 692v69q0 57 31.5 84.5t85.5 27.5h105q25 0 44 -5.5t37.5 -22t30 -44.5t18.5 -74t6 -108q0 -56 -7 -97.5t-17.5 -66t-27 -40t-33 -21.5t-38.5 -9q-100 -11 -218 13v72h185q17 0 30 8.5t19.5 20t10 31t4.5 32.5t1 33q-74 -15 -151 -15q-66 0 -91 30t-25 82zM129 702 q0 -23 9 -30.5t31 -7.5h136q0 123 -60 123h-75q-22 0 -31.5 -9.5t-9.5 -32.5v-43z" />
<glyph unicode="&#x207f;" horiz-adv-x="403" d="M32 378v354h68l21 -44q2 1 16 10.5t17 11t15 8.5t18.5 9t18 5.5t22.5 5t24 1.5q61 0 90 -34t29 -87v-240h-91v231q0 26 -14 39t-37 13q-16 0 -28.5 -1.5t-26 -6.5t-23 -9.5t-28.5 -14.5v-251h-91z" />
<glyph unicode="&#x2080;" horiz-adv-x="465" d="M51 -84v245q0 118 125 118h118q121 0 121 -116v-247q0 -64 -31.5 -90t-89.5 -26h-118q-60 0 -92.5 25.5t-32.5 90.5zM143 -68q0 -27 11 -36.5t40 -9.5h81q29 0 39 10t10 36v215q0 25 -10 35.5t-38 10.5h-84q-13 0 -22.5 -2.5t-14.5 -6.5t-8 -11t-3.5 -12t-0.5 -14v-215z " />
<glyph unicode="&#x2081;" horiz-adv-x="270" d="M14 166v60l111 54h91v-479h-92v392z" />
<glyph unicode="&#x2082;" horiz-adv-x="397" d="M27 201q-1 0 -1 17v34.5t1 16.5q113 18 194 18q73 0 107 -38.5t34 -103.5q0 -32 -16 -67.5t-35 -61t-50 -56.5t-45 -43t-37 -30h183v-86h-332v81q4 4 24 18.5t31.5 23t34 25.5t36.5 29.5t33.5 30.5t32 33t24 32t17.5 33t6 30q0 35 -17 49.5t-60 14.5h-165z" />
<glyph unicode="&#x2083;" horiz-adv-x="409" d="M25 196v66q28 10 66 14.5t64 5t79 0.5q40 0 69 -16t42.5 -42.5t13.5 -61.5v-31q0 -36 -14 -59.5t-40 -32.5q54 -24 54 -97v-25q0 -121 -130 -121h-25h-25t-22 0.5t-24 1t-20.5 1.5t-22.5 2.5t-20 3t-21.5 4.5t-19.5 6l1 67h168q40 0 55 10.5t15 37.5v16q0 52 -66 53 l-132 5v72l132 8q35 1 51 12.5t16 36.5v16q0 47 -67 47h-177z" />
<glyph unicode="&#x2084;" horiz-adv-x="427" d="M14 -55l184 334h98l-154 -283h130v109l25 49h66v-158h52v-73l-52 -10v-112h-91v106h-236z" />
<glyph unicode="&#x2085;" horiz-adv-x="418" d="M47 -15l15 294h306v-86h-224l-6 -106q19 16 65 18.5t68 -1.5q58 -2 86 -35t28 -89v-64q0 -32 -9.5 -55.5t-26.5 -37t-38.5 -20.5t-46.5 -7q-53 0 -76.5 0.5t-60.5 4t-80 11.5v72h199q27 0 37.5 12t10.5 33v42q0 10 -1 16.5t-5 15.5t-13.5 13.5t-25.5 4.5h-85 q-39 0 -39 -36h-78z" />
<glyph unicode="&#x2086;" horiz-adv-x="439" d="M46 53q0 35 3 64t8 51t12 39.5t16 30t18 21t21 13.5t22.5 8t23.5 4q99 10 218 -13v-71h-186q-17 0 -30 -8.5t-19 -20t-10 -30.5t-4.5 -32t-0.5 -32q74 15 151 15q66 0 91 -30t25 -81v-69q0 -57 -31.5 -84t-85.5 -27h-105q-25 0 -44.5 5.5t-37.5 22t-30 44t-18.5 73 t-6.5 107.5zM138 8q0 -121 62 -121h72q9 0 16 1.5t11.5 4.5t7.5 7.5t4.5 11.5t1.5 16v43q0 22 -8.5 29.5t-30.5 7.5h-136z" />
<glyph unicode="&#x2087;" horiz-adv-x="386" d="M13 194v86h336l24 -40l-183 -439h-100l164 393h-241z" />
<glyph unicode="&#x2088;" horiz-adv-x="464" d="M56 -41q0 30 15 49t40 24q-55 21 -55 94v41q0 34 9.5 57.5t27.5 36t39 18t49 5.5h111q59 0 88 -27t29 -89v-36q0 -6 -0.5 -13t-3.5 -17.5t-8 -19.5t-15 -16t-24 -10q27 -4 39 -32.5t12 -57.5v-55q0 -64 -31 -88t-84 -24h-117q-39 0 -64.5 9.5t-37 27t-15.5 34.5t-4 39v50 zM147 -39v-40q0 -21 9.5 -29.5t34.5 -8.5h85q22 0 32 9t10 29v40q0 42 -41 42h-87q-22 0 -32.5 -9.5t-10.5 -32.5zM147 128q0 -44 43 -44h84q15 0 24 4t13 11t5.5 13t1.5 16v26q0 19 -6 29.5t-15 13.5t-26 3h-75q-28 0 -38.5 -9t-10.5 -37v-26z" />
<glyph unicode="&#x2089;" horiz-adv-x="439" d="M38 104v70q0 57 31.5 84.5t85.5 27.5h105q25 0 44 -6t37.5 -22.5t30 -44t18.5 -73.5t6 -108q0 -56 -7 -97t-17.5 -66t-27 -40.5t-33 -21.5t-38.5 -8q-95 -10 -218 12v71h185q22 0 36 11.5t19.5 33.5t7.5 38.5t2 41.5q-74 -14 -151 -14q-66 0 -91 30t-25 81zM129 115 q0 -23 9 -31t31 -8h136q0 124 -60 124h-75q-22 0 -31.5 -9.5t-9.5 -32.5v-43z" />
<glyph unicode="&#x20ac;" horiz-adv-x="615" d="M17 252v60l81 8v80l-81 8v56l81 10v2q0 24 0.5 39t5 45.5t13 51.5t26.5 47t42.5 42t64 27.5t89.5 11.5q43 0 122.5 -10t132.5 -24v-86q-152 14 -234 14q-30 0 -52.5 -3.5t-37.5 -10t-26 -18.5t-16.5 -23t-9 -30t-4 -35t-0.5 -40l234 -8v-60l-234 -6v-80l234 -8v-60 q-15 -1 -39.5 -1.5t-76 -1.5t-85.5 -2.5t-33 -2.5q0 -82 38.5 -115t107.5 -33q26 0 60 2t64 5t56.5 6t42.5 5l15 2v-84q-103 -38 -259 -38q-29 0 -55.5 4t-62 19.5t-61.5 41t-44 73.5t-18 112z" />
<glyph unicode="&#x2113;" horiz-adv-x="434" d="M25 252q26 22 57 56v296q1 64 42.5 99.5t112.5 35.5q41 0 73.5 -18.5t51.5 -55t19 -85.5q1 -78 -52.5 -158t-130.5 -142v-70q1 -64 14.5 -86.5t63.5 -31.5l19 -4.5t39 -9t21 -4.5v-74h-32.5h-64.5h-33q-74 1 -108.5 43t-34.5 142v33q-12 -9 -32 -20zM198 410 q93 121 74 198q-1 19 -19.5 28.5t-36.5 1t-18 -34.5v-193z" />
<glyph unicode="&#x2116;" horiz-adv-x="1089" d="M61 0v623q0 35 16.5 61t41.5 39t55.5 15t58 -6.5t49.5 -30t30 -51.5l189 -532q4 -14 14 -11.5t10 14.5v446q0 87 46.5 127.5t121.5 40.5l227 -1q76 -1 106 -42.5t30 -138.5q0 -89 -31.5 -130t-111.5 -42h-52q-42 1 -68 10.5t-43.5 34.5t-24 66.5t-6.5 108.5h90 q0 -38 2.5 -63t6.5 -39t12.5 -21t16 -8.5t20.5 -1.5h40q9 0 15 0.5t13 2t11 5t8 10t6.5 15.5t4 22t1.5 30q0 42 -7 61.5t-18.5 24.5t-38.5 6q-92 1 -159 1q-34 0 -55.5 -8t-34 -28t-12.5 -54v-447q0 -38 -22 -66.5t-55.5 -39t-68 -8.5t-63.5 26t-38 64l-192 538 q-4 11 -14.5 8.5t-10.5 -15.5v-616h-116z" />
<glyph unicode="&#x2122;" horiz-adv-x="700" d="M17 658v74h273v-74h-95v-275h-82v275h-96zM315 383l34 349h83l72 -217l60 217h86l38 -349h-82l-18 191l-48 -191h-70l-59 191l-15 -191h-81z" />
<glyph unicode="&#x212e;" horiz-adv-x="703" d="M51 266q0 113 84 192q43 38 94.5 56.5t122.5 18.5q66 0 115 -16t93 -50q87 -67 93 -209h-479h-3h-4.5t-3 -3t-1.5 -8v-133q0 -11 14 -26t37.5 -30.5t61 -26t77.5 -10.5q55 0 106 23.5t85 60.5h56q-58 -61 -113 -83q-58 -22 -134 -22q-138 0 -218 74q-83 77 -83 192z M162 284q0 -6 2 -7.5t7 -1.5h357h6q3 -1 4.5 -0.5t2 2t0.5 5.5v133q0 32 -63 65.5t-127 33.5q-38 0 -75 -11t-61 -26.5t-38.5 -31t-14.5 -24.5v-137z" />
<glyph unicode="&#x2202;" horiz-adv-x="638" d="M48 227q0 113 65 175.5t182 62.5q100 0 157 -57q-5 125 -42 174t-118 49q-51 0 -101 -15.5t-82 -35.5l-23 82q61 40 106 59t103 19q141 0 207.5 -92t66.5 -261q0 -81 -15.5 -150t-47 -124t-85 -86.5t-123.5 -31.5q-68 0 -123.5 24.5t-91 78t-35.5 129.5zM164 230 q0 -60 39 -93.5t97 -33.5q33 0 60 17.5t42.5 43t26 57.5t14.5 58t4 46q-56 32 -137 32q-52 0 -85.5 -17t-47 -44.5t-13.5 -65.5z" />
<glyph unicode="&#x2206;" horiz-adv-x="717" d="M17 0l311 732h74l299 -732h-684zM180 106h378l-187 457z" />
<glyph unicode="&#x220f;" horiz-adv-x="648" d="M17 623v109h614v-109h-80v-623h-116v623h-223v-623h-116v623h-79z" />
<glyph unicode="&#x2211;" horiz-adv-x="576" d="M34 -88l214 358l-214 353v109h526v-109h-384l212 -353l-212 -358h384v-112h-526v112z" />
<glyph unicode="&#x2212;" horiz-adv-x="456" d="M20 305v102h416v-102h-416z" />
<glyph unicode="&#x221a;" horiz-adv-x="647" d="M17 256v109h153l101 -206l237 641h123l-295 -800h-112l-132 256h-75z" />
<glyph unicode="&#x221e;" horiz-adv-x="770" d="M42 341q0 36 7 64.5t24 54.5t51.5 40t83.5 14q107 0 176 -99q29 47 75.5 73t102.5 26q50 0 84 -14t51.5 -40t24 -54.5t6.5 -64.5t-8 -66t-26.5 -54.5t-52 -38t-79.5 -13.5q-57 0 -101 22.5t-78 77.5q-33 -55 -74.5 -77.5t-100.5 -22.5q-46 0 -79 13.5t-51.5 38t-27 54.5 t-8.5 66zM137 341q0 -19 3 -32.5t11 -25t23.5 -17.5t38.5 -6q65 0 120 81q-22 34 -55 58t-65 24q-49 0 -62.5 -20t-13.5 -62zM437 341q54 -81 120 -81q77 0 77 81q0 41 -14.5 61.5t-62.5 20.5q-23 0 -47 -12.5t-41.5 -30t-31.5 -39.5z" />
<glyph unicode="&#x222b;" horiz-adv-x="441" d="M17 -106h72q17 0 30 8t20.5 23.5t12.5 31.5t7 42t2.5 43.5t0.5 45.5v418q0 294 150 294q20 0 37 -2t29 -5t19.5 -6t16 -7t11.5 -5v-73h-71q-24 0 -40 -16.5t-23.5 -47.5t-9.5 -60t-3 -72v-418q0 -68 -6 -117.5t-21.5 -91t-45.5 -62.5t-73 -21q-78 0 -115 25v73z" />
<glyph unicode="&#x2248;" horiz-adv-x="517" d="M42 256q19 16 31 25.5t32 22t41 18t43 5.5q30 0 74.5 -18.5t74.5 -18.5q17 0 32.5 4t24 7.5t28 13.5t28.5 14l24 -55q-3 -2 -18.5 -15.5t-21 -17.5t-20.5 -14t-25 -14t-24.5 -8t-29.5 -4q-26 0 -72 19t-77 19q-14 0 -27 -2.5t-24.5 -6.5t-22 -8.5t-24 -10.5t-26.5 -10z M42 436q25 22 41.5 34t46.5 24.5t59 12.5q30 0 74.5 -18.5t74.5 -18.5q17 0 32.5 3.5t24 7t28 13.5t28.5 15l24 -55q-3 -2 -18.5 -15.5t-21 -18t-20.5 -14.5t-25 -14t-24.5 -7.5t-29.5 -3.5q-26 0 -72 19t-77 19q-22 0 -41.5 -6t-42.5 -16.5t-40 -15.5z" />
<glyph unicode="&#x2260;" horiz-adv-x="460" d="M17 194v106h149l62 104h-211v105h273l42 69h68l-42 -69h86v-105h-148l-62 -104h210v-106h-272l-47 -80h-68l47 80h-87z" />
<glyph unicode="&#x2264;" horiz-adv-x="459" d="M42 90v95h376v-95h-376zM42 377v112l375 143v-111l-244 -87l244 -98v-112z" />
<glyph unicode="&#x2265;" horiz-adv-x="459" d="M42 90v95h376v-95h-376zM43 224v112l244 98l-244 87v111l375 -143v-112z" />
<glyph unicode="&#x25ca;" horiz-adv-x="515" d="M17 373l207 359h74l201 -359l-201 -373h-74zM137 373l124 -223l118 223l-118 213z" />
<glyph unicode="&#xe000;" horiz-adv-x="530" d="M0 530h530v-530h-530v530z" />
<glyph unicode="&#xfb00;" horiz-adv-x="790" d="M17 436v78l99 17v89q0 21 2.5 39.5t11 41t23 38.5t40 26.5t60.5 10.5q72 0 140 -24v-71l-102 1q-21 0 -33.5 -5t-18 -17.5t-6.5 -24t-1 -34.5v-70h261v99q0 156 145 156q71 0 136 -24v-71l-106 1q-17 1 -28.5 -3.5t-17.5 -9.5t-9 -18t-3.5 -22.5t-0.5 -29.5v-78h130v-95 h-131v-436h-116v436h-262v-436h-116v436h-97z" />
<glyph unicode="&#xfb03;" horiz-adv-x="994" d="M17 436v78l99 17v89q0 21 2.5 39.5t11 41t23 38.5t40 26.5t60.5 10.5q72 0 140 -24v-71l-102 1q-17 0 -28 -4t-17 -9.5t-9.5 -18.5t-4 -21t-1.5 -28l-1 -70h247v45q0 91 57 150t153 60q40 0 112 -9.5t104 -20.5v-71l-179 7q-24 1 -45.5 -3.5t-41.5 -16.5t-32 -37.5 t-12 -62.5v-41l351 -10v-521h-116v436h-236v-436h-116v436h-246v-436h-116v436h-97z" />
<glyph unicode="&#xfb04;" horiz-adv-x="1092" d="M17 436v78l99 17v89q0 21 2.5 39.5t11 41t23 38.5t40 26.5t60.5 10.5q72 0 140 -24v-71l-102 1q-21 0 -33.5 -5t-17.5 -18t-6.5 -24t-1.5 -34l-2 -70h249v48q0 101 47 153.5t137 52.5l288 -1v-581q0 -40 5.5 -61.5t15 -30.5t29.5 -16q68 -21 75 -21v-74h-106 q-48 0 -77 18t-43.5 59.5t-14.5 111.5v503h-148q-48 0 -70 -24t-22 -89v-48h129v-95h-130v-436h-116v436h-248v-436h-116v436h-97z" />
<glyph unicode="&#xfb06;" horiz-adv-x="886" d="M34 347v47q0 138 141 138h442l22 148h94v-148h132v-94h-132v-234q1 -44 6.5 -66t14.5 -29.5t30 -13.5q65 -19 68 -19v-76h-103q-69 0 -100.5 43t-31.5 147v244l-418 -1q-32 0 -40.5 -10t-8.5 -34v-34q0 -28 11.5 -35t37.5 -7h138q69 0 103 -37t34 -97v-49 q0 -135 -130 -135q-66 0 -164.5 7t-123.5 18v76h259q43 0 43 41v30q0 21 -9.5 31.5t-33.5 10.5h-136q-74 0 -109.5 31.5t-35.5 106.5z" />
<glyph horiz-adv-x="271" d="M74 630v78q0 23 23 23h76q11 0 17.5 -6.5t6.5 -16.5v-78q0 -25 -24 -25h-76q-11 0 -17 7t-6 18zM74 0l12 535h100l10 -535h-122z" />
<glyph horiz-adv-x="635" d="M59 172v284q0 84 49 130t131 46h164q92 0 132.5 -47t40.5 -126v-287q0 -86 -45.5 -129t-127.5 -43h-164q-83 0 -131.5 43t-48.5 129zM175 187q0 -43 24.5 -60.5t59.5 -17.5h121q80 0 80 77v259q0 78 -77 78h-127q-43 0 -62 -23t-19 -55v-258z" />
<glyph horiz-adv-x="363" d="M25 471v77l152 84h115v-632h-116v513z" />
<glyph horiz-adv-x="592" d="M35 530v86q163 27 303 23q212 0 212 -191q0 -45 -26 -93.5t-61 -85.5t-80 -73t-75 -55t-53 -32h292v-109h-506v103l58.5 33t67.5 40t77 49t69.5 51t63 56t39.5 54.5t17 54.5q0 48 -29 69.5t-95 19.5h-274z" />
<glyph horiz-adv-x="604" d="M42 530v81q41 15 96.5 21.5t109.5 7t116 -0.5q82 -1 129.5 -48t47.5 -124v-58q0 -112 -72 -140q72 -35 72 -147v-49q0 -85 -46.5 -130t-137.5 -45h-37h-38.5t-35 0.5t-37.5 1t-32.5 2t-35 3.5t-31 5t-33 7t-29.5 9l1 82h270q53 0 79 15t26 62v42q0 47 -25.5 66t-73.5 21 l-215 6v94l215 10q53 2 77 21t24 60v48q0 77 -101 77h-283z" />
<glyph horiz-adv-x="614" d="M17 124l282 508h130l-246 -450h219v182l33 76h83v-258h79v-90l-79 -22v-168h-116v168h-351z" />
<glyph horiz-adv-x="613" d="M64 10h290q80 0 80 79v82q0 13 -1 21.5t-5.5 20.5t-12 19.5t-22 13t-35.5 5.5h-115q-30 0 -49.5 -16t-19.5 -49h-108l22 446h436v-109h-326l-9 -193q23 21 71 26q20 3 43.5 3t50 -1t30.5 -2q57 -1 95 -24.5t54.5 -61.5t16.5 -90v-107q0 -49 -17 -85t-44.5 -55t-57 -28 t-59.5 -9q-71 0 -108 1t-85.5 6.5t-114.5 16.5v90z" />
<glyph horiz-adv-x="613" d="M55 384q0 95 14.5 165.5t40 109t54.5 57t63 20.5q144 8 313 -19v-88h-265q-100 0 -104 -211q109 20 225 20q40 0 70.5 -8.5t49 -22.5t29.5 -36t15 -44.5t4 -50.5v-118q0 -159 -172 -159h-145q-36 0 -63.5 10t-52.5 35.5t-41 68t-25.5 111t-9.5 160.5zM171 333 q0 -24 1 -43.5t3 -44t6.5 -42.5t12 -37t18 -31t26.5 -19.5t35 -7.5h103q37 0 54.5 13.5t17.5 55.5v88q0 39 -17.5 53.5t-52.5 14.5h-207z" />
<glyph horiz-adv-x="551" d="M25 523v109h467l34 -58l-252 -674h-130l237 623h-356z" />
<glyph horiz-adv-x="628" d="M63 163v82q0 90 82 110q-82 33 -82 144v65q0 49 14 84t40 54t57 27t72 8h150q85 0 127 -41t42 -132v-58q0 -9 -1 -20t-5.5 -27t-12 -29.5t-22 -24.5t-34.5 -15q27 -5 45.5 -30.5t24 -52.5t5.5 -52v-90q0 -165 -170 -165h-149q-36 0 -65.5 6.5t-48.5 16.5t-32.5 25.5 t-20.5 29t-10.5 31.5t-4.5 29t-1 25zM179 172q0 -34 19.5 -50.5t63.5 -16.5h113q33 0 53.5 17t20.5 50v82q0 34 -19.5 51.5t-52.5 17.5h-122q-76 0 -76 -69v-82zM179 494q0 -39 22.5 -54.5t53.5 -15.5h122q22 0 37 6t22.5 16.5t10 21.5t2.5 26v55q0 31 -9 50t-24.5 25.5 t-40.5 6.5h-113q-44 0 -63.5 -15t-19.5 -67v-55z" />
<glyph horiz-adv-x="613" d="M51 356v117q0 159 171 159h146q36 0 63.5 -9.5t52.5 -35.5t41 -68.5t25 -110.5t9 -161q0 -95 -14.5 -165t-39.5 -109t-54 -57.5t-64 -20.5q-164 -9 -312 20v87h264q101 0 104 212q-109 -21 -224 -21q-41 0 -71 8.5t-48.5 23t-29.5 36t-15 44t-4 51.5zM166 366 q0 -38 18 -53t53 -15h206q0 29 -1 51.5t-4 50.5t-10 48t-18 38.5t-28.5 27.5t-40.5 9h-103q-37 0 -54.5 -13.5t-17.5 -54.5v-89z" />
<glyph horiz-adv-x="542" d="M34 185v84q0 99 60.5 142.5t172.5 31.5v94h99v-183q-83 2 -125 0q-19 0 -35 -5.5t-29 -15t-20.5 -26.5t-7.5 -40v-71q0 -49 28.5 -71t90.5 -22h258v-86q-62 -11 -94 -15.5t-83 -7.5t-105 -1q-55 0 -97 16t-66 43.5t-35.5 61t-11.5 71.5zM257 631v78q0 23 23 23h76 q10 0 17 -6t7 -17v-78q0 -25 -24 -25h-76q-23 0 -23 25z" />
<glyph horiz-adv-x="860" d="M55 421q0 24 3.5 45.5t16 48.5t32.5 46t56.5 32t84.5 13h201q167 0 167 -150v-362h-78l-18 61l-8.5 -7.5t-23.5 -17.5t-34 -20.5t-45 -17.5t-52 -7q-58 -1 -93 36.5t-35 91.5v46q0 43 16.5 73.5t47.5 46.5t76 16h149q1 55 0 55q0 34 -16 46t-54 12h-200q-20 0 -35 -3 t-29.5 -12t-22 -28t-7.5 -47v-310q0 -32 9 -54.5t24 -33t29.5 -14.5t31.5 -4h339q58 0 80.5 26t22.5 80v477q0 56 -28 86t-75 30h-404v71q48 10 131 19t167 8h106q89 -1 145 -53.5t56 -160.5v-477q0 -206 -198 -206h-342q-86 0 -139 50t-53 149zM331 226q0 -17 15 -30 t37 -12q67 -1 135 47v95l-137 -13q-51 -5 -50 -54v-16v-17z" />
<glyph horiz-adv-x="555" d="M42 274q0 131 48.5 198t142.5 67q139 0 271 -27v-588q0 -97 -54.5 -150.5t-135.5 -45.5l-248 24v77h237q41 0 63 24t22 71v110q-71 -38 -155 -38q-56 0 -94 18.5t-59 57t-29.5 86.5t-8.5 116zM158 276v-32t1 -29.5t2.5 -29t4.5 -25t7.5 -23t11.5 -18t16 -15t21.5 -8 t27.5 -3.5q41 0 68 4.5t70 18.5v328h-138q-21 0 -37.5 -7.5t-26 -22.5t-15.5 -30t-8.5 -37t-3.5 -36.5t-1 -34.5z" />
<glyph horiz-adv-x="967" d="M37 307v87q0 57 14.5 93.5t47 56t72.5 26.5t102 7h434l18 133h98v-135h127v-79l-127 -19v-270q0 -48 -15 -85.5t-38.5 -60t-57 -37t-67.5 -20t-73 -5.5h-164q-43 0 -77 7.5t-62.5 24.5t-43.5 49.5t-15 78.5q-19 0 -36.5 2.5t-35 7.5t-32 12.5t-27.5 19.5t-22 27 t-14.5 35.5t-5.5 43.5zM153 311q0 -29 16 -42.5t41 -13.5q0 88 45.5 126.5t136.5 38.5h94q19 0 34.5 -1.5t32.5 -5t30 -9.5t25.5 -16.5t21 -25t13 -34.5t4.5 -45q0 -27 -4.5 -47t-15 -33.5t-23 -21.5t-32.5 -12.5t-39.5 -6t-47.5 -1.5h-159q0 -21 5.5 -33.5t19 -18t23.5 -7 t30 -1.5q4 -1 6 -1h162q64 0 99.5 27t35.5 81v268h-431q-75 0 -99 -15t-24 -67v-83zM326 254h158q13 0 19 0.5t13 2t9.5 5.5t4 10.5t1.5 17.5q0 23 -8.5 29.5t-38.5 6.5h-89q-20 0 -30 -1.5t-20.5 -8t-14.5 -21.5t-4 -41z" />
<glyph horiz-adv-x="372" d="M26 465v39q0 41 27 67t80 26q115 0 115 1q1 20 0 21q0 18 -6.5 28t-18 13t-29.5 3q-40 0 -156 -7v57q39 14 75 19t93 7q134 1 134 -110v-251h-67l-24 46q-2 -2 -12.5 -10t-26.5 -17t-38 -16t-41 -7q-48 1 -76.5 27t-28.5 64zM113 482q0 -34 38 -34q10 0 21 1.5t20 4t18 6 t15.5 6.5t12 5.5t8.5 4.5l2 2v68l-99 -9q-36 -4 -36 -36v-19z" />
<glyph horiz-adv-x="400" d="M32 378v524h91v-188q62 27 118 27q32 0 56 -9.5t37.5 -25t22 -40.5t11 -50.5t2.5 -60.5q0 -181 -129 -181q-58 0 -117 46l-22 -42h-70zM124 479q1 -1 8 -4t8.5 -3.5t8 -3t9 -3t8 -2.5t9 -2.5t9.5 -2t11 -2t11.5 -0.5h12.5q31 0 45.5 23t14.5 79q0 64 -14.5 85t-45.5 21 q-21 0 -37.5 -2t-25 -4t-32.5 -8v-171z" />
<glyph horiz-adv-x="357" d="M26 555q0 44 6.5 76t17 52t27.5 32t35 16.5t42 4.5q90 0 169 -23v-59q-71 4 -135 4q-15 0 -21.5 -0.5t-16.5 -3t-14.5 -9t-9.5 -18t-7 -30t-2 -44.5q0 -61 15.5 -81t55.5 -20q29 0 64.5 1.5t55.5 2.5l20 2v-60q-9 -4 -18.5 -7.5t-20 -5.5t-18.5 -4t-20 -3t-18 -2 t-20 -1.5t-19 -0.5h-20.5h-19.5q-29 0 -50.5 7.5t-40 26.5t-28 56t-9.5 91z" />
<glyph horiz-adv-x="398" d="M26 556q0 29 2 51t7 44t14 38t23 28.5t35 18.5t48 6q56 0 118 -27v188h90v-525h-70l-21 42q-59 -46 -117 -46q-129 0 -129 182zM118 558q0 -55 14.5 -78.5t44.5 -23.5q42 0 88 20q1 0 2 0.5t2.5 1t2.5 1.5v171q-51 15 -95 15q-31 0 -45 -21t-14 -86z" />
<glyph horiz-adv-x="390" d="M26 557q0 47 6.5 78t24.5 55t51 34.5t84 10.5q35 0 57.5 -2t45.5 -9.5t36.5 -21.5t21.5 -38t8 -59q0 -89 -108 -89h-135q0 -28 5.5 -41.5t19.5 -18.5t45 -5q121 0 165 6v-61q-66 -22 -196 -22q-71 0 -101 40.5t-30 142.5zM118 588h115q37 0 37 25q0 29 -14.5 38t-60.5 9 q-44 0 -61 -14.5t-16 -57.5z" />
<glyph horiz-adv-x="318" d="M22 658v63l66 7v68q0 107 109 107q50 0 100 -18v-57l-75 2q-15 0 -24.5 -3t-13 -11t-4.5 -15t-1 -22v-45h92v-76h-93v-280h-92v280h-64z" />
<glyph horiz-adv-x="418" d="M29 293v45l35 36q-37 18 -37 65q0 21 11.5 40t34.5 22q-44 24 -44 104q0 44 16.5 73.5t44 42.5t65.5 13h237v-52l-44 -20q4 -5 8 -16.5t6 -25.5t2 -27q0 -22 -6 -43t-19.5 -40t-39 -31t-59.5 -12h-100q-28 0 -28 -18q0 -9 4.5 -13.5t9 -5.5t14.5 -2l130 -13 q104 -11 104 -110v-8q0 -109 -110 -109h-118q-52 0 -84.5 26t-32.5 79zM119 309q0 -27 12 -35t36 -8h76q23 0 32 8.5t9 29.5v5q0 19 -11.5 27t-36.5 11l-89 11l-28 2v-51zM121 605q-1 -63 54 -63h48q50 0 50 63q0 26 -13 40.5t-37 14.5h-46q-29 0 -42 -13.5t-14 -41.5z" />
<glyph horiz-adv-x="403" d="M32 378v522h91v-211q3 2 17.5 11.5t19.5 13t18.5 10t22.5 9t23 5t28 2.5q61 0 90 -34t29 -87v-241h-91v231q0 27 -14.5 40t-37.5 13q-30 0 -50 -6.5t-55 -25.5v-252h-91z" />
<glyph horiz-adv-x="159" d="M29 786v59q0 19 18 19h65q17 0 17 -19v-59q0 -17 -17 -17h-65q-18 0 -18 17zM32 378v356h92v-356h-92z" />
<glyph horiz-adv-x="161" d="M30 790v58q0 19 18 19h65q17 0 17 -19v-58q0 -18 -17 -18h-65q-18 0 -18 18zM33 196v537h93v-358q2 -111 -24 -179h-69z" />
<glyph horiz-adv-x="401" d="M32 378v521h91v-289h22l121 120h113l-157 -154l156 -198h-106l-123 161h-26v-161h-91z" />
<glyph horiz-adv-x="233" d="M31 504v396h92v-379q0 -38 7 -51t27 -20q48 -14 53 -14v-58h-78q-36 0 -57.5 12t-32.5 39.5t-11 74.5z" />
<glyph horiz-adv-x="654" d="M32 378v354h70l20 -46q4 3 15.5 11t16 10.5t15 9t17.5 8.5t17.5 5.5t21 5t23.5 1.5q37 0 64.5 -14.5t40.5 -40.5q67 55 149 55q57 0 88.5 -33.5t31.5 -87.5v-238h-92v228q0 25 -14 39t-36 14q-60 0 -108 -30v-22v-229h-91v228q0 25 -15 39t-37 14q-31 0 -51.5 -7 t-54.5 -25v-249h-91z" />
<glyph horiz-adv-x="399" d="M26 550q0 98 38 141.5t134 43.5q95 0 132.5 -43.5t37.5 -141.5q0 -46 -8 -77.5t-27.5 -54t-52.5 -33t-82 -10.5q-95 0 -133.5 42t-38.5 133zM118 550q0 -61 17.5 -79t62.5 -18q23 0 36 2.5t24 12.5t15 29.5t4 52.5q0 67 -16.5 87t-63.5 20q-46 0 -62.5 -21t-16.5 -86z " />
<glyph horiz-adv-x="398" d="M32 193v542h70l20 -41q20 16 54.5 31t65.5 15q35 0 60.5 -14.5t39.5 -40.5t20 -58t6 -71q0 -41 -5 -72t-18 -59t-39 -42.5t-64 -14.5q-61 0 -120 28v-203h-90zM122 459q48 -15 97 -15q30 0 44 22t14 88q0 56 -14.5 80t-42.5 24q-48 0 -98 -25v-174z" />
<glyph horiz-adv-x="400" d="M26 556q0 184 143 184q102 0 196 -21v-526h-91v203q-54 -30 -106 -30q-41 0 -70 14t-44 41t-21.5 59.5t-6.5 75.5zM118 557v-24t1 -22.5t3.5 -22t7.5 -17.5t12 -15t18 -9t25 -4q8 0 14.5 0.5t11 0.5t10 1t8 1t9.5 2t9.5 2.5t12 3.5t14.5 4v206h-88q-23 0 -38 -10.5 t-21 -29t-7.5 -33t-1.5 -34.5z" />
<glyph horiz-adv-x="320" d="M32 378v354h75l15 -51q18 14 26.5 20t25.5 16t33.5 14.5t34.5 4.5q35 0 48 -6v-88q-19 3 -54.5 3t-60 -8t-52.5 -29v-230h-91z" />
<glyph horiz-adv-x="371" d="M26 614v33q0 93 95 93q27 0 66 -2.5t77 -7t58 -9.5v-61h-176q-14 0 -21.5 -4t-9.5 -9t-2 -15v-17q0 -12 5 -18t11 -7t18 -1h102q31 0 52.5 -12t31 -31.5t9.5 -45.5v-38q0 -92 -90 -92q-43 0 -118 6t-91 14v60h182h1.5h3h3.5h4t4.5 1t4 2t3.5 3t3 5t2 6.5t1 8.5v17 q0 13 -6.5 19.5t-23.5 6.5h-100q-49 0 -74 22.5t-25 72.5z" />
<glyph horiz-adv-x="301" d="M23 659v56l65 15l18 102h74v-98h93v-75h-93v-141q0 -40 6 -51t28 -16q46 -13 48 -13v-59h-76q-51 0 -74.5 28t-23.5 95v157h-65z" />
<glyph horiz-adv-x="399" d="M30 496v236h92v-231q0 -25 14 -38.5t36 -13.5q30 0 48.5 6t52.5 24v253h91v-354h-69l-22 45q-3 -2 -14 -10.5t-14 -10.5t-12.5 -8t-13.5 -8t-13.5 -6t-17 -5t-17.5 -2.5t-21 -1.5q-61 0 -90.5 35.5t-29.5 89.5z" />
<glyph horiz-adv-x="415" d="M21 732h94l93 -244l92 244h93l-143 -354h-85z" />
<glyph horiz-adv-x="606" d="M21 732h94l93 -244l88 244h89l-41 -106l57 -138l89 244h93l-141 -354h-83l-58 135l-53 -135h-83z" />
<glyph horiz-adv-x="410" d="M22 378l133 179l-133 175h103l80 -110l77 110h104l-130 -176l130 -178h-102l-78 115l-81 -115h-103z" />
<glyph horiz-adv-x="436" d="M21 733h91l84 -252q9 -28 32 -29l92 281h94l-149 -469l-57 -68h-65l61 180q-33 1 -55 23.5t-33 55.5z" />
<glyph horiz-adv-x="369" d="M26 654v78h313v-75l-181 -200h180v-78h-301v78l184 197h-195z" />
<glyph horiz-adv-x="616" d="M49 172v384q0 85 49 130.5t131 45.5h164q91 0 132.5 -48t41.5 -124v-388q0 -86 -46 -129t-128 -43h-164q-54 0 -93.5 17.5t-63 57t-23.5 97.5zM165 187q0 -43 24.5 -60.5t59.5 -17.5h122q80 0 80 77v360q0 77 -78 77h-127q-43 0 -62 -23t-19 -54v-359z" />
<glyph horiz-adv-x="616" d="M130 569v77l160 86h116v-630h151v-102h-424v102h157v511z" />
<glyph horiz-adv-x="616" d="M48 632v86q151 24 304 24q54 0 95.5 -18t66 -49t37 -70t12.5 -83q0 -42 -17 -87.5t-47.5 -87.5t-61.5 -78t-70 -70t-62 -53t-47 -37h305v-109h-509v103q37 25 79.5 56.5t101 81t103.5 95.5t77 97t32 89q0 110 -125 110h-274z" />
<glyph horiz-adv-x="616" d="M56 625v81q41 15 96.5 21.5t109.5 7t115 -0.5q82 -1 129.5 -48t47.5 -124v-58q0 -112 -72 -140q72 -35 72 -147v-49q0 -85 -46.5 -130t-137.5 -45h-37h-38.5t-34.5 0.5t-37 1t-33 2t-35.5 3.5t-30.5 5t-33 7t-29 9v82h270q54 0 79.5 14t25.5 63v42q0 32 -13.5 51.5 t-34 26.5t-51.5 8l-214 8v92l214 10q53 3 77 22t24 60v48q0 77 -101 77h-282z" />
<glyph horiz-adv-x="616" d="M24 224l283 508h130l-246 -450h218v182l33 76h83v-258h80v-90l-80 -22v-168h-116v168h-351z" />
<glyph horiz-adv-x="616" d="M64 20v90h290q80 0 80 79v82q0 9 -0.5 15.5t-2.5 15t-5 15t-8.5 13.5t-13 11t-19.5 7t-27 3h-115q-30 0 -49.5 -16t-19.5 -49h-108l22 446h436v-109h-326l-9 -193q22 20 70 26q20 2 43.5 2.5t51.5 -0.5t30 -2q57 -1 95 -24.5t54.5 -61.5t16.5 -90v-107q0 -39 -11.5 -70.5 t-29.5 -51t-42 -32.5t-47.5 -18t-47.5 -5q-102 0 -157.5 4t-150.5 20z" />
<glyph horiz-adv-x="616" d="M52 384q0 77 9.5 137.5t26 99.5t39 65t46.5 37.5t51 12.5q140 8 312 -19v-88h-264q-101 0 -104 -211q108 20 224 20q41 0 71 -8.5t48.5 -22.5t29.5 -36t15 -44.5t4 -50.5v-118q0 -159 -171 -159h-146q-36 0 -63.5 10t-52.5 35.5t-41 68t-25 111t-9 160.5zM168 333 q0 -24 0.5 -43.5t3 -44t6.5 -42.5t12 -37t18.5 -31t26 -19.5t35.5 -7.5h102q38 0 55.5 13.5t17.5 55.5v88q0 39 -18 53.5t-53 14.5h-206z" />
<glyph horiz-adv-x="616" d="M57 623v109h467l34 -58l-253 -674h-129l237 623h-356z" />
<glyph horiz-adv-x="616" d="M58 163v82q0 90 81 110q-82 33 -82 144v65q0 49 14 84t40 54t57.5 27t71.5 8h150q85 0 127 -41t42 -132v-58q0 -9 -1 -20t-5.5 -27t-12 -29.5t-22 -24.5t-34.5 -15q27 -5 45.5 -30.5t24 -52.5t5.5 -52v-90q0 -165 -170 -165h-149q-50 0 -86.5 13t-54.5 29.5t-28 42.5 t-11.5 41.5t-1.5 36.5zM174 172q0 -34 19 -50.5t63 -16.5h113q33 0 53.5 17t20.5 50v82q0 34 -19.5 51.5t-52.5 17.5h-122q-75 0 -75 -69v-82zM174 494q0 -39 22 -54.5t53 -15.5h122q42 0 57 19.5t15 50.5v55q0 46 -18 64t-56 18h-113q-44 0 -63 -15t-19 -67v-55z" />
<glyph horiz-adv-x="616" d="M52 460v117q0 159 171 159h145q36 0 64 -9.5t52.5 -35.5t40.5 -68.5t25.5 -110.5t9.5 -161q0 -95 -14.5 -165t-40 -109t-54.5 -57.5t-63 -20.5q-162 -9 -312 20v87h264q101 0 104 212q-109 -21 -224 -21q-51 0 -85.5 12.5t-52 36t-24 50.5t-6.5 64zM167 470 q0 -38 17.5 -53t52.5 -15h207q0 29 -1 51.5t-4.5 50.5t-10.5 48t-17.5 38t-28 27.5t-40.5 9.5h-103q-37 0 -54.5 -13.5t-17.5 -55.5v-88z" />
<glyph horiz-adv-x="616" d="M49 172v284q0 84 49 130t131 46h164q92 0 133 -47.5t41 -125.5v-287q0 -86 -46 -129t-128 -43h-164q-54 0 -93.5 17.5t-63 57t-23.5 97.5zM165 187q0 -43 24.5 -60.5t59.5 -17.5h122q80 0 80 77v259q0 78 -78 78h-127q-43 0 -62 -23t-19 -55v-258z" />
<glyph horiz-adv-x="616" d="M122 471v77l152 84h115v-530h145v-102h-411v102h150v411z" />
<glyph horiz-adv-x="616" d="M48 530v86q162 27 303 23q212 0 212 -191q0 -45 -26 -93.5t-61 -85.5t-80 -73t-75 -55t-53 -32h291v-109h-505v103q39 22 58 33t67.5 40t77 49t69 51t63.5 56t40 54.5t17 54.5q0 48 -29.5 69.5t-94.5 19.5h-274z" />
<glyph horiz-adv-x="616" d="M56 529v81q41 15 96.5 22t109.5 7t115 -1q82 -1 129.5 -48t47.5 -124v-58q0 -112 -72 -140q72 -35 72 -147v-49q0 -85 -46.5 -130t-137.5 -45h-37h-38.5t-34.5 0.5t-37 1.5t-33 2t-35.5 3t-30.5 5t-33 7t-29 9v82h270q54 0 79.5 14.5t25.5 63.5v41q0 47 -25.5 66 t-73.5 21l-214 7v93l214 10q53 2 77 21t24 60v48q0 77 -101 77h-282z" />
<glyph horiz-adv-x="616" d="M24 124l283 508h130l-246 -450h218v182l33 76h83v-258h80v-90l-80 -22v-168h-116v168h-351z" />
<glyph horiz-adv-x="616" d="M74 10h290q80 0 80 79v82q0 16 -2 27t-9 25t-23.5 21t-41.5 7h-115q-30 0 -49.5 -16t-19.5 -49h-108l22 446h436v-109h-326l-9 -193q23 21 71 26q20 3 43.5 3t50 -1t30.5 -2q57 -1 95 -24.5t54.5 -61.5t16.5 -90v-107q0 -49 -17 -85t-44.5 -55t-57 -28t-59.5 -9 q-71 0 -108 1t-85.5 6.5t-114.5 16.5v90z" />
<glyph horiz-adv-x="616" d="M52 384q0 77 9.5 137.5t26 99.5t39 65t46.5 37.5t51 12.5q140 8 312 -19v-88h-264q-101 0 -104 -211q108 20 224 20q41 0 71 -8.5t48.5 -22.5t29.5 -36t15 -44.5t4 -50.5v-118q0 -159 -171 -159h-146q-36 0 -63.5 10t-52.5 35.5t-41 68t-25 111t-9 160.5zM168 333 q0 -24 0.5 -43.5t3 -44t6.5 -42.5t12 -37t18.5 -31t26 -19.5t35.5 -7.5h102q38 0 55.5 13.5t17.5 55.5v88q0 39 -18 53.5t-53 14.5h-206z" />
<glyph horiz-adv-x="616" d="M57 523v109h467l34 -58l-253 -674h-129l237 623h-356z" />
<glyph horiz-adv-x="616" d="M58 163v82q0 90 81 110q-82 33 -82 144v65q0 49 14 84t40 54t57.5 27t71.5 8h150q85 0 127 -41t42 -132v-58q0 -9 -1 -20t-5.5 -27t-12 -29.5t-22 -24.5t-34.5 -15q27 -5 45.5 -30.5t24 -52.5t5.5 -52v-90q0 -165 -170 -165h-149q-50 0 -86.5 13t-54.5 29.5t-28 42.5 t-11.5 41.5t-1.5 36.5zM174 172q0 -34 19 -50.5t63 -16.5h113q33 0 53.5 17t20.5 50v82q0 34 -19.5 51.5t-52.5 17.5h-122q-75 0 -75 -69v-82zM174 494q0 -39 22 -54.5t53 -15.5h122q42 0 57 19.5t15 50.5v55q0 46 -18 64t-56 18h-113q-44 0 -63 -15t-19 -67v-55z" />
<glyph horiz-adv-x="616" d="M52 356v117q0 159 171 159h145q36 0 64 -9.5t52.5 -35.5t40.5 -68.5t25.5 -110.5t9.5 -161q0 -95 -14.5 -165t-40 -109t-54.5 -57.5t-63 -20.5q-165 -9 -312 20v87h264q101 0 104 212q-109 -21 -224 -21q-41 0 -71.5 8.5t-48.5 23t-29.5 36t-15 44t-3.5 51.5zM167 366 q0 -38 17.5 -53t52.5 -15h207q0 29 -1 51.5t-4.5 50.5t-10.5 48t-17.5 38.5t-28 27.5t-40.5 9h-103q-37 0 -54.5 -13.5t-17.5 -54.5v-89z" />
<glyph horiz-adv-x="555" d="M42 274q0 131 48.5 198t142.5 67q139 0 271 -27v-588q0 -97 -54.5 -150.5t-135.5 -45.5l-248 24v77h237q41 0 63 24t22 71v110q-71 -38 -155 -38q-56 0 -94 18.5t-59 57t-29.5 86.5t-8.5 116zM158 276v-32t1 -29.5t2.5 -29t4.5 -25t7.5 -23t11.5 -18t16 -15t21.5 -8 t27.5 -3.5q41 0 68 4.5t70 18.5v328h-138q-18 0 -33 -6.5t-24.5 -16t-16 -24.5t-10 -28.5t-5.5 -32.5t-2.5 -31t-0.5 -29zM177 710h54q0 -17 8 -31t21.5 -21.5t30.5 -7.5q28 0 45 16.5t17 43.5h54q0 -52 -34 -83t-82 -31q-31 0 -56.5 13.5t-41.5 40t-16 60.5z" />
<glyph horiz-adv-x="555" d="M42 274q0 131 48.5 198t142.5 67q139 0 271 -27v-588q0 -97 -54.5 -150.5t-135.5 -45.5l-248 24v77h237q41 0 63 24t22 71v110q-71 -38 -155 -38q-56 0 -94 18.5t-59 57t-29.5 86.5t-8.5 116zM158 276v-32t1 -29.5t2.5 -29t4.5 -25t7.5 -23t11.5 -18t16 -15t21.5 -8 t27.5 -3.5q41 0 68 4.5t70 18.5v328h-138q-18 0 -33 -6.5t-24.5 -16t-16 -24.5t-10 -28.5t-5.5 -32.5t-2.5 -31t-0.5 -29zM235 621v68q0 25 24 25h64q11 0 17 -7t6 -18v-68q0 -23 -23 -23h-64q-10 0 -17 6t-7 17z" />
<glyph horiz-adv-x="555" d="M42 274q0 131 48.5 198t142.5 67q139 0 271 -27v-588q0 -97 -54.5 -150.5t-135.5 -45.5l-248 24v77h237q41 0 63 24t22 71v110q-71 -38 -155 -38q-56 0 -94 18.5t-59 57t-29.5 86.5t-8.5 116zM158 276v-32t1 -29.5t2.5 -29t4.5 -25t7.5 -23t11.5 -18t16 -15t21.5 -8 t27.5 -3.5q41 0 68 4.5t70 18.5v328h-138q-18 0 -33 -6.5t-24.5 -16t-16 -24.5t-10 -28.5t-5.5 -32.5t-2.5 -31t-0.5 -29zM143 596l111 134h92l100 -134h-85l-64 64l-68 -64h-86zM346 730z" />
<glyph horiz-adv-x="856" d="M34 261q0 68 9 117.5t24 79t39 46.5t48.5 23t58.5 6l379 -1l22 148h94v-148h132v-97h-132v-231q0 -44 6 -66t15 -29.5t30 -13.5q65 -19 68 -19v-76h-103q-69 0 -100.5 43t-31.5 147v245h-341q-16 0 -24.5 -0.5t-21.5 -4t-19.5 -10t-14.5 -19.5t-12 -32t-6.5 -47t-2.5 -65 q0 -72 10 -107.5t29.5 -46.5t58.5 -11q41 0 93 2t83 5l32 2v-76q-39 -12 -78 -19.5t-77 -10t-91 -2.5q-33 0 -57 5.5t-48 22t-38.5 45.5t-23.5 78t-9 117z" />
<glyph horiz-adv-x="749" d="M17 437v70l90 25l22 148h94v-148h261l22 148h94v-148h132v-95h-132v-233q1 -44 6.5 -66t15 -29t30.5 -14q65 -19 68 -19v-76h-104q-68 0 -100 43.5t-32 146.5v247h-261v-233q1 -44 6.5 -66t14.5 -29t30 -14q65 -19 68 -19v-76h-103q-69 0 -100.5 43.5t-31.5 146.5v247 h-90z" />
<glyph horiz-adv-x="762" d="M17 436v78l89 17v99q0 156 145 156q71 0 136 -24v-71l-106 1q-17 1 -28.5 -3.5t-17.5 -9.5t-9 -18t-3.5 -22.5t-0.5 -29.5v-77h276l22 148h94v-148h132v-95h-132v-233q0 -44 6 -66t15 -29t30 -14q65 -19 68 -19v-76h-103q-69 0 -100.5 43.5t-31.5 146.5v247h-277v-437 h-116v436h-88z" />
<glyph horiz-adv-x="957" d="M17 437v70l90 25l22 148h94v-148h149q58 0 93 -13.5t53 -38t31 -69.5l87 -267q2 -8 6 -14t8 -10t9 -7t9 -4.5t9 -2.5t7.5 -1h6h3.5l123 426h124l-202 -699l-75 -102h-83l87 270q-107 0 -147 126l-82 243q-7 25 -17.5 39.5t-28.5 21.5t-47 7h-123v-233q1 -44 6.5 -66 t14.5 -29.5t30 -13.5q65 -19 68 -19v-76h-103q-69 0 -100.5 43.5t-31.5 146.5v247h-90z" />
<glyph horiz-adv-x="978" d="M17 436v78l89 17v99q0 156 145 156q53 0 136 -31v-70l-106 7q-17 2 -28.5 -2t-17.5 -9.5t-9 -19t-3.5 -22.5t-0.5 -30v-78h164q59 0 94.5 -13.5t54 -37.5t32.5 -69l90 -267q3 -7 6.5 -13.5t7.5 -10t9 -6.5t9 -4.5t9 -2.5t8 -1.5t6 -0.5h3l123 427h123l-201 -699l-75 -102 h-83l87 270q-48 0 -87 29.5t-60 96.5l-84 242q-12 37 -33 52t-64 15h-140v-436h-116v436h-88z" />
<glyph horiz-adv-x="555" d="M234 617v100q0 27 11 43.5t26 22t30.5 7t26.5 -0.5l11 -2v-39q-13 1 -19.5 -4t-7.5 -9.5t-1 -10.5v-17h10q22 0 22 -22v-68q0 -24 -22 -24h-65q-22 0 -22 24zM42 274q0 131 48.5 198t142.5 67q139 0 271 -27v-588q0 -97 -54.5 -150.5t-135.5 -45.5l-248 24v77h237 q41 0 63 24t22 71v110q-71 -38 -155 -38q-56 0 -94 18.5t-59 57t-29.5 86.5t-8.5 116zM158 276v-32t1 -29.5t2.5 -29t4.5 -25t7.5 -23t11.5 -18t16 -15t21.5 -8t27.5 -3.5q41 0 68 4.5t70 18.5v328h-138q-21 0 -37.5 -7.5t-26 -22.5t-15.5 -30t-8.5 -37t-3.5 -36.5t-1 -34.5 z" />
<glyph horiz-adv-x="271" d="M72 23v78q0 25 24 25h76q11 0 17 -7t6 -18v-78q0 -23 -23 -23h-76q-11 0 -17.5 6.5t-6.5 16.5zM73 570h122l-12 -392h-100z" />
<glyph horiz-adv-x="420" d="M72 547v67h113v-67l-10 -134h-92zM236 547v67h113v-67l-10 -134h-92z" />
<glyph horiz-adv-x="593" d="M17 159l12 80h121l18 102h-122l11 80h123l27 157h80l-27 -157h106l26 157h80l-26 -157h132l-12 -80h-132l-17 -102l132 -1l-11 -79h-133l-27 -160h-80l26 160h-106l-26 -160h-80l26 160h-121zM231 239h106l17 102h-106z" />
<glyph horiz-adv-x="513" d="M42 380v33q0 159 169 161v72h80v-74q72 -6 155 -18v-85q-176 3 -216 3q-34 0 -53 -12.5t-19 -48.5v-24q0 -52 66 -52h92q41 0 71.5 -13.5t47.5 -36.5t25.5 -49t8.5 -55v-35q0 -159 -178 -154v-68h-80v72q-127 10 -149 17v83q2 0 89 -0.5t136 -0.5q26 0 45.5 12.5 t19.5 40.5v29q0 26 -16.5 40t-44.5 14h-88q-161 0 -161 149z" />
<glyph horiz-adv-x="883" d="M24 362v80q0 66 30 97t103 31h65q71 0 100.5 -31t29.5 -97v-80q0 -67 -29.5 -98t-102.5 -31h-65q-71 0 -101 31.5t-30 97.5zM110 372q0 -30 11.5 -41.5t42.5 -11.5h47q35 0 45 11.5t10 41.5v59q0 32 -11.5 42.5t-41.5 10.5h-47q-34 0 -45 -11t-11 -42v-59zM239 0l315 570 h90l-313 -570h-92zM531 129v80q0 44 12 71.5t41.5 42t79.5 14.5h64q36 0 61.5 -8t40.5 -24.5t22 -39.5t7 -56v-80q0 -66 -30 -97.5t-103 -31.5h-64q-72 0 -101.5 31.5t-29.5 97.5zM617 139q0 -30 11 -41.5t42 -11.5h48q35 0 45 11.5t10 41.5v59q0 32 -11.5 42.5t-41.5 10.5 h-48q-23 0 -34.5 -5t-16 -15.5t-4.5 -32.5v-59z" />
<glyph horiz-adv-x="584" d="M63 65q-44 66 -33 124.5t69 108.5l62 52l-36 44q-31 44 -28.5 81.5t26.5 63.5t56 31q103 16 237 -18v-81h-150q-71 0 -25 -57l141 -176l93 76l41 -46l-48 -86l-24 -24l121 -158h-128l-71 89l-58 -56q-29 -26 -73 -36t-92.5 6.5t-79.5 61.5zM151 126q10 -13 24.5 -21 t34.5 -6.5t37 18.5l55 53l-78 97l-58 -47q-20 -16 -26.5 -35t-2.5 -33t14 -26z" />
<glyph horiz-adv-x="256" d="M72 547v67h113v-67l-10 -134h-92z" />
<glyph horiz-adv-x="431" d="M42 403v50l139 26l5 -81zM103 252l25 136l78 -19l-56 -132zM169 556l49 18l70 -121l-75 -32zM197 307l44 68l112 -91l-29 -40zM244 408l119 78l27 -43l-95 -97z" />
<glyph horiz-adv-x="575" d="M59 162v246q0 54 23.5 91.5t61.5 54t87 16.5h118q44 0 76.5 -12.5t49 -30t26.5 -42t12.5 -42t2.5 -35.5v-246q0 -162 -167 -162h-118q-36 0 -65.5 8.5t-54 27t-38.5 51t-14 75.5zM175 181q0 -72 76 -72h78q71 0 71 72v205q0 35 -15 55t-57 20h-78q-43 0 -59 -20t-16 -55 v-205z" />
<glyph horiz-adv-x="349" d="M34 410v78l133 83h115v-571h-116v452z" />
<glyph horiz-adv-x="514" d="M34 464v84q25 4 57.5 10t49.5 8.5t50 5t76 2.5q206 0 206 -194q0 -42 -18 -81.5t-42 -68t-57 -55t-56.5 -40.5t-47.5 -26h217v-109h-429v103q20 13 67.5 39.5t84.5 49t77 52.5t62 63.5t22 68.5q0 47 -25 68.5t-89 19.5h-205z" />
<glyph horiz-adv-x="508" d="M25 466v85q79 27 280 22q65 -2 102.5 -43.5t37.5 -100.5v-31q0 -98 -54 -114q54 -29 54 -121v-22q0 -144 -145 -146q-48 0 -94 -0.5t-95 5t-81 16.5v86h230q20 0 33 3.5t23.5 15.5t10.5 34v19q0 33 -16.5 45t-47.5 13l-185 5v94l185 4q36 1 51 12.5t15 43.5v23 q0 28 -16 40t-49 12h-239z" />
<glyph horiz-adv-x="551" d="M17 186l203 384h128l-173 -333h168v137l37 82h79v-219h76v-91l-76 -18v-126h-116v126h-288z" />
<glyph horiz-adv-x="535" d="M64 23v87h241q36 0 50 14t14 43v41v17t-3.5 14.5t-9.5 12.5t-18.5 7.5t-31.5 3.5h-78q-26 0 -43.5 -13.5t-17.5 -43.5h-102l17 364h377v-109h-273l-7 -131q27 30 67 30h78q85 0 123 -38.5t38 -113.5v-56q0 -81 -44.5 -116.5t-116.5 -36.5q-86 -1 -144 3.5t-116 20.5z" />
<glyph horiz-adv-x="543" d="M55 300q0 46 5.5 84.5t14.5 66.5t21.5 50t27 35.5t31 22.5t32.5 13t33 4q146 1 255 -15v-94h-234q-22 0 -37 -13.5t-21.5 -35.5t-9 -40.5t-2.5 -38.5q79 12 187 12q135 0 135 -135v-76q0 -71 -41 -106t-101 -35h-125q-32 0 -56 7t-46.5 26.5t-37 52.5t-23 87t-8.5 128z M171 254v-22.5t1.5 -25.5t3.5 -28.5t7 -25.5t12 -23.5t18 -14.5t25 -6h92q24 0 35.5 9t11.5 37v61q0 24 -10.5 31.5t-36.5 7.5h-159z" />
<glyph horiz-adv-x="476" d="M25 461v109h391l36 -58l-194 -512h-126l175 461h-282z" />
<glyph horiz-adv-x="567" d="M63 130v70q0 21 5.5 35t18 22.5t20 12t24.5 8.5q-35 12 -51.5 44t-16.5 68v43q0 81 35 111.5t107 30.5h166q66 0 100 -33t34 -109v-43q0 -10 -1 -20.5t-6 -27t-18 -29t-33 -16.5q29 -5 43.5 -35.5t14.5 -61.5v-70q0 -38 -12.5 -65t-33 -40t-42 -19t-44.5 -6h-171 q-38 0 -65 9.5t-41 22t-22 32.5t-9.5 33.5t-1.5 32.5zM179 148q0 -27 12 -36t46 -9h102q17 0 27.5 3.5t16.5 13.5t6 27v47q0 47 -48 47h-112q-24 0 -37 -9.5t-13 -36.5v-47zM179 384q0 -48 50 -48h113q30 0 39 12.5t9 33.5v38q0 32 -10.5 42t-38.5 10h-106q-18 0 -25.5 -1 t-16 -5.5t-11.5 -15.5t-3 -30v-36z" />
<glyph horiz-adv-x="543" d="M51 358v77q0 71 40.5 106t101.5 35h125q27 0 47.5 -5t40.5 -17t34.5 -34t26 -55t17 -80.5t5.5 -109.5q0 -64 -9.5 -113t-24.5 -79t-36 -49.5t-42 -27t-46 -7.5q-174 -1 -262 15v94h234q22 0 37 13.5t21.5 35.5t9 40.5t2.5 38.5q-83 -12 -187 -12q-135 0 -135 134z M167 360q0 -24 10.5 -31.5t36.5 -7.5h159q0 17 -0.5 27t-2 30t-6 33t-11.5 27.5t-19.5 21.5t-28.5 7h-91q-25 0 -36 -9t-11 -38v-60z" />
<glyph horiz-adv-x="465" d="M17 463v93q142 22 234 17q87 0 134 -42.5t47 -123.5v-37q0 -77 -54.5 -116.5t-135.5 -26.5v-49h-97v136q63 -1 103 0q29 2 48.5 15t19.5 40v31q0 63 -79 63h-220zM132 23v78q0 25 24 25h74q25 0 25 -25v-78q0 -23 -25 -23h-74q-11 0 -17.5 6.5t-6.5 16.5z" />
<glyph horiz-adv-x="859" d="M55 48v320q0 24 3.5 46t16 48.5t32 45.5t56 32t85.5 13h200q167 0 167 -150v-362h-78l-17 61l-8.5 -7.5t-24 -17.5t-34.5 -20t-45 -17.5t-52 -7.5q-58 -1 -93 36.5t-35 91.5v46q0 65 36.5 100.5t103.5 35.5h150q1 55 0 55q0 34 -16.5 46t-53.5 12h-200q-21 0 -35.5 -3 t-29 -12t-22 -27.5t-7.5 -47.5v-310q0 -32 8.5 -54t23.5 -33t30 -15t32 -4h338q59 0 81 26t22 80v477q0 57 -28 86.5t-75 29.5h-404v72q48 9 131.5 18t167.5 9h105q89 -2 145.5 -54.5t56.5 -160.5v-477q0 -206 -198 -206h-342q-87 0 -140 50t-53 149zM330 173 q0 -16 15 -29.5t37 -12.5q68 -1 136 47v95l-138 -13q-51 -5 -50 -53v-17v-17z" />
<glyph horiz-adv-x="601" d="M30 0l212 570h133l197 -570h-123l-47 129h-199l-50 -129h-123zM236 228h137l-65 194z" />
<glyph d="M68 0v571h267q88 0 130 -42t42 -111q0 -103 -73 -127q20 -6 36.5 -21t28 -43t11.5 -65q0 -80 -41.5 -121t-133.5 -41h-267zM184 103h144q10 0 18 1t17 5.5t15 11.5t10.5 20.5t4.5 32.5q0 36 -15 55.5t-50 19.5q-121 -1 -144 0v-146zM184 341h144q37 0 50 15t13 52 q0 61 -63 61h-144v-128z" />
<glyph horiz-adv-x="516" d="M47 295q0 51 5 91t19.5 77t38.5 61.5t62 39t89 14.5q33 0 73 -3t82.5 -9.5t70.5 -15.5v-84q-8 2 -44 5t-83.5 6t-77.5 3q-72 0 -95.5 -44t-23.5 -141q0 -31 0.5 -50.5t4 -45.5t11.5 -42t21 -31.5t33.5 -23t48.5 -8.5q34 1 85.5 4.5t85.5 6.5l34 3v-82q-94 -30 -226 -30 q-55 0 -95 17t-62.5 44t-36 68.5t-17 80t-3.5 89.5z" />
<glyph horiz-adv-x="594" d="M68 0v572h261q51 -1 91 -18.5t63.5 -45t38.5 -66.5t20.5 -77t5.5 -82q0 -46 -5.5 -85t-13.5 -66.5t-22.5 -49t-26 -35t-31 -23.5t-31.5 -14.5t-33 -7t-29.5 -2.5h-26.5h-261zM184 106h135q34 0 57 14t34.5 40t16.5 55.5t5 67.5q0 94 -30 138.5t-83 44.5h-135v-360z" />
<glyph horiz-adv-x="513" d="M68 97v370q0 52 31.5 77.5t86.5 26.5q258 -8 290 -14v-91h-260q-21 0 -26.5 -6.5t-5.5 -26.5v-96l258 -8v-89l-258 -7v-98q0 -19 8.5 -25.5t27.5 -6.5h256v-90q-17 -4 -95 -7.5t-146 -5.5l-69 -2q-45 1 -71.5 26.5t-26.5 72.5z" />
<glyph horiz-adv-x="513" d="M68 0v467q0 52 31 77.5t87 26.5q258 -8 290 -14v-91h-260q-21 0 -26 -6.5t-6 -25.5v-106l258 -8v-89l-258 -7v-224h-116z" />
<glyph horiz-adv-x="571" d="M47 286q0 73 9 123.5t31.5 90t63.5 59t102 20.5q49 2 131.5 -5.5t126.5 -19.5v-86q-116 12 -223 12q-38 0 -59.5 -6.5t-37.5 -27.5t-22 -58.5t-6 -99.5q0 -20 1 -38t4.5 -41t11.5 -40.5t19.5 -33.5t30.5 -25t44 -9q44 0 83.5 15.5t51.5 33.5v85h-129v67q78 21 178 21 q31 0 67 -3v-320h-87l-26 44q-61 -51 -163 -51q-33 0 -60.5 8.5t-47 22t-35 34.5t-25.5 40t-17 45t-10 44t-5 42t-2 33.5v23.5z" />
<glyph horiz-adv-x="591" d="M68 -1v571h116v-240h241v240h116v-571h-116v221h-241v-221h-116z" />
<glyph horiz-adv-x="234" d="M68 0v570h116v-570h-116z" />
<glyph horiz-adv-x="335" d="M30 21l2 89q76 -9 105.5 7t31.5 76v377h116v-405q0 -115 -60 -147q-51 -25 -103.5 -22.5t-91.5 25.5z" />
<glyph horiz-adv-x="571" d="M68 -1v571h112v-240h63l164 240h135l-198 -290l198 -281h-135l-166 229h-61v-229h-112z" />
<glyph horiz-adv-x="500" d="M68 107v463h116v-420q-1 -28 11 -34.5t41 -6.5h235v-109h-296q-24 0 -43.5 6.5t-33.5 19.5t-22 34t-8 47z" />
<glyph horiz-adv-x="753" d="M47 0l54 571h148l130 -400l128 400h147l54 -571h-114l-37 389l-120 -389h-114l-122 389l-40 -389h-114z" />
<glyph horiz-adv-x="602" d="M68 0v571h113l256 -359v359h115v-571h-112l-256 363v-363h-116z" />
<glyph horiz-adv-x="602" d="M47 280q0 90 15.5 148.5t49.5 90.5t78 44t111 12q45 0 76 -3.5t62 -14t51 -30.5t36 -51.5t23 -78.5t7 -110q0 -73 -11 -124.5t-30 -84t-52 -51t-70.5 -25.5t-91.5 -7q-44 0 -75.5 4t-62 14.5t-50.5 30.5t-36 51t-23 77.5t-7 107.5zM163 285q0 -60 6.5 -96t25 -55 t41.5 -24.5t65 -5.5q24 0 39.5 1.5t33.5 7t28 17.5t20 32t14 51t4 74q0 33 -2 58t-6.5 43.5t-10 31.5t-15.5 21.5t-18.5 13.5t-24.5 7.5t-28.5 3t-33.5 0.5q-19 0 -29.5 -0.5t-26.5 -2.5t-24.5 -7t-19.5 -13.5t-16.5 -22t-11.5 -32t-8 -44.5t-2 -59z" />
<glyph horiz-adv-x="529" d="M51 0v569h274q34 0 62.5 -9t52.5 -28.5t37.5 -54t13.5 -81.5q0 -51 -11 -88t-26 -56t-39 -30t-41.5 -13.5t-41.5 -3.5q-5 0 -45.5 3t-79.5 6t-39 4v-218h-117zM168 300h146q13 0 22.5 3t19 11t14.5 25.5t5 45.5q2 40 -16 61t-45 21h-146v-167z" />
<glyph horiz-adv-x="602" d="M47 280q0 90 15.5 148.5t49.5 90.5t78 44t111 12q45 0 76 -3.5t62 -14t51 -30.5t36 -51.5t23 -78.5t7 -110q0 -73 -11 -124.5t-30 -84t-52 -51t-70.5 -25.5t-91.5 -7q-44 0 -75.5 4t-62 14.5t-50.5 30.5t-36 51t-23 77.5t-7 107.5zM163 285q0 -60 6.5 -96t25 -55 t41.5 -24.5t65 -5.5q24 0 39.5 1.5t33.5 7t28 17.5t20 32t14 51t4 74q0 33 -2 58t-6.5 43.5t-10 31.5t-15.5 21.5t-18.5 13.5t-24.5 7.5t-28.5 3t-33.5 0.5q-19 0 -29.5 -0.5t-26.5 -2.5t-24.5 -7t-19.5 -13.5t-16.5 -22t-11.5 -32t-8 -44.5t-2 -59zM269 -33h69 q51 -60 165 -25v-101q-28 -8 -58 -8t-60 8t-55 23.5t-41.5 42t-19.5 60.5z" />
<glyph d="M51 0v570h270q33 0 61 -7.5t54 -25t40.5 -53t14.5 -86.5q0 -160 -93 -178l120 -220h-126l-106 209q-7 1 -26.5 2.5t-40 3.5t-36.5 4l-16 2v-221h-116zM167 301h146q28 0 45 19t17 72q0 20 -5 35t-12 22.5t-16.5 12t-16 5.5t-12.5 1h-146v-167z" />
<glyph horiz-adv-x="544" d="M47 370v52q0 151 148 151q47 0 136.5 -6.5t140.5 -15.5v-85q-156 6 -259 6q-50 0 -50 -52v-42q0 -30 11 -37.5t39 -7.5h149q71 0 104 -39.5t33 -105.5v-56q0 -142 -137 -142q-33 0 -89 2t-121.5 7.5t-82.5 13.5v83q169 -4 268 -4q16 0 27.5 10.5t14.5 21.5l4 10v50 q0 23 -10.5 33t-35.5 10h-145q-78 0 -111.5 35t-33.5 108z" />
<glyph horiz-adv-x="519" d="M30 461v109h460v-109h-172v-461h-116v461h-172z" />
<glyph horiz-adv-x="605" d="M67 260v310h117v-310q0 -50 7.5 -81t24.5 -47.5t39.5 -22t57.5 -5.5q32 0 53 6t38 22.5t25 48t8 79.5v310h117v-310q0 -67 -13.5 -116.5t-35.5 -77.5t-55 -44.5t-64.5 -21.5t-72.5 -5q-32 0 -56.5 2t-51.5 8.5t-46 18.5t-37.5 31.5t-30 47t-18 67.5t-6.5 90z" />
<glyph horiz-adv-x="604" d="M30 570h123l153 -418l146 418h123l-202 -570h-134z" />
<glyph horiz-adv-x="850" d="M30 570h123l134 -420l125 420h122l-54 -172l94 -248l128 420h119l-181 -570h-133l-80 214l-71 -214h-136z" />
<glyph horiz-adv-x="580" d="M30 0l189 285l-187 285h143l116 -190l118 190h143l-189 -286l186 -284h-138l-121 188l-119 -188h-141z" />
<glyph horiz-adv-x="583" d="M30 570h126l138 -253l133 253h127l-203 -376v-195h-116v195z" />
<glyph horiz-adv-x="499" d="M30 0v109l289 352h-289v109h440v-109l-282 -352h282v-109h-440z" />
<glyph horiz-adv-x="242" d="M17 668h112l97 -137h-83z" />
<glyph horiz-adv-x="609" d="M30 0l212 570h133l197 -570h-123l-47 129h-199l-50 -129h-123zM236 228h137l-65 194zM489 1h49q-38 -30 -48 -57.5t6 -42.5t49 -14v-71q-32 -6 -62 4t-47 31.5t-22 47.5t14.5 54t60.5 48z" />
<glyph d="M51 0v570h270q33 0 61 -7.5t54 -25t40.5 -53t14.5 -86.5q0 -160 -93 -178l120 -220h-126l-106 209q-17 1 -68 6t-51 6v-221h-116zM167 301h146q13 0 23 3.5t19.5 12.5t14.5 28t5 47q0 20 -5 35t-12 22.5t-16.5 12t-16 5.5t-12.5 1h-146v-167zM219 -163v68q0 24 23 24h64 q22 0 22 -24v-100q0 -20 -6 -34t-15 -21.5t-20 -12t-22 -5t-20.5 0t-15.5 1.5l-5 2v38q12 -1 18.5 4t7.5 9.5t1 10.5v17h-9q-23 0 -23 22z" />
<glyph horiz-adv-x="234" d="M68 0v570h116v-570h-116zM-56 680q33 32 61 50t59 18q26 -1 59 -18t48 -17q33 -2 91 37l24 -53q-23 -22 -34.5 -32t-35 -22.5t-44.5 -11.5q-27 1 -60 17.5t-50 16.5q-15 0 -28.5 -3.5t-21 -7t-22 -12t-23.5 -12.5z" />
<glyph horiz-adv-x="500" d="M68 107v463h116v-420q-1 -28 11 -34.5t41 -6.5h235v-109h-296q-24 0 -43.5 6.5t-33.5 19.5t-22 34t-8 47zM220 -163v68q0 24 22 24h65q22 0 22 -24v-100q0 -20 -6 -34t-15 -21.5t-20.5 -12t-22.5 -5t-20 0t-15 1.5l-6 2v38q10 -1 16 1.5t8.5 7t3 8t0.5 7.5v17h-10 q-22 0 -22 22z" />
<glyph horiz-adv-x="451" d="M42 581q0 23 16.5 39.5t40 16.5t39.5 -16t16 -39.5t-16 -40t-39.5 -16.5t-40 16.5t-16.5 39.5zM297 581q0 12 4.5 22t12 17.5t18 12t22.5 4.5q23 0 39 -16t16 -39.5t-16 -40t-39.5 -16.5t-40 16.5t-16.5 39.5z" />
<glyph horiz-adv-x="544" d="M47 370v52q0 151 148 151q47 0 136.5 -6.5t140.5 -15.5v-85q-156 6 -259 6q-50 0 -50 -52v-42q0 -16 3 -25.5t10.5 -13.5t14.5 -5t22 -1h149q71 0 104 -39.5t33 -105.5v-56q0 -142 -137 -142q-63 0 -165.5 6t-127.5 17v83q169 -4 268 -4q16 0 27.5 10.5t14.5 21.5l4 10 v50q0 23 -10.5 33t-35.5 10h-145q-78 0 -111.5 35t-33.5 108zM121 766h86l69 -64l62 64h86l-103 -133h-92zM321 633z" />
<glyph horiz-adv-x="513" d="M68 97v370q0 52 31.5 77.5t86.5 26.5q258 -8 290 -14v-91h-260q-21 0 -26.5 -6.5t-5.5 -25.5v-97l258 -8v-89l-258 -7v-97q0 -20 8.5 -26t27.5 -6h256v-91q-17 -4 -95 -7.5t-146 -5.5l-69 -2q-45 1 -71.5 26.5t-26.5 72.5zM136 632v73h292v-73h-292z" />
<glyph horiz-adv-x="571" d="M47 286q0 147 47 219t168 74q23 1 56.5 -0.5t68 -5t68.5 -8.5t56 -11v-86q-22 3 -108 8t-103 5q-40 0 -63.5 -6.5t-41.5 -26.5t-25 -58.5t-7 -101.5q0 -34 2.5 -59t10 -49.5t20 -40t34.5 -25.5t52 -12q95 -3 127 37v96h-139v67q79 21 188 21q31 0 67 -3v-320q-3 -1 -43 0 t-44 0l-26 38q-54 -45 -158 -45q-43 0 -77.5 13.5t-55.5 32.5t-36.5 48.5t-22.5 53.5t-11 56.5t-4.5 47t0.5 35.5v6zM245 -164v68q0 24 23 24h65q21 0 21 -24v-100q0 -26 -10.5 -43t-26 -22.5t-31 -6.5t-25.5 1l-11 2v38q9 0 15.5 2t9 6.5t3 8t0.5 8.5v16h-10q-23 0 -23 22z " />
<glyph horiz-adv-x="493" d="M17 461v109h460v-109h-172v-123h93v-61h-93v-277h-116v277h-97v61h97v123h-172z" />
<glyph horiz-adv-x="499" d="M30 0v109l289 352h-289v109h440v-109l-282 -352h282v-109h-440zM98 764h86l69 -64l63 64h85l-103 -134h-92zM298 630z" />
<glyph horiz-adv-x="376" d="M42 513v73h292v-73h-292z" />
<glyph horiz-adv-x="286" d="M42 467q0 43 30 73t72 30t71.5 -30t29.5 -73t-29.5 -73t-71.5 -30t-72 30t-30 73zM97 467q0 -20 13.5 -33.5t33 -13.5t33 13.5t13.5 33.5t-13.5 33.5t-33 13.5t-33 -13.5t-13.5 -33.5z" />
<glyph horiz-adv-x="242" d="M17 531l96 137h113l-126 -137h-83z" />
<glyph horiz-adv-x="387" d="M42 684h78l71 -77l74 77h80l-111 -153h-92zM234 531z" />
<glyph horiz-adv-x="602" d="M66 0v571h113l256 -359v359h115v-571v-55q-2 -82 -57 -120.5t-155 -36.5v85q40 0 69 19.5t29 60.5v50l-254 360v-363h-116z" />
<glyph horiz-adv-x="601" d="M30 0l212 570h133l197 -570h-123l-47 129h-199l-50 -129h-123zM236 228h137l-65 194zM162 630v74h292v-74h-292z" />
<glyph horiz-adv-x="601" d="M30 0l212 570h133l197 -570h-123l-47 129h-199l-50 -129h-123zM236 228h137l-65 194zM267 630l97 136h112l-126 -136h-83z" />
<glyph horiz-adv-x="601" d="M30 0l212 570h133l197 -570h-123l-47 129h-199l-50 -129h-123zM236 228h137l-65 194zM157 630l111 134h92l100 -134h-85l-64 64l-68 -64h-86zM360 764z" />
<glyph horiz-adv-x="601" d="M30 0l212 570h133l197 -570h-123l-47 129h-199l-50 -129h-123zM236 228h137l-65 194zM138 680q32 32 60 50t60 18q25 -1 58.5 -18t47.5 -17q34 -2 92 37l23 -53q-22 -22 -33.5 -32t-35.5 -22.5t-45 -11.5q-27 1 -59.5 17.5t-50.5 16.5q-15 0 -28.5 -3.5t-21 -7t-22 -12 t-22.5 -12.5z" />
<glyph horiz-adv-x="601" d="M30 0l212 570h133l197 -570h-123l-47 129h-199l-50 -129h-123zM236 228h137l-65 194zM125 686q0 23 16.5 39.5t40 16.5t39.5 -16.5t16 -39.5t-16 -39.5t-39.5 -16.5t-40 16.5t-16.5 39.5zM380 686q0 23 16.5 39.5t40 16.5t39.5 -16.5t16 -39.5t-16 -39.5t-39.5 -16.5 t-40 16.5t-16.5 39.5z" />
<glyph horiz-adv-x="601" d="M30 0l212 570h133l197 -570h-123l-47 129h-199l-50 -129h-123zM236 228h137l-65 194zM208 668q0 28 13.5 51.5t37 37.5t51.5 14t51 -14t36.5 -37.5t13.5 -51.5t-13.5 -51.5t-36.5 -37t-51 -13.5q-21 0 -39.5 8t-32.5 21.5t-22 32.5t-8 40zM262 667.5q0 -19.5 14 -33 t34 -13.5t33.5 13.5t13.5 33.5q0 13 -6.5 24t-17 17t-23.5 6q-20 0 -34 -14t-14 -33.5z" />
<glyph horiz-adv-x="793" d="M20 0l218 469q10 24 25 41.5t35 28t38 17t45.5 9.5t45 4t47.5 1q253 -8 285 -14v-90h-255q-21 0 -26.5 -7t-6.5 -26v-100l254 -7v-89l-254 -8v-94q0 -21 9 -26.5t28 -5.5l251 -1v-90q-18 -4 -93 -7.5t-142 -5.5l-66 -1q-46 -2 -75 22.5t-29 71.5v52h-139l-69 -144h-126z M255 236h99v209z" />
<glyph horiz-adv-x="234" d="M68 0v570h116v-570h-116zM108 1h50q-39 -30 -48.5 -57t6.5 -42.5t48 -14.5v-71q-32 -6 -62 4t-47 32t-21.5 47.5t14.5 53.5t60 48z" />
<glyph horiz-adv-x="516" d="M47 295q0 51 5 91t19.5 77t38.5 61.5t62 39t89 14.5q33 0 73 -3t82.5 -9.5t70.5 -15.5v-84q-8 2 -44 5t-83.5 6t-77.5 3q-72 0 -95.5 -44t-23.5 -141q0 -31 0.5 -50.5t4 -45.5t11.5 -42t21 -31.5t33.5 -23t48.5 -8.5q34 1 85.5 4.5t85.5 6.5l34 3v-82q-94 -30 -226 -30 q-55 0 -95 17t-62.5 44t-36 68.5t-17 80t-3.5 89.5zM140 776h85l70 -64l62 64h85l-102 -133h-92zM340 643z" />
<glyph horiz-adv-x="513" d="M68 97v370q0 52 31.5 77.5t86.5 26.5q258 -8 290 -14v-91h-260q-21 0 -26.5 -6.5t-5.5 -25.5v-97l258 -8v-89l-258 -7v-97q0 -20 8.5 -26t27.5 -6h256v-91q-17 -4 -95 -7.5t-146 -5.5l-69 -2q-45 1 -71.5 26.5t-26.5 72.5zM243 632l96 136h113l-126 -136h-83z" />
<glyph horiz-adv-x="513" d="M68 97v370q0 52 31.5 77.5t86.5 26.5q258 -8 290 -14v-91h-260q-21 0 -26.5 -6.5t-5.5 -25.5v-97l258 -8v-89l-258 -7v-97q0 -20 8.5 -26t27.5 -6h256v-91q-17 -4 -95 -7.5t-146 -5.5l-69 -2q-45 1 -71.5 26.5t-26.5 72.5zM427 13h49q-38 -29 -48 -56.5t6 -42.5t49 -15 v-70q-32 -7 -62 3.5t-47 32t-22 47.5t14 54t61 47z" />
<glyph horiz-adv-x="513" d="M68 97v370q0 52 31.5 77.5t86.5 26.5q258 -8 290 -14v-91h-260q-21 0 -26.5 -6.5t-5.5 -25.5v-97l258 -8v-89l-258 -7v-97q0 -20 8.5 -26t27.5 -6h256v-91q-17 -4 -95 -7.5t-146 -5.5l-69 -2q-45 1 -71.5 26.5t-26.5 72.5zM96 688q0 23 16.5 39t40 16t39.5 -16t16 -39 t-16 -39.5t-39.5 -16.5t-40 16.5t-16.5 39.5zM351 688q0 23 16.5 39t40 16t39.5 -16t16 -39t-16 -39.5t-39.5 -16.5t-40 16.5t-16.5 39.5z" />
<glyph horiz-adv-x="513" d="M68 97v370q0 52 31.5 77.5t86.5 26.5q258 -8 290 -14v-91h-260q-21 0 -26.5 -6.5t-5.5 -25.5v-97l258 -8v-89l-258 -7v-97q0 -20 8.5 -26t27.5 -6h256v-91q-17 -4 -95 -7.5t-146 -5.5l-69 -2q-45 1 -71.5 26.5t-26.5 72.5zM234 655v68q0 25 24 25h64q11 0 17 -7t6 -18 v-68q0 -23 -23 -23h-64q-10 0 -17 6t-7 17z" />
<glyph horiz-adv-x="234" d="M68 0v570h116v-570h-116zM85 630l96 136h113l-126 -136h-83z" />
<glyph horiz-adv-x="234" d="M68 0v570h116v-570h-116zM-25 630l111 134h92l99 -134h-85l-63 64l-68 -64h-86zM178 764z" />
<glyph horiz-adv-x="234" d="M68 0v570h116v-570h-116zM-16 630v74h292v-74h-292z" />
<glyph horiz-adv-x="597" d="M17 260v60h63v252h66t117.5 -0.5t71.5 -0.5q50 0 88 -17.5t61 -45t37.5 -66.5t20 -77t5.5 -82q0 -46 -6 -85t-14 -66.5t-22.5 -49t-26.5 -35.5t-31.5 -23.5t-31.5 -14t-31.5 -7t-27.5 -2.5h-24h-252v260h-63zM198 106h114q34 0 57 13.5t35 39.5t17 55.5t5 68.5 q0 181 -110 181h-118v-144h87v-61h-87v-153z" />
<glyph horiz-adv-x="602" d="M68 0v571h113l256 -359v359h115v-571h-112l-256 363v-363h-116zM253 -163v68q0 24 22 24h65q22 0 22 -24v-100q0 -27 -11 -43.5t-26.5 -22t-30.5 -7t-26 0.5l-11 3v38q13 -1 19.5 4t7.5 9.5t1 10.5v17h-10q-22 0 -22 22z" />
<glyph horiz-adv-x="602" d="M47 280q0 90 15.5 148.5t49.5 90.5t78 44t111 12q45 0 76 -3.5t62 -14t51 -30.5t36 -51.5t23 -78.5t7 -110q0 -73 -11 -124.5t-30 -84t-52 -51t-70.5 -25.5t-91.5 -7q-44 0 -75.5 4t-62 14.5t-50.5 30.5t-36 51t-23 77.5t-7 107.5zM163 285q0 -60 6.5 -96t25 -55 t41.5 -24.5t65 -5.5q24 0 39.5 1.5t33.5 7t28 17.5t20 32t14 51t4 74q0 33 -2 58t-6.5 43.5t-10 31.5t-15.5 21.5t-18.5 13.5t-24.5 7.5t-28.5 3t-33.5 0.5q-19 0 -29.5 -0.5t-26.5 -2.5t-24.5 -7t-19.5 -13.5t-16.5 -22t-11.5 -32t-8 -44.5t-2 -59zM156 642v74h292v-74 h-292z" />
<glyph horiz-adv-x="571" d="M68 -1v571h112v-240h63l164 240h135l-198 -290l198 -281h-135l-166 229h-61v-229h-112zM236 -164v68q0 24 22 24h65q21 0 21 -24v-100q0 -20 -5.5 -34t-14.5 -21.5t-20.5 -12t-22.5 -5t-20 0t-15 1.5l-6 1v39q12 -1 19 4t8 9.5t1 11.5v16h-10q-22 0 -22 22z" />
<glyph horiz-adv-x="602" d="M47 280q0 90 15.5 148.5t49.5 90.5t78 44t111 12q45 0 76 -3.5t62 -14t51 -30.5t36 -51.5t23 -78.5t7 -110q0 -73 -11 -124.5t-30 -84t-52 -51t-70.5 -25.5t-91.5 -7q-44 0 -75.5 4t-62 14.5t-50.5 30.5t-36 51t-23 77.5t-7 107.5zM163 285q0 -60 6.5 -96t25 -55 t41.5 -24.5t65 -5.5q24 0 39.5 1.5t33.5 7t28 17.5t20 32t14 51t4 74q0 33 -2 58t-6.5 43.5t-10 31.5t-15.5 21.5t-18.5 13.5t-24.5 7.5t-28.5 3t-33.5 0.5q-19 0 -29.5 -0.5t-26.5 -2.5t-24.5 -7t-19.5 -13.5t-16.5 -22t-11.5 -32t-8 -44.5t-2 -59zM147 632l111 133h92 l100 -133h-85l-63 64l-69 -64h-86zM350 765z" />
<glyph horiz-adv-x="602" d="M47 280q0 90 15.5 148.5t49.5 90.5t78 44t111 12q45 0 76 -3.5t62 -14t51 -30.5t36 -51.5t23 -78.5t7 -110q0 -73 -11 -124.5t-30 -84t-52 -51t-70.5 -25.5t-91.5 -7q-44 0 -75.5 4t-62 14.5t-50.5 30.5t-36 51t-23 77.5t-7 107.5zM163 285q0 -60 6.5 -96t25 -55 t41.5 -24.5t65 -5.5q24 0 39.5 1.5t33.5 7t28 17.5t20 32t14 51t4 74q0 33 -2 58t-6.5 43.5t-10 31.5t-15.5 21.5t-18.5 13.5t-24.5 7.5t-28.5 3t-33.5 0.5q-19 0 -29.5 -0.5t-26.5 -2.5t-24.5 -7t-19.5 -13.5t-16.5 -22t-11.5 -32t-8 -44.5t-2 -59zM140 685q32 32 60 50 t60 18q25 -1 58.5 -18t47.5 -17q34 -2 92 37l23 -53q-22 -22 -33.5 -32t-35.5 -22.5t-45 -11.5q-27 1 -59.5 17.5t-50.5 16.5q-15 0 -28 -3.5t-21 -7t-22.5 -12t-22.5 -12.5z" />
<glyph horiz-adv-x="602" d="M47 280q0 90 15.5 148.5t49.5 90.5t78 44t111 12q45 0 76 -3.5t62 -14t51 -30.5t36 -51.5t23 -78.5t7 -110q0 -73 -11 -124.5t-30 -84t-52 -51t-70.5 -25.5t-91.5 -7q-44 0 -75.5 4t-62 14.5t-50.5 30.5t-36 51t-23 77.5t-7 107.5zM163 285q0 -60 6.5 -96t25 -55 t41.5 -24.5t65 -5.5q24 0 39.5 1.5t33.5 7t28 17.5t20 32t14 51t4 74q0 33 -2 58t-6.5 43.5t-10 31.5t-15.5 21.5t-18.5 13.5t-24.5 7.5t-28.5 3t-33.5 0.5q-19 0 -29.5 -0.5t-26.5 -2.5t-24.5 -7t-19.5 -13.5t-16.5 -22t-11.5 -32t-8 -44.5t-2 -59zM116 691q0 23 16.5 39 t39.5 16t39 -16t16 -39t-16 -39.5t-39 -16.5q-15 0 -28 7.5t-20.5 20.5t-7.5 28zM371 691q0 23 16.5 39t39.5 16t39 -16t16 -39t-16 -39.5t-39 -16.5q-15 0 -28 7.5t-20.5 20.5t-7.5 28z" />
<glyph horiz-adv-x="594" d="M42 0q3 5 14 20t21 28.5t15 19.5q-45 65 -45 212q0 90 15.5 148.5t49 90.5t77 44t109.5 12q111 0 159 -28q2 3 8.5 11.5t8.5 11.5h70q-4 -5 -13 -17t-18 -23.5t-14 -17.5q51 -63 51 -225q0 -73 -10.5 -124.5t-29.5 -84t-51 -51t-69.5 -25.5t-91.5 -7q-115 0 -166 35 q-9 -11 -22 -30h-68zM163 285q0 -71 13 -105q25 33 63.5 83t83 107t64.5 83q-22 13 -89 13q-19 0 -29.5 -0.5t-25.5 -2.5t-23.5 -7t-19 -13.5t-16 -21.5t-11 -32t-8 -45t-2.5 -59zM202 125q26 -21 96 -21q30 0 47 2.5t36.5 12t29.5 29t16.5 54t6.5 85.5q0 81 -15 119 q-77 -97 -217 -281z" />
<glyph horiz-adv-x="575" d="M67 260v310h117v-310q0 -50 7.5 -81t24.5 -47.5t39.5 -22t57.5 -5.5q32 0 53 6t38 22.5t25 48t8 79.5v310h117v-310q0 -67 -13.5 -116.5t-35.5 -77.5t-55 -44.5t-64.5 -21.5t-72.5 -5q-32 0 -56.5 2t-51.5 8.5t-46 18.5t-37.5 31.5t-30 47t-18 67.5t-6.5 90zM293 -2h50 q-39 -30 -48.5 -57t6.5 -42t48 -15v-70q-31 -7 -61.5 3.5t-47 32t-21.5 47.5t14 54t60 47z" />
<glyph horiz-adv-x="605" d="M67 260v310h117v-310q0 -50 7.5 -81t24.5 -47.5t39.5 -22t57.5 -5.5q32 0 53 6t38 22.5t25 48t8 79.5v310h117v-310q0 -67 -13.5 -116.5t-35.5 -77.5t-55 -44.5t-64.5 -21.5t-72.5 -5q-32 0 -56.5 2t-51.5 8.5t-46 18.5t-37.5 31.5t-30 47t-18 67.5t-6.5 90zM269 630 l97 136h112l-126 -136h-83z" />
<glyph horiz-adv-x="605" d="M67 260v310h117v-310q0 -50 7.5 -81t24.5 -47.5t39.5 -22t57.5 -5.5q32 0 53 6t38 22.5t25 48t8 79.5v310h117v-310q0 -67 -13.5 -116.5t-35.5 -77.5t-55 -44.5t-64.5 -21.5t-72.5 -5q-32 0 -56.5 2t-51.5 8.5t-46 18.5t-37.5 31.5t-30 47t-18 67.5t-6.5 90zM158 630 l111 134h92l100 -134h-85l-64 64l-68 -64h-86zM361 764z" />
<glyph horiz-adv-x="605" d="M67 260v310h117v-310q0 -50 7.5 -81t24.5 -47.5t39.5 -22t57.5 -5.5q32 0 53 6t38 22.5t25 48t8 79.5v310h117v-310q0 -67 -13.5 -116.5t-35.5 -77.5t-55 -44.5t-64.5 -21.5t-72.5 -5q-32 0 -56.5 2t-51.5 8.5t-46 18.5t-37.5 31.5t-30 47t-18 67.5t-6.5 90zM125 686 q0 23 16.5 39.5t40 16.5t39.5 -16.5t16 -39.5t-16 -39.5t-39 -16.5t-40 16.5t-17 39.5zM380 686q0 23 16.5 39.5t40 16.5t39.5 -16.5t16 -39.5t-16 -39.5t-39 -16.5t-40 16.5t-17 39.5z" />
<glyph horiz-adv-x="605" d="M67 260v310h117v-310q0 -50 7.5 -81t24.5 -47.5t39.5 -22t57.5 -5.5q32 0 53 6t38 22.5t25 48t8 79.5v310h117v-310q0 -67 -13.5 -116.5t-35.5 -77.5t-55 -44.5t-64.5 -21.5t-72.5 -5q-32 0 -56.5 2t-51.5 8.5t-46 18.5t-37.5 31.5t-30 47t-18 67.5t-6.5 90zM139 680 q32 32 60 50t59 18q26 -1 59.5 -18t47.5 -17q34 -2 92 37l23 -53q-22 -22 -33.5 -32t-35.5 -22.5t-45 -11.5q-27 1 -60 17.5t-50 16.5q-15 0 -28.5 -3.5t-21 -7t-22 -12t-22.5 -12.5z" />
<glyph horiz-adv-x="605" d="M67 260v310h117v-310q0 -50 7.5 -81t24.5 -47.5t39.5 -22t57.5 -5.5q32 0 53 6t38 22.5t25 48t8 79.5v310h117v-310q0 -67 -13.5 -116.5t-35.5 -77.5t-55 -44.5t-64.5 -21.5t-72.5 -5q-32 0 -56.5 2t-51.5 8.5t-46 18.5t-37.5 31.5t-30 47t-18 67.5t-6.5 90zM163 630v74 h292v-74h-292z" />
<glyph horiz-adv-x="1024" d="M31 370q0 -73 34 -108t111 -35h139q25 0 35.5 -10t10.5 -33v-50q0 -42 -46 -42l-262 4v-83q26 -11 125.5 -17t161.5 -6q137 0 137 142v56q0 31 -7.5 56.5t-23 45.5t-42.5 31.5t-64 11.5h-143q-14 0 -21 1t-15 5t-11 13.5t-3 25.5v47q0 47 50 47q22 0 47 -0.5t49 -1 t47.5 -1t43 -1t34.5 -1t23 -0.5l9 -1v85q-53 9 -140.5 15.5t-129.5 6.5q-81 0 -115 -38.5t-34 -107.5v-57zM542 427q0 69 34 107.5t115 38.5q42 0 129.5 -6.5t140.5 -15.5v-85q-149 6 -253 6q-50 0 -50 -47v-47q0 -30 11.5 -37.5t38.5 -7.5h143q71 0 104 -39.5t33 -105.5 v-56q0 -142 -137 -142q-62 0 -162 6t-125 17v83q164 -4 262 -4q46 0 46 42v50q0 23 -10.5 33t-35.5 10h-139q-77 0 -111 34.5t-34 108.5v57z" />
<glyph horiz-adv-x="601" d="M30 0l212 570h133l197 -570h-123l-47 129h-199l-50 -129h-123zM236 228h137l-65 194zM131 766h112l97 -136h-83z" />
<glyph horiz-adv-x="516" d="M47 295q0 51 5 91t19.5 77t38.5 61.5t62 39t89 14.5q33 0 73 -3t82.5 -9.5t70.5 -15.5v-84q-8 2 -44 5t-83.5 6t-77.5 3q-72 0 -95.5 -44t-23.5 -141q0 -31 0.5 -50.5t4 -45.5t11.5 -42t21 -31.5t33.5 -23t48.5 -8.5q34 1 85.5 4.5t85.5 6.5l34 3v-82q-94 -30 -226 -30 q-55 0 -95 17t-62.5 44t-36 68.5t-17 80t-3.5 89.5zM182 -123l48 15q19 8 24.5 24t5.5 48h85q0 -77 -23 -108t-85 -31h-55v52z" />
<glyph horiz-adv-x="597" d="M17 260v60h63v252h66t117.5 -0.5t71.5 -0.5q50 0 88 -17.5t61 -45t37.5 -66.5t20 -77t5.5 -82q0 -46 -6 -85t-14 -66.5t-22.5 -49t-26.5 -35.5t-31.5 -23.5t-31.5 -14t-31.5 -7t-27.5 -2.5h-24h-252v260h-63zM198 106h114q34 0 57 13.5t35 39.5t17 55.5t5 68.5 q0 181 -110 181h-118v-144h87v-61h-87v-153z" />
<glyph horiz-adv-x="513" d="M68 97v370q0 52 31.5 77.5t86.5 26.5q258 -8 290 -14v-91h-260q-21 0 -26.5 -6.5t-5.5 -25.5v-97l258 -8v-89l-258 -7v-97q0 -20 8.5 -26t27.5 -6h256v-91q-17 -4 -95 -7.5t-146 -5.5l-69 -2q-45 1 -71.5 26.5t-26.5 72.5zM133 768h113l96 -136h-83z" />
<glyph horiz-adv-x="513" d="M68 97v370q0 52 31.5 77.5t86.5 26.5q258 -8 290 -14v-91h-260q-21 0 -26.5 -6.5t-5.5 -25.5v-97l258 -8v-89l-258 -7v-97q0 -20 8.5 -26t27.5 -6h256v-91q-17 -4 -95 -7.5t-146 -5.5l-69 -2q-45 1 -71.5 26.5t-26.5 72.5zM134 632l111 133h92l100 -133h-85l-64 64 l-68 -64h-86zM337 765z" />
<glyph horiz-adv-x="234" d="M68 0v570h116v-570h-116zM-41 766h113l96 -136h-83z" />
<glyph horiz-adv-x="234" d="M68 0v570h116v-570h-116zM-57 686q0 23 16.5 39.5t39.5 16.5t39 -16.5t16 -39.5t-16 -39.5t-39 -16.5t-39.5 16.5t-16.5 39.5zM198 686q0 23 16.5 39.5t39.5 16.5t39 -16.5t16 -39.5t-16 -39.5t-39 -16.5t-39.5 16.5t-16.5 39.5z" />
<glyph horiz-adv-x="602" d="M68 0v571h113l256 -359v359h115v-571h-112l-256 363v-363h-116zM132 681q33 32 61 50t59 18q26 -1 59 -18t48 -17q33 -2 91 37l24 -53q-23 -22 -34.5 -32t-35 -22.5t-44.5 -11.5q-27 1 -60 17.5t-50 16.5q-13 0 -23 -2t-19 -6t-16 -7.5t-18 -9.5t-19 -10z" />
<glyph horiz-adv-x="602" d="M47 280q0 90 15.5 148.5t49.5 90.5t78 44t111 12q45 0 76 -3.5t62 -14t51 -30.5t36 -51.5t23 -78.5t7 -110q0 -73 -11 -124.5t-30 -84t-52 -51t-70.5 -25.5t-91.5 -7q-44 0 -75.5 4t-62 14.5t-50.5 30.5t-36 51t-23 77.5t-7 107.5zM163 285q0 -60 6.5 -96t25 -55 t41.5 -24.5t65 -5.5q24 0 39.5 1.5t33.5 7t28 17.5t20 32t14 51t4 74q0 33 -2 58t-6.5 43.5t-10 31.5t-15.5 21.5t-18.5 13.5t-24.5 7.5t-28.5 3t-33.5 0.5q-19 0 -29.5 -0.5t-26.5 -2.5t-24.5 -7t-19.5 -13.5t-16.5 -22t-11.5 -32t-8 -44.5t-2 -59zM143 772h113l96 -137 h-83z" />
<glyph horiz-adv-x="602" d="M47 280q0 90 15.5 148.5t49.5 90.5t78 44t111 12q45 0 76 -3.5t62 -14t51 -30.5t36 -51.5t23 -78.5t7 -110q0 -73 -11 -124.5t-30 -84t-52 -51t-70.5 -25.5t-91.5 -7q-44 0 -75.5 4t-62 14.5t-50.5 30.5t-36 51t-23 77.5t-7 107.5zM163 285q0 -60 6.5 -96t25 -55 t41.5 -24.5t65 -5.5q24 0 39.5 1.5t33.5 7t28 17.5t20 32t14 51t4 74q0 33 -2 58t-6.5 43.5t-10 31.5t-15.5 21.5t-18.5 13.5t-24.5 7.5t-28.5 3t-33.5 0.5q-19 0 -29.5 -0.5t-26.5 -2.5t-24.5 -7t-19.5 -13.5t-16.5 -22t-11.5 -32t-8 -44.5t-2 -59zM269 635l96 137h113 l-126 -137h-83z" />
<glyph horiz-adv-x="605" d="M67 260v310h117v-310q0 -50 7.5 -81t24.5 -47.5t39.5 -22t57.5 -5.5q32 0 53 6t38 22.5t25 48t8 79.5v310h117v-310q0 -67 -13.5 -116.5t-35.5 -77.5t-55 -44.5t-64.5 -21.5t-72.5 -5q-32 0 -56.5 2t-51.5 8.5t-46 18.5t-37.5 31.5t-30 47t-18 67.5t-6.5 90zM150 766h112 l97 -136h-83z" />
<glyph horiz-adv-x="583" d="M30 570h126l138 -253l133 253h127l-203 -376v-195h-116v195zM241 630l96 136h113l-126 -136h-83z" />
<glyph horiz-adv-x="536" d="M63 0v569h115v-99h143q21 0 40 -3.5t42 -14.5t39.5 -29t27.5 -51t11 -76q0 -36 -5 -64.5t-13 -48t-20 -34t-24.5 -23t-28 -13t-28 -6t-27.5 -1.5q-98 0 -157 16v-122h-115zM178 212l128 -1q34 0 46.5 17t12.5 67q0 38 -14.5 54t-44.5 19h-128v-156z" />
<glyph horiz-adv-x="260" d="M67 28v83q0 31 28 31h80q27 0 27 -31v-127q0 -34 -13.5 -56t-32.5 -30t-38 -10.5t-32 -0.5l-14 2v50q36 -1 36 35v26h-13q-6 0 -11 1.5t-9 5t-6 9t-2 12.5z" />
<glyph horiz-adv-x="434" d="M238 357v127q0 34 13.5 56t32.5 29.5t38.5 10t32.5 0.5l13 -2v-50q-35 1 -35 -36v-24h13q8 0 14 -3t10 -9.5t4 -15.5v-83q0 -31 -28 -31h-80q-28 0 -28 31zM61 357v127q0 24 7 43t18.5 28.5t25 16t27.5 7.5t25.5 1t18.5 -1l7 -1v-50q-35 1 -35 -35v-25h13q12 0 20 -7.5 t8 -20.5v-83q0 -31 -28 -31h-80q-27 0 -27 31z" />
<glyph horiz-adv-x="434" d="M61 467v83q0 31 28 31h79q28 0 28 -31v-127q0 -34 -13.5 -56.5t-32.5 -30t-38 -10t-32 -0.5l-14 2v50q36 -1 36 35v26h-13q-8 0 -14 2.5t-10 9.5t-4 16zM239 467v83q0 31 28 31h80q27 0 27 -31v-127q0 -34 -13.5 -56.5t-32.5 -30t-38 -10t-32 -0.5l-14 2v50q36 -1 36 35 v26h-13q-12 0 -20 7t-8 21z" />
<glyph horiz-adv-x="434" d="M61 28v83q0 31 28 31h79q28 0 28 -31v-127q0 -34 -13.5 -56t-32.5 -30t-38 -10.5t-32 -0.5l-14 2v50q36 -1 36 35v26h-13q-13 0 -20.5 7t-7.5 21zM239 28v83q0 31 28 31h80q27 0 27 -31v-127q0 -34 -13.5 -56t-32.5 -30t-38 -10.5t-32 -0.5l-14 2v50q36 -1 36 35v26h-13 q-12 0 -20 7t-8 21z" />
<glyph horiz-adv-x="271" d="M74 469v78q0 23 23 23h75q11 0 17.5 -6.5t6.5 -16.5v-78q0 -25 -24 -25h-75q-11 0 -17 7t-6 18zM74 0l11 392h100l11 -392h-122z" />
<glyph horiz-adv-x="419" d="M38 396q0 107 37 146.5t135 39.5q97 0 133.5 -40t36.5 -146q0 -66 -15 -103.5t-52 -55t-103 -17.5q-97 0 -134.5 39.5t-37.5 136.5zM50 126v65h317v-65h-317zM129 396q0 -27 4 -45.5t9.5 -29t17 -16t21.5 -6.5t29 -1q20 0 29.5 1t21 6t16.5 15.5t8 29t4 46.5q0 31 -3 51 t-8 31.5t-16 17t-22 7t-30 1.5q-26 0 -38 -2.5t-23.5 -13t-15.5 -32t-4 -60.5z" />
<glyph horiz-adv-x="413" d="M52 128v65h336v-65h-336zM54 228l119 342h111l104 -342h-85l-23 78h-112l-25 -78h-89zM190 372h72l-33 118z" />
<glyph horiz-adv-x="517" d="M14 197v58l61 5v45l-61 6v54l61 7q0 205 200 205q31 0 96.5 -7t114.5 -16v-90q-130 11 -194 11q-32 0 -53 -8t-31 -23.5t-13 -31.5t-3 -40l178 -6v-56l-178 -5v-45l178 -5v-58q-12 0 -30.5 -0.5t-58 -1.5t-65 -2t-24.5 -2q0 -52 27 -71.5t73 -19.5q34 0 83.5 3t81.5 7 l32 3v-90q-81 -28 -214 -28q-24 0 -46.5 3t-52 15.5t-51 32.5t-36 57.5t-14.5 87.5z" />
<glyph horiz-adv-x="495" d="M62 107v463h116v-420q-1 -28 11 -34.5t41 -6.5h235v-109h-296q-32 0 -55.5 11.5t-37.5 36t-14 59.5zM240 545v67h88v-67l-10 -134h-67z" />
<glyph horiz-adv-x="544" d="M47 370v52q0 151 148 151q47 0 136.5 -6.5t140.5 -15.5v-85q-156 6 -259 6q-50 0 -50 -52v-42q0 -16 3 -25.5t10.5 -13.5t14.5 -5t22 -1h149q71 0 104 -39.5t33 -105.5v-56q0 -142 -137 -142q-63 0 -165.5 6t-127.5 17v83q169 -4 268 -4q16 0 27.5 10.5t14.5 21.5l4 10 v50q0 23 -10.5 33t-35.5 10h-145q-78 0 -111.5 35t-33.5 108zM224 637l97 136h112l-126 -136h-83z" />
<glyph horiz-adv-x="544" d="M47 370v52q0 151 148 151q47 0 136.5 -6.5t140.5 -15.5v-85q-156 6 -259 6q-50 0 -50 -52v-42q0 -16 3 -25.5t10.5 -13.5t14.5 -5t22 -1h149q71 0 104 -39.5t33 -105.5v-56q0 -142 -137 -142q-63 0 -165.5 6t-127.5 17v83q169 -4 268 -4q16 0 27.5 10.5t14.5 21.5l4 10 v50q0 23 -10.5 33t-35.5 10h-145q-78 0 -111.5 35t-33.5 108zM103 -127l48 15q19 9 24.5 25t5.5 48h85q0 -78 -23 -108.5t-85 -30.5h-55v51z" />
<glyph horiz-adv-x="595" d="M95 461v109h460v-109h-172v-461h-116v461h-172zM175 772h85l69 -64l63 64h85l-103 -133h-92zM374 639z" />
<glyph horiz-adv-x="499" d="M30 0v109l289 352h-289v109h440v-109l-282 -352h282v-109h-440zM210 630l96 136h113l-126 -136h-83z" />
<glyph horiz-adv-x="499" d="M30 0v109l289 352h-289v109h440v-109l-282 -352h282v-109h-440zM194 653v68q0 25 24 25h64q11 0 17 -7t6 -18v-68q0 -23 -23 -23h-64q-10 0 -17 6.5t-7 16.5z" />
<glyph d="M51 0v570h270q33 0 61 -7.5t54 -25t40.5 -53t14.5 -86.5q0 -160 -93 -178l120 -220h-126l-106 209q-17 1 -68 6t-51 6v-221h-116zM167 301h146q13 0 23 3.5t19.5 12.5t14.5 28t5 47q0 20 -5 35t-12 22.5t-16.5 12t-16 5.5t-12.5 1h-146v-167zM227 630l97 137h112 l-126 -137h-83z" />
<glyph horiz-adv-x="601" d="M30 0l212 570h133l197 -570h-123l-47 129h-199l-50 -129h-123zM236 228h137l-65 194zM194 744h54q0 -17 8 -31t21.5 -21.5t30.5 -7.5q28 0 45 16t17 44h54q0 -35 -17 -61.5t-43 -39.5t-56 -13q-47 0 -80.5 31.5t-33.5 82.5z" />
<glyph horiz-adv-x="500" d="M68 107v463h116v-420q-1 -28 11 -34.5t41 -6.5h235v-109h-296q-24 0 -43.5 6.5t-33.5 19.5t-22 34t-8 47zM87 630l96 136h113l-126 -136h-83z" />
<glyph horiz-adv-x="516" d="M47 295q0 51 5 91t19.5 77t38.5 61.5t62 39t89 14.5q33 0 73 -3t82.5 -9.5t70.5 -15.5v-84q-8 2 -44 5t-83.5 6t-77.5 3q-72 0 -95.5 -44t-23.5 -141q0 -31 0.5 -50.5t4 -45.5t11.5 -42t21 -31.5t33.5 -23t48.5 -8.5q34 1 85.5 4.5t85.5 6.5l34 3v-82q-94 -30 -226 -30 q-55 0 -95 17t-62.5 44t-36 68.5t-17 80t-3.5 89.5zM235 643l96 137h113l-126 -137h-83z" />
<glyph horiz-adv-x="513" d="M68 97v370q0 52 31.5 77.5t86.5 26.5q258 -8 290 -14v-91h-260q-21 0 -26.5 -6.5t-5.5 -25.5v-97l258 -8v-89l-258 -7v-97q0 -20 8.5 -26t27.5 -6h256v-91q-17 -4 -95 -7.5t-146 -5.5l-69 -2q-45 1 -71.5 26.5t-26.5 72.5zM128 764h86l69 -64l62 64h86l-103 -133h-92z M328 631z" />
<glyph horiz-adv-x="595" d="M109 0v572h261q52 -1 91.5 -18.5t63 -45t38.5 -66.5t20.5 -77t5.5 -82q0 -46 -5.5 -85t-13.5 -66.5t-22 -49t-26 -35t-31.5 -23.5t-31.5 -14.5t-32.5 -7t-29.5 -2.5h-27h-261zM225 106h135q34 0 57 14t35 40t16.5 55.5t4.5 67.5q0 94 -30 138.5t-83 44.5h-135v-360z M179 765h86l69 -64l62 64h86l-103 -133h-92zM379 632z" />
<glyph horiz-adv-x="602" d="M68 0v571h113l256 -359v359h115v-571h-112l-256 363v-363h-116zM279 631l97 137h112l-126 -137h-83z" />
<glyph horiz-adv-x="602" d="M68 0v571h113l256 -359v359h115v-571h-112l-256 363v-363h-116zM161 764h85l70 -64l62 64h85l-102 -133h-92zM361 631z" />
<glyph horiz-adv-x="602" d="M47 280q0 90 15.5 148.5t49.5 90.5t78 44t111 12q45 0 76 -3.5t62 -14t51 -30.5t36 -51.5t23 -78.5t7 -110q0 -73 -11 -124.5t-30 -84t-52 -51t-70.5 -25.5t-91.5 -7q-44 0 -75.5 4t-62 14.5t-50.5 30.5t-36 51t-23 77.5t-7 107.5zM163 285q0 -60 6.5 -96t25 -55 t41.5 -24.5t65 -5.5q24 0 39.5 1.5t33.5 7t28 17.5t20 32t14 51t4 74q0 33 -2 58t-6.5 43.5t-10 31.5t-15.5 21.5t-18.5 13.5t-24.5 7.5t-28.5 3t-33.5 0.5q-19 0 -29.5 -0.5t-26.5 -2.5t-24.5 -7t-19.5 -13.5t-16.5 -22t-11.5 -32t-8 -44.5t-2 -59zM186 635l96 137h113 l-126 -137h-83zM334 635l97 137h112l-126 -137h-83z" />
<glyph d="M51 0v570h270q33 0 61 -7.5t54 -25t40.5 -53t14.5 -86.5q0 -160 -93 -178l120 -220h-126l-106 209q-17 1 -68 6t-51 6v-221h-116zM167 301h146q13 0 23 3.5t19.5 12.5t14.5 28t5 47q0 20 -5 35t-12 22.5t-16.5 12t-16 5.5t-12.5 1h-146v-167zM111 764h86l69 -64l62 64h86 l-103 -134h-92zM311 630z" />
<glyph horiz-adv-x="605" d="M67 260v310h117v-310q0 -50 7.5 -81t24.5 -47.5t39.5 -22t57.5 -5.5q32 0 53 6t38 22.5t25 48t8 79.5v310h117v-310q0 -67 -13.5 -116.5t-35.5 -77.5t-55 -44.5t-64.5 -21.5t-72.5 -5q-32 0 -56.5 2t-51.5 8.5t-46 18.5t-37.5 31.5t-30 47t-18 67.5t-6.5 90zM209 713 q0 28 14 51.5t37.5 37.5t51 14t50.5 -14t36.5 -37.5t13.5 -52t-13.5 -51.5t-36.5 -37t-50.5 -14t-51 13.5t-37.5 37.5t-14 52zM264 712.5q0 -19.5 14 -33t33.5 -13.5t33 13.5t13.5 33t-13.5 33.5t-33 14t-33.5 -14t-14 -33.5z" />
<glyph horiz-adv-x="605" d="M67 260v310h117v-310q0 -50 7.5 -81t24.5 -47.5t39.5 -22t57.5 -5.5q32 0 53 6t38 22.5t25 48t8 79.5v310h117v-310q0 -67 -13.5 -116.5t-35.5 -77.5t-55 -44.5t-64.5 -21.5t-72.5 -5q-32 0 -56.5 2t-51.5 8.5t-46 18.5t-37.5 31.5t-30 47t-18 67.5t-6.5 90zM192 630 l97 136h112l-126 -136h-83zM341 630l96 136h113l-126 -136h-83z" />
<glyph horiz-adv-x="519" d="M30 461v109h460v-109h-172v-461h-116v461h-172zM90 -131l48 15q19 8 24.5 24t5.5 48h85q0 -77 -23 -108t-85 -31h-55v52z" />
<glyph horiz-adv-x="499" d="M17 222v71l63 26v251h116v-205l103 43v-71l-103 -42v-145q-1 -28 11 -34.5t41 -6.5h235v-109h-296q-24 0 -43.5 6.5t-33.5 19.5t-22 34t-8 47v140z" />
<glyph horiz-adv-x="492" d="M48 164v37q0 78 54 117.5t135 25.5v50h97v-137q-63 2 -103 0q-29 -1 -48 -14t-19 -40v-32q0 -63 79 -63h219v-92q-142 -23 -233 -18q-88 0 -134.5 42.5t-46.5 123.5zM224 471v78q0 23 25 23h74q11 0 17.5 -6.5t6.5 -16.5v-78q0 -25 -24 -25h-74q-25 0 -25 25z" />
<glyph horiz-adv-x="866" d="M34 280q0 90 15.5 148.5t49.5 90.5t78.5 44t110.5 12q61 0 101 -8.5t68 -31.5q27 36 89 36q257 -8 290 -14v-91h-260q-22 0 -27 -6.5t-5 -25.5v-97l258 -8v-89l-258 -7v-97q0 -20 8.5 -26t27.5 -6h256v-91q-18 -4 -95.5 -7.5t-146.5 -5.5l-68 -2q-52 1 -74 37 q-49 -40 -164 -40q-44 0 -75.5 4t-62 14.5t-50.5 30.5t-36 51t-23 77.5t-7 107.5zM150 285q0 -60 6.5 -96t25 -55t42 -24.5t64.5 -5.5q21 0 34 1t29.5 5t26.5 11.5t20.5 20.5t16 32.5t9.5 47.5t4 65q0 29 -2 52t-5 41t-9 31t-11 22.5t-15.5 15.5t-18.5 9.5t-23 5t-26 2 t-30 0.5t-29.5 -0.5t-26.5 -2.5t-24 -7t-19.5 -13.5t-17 -22t-11.5 -32t-8 -44.5t-2 -59z" />
<glyph horiz-adv-x="583" d="M30 570h126l138 -253l133 253h127l-203 -376v-195h-116v195zM108 686q0 23 17 39.5t40 16.5t39 -16.5t16 -39.5t-16 -39.5t-39 -16.5t-40 16.5t-17 39.5zM364 686q0 23 16.5 39.5t39.5 16.5t39 -16.5t16 -39.5t-16 -39.5t-39 -16.5t-39.5 16.5t-16.5 39.5z" />
<glyph horiz-adv-x="514" d="M42 0v80l56 20v140h-56v62l57 16v62q0 191 200 191l174 -13v-94h-163q-57 0 -76.5 -19.5t-19.5 -66.5v-56l197 -15v-69h-197v-134h258v-104h-430z" />
<glyph horiz-adv-x="532" d="M17 571h126l123 -232l122 232h128l-174 -313h117v-62h-135v-27h135v-61h-135v-108h-116v108h-127v61h127v27h-127v62h107z" />
<glyph horiz-adv-x="1277" d="M24 362v80q0 66 30 97t103 31h65q71 0 100.5 -31t29.5 -97v-80q0 -67 -29.5 -98t-102.5 -31h-65q-71 0 -101 31.5t-30 97.5zM110 372q0 -30 11.5 -41.5t42.5 -11.5h47q35 0 45 11.5t10 41.5v59q0 32 -11.5 42.5t-41.5 10.5h-47q-34 0 -45 -11t-11 -42v-59zM239 0l315 570 h90l-313 -570h-92zM532 129v80q0 44 12 71.5t41.5 42t79.5 14.5h64q37 0 62 -8t40.5 -24.5t22 -39.5t6.5 -56v-80q0 -66 -29.5 -97.5t-103.5 -31.5h-64q-71 0 -101 31.5t-30 97.5zM618 139q0 -30 11 -41.5t43 -11.5h47q18 0 29 3t17 10.5t7.5 16t1.5 23.5v59 q0 32 -11.5 42.5t-41.5 10.5h-47q-34 0 -45 -10.5t-11 -42.5v-59zM917 129v80q0 66 29.5 97t102.5 31h65q48 0 77 -14.5t41 -42t12 -71.5v-80q0 -67 -29.5 -98t-102.5 -31h-65q-71 0 -100.5 31.5t-29.5 97.5zM1002 139q0 -20 5 -31t16.5 -16.5t32.5 -5.5h47q35 0 45 11.5 t10 41.5v59q0 22 -5.5 33.5t-16.5 15.5t-31 4h-47q-34 0 -45 -10.5t-11 -42.5v-59z" />
<glyph horiz-adv-x="387" d="M42 531l111 133h92l100 -133h-85l-64 64l-68 -64h-86zM245 664z" />
<glyph horiz-adv-x="426" d="M42 581q21 21 37 33.5t38.5 23.5t44.5 11q26 -1 59 -18t48 -17q33 -2 91 37l24 -53q-17 -17 -25 -23.5t-25 -19.5t-32.5 -18.5t-31.5 -4.5q-22 0 -42 9t-36.5 17t-31.5 8q-12 0 -22.5 -2t-19.5 -6t-16 -7.5t-18 -9.5t-19 -10z" />
<glyph horiz-adv-x="286" d="M42 632q0 43 30 73t72 30q27 0 50.5 -14t37 -37.5t13.5 -51.5q0 -43 -29.5 -73t-71.5 -30q-28 0 -51.5 14t-37 37.5t-13.5 51.5zM97 632q0 -20 13.5 -33.5t33 -13.5t33 13.5t13.5 33.5q0 10 -3.5 18.5t-9.5 15t-15 10t-18 3.5q-20 0 -33.5 -13.5t-13.5 -33.5z" />
<glyph horiz-adv-x="619" d="M31 402v58h50v110h116v-110h241v110h116v-110h47v-58h-47v-403h-116v222h-241v-222h-116v403h-50zM197 330h241v72h-241v-72z" />
<glyph horiz-adv-x="591" d="M68 -1v571h116v-240h241v240h116v-571h-116v221h-241v-221h-116zM149 630l111 134h92l100 -134h-85l-63 64l-69 -64h-86zM352 764z" />
<glyph horiz-adv-x="571" d="M47 286q0 73 9 123.5t31.5 90t63.5 59t102 20.5q49 2 131.5 -5.5t126.5 -19.5v-86q-116 12 -223 12q-50 0 -75 -13.5t-37.5 -54.5t-12.5 -124q0 -20 1 -38t4.5 -41t11.5 -40.5t19.5 -33.5t30.5 -25t44 -9q44 0 83.5 15.5t51.5 33.5v85h-129v67q78 21 178 21q31 0 67 -3 v-320h-87l-26 44q-61 -51 -163 -51q-33 0 -60.5 8.5t-47 22t-35 34.5t-25.5 40t-17 45t-10 44t-5 42t-2 33.5v23.5zM198 754h54q0 -18 8.5 -31.5t22 -21t29.5 -7.5q29 0 45.5 16t16.5 44h54q0 -35 -16.5 -61.5t-42.5 -39.5t-57 -13q-47 0 -80.5 31.5t-33.5 82.5z" />
<glyph horiz-adv-x="335" d="M30 21l2 89q36 -4 62 -3.5t42 9.5t24 27.5t9 49.5v377h116v-405q0 -115 -60 -147q-51 -25 -103.5 -22.5t-91.5 25.5zM66 630l111 134h92l99 -134h-85l-63 64l-68 -64h-86zM269 764z" />
<glyph horiz-adv-x="516" d="M47 295q0 51 5 91t19.5 77t38.5 61.5t62 39t89 14.5q33 0 73 -3t82.5 -9.5t70.5 -15.5v-84q-8 2 -44 5t-83.5 6t-77.5 3q-72 0 -95.5 -44t-23.5 -141q0 -31 0.5 -50.5t4 -45.5t11.5 -42t21 -31.5t33.5 -23t48.5 -8.5q34 1 85.5 4.5t85.5 6.5l34 3v-82q-94 -30 -226 -30 q-55 0 -95 17t-62.5 44t-36 68.5t-17 80t-3.5 89.5zM247 666v68q0 25 24 25h64q11 0 17 -7t6 -18v-68q0 -23 -23 -23h-64q-10 0 -17 6.5t-7 16.5z" />
<glyph horiz-adv-x="516" d="M47 295q0 51 5 91t19.5 77t38.5 61.5t62 39t89 14.5q33 0 73 -3t82.5 -9.5t70.5 -15.5v-84q-8 2 -44 5t-83.5 6t-77.5 3q-72 0 -95.5 -44t-23.5 -141q0 -31 0.5 -50.5t4 -45.5t11.5 -42t21 -31.5t33.5 -23t48.5 -8.5q34 1 85.5 4.5t85.5 6.5l34 3v-82q-94 -30 -226 -30 q-55 0 -95 17t-62.5 44t-36 68.5t-17 80t-3.5 89.5zM148 643l111 133h92l99 -133h-85l-63 64l-68 -64h-86zM351 776z" />
<glyph horiz-adv-x="571" d="M47 286q0 73 9 123.5t31.5 90t63.5 59t102 20.5q49 2 131.5 -5.5t126.5 -19.5v-86q-116 12 -223 12q-50 0 -75 -13.5t-37.5 -54.5t-12.5 -124q0 -20 1 -38t4.5 -41t11.5 -40.5t19.5 -33.5t30.5 -25t44 -9q44 0 83.5 15.5t51.5 33.5v85h-129v67q78 21 178 21q31 0 67 -3 v-320h-87l-26 44q-61 -51 -163 -51q-33 0 -60.5 8.5t-47 22t-35 34.5t-25.5 40t-17 45t-10 44t-5 42t-2 33.5v23.5zM252 663v68q0 25 24 25h64q11 0 17 -7t6 -18v-68q0 -23 -23 -23h-64q-10 0 -17 6t-7 17z" />
<glyph horiz-adv-x="571" d="M47 286q0 73 9 123.5t31.5 90t63.5 59t102 20.5q49 2 131.5 -5.5t126.5 -19.5v-86q-116 12 -223 12q-50 0 -75 -13.5t-37.5 -54.5t-12.5 -124q0 -20 1 -38t4.5 -41t11.5 -40.5t19.5 -33.5t30.5 -25t44 -9q44 0 83.5 15.5t51.5 33.5v85h-129v67q78 21 178 21q31 0 67 -3 v-320h-87l-26 44q-61 -51 -163 -51q-33 0 -60.5 8.5t-47 22t-35 34.5t-25.5 40t-17 45t-10 44t-5 42t-2 33.5v23.5zM158 639l111 134h92l100 -134h-85l-64 64l-68 -64h-86zM361 773z" />
<glyph horiz-adv-x="605" d="M67 260v310h117v-310q0 -50 7.5 -81t24.5 -47.5t39.5 -22t57.5 -5.5q32 0 53 6t38 22.5t25 48t8 79.5v310h117v-310q0 -67 -13.5 -116.5t-35.5 -77.5t-55 -44.5t-64.5 -21.5t-72.5 -5q-32 0 -56.5 2t-51.5 8.5t-46 18.5t-37.5 31.5t-30 47t-18 67.5t-6.5 90zM196 744h54 q0 -17 8.5 -31t22 -21.5t29.5 -7.5q29 0 45.5 16t16.5 44h54q0 -53 -34 -83.5t-82 -30.5q-30 0 -56 13.5t-42 40t-16 60.5z" />
<glyph horiz-adv-x="544" d="M47 370v52q0 151 148 151q47 0 136.5 -6.5t140.5 -15.5v-85q-156 6 -259 6q-50 0 -50 -52v-42q0 -16 3 -25.5t10.5 -13.5t14.5 -5t22 -1h149q71 0 104 -39.5t33 -105.5v-56q0 -142 -137 -142q-63 0 -165.5 6t-127.5 17v83q169 -4 268 -4q16 0 27.5 10.5t14.5 21.5l4 10 v50q0 23 -10.5 33t-35.5 10h-145q-78 0 -111.5 35t-33.5 108zM110 637l111 133h92l100 -133h-85l-63 64l-69 -64h-86zM313 770z" />
<glyph horiz-adv-x="217" d="M49 0v570h116v-570h-116zM54 659v68q0 25 24 25h64q11 0 17 -7t6 -18v-68q0 -23 -23 -23h-64q-11 0 -17.5 6.5t-6.5 16.5z" />
<glyph horiz-adv-x="266" d="M75 254v78q0 25 24 25h74q25 0 25 -25v-78q0 -23 -25 -23h-74q-10 0 -17 6t-7 17z" />
<glyph horiz-adv-x="310" d="M72 271v104q0 35 33 35h99q35 0 35 -35v-104q0 -32 -35 -32h-99q-15 0 -24 8.5t-9 23.5z" />
<glyph horiz-adv-x="269" d="M67 357v127q0 34 13.5 56t32.5 29.5t38 10t33 0.5l13 -2v-50q-36 1 -36 -36v-25h13q28 0 28 -27v-83q0 -31 -28 -31h-79q-28 0 -28 31z" />
<glyph horiz-adv-x="269" d="M67 467v83q0 31 28 31h80q27 0 27 -31v-127q0 -34 -13.5 -56.5t-32.5 -30t-38 -10t-32 -0.5l-14 2v50q36 -1 36 35v26h-13q-6 0 -11 1.5t-9 5t-6 9t-2 12.5z" />
<glyph d="M68 0v571h267q88 0 130 -42t42 -111q0 -103 -73 -127q20 -6 36.5 -21t28 -43t11.5 -65q0 -80 -41.5 -121t-133.5 -41h-267zM184 103h144q13 0 22.5 2t20 9t16.5 22t6 38q0 36 -15 55.5t-50 19.5q-121 -1 -144 0v-146zM184 341h144q37 0 50 15t13 52q0 61 -63 61h-144 v-128zM222 654v68q0 25 24 25h64q11 0 17.5 -7t6.5 -18v-68q0 -23 -24 -23h-64q-10 0 -17 6.5t-7 16.5z" />
<glyph horiz-adv-x="594" d="M68 0v572h261q51 -1 91 -18.5t63.5 -45t38.5 -66.5t20.5 -77t5.5 -82q0 -46 -5.5 -85t-13.5 -66.5t-22.5 -49t-26 -35t-31 -23.5t-31.5 -14.5t-33 -7t-29.5 -2.5h-26.5h-261zM184 106h135q34 0 57 14t34.5 40t16.5 55.5t5 67.5q0 94 -30 138.5t-83 44.5h-135v-360z M222 655v68q0 25 24 25h64q11 0 17 -7t6 -18v-68q0 -23 -23 -23h-64q-11 0 -17.5 6.5t-6.5 16.5z" />
<glyph horiz-adv-x="513" d="M68 0v467q0 52 31 77.5t87 26.5q258 -8 290 -14v-91h-260q-21 0 -26 -6.5t-6 -25.5v-106l258 -8v-89l-258 -7v-224h-116zM221 655v68q0 25 24 25h64q11 0 17 -7t6 -18v-68q0 -23 -23 -23h-64q-11 0 -17.5 6t-6.5 17z" />
<glyph horiz-adv-x="753" d="M47 0l54 571h148l130 -400l128 400h147l54 -571h-114l-37 389l-120 -389h-114l-122 389l-40 -389h-114zM327 654v68q0 25 24 25h64q11 0 17 -7t6 -18v-68q0 -23 -23 -23h-64q-10 0 -17 6.5t-7 16.5z" />
<glyph horiz-adv-x="850" d="M30 570h123l134 -420l125 420h122l-54 -172l94 -248l128 420h119l-181 -570h-133l-80 214l-71 -214h-136zM259 767h113l96 -136h-83z" />
<glyph horiz-adv-x="529" d="M51 0v569h274q34 0 62.5 -9t52.5 -28.5t37.5 -54t13.5 -81.5q0 -51 -11 -88t-26 -56t-39 -30t-41.5 -13.5t-41.5 -2.5q-10 -1 -86.5 5t-77.5 7v-218h-117zM168 300h146q7 0 12.5 1t12.5 3t12 5.5t10 10t8 15t4.5 21.5t1.5 29q1 27 -7.5 46t-22.5 27.5t-31 8.5h-146v-167z M215 652v68q0 25 24 25h64q11 0 17 -7t6 -18v-68q0 -23 -23 -23h-64q-11 0 -17.5 6.5t-6.5 16.5z" />
<glyph horiz-adv-x="850" d="M30 570h123l134 -420l125 420h122l-54 -172l94 -248l128 420h119l-181 -570h-133l-80 214l-71 -214h-136zM385 631l97 136h112l-126 -136h-83z" />
<glyph horiz-adv-x="583" d="M30 570h126l138 -253l133 253h127l-203 -376v-195h-116v195zM124 766h113l97 -136h-84z" />
<glyph horiz-adv-x="850" d="M30 570h123l134 -420l125 420h122l-54 -172l94 -248l128 420h119l-181 -570h-133l-80 214l-71 -214h-136zM244 687q0 23 16.5 39t39.5 16t39 -16t16 -39q0 -15 -7 -28t-20 -20.5t-28 -7.5q-23 0 -39.5 16.5t-16.5 39.5zM499 687q0 23 16.5 39t39.5 16t39 -16t16 -39 q0 -15 -7 -28t-20 -20.5t-28 -7.5q-23 0 -39.5 16.5t-16.5 39.5z" />
<glyph horiz-adv-x="544" d="M47 370v52q0 151 148 151q47 0 136.5 -6.5t140.5 -15.5v-85q-156 6 -259 6q-50 0 -50 -52v-42q0 -16 3 -25.5t10.5 -13.5t14.5 -5t22 -1h149q71 0 104 -39.5t33 -105.5v-56q0 -142 -137 -142q-63 0 -165.5 6t-127.5 17v83q169 -4 268 -4q16 0 27.5 10.5t14.5 21.5l4 10 v50q0 23 -10.5 33t-35.5 10h-145q-78 0 -111.5 35t-33.5 108zM215 656v68q0 25 24 25h64q11 0 17 -7t6 -18v-68q0 -23 -23 -23h-64q-10 0 -17 6.5t-7 16.5z" />
<glyph horiz-adv-x="850" d="M30 570h123l134 -420l125 420h122l-54 -172l94 -248l128 420h119l-181 -570h-133l-80 214l-71 -214h-136zM282 631l111 133h92l99 -133h-85l-63 64l-68 -64h-86zM485 764z" />
<glyph horiz-adv-x="519" d="M30 461v109h460v-109h-172v-461h-116v461h-172zM204 653v68q0 25 24 25h64q11 0 17 -7t6 -18v-68q0 -23 -23 -23h-64q-11 0 -17.5 6.5t-6.5 16.5z" />
<glyph horiz-adv-x="583" d="M30 570h126l138 -253l133 253h127l-203 -376v-195h-116v195zM143 630l111 134h92l100 -134h-85l-63 64l-69 -64h-86zM346 764z" />
<glyph horiz-adv-x="1057" d="M34 267q0 81 12.5 136t37 84t54.5 40t71 11q48 0 115.5 -7.5t123.5 -22.5v-75q-112 7 -201 7q-22 0 -34.5 -2t-26.5 -11.5t-20.5 -28t-11 -52t-4.5 -82.5q0 -97 31 -134.5t102 -37.5q99 0 286 158v532h116v-432l199 182l157 -1q-11 -12 -120.5 -113t-119.5 -112l239 -306 h-138l-185 232q-1 -1 -15 -13.5t-17 -14.5v-204h-116v119q-162 -126 -286 -126q-42 0 -75.5 6t-67.5 23.5t-56 47t-36 79.5t-14 118z" />
<glyph horiz-adv-x="702" d="M68 0v623q0 42 22.5 71t56.5 37.5t69.5 5t64.5 -27t38 -59.5l193 -532q4 -14 14 -11.5t10 14.5v611h116v-623q0 -38 -22.5 -66.5t-55.5 -39t-67.5 -8.5t-63.5 26t-39 64l-194 538q-4 11 -14.5 8.5t-10.5 -15.5v-616h-117z" />
<glyph horiz-adv-x="837" d="M47 0l36 634q1 37 24 63.5t56.5 34t68 3t60.5 -29t31 -61.5l81 -349q3 -14 13.5 -13.5t12.5 13.5l73 351q5 37 31.5 61t61.5 28t69 -3t57.5 -32.5t24.5 -61.5l45 -638h-117l-40 594q0 13 -12.5 14t-14.5 -11l-73 -345q-5 -29 -29 -49.5t-55.5 -25.5t-63 0t-55.5 25.5 t-30 51.5l-82 346q-2 8 -8 9.5t-12 -3.5t-6 -13l-32 -593h-115z" />
<glyph horiz-adv-x="837" d="M47 0l36 634q1 37 24 63.5t56.5 34t68 3t60.5 -29t31 -61.5l81 -350q3 -13 13.5 -12.5t12.5 12.5l73 352q4 31 24 52.5t46.5 30.5t57 8t56 -12t43 -34t17.5 -53l45 -638h-117l-40 594q0 13 -12.5 14t-14.5 -11l-73 -345q-5 -29 -29 -49.5t-55.5 -25.5t-63 0t-55.5 25.5 t-30 51.5l-82 346q-2 8 -8 9.5t-12 -3.5t-6 -13l-32 -593h-115zM364 822v68q0 25 24 25h64q10 0 16 -7t6 -18v-68q0 -23 -22 -23h-64q-11 0 -17.5 6.5t-6.5 16.5z" />
<glyph horiz-adv-x="702" d="M68 0v623q0 42 22.5 71t56.5 37.5t69.5 5t64.5 -27t38 -59.5l193 -532q4 -14 14 -11.5t10 14.5v611h116v-623q0 -38 -22.5 -66.5t-55.5 -39t-67.5 -8.5t-63.5 26t-39 64l-194 538q-4 11 -14.5 8.5t-10.5 -15.5v-616h-117zM199 848q33 32 61 50t59 18q26 -1 59 -18t48 -17 q33 -2 91 37l24 -53q-17 -16 -25 -23t-25 -20t-32.5 -18t-31.5 -5q-27 1 -60 18t-50 16q-15 0 -28.5 -3.5t-21 -7t-22 -12t-23.5 -12.5z" />
<glyph horiz-adv-x="702" d="M68 0v623q0 42 22.5 71t56.5 37.5t69.5 5t64.5 -27t38 -59.5l193 -532q4 -14 14 -11.5t10 14.5v611h116v-623q0 -38 -22.5 -66.5t-55.5 -39t-67.5 -8.5t-63.5 26t-39 64l-194 538q-4 11 -14.5 8.5t-10.5 -15.5v-616h-117zM324 798l97 137h112l-126 -137h-83z" />
<glyph horiz-adv-x="702" d="M68 0v623q0 42 22.5 71t56.5 37.5t69.5 5t64.5 -27t38 -59.5l193 -532q4 -14 14 -11.5t10 14.5v611h116v-623q0 -38 -22.5 -66.5t-55.5 -39t-67.5 -8.5t-63.5 26t-39 64l-194 538q-4 11 -14.5 8.5t-10.5 -15.5v-616h-117zM221 932h85l69 -64l63 64h85l-103 -134h-92z M420 798z" />
<glyph horiz-adv-x="702" d="M68 0v623q0 42 22.5 71t56.5 37.5t69.5 5t64.5 -27t38 -59.5l193 -532q4 -14 14 -11.5t10 14.5v611h116v-623q0 -38 -22.5 -66.5t-55.5 -39t-67.5 -8.5t-63.5 26t-39 64l-194 538q-4 11 -14.5 8.5t-10.5 -15.5v-616h-117zM294 -169v67q0 25 22 25h65q22 0 22 -25v-100 q0 -26 -11 -43t-26 -22t-30.5 -6.5t-26.5 0.5l-11 2v38q13 0 19.5 4.5t7.5 9t1 11.5v16h-10q-22 0 -22 23z" />
<glyph horiz-adv-x="465" d="M51 371v245q0 118 125 118h118q121 0 121 -116v-247q0 -64 -31.5 -90t-89.5 -26h-118q-60 0 -92.5 25.5t-32.5 90.5zM143 387q0 -18 5.5 -28.5t16 -14t29.5 -3.5h81q29 0 39 10t10 36v215q0 25 -10 35.5t-38 10.5h-84q-17 0 -27.5 -3.5t-15 -11t-5.5 -14t-1 -17.5v-215z " />
<glyph horiz-adv-x="270" d="M14 621v59l111 56h91v-480h-92v392z" />
<glyph horiz-adv-x="397" d="M27 656q-1 0 -1 17v34.5t1 16.5q113 18 194 18q50 0 82 -19t45.5 -49.5t13.5 -73.5q0 -32 -16 -67.5t-35 -61t-50 -56.5t-45 -43t-37 -30h183v-86h-332v81q4 3 24.5 18t31.5 23.5t33.5 25.5t36.5 29.5t33.5 30.5t32 33t24 32t17.5 33t6 30q0 35 -17 49.5t-60 14.5h-165z " />
<glyph horiz-adv-x="409" d="M25 652v66q28 10 63 14.5t70 4.5h76q40 0 69 -16.5t42.5 -43t13.5 -60.5v-31q0 -72 -54 -92q54 -24 54 -97v-25q0 -121 -130 -121h-25h-25t-22 0.5t-24 1t-20.5 1.5t-22.5 2.5t-20 3t-21.5 4.5t-19.5 6l1 67h168q40 0 55 10.5t15 37.5v16q0 52 -66 53l-132 5v72l132 8 q35 1 51 12.5t16 36.5v16q0 48 -67 48h-177z" />
<glyph horiz-adv-x="427" d="M14 400l184 334h98l-154 -283h130v109l25 49h66v-158h52v-73l-52 -10v-112h-91v106h-236z" />
<glyph horiz-adv-x="418" d="M47 267v72h199q27 0 37.5 12t10.5 33v42q0 10 -1 16.5t-5 15.5t-13.5 13.5t-25.5 4.5h-85q-39 0 -39 -44h-78l15 302h306v-86h-224l-6 -106q19 16 65 18.5t68 -1.5q58 -2 86 -35t28 -89v-64q0 -61 -34 -90.5t-87 -29.5t-76.5 0.5t-60.5 4t-80 11.5z" />
<glyph horiz-adv-x="439" d="M46 508q1 55 8 96.5t18 66t27.5 40t33 21.5t37.5 7q90 9 218 -13v-71h-186q-17 0 -30 -8.5t-19 -20t-10 -30.5t-4.5 -32t-0.5 -32q74 15 151 15q66 0 91 -30t25 -81v-69q0 -57 -31.5 -84t-85.5 -27h-105q-25 0 -44.5 5.5t-37.5 22t-30 44t-18.5 73t-6.5 107.5zM138 463 q0 -121 62 -121h72q9 0 16 1.5t11.5 4.5t7.5 7.5t4.5 11.5t1.5 16v43q0 22 -8.5 29.5t-30.5 7.5h-136z" />
<glyph horiz-adv-x="386" d="M13 649v87h336l24 -41l-183 -439h-100l164 393h-241z" />
<glyph horiz-adv-x="464" d="M56 364v50q0 30 15 49t40 24q-55 21 -55 94v41q0 65 33.5 91t91.5 26h111q59 0 88 -27t29 -89v-36q0 -6 -0.5 -13t-3.5 -17.5t-8 -19.5t-15 -16t-24 -10q27 -4 39 -32.5t12 -57.5v-55q0 -64 -31 -88t-84 -24h-117q-39 0 -64.5 9.5t-37 27t-15.5 34.5t-4 39zM147 376 q0 -21 9.5 -29.5t34.5 -8.5h85q22 0 32 9t10 29v40q0 42 -41 42h-87q-22 0 -32.5 -9.5t-10.5 -32.5v-40zM147 583q0 -44 43 -44h84q28 0 36 12t8 32v26q0 28 -11 37t-36 9h-75q-28 0 -38.5 -9t-10.5 -37v-26z" />
<glyph horiz-adv-x="439" d="M38 559v70q0 57 31.5 84.5t85.5 27.5h105q25 0 44 -6t37.5 -22.5t30 -44t18.5 -73.5t6 -109q0 -40 -3.5 -73t-9.5 -56t-15 -41t-19 -29t-23 -18.5t-25 -11t-28 -4.5q-106 -12 -218 13v71h185q22 0 36 11.5t19.5 33.5t7.5 38.5t2 41.5q-74 -14 -151 -14q-66 0 -91 30 t-25 81zM129 570q0 -23 9 -31t31 -8h136q0 124 -60 124h-75q-22 0 -31.5 -9.5t-9.5 -32.5v-43z" />
<glyph horiz-adv-x="465" d="M51 116v245q0 118 125 118h118q121 0 121 -116v-247q0 -64 -31.5 -90t-89.5 -26h-118q-60 0 -92.5 25.5t-32.5 90.5zM143 132q0 -27 11 -36.5t40 -9.5h81q29 0 39 10t10 36v215q0 25 -10 35.5t-38 10.5h-84q-17 0 -27.5 -3.5t-15 -11t-5.5 -14t-1 -17.5v-215z" />
<glyph horiz-adv-x="270" d="M14 366v60l111 54h91v-479h-92v392z" />
<glyph horiz-adv-x="397" d="M27 401q-1 0 -1 17v34.5t1 16.5q113 18 194 18q73 0 107 -38.5t34 -103.5q0 -32 -16 -67.5t-35 -61t-50 -56.5t-45 -43t-37 -30h183v-86h-332v82q5 3 22 15.5t27.5 20.5t29.5 23t32.5 26t31.5 27.5t30.5 29.5t25.5 29t21 30t13.5 29t5.5 28q0 16 -4 27.5t-13 18.5 t-24 10.5t-36 3.5h-165z" />
<glyph horiz-adv-x="409" d="M25 396v66q28 10 66 14.5t64 5t79 0.5q40 0 69 -16t42.5 -42.5t13.5 -61.5v-31q0 -72 -54 -92q54 -24 54 -97v-25q0 -121 -130 -121h-25h-25t-22 0.5t-24 1t-20.5 1.5t-22.5 2.5t-20 3t-21.5 4.5t-19.5 6l1 67h168q40 0 55 10.5t15 37.5v16q0 52 -66 53l-132 5v72l132 8 q35 1 51 12.5t16 36.5v16q0 47 -67 47h-177z" />
<glyph horiz-adv-x="427" d="M14 145l184 334h98l-154 -283h130v109l25 49h66v-158h52v-73l-52 -16v-106h-91v106h-236z" />
<glyph horiz-adv-x="418" d="M47 12v72h199q27 0 37.5 12t10.5 33v41q0 10 -1 16.5t-5 15t-13.5 13t-25.5 4.5h-85q-39 0 -39 -37h-78l15 297h306v-86h-224l-6 -108q6 5 14.5 9t19.5 6t20 3t23 1h20.5t20.5 -1t15 -1q58 -1 86 -34.5t28 -88.5v-64q0 -61 -34 -90t-87 -29t-76.5 0.5t-60.5 4t-80 11.5z " />
<glyph horiz-adv-x="439" d="M46 253q0 35 3 64t8 51t12 39.5t16 30t18 21t21 13.5t22.5 8t23.5 4q98 10 218 -13v-71h-186q-17 0 -30 -8.5t-19 -20t-10 -30.5t-4.5 -32t-0.5 -32q74 15 151 15q66 0 91 -30t25 -81v-69q0 -57 -31.5 -84t-85.5 -27h-105q-25 0 -44.5 5.5t-37.5 22t-30 44t-18.5 73 t-6.5 107.5zM138 208q0 -121 62 -121h72q8 0 13.5 1t10.5 3t8 5t5 7.5t3 10.5t1 14v43q0 22 -8.5 29.5t-30.5 7.5h-136z" />
<glyph horiz-adv-x="386" d="M13 394v86h336l24 -40l-183 -439h-101l165 393h-241z" />
<glyph horiz-adv-x="464" d="M56 109v50q0 30 15 49t40 25q-55 21 -55 93v41q0 34 9.5 57.5t27.5 36t39 18t49 5.5h111q59 0 88 -27t29 -89v-36q0 -8 -1.5 -17.5t-6 -22.5t-15.5 -22.5t-28 -12.5q27 -5 39 -33.5t12 -56.5v-56q0 -64 -31 -88t-84 -24h-117q-39 0 -64.5 9.5t-37 27t-15.5 34.5t-4 39z M147 121q0 -21 9.5 -29.5t34.5 -8.5h85q22 0 32 9t10 29v40q0 42 -41 42h-87q-22 0 -32.5 -9.5t-10.5 -32.5v-40zM147 328q0 -44 43 -44h84q28 0 36 12t8 32v26q0 28 -11 37t-36 9h-75q-28 0 -38.5 -9t-10.5 -37v-26z" />
<glyph horiz-adv-x="439" d="M38 303v69q0 56 31.5 83.5t85.5 27.5h105q21 0 37.5 -4t32.5 -14t28 -28.5t21 -45.5t13.5 -67.5t3.5 -92.5q0 -55 -7 -96t-17.5 -65.5t-27 -39.5t-33 -21t-38.5 -8q-97 -11 -218 10v71h185q22 0 36 11.5t19.5 33t7.5 38t2 41.5q-72 -15 -151 -15q-66 0 -91 30t-25 82z M129 313q0 -23 9 -30.5t31 -7.5h136q0 122 -60 122h-75q-15 0 -23.5 -4t-13 -13t-4.5 -24v-43z" />
<glyph horiz-adv-x="1054" d="M34 266q0 81 12.5 136t37 84t54.5 40t71 11q29 0 66.5 -2.5t86 -10t86.5 -18.5v-74q-112 7 -201 7q-22 0 -34.5 -2t-26.5 -11.5t-20.5 -28t-11 -52t-4.5 -83.5q0 -69 10.5 -106.5t31.5 -50.5t59 -13q13 0 39 -1h53t47.5 1.5t42.5 3.5t37 6.5t30.5 11t24.5 16.5t18 23.5 t10.5 31t3.5 39.5v559h116v-311q26 18 37.5 25t36.5 20t50.5 18t54.5 5q82 0 121 -50.5t39 -129.5v-360h-116v361q0 28 -9 46.5t-24.5 26.5t-36.5 8q-33 0 -61.5 -7.5t-46.5 -16.5t-45 -26v-174q0 -50 -12.5 -88t-32.5 -61.5t-52 -40t-62 -23.5t-72.5 -10.5t-73.5 -3 t-74.5 1.5t-66.5 0q-27 0 -49 4t-45 14.5t-40 30.5t-31 49.5t-21 73.5t-7 101z" />
<glyph horiz-adv-x="881" d="M51 0v476q78 39 133 51.5t151 12.5q36 0 69.5 -11.5t53.5 -31.5q58 24 107 33.5t114 9.5q51 0 88.5 -24t55 -61.5t17.5 -84.5v-370h-116v356q0 82 -71 82q-45 0 -76.5 -6t-75.5 -28q5 -16 5 -45v-359h-116v356q0 82 -71 82q-45 0 -76.5 -6t-75.5 -28v-404h-116z" />
<glyph d="M51 0v476q77 39 133.5 51.5t153.5 12.5q77 0 122.5 -49.5t45.5 -120.5v-370h-116v356q0 82 -71 82q-45 0 -76.5 -6t-75.5 -28v-404h-116z" />
<glyph d="M51 0v476q53 27 93.5 40.5t84 18.5t109.5 5q77 0 122.5 -49.5t45.5 -120.5v-370h-116v356q0 82 -71 82q-45 0 -76.5 -6t-75.5 -28v-404h-116zM108 650q32 32 60 50t59 18q26 -1 59.5 -18t47.5 -17q34 -2 92 37l23 -53q-17 -17 -25 -23.5t-25 -19.5t-32.5 -18.5 t-31.5 -4.5q-27 1 -60 17.5t-50 16.5q-15 0 -28.5 -3.5t-21 -7t-22 -12t-22.5 -12.5z" />
<glyph d="M51 0v476q53 27 93.5 40.5t84 18.5t109.5 5q77 0 122.5 -49.5t45.5 -120.5v-370h-116v356q0 82 -71 82q-45 0 -76.5 -6t-75.5 -28v-404h-116zM227 -163v68q0 24 23 24h65q21 0 21 -24v-100q0 -20 -5.5 -34t-15 -21.5t-20.5 -12t-22 -5t-20.5 0t-14.5 1.5l-6 2v38 q12 -1 18.5 4t8 9.5t1.5 10.5v17h-10q-23 0 -23 22z" />
<glyph d="M51 0v476q53 27 93.5 40.5t84 18.5t109.5 5q77 0 122.5 -49.5t45.5 -120.5v-370h-116v356q0 82 -71 82q-45 0 -76.5 -6t-75.5 -28v-404h-116zM134 734h85l69 -64l63 64h85l-102 -134h-92zM334 600z" />
<glyph d="M51 0v476q53 27 93.5 40.5t84 18.5t109.5 5q77 0 122.5 -49.5t45.5 -120.5v-370h-116v356q0 82 -71 82q-45 0 -76.5 -6t-75.5 -28v-404h-116zM245 600l97 136h112l-126 -136h-83z" />
<glyph horiz-adv-x="881" d="M51 0v476q78 39 133 51.5t151 12.5q36 0 69.5 -11.5t53.5 -31.5q30 13 55 21t52 13t54 7t60 2q51 0 88.5 -24t55 -61.5t17.5 -84.5v-370h-116v356q0 82 -71 82q-45 0 -76.5 -6t-75.5 -28q5 -16 5 -45v-359h-116v356q0 82 -71 82q-45 0 -76.5 -6t-75.5 -28v-404h-116z M411 623v68q0 25 24 25h64q11 0 17 -7t6 -18v-68q0 -23 -23 -23h-64q-11 0 -17.5 6.5t-6.5 16.5z" />
<glyph horiz-adv-x="420" d="M51 0v480q77 42 154 55t198 3v-106q-134 16 -236 -24v-408h-116z" />
<glyph horiz-adv-x="420" d="M51 0v480q77 42 154 55t198 3v-106q-134 16 -236 -24v-408h-116zM201 602l97 137h112l-126 -137h-83z" />
<glyph horiz-adv-x="420" d="M51 0v480q77 42 154 55t198 3v-106q-134 16 -236 -24v-408h-116zM97 736h85l70 -64l62 64h85l-102 -134h-92zM297 602z" />
<glyph horiz-adv-x="420" d="M48 0v480q77 42 154.5 55t197.5 3v-106q-134 16 -236 -24v-408h-116zM57 -163v68q0 24 22 24h65q22 0 22 -24v-100q0 -27 -11 -43.5t-26 -22t-30.5 -7t-26.5 0.5l-11 3v38q10 -1 16 1.5t8.5 7t3 8t0.5 7.5v17h-10q-22 0 -22 22z" />
<glyph horiz-adv-x="568" d="M17 0l128 218q16 27 19 44t-2.5 31.5t-23.5 43.5l-121 194h129l99 -162q23 -33 28 -89.5t-15 -89.5l-112 -190h-129zM310 190q-20 33 -15 90.5t28 88.5l99 162h129l-120 -194q-19 -29 -24.5 -43.5t-2 -31.5t18.5 -44l128 -218h-129z" />
<glyph horiz-adv-x="640" d="M17 0l160 305q16 31 19 54t-3.5 43t-25.5 55l-150 275h124l140 -245q20 -34 25.5 -105.5t-12.5 -105.5l-149 -276h-128zM346 276q-18 34 -12.5 106t25.5 105l140 245h124l-150 -275q-19 -35 -25.5 -55t-3.5 -43t19 -54l160 -305h-128z" />
<glyph horiz-adv-x="534" d="M42 138v50q0 64 33 98.5t118 34.5h183q0 53 -10 78.5t-30.5 33.5t-64.5 8q-61 0 -218 -12v75q72 18 126.5 25.5t129.5 7.5q38 0 66.5 -7t48.5 -22.5t33.5 -36.5t21 -53t10.5 -69t3 -87v-99q0 -84 -37.5 -123.5t-117.5 -39.5h-144q-151 0 -151 138zM158 145 q0 -26 10.5 -38t42.5 -12h101q39 0 51.5 15.5t12.5 49.5v85l-165 -11q-29 -2 -41 -12.5t-12 -33.5v-43z" />
<glyph horiz-adv-x="534" d="M42 138v50q0 64 33 98t118 34h183q0 54 -10 79.5t-30.5 33.5t-64.5 8q-61 0 -218 -12v75q72 18 126.5 25.5t129.5 7.5q57 0 93 -15.5t56 -51t27 -84t7 -124.5v-99q0 -84 -37.5 -123.5t-117.5 -39.5h-144q-151 0 -151 138zM158 145q0 -17 3.5 -27t15.5 -16.5t34 -6.5h101 q21 0 34 4t19.5 13.5t8.5 20t2 27.5v85l-165 -11q-20 -2 -31.5 -7t-16.5 -14.5t-5 -24.5v-43zM118 734h113l96 -137h-83z" />
<glyph horiz-adv-x="534" d="M42 138v50q0 64 33 98t118 34h183q0 54 -10 79.5t-30.5 33.5t-64.5 8q-61 0 -218 -12v75q72 18 126.5 25.5t129.5 7.5q57 0 93 -15.5t56 -51t27 -84t7 -124.5v-99q0 -84 -37.5 -123.5t-117.5 -39.5h-144q-151 0 -151 138zM158 145q0 -17 3.5 -27t15.5 -16.5t34 -6.5h101 q21 0 34 4t19.5 13.5t8.5 20t2 27.5v85l-165 -11q-20 -2 -31.5 -7t-16.5 -14.5t-5 -24.5v-43zM230 597l96 137h113l-126 -137h-83z" />
</font>
</defs>
</svg>
