<?xml version="1.0" standalone="no"?>
<!DOCTYPE svg PUBLIC "-//W3C//DTD SVG 1.1//EN" "http://www.w3.org/Graphics/SVG/1.1/DTD/svg11.dtd" >
<svg xmlns="http://www.w3.org/2000/svg">
<metadata></metadata>
<defs>
<font id="exomedium" horiz-adv-x="545" >
<font-face units-per-em="1000" ascent="800" descent="-200" />
<missing-glyph horiz-adv-x="250" />
<glyph unicode="fi" horiz-adv-x="613" d="M19 448v66l94 17v49q0 90 55.5 148t146.5 58q37 0 101.5 -10.5t99.5 -22.5v-58l-175 10q-25 1 -47.5 -4t-43.5 -18t-33 -39.5t-12 -64.5v-48l357 -10v-521h-93v448h-264v-448h-92v448h-94z" />
<glyph unicode="fl" horiz-adv-x="718" d="M19 448v66l95 17v51q0 94 42.5 149t129.5 55h277v-591q0 -42 5.5 -64.5t16 -31.5t32.5 -16q76 -21 83 -21v-62h-96q-71 0 -102 42.5t-31 146.5v516h-165q-34 0 -54.5 -9.5t-33 -37t-12.5 -76.5v-51h138v-83h-140v-448h-92v448h-93z" />
<glyph unicode="&#xd;" horiz-adv-x="934" />
<glyph unicode=" "  horiz-adv-x="250" />
<glyph unicode="&#x09;" horiz-adv-x="250" />
<glyph unicode="&#xa0;" horiz-adv-x="250" />
<glyph unicode="!" horiz-adv-x="270" d="M78 23v66q0 25 24 25h64q11 0 17 -7t6 -18v-66q0 -23 -23 -23h-64q-11 0 -17.5 6.5t-6.5 16.5zM82 731h103l-9 -535h-86z" />
<glyph unicode="&#x22;" horiz-adv-x="397" d="M79 665v67h92v-67l-10 -134h-70zM227 665v67h91v-67l-10 -134h-70z" />
<glyph unicode="#" horiz-adv-x="696" d="M19 226l9 64h158l24 153h-157l10 64h158l37 225h64l-37 -225h154l36 225h64l-36 -225h176l-11 -64h-176l-24 -154h176l-10 -64h-177l-37 -225h-64l37 225l-155 1l-37 -226h-64l37 226h-155zM250 290l154 -1l24 154h-154z" />
<glyph unicode="$" horiz-adv-x="573" d="M51 492v65q1 51 15.5 87t41.5 56t59 28.5t75 9.5v86h66v-89q67 -4 187 -22v-72q-22 0 -79 2.5t-104.5 4.5t-51.5 2q-28 1 -47 -2t-36 -12.5t-25.5 -29.5t-8.5 -52v-58q0 -90 98 -90h120q40 0 70 -11t47 -28t27.5 -41.5t13.5 -47.5t3 -50v-63q0 -52 -18 -88.5t-50 -54.5 t-67.5 -25t-78.5 -5v-82h-66v86q-100 9 -168 22v70q6 0 94.5 -3.5t143.5 -3.5q118 0 118 83v60q0 43 -17 66.5t-61 23.5h-120q-44 0 -77.5 11.5t-52.5 29t-31 42.5t-16 47.5t-4 47.5z" />
<glyph unicode="%" horiz-adv-x="956" d="M39 476v130q0 66 29 96t102 30h101q71 0 99.5 -30t28.5 -96v-130q0 -67 -28.5 -97t-101.5 -30h-101q-72 0 -100.5 30t-28.5 97zM113 480q0 -34 12.5 -45.5t46.5 -11.5h93q39 0 49.5 12t10.5 45v121q0 34 -12 45.5t-46 11.5h-93q-39 0 -50 -11.5t-11 -45.5v-121zM222 0 l440 732h79l-439 -732h-80zM558 129v130q0 33 6 55.5t21 39t40.5 24t62.5 7.5h101q72 0 100.5 -30t28.5 -96v-130q0 -67 -28.5 -97t-102.5 -30h-101q-71 0 -99.5 30.5t-28.5 96.5zM632 133q0 -33 12 -45t46 -12h93q39 0 50 12t11 45v121q0 34 -12.5 45.5t-46.5 11.5h-93 q-38 0 -49 -11.5t-11 -45.5v-121z" />
<glyph unicode="&#x26;" horiz-adv-x="648" d="M75 82q-54 74 -41.5 150.5t79.5 134.5l81 69l-60 82q-28 38 -32 77t11.5 66.5t40.5 46.5t53 22q50 8 105.5 4.5t87.5 -9t76 -15.5v-64h-192q-44 0 -65 -10.5t-18 -36.5t34 -69l216 -294l117 118l30 -34l-54 -107l-40 -45l122 -168h-108l-79 107l-71 -65 q-38 -35 -93 -44.5t-110.5 12.5t-89.5 72zM152 133q18 -24 45.5 -38t59.5 -11.5t56 25.5l72 68l-141 188l-71 -60q-95 -78 -21 -172z" />
<glyph unicode="'" horiz-adv-x="195" d="M51 665v67h93v-67l-10 -134h-72z" />
<glyph unicode="(" horiz-adv-x="346" d="M70 326q0 81 17 165.5t41 147.5t48 115t41 79l17 27h94q-7 -11 -18 -30t-39.5 -78.5t-50.5 -119.5t-40 -144.5t-18 -161.5q0 -62 9 -125t24 -114t32.5 -98.5t35 -83t32.5 -62t24 -39.5l9 -14h-94q-7 8 -18 24t-39.5 70t-50 112t-39 148t-17.5 182z" />
<glyph unicode=")" horiz-adv-x="346" d="M19 -210q6 10 17.5 27.5t40 74t50.5 115.5t40 146.5t18 172.5q0 122 -41.5 255.5t-83.5 206.5l-41 72h94q7 -10 18 -28.5t39 -76.5t49.5 -117.5t39.5 -145t18 -166.5q0 -92 -17 -181t-41 -150.5t-48 -109.5t-41 -72l-17 -23h-94z" />
<glyph unicode="*" horiz-adv-x="436" d="M47 566v44l139 28l5 -77zM112 415l24 135l75 -18l-58 -131zM173 718l43 17l73 -120l-71 -31zM203 473l43 65l110 -91l-24 -35zM248 571l120 77l22 -39l-92 -97z" />
<glyph unicode="+" horiz-adv-x="507" d="M46 313v86h164v165h86v-165h166v-86h-166v-165h-86v165h-164z" />
<glyph unicode="," horiz-adv-x="267" d="M79 25v63q0 27 25 27h60q24 0 24 -27v-99q0 -28 -10.5 -46t-26 -24t-30.5 -8t-26 -1l-11 2v36q14 0 21.5 5.5t8.5 11t1 13.5v22h-11q-11 0 -18 6.5t-7 18.5z" />
<glyph unicode="-" horiz-adv-x="354" d="M20 247v86h314v-86h-314z" />
<glyph unicode="." horiz-adv-x="269" d="M79 23v66q0 25 24 25h62q25 0 25 -25v-66q0 -23 -25 -23h-62q-10 0 -17 6.5t-7 16.5z" />
<glyph unicode="/" horiz-adv-x="415" d="M19 -72l281 842h97l-281 -842h-97z" />
<glyph unicode="0" horiz-adv-x="639" d="M65 166v398q0 81 49 124.5t127 43.5h164q45 0 79 -13.5t53 -37t28 -52.5t9 -63v-400q0 -85 -44.5 -125.5t-125.5 -40.5h-164q-78 0 -126.5 40.5t-48.5 125.5zM157 173q0 -45 26.5 -64.5t65.5 -19.5h146q87 0 87 83v388q0 83 -86 83h-148q-47 0 -69 -24t-22 -59v-387z" />
<glyph unicode="1" horiz-adv-x="364" d="M37 584v64l161 84h92v-732h-92v633z" />
<glyph unicode="2" horiz-adv-x="594" d="M37 652v68q155 22 304 22q43 0 78 -12t58.5 -32.5t40 -48t23.5 -58t7 -63.5q0 -53 -29 -113.5t-67.5 -107.5t-90.5 -96t-85 -75t-63 -47h335v-89h-504v83q41 28 84 59.5t105 84t108.5 100.5t80 103.5t33.5 98.5q0 56 -31 89.5t-96 33.5h-291z" />
<glyph unicode="3" horiz-adv-x="591" d="M28 645v61q41 15 96 21.5t108.5 7t115.5 -0.5q80 -1 126.5 -47.5t46.5 -120.5v-65q0 -110 -68 -137q68 -39 68 -146v-54q0 -171 -180 -171h-37.5h-38.5t-34 0.5t-37 1t-32.5 2t-35 3.5t-30.5 5t-33 7t-29 9l1 62h286q25 0 41.5 2.5t32.5 11t24.5 26.5t8.5 46v52 q0 94 -101 97l-231 8v72l231 10q103 5 103 92v60q0 30 -15.5 49.5t-37.5 27.5t-50 8h-299z" />
<glyph unicode="4" horiz-adv-x="607" d="M19 224l304 508h106l-273 -460h256v197l35 75h57v-272h85v-72l-85 -20v-178h-92v178h-359z" />
<glyph unicode="5" horiz-adv-x="601" d="M71 20v70h298q46 0 65.5 25.5t19.5 61.5v98v15.5t-2 16.5t-5 17t-9 15t-15 12.5t-22 8t-30 3.5h-138q-32 0 -54 -17.5t-22 -52.5h-84l22 439h428v-89h-342l-11 -221q21 22 73 28q22 3 49 3t55 -1t35 -2q43 0 75 -13t51.5 -36t28.5 -53t9 -68v-111q0 -49 -16.5 -84.5 t-43.5 -54t-54 -26.5t-55 -8q-102 0 -156.5 4t-149.5 20z" />
<glyph unicode="6" horiz-adv-x="619" d="M61 384q0 95 14.5 166t40 110t54.5 57.5t63 19.5q152 4 306 -19v-69h-278q-22 0 -39.5 -11.5t-29 -32t-19.5 -44t-12 -52t-6 -51.5t-2 -46q144 20 246 20q34 0 60 -5.5t44 -16t30 -24t18.5 -32t9 -36.5t2.5 -40v-126q0 -153 -165 -153h-148q-35 0 -62 10t-52 35.5t-41 68 t-25 111t-9 160.5zM153 345q0 -30 1 -53t4 -55.5t10.5 -56.5t19 -46t30.5 -34t44 -12h129q20 0 33.5 2.5t25 10.5t17 23.5t5.5 39.5v109q0 41 -21.5 56.5t-58.5 15.5h-239z" />
<glyph unicode="7" horiz-adv-x="548" d="M28 643v89h462l30 -52l-259 -680h-106l249 643h-376z" />
<glyph unicode="8" horiz-adv-x="631" d="M70 158v91q0 84 83 109q-31 11 -50 35.5t-26 50t-7 55.5v65q0 95 47 134t132 39h148q83 0 124 -41t41 -132v-62q0 -12 -2 -26.5t-8.5 -34t-23.5 -35t-41 -20.5q19 -4 34.5 -19t24 -35.5t12.5 -40.5t4 -38v-94q0 -39 -11 -68.5t-27.5 -46t-40 -27t-44 -14t-43.5 -3.5h-147 q-50 0 -85.5 13t-53 29.5t-27.5 41.5t-11.5 40t-1.5 34zM162 160q0 -36 22.5 -54t71.5 -18h131q35 0 59 18.5t24 53.5v95q0 37 -23 56.5t-57 19.5h-144q-37 0 -60.5 -18t-23.5 -58v-95zM162 494q0 -29 15 -47.5t32.5 -24.5t36.5 -6h143q81 0 81 78v62q0 51 -20 72.5 t-62 21.5h-132q-50 0 -72 -18t-22 -76v-62z" />
<glyph unicode="9" horiz-adv-x="619" d="M56 459v125q0 153 166 153h147q35 0 62.5 -9.5t52 -35.5t40.5 -68.5t25.5 -110.5t9.5 -161q0 -95 -15 -166t-40.5 -110t-54.5 -57.5t-62 -19.5q-192 -5 -307 19v69h279q26 0 45.5 17.5t31 42.5t18.5 59t9.5 61.5t3.5 57.5q-144 -21 -247 -21q-49 0 -83 12t-51 35 t-23.5 48.5t-6.5 59.5zM147 463q0 -40 21.5 -56t59.5 -16h239q0 19 -0.5 34.5t-2 37t-3.5 38.5t-6 37t-9.5 35t-14 29.5t-18.5 24.5t-24.5 15.5t-30.5 5.5h-130q-20 0 -33 -2.5t-25 -10t-17.5 -23.5t-5.5 -40v-109z" />
<glyph unicode=":" horiz-adv-x="269" d="M79 23v66q0 25 24 25h62q25 0 25 -25v-66q0 -23 -25 -23h-62q-10 0 -17 6.5t-7 16.5zM79 441v66q0 25 24 25h62q25 0 25 -25v-66q0 -23 -25 -23h-62q-7 0 -12 2.5t-8.5 8t-3.5 12.5z" />
<glyph unicode=";" horiz-adv-x="271" d="M79 25v63q0 7 3.5 13.5t9 10t12.5 3.5h60q8 0 13.5 -3.5t8 -9.5t2.5 -14v-99q0 -28 -10.5 -46t-26 -24t-30.5 -8t-26 -1l-11 2v36q14 0 21.5 5.5t8.5 11t1 13.5v22h-11q-10 0 -17.5 7.5t-7.5 17.5zM81 442v66q0 25 24 25h62q25 0 25 -25v-66q0 -23 -25 -23h-62 q-7 0 -12.5 2.5t-8.5 8t-3 12.5z" />
<glyph unicode="&#x3c;" horiz-adv-x="468" d="M47 307v93l375 158v-94l-263 -110l263 -120v-96z" />
<glyph unicode="=" horiz-adv-x="467" d="M20 204v86h427v-86h-427zM20 415v86h427v-86h-427z" />
<glyph unicode="&#x3e;" horiz-adv-x="468" d="M47 138v96l262 120l-262 110v94l375 -158v-93z" />
<glyph unicode="?" horiz-adv-x="541" d="M19 649v68q6 1 31 5t31.5 5t28 3.5t30.5 3.5t28 3t31.5 2t30 0.5t35 0.5t36.5 -1q55 0 95.5 -15.5t63.5 -42.5t33.5 -59t10.5 -71v-94q0 -97 -64.5 -138t-173.5 -26v-98h-86v171h135q26 1 47 10t36 30t15 52v88q0 55 -30.5 79t-98.5 24h-265zM168 23v66q0 25 24 25h63 q24 0 24 -25v-66q0 -23 -24 -23h-63q-11 0 -17.5 6.5t-6.5 16.5z" />
<glyph unicode="@" horiz-adv-x="850" d="M61 3v336q0 20 2 37.5t12.5 44t28.5 45.5t53 32.5t82 13.5h209q31 0 57 -6.5t50 -21.5t38 -45t14 -71v-368h-65l-16 62l-9.5 -7t-26 -17.5t-36.5 -21t-47 -18t-52 -7.5q-57 -1 -93 34t-35 87v50q0 63 34.5 99t98.5 36h164q1 67 0 67q0 37 -18.5 50.5t-59.5 13.5h-207 q-20 0 -35 -3.5t-29.5 -12t-22 -27.5t-7.5 -47v-332q0 -104 94 -104h345q40 0 63 12t31.5 34t8.5 58v497q0 56 -28 85.5t-75 29.5h-404v57q135 28 292 27h112q85 -1 136 -51t51 -148v-497q0 -190 -186 -190h-346q-81 0 -129.5 47.5t-48.5 139.5zM313 122q0 -17 17 -32 t40 -15q61 0 154 51v112l-156 -15q-27 -3 -41.5 -19.5t-13.5 -41.5q-1 -1 -1 -20.5t1 -19.5z" />
<glyph unicode="A" horiz-adv-x="676" d="M42 0l263 732h97l252 -732h-105l-60 193h-277l-63 -193h-107zM241 280h220l-108 320z" />
<glyph unicode="B" horiz-adv-x="598" d="M75 0v732h287q53 0 92.5 -17t61 -46t31.5 -61t10 -68q0 -134 -95 -160q41 -9 71 -53.5t30 -119.5q0 -44 -10 -79.5t-32 -65t-62 -46t-96 -16.5h-288zM168 88h193q110 0 110 122q0 56 -27.5 93t-82.5 37h-193v-252zM168 426h192q51 0 78 28t27 83q0 32 -9.5 54.5 t-25.5 33.5t-33 15t-37 4h-192v-218z" />
<glyph unicode="C" horiz-adv-x="576" d="M51 368q0 74 6.5 129t23 102.5t44 77.5t70.5 46.5t102 16.5q50 0 121.5 -8t125.5 -19v-73l-5.5 0.5t-14.5 1t-21.5 1.5t-27.5 1.5t-31.5 1.5t-34.5 2t-35.5 1.5l-35 1t-32.5 0.5q-47 0 -76 -11t-49.5 -42.5t-29 -87t-8.5 -144.5q0 -36 2.5 -67t8 -60.5t13.5 -53t21 -43 t29.5 -32.5t39 -20t49.5 -7q47 0 106 2t96 3l36 2v-73q-50 -10 -122.5 -16.5t-124.5 -6.5q-68 0 -116.5 27t-76 78.5t-40.5 117t-13 151.5z" />
<glyph unicode="D" horiz-adv-x="658" d="M75 0v732h282q64 0 112 -24t75 -60t44 -87.5t22.5 -98t5.5 -99.5q0 -56 -8.5 -107t-28.5 -98t-49 -82t-73.5 -55.5t-99.5 -20.5h-282zM167 90h187q59 0 98 37.5t55.5 97.5t16.5 139q0 151 -43 215.5t-127 64.5h-187v-554z" />
<glyph unicode="E" horiz-adv-x="567" d="M74 129v467q0 74 39 106t96 30q300 -14 318 -16v-74h-309q-19 0 -30 -4t-15.5 -14t-5.5 -17t-1 -21v-176l319 -11v-74l-319 -10v-176q0 -19 5 -30.5t16 -16t18.5 -5t22.5 -0.5h299v-73l-308 -17q-145 -8 -145 132z" />
<glyph unicode="F" horiz-adv-x="567" d="M74 0v595q0 73 38.5 106t96.5 31q300 -14 318 -16v-74h-309q-19 0 -30 -4t-15.5 -14t-5.5 -17t-1 -21v-176l319 -11v-74l-319 -10v-315h-92z" />
<glyph unicode="G" horiz-adv-x="614" d="M51 370q0 66 5.5 117t20.5 100.5t40.5 81.5t68.5 51.5t101 19.5q52 0 127 -8t134 -20v-73q-1 0 -18 1.5t-44 3.5t-58 4t-67 3.5t-65 1.5q-38 0 -64.5 -11.5t-44 -32.5t-27 -56.5t-13.5 -79t-4 -105.5q0 -161 33 -222t121 -62q33 -1 76.5 10.5t70.5 23.5l27 12v181h-150 v61q78 25 174 25q32 0 68 -3v-394h-68l-22 49q-36 -23 -80 -38t-104 -16t-103.5 18t-69 51t-40.5 83t-20 102t-5 121z" />
<glyph unicode="H" horiz-adv-x="637" d="M75 0v732h92v-334h323v334h92v-732h-92v310h-323v-310h-92z" />
<glyph unicode="I" horiz-adv-x="222" d="M75 0v732h92v-732h-92z" />
<glyph unicode="J" horiz-adv-x="358" d="M33 22l3 69q3 -1 8 -2q18 -3 27 -5t25 -4t25.5 -1.5t23.5 2t21.5 6t17 12t14.5 19t8.5 27.5t3.5 37v550h92v-567q0 -32 -2 -53.5t-14.5 -50t-35.5 -43.5q-40 -25 -109 -23.5t-108 27.5z" />
<glyph unicode="K" horiz-adv-x="601" d="M75 0v732h90v-322h76l218 322h110l-245 -365l245 -367h-110l-218 322h-75v-322h-91z" />
<glyph unicode="L" horiz-adv-x="552" d="M75 130v602h92v-591q0 -19 4.5 -30.5t16 -15.5t18.5 -5t23 -1h291v-89h-305q-29 0 -51.5 5t-44 17.5t-33 40t-11.5 67.5z" />
<glyph unicode="M" horiz-adv-x="813" d="M51 0l53 732h127l175 -579l171 579h126l60 -732h-92l-46 568l-169 -568h-98l-174 568l-41 -568h-92z" />
<glyph unicode="N" horiz-adv-x="679" d="M75 0v732h94l363 -561v561h92v-732h-92l-364 560v-560h-93z" />
<glyph unicode="O" horiz-adv-x="674" d="M61 361q0 100 14.5 170.5t37 110t62.5 61.5t77.5 28t95.5 6q41 0 70.5 -3t61 -12t53 -25t42 -44t32.5 -67.5t19 -96t7 -128.5q0 -80 -8.5 -139t-26 -99t-40 -65.5t-57 -39t-69.5 -18t-84 -4.5q-43 0 -73 2.5t-62.5 11.5t-54 25t-41.5 42.5t-31.5 65t-18 93t-6.5 125.5z M153 361q0 -53 3 -91.5t9 -68.5t17.5 -50t25.5 -33.5t36 -20.5t46 -9.5t58 -2.5q38 0 64.5 4t49.5 15.5t37 30.5t24 50t14 73.5t4 102.5q0 42 -2 76t-6.5 61t-9 48t-13.5 36.5t-17 26.5t-22 18.5t-24.5 11.5t-29 6t-32.5 2.5t-37 0.5t-36.5 -0.5t-32.5 -2.5t-29.5 -6 t-24.5 -11t-22 -18t-17.5 -26.5t-14.5 -36.5t-10 -48t-6.5 -61.5t-1.5 -76.5z" />
<glyph unicode="P" horiz-adv-x="586" d="M58 0v732h304q183 0 183 -216q0 -44 -6.5 -79.5t-16.5 -58.5t-25 -40t-30 -26t-35 -14t-35 -6.5t-35 -1.5q-28 1 -118 9.5t-94 10.5v-310h-92zM150 378h209q21 0 36 5t29 18.5t21 42t7 72.5q-1 42 -10 69.5t-24.5 39t-28.5 15.5t-30 4h-209v-266z" />
<glyph unicode="Q" horiz-adv-x="674" d="M61 361q0 72 7 128.5t19 96t32.5 67.5t42 44t53.5 25t61 12t70 3t70.5 -3t61.5 -12t53.5 -25t42.5 -44t32.5 -67.5t19 -96t7.5 -128.5q0 -80 -8.5 -139t-26.5 -99t-40.5 -65.5t-57.5 -38.5t-70 -18t-84 -5q-37 0 -64 2t-56 8t-49.5 17.5t-40.5 30t-32.5 46t-23 64t-15 86 t-4.5 111.5zM153 361q0 -53 3 -91.5t9 -68.5t17 -50t25 -33.5t35.5 -20.5t45.5 -9.5t58 -2.5q46 0 76.5 6.5t55 23t37 48t19.5 79.5t7 119q0 83 -9 137.5t-21.5 84.5t-41 44.5t-52.5 17.5t-71 3q-23 0 -36.5 -0.5t-32 -2.5t-29 -6t-24.5 -11t-22 -18t-17.5 -26.5t-14 -36.5 t-9.5 -48t-6.5 -61.5t-1.5 -76.5zM312 -33h60q25 -22 54 -30.5t54.5 -5.5t57.5 14v-89q-29 -12 -66.5 -9t-71 14.5t-58.5 39.5t-30 66z" />
<glyph unicode="R" horiz-adv-x="596" d="M58 0v732h314q177 0 177 -222q0 -34 -4 -62.5t-11.5 -49t-15.5 -36.5t-19.5 -26.5t-20 -17t-21 -11t-18 -6t-14.5 -3.5l150 -298h-101l-145 293l-179 14v-307h-92zM150 385h218q17 0 27.5 1.5t23.5 8t20 19t12 37t5 59.5q0 42 -7 70t-20.5 41t-27.5 18t-33 5h-218v-259z " />
<glyph unicode="S" horiz-adv-x="585" d="M61 492v65q0 53 14.5 89.5t42.5 55.5t62 27.5t79 8.5q46 0 133 -9t126 -16v-74q-42 3 -138.5 6.5t-110.5 3.5q-29 1 -47 -1t-35.5 -11t-25.5 -29.5t-8 -53.5v-58q0 -57 22.5 -73.5t73.5 -16.5h134q161 0 161 -178v-63q0 -43 -12 -75t-30.5 -50.5t-46 -29.5t-54 -14.5 t-59.5 -3.5q-51 0 -134 8.5t-125 17.5v74q110 -11 251 -11q17 0 29 1t30 5.5t30 12.5t20.5 24.5t8.5 39.5v60q0 43 -17 66.5t-61 23.5h-132q-47 0 -82 11.5t-53.5 28t-29.5 42t-13.5 47t-2.5 49.5z" />
<glyph unicode="T" horiz-adv-x="582" d="M41 643v89h517v-89h-215v-643h-92v643h-210z" />
<glyph unicode="U" horiz-adv-x="673" d="M75 320v412h92v-412q0 -35 1.5 -63.5t6.5 -50.5t9.5 -39.5t13.5 -30t16.5 -21.5t21 -15t23.5 -9t27.5 -4.5t29.5 -2t33 -0.5q24 0 40.5 1t36.5 6.5t33 14.5t27 26.5t21.5 42t12.5 61.5t5 84v412h93v-412q0 -67 -9.5 -119.5t-22.5 -86.5t-37 -57.5t-43 -35.5t-51.5 -18 t-52 -7t-53.5 -1h-10q-38 0 -57 1t-52.5 7t-51 17.5t-40.5 35t-34.5 57.5t-20 86.5t-8.5 120.5z" />
<glyph unicode="V" horiz-adv-x="674" d="M42 732h99l201 -596l210 596h99l-261 -732h-98z" />
<glyph unicode="W" horiz-adv-x="970" d="M42 732h99l200 -587l167 587h102l-63 -222l128 -370l173 592h99l-221 -732h-98l-127 354l-111 -354h-98z" />
<glyph unicode="X" horiz-adv-x="608" d="M42 732h101l169 -291l172 291h101l-217 -362l212 -370h-101l-167 291l-166 -291h-101l211 370z" />
<glyph unicode="Y" horiz-adv-x="637" d="M42 732h100l177 -375l195 375h100l-250 -481v-251h-92v251z" />
<glyph unicode="Z" horiz-adv-x="561" d="M33 0v89l379 554h-379v89h496v-89l-375 -554h375v-89h-496z" />
<glyph unicode="[" horiz-adv-x="324" d="M79 -30v696q0 19 2.5 37.5t8 39t16 38t26 31.5t39.5 22t53 8h82v-86h-73q-14 0 -25.5 -6.5t-19.5 -18.5t-12.5 -30t-4.5 -40v-690q0 -45 17 -70t45 -25h73v-86h-82q-36 0 -63.5 12.5t-42.5 31t-24 44.5t-12 47t-3 45z" />
<glyph unicode="\" horiz-adv-x="415" d="M19 770h97l281 -842h-97z" />
<glyph unicode="]" horiz-adv-x="324" d="M19 -124h72q29 0 45.5 25t16.5 70v690q0 45 -16.5 70t-45.5 25h-72v86h81q30 0 54 -8t39 -22t26 -31.5t16.5 -38t7.5 -39t2 -37.5v-696q0 -24 -2.5 -45t-11.5 -47t-24 -44.5t-42.5 -31t-64.5 -12.5h-81v86z" />
<glyph unicode="^" horiz-adv-x="389" d="M47 531l114 131h80l102 -131h-77l-67 68l-74 -68h-78zM241 662z" />
<glyph unicode="_" horiz-adv-x="674" d="M20 -1v86h634v-86h-634z" />
<glyph unicode="`" horiz-adv-x="242" d="M19 666h102l103 -135h-75z" />
<glyph unicode="a" horiz-adv-x="519" d="M37 129v58q0 61 36.5 98.5t102.5 37.5q204 -1 204 0q1 57 0 58q0 18 -3.5 31t-10 22t-16.5 14.5t-21.5 7.5t-27.5 2q-82 0 -247 -11v62q98 31 255 32q48 0 83.5 -15t57.5 -51.5t22 -92.5v-382h-70l-22 62q-3 -3 -33 -18.5t-81.5 -32.5t-90.5 -17q-61 1 -99.5 37.5 t-38.5 97.5zM129 138q0 -60 57 -60q33 0 81.5 12.5t80.5 24.5l32 12v130l-196 -14q-55 -5 -55 -62v-43z" />
<glyph unicode="b" horiz-adv-x="554" d="M56 0v785h90v-285q43 18 97 28.5t91 10.5q31 0 56.5 -8t43.5 -21.5t31.5 -34t21.5 -43t13 -52t6.5 -57t1.5 -60.5q0 -269 -174 -269q-45 0 -103 22t-84 42l-21 -58h-70zM147 123q95 -43 177 -43q92 0 92 184q0 58 -6 96t-18.5 58.5t-28.5 28.5t-39 8q-90 0 -177 -24v-308 z" />
<glyph unicode="c" horiz-adv-x="498" d="M47 266q0 67 8.5 115.5t23 78t37.5 47t48 23.5t58 6q27 0 66 -3t85 -9.5t81 -15.5v-62q-127 6 -216 6q-22 0 -34.5 -2.5t-26.5 -12.5t-21.5 -30t-12 -56t-4.5 -89q0 -74 10 -113.5t30.5 -54t58.5 -14.5q41 0 97 2.5t91 4.5l35 3v-65q-37 -13 -81 -19.5t-75 -8t-83 -2.5 q-32 0 -56.5 6t-48 23.5t-38 47t-23.5 78.5t-9 116z" />
<glyph unicode="d" horiz-adv-x="554" d="M47 263q0 48 3.5 85t14.5 74.5t30 61.5t51 39.5t75 15.5q24 0 55 -4.5t67 -13.5t65 -21v285h91v-785h-70l-21 58q-26 -20 -84 -42t-103 -22q-174 0 -174 269zM139 264q0 -184 92 -184q82 0 177 43v308q-87 24 -177 24q-31 0 -50 -14.5t-30.5 -57.5t-11.5 -119z" />
<glyph unicode="e" horiz-adv-x="525" d="M47 268q0 59 5 101.5t18 72t30 48t45.5 28.5t58.5 13.5t75 3.5q32 0 53.5 -1t45.5 -5.5t39 -12.5t30 -22t23 -34t13 -48.5t5 -66.5q0 -125 -140 -125h-209q0 -85 22 -113t82 -28q165 0 235 11v-67q-92 -28 -256 -28q-101 0 -138 59t-37 214zM139 301h199q58 0 58 46 q0 38 -4 57t-17.5 30.5t-33.5 14.5t-59 3q-24 0 -36 -0.5t-29.5 -2.5t-25.5 -5.5t-19 -11t-15.5 -18.5t-9.5 -26.5t-6.5 -37t-1.5 -49.5z" />
<glyph unicode="f" horiz-adv-x="401" d="M19 448v66l93 17v99q0 14 1 25.5t3 26t6 26.5t10.5 24t17 21.5t23.5 17t31 11.5t40 4q66 0 138 -24v-58l-115 1q-18 0 -30.5 -4.5t-19 -10t-9.5 -18.5t-3.5 -22.5t-0.5 -28.5v-90h140v-83h-140v-448h-92v448h-93z" />
<glyph unicode="g" horiz-adv-x="555" d="M45 112q0 29 15 54t44 32q-20 13 -34 38.5t-19 52t-5 55.5q0 94 46 141.5t130 47.5h315v-63l-75 -18q1 -2 7 -13t8 -16.5t6 -18.5t5.5 -28.5t1.5 -35.5q0 -23 -3.5 -45.5t-14.5 -49.5t-29 -47.5t-49.5 -34.5t-72.5 -14h-147q-41 0 -41 -28q0 -32 41 -32h199q65 0 101 -38 t36 -105v-62q0 -22 -3.5 -41t-13.5 -40.5t-26.5 -37t-45 -25.5t-66.5 -10h-150q-48 0 -83.5 16.5t-56.5 51.5t-21 86v80l41 61q-40 27 -40 87zM136 -111q0 -24 7 -40t20 -23t25 -9.5t28 -2.5h131q40 0 55.5 19.5t15.5 54.5v53q0 34 -13 48.5t-51 14.5h-174q-12 0 -23 1.5 t-16 3.5l-5 2v-122zM138 344q0 -21 3.5 -38.5t12.5 -34.5t26.5 -27.5t42.5 -10.5h86q26 0 45 10.5t28 27.5t13 35.5t3 37.5q-2 54 -21 79t-69 25h-80q-90 0 -90 -104z" />
<glyph unicode="h" d="M56 0v784h92v-314q3 2 16.5 10.5t17 10.5t16 9.5t18 9.5t17.5 7.5t19 8t18.5 6t21 5t21.5 2.5t24 1q78 0 120 -50.5t42 -123.5v-366h-92v366q0 45 -22 67.5t-59 22.5q-51 0 -85 -12t-93 -42v-402h-92z" />
<glyph unicode="i" horiz-adv-x="205" d="M47 615v63q0 26 24 26h65q11 0 17 -7.5t6 -18.5v-63q0 -23 -23 -23h-65q-11 0 -17.5 6.5t-6.5 16.5zM55 0v531h92v-531h-92z" />
<glyph unicode="j" horiz-adv-x="224" d="M56 615v63q0 26 24 26h65q11 0 17 -7.5t6 -18.5v-63q0 -23 -23 -23h-65q-11 0 -17.5 6.5t-6.5 16.5zM66 -270v801h92v-535q2 -178 -29 -266h-63z" />
<glyph unicode="k" horiz-adv-x="515" d="M56 0v782h92v-437h37l189 186h123l-226 -227l226 -304h-112l-200 262h-37v-262h-92z" />
<glyph unicode="l" horiz-adv-x="303" d="M56 189v594h92v-588q0 -59 13.5 -82t40.5 -30q76 -21 83 -21v-62h-95q-134 0 -134 189z" />
<glyph unicode="m" horiz-adv-x="891" d="M56 0v531h69l23 -62q6 3 17 10l16.5 10.5t16 9.5t17 9t16.5 8t18 7.5t18 5.5t19.5 4.5t21 2.5t23.5 1q32 0 61 -8.5t50.5 -26t32.5 -40.5q94 75 208 75q73 0 117.5 -48.5t44.5 -126.5v-362h-92v363q0 27 -10.5 48t-28.5 31.5t-42 10.5q-55 0 -95 -11.5t-83 -40.5v-19v-18 v-364h-92v363q0 41 -23 65.5t-59 24.5q-34 0 -63 -7t-48.5 -15.5t-60.5 -30.5v-400h-92z" />
<glyph unicode="n" d="M56 0v531h69l23 -61q3 2 16.5 10.5t17.5 10.5t16.5 9.5t17.5 9.5t17 8t19 8t18.5 5.5t21 5t21.5 2.5t24 1q78 0 120 -50.5t42 -123.5v-366h-92v366q0 23 -6 40.5t-17 28t-25.5 16t-32.5 5.5q-51 0 -85 -12t-93 -42v-402h-92z" />
<glyph unicode="o" horiz-adv-x="565" d="M47 258q0 109 23 169t73 84.5t140 24.5q135 0 185.5 -60t50.5 -218q0 -149 -50.5 -206t-185.5 -57q-133 0 -184.5 59t-51.5 204zM139 258q0 -41 3.5 -71t12.5 -49.5t19.5 -31t29 -17.5t35.5 -7.5t44 -1.5q34 0 54 2.5t39.5 12t29 29t15.5 52.5t6 82q0 45 -3 76.5t-11 53 t-17.5 34t-27.5 19.5t-36.5 9t-48.5 2q-29 0 -47 -2t-36.5 -8.5t-28 -19t-18 -34.5t-11.5 -53.5t-3 -76.5z" />
<glyph unicode="p" horiz-adv-x="554" d="M56 -270v801h70l21 -57q15 11 45 25.5t70.5 26t71.5 11.5q41 0 72 -15.5t50 -40.5t31 -61t16.5 -72.5t4.5 -79.5q0 -47 -3.5 -83.5t-14.5 -74t-30 -62.5t-51 -40.5t-75 -15.5q-37 0 -91 10.5t-97 27.5v-300h-90zM147 100q86 -24 177 -24q31 0 50 14.5t30.5 57.5t11.5 118 q0 185 -92 185q-83 0 -177 -43v-308z" />
<glyph unicode="q" horiz-adv-x="555" d="M47 268q0 131 47 200t140 69q86 0 265 -25v-782h-92v299q-41 -19 -89 -29t-84 -10q-45 0 -78.5 13.5t-54 37t-33 59.5t-17 76t-4.5 92zM139 269v-7v-38.5t2 -37t5.5 -36.5t11 -29.5t18 -25t27 -15t38.5 -6.5q34 0 57 2t47.5 7t61.5 15v356h-166q-24 0 -42 -9t-29 -25.5 t-17.5 -34t-9.5 -41.5t-3.5 -39t-0.5 -36z" />
<glyph unicode="r" horiz-adv-x="423" d="M56 0v531h70l22 -67l9 6q34 22 54 33t54 22.5t69 11.5q53 0 70 -8v-90q-26 5 -75 5q-53 0 -90.5 -12.5t-90.5 -45.5v-386h-92z" />
<glyph unicode="s" horiz-adv-x="506" d="M37 355v46q0 65 32 100t106 35q34 0 87 -2.5t105 -7t75 -9.5v-66h-255q-38 0 -48 -12t-10 -40v-40q0 -18 4 -29t13 -15.5t17.5 -5.5t23.5 -1h149q44 0 74.5 -17.5t44.5 -46.5t14 -68v-50q0 -131 -130 -131q-51 0 -152 7.5t-128 14.5v64h268q50 0 50 48v42q0 17 -4 27.5 t-15.5 16.5t-30.5 6h-149q-73 0 -107 29.5t-34 104.5z" />
<glyph unicode="t" horiz-adv-x="379" d="M19 449v62l95 21l20 148h72v-148h145v-83h-145v-253q0 -59 13.5 -82t40.5 -30q76 -21 83 -21v-62h-97q-132 0 -132 189v259h-95z" />
<glyph unicode="u" d="M47 166v365h92v-366q0 -45 22 -67t59 -22q51 0 85 11.5t93 42.5v401h92v-531h-69l-23 60q-6 -3 -24 -14t-25.5 -14.5t-23.5 -12t-26.5 -12t-26 -8.5t-31 -6.5t-32.5 -1.5q-79 0 -120.5 50.5t-41.5 124.5z" />
<glyph unicode="v" horiz-adv-x="543" d="M19 531h99l153 -407l155 407h99l-207 -531h-97z" />
<glyph unicode="w" horiz-adv-x="807" d="M19 531h99l144 -407l126 407h96l-49 -163l108 -244l147 407h99l-194 -531h-97l-107 242l-80 -242h-101z" />
<glyph unicode="x" horiz-adv-x="537" d="M22 0l190 266l-190 265h113l132 -192l135 192h113l-192 -268l184 -263h-105l-133 190l-133 -190h-114z" />
<glyph unicode="y" horiz-adv-x="560" d="M20 531h99l118 -403q3 -9 7 -15.5t8 -11t8.5 -7.5t9 -4.5t9 -2t8.5 -0.5t6.5 0.5t4.5 1l2 0.5l140 442h100l-221 -699l-74 -102h-61l89 270q-96 0 -130 117z" />
<glyph unicode="z" horiz-adv-x="460" d="M28 445v86h405v-86l-269 -358h269v-86h-390v86l275 358h-290z" />
<glyph unicode="{" horiz-adv-x="320" d="M19 295v77q2 0 6 1l18 1.5t17 2.5t17.5 5.5t13.5 9t10 14t3 19.5v231q0 52 20 92.5t66 67t112 26.5v-86q-51 0 -78.5 -24.5t-27.5 -87.5v-221q0 -37 -24 -59.5t-64 -29.5q39 -6 63 -29.5t24 -56.5v-276q0 -48 28.5 -74t78.5 -24v-84q-55 0 -95.5 14.5t-62 40t-31.5 54.5 t-10 63v280q0 28 -25.5 41.5t-58.5 11.5z" />
<glyph unicode="|" horiz-adv-x="245" d="M80 -72v842h86v-842h-86z" />
<glyph unicode="}" horiz-adv-x="320" d="M19 -126q50 -2 78 24t28 74v276q0 22 11.5 40t31 30t44.5 16q-40 7 -64 29.5t-24 59.5v221q0 33 -7.5 55.5t-22.5 34.5t-33 17t-42 5v86q97 0 147 -53t50 -133v-231q0 -16 7 -26.5t21 -15.5t24 -7t27 -3q4 -1 7 -1v-77q-21 1 -40 -3.5t-32 -17.5t-13 -32v-280 q0 -34 -10 -63t-31.5 -54.5t-61.5 -40t-95 -14.5v84z" />
<glyph unicode="~" horiz-adv-x="432" d="M47 576q6 5 21 19t22 20t20 14.5t26 12t29 3.5q22 0 54 -17.5t52 -17.5q9 0 19 2t16 4t16.5 7.5t14 7.5t14.5 10t13 9l22 -47q-3 -3 -10 -10.5t-11.5 -12t-12 -11.5t-13.5 -12t-14.5 -10t-16.5 -8.5t-17.5 -5.5t-18.5 -2q-23 0 -57.5 17.5t-52.5 17.5t-32 -4.5 t-32.5 -15.5t-28.5 -15z" />
<glyph unicode="&#xa1;" horiz-adv-x="270" d="M79 376v62q0 21 24 23h59q6 -1 11.5 -4t9 -9t3.5 -13v-58q-2 -27 -23 -27h-60q-24 0 -24 26zM82 -270l8 532h86l9 -532h-103z" />
<glyph unicode="&#xa2;" horiz-adv-x="489" d="M37 266q0 69 9 118.5t24.5 79.5t40 47t51.5 22.5t64 4.5v96h67v-101q84 -9 152 -25v-62q-128 7 -216 7q-22 0 -34.5 -2.5t-26.5 -13t-21.5 -30.5t-12.5 -56t-5 -89q0 -74 10.5 -114t31 -55t58.5 -15q41 0 96.5 2.5t90.5 5.5l36 2v-64q-69 -24 -159 -28v-92h-68v89 q-30 0 -52.5 3.5t-45 14t-38 30t-28 49t-18.5 74t-6 102.5z" />
<glyph unicode="&#xa3;" horiz-adv-x="592" d="M47 0v72l70 17v236h-70v53l70 18v103q0 46 6 81t16 59.5t27.5 42t35 27t44.5 15t50 7t57 1.5q25 0 73.5 -4t83.5 -8l36 -4v-72h-193q-22 0 -34.5 -0.5t-28.5 -1.5t-24.5 -4t-18.5 -7.5t-15 -12t-10.5 -18t-7.5 -25t-3.5 -32t-1.5 -41.5v-106l258 -16v-54h-258v-237h336 v-89h-498z" />
<glyph unicode="&#xa4;" horiz-adv-x="455" d="M48 446l42 39l42 -42q41 29 92 29q53 0 96 -32l48 47l38 -42l-47 -48q23 -38 23 -83q0 -53 -28 -95l52 -51l-44 -41l-50 50q-40 -29 -88 -29t-88 28l-47 -47l-40 44l46 45q-29 42 -29 96q0 48 26 87zM127 312q0 -41 28 -71t68.5 -30t69 30t28.5 71t-28.5 69t-68.5 28 q-26 0 -48.5 -13t-35.5 -35.5t-13 -48.5z" />
<glyph unicode="&#xa5;" horiz-adv-x="609" d="M19 732h100l177 -336l192 336h103l-239 -406h161v-66h-172v-46h172v-65h-172v-149h-92v149h-163v65h163v46h-163v66h153z" />
<glyph unicode="&#xa6;" horiz-adv-x="246" d="M80 -72v328h86v-328h-86zM80 429v341h86v-341h-86z" />
<glyph unicode="&#xa7;" horiz-adv-x="549" d="M52 348v55q0 41 10 65.5t39 33.5q-50 17 -50 88v64q0 35 11 61t30 41t42 21.5t50 6.5q41 0 141.5 -7t134.5 -12v-67h-265q-17 0 -27.5 -4t-17 -14t-7.5 -28v-60q0 -44 52 -44h164q80 0 110 -32t29 -95v-54q0 -86 -47 -95q46 -7 46 -86v-68q0 -33 -8.5 -56.5t-21.5 -36.5 t-32.5 -21t-36.5 -10t-39 -2q-42 0 -140 7t-131 12v67h259q28 0 42.5 8t15.5 33v63q0 27 -11.5 35.5t-41.5 8.5h-165q-68 0 -101.5 25.5t-33.5 96.5zM143 357q0 -30 12 -38.5t41 -8.5h154q20 0 31.5 3t16.5 11t6 14t1 20v55q0 15 -1 22.5t-6.5 15t-17 10.5t-30.5 3h-154 q-32 0 -42.5 -10t-10.5 -43v-54z" />
<glyph unicode="&#xa8;" horiz-adv-x="453" d="M47 582q0 22 15.5 37t37.5 15t37 -15t15 -37t-15 -37.5t-37 -15.5t-37.5 15.5t-15.5 37.5zM302 582q0 22 15.5 37t37.5 15t37 -15t15 -37t-15 -37.5t-37 -15.5t-37.5 15.5t-15.5 37.5z" />
<glyph unicode="&#xa9;" horiz-adv-x="808" d="M51 368q0 364 235 364h259q41 0 74 -13.5t54.5 -34.5t37.5 -52.5t24.5 -62t13.5 -69.5t6.5 -68t1.5 -64q0 -78 -12 -143.5t-37 -116.5t-66.5 -79.5t-96.5 -28.5h-259q-53 0 -95.5 24.5t-67.5 62.5t-42 88.5t-23.5 97.5t-6.5 95zM123 368q0 -56 9.5 -108t28.5 -95 t51.5 -69t73.5 -26h258q63 1 102 76t39 222q0 36 -1 64t-5.5 65t-14 63.5t-24.5 51t-39 37.5t-56 13h-259q-24 0 -43.5 -5.5t-38.5 -18t-33 -34.5t-25.5 -54t-17 -78t-5.5 -104zM229 365q0 114 38.5 166t105.5 52q65 0 179 -24v-58q-84 12 -173 12q-41 0 -60 -36.5 t-19 -114.5q0 -46 6 -76t24.5 -49.5t49.5 -19.5q73 0 178 16v-58q-89 -28 -184 -28q-32 0 -56.5 9.5t-45.5 32.5t-32 67.5t-11 108.5z" />
<glyph unicode="&#xaa;" horiz-adv-x="364" d="M28 266v62h309v-62h-309zM28 464v43q0 41 27 66t76 25q129 -1 129 0q1 27 0 28q0 26 -14.5 37t-43.5 11q-34 0 -90.5 -3.5t-71.5 -4.5v49q8 1 37.5 7.5t43 8.5t39.5 5t52 3q55 1 89 -25t34 -81v-255h-51l-23 48q-4 -4 -22 -15t-50.5 -24t-58.5 -13q-44 0 -73 25t-29 65z M101 478q0 -37 41 -37q25 0 54.5 7.5t46.5 15.5l17 7v79l-119 -9q-40 -4 -40 -39v-24z" />
<glyph unicode="&#xab;" horiz-adv-x="557" d="M47 354l206 203l58 -58l-148 -145l153 -149l-58 -59zM242 354l206 203l59 -58l-149 -145l153 -149l-58 -59z" />
<glyph unicode="&#xac;" horiz-adv-x="518" d="M46 252v84h426v-177h-84v93h-342z" />
<glyph unicode="&#xad;" horiz-adv-x="354" d="M20 247v86h314v-86h-314z" />
<glyph unicode="&#xae;" horiz-adv-x="808" d="M51 368q0 364 235 364h259q41 0 74 -13.5t54.5 -34.5t37.5 -52.5t24.5 -62t13.5 -69.5t6.5 -68t1.5 -64q0 -78 -12 -143.5t-37 -116.5t-66.5 -79.5t-96.5 -28.5h-259q-53 0 -95.5 24.5t-67.5 62.5t-42 88.5t-23.5 97.5t-6.5 95zM123 368q0 -56 9.5 -108t28.5 -95 t51.5 -69t73.5 -26h258q63 1 102 76t39 222q0 36 -1 64t-5.5 65t-14 63.5t-24.5 51t-39 37.5t-56 13h-259q-24 0 -43.5 -5.5t-38.5 -18t-33 -34.5t-25.5 -54t-17 -78t-5.5 -104zM257 153v427h179q134 0 134 -130q0 -31 -6.5 -54.5t-15 -36t-23 -22t-23 -12t-23.5 -5.5 l90 -167h-80l-89 167l-71 12v-179h-72zM329 382h107q39 0 50.5 13t11.5 55q0 20 -5 33.5t-15.5 18.5t-19 6.5t-22.5 1.5h-107v-128z" />
<glyph unicode="&#xaf;" horiz-adv-x="385" d="M47 531v67h292v-67h-292z" />
<glyph unicode="&#xb0;" horiz-adv-x="296" d="M47 632q0 28 13.5 51.5t37 37.5t51 14t51 -14t37 -37.5t13.5 -51.5t-13.5 -51.5t-37 -37t-51 -13.5t-51 13.5t-37 37t-13.5 51.5zM97 632q0 -14 7 -26t19 -18.5t26 -6.5q21 0 36 15t15 36q0 14 -7 26t-18.5 19t-25.5 7q-22 0 -37 -15.5t-15 -36.5z" />
<glyph unicode="&#xb1;" horiz-adv-x="519" d="M52 82v86h416v-86h-416zM52 386v86h164v164h86v-164h166v-86h-166v-166h-86v166h-164z" />
<glyph unicode="&#xb2;" horiz-adv-x="390" d="M30 810v56q118 16 187 16q134 0 134 -138q0 -34 -17 -72t-36 -65t-52.5 -60.5t-47 -44.5t-37.5 -31h190v-73h-318v69q7 5 33 24.5t43.5 33.5t45 37t46 43t37 43t27.5 46t9 44q0 39 -17 55.5t-59 16.5h-168z" />
<glyph unicode="&#xb3;" horiz-adv-x="406" d="M28 806v53q27 9 64.5 13.5t58.5 4.5h77q61 0 92 -33.5t31 -84.5v-34q0 -23 -7 -41.5t-18 -30t-26 -17.5q51 -28 51 -95v-27q0 -58 -29.5 -89t-98.5 -31h-21.5h-22h-19.5t-20 0.5t-18.5 1t-19.5 1.5l-17.5 2.5t-18 3.5t-16.5 4.5t-18 5.5l1 53l172 1q27 0 42.5 5t22 17 t6.5 33v20q0 60 -67 62l-137 5v58l137 7q68 3 68 58v19q0 55 -68 55h-181z" />
<glyph unicode="&#xb4;" horiz-adv-x="242" d="M19 531l102 135h103l-130 -135h-75z" />
<glyph unicode="&#xb5;" horiz-adv-x="592" d="M84 166v365h92v-366q0 -45 22.5 -67t59.5 -22q50 0 84.5 11.5t92.5 42.5v401h92v-531h-68l-24 60q-4 -2 -20 -11.5t-21.5 -12.5t-19.5 -10.5t-21.5 -10.5t-21 -8t-23.5 -7t-23.5 -4t-26.5 -3q-47 -1 -82 20v-283h-92v436z" />
<glyph unicode="&#xb6;" horiz-adv-x="579" d="M37 499v93q0 67 46 103.5t110 36.5h368v-84h-64v-648h-82v650h-86v-920h-82v642l-8.5 -5t-20 -8.5t-25.5 -3.5q-75 0 -115.5 41t-40.5 103zM119 504q0 -21 7.5 -35.5t20 -21t24 -9t24.5 -2.5h52v214h-52q-42 0 -59 -19t-17 -46v-81z" />
<glyph unicode="&#xb7;" horiz-adv-x="269" d="M79 350v66q0 25 24 25h62q25 0 25 -25v-66q0 -23 -25 -23h-62q-7 0 -12 3t-8.5 8t-3.5 12z" />
<glyph unicode="&#xb8;" horiz-adv-x="249" d="M47 -131l50 15q20 8 26 27t6 52h74q0 -78 -21.5 -107.5t-82.5 -29.5h-52v43z" />
<glyph unicode="&#xb9;" horiz-adv-x="270" d="M15 767v54l121 55h74v-478h-74v401z" />
<glyph unicode="&#xba;" horiz-adv-x="391" d="M28 550q0 107 36 147t132 40t131.5 -40t35.5 -147q0 -98 -35.5 -137.5t-131 -39.5t-132 40t-36.5 137zM40 269v61h311v-61h-311zM103 550q0 -38 5.5 -60.5t20 -32.5t28 -12.5t39.5 -2.5q17 0 25.5 0.5t20 2.5t17 6t12.5 12t10 19.5t5 28t3 39.5q0 24 -2 42.5t-5 31 t-9.5 21t-12.5 13t-17.5 7t-20.5 3t-26 0.5q-19 0 -29 -1t-23 -4t-19 -10.5t-12 -20.5t-8 -33t-2 -49z" />
<glyph unicode="&#xbb;" horiz-adv-x="557" d="M47 205l152 149l-148 145l59 58l206 -203l-211 -208zM242 205l153 149l-149 145l59 58l206 -203l-211 -208z" />
<glyph unicode="&#xbc;" horiz-adv-x="910" d="M15 625v53l121 56h74v-478h-74v401zM208 0l366 738h74l-365 -738h-75zM498 143l199 333h83l-170 -288h150v116l27 49h48v-165h56v-60l-56 -15v-114h-75v114h-239z" />
<glyph unicode="&#xbd;" horiz-adv-x="978" d="M15 625v53l121 56h74v-478h-74v401zM202 0l366 738h75l-366 -738h-75zM618 411q-1 0 -1 14.5v28.5t1 14q119 16 188 16q134 0 134 -139q0 -24 -9 -51t-20.5 -48.5t-32.5 -47t-35 -41t-38 -37t-31 -27.5t-24 -21h190v-72h-319v68q4 4 39 30.5t54 41.5t51.5 45t50.5 52.5 t32.5 51t14.5 53.5q0 37 -17 53t-59 16h-169z" />
<glyph unicode="&#xbe;" horiz-adv-x="1026" d="M28 663v53q27 10 65 14t58.5 4.5t77.5 0.5q61 0 92 -34t31 -84v-34q0 -34 -14.5 -57.5t-36.5 -31.5q51 -28 51 -96v-26q0 -58 -29.5 -89t-98.5 -31h-24h-24.5h-21.5t-22.5 0.5t-19.5 1.5t-21.5 2.5t-19 3t-20.5 4.5t-19 6l1 53l173 1q40 0 55.5 12t15.5 43v20 q0 61 -67 63l-138 5v57l138 7q68 3 68 58v20q0 54 -68 54h-182zM308 0l365 738h75l-365 -738h-75zM585 144l198 332h79l-169 -290h157v119l24 49h48v-168h56v-58l-56 -14v-114h-72v114h-243z" />
<glyph unicode="&#xbf;" horiz-adv-x="543" d="M37 17q-1 89 65 132t172 29v7.5t0.5 18t0.5 23v23v18t-1 8.5h87l1 -171q-90 2 -135 0q-36 -1 -60 -28t-27 -66q-1 -71 -1 -88q0 -43 29.5 -73t89.5 -29l266 1l-0.5 -7t-0.5 -17v-20.5v-17.5t0 -6q-7 -1 -32 -5t-31.5 -4.5t-28 -3.5t-30 -4t-27.5 -2.5t-31.5 -2t-30.5 -1 t-35 -0.5t-36 1q-48 0 -85 11.5t-59 30t-36 44.5t-19 51.5t-5 53.5v94zM264 385v61q0 10 7 17t17 8h58q24 -1 24 -23v-63q-1 -24 -21 -25h-65q-19 4 -20 25z" />
<glyph unicode="&#xc0;" horiz-adv-x="676" d="M186 932h103l102 -135h-75zM42 0l263 732h97l252 -732h-105l-60 193h-277l-63 -193h-107zM241 280h220l-108 320z" />
<glyph unicode="&#xc1;" horiz-adv-x="676" d="M316 797l103 135h102l-130 -135h-75zM42 0l263 732h97l252 -732h-105l-60 193h-277l-63 -193h-107zM241 280h220l-108 320z" />
<glyph unicode="&#xc2;" horiz-adv-x="676" d="M205 797l115 131h80l102 -131h-77l-68 68l-74 -68h-78zM42 0l263 732h97l252 -732h-105l-60 193h-277l-63 -193h-107zM241 280h220l-108 320z" />
<glyph unicode="&#xc3;" horiz-adv-x="676" d="M184 842q18 16 29 25t27.5 19.5t31.5 15.5t31 5q26 -1 60 -17.5t46 -17.5q27 -1 92 37l22 -47q-2 -2 -15.5 -13.5t-18.5 -15.5t-17.5 -13t-21 -12.5t-20 -7t-21.5 -2.5q-29 1 -60.5 17.5t-48.5 16.5q-19 0 -33 -5t-32 -15t-29 -15zM42 0l263 732h97l252 -732h-105 l-60 193h-277l-63 -193h-107zM241 280h220l-108 320z" />
<glyph unicode="&#xc4;" horiz-adv-x="676" d="M173 850q0 22 16 37t38 15t37 -15t15 -37t-15.5 -37.5t-37 -15.5t-37.5 15.5t-16 37.5zM428 850q0 22 16 37t38 15t37 -15t15 -37t-15.5 -37.5t-37 -15.5t-37.5 15.5t-16 37.5zM42 0l263 732h97l252 -732h-105l-60 193h-277l-63 -193h-107zM241 280h220l-108 320z" />
<glyph unicode="&#xc5;" horiz-adv-x="676" d="M252 832q0 43 30 73t72 30t71.5 -30t29.5 -73q0 -28 -13.5 -51.5t-36.5 -37t-50.5 -13.5t-51 13.5t-37.5 37t-14 51.5zM302 832q0 -21 15.5 -36t36.5 -15t36 15t15 36q0 14 -7 26t-18.5 19t-25.5 7q-21 0 -36.5 -15.5t-15.5 -36.5zM42 0l263 732h97l252 -732h-105 l-60 193h-277l-63 -193h-107zM241 280h220l-108 320z" />
<glyph unicode="&#xc6;" horiz-adv-x="930" d="M28 0l294 596q21 43 45 71t47.5 41t50 19t52 5t53.5 0q300 -14 318 -16v-75h-309q-17 0 -28 -3.5t-15 -13.5t-5 -16t-2 -20v-183l317 -10v-74l-317 -10v-174q0 -9 1 -15.5t3.5 -11.5l4.5 -9t7 -6t7.5 -3.5t9.5 -2t9 -0.5h10h10l296 -1v-76l-305 -17q-145 -8 -145 126v97 h-201l-107 -218h-101zM279 305h158v321z" />
<glyph unicode="&#xc7;" horiz-adv-x="576" d="M190 -130l50 15q19 8 25.5 27t6.5 52h74q0 -78 -22 -108t-82 -30h-52v44zM51 368q0 74 6.5 129t23 102.5t44 77.5t70.5 46.5t102 16.5q33 0 76.5 -3.5t89 -10t81.5 -13.5v-73l-5.5 0.5t-14.5 1t-21.5 1.5t-27.5 1.5t-31.5 1.5t-34.5 2t-35.5 1.5l-35 1t-32.5 0.5 q-47 0 -76 -11t-49.5 -42.5t-29 -87t-8.5 -144.5q0 -36 2.5 -67t8 -60.5t13.5 -53t21 -43t29.5 -32.5t39 -20t49.5 -7q47 0 106 2t96 3l36 2v-72q-50 -11 -122.5 -17.5t-124.5 -6.5q-68 0 -116.5 27t-76 78.5t-40.5 117t-13 151.5z" />
<glyph unicode="&#xc8;" horiz-adv-x="567" d="M173 927h102l103 -134h-75zM74 129v467q0 74 39 106t96 30q300 -14 318 -16v-74h-309q-19 0 -30 -4t-15.5 -14t-5.5 -17t-1 -21v-176l319 -10v-75l-319 -10v-176q0 -19 5 -30.5t16 -16t18.5 -5t22.5 -0.5h299v-73l-308 -17q-145 -8 -145 132z" />
<glyph unicode="&#xc9;" horiz-adv-x="567" d="M284 793l102 134h103l-130 -134h-75zM74 129v467q0 74 39 106t96 30q300 -14 318 -16v-74h-309q-19 0 -30 -4t-15.5 -14t-5.5 -17t-1 -21v-176l319 -10v-75l-319 -10v-176q0 -19 5 -30.5t16 -16t18.5 -5t22.5 -0.5h299v-73l-308 -17q-145 -8 -145 132z" />
<glyph unicode="&#xca;" horiz-adv-x="567" d="M168 797l115 131h80l102 -131h-77l-68 68l-74 -68h-78zM74 129v467q0 74 39 106t96 30q300 -14 318 -16v-74h-309q-19 0 -30 -4t-15.5 -14t-5.5 -17t-1 -21v-176l319 -10v-75l-319 -10v-176q0 -19 5 -30.5t16 -16t18.5 -5t22.5 -0.5h299v-73l-308 -17q-145 -8 -145 132z " />
<glyph unicode="&#xcb;" horiz-adv-x="567" d="M136 846q0 22 15.5 37t37.5 15t37 -15t15 -37t-15 -37.5t-37 -15.5t-37.5 15.5t-15.5 37.5zM391 846q0 22 15.5 37t37.5 15t37 -15t15 -37t-15 -37.5t-37 -15.5t-37.5 15.5t-15.5 37.5zM74 129v467q0 74 39 106t96 30q300 -14 318 -16v-74h-309q-19 0 -30 -4t-15.5 -14 t-5.5 -17t-1 -21v-176l319 -10v-75l-319 -10v-176q0 -19 5 -30.5t16 -16t18.5 -5t22.5 -0.5h299v-73l-308 -17q-145 -8 -145 132z" />
<glyph unicode="&#xcc;" horiz-adv-x="222" d="M-47 932h103l102 -135h-75zM75 0v732h92v-732h-92z" />
<glyph unicode="&#xcd;" horiz-adv-x="222" d="M83 797l103 135h102l-130 -135h-75zM75 0v732h92v-732h-92z" />
<glyph unicode="&#xce;" horiz-adv-x="222" d="M-28 797l115 131h80l102 -131h-77l-68 68l-74 -68h-78zM75 0v732h92v-732h-92z" />
<glyph unicode="&#xcf;" horiz-adv-x="222" d="M-60 850q0 22 16 37t38 15t37 -15t15 -37t-15 -37.5t-37 -15.5t-38 15.5t-16 37.5zM196 850q0 22 15.5 37t37.5 15t37 -15t15 -37t-15 -37.5t-37 -15.5t-37.5 15.5t-15.5 37.5zM75 0v732h92v-732h-92z" />
<glyph unicode="&#xd0;" horiz-adv-x="658" d="M10 344v58h65v329q0 1 283 1q46 0 84 -12.5t64 -33t46 -50t32 -61.5t19.5 -70t10 -71.5t2.5 -70.5q0 -56 -8.5 -107t-28 -98t-48.5 -82t-73.5 -55.5t-99.5 -20.5h-283v344h-65zM167 90h188q58 0 96.5 38t54 97t15.5 139q0 276 -166 276l-188 -1v-237h131v-58h-131v-254z " />
<glyph unicode="&#xd1;" horiz-adv-x="679" d="M179 842q18 16 29.5 25t27.5 19.5t31.5 15.5t30.5 5q27 -1 60.5 -17.5t46.5 -17.5q27 -1 91 37l23 -47q-4 -3 -12 -10t-13 -11.5t-13.5 -10.5t-14.5 -10.5t-14.5 -9t-15.5 -7t-15.5 -4t-16.5 -1.5q-28 1 -59.5 17.5t-48.5 16.5q-15 0 -28 -3.5t-21.5 -8t-21.5 -12 t-24 -11.5zM75 0v732h94l363 -561v561h92v-732h-92l-364 560v-560h-93z" />
<glyph unicode="&#xd2;" horiz-adv-x="674" d="M180 932h103l102 -135h-75zM61 361q0 72 7.5 128.5t19.5 96t33 67.5t43 44t54 25t60.5 12t69.5 3t70.5 -3t61 -12t53 -25t42 -44t32.5 -67.5t19 -96t7 -128.5q0 -80 -8.5 -139t-26 -99t-40 -65.5t-57 -39t-69.5 -18t-84 -4.5q-43 0 -73 2.5t-62.5 11.5t-54 25t-41.5 42.5 t-31.5 65t-18 93t-6.5 125.5zM153 361q0 -41 2 -73t5.5 -59t10 -47t14.5 -35.5t20 -26t25.5 -17.5t32.5 -11t38.5 -5.5t46.5 -1.5q46 0 76 6.5t54 23t37 48t19.5 79.5t6.5 119q0 42 -2 76t-6.5 61t-9 48t-13.5 36.5t-17 26.5t-22 18.5t-24.5 11.5t-29 6t-32.5 2.5t-37 0.5 q-47 0 -70.5 -3t-52 -17.5t-41.5 -44t-22 -84.5t-9 -138z" />
<glyph unicode="&#xd3;" horiz-adv-x="674" d="M310 797l103 135h102l-130 -135h-75zM61 361q0 72 7.5 128.5t19.5 96t33 67.5t43 44t54 25t60.5 12t69.5 3t70.5 -3t61 -12t53 -25t42 -44t32.5 -67.5t19 -96t7 -128.5q0 -80 -8.5 -139t-26 -99t-40 -65.5t-57 -39t-69.5 -18t-84 -4.5q-43 0 -73 2.5t-62.5 11.5t-54 25 t-41.5 42.5t-31.5 65t-18 93t-6.5 125.5zM153 361q0 -41 2 -73t5.5 -59t10 -47t14.5 -35.5t20 -26t25.5 -17.5t32.5 -11t38.5 -5.5t46.5 -1.5q46 0 76 6.5t54 23t37 48t19.5 79.5t6.5 119q0 42 -2 76t-6.5 61t-9 48t-13.5 36.5t-17 26.5t-22 18.5t-24.5 11.5t-29 6 t-32.5 2.5t-37 0.5q-47 0 -70.5 -3t-52 -17.5t-41.5 -44t-22 -84.5t-9 -138z" />
<glyph unicode="&#xd4;" horiz-adv-x="674" d="M199 797l115 131h80l102 -131h-77l-68 68l-74 -68h-78zM61 361q0 72 7.5 128.5t19.5 96t33 67.5t43 44t54 25t60.5 12t69.5 3t70.5 -3t61 -12t53 -25t42 -44t32.5 -67.5t19 -96t7 -128.5q0 -80 -8.5 -139t-26 -99t-40 -65.5t-57 -39t-69.5 -18t-84 -4.5q-43 0 -73 2.5 t-62.5 11.5t-54 25t-41.5 42.5t-31.5 65t-18 93t-6.5 125.5zM153 361q0 -41 2 -73t5.5 -59t10 -47t14.5 -35.5t20 -26t25.5 -17.5t32.5 -11t38.5 -5.5t46.5 -1.5q46 0 76 6.5t54 23t37 48t19.5 79.5t6.5 119q0 42 -2 76t-6.5 61t-9 48t-13.5 36.5t-17 26.5t-22 18.5 t-24.5 11.5t-29 6t-32.5 2.5t-37 0.5q-47 0 -70.5 -3t-52 -17.5t-41.5 -44t-22 -84.5t-9 -138z" />
<glyph unicode="&#xd5;" horiz-adv-x="674" d="M178 842q18 16 29 25t27.5 19.5t31.5 15.5t31 5q26 -1 60 -17.5t47 -17.5q26 -1 91 37l22 -47q-2 -2 -15.5 -13.5t-18.5 -15.5t-17.5 -13t-21 -12.5t-20 -7t-21.5 -2.5q-29 1 -60.5 17.5t-48.5 16.5q-12 0 -22.5 -2t-19 -6t-16 -8t-17.5 -9.5t-19 -9.5zM61 361 q0 72 7.5 128.5t19.5 96t33 67.5t43 44t54 25t60.5 12t69.5 3t70.5 -3t61 -12t53 -25t42 -44t32.5 -67.5t19 -96t7 -128.5q0 -80 -8.5 -139t-26 -99t-40 -65.5t-57 -39t-69.5 -18t-84 -4.5q-43 0 -73 2.5t-62.5 11.5t-54 25t-41.5 42.5t-31.5 65t-18 93t-6.5 125.5zM153 361 q0 -41 2 -73t5.5 -59t10 -47t14.5 -35.5t20 -26t25.5 -17.5t32.5 -11t38.5 -5.5t46.5 -1.5q46 0 76 6.5t54 23t37 48t19.5 79.5t6.5 119q0 42 -2 76t-6.5 61t-9 48t-13.5 36.5t-17 26.5t-22 18.5t-24.5 11.5t-29 6t-32.5 2.5t-37 0.5q-47 0 -70.5 -3t-52 -17.5t-41.5 -44 t-22 -84.5t-9 -138z" />
<glyph unicode="&#xd6;" horiz-adv-x="674" d="M167 850q0 22 16 37t38 15t37 -15t15 -37t-15.5 -37.5t-37 -15.5t-37.5 15.5t-16 37.5zM422 850q0 22 16 37t38 15t37 -15t15 -37t-15.5 -37.5t-37 -15.5t-37.5 15.5t-16 37.5zM61 361q0 72 7.5 128.5t19.5 96t33 67.5t43 44t54 25t60.5 12t69.5 3t70.5 -3t61 -12t53 -25 t42 -44t32.5 -67.5t19 -96t7 -128.5q0 -80 -8.5 -139t-26 -99t-40 -65.5t-57 -39t-69.5 -18t-84 -4.5q-43 0 -73 2.5t-62.5 11.5t-54 25t-41.5 42.5t-31.5 65t-18 93t-6.5 125.5zM153 361q0 -41 2 -73t5.5 -59t10 -47t14.5 -35.5t20 -26t25.5 -17.5t32.5 -11t38.5 -5.5 t46.5 -1.5q46 0 76 6.5t54 23t37 48t19.5 79.5t6.5 119q0 42 -2 76t-6.5 61t-9 48t-13.5 36.5t-17 26.5t-22 18.5t-24.5 11.5t-29 6t-32.5 2.5t-37 0.5q-47 0 -70.5 -3t-52 -17.5t-41.5 -44t-22 -84.5t-9 -138z" />
<glyph unicode="&#xd7;" horiz-adv-x="459" d="M52 239l117 116l-117 117l61 61l117 -117l117 117l61 -60l-118 -118l117 -116l-61 -61l-116 116l-116 -115z" />
<glyph unicode="&#xd8;" horiz-adv-x="676" d="M62 361q0 72 7.5 128.5t19.5 96t32.5 67.5t42 44t53.5 25t61 12t70 3q62 0 105 -7.5t76 -29.5l21 32h65l-46 -70q65 -84 65 -301q0 -60 -4.5 -108.5t-15 -85t-23.5 -64t-32.5 -46t-40.5 -31t-49.5 -19t-56 -9t-64.5 -2.5q-65 0 -110 8t-78 31l-23 -35h-65l48 74 q-58 81 -58 287zM154 361q0 -141 27 -196l297 459q-15 11 -37 16.5t-40.5 6.5t-52.5 1q-23 0 -36.5 -0.5t-32 -2.5t-29 -6t-25 -11t-22 -18t-17 -26.5t-14.5 -36.5t-9.5 -48t-6.5 -61.5t-2 -76.5zM213 115q38 -30 135 -30q47 0 77 6.5t54 23t37 48t19.5 79.5t6.5 119 q0 155 -30 216z" />
<glyph unicode="&#xd9;" horiz-adv-x="673" d="M179 932h102l103 -135h-75zM75 320v412h92v-412q0 -35 1.5 -63.5t6.5 -50.5t9.5 -39.5t13.5 -30t16.5 -21.5t21 -15t23.5 -9t27.5 -4.5t29.5 -2t33 -0.5q24 0 40.5 1t36.5 6.5t33 14.5t27 26.5t21.5 42t12.5 61.5t5 84v412h93v-412q0 -67 -9.5 -119.5t-22.5 -86.5 t-37 -57.5t-43 -35.5t-51.5 -18t-52 -7t-53.5 -1h-10q-38 0 -57 1t-52.5 7t-51 17.5t-40.5 35t-34.5 57.5t-20 86.5t-8.5 120.5z" />
<glyph unicode="&#xda;" horiz-adv-x="673" d="M309 797l102 135h103l-130 -135h-75zM75 320v412h92v-412q0 -35 1.5 -63.5t6.5 -50.5t9.5 -39.5t13.5 -30t16.5 -21.5t21 -15t23.5 -9t27.5 -4.5t29.5 -2t33 -0.5q24 0 40.5 1t36.5 6.5t33 14.5t27 26.5t21.5 42t12.5 61.5t5 84v412h93v-412q0 -67 -9.5 -119.5 t-22.5 -86.5t-37 -57.5t-43 -35.5t-51.5 -18t-52 -7t-53.5 -1h-10q-38 0 -57 1t-52.5 7t-51 17.5t-40.5 35t-34.5 57.5t-20 86.5t-8.5 120.5z" />
<glyph unicode="&#xdb;" horiz-adv-x="673" d="M198 797l114 131h80l102 -131h-76l-68 68l-74 -68h-78zM75 320v412h92v-412q0 -35 1.5 -63.5t6.5 -50.5t9.5 -39.5t13.5 -30t16.5 -21.5t21 -15t23.5 -9t27.5 -4.5t29.5 -2t33 -0.5q24 0 40.5 1t36.5 6.5t33 14.5t27 26.5t21.5 42t12.5 61.5t5 84v412h93v-412 q0 -67 -9.5 -119.5t-22.5 -86.5t-37 -57.5t-43 -35.5t-51.5 -18t-52 -7t-53.5 -1h-10q-38 0 -57 1t-52.5 7t-51 17.5t-40.5 35t-34.5 57.5t-20 86.5t-8.5 120.5z" />
<glyph unicode="&#xdc;" horiz-adv-x="673" d="M166 850q0 22 15.5 37t37.5 15t37.5 -15t15.5 -37t-15.5 -37.5t-37.5 -15.5t-37.5 15.5t-15.5 37.5zM421 850q0 22 15.5 37t37.5 15t37 -15t15 -37t-15 -37.5t-37 -15.5t-37.5 15.5t-15.5 37.5zM75 320v412h92v-412q0 -35 1.5 -63.5t6.5 -50.5t9.5 -39.5t13.5 -30 t16.5 -21.5t21 -15t23.5 -9t27.5 -4.5t29.5 -2t33 -0.5q24 0 40.5 1t36.5 6.5t33 14.5t27 26.5t21.5 42t12.5 61.5t5 84v412h93v-412q0 -67 -9.5 -119.5t-22.5 -86.5t-37 -57.5t-43 -35.5t-51.5 -18t-52 -7t-53.5 -1h-10q-38 0 -57 1t-52.5 7t-51 17.5t-40.5 35t-34.5 57.5 t-20 86.5t-8.5 120.5z" />
<glyph unicode="&#xdd;" horiz-adv-x="637" d="M290 797l103 135h103l-130 -135h-76zM42 732h100l177 -375l195 375h100l-250 -481v-251h-92v251z" />
<glyph unicode="&#xde;" horiz-adv-x="554" d="M56 0v729h92v-141h184q176 -2 176 -213q0 -59 -12 -102t-29 -66t-42 -36.5t-46 -17.5t-47 -4q-6 0 -23.5 -0.5t-23 0t-21.5 1t-29.5 3t-36 6t-50.5 9.5v-168h-92zM148 236h172q21 0 36.5 5t29.5 19t21.5 43t7.5 73q-1 34 -8 58.5t-16 37t-23.5 19t-24 8t-23.5 1.5h-172 v-264z" />
<glyph unicode="&#xdf;" horiz-adv-x="570" d="M56 0v566q0 91 60.5 151.5t167.5 60.5q70 0 120.5 -18t75 -47.5t33.5 -65.5t1.5 -72.5t-26 -69t-45.5 -53.5q-10 -9 -28 -24.5t-25.5 -22t-17 -17t-12.5 -20t-3 -20.5q0 -17 20 -27.5t48.5 -18.5t57.5 -20t49 -38t20 -66v-43q0 -40 -15 -69.5t-40 -44.5t-51.5 -22 t-54.5 -7q-30 0 -60.5 3.5t-65 9t-40.5 6.5v71q12 -1 68.5 -3t91.5 -2q29 0 51.5 17t23.5 46v41q0 15 -10.5 25t-28 16t-38 11.5t-41 13.5t-38 19.5t-28 32.5t-10.5 49q0 47 21.5 76.5t90.5 82.5q48 37 48 95q0 88 -141 88q-62 0 -99.5 -33t-37.5 -105v-552h-92z" />
<glyph unicode="&#xe0;" horiz-adv-x="519" d="M99 736h103l102 -135h-75zM37 129v58q0 61 36.5 98.5t102.5 37.5q204 -1 204 0q1 57 0 58q0 18 -3.5 31t-10 22t-16.5 14.5t-21.5 7.5t-27.5 2q-82 0 -247 -11v63q98 30 255 31q48 0 83.5 -15t57.5 -51.5t22 -92.5v-382h-70l-22 62q-3 -3 -33 -18.5t-81.5 -32.5 t-90.5 -17q-61 1 -99.5 37.5t-38.5 97.5zM129 138q0 -60 57 -60q33 0 81.5 12.5t80.5 24.5l32 12v130l-196 -14q-55 -5 -55 -62v-43z" />
<glyph unicode="&#xe1;" horiz-adv-x="519" d="M225 601l102 135h103l-130 -135h-75zM37 129v58q0 61 36.5 98.5t102.5 37.5q204 -1 204 0q1 57 0 58q0 18 -3.5 31t-10 22t-16.5 14.5t-21.5 7.5t-27.5 2q-82 0 -247 -11v63q98 30 255 31q48 0 83.5 -15t57.5 -51.5t22 -92.5v-382h-70l-22 62q-3 -3 -33 -18.5 t-81.5 -32.5t-90.5 -17q-61 1 -99.5 37.5t-38.5 97.5zM129 138q0 -60 57 -60q33 0 81.5 12.5t80.5 24.5l32 12v130l-196 -14q-55 -5 -55 -62v-43z" />
<glyph unicode="&#xe2;" horiz-adv-x="519" d="M116 601l114 131h80l102 -131h-77l-68 68l-73 -68h-78zM37 129v58q0 61 36.5 98.5t102.5 37.5q204 -1 204 0q1 57 0 58q0 18 -3.5 31t-10 22t-16.5 14.5t-21.5 7.5t-27.5 2q-82 0 -247 -11v63q98 30 255 31q48 0 83.5 -15t57.5 -51.5t22 -92.5v-382h-70l-22 62 q-3 -3 -33 -18.5t-81.5 -32.5t-90.5 -17q-61 1 -99.5 37.5t-38.5 97.5zM129 138q0 -60 57 -60q33 0 81.5 12.5t80.5 24.5l32 12v130l-196 -14q-55 -5 -55 -62v-43z" />
<glyph unicode="&#xe3;" horiz-adv-x="519" d="M90 646q17 16 28.5 25t27.5 19.5t31.5 15.5t30.5 5q27 -1 61 -17.5t46 -17.5q27 -1 92 37l22 -47q-2 -2 -15.5 -13.5t-19 -15.5t-18 -13t-20.5 -12.5t-19.5 -7t-21.5 -2.5q-23 1 -42.5 9.5t-35.5 16.5t-31 8q-19 0 -33 -5t-32.5 -15t-28.5 -15zM37 129v58q0 61 36.5 98.5 t102.5 37.5q204 -1 204 0q1 57 0 58q0 18 -3.5 31t-10 22t-16.5 14.5t-21.5 7.5t-27.5 2q-82 0 -247 -11v63q98 30 255 31q48 0 83.5 -15t57.5 -51.5t22 -92.5v-382h-70l-22 62q-3 -3 -33 -18.5t-81.5 -32.5t-90.5 -17q-61 1 -99.5 37.5t-38.5 97.5zM129 138q0 -60 57 -60 q33 0 81.5 12.5t80.5 24.5l32 12v130l-196 -14q-55 -5 -55 -62v-43z" />
<glyph unicode="&#xe4;" horiz-adv-x="519" d="M82 654q0 22 15.5 37.5t37.5 15.5t37.5 -15.5t15.5 -37.5t-15.5 -37.5t-37.5 -15.5t-37.5 15.5t-15.5 37.5zM337 654q0 22 15.5 37.5t37.5 15.5t37.5 -15.5t15.5 -37.5t-15.5 -37.5t-37.5 -15.5t-37.5 15.5t-15.5 37.5zM37 129v58q0 61 36.5 98.5t102.5 37.5 q204 -1 204 0q1 57 0 58q0 18 -3.5 31t-10 22t-16.5 14.5t-21.5 7.5t-27.5 2q-82 0 -247 -11v63q98 30 255 31q48 0 83.5 -15t57.5 -51.5t22 -92.5v-382h-70l-22 62q-3 -3 -33 -18.5t-81.5 -32.5t-90.5 -17q-61 1 -99.5 37.5t-38.5 97.5zM129 138q0 -60 57 -60 q33 0 81.5 12.5t80.5 24.5l32 12v130l-196 -14q-55 -5 -55 -62v-43z" />
<glyph unicode="&#xe5;" horiz-adv-x="519" d="M162 678q0 28 14 51.5t37.5 37t51 13.5t50.5 -13.5t36.5 -37t13.5 -52t-13.5 -51.5t-36.5 -36.5t-51 -13.5q-42 0 -72 29.5t-30 72.5zM212 677.5q0 -21.5 15.5 -36t36.5 -14.5t36 14.5t15 36t-15 36.5t-36 15t-36.5 -15t-15.5 -36.5zM37 129v58q0 61 36.5 98.5 t102.5 37.5q204 -1 204 0q1 57 0 58q0 18 -3.5 31t-10 22t-16.5 14.5t-21.5 7.5t-27.5 2q-82 0 -247 -11v63q98 30 255 31q48 0 83.5 -15t57.5 -51.5t22 -92.5v-382h-70l-22 62q-3 -3 -33 -18.5t-81.5 -32.5t-90.5 -17q-61 1 -99.5 37.5t-38.5 97.5zM129 138q0 -60 57 -60 q33 0 81.5 12.5t80.5 24.5l32 12v130l-196 -14q-55 -5 -55 -62v-43z" />
<glyph unicode="&#xe6;" horiz-adv-x="863" d="M37 134v38q0 30 9 55t26.5 43t44 28.5t59.5 10.5q204 -1 204 0q1 76 0 77q0 18 -3.5 31t-10 22t-16.5 14.5t-21.5 8t-27.5 2.5q-75 0 -247 -12v63q85 30 255 31q89 1 130 -54q19 20 46 30.5t57 14t75 3.5q37 0 61.5 -2t51 -8t42 -18.5t29 -33t19.5 -52t6 -74.5 q0 -123 -140 -123h-209q0 -86 22.5 -115.5t81.5 -29.5q166 0 235 11v-67q-91 -28 -256 -28q-58 0 -90 17t-62 53q-3 -4 -41 -21t-95.5 -33.5t-96.5 -16.5q-61 1 -99.5 38t-38.5 97zM129 142q0 -33 15 -45.5t42 -12.5q33 0 81.5 12t80.5 24l32 12v116l-196 -14 q-55 -5 -55 -62v-30zM477 308h199q58 0 58 46q0 37 -3.5 56.5t-17.5 30.5t-33.5 13.5t-59.5 2.5h-29.5t-25 -1t-22 -3t-18 -5.5t-16 -9t-11.5 -13.5t-10 -19t-6 -25.5t-4 -32.5t-1 -40z" />
<glyph unicode="&#xe7;" horiz-adv-x="498" d="M47 266q0 56 5.5 99.5t17 72.5t26.5 49t35.5 31t41.5 15.5t49 4.5q19 0 47.5 -2.5t59.5 -6t64.5 -9t60.5 -12.5v-62q-127 7 -216 7q-21 0 -34 -2.5t-27 -13t-21.5 -30.5t-12 -56t-4.5 -89q0 -74 10 -114t30.5 -55t58.5 -15q41 0 97 2.5t91 5.5l35 2v-64q-37 -13 -81 -20 t-75 -8.5t-83 -2.5q-32 0 -56.5 6.5t-48 24t-38 47.5t-23.5 79t-9 116zM170 -131l51 15q19 8 25 27t6 52h75q0 -78 -22 -108t-82 -30h-53v44z" />
<glyph unicode="&#xe8;" horiz-adv-x="525" d="M112 730h103l102 -134h-75zM47 268q0 59 5 101.5t18 72t30 48t45.5 28.5t58.5 13.5t75 3.5q32 0 53.5 -1t45.5 -5.5t39 -12.5t30 -22t23 -34t13 -48.5t5 -65.5q0 -126 -140 -126h-209q0 -85 22 -113t82 -28q165 0 235 11v-67q-92 -28 -256 -28q-101 0 -138 59t-37 214z M139 301h199q58 0 58 46q0 38 -4 57t-17.5 30.5t-33.5 14.5t-59 3q-21 0 -32.5 -0.5t-27 -1.5t-23.5 -4t-19 -8t-16 -13t-11 -19t-8.5 -26t-4 -34.5t-1.5 -44.5z" />
<glyph unicode="&#xe9;" horiz-adv-x="525" d="M234 596l102 134h103l-130 -134h-75zM47 268q0 59 5 101.5t18 72t30 48t45.5 28.5t58.5 13.5t75 3.5q32 0 53.5 -1t45.5 -5.5t39 -12.5t30 -22t23 -34t13 -48.5t5 -65.5q0 -126 -140 -126h-209q0 -85 22 -113t82 -28q165 0 235 11v-67q-92 -28 -256 -28q-101 0 -138 59 t-37 214zM139 301h199q58 0 58 46q0 38 -4 57t-17.5 30.5t-33.5 14.5t-59 3q-21 0 -32.5 -0.5t-27 -1.5t-23.5 -4t-19 -8t-16 -13t-11 -19t-8.5 -26t-4 -34.5t-1.5 -44.5z" />
<glyph unicode="&#xea;" horiz-adv-x="525" d="M124 596l114 132h80l102 -132h-77l-68 68l-73 -68h-78zM47 268q0 59 5 101.5t18 72t30 48t45.5 28.5t58.5 13.5t75 3.5q32 0 53.5 -1t45.5 -5.5t39 -12.5t30 -22t23 -34t13 -48.5t5 -65.5q0 -126 -140 -126h-209q0 -85 22 -113t82 -28q165 0 235 11v-67q-92 -28 -256 -28 q-101 0 -138 59t-37 214zM139 301h199q58 0 58 46q0 38 -4 57t-17.5 30.5t-33.5 14.5t-59 3q-21 0 -32.5 -0.5t-27 -1.5t-23.5 -4t-19 -8t-16 -13t-11 -19t-8.5 -26t-4 -34.5t-1.5 -44.5z" />
<glyph unicode="&#xeb;" horiz-adv-x="525" d="M89 649q0 22 15.5 37.5t37.5 15.5t37.5 -15.5t15.5 -37.5t-15.5 -37.5t-37.5 -15.5t-37.5 15.5t-15.5 37.5zM344 649q0 22 15.5 37.5t37.5 15.5t37.5 -15.5t15.5 -37.5t-15.5 -37.5t-37.5 -15.5t-37.5 15.5t-15.5 37.5zM47 268q0 59 5 101.5t18 72t30 48t45.5 28.5 t58.5 13.5t75 3.5q32 0 53.5 -1t45.5 -5.5t39 -12.5t30 -22t23 -34t13 -48.5t5 -65.5q0 -126 -140 -126h-209q0 -85 22 -113t82 -28q165 0 235 11v-67q-92 -28 -256 -28q-101 0 -138 59t-37 214zM139 301h199q58 0 58 46q0 38 -4 57t-17.5 30.5t-33.5 14.5t-59 3 q-21 0 -32.5 -0.5t-27 -1.5t-23.5 -4t-19 -8t-16 -13t-11 -19t-8.5 -26t-4 -34.5t-1.5 -44.5z" />
<glyph unicode="&#xec;" horiz-adv-x="204" d="M-65 730h102l103 -134h-75zM56 0v531h92v-531h-92z" />
<glyph unicode="&#xed;" horiz-adv-x="204" d="M65 596l102 134h103l-130 -134h-75zM56 0v531h92v-531h-92z" />
<glyph unicode="&#xee;" horiz-adv-x="204" d="M-46 596l114 132h80l102 -132h-77l-67 68l-74 -68h-78zM56 0v531h92v-531h-92z" />
<glyph unicode="&#xef;" horiz-adv-x="204" d="M-78 649q0 22 15.5 37.5t37.5 15.5t37 -15.5t15 -37.5t-15 -37.5t-37 -15.5t-37.5 15.5t-15.5 37.5zM177 649q0 11 4 20.5t11.5 16.5t17 11.5t20.5 4.5q22 0 37 -15.5t15 -37.5t-15 -37.5t-37 -15.5t-37.5 15.5t-15.5 37.5zM56 0v531h92v-531h-92z" />
<glyph unicode="&#xf0;" horiz-adv-x="538" d="M37 264q0 133 41.5 200t139.5 67h88q56 0 71 -13q-23 77 -69 122l-137 -57l-25 59l99 42q-51 24 -129 20v79q142 0 222 -59l111 46l26 -60l-84 -34q110 -134 110 -412q0 -141 -47.5 -202.5t-134.5 -61.5h-101q-100 0 -140.5 62.5t-40.5 201.5zM129 264q0 -48 5 -80.5 t12.5 -50.5t20.5 -27.5t25 -12t32 -2.5h89q56 0 76 41.5t20 131.5q0 106 -19 142t-77 36h-89q-20 0 -33.5 -4t-26 -15t-19.5 -31t-11.5 -51.5t-4.5 -76.5z" />
<glyph unicode="&#xf1;" d="M108 645q18 16 29 25t27.5 19.5t31.5 15.5t31 5q26 -1 60 -17.5t46 -17.5q27 -1 92 37l22 -47q-2 -2 -15.5 -13.5t-18.5 -15.5t-17.5 -13t-21 -12.5t-20 -7t-21.5 -2.5q-29 1 -60.5 17.5t-48.5 16.5q-19 0 -33 -5t-32 -15t-29 -15zM56 0v531h69l23 -61q4 3 13 8 q26 16 40 24t37.5 18.5t47.5 15t51 4.5q78 0 120 -50.5t42 -123.5v-366h-92v366q0 45 -22 67.5t-59 22.5q-51 0 -85 -12t-93 -42v-402h-92z" />
<glyph unicode="&#xf2;" horiz-adv-x="565" d="M124 730h102l103 -134h-75zM47 258q0 109 23 169t73 84.5t140 24.5q135 0 185.5 -60t50.5 -218q0 -149 -50.5 -206t-185.5 -57q-133 0 -184.5 59t-51.5 204zM139 258q0 -41 3.5 -71t12.5 -49.5t19.5 -31t29 -17.5t35.5 -7.5t44 -1.5q34 0 54 2.5t39.5 12t29 29t15.5 52.5 t6 82q0 45 -3 76.5t-11 53t-17.5 34t-27.5 19.5t-36.5 9t-48.5 2q-29 0 -47 -2t-36.5 -8.5t-28 -19t-18 -34.5t-11.5 -53.5t-3 -76.5z" />
<glyph unicode="&#xf3;" horiz-adv-x="565" d="M245 596l103 134h102l-130 -134h-75zM47 258q0 109 23 169t73 84.5t140 24.5q135 0 185.5 -60t50.5 -218q0 -149 -50.5 -206t-185.5 -57q-133 0 -184.5 59t-51.5 204zM139 258q0 -41 3.5 -71t12.5 -49.5t19.5 -31t29 -17.5t35.5 -7.5t44 -1.5q34 0 54 2.5t39.5 12t29 29 t15.5 52.5t6 82q0 45 -3 76.5t-11 53t-17.5 34t-27.5 19.5t-36.5 9t-48.5 2q-29 0 -47 -2t-36.5 -8.5t-28 -19t-18 -34.5t-11.5 -53.5t-3 -76.5z" />
<glyph unicode="&#xf4;" horiz-adv-x="565" d="M139 596l114 132h80l102 -132h-77l-67 68l-74 -68h-78zM47 258q0 109 23 169t73 84.5t140 24.5q135 0 185.5 -60t50.5 -218q0 -149 -50.5 -206t-185.5 -57q-133 0 -184.5 59t-51.5 204zM139 258q0 -41 3.5 -71t12.5 -49.5t19.5 -31t29 -17.5t35.5 -7.5t44 -1.5 q34 0 54 2.5t39.5 12t29 29t15.5 52.5t6 82q0 45 -3 76.5t-11 53t-17.5 34t-27.5 19.5t-36.5 9t-48.5 2q-29 0 -47 -2t-36.5 -8.5t-28 -19t-18 -34.5t-11.5 -53.5t-3 -76.5z" />
<glyph unicode="&#xf5;" horiz-adv-x="565" d="M121 641q24 21 39 32.5t37 22t43 10.5q21 -1 41 -9.5t36.5 -16.5t28.5 -9q27 -1 92 37l22 -47q-2 -2 -15.5 -13.5t-18.5 -15.5t-17.5 -13t-21 -12.5t-20 -7t-21.5 -2.5q-29 1 -60.5 17.5t-48.5 16.5q-19 0 -33 -5t-32 -15t-29 -15zM47 258q0 109 23 169t73 84.5t140 24.5 q135 0 185.5 -60t50.5 -218q0 -149 -50.5 -206t-185.5 -57q-133 0 -184.5 59t-51.5 204zM139 258q0 -41 3.5 -71t12.5 -49.5t19.5 -31t29 -17.5t35.5 -7.5t44 -1.5q34 0 54 2.5t39.5 12t29 29t15.5 52.5t6 82q0 45 -3 76.5t-11 53t-17.5 34t-27.5 19.5t-36.5 9t-48.5 2 q-29 0 -47 -2t-36.5 -8.5t-28 -19t-18 -34.5t-11.5 -53.5t-3 -76.5z" />
<glyph unicode="&#xf6;" horiz-adv-x="565" d="M104 649q0 22 15.5 37.5t37.5 15.5t37 -15.5t15 -37.5t-15 -37.5t-37 -15.5t-37.5 15.5t-15.5 37.5zM359 649q0 22 15.5 37.5t37.5 15.5t37 -15.5t15 -37.5t-15 -37.5t-37 -15.5t-37.5 15.5t-15.5 37.5zM47 258q0 109 23 169t73 84.5t140 24.5q135 0 185.5 -60t50.5 -218 q0 -149 -50.5 -206t-185.5 -57q-133 0 -184.5 59t-51.5 204zM139 258q0 -41 3.5 -71t12.5 -49.5t19.5 -31t29 -17.5t35.5 -7.5t44 -1.5q34 0 54 2.5t39.5 12t29 29t15.5 52.5t6 82q0 45 -3 76.5t-11 53t-17.5 34t-27.5 19.5t-36.5 9t-48.5 2q-29 0 -47 -2t-36.5 -8.5 t-28 -19t-18 -34.5t-11.5 -53.5t-3 -76.5z" />
<glyph unicode="&#xf7;" horiz-adv-x="511" d="M47 310v86h417v-86h-417zM205 168v58q0 24 24 24h56q24 0 24 -24v-58q0 -23 -24 -23h-56q-11 0 -17.5 6.5t-6.5 16.5zM205 474v57q0 25 24 25h56q24 0 24 -25v-57q0 -23 -24 -23h-56q-4 0 -8 1t-6.5 3t-5 4.5t-3.5 6.5t-1 8z" />
<glyph unicode="&#xf8;" horiz-adv-x="571" d="M50 258q0 109 23 169t73 84.5t140 24.5q94 0 144 -26l16 21h69l-42 -56q49 -59 49 -217q0 -149 -50.5 -206t-185.5 -57q-100 0 -153 32l-21 -27h-64l46 63q-44 57 -44 195zM142 258q0 -75 17 -112l216 292q-26 14 -89 14q-29 0 -47 -2t-36.5 -8.5t-28 -19t-18 -34.5 t-11.5 -53.5t-3 -76.5zM188 99q26 -19 98 -19q34 0 54 2.5t39.5 12t29 29t15.5 52.5t6 82q0 99 -20 137z" />
<glyph unicode="&#xf9;" d="M109 730h103l102 -134h-75zM47 166v365h92v-366q0 -45 22 -67t59 -22q51 0 85 11.5t93 42.5v401h92v-531h-69l-23 60q-6 -3 -24 -14t-25.5 -14.5t-23.5 -12t-26.5 -12t-26 -8.5t-31 -6.5t-32.5 -1.5q-79 0 -120.5 50.5t-41.5 124.5z" />
<glyph unicode="&#xfa;" d="M231 596l102 134h103l-130 -134h-75zM47 166v365h92v-366q0 -45 22 -67t59 -22q51 0 85 11.5t93 42.5v401h92v-531h-69l-23 60q-6 -3 -24 -14t-25.5 -14.5t-23.5 -12t-26.5 -12t-26 -8.5t-31 -6.5t-32.5 -1.5q-79 0 -120.5 50.5t-41.5 124.5z" />
<glyph unicode="&#xfb;" d="M120 596l114 132h80l102 -132h-77l-67 68l-74 -68h-78zM47 166v365h92v-366q0 -45 22 -67t59 -22q51 0 85 11.5t93 42.5v401h92v-531h-69l-23 60q-6 -3 -24 -14t-25.5 -14.5t-23.5 -12t-26.5 -12t-26 -8.5t-31 -6.5t-32.5 -1.5q-79 0 -120.5 50.5t-41.5 124.5z" />
<glyph unicode="&#xfc;" d="M88 649q0 22 15.5 37.5t37.5 15.5t37 -15.5t15 -37.5t-15 -37.5t-37 -15.5t-37.5 15.5t-15.5 37.5zM343 649q0 22 15.5 37.5t37.5 15.5t37 -15.5t15 -37.5t-15 -37.5t-37 -15.5t-37.5 15.5t-15.5 37.5zM47 166v365h92v-366q0 -45 22 -67t59 -22q51 0 85 11.5t93 42.5v401 h92v-531h-69l-23 60q-6 -3 -24 -14t-25.5 -14.5t-23.5 -12t-26.5 -12t-26 -8.5t-31 -6.5t-32.5 -1.5q-79 0 -120.5 50.5t-41.5 124.5z" />
<glyph unicode="&#xfd;" horiz-adv-x="560" d="M242 596l103 134h102l-130 -134h-75zM20 531h99l118 -403q3 -9 7 -15.5t8 -11t8.5 -7.5t9 -4.5t9 -2t8.5 -0.5t6.5 0.5t4.5 1l2 0.5l140 442h100l-221 -699l-74 -102h-61l89 270q-96 0 -130 117z" />
<glyph unicode="&#xfe;" horiz-adv-x="554" d="M65 -270v1052h92v-310q16 12 45.5 26.5t69.5 27t71 12.5q39 0 69 -14.5t49.5 -39.5t32.5 -60t18 -74t5 -84q0 -47 -3 -83t-14 -74t-29.5 -63t-51 -41t-76.5 -16q-38 0 -91 10.5t-95 28.5v-298h-92zM157 96q17 -5 35 -8.5t31 -6t31.5 -4t26.5 -2t27.5 -1.5t24.5 -1 q30 0 49 15t31 58.5t12 119.5q0 91 -24.5 138.5t-67.5 47.5q-78 -4 -176 -46v-310z" />
<glyph unicode="&#xff;" horiz-adv-x="560" d="M99 649q0 22 16 37.5t38 15.5t37 -15.5t15 -37.5t-15.5 -37.5t-37 -15.5t-37.5 15.5t-16 37.5zM354 649q0 22 16 37.5t38 15.5t37 -15.5t15 -37.5t-15.5 -37.5t-37 -15.5t-37.5 15.5t-16 37.5zM20 531h99l118 -403q3 -9 7 -15.5t8 -11t8.5 -7.5t9 -4.5t9 -2t8.5 -0.5 t6.5 0.5t4.5 1l2 0.5l140 442h100l-221 -699l-74 -102h-61l89 270q-96 0 -130 117z" />
<glyph unicode="&#x100;" horiz-adv-x="676" d="M208 797v67h292v-67h-292zM42 0l263 732h97l252 -732h-105l-60 193h-277l-63 -193h-107zM241 280h220l-108 320z" />
<glyph unicode="&#x101;" horiz-adv-x="519" d="M126 601v67h292v-67h-292zM37 129v58q0 61 36.5 98.5t102.5 37.5q204 -1 204 0q1 57 0 58q0 18 -3.5 31t-10 22t-16.5 14.5t-21.5 7.5t-27.5 2q-82 0 -247 -11v63q98 30 255 31q48 0 83.5 -15t57.5 -51.5t22 -92.5v-382h-70l-22 62q-3 -3 -33 -18.5t-81.5 -32.5 t-90.5 -17q-61 1 -99.5 37.5t-38.5 97.5zM129 138q0 -60 57 -60q33 0 81.5 12.5t80.5 24.5l32 12v130l-196 -14q-55 -5 -55 -62v-43z" />
<glyph unicode="&#x102;" horiz-adv-x="676" d="M239 911h50q0 -27 19 -45.5t45 -18.5q29 0 47.5 17.5t18.5 46.5h50q0 -53 -35 -83.5t-81 -30.5t-80 31.5t-34 82.5zM42 0l263 732h97l252 -732h-105l-60 193h-277l-63 -193h-107zM241 280h220l-108 320z" />
<glyph unicode="&#x103;" horiz-adv-x="519" d="M157 715h50q0 -27 19.5 -45.5t44.5 -18.5q29 0 47.5 17.5t18.5 46.5h50q0 -53 -34.5 -83.5t-81.5 -30.5q-45 0 -79.5 31.5t-34.5 82.5zM37 129v58q0 61 36.5 98.5t102.5 37.5q204 -1 204 0q1 57 0 58q0 18 -3.5 31t-10 22t-16.5 14.5t-21.5 7.5t-27.5 2q-82 0 -247 -11 v63q98 30 255 31q48 0 83.5 -15t57.5 -51.5t22 -92.5v-382h-70l-22 62q-3 -3 -33 -18.5t-81.5 -32.5t-90.5 -17q-61 1 -99.5 37.5t-38.5 97.5zM129 138q0 -60 57 -60q33 0 81.5 12.5t80.5 24.5l32 12v130l-196 -14q-55 -5 -55 -62v-43z" />
<glyph unicode="&#x104;" horiz-adv-x="676" d="M583 0h43q-59 -49 -55.5 -83t60.5 -35v-64q-33 -6 -62.5 5t-45.5 32t-19.5 46.5t17 52.5t62.5 46zM42 0l263 732h97l252 -732h-105l-60 193h-277l-63 -193h-107zM241 280h220l-108 320z" />
<glyph unicode="&#x105;" horiz-adv-x="519" d="M417 0h43q-59 -49 -55.5 -83t60.5 -35v-64q-33 -6 -62.5 4.5t-45.5 32t-19.5 47t17 52.5t62.5 46zM37 129v58q0 61 36.5 98.5t102.5 37.5q204 -1 204 0q1 57 0 58q0 18 -3.5 31t-10 22t-16.5 14.5t-21.5 7.5t-27.5 2q-82 0 -247 -11v63q98 30 255 31q48 0 83.5 -15 t57.5 -51.5t22 -92.5v-382h-70l-22 62q-3 -3 -33 -18.5t-81.5 -32.5t-90.5 -17q-61 1 -99.5 37.5t-38.5 97.5zM129 138q0 -60 57 -60q33 0 81.5 12.5t80.5 24.5l32 12v130l-196 -14q-55 -5 -55 -62v-43z" />
<glyph unicode="&#x106;" horiz-adv-x="576" d="M292 800l103 134h102l-130 -134h-75zM51 368q0 74 6.5 129t23 102.5t44 77.5t70.5 46.5t102 16.5q33 0 76.5 -3.5t89 -10t81.5 -13.5v-73l-5.5 0.5t-14.5 1t-21.5 1.5t-27.5 1.5t-31.5 1.5t-34.5 2t-35.5 1.5l-35 1t-32.5 0.5q-47 0 -76 -11t-49.5 -42.5t-29 -87 t-8.5 -144.5q0 -36 2.5 -67t8 -60.5t13.5 -53t21 -43t29.5 -32.5t39 -20t49.5 -7q47 0 106 2t96 3l36 2v-72q-50 -11 -122.5 -17.5t-124.5 -6.5q-68 0 -116.5 27t-76 78.5t-40.5 117t-13 151.5z" />
<glyph unicode="&#x107;" horiz-adv-x="498" d="M233 598l102 134h103l-130 -134h-75zM47 266q0 67 8.5 115.5t23 78t37.5 47t48 23.5t58 6q42 0 110.5 -7.5t121.5 -20.5v-62q-127 6 -216 6q-22 0 -34.5 -2.5t-26.5 -12.5t-21.5 -30t-12 -56t-4.5 -89q0 -74 10 -113.5t30.5 -54t58.5 -14.5q41 0 97 2.5t91 4.5l35 3v-65 q-54 -18 -107.5 -23.5t-131.5 -6.5q-32 0 -56.5 6t-48 23.5t-38 47t-23.5 78.5t-9 116z" />
<glyph unicode="&#x108;" horiz-adv-x="576" d="M181 800l115 132h80l102 -132h-77l-68 68l-74 -68h-78zM51 368q0 74 6.5 129t23 102.5t44 77.5t70.5 46.5t102 16.5q33 0 76.5 -3.5t89 -10t81.5 -13.5v-73l-5.5 0.5t-14.5 1t-21.5 1.5t-27.5 1.5t-31.5 1.5t-34.5 2t-35.5 1.5l-35 1t-32.5 0.5q-47 0 -76 -11 t-49.5 -42.5t-29 -87t-8.5 -144.5q0 -36 2.5 -67t8 -60.5t13.5 -53t21 -43t29.5 -32.5t39 -20t49.5 -7q47 0 106 2t96 3l36 2v-72q-50 -11 -122.5 -17.5t-124.5 -6.5q-68 0 -116.5 27t-76 78.5t-40.5 117t-13 151.5z" />
<glyph unicode="&#x109;" horiz-adv-x="498" d="M131 598l115 131h80l102 -131h-77l-68 68l-74 -68h-78zM47 266q0 67 8.5 115.5t23 78t37.5 47t48 23.5t58 6q42 0 110.5 -7.5t121.5 -20.5v-62q-127 6 -216 6q-22 0 -34.5 -2.5t-26.5 -12.5t-21.5 -30t-12 -56t-4.5 -89q0 -74 10 -113.5t30.5 -54t58.5 -14.5q41 0 97 2.5 t91 4.5l35 3v-65q-54 -18 -107.5 -23.5t-131.5 -6.5q-32 0 -56.5 6t-48 23.5t-38 47t-23.5 78.5t-9 116z" />
<glyph unicode="&#x10a;" horiz-adv-x="576" d="M285 825v60q0 25 24 25h56q11 0 17 -7t6 -18v-60q0 -23 -23 -23h-56q-11 0 -17.5 6t-6.5 17zM51 368q0 74 6.5 129t23 102.5t44 77.5t70.5 46.5t102 16.5q33 0 76.5 -3.5t89 -10t81.5 -13.5v-73l-5.5 0.5t-14.5 1t-21.5 1.5t-27.5 1.5t-31.5 1.5t-34.5 2t-35.5 1.5l-35 1 t-32.5 0.5q-47 0 -76 -11t-49.5 -42.5t-29 -87t-8.5 -144.5q0 -36 2.5 -67t8 -60.5t13.5 -53t21 -43t29.5 -32.5t39 -20t49.5 -7q47 0 106 2t96 3l36 2v-72q-50 -11 -122.5 -17.5t-124.5 -6.5q-68 0 -116.5 27t-76 78.5t-40.5 117t-13 151.5z" />
<glyph unicode="&#x10b;" horiz-adv-x="498" d="M239 622v60q0 25 24 25h56q11 0 17 -7t6 -18v-60q0 -23 -23 -23h-56q-10 0 -17 6.5t-7 16.5zM47 266q0 67 8.5 115.5t23 78t37.5 47t48 23.5t58 6q42 0 110.5 -7.5t121.5 -20.5v-62q-127 6 -216 6q-22 0 -34.5 -2.5t-26.5 -12.5t-21.5 -30t-12 -56t-4.5 -89 q0 -74 10 -113.5t30.5 -54t58.5 -14.5q41 0 97 2.5t91 4.5l35 3v-65q-54 -18 -107.5 -23.5t-131.5 -6.5q-32 0 -56.5 6t-48 23.5t-38 47t-23.5 78.5t-9 116z" />
<glyph unicode="&#x10c;" horiz-adv-x="576" d="M187 932h78l75 -68l66 68h77l-103 -132h-80zM51 368q0 74 6.5 129t23 102.5t44 77.5t70.5 46.5t102 16.5q33 0 76.5 -3.5t89 -10t81.5 -13.5v-73l-5.5 0.5t-14.5 1t-21.5 1.5t-27.5 1.5t-31.5 1.5t-34.5 2t-35.5 1.5l-35 1t-32.5 0.5q-47 0 -76 -11t-49.5 -42.5t-29 -87 t-8.5 -144.5q0 -36 2.5 -67t8 -60.5t13.5 -53t21 -43t29.5 -32.5t39 -20t49.5 -7q47 0 106 2t96 3l36 2v-72q-50 -11 -122.5 -17.5t-124.5 -6.5q-68 0 -116.5 27t-76 78.5t-40.5 117t-13 151.5z" />
<glyph unicode="&#x10d;" horiz-adv-x="498" d="M121 729h77l76 -68l66 68h77l-103 -131h-80zM47 266q0 67 8.5 115.5t23 78t37.5 47t48 23.5t58 6q42 0 110.5 -7.5t121.5 -20.5v-62q-127 6 -216 6q-22 0 -34.5 -2.5t-26.5 -12.5t-21.5 -30t-12 -56t-4.5 -89q0 -74 10 -113.5t30.5 -54t58.5 -14.5q41 0 97 2.5t91 4.5 l35 3v-65q-54 -18 -107.5 -23.5t-131.5 -6.5q-32 0 -56.5 6t-48 23.5t-38 47t-23.5 78.5t-9 116z" />
<glyph unicode="&#x10e;" horiz-adv-x="658" d="M170 924h78l75 -68l66 68h77l-103 -131h-80zM75 0v732h282q64 0 112 -24t75 -60t44 -87.5t22.5 -98t5.5 -99.5q0 -56 -8.5 -107t-28.5 -98t-49 -82t-73.5 -55.5t-99.5 -20.5h-282zM167 90h187q59 0 98 37.5t55.5 97.5t16.5 139q0 151 -43 215.5t-127 64.5h-187v-554z" />
<glyph unicode="&#x10f;" horiz-adv-x="568" d="M47 263q0 48 3.5 85t14.5 74.5t30 61.5t51 39.5t75 15.5q24 0 55 -4.5t67 -13.5t65 -21v285h91v-785h-70l-21 58q-26 -20 -84 -42t-103 -22q-174 0 -174 269zM139 264q0 -184 92 -184q82 0 177 43v308q-87 24 -177 24q-31 0 -50 -14.5t-30.5 -57.5t-11.5 -119zM547 780 h81v-67l-11 -134h-59l-10 134z" />
<glyph unicode="&#x110;" horiz-adv-x="658" d="M10 344v58h65v329q0 1 283 1q46 0 84 -12.5t64 -33t46 -50t32 -61.5t19.5 -70t10 -71.5t2.5 -70.5q0 -56 -8.5 -107t-28 -98t-48.5 -82t-73.5 -55.5t-99.5 -20.5h-283v344h-65zM167 90h188q58 0 96.5 38t54 97t15.5 139q0 276 -166 276l-188 -1v-237h131v-58h-131v-254z " />
<glyph unicode="&#x111;" horiz-adv-x="556" d="M46 263q0 48 3.5 85t14.5 74.5t30 61.5t51 39.5t75 15.5q24 0 55 -4.5t67 -13.5t65 -21v113h-118v57h118v115h91v-115h70v-57h-70v-613h-70l-21 58q-26 -20 -84 -42t-103 -22q-174 0 -174 269zM138 264q0 -184 92 -184q82 0 177 43v308q-87 24 -177 24q-31 0 -50 -14.5 t-30.5 -57.5t-11.5 -119z" />
<glyph unicode="&#x112;" horiz-adv-x="567" d="M171 795v68h292v-68h-292zM74 129v467q0 74 39 106t96 30q300 -14 318 -16v-74h-309q-19 0 -30 -4t-15.5 -14t-5.5 -17t-1 -21v-176l319 -10v-75l-319 -10v-176q0 -19 5 -30.5t16 -16t18.5 -5t22.5 -0.5h299v-73l-308 -17q-145 -8 -145 132z" />
<glyph unicode="&#x113;" horiz-adv-x="525" d="M128 595v68h292v-68h-292zM47 268q0 59 5 101.5t18 72t30 48t45.5 28.5t58.5 13.5t75 3.5q32 0 53.5 -1t45.5 -5.5t39 -12.5t30 -22t23 -34t13 -48.5t5 -65.5q0 -126 -140 -126h-209q0 -85 22 -113t82 -28q165 0 235 11v-67q-92 -28 -256 -28q-101 0 -138 59t-37 214z M139 301h199q58 0 58 46q0 38 -4 57t-17.5 30.5t-33.5 14.5t-59 3q-21 0 -32.5 -0.5t-27 -1.5t-23.5 -4t-19 -8t-16 -13t-11 -19t-8.5 -26t-4 -34.5t-1.5 -44.5z" />
<glyph unicode="&#x116;" horiz-adv-x="567" d="M270 817v60q0 25 24 25h56q11 0 17 -7t6 -18v-60q0 -23 -23 -23h-56q-10 0 -17 6.5t-7 16.5zM74 129v467q0 74 39 106t96 30q300 -14 318 -16v-74h-309q-19 0 -30 -4t-15.5 -14t-5.5 -17t-1 -21v-176l319 -10v-75l-319 -10v-176q0 -19 5 -30.5t16 -16t18.5 -5t22.5 -0.5 h299v-73l-308 -17q-145 -8 -145 132z" />
<glyph unicode="&#x117;" horiz-adv-x="525" d="M221 619v60q0 25 24 25h56q11 0 17 -7t6 -18v-60q0 -23 -23 -23h-56q-11 0 -17.5 6.5t-6.5 16.5zM47 268q0 59 5 101.5t18 72t30 48t45.5 28.5t58.5 13.5t75 3.5q32 0 53.5 -1t45.5 -5.5t39 -12.5t30 -22t23 -34t13 -48.5t5 -65.5q0 -126 -140 -126h-209q0 -85 22 -113 t82 -28q165 0 235 11v-67q-92 -28 -256 -28q-101 0 -138 59t-37 214zM139 301h199q58 0 58 46q0 38 -4 57t-17.5 30.5t-33.5 14.5t-59 3q-21 0 -32.5 -0.5t-27 -1.5t-23.5 -4t-19 -8t-16 -13t-11 -19t-8.5 -26t-4 -34.5t-1.5 -44.5z" />
<glyph unicode="&#x118;" horiz-adv-x="567" d="M483 14h44q-60 -49 -56.5 -83t60.5 -35v-65q-33 -5 -62.5 5.5t-45.5 32t-19.5 47t17 52.5t62.5 46zM74 129v467q0 74 39 106t96 30q300 -14 318 -16v-74h-309q-19 0 -30 -4t-15.5 -14t-5.5 -17t-1 -21v-176l319 -10v-75l-319 -10v-176q0 -19 5 -30.5t16 -16t18.5 -5 t22.5 -0.5h299v-73l-308 -17q-145 -8 -145 132z" />
<glyph unicode="&#x119;" horiz-adv-x="525" d="M434 23h44q-60 -49 -56 -83t60 -35v-65q-32 -5 -62 5.5t-46 32t-19.5 47t17 52.5t62.5 46zM47 268q0 59 5 101.5t18 72t30 48t45.5 28.5t58.5 13.5t75 3.5q32 0 53.5 -1t45.5 -5.5t39 -12.5t30 -22t23 -34t13 -48.5t5 -65.5q0 -126 -140 -126h-209q0 -85 22 -113t82 -28 q165 0 235 11v-67q-92 -28 -256 -28q-101 0 -138 59t-37 214zM139 301h199q58 0 58 46q0 38 -4 57t-17.5 30.5t-33.5 14.5t-59 3q-21 0 -32.5 -0.5t-27 -1.5t-23.5 -4t-19 -8t-16 -13t-11 -19t-8.5 -26t-4 -34.5t-1.5 -44.5z" />
<glyph unicode="&#x11a;" horiz-adv-x="567" d="M168 924h78l75 -68l66 68h77l-103 -131h-80zM74 129v467q0 74 39 106t96 30q300 -14 318 -16v-74h-309q-19 0 -30 -4t-15.5 -14t-5.5 -17t-1 -21v-176l319 -10v-75l-319 -10v-176q0 -19 5 -30.5t16 -16t18.5 -5t22.5 -0.5h299v-73l-308 -17q-145 -8 -145 132z" />
<glyph unicode="&#x11b;" horiz-adv-x="525" d="M128 723h77l76 -68l66 68h77l-103 -131h-80zM47 268q0 59 5 101.5t18 72t30 48t45.5 28.5t58.5 13.5t75 3.5q32 0 53.5 -1t45.5 -5.5t39 -12.5t30 -22t23 -34t13 -48.5t5 -65.5q0 -126 -140 -126h-209q0 -85 22 -113t82 -28q165 0 235 11v-67q-92 -28 -256 -28 q-101 0 -138 59t-37 214zM139 301h199q58 0 58 46q0 38 -4 57t-17.5 30.5t-33.5 14.5t-59 3q-21 0 -32.5 -0.5t-27 -1.5t-23.5 -4t-19 -8t-16 -13t-11 -19t-8.5 -26t-4 -34.5t-1.5 -44.5z" />
<glyph unicode="&#x11c;" horiz-adv-x="614" d="M187 800l115 132h80l102 -132h-77l-68 68l-74 -68h-78zM51 370q0 66 5.5 117t20.5 100.5t40.5 81.5t68.5 51.5t101 19.5q52 0 127 -8t134 -20v-73q-1 0 -18 1.5t-44 3.5t-58 4t-67 3t-65 1q-32 0 -55.5 -7t-40.5 -23t-28 -38t-17.5 -55.5t-9 -71t-2.5 -89.5 q0 -161 33 -222t121 -62q33 -1 76.5 10.5t70.5 23.5l27 12v181h-150v61q78 24 174 24q32 0 68 -2v-394h-68l-22 49q-36 -23 -80 -38t-104 -16t-103.5 18t-69 51t-40.5 83t-20 102t-5 121z" />
<glyph unicode="&#x11d;" horiz-adv-x="555" d="M128 597l114 131h80l102 -131h-77l-68 68l-73 -68h-78zM45 112q0 29 15 54t44 32q-30 19 -44 59.5t-14 86.5q0 94 46 141.5t130 47.5h315v-63l-75 -18q1 -2 7 -13t8 -16.5t6 -18.5t5.5 -28.5t1.5 -35.5q0 -23 -3.5 -45.5t-14.5 -49.5t-29 -47.5t-49.5 -34.5t-72.5 -14 h-147q-41 0 -41 -28q0 -32 41 -32h199q65 0 101 -38t36 -105v-62q0 -22 -3.5 -41t-13.5 -40.5t-26.5 -37t-45 -25.5t-66.5 -10h-150q-48 0 -83.5 16.5t-56.5 51.5t-21 86v80l41 61q-40 27 -40 87zM136 -111q0 -24 7 -40t20 -23t25 -9.5t28 -2.5h131q40 0 55.5 19.5 t15.5 54.5v53q0 34 -13 48.5t-51 14.5h-174q-12 0 -23 2t-16 3l-5 2v-122zM138 344q0 -21 3.5 -38.5t12.5 -34.5t26.5 -27t42.5 -10h86q26 0 45 10t28 27t13 35.5t3 37.5q-1 26 -5 44t-14 32.5t-27.5 21t-43.5 6.5h-80q-90 0 -90 -104z" />
<glyph unicode="&#x11e;" horiz-adv-x="614" d="M218 914h50q0 -27 19.5 -45.5t44.5 -18.5q30 0 48 17.5t18 46.5h50q0 -53 -34.5 -83.5t-81.5 -30.5q-45 0 -79.5 31.5t-34.5 82.5zM51 370q0 66 5.5 117t20.5 100.5t40.5 81.5t68.5 51.5t101 19.5q52 0 127 -8t134 -20v-73q-1 0 -18 1.5t-44 3.5t-58 4t-67 3t-65 1 q-32 0 -55.5 -7t-40.5 -23t-28 -38t-17.5 -55.5t-9 -71t-2.5 -89.5q0 -161 33 -222t121 -62q33 -1 76.5 10.5t70.5 23.5l27 12v181h-150v61q78 24 174 24q32 0 68 -2v-394h-68l-22 49q-36 -23 -80 -38t-104 -16t-103.5 18t-69 51t-40.5 83t-20 102t-5 121z" />
<glyph unicode="&#x11f;" horiz-adv-x="555" d="M160 711h50q0 -28 19.5 -46t44.5 -18q29 0 47.5 17t18.5 47h50q0 -36 -17 -62.5t-43 -39t-56 -12.5q-45 0 -79.5 31.5t-34.5 82.5zM45 112q0 29 15 54t44 32q-30 19 -44 59.5t-14 86.5q0 94 46 141.5t130 47.5h315v-63l-75 -18q1 -2 7 -13t8 -16.5t6 -18.5t5.5 -28.5 t1.5 -35.5q0 -23 -3.5 -45.5t-14.5 -49.5t-29 -47.5t-49.5 -34.5t-72.5 -14h-147q-41 0 -41 -28q0 -32 41 -32h199q65 0 101 -38t36 -105v-62q0 -22 -3.5 -41t-13.5 -40.5t-26.5 -37t-45 -25.5t-66.5 -10h-150q-48 0 -83.5 16.5t-56.5 51.5t-21 86v80l41 61q-40 27 -40 87z M136 -111q0 -24 7 -40t20 -23t25 -9.5t28 -2.5h131q40 0 55.5 19.5t15.5 54.5v53q0 34 -13 48.5t-51 14.5h-174q-12 0 -23 2t-16 3l-5 2v-122zM138 344q0 -21 3.5 -38.5t12.5 -34.5t26.5 -27t42.5 -10h86q26 0 45 10t28 27t13 35.5t3 37.5q-1 26 -5 44t-14 32.5t-27.5 21 t-43.5 6.5h-80q-90 0 -90 -104z" />
<glyph unicode="&#x120;" horiz-adv-x="614" d="M276 823v60q0 25 24 25h56q10 0 16.5 -7t6.5 -18v-60q0 -23 -23 -23h-56q-11 0 -17.5 6.5t-6.5 16.5zM51 370q0 66 5.5 117t20.5 100.5t40.5 81.5t68.5 51.5t101 19.5q52 0 127 -8t134 -20v-73q-1 0 -18 1.5t-44 3.5t-58 4t-67 3t-65 1q-32 0 -55.5 -7t-40.5 -23t-28 -38 t-17.5 -55.5t-9 -71t-2.5 -89.5q0 -161 33 -222t121 -62q33 -1 76.5 10.5t70.5 23.5l27 12v181h-150v61q78 24 174 24q32 0 68 -2v-394h-68l-22 49q-36 -23 -80 -38t-104 -16t-103.5 18t-69 51t-40.5 83t-20 102t-5 121z" />
<glyph unicode="&#x121;" horiz-adv-x="555" d="M227 622v60q0 25 24 25h56q11 0 17 -7.5t6 -17.5v-60q0 -23 -23 -23h-56q-11 0 -17.5 6t-6.5 17zM45 112q0 29 15 54t44 32q-30 19 -44 59.5t-14 86.5q0 94 46 141.5t130 47.5h315v-63l-75 -18q1 -2 7 -13t8 -16.5t6 -18.5t5.5 -28.5t1.5 -35.5q0 -23 -3.5 -45.5 t-14.5 -49.5t-29 -47.5t-49.5 -34.5t-72.5 -14h-147q-41 0 -41 -28q0 -32 41 -32h199q65 0 101 -38t36 -105v-62q0 -22 -3.5 -41t-13.5 -40.5t-26.5 -37t-45 -25.5t-66.5 -10h-150q-48 0 -83.5 16.5t-56.5 51.5t-21 86v80l41 61q-40 27 -40 87zM136 -111q0 -24 7 -40t20 -23 t25 -9.5t28 -2.5h131q40 0 55.5 19.5t15.5 54.5v53q0 34 -13 48.5t-51 14.5h-174q-12 0 -23 2t-16 3l-5 2v-122zM138 344q0 -21 3.5 -38.5t12.5 -34.5t26.5 -27t42.5 -10h86q26 0 45 10t28 27t13 35.5t3 37.5q-1 26 -5 44t-14 32.5t-27.5 21t-43.5 6.5h-80q-90 0 -90 -104z " />
<glyph unicode="&#x122;" horiz-adv-x="614" d="M270 -156v56q0 25 23 25h54q21 0 21 -25v-89q0 -25 -9.5 -41t-23.5 -21.5t-27.5 -7.5t-23.5 0l-9 1v33q9 0 15 2.5t8.5 7t3.5 8t1 9.5v19h-10q-23 0 -23 23zM51 370q0 66 5.5 117t20.5 100.5t40.5 81.5t68.5 51.5t101 19.5q52 0 127 -8t134 -20v-73q-1 0 -18 1.5t-44 3.5 t-58 4t-67 3t-65 1q-32 0 -55.5 -7t-40.5 -23t-28 -38t-17.5 -55.5t-9 -71t-2.5 -89.5q0 -161 33 -222t121 -62q33 -1 76.5 10.5t70.5 23.5l27 12v181h-150v61q78 24 174 24q32 0 68 -2v-394h-68l-22 49q-36 -23 -80 -38t-104 -16t-103.5 18t-69 51t-40.5 83t-20 102t-5 121 z" />
<glyph unicode="&#x123;" horiz-adv-x="555" d="M225 617v89q0 25 9.5 41.5t23 22t27.5 7.5t24 0l9 -1v-33q-12 0 -18.5 -5t-8 -10t-1.5 -12v-20h10q23 0 23 -22v-57q0 -24 -23 -24h-54q-21 0 -21 24zM45 111q0 30 15 55.5t44 31.5q-20 13 -34 38.5t-19 52t-5 55.5q0 94 46 141.5t130 47.5h315v-64l-75 -18q1 -1 7 -12 t8 -16.5t6 -18.5t5.5 -28.5t1.5 -36.5q0 -22 -3.5 -44.5t-14.5 -49.5t-29 -47.5t-49.5 -34.5t-72.5 -14h-147q-41 0 -41 -30q0 -17 10 -23t31 -9l187 -23q45 -6 78 -23t52 -48.5t19 -75.5v-33q0 -22 -3.5 -41t-13.5 -40.5t-26.5 -37t-45 -25.5t-66.5 -10h-150 q-48 0 -83.5 16.5t-56.5 51.5t-21 86v82l43 60q-42 29 -42 85zM136 -111q0 -24 7 -40t20 -23t25 -9.5t28 -2.5h131q40 0 55.5 19.5t15.5 54.5v26q0 58 -81 68l-148 19l-53 8v-120zM138 344q0 -21 3.5 -39t12.5 -35.5t26.5 -27.5t42.5 -10h86q26 0 45 10.5t28 28t13 36 t3 37.5q-2 55 -21 80.5t-69 25.5h-80q-90 0 -90 -106z" />
<glyph unicode="&#x124;" horiz-adv-x="637" d="M180 797l114 131h80l102 -131h-76l-68 68l-74 -68h-78zM75 0v732h92v-334h323v334h92v-732h-92v310h-323v-310h-92z" />
<glyph unicode="&#x125;" d="M-58 844l114 131h80l102 -131h-77l-68 68l-73 -68h-78zM45 0v784h91v-314q3 2 16.5 10.5t17.5 10.5t16.5 9.5t17.5 9.5t17 7.5t19 8t19 6t21.5 5t21 2.5t23.5 1q79 0 121 -50.5t42 -123.5v-366h-92v366q0 45 -22 67.5t-60 22.5q-51 0 -85 -12t-92 -42v-402h-92z" />
<glyph unicode="&#x126;" horiz-adv-x="665" d="M18 516v57h61v159h92v-159h323v159h92v-159h60v-57h-60v-516h-92v310h-323v-310h-92v516h-61zM171 398h323v118h-323v-118z" />
<glyph unicode="&#x127;" horiz-adv-x="549" d="M-14 608v57h74v119h94v-119h129v-57h-129v-138q37 22 62.5 35t62.5 24t69 11q77 2 116 -48t39 -125v-367h-95v365q-2 46 -21 69t-64 23q-70 -3 -168 -55v-402h-95v608h-74z" />
<glyph unicode="&#x128;" horiz-adv-x="222" d="M-49 842q18 16 29.5 25t27.5 19.5t31 15.5t31 5q27 -1 60.5 -17.5t46.5 -17.5q27 -1 91 37l22 -47q-2 -2 -15.5 -13.5t-18.5 -15.5t-17.5 -13t-21 -12.5t-20 -7t-21.5 -2.5q-29 1 -60.5 17.5t-47.5 16.5q-20 0 -34 -5t-32 -15t-29 -15zM75 0v732h92v-732h-92z" />
<glyph unicode="&#x129;" horiz-adv-x="204" d="M-68 641q24 21 39 32.5t37.5 22t42.5 10.5q21 -1 41.5 -9.5t37 -16.5t28.5 -9q27 -1 91 37l23 -47q-3 -2 -16 -13.5t-18.5 -15.5t-18 -13t-20.5 -12.5t-19.5 -7t-22.5 -2.5q-23 1 -42.5 9.5t-35 16.5t-30.5 8q-20 0 -34 -5t-32 -15t-29 -15zM56 0v531h92v-531h-92z" />
<glyph unicode="&#x12a;" horiz-adv-x="222" d="M-25 797v67h292v-67h-292zM75 0v732h92v-732h-92z" />
<glyph unicode="&#x12b;" horiz-adv-x="204" d="M-44 596v68h292v-68h-292zM56 0v531h92v-531h-92z" />
<glyph unicode="&#x12e;" horiz-adv-x="222" d="M103 0h43q-59 -49 -55.5 -83t60.5 -35v-64q-33 -6 -63 4.5t-45.5 32t-19 47t16.5 52.5t63 46zM75 0v732h92v-732h-92z" />
<glyph unicode="&#x12f;" horiz-adv-x="205" d="M84 0h44q-60 -49 -56 -83t60 -35v-64q-32 -6 -62 4.5t-46 32t-19.5 47t17 52.5t62.5 46zM47 615v63q0 26 24 26h65q11 0 17 -7.5t6 -18.5v-63q0 -23 -23 -23h-65q-11 0 -17.5 6.5t-6.5 16.5zM55 0v531h92v-531h-92z" />
<glyph unicode="&#x130;" horiz-adv-x="222" d="M69 820v60q0 25 24 25h56q11 0 17 -7t6 -18v-60q0 -23 -23 -23h-56q-10 0 -17 6.5t-7 16.5zM75 0v732h92v-732h-92z" />
<glyph unicode="&#x131;" horiz-adv-x="204" d="M56 0v531h92v-531h-92z" />
<glyph unicode="&#x134;" horiz-adv-x="358" d="M108 797l115 131h80l102 -131h-77l-68 68l-74 -68h-78zM33 22l3 69q3 -1 8 -2q20 -4 30 -5.5t28.5 -4t28.5 -1t24.5 4t22.5 10.5t16.5 19t12 29t3.5 41v550h92v-567q0 -32 -2 -53.5t-14.5 -50t-35.5 -43.5q-40 -25 -109 -23.5t-108 27.5z" />
<glyph unicode="&#x135;" horiz-adv-x="224" d="M-37 598l114 157h80l102 -157h-68l-77 85l-82 -85h-69zM65 -270v801h96v-535q2 -157 -29 -266h-67zM157 755z" />
<glyph unicode="&#x136;" horiz-adv-x="601" d="M259 -151v57q0 24 23 24h54q21 0 21 -24v-90q0 -18 -5 -31.5t-13.5 -21t-18.5 -12t-20 -5.5t-18 -1t-13 1l-5 1v33q12 0 18.5 5t7.5 9.5t1 11.5v20h-9q-23 0 -23 23zM75 0v732h90v-322h76l218 322h110l-245 -365l245 -367h-110l-218 322h-75v-322h-91z" />
<glyph unicode="&#x137;" horiz-adv-x="515" d="M215 -151v57q0 24 22 24h54q22 0 22 -24v-90q0 -25 -9.5 -41t-23.5 -21.5t-27.5 -7.5t-23.5 0l-10 1v33q13 0 19.5 5t7.5 9.5t1 11.5v20h-10q-22 0 -22 23zM56 0v782h92v-437h37l189 186h123l-226 -227l226 -304h-112l-200 262h-37v-262h-92z" />
<glyph unicode="&#x138;" horiz-adv-x="531" d="M56 0v531h92v-227h75l178 227h112l-207 -267l192 -264h-112l-166 222h-71l-1 -222h-92z" />
<glyph unicode="&#x139;" horiz-adv-x="552" d="M83 797l103 135h102l-130 -135h-75zM75 130v602h92v-591q0 -19 4.5 -30.5t16 -15.5t18.5 -5t23 -1h291v-89h-305q-29 0 -51.5 5t-44 17.5t-33 40t-11.5 67.5z" />
<glyph unicode="&#x13a;" horiz-adv-x="303" d="M91 843l103 135h102l-130 -135h-75zM56 189v594h92v-588q0 -59 13.5 -82t40.5 -30q76 -21 83 -21v-62h-95q-134 0 -134 189z" />
<glyph unicode="&#x13b;" horiz-adv-x="552" d="M256 -150v56q0 25 23 25h54q21 0 21 -25v-89q0 -25 -9.5 -41.5t-23 -21.5t-27.5 -7t-24 -1l-9 2v33q7 -1 12.5 1t8.5 4.5t4.5 7t2 7t0.5 6.5v20h-10q-23 0 -23 23zM75 130v602h92v-591q0 -19 4.5 -30.5t16 -15.5t18.5 -5t23 -1h291v-89h-305q-29 0 -51.5 5t-44 17.5 t-33 40t-11.5 67.5z" />
<glyph unicode="&#x13c;" horiz-adv-x="303" d="M120 -151v57q0 24 23 24h54q21 0 21 -24v-89q0 -25 -9.5 -41.5t-23 -22t-27.5 -7t-24 -0.5l-9 2v33q9 -1 15.5 1.5t8.5 7.5t3 8.5t1 8.5v20h-10q-23 0 -23 22zM56 189v594h92v-588q0 -59 13.5 -82t40.5 -30q76 -21 83 -21v-62h-95q-134 0 -134 189z" />
<glyph unicode="&#x13d;" horiz-adv-x="552" d="M75 130v602h92v-591q0 -19 4.5 -30.5t16 -15.5t18.5 -5t23 -1h291v-89h-305q-29 0 -51.5 5t-44 17.5t-33 40t-11.5 67.5zM240 705v67h80v-67l-10 -134h-59z" />
<glyph unicode="&#x13e;" horiz-adv-x="315" d="M56 189v594h92v-588q0 -61 11 -81.5t43 -30.5q76 -21 83 -21v-62h-95q-72 0 -103 42.5t-31 146.5zM221 714v67h80v-67l-10 -134h-59z" />
<glyph unicode="&#x141;" horiz-adv-x="559" d="M2 316v64l81 35v317h92v-277l133 57l-1 -64l-132 -57v-250q0 -19 5 -30.5t16 -15.5t18.5 -5t22.5 -1h291v-89h-304q-30 0 -52 5t-44 17.5t-33.5 40t-11.5 67.5v221z" />
<glyph unicode="&#x142;" horiz-adv-x="337" d="M10 364v64l79 33v322h92v-282l135 59l-1 -64l-134 -58v-243q0 -59 13 -82t41 -30q76 -21 83 -21v-62h-96q-133 0 -133 189v209z" />
<glyph unicode="&#x143;" horiz-adv-x="679" d="M320 797l103 135h102l-130 -135h-75zM75 0v732h94l363 -561v561h92v-732h-92l-364 560v-560h-93z" />
<glyph unicode="&#x144;" d="M237 600l103 134h102l-130 -134h-75zM56 0v531h69l23 -61q4 3 13 8q26 16 40 24t37.5 18.5t47.5 15t51 4.5q78 0 120 -50.5t42 -123.5v-366h-92v366q0 45 -22 67.5t-59 22.5q-51 0 -85 -12t-93 -42v-402h-92z" />
<glyph unicode="&#x145;" horiz-adv-x="679" d="M299 -151v57q0 24 22 24h54q22 0 22 -24v-90q0 -18 -5 -31.5t-13.5 -21t-18.5 -12t-20 -5.5t-18 -1t-14 1l-5 1v33q13 0 19.5 5t7.5 9.5t1 11.5v20h-10q-22 0 -22 23zM75 0v732h94l363 -561v561h92v-732h-92l-364 560v-560h-93z" />
<glyph unicode="&#x146;" d="M229 -151v57q0 24 22 24h54q22 0 22 -24v-90q0 -25 -9.5 -41t-23.5 -21.5t-27.5 -7.5t-23.5 0l-10 1v33q13 0 19.5 5t7.5 9.5t1 11.5v20h-10q-22 0 -22 23zM56 0v531h69l23 -61q4 3 13 8q26 16 40 24t37.5 18.5t47.5 15t51 4.5q78 0 120 -50.5t42 -123.5v-366h-92v366 q0 45 -22 67.5t-59 22.5q-51 0 -85 -12t-93 -42v-402h-92z" />
<glyph unicode="&#x147;" horiz-adv-x="679" d="M209 928h78l76 -68l66 68h77l-103 -131h-80zM75 0v732h94l363 -561v561h92v-732h-92l-364 560v-560h-93z" />
<glyph unicode="&#x148;" d="M139 732h78l75 -68l66 68h77l-103 -132h-80zM56 0v531h69l23 -61q4 3 13 8q26 16 40 24t37.5 18.5t47.5 15t51 4.5q78 0 120 -50.5t42 -123.5v-366h-92v366q0 45 -22 67.5t-59 22.5q-51 0 -85 -12t-93 -42v-402h-92z" />
<glyph unicode="&#x14a;" horiz-adv-x="677" d="M75 0v732h94l361 -552v552h92v-732v-81q0 -46 -12.5 -79t-32 -52t-50.5 -29.5t-60.5 -13.5t-69.5 -2v69q8 2 29 6t31.5 6.5t27 10.5t24.5 19t14.5 31t6.5 47v68l-361 560l-2 -560h-92z" />
<glyph unicode="&#x14b;" horiz-adv-x="555" d="M56 0v531h69l23 -60q7 3 19 10.5t19.5 11.5t18.5 10.5t19.5 10t19.5 8.5t21 7.5t21.5 5.5t24 4t26.5 1q78 0 120 -50.5t42 -123.5v-366l-1 -84q-1 -29 -8.5 -54t-16.5 -42t-25 -31t-28.5 -22t-32.5 -16t-30.5 -11t-30.5 -8l-31 48q3 2 13 7t14.5 7.5t14.5 8t15.5 9.5 t14 11t13 13t10.5 14.5t9 17.5t5.5 20.5t2.5 23.5v88v366q0 23 -6 40.5t-17 28t-25.5 16t-32.5 5.5q-51 0 -85 -12t-93 -42v-402h-92z" />
<glyph unicode="&#x14c;" horiz-adv-x="674" d="M202 797v67h292v-67h-292zM61 361q0 72 7.5 128.5t19.5 96t33 67.5t43 44t54 25t60.5 12t69.5 3t70.5 -3t61 -12t53 -25t42 -44t32.5 -67.5t19 -96t7 -128.5q0 -80 -8.5 -139t-26 -99t-40 -65.5t-57 -39t-69.5 -18t-84 -4.5q-43 0 -73 2.5t-62.5 11.5t-54 25t-41.5 42.5 t-31.5 65t-18 93t-6.5 125.5zM153 361q0 -41 2 -73t5.5 -59t10 -47t14.5 -35.5t20 -26t25.5 -17.5t32.5 -11t38.5 -5.5t46.5 -1.5q46 0 76 6.5t54 23t37 48t19.5 79.5t6.5 119q0 42 -2 76t-6.5 61t-9 48t-13.5 36.5t-17 26.5t-22 18.5t-24.5 11.5t-29 6t-32.5 2.5t-37 0.5 q-47 0 -70.5 -3t-52 -17.5t-41.5 -44t-22 -84.5t-9 -138z" />
<glyph unicode="&#x14d;" horiz-adv-x="565" d="M137 596v68h292v-68h-292zM47 258q0 109 23 169t73 84.5t140 24.5q135 0 185.5 -60t50.5 -218q0 -149 -50.5 -206t-185.5 -57q-133 0 -184.5 59t-51.5 204zM139 258q0 -41 3.5 -71t12.5 -49.5t19.5 -31t29 -17.5t35.5 -7.5t44 -1.5q34 0 54 2.5t39.5 12t29 29t15.5 52.5 t6 82q0 45 -3 76.5t-11 53t-17.5 34t-27.5 19.5t-36.5 9t-48.5 2q-29 0 -47 -2t-36.5 -8.5t-28 -19t-18 -34.5t-11.5 -53.5t-3 -76.5z" />
<glyph unicode="&#x150;" horiz-adv-x="674" d="M240 797l102 135h103l-130 -135h-75zM380 797l103 135h103l-130 -135h-76zM61 361q0 72 7.5 128.5t19.5 96t33 67.5t43 44t54 25t60.5 12t69.5 3t70.5 -3t61 -12t53 -25t42 -44t32.5 -67.5t19 -96t7 -128.5q0 -80 -8.5 -139t-26 -99t-40 -65.5t-57 -39t-69.5 -18 t-84 -4.5q-43 0 -73 2.5t-62.5 11.5t-54 25t-41.5 42.5t-31.5 65t-18 93t-6.5 125.5zM153 361q0 -41 2 -73t5.5 -59t10 -47t14.5 -35.5t20 -26t25.5 -17.5t32.5 -11t38.5 -5.5t46.5 -1.5q46 0 76 6.5t54 23t37 48t19.5 79.5t6.5 119q0 42 -2 76t-6.5 61t-9 48t-13.5 36.5 t-17 26.5t-22 18.5t-24.5 11.5t-29 6t-32.5 2.5t-37 0.5q-47 0 -70.5 -3t-52 -17.5t-41.5 -44t-22 -84.5t-9 -138z" />
<glyph unicode="&#x151;" horiz-adv-x="565" d="M175 596l103 134h102l-130 -134h-75zM316 596l102 134h103l-130 -134h-75zM47 258q0 109 23 169t73 84.5t140 24.5q135 0 185.5 -60t50.5 -218q0 -149 -50.5 -206t-185.5 -57q-133 0 -184.5 59t-51.5 204zM139 258q0 -41 3.5 -71t12.5 -49.5t19.5 -31t29 -17.5t35.5 -7.5 t44 -1.5q34 0 54 2.5t39.5 12t29 29t15.5 52.5t6 82q0 45 -3 76.5t-11 53t-17.5 34t-27.5 19.5t-36.5 9t-48.5 2q-29 0 -47 -2t-36.5 -8.5t-28 -19t-18 -34.5t-11.5 -53.5t-3 -76.5z" />
<glyph unicode="&#x152;" horiz-adv-x="1042" d="M153 361q0 -61 3.5 -104t13.5 -74.5t23.5 -50t37 -29.5t50 -14.5t66.5 -3.5q46 0 76 6.5t54.5 23t37.5 48t19.5 79.5t6.5 119q0 42 -2 76t-6.5 61t-9 48t-14 36.5t-17 26.5t-21.5 18.5t-25 11.5t-29.5 6t-32.5 2.5t-37 0.5t-36.5 -0.5t-32 -2.5t-29.5 -6t-25 -11t-22 -18 t-17.5 -26.5t-14 -36.5t-9.5 -48t-6.5 -61.5t-1.5 -76.5zM61 361q0 63 5 114.5t16 89t24.5 66t34.5 47t41.5 30.5t49 18.5t54.5 8.5t61 2q50 0 85 -4.5t69.5 -20t57.5 -42.5q15 34 46 49t71 13q298 -14 315 -16v-74h-306q-19 0 -30.5 -4t-15.5 -14t-5 -17t-1 -21v-176 l317 -11v-74l-317 -10v-176q0 -16 4 -26t9 -15.5t15 -8t15.5 -2.5h18.5h296v-73l-305 -17q-101 -6 -130 63q-23 -26 -56 -40.5t-68.5 -19t-84.5 -4.5q-43 0 -73 2.5t-62 11.5t-53.5 25t-41.5 42.5t-31.5 65t-18 93t-6.5 125.5z" />
<glyph unicode="&#x153;" horiz-adv-x="903" d="M47 258q0 109 23 169t73 84.5t140 24.5q137 0 186 -64q17 26 44.5 40t60.5 18.5t84 4.5q32 0 53.5 -1t45.5 -5.5t39 -12.5t30 -22t23 -34t13 -48.5t5 -66.5q0 -125 -140 -125h-209q-1 -53 8.5 -83.5t32 -44t63.5 -13.5q165 0 235 10v-66q-92 -28 -256 -28q-98 0 -135 59 q-49 -59 -183 -59q-133 0 -184.5 59t-51.5 204zM139 258q0 -41 3.5 -71t12.5 -49.5t19.5 -31t29 -17.5t35.5 -8t44 -2q33 0 54.5 3.5t38 12.5t26 21t15 35t7.5 49.5t2 67.5q0 78 -13 116.5t-42 52.5t-88 14q-29 0 -47 -1.5t-36.5 -8t-28 -19t-18 -34.5t-11.5 -53.5t-3 -76.5 zM518 301h199q58 0 58 46q0 38 -4 57t-18 30.5t-33.5 14.5t-59.5 3q-29 0 -46.5 -1.5t-36.5 -6.5t-29 -15t-18 -26.5t-10.5 -41.5t-1.5 -60z" />
<glyph unicode="&#x154;" horiz-adv-x="596" d="M257 793l102 134h103l-130 -134h-75zM58 0v732h314q177 0 177 -222q0 -53 -10.5 -93.5t-23.5 -60.5t-33.5 -34t-31 -17.5t-25.5 -6.5l150 -298h-101l-145 293l-179 14v-307h-92zM150 385h218q17 0 27.5 1.5t23.5 8t20 19t12 37t5 59.5q0 42 -7 70t-20.5 41t-27.5 18 t-33 5h-218v-259z" />
<glyph unicode="&#x155;" horiz-adv-x="423" d="M209 598l102 134h103l-130 -134h-75zM56 0v531h70l22 -67l9 6q34 22 54 33t54 22.5t69 11.5q53 0 70 -8v-90q-26 5 -75 5q-53 0 -90.5 -12.5t-90.5 -45.5v-386h-92z" />
<glyph unicode="&#x156;" horiz-adv-x="596" d="M250 -150v57q0 24 23 24h54q21 0 21 -24v-90q0 -18 -5 -31.5t-13 -21t-18 -12t-20 -5.5t-18.5 -1t-13.5 1l-5 1v33q12 0 19 5t8 10t1 12v19h-10q-23 0 -23 23zM58 0v732h314q177 0 177 -222q0 -53 -10.5 -93.5t-23.5 -60.5t-33.5 -34t-31 -17.5t-25.5 -6.5l150 -298h-101 l-145 293l-179 14v-307h-92zM150 385h218q17 0 27.5 1.5t23.5 8t20 19t12 37t5 59.5q0 42 -7 70t-20.5 41t-27.5 18t-33 5h-218v-259z" />
<glyph unicode="&#x157;" horiz-adv-x="423" d="M51 -151v57q0 24 23 24h54q21 0 21 -24v-90q0 -25 -9.5 -41t-23 -21.5t-27.5 -7.5t-24 0l-9 1v33q12 0 19 5t8 9.5t1 11.5v20h-10q-23 0 -23 23zM55 0v531h70l22 -67l9 6q26 17 40.5 25.5t38.5 20t47.5 16.5t49.5 5q54 0 70 -8v-90q-25 5 -74 5q-53 0 -91 -12.5 t-90 -45.5v-386h-92z" />
<glyph unicode="&#x158;" horiz-adv-x="596" d="M144 928h78l75 -68l66 68h77l-103 -131h-80zM58 0v732h314q177 0 177 -222q0 -53 -10.5 -93.5t-23.5 -60.5t-33.5 -34t-31 -17.5t-25.5 -6.5l150 -298h-101l-145 293l-179 14v-307h-92zM150 385h218q17 0 27.5 1.5t23.5 8t20 19t12 37t5 59.5q0 42 -7 70t-20.5 41 t-27.5 18t-33 5h-218v-259z" />
<glyph unicode="&#x159;" horiz-adv-x="423" d="M82 728h77l76 -68l66 68h77l-103 -131h-80zM56 0v531h70l22 -67l9 6q34 22 54 33t54 22.5t69 11.5q53 0 70 -8v-90q-26 5 -75 5q-53 0 -90.5 -12.5t-90.5 -45.5v-386h-92z" />
<glyph unicode="&#x15a;" horiz-adv-x="585" d="M269 798l103 135h102l-130 -135h-75zM61 492v65q0 53 14.5 89.5t42.5 55.5t62 27.5t79 8.5q46 0 133 -9t126 -16v-74q-42 3 -138.5 6.5t-110.5 3.5q-29 1 -47 -1t-35.5 -11t-25.5 -29.5t-8 -53.5v-58q0 -57 22.5 -73.5t72.5 -16.5h135q161 0 161 -178v-63q0 -43 -12 -75 t-30.5 -50.5t-46 -29.5t-54 -14.5t-59.5 -3.5q-51 0 -134 8.5t-125 17.5v74q110 -11 251 -11q17 0 29 1t30 5.5t30 12.5t20.5 24.5t8.5 39.5v60q0 43 -17 66.5t-61 23.5h-132q-47 0 -82 11.5t-53.5 28t-29.5 42t-13.5 47t-2.5 49.5z" />
<glyph unicode="&#x15b;" horiz-adv-x="506" d="M214 600l102 135h103l-130 -135h-75zM37 355v46q0 65 32 100t106 35q54 0 143.5 -6t123.5 -13v-66h-255q-20 0 -32.5 -3t-17.5 -11.5t-6.5 -16t-1.5 -21.5v-40q0 -34 14 -42.5t44 -8.5h149q44 0 74.5 -17.5t44.5 -46.5t14 -68v-50q0 -131 -130 -131q-51 0 -152 7.5 t-128 14.5v64h268q50 0 50 48v42q0 26 -11 38t-39 12h-149q-73 0 -107 29.5t-34 104.5z" />
<glyph unicode="&#x15c;" horiz-adv-x="585" d="M164 798l114 132h80l102 -132h-77l-67 68l-74 -68h-78zM61 492v65q0 53 14.5 89.5t42.5 55.5t62 27.5t79 8.5q46 0 133 -9t126 -16v-74q-42 3 -138.5 6.5t-110.5 3.5q-29 1 -47 -1t-35.5 -11t-25.5 -29.5t-8 -53.5v-58q0 -57 22.5 -73.5t72.5 -16.5h135q161 0 161 -178 v-63q0 -43 -12 -75t-30.5 -50.5t-46 -29.5t-54 -14.5t-59.5 -3.5q-51 0 -134 8.5t-125 17.5v74q110 -11 251 -11q17 0 29 1t30 5.5t30 12.5t20.5 24.5t8.5 39.5v60q0 43 -17 66.5t-61 23.5h-132q-47 0 -82 11.5t-53.5 28t-29.5 42t-13.5 47t-2.5 49.5z" />
<glyph unicode="&#x15d;" horiz-adv-x="506" d="M105 596l115 132h80l102 -132h-77l-68 68l-74 -68h-78zM37 355v46q0 65 32 100t106 35q54 0 143.5 -6t123.5 -13v-66h-255q-20 0 -32.5 -3t-17.5 -11.5t-6.5 -16t-1.5 -21.5v-40q0 -34 14 -42.5t44 -8.5h149q44 0 74.5 -17.5t44.5 -46.5t14 -68v-50q0 -131 -130 -131 q-51 0 -152 7.5t-128 14.5v64h268q50 0 50 48v42q0 26 -11 38t-39 12h-149q-73 0 -107 29.5t-34 104.5z" />
<glyph unicode="&#x15e;" horiz-adv-x="585" d="M196 -139l51 15q19 8 25 27t6 52h74q0 -77 -21.5 -107t-82.5 -30h-52v43zM61 492v65q0 53 14.5 89.5t42.5 55.5t62 27.5t79 8.5q46 0 133 -9t126 -16v-74q-42 3 -138.5 6.5t-110.5 3.5q-29 1 -47 -1t-35.5 -11t-25.5 -29.5t-8 -53.5v-58q0 -57 22.5 -73.5t72.5 -16.5h135 q161 0 161 -178v-63q0 -43 -12 -75t-30.5 -50.5t-46 -29.5t-54 -14.5t-59.5 -3.5q-51 0 -134 8.5t-125 17.5v74q110 -11 251 -11q17 0 29 1t30 5.5t30 12.5t20.5 24.5t8.5 39.5v60q0 43 -17 66.5t-61 23.5h-132q-47 0 -82 11.5t-53.5 28t-29.5 42t-13.5 47t-2.5 49.5z" />
<glyph unicode="&#x15f;" horiz-adv-x="506" d="M131 -133l50 15q20 8 26 27t6 52h74q0 -77 -21.5 -107t-82.5 -30h-52v43zM37 355v46q0 65 32 100t106 35q54 0 143.5 -6t123.5 -13v-66h-255q-20 0 -32.5 -3t-17.5 -11.5t-6.5 -16t-1.5 -21.5v-40q0 -34 14 -42.5t44 -8.5h149q44 0 74.5 -17.5t44.5 -46.5t14 -68v-50 q0 -131 -130 -131q-51 0 -152 7.5t-128 14.5v64h268q50 0 50 48v42q0 26 -11 38t-39 12h-149q-73 0 -107 29.5t-34 104.5z" />
<glyph unicode="&#x160;" horiz-adv-x="585" d="M158 930h78l75 -68l66 68h78l-104 -132h-80zM61 492v65q0 53 14.5 89.5t42.5 55.5t62 27.5t79 8.5q46 0 133 -9t126 -16v-74q-42 3 -138.5 6.5t-110.5 3.5q-29 1 -47 -1t-35.5 -11t-25.5 -29.5t-8 -53.5v-58q0 -57 22.5 -73.5t72.5 -16.5h135q161 0 161 -178v-63 q0 -43 -12 -75t-30.5 -50.5t-46 -29.5t-54 -14.5t-59.5 -3.5q-51 0 -134 8.5t-125 17.5v74q110 -11 251 -11q17 0 29 1t30 5.5t30 12.5t20.5 24.5t8.5 39.5v60q0 43 -17 66.5t-61 23.5h-132q-47 0 -82 11.5t-53.5 28t-29.5 42t-13.5 47t-2.5 49.5z" />
<glyph unicode="&#x161;" horiz-adv-x="506" d="M109 732h78l75 -68l66 68h77l-103 -132h-80zM37 355v46q0 65 32 100t106 35q54 0 143.5 -6t123.5 -13v-66h-255q-20 0 -32.5 -3t-17.5 -11.5t-6.5 -16t-1.5 -21.5v-40q0 -34 14 -42.5t44 -8.5h149q44 0 74.5 -17.5t44.5 -46.5t14 -68v-50q0 -131 -130 -131 q-51 0 -152 7.5t-128 14.5v64h268q50 0 50 48v42q0 26 -11 38t-39 12h-149q-73 0 -107 29.5t-34 104.5z" />
<glyph unicode="&#x162;" horiz-adv-x="582" d="M154 -141l50 15q20 8 26 27t6 52h74q0 -78 -21.5 -108t-82.5 -30h-52v44zM41 643v89h517v-89h-215v-643h-92v643h-210z" />
<glyph unicode="&#x163;" horiz-adv-x="379" d="M82 -143l51 15q19 8 25 27t6 52h75q0 -78 -22 -107.5t-82 -29.5h-53v43zM19 449v62l95 21l20 148h72v-148h145v-83h-145v-253q0 -59 13.5 -82t40.5 -30q76 -21 83 -21v-62h-97q-132 0 -132 189v259h-95z" />
<glyph unicode="&#x164;" horiz-adv-x="582" d="M143 928h78l75 -68l66 68h78l-104 -131h-80zM41 643v89h517v-89h-215v-643h-92v643h-210z" />
<glyph unicode="&#x165;" horiz-adv-x="380" d="M19 449v62l95 21l20 148h72v-148h145v-83h-145v-253q0 -59 13.5 -82t40.5 -30q76 -21 83 -21v-62h-97q-132 0 -132 189v259h-95zM266 800h81v-67l-11 -134h-59l-10 134z" />
<glyph unicode="&#x166;" horiz-adv-x="579" d="M31 643v89h517v-89h-215v-202h114v-57h-114v-384h-92v384h-114v57h114v202h-210z" />
<glyph unicode="&#x167;" horiz-adv-x="369" d="M19 449v62l95 21l20 148h72v-148h145v-83h-145v-127h99v-57h-99v-69q0 -47 6 -69.5t16 -29.5t34 -13q71 -19 73 -19v-64h-89q-47 0 -75.5 18t-42.5 59.5t-14 111.5v75h-78v57h78v127h-95z" />
<glyph unicode="&#x168;" horiz-adv-x="673" d="M176 838q18 15 29.5 24.5t27.5 20t31 15.5t31 5q27 -1 60.5 -17.5t46.5 -17.5q27 -1 91 37l23 -47q-3 -2 -16.5 -13.5t-18.5 -15.5t-17.5 -13t-21 -12.5t-20 -7t-21.5 -2.5q-29 1 -60 17.5t-48 16.5q-20 -1 -34 -5.5t-32 -15t-29 -14.5zM75 320v412h92v-412 q0 -35 1.5 -63.5t6.5 -50.5t9.5 -39.5t13.5 -30t16.5 -21.5t21 -15t23.5 -9t27.5 -4.5t29.5 -2t33 -0.5q24 0 40.5 1t36.5 6.5t33 14.5t27 26.5t21.5 42t12.5 61.5t5 84v412h93v-412q0 -67 -9.5 -119.5t-22.5 -86.5t-37 -57.5t-43 -35.5t-51.5 -18t-52 -7t-53.5 -1h-10 q-38 0 -57 1t-52.5 7t-51 17.5t-40.5 35t-34.5 57.5t-20 86.5t-8.5 120.5z" />
<glyph unicode="&#x169;" d="M98 641q18 16 29.5 25t27.5 19.5t31.5 15.5t30.5 5q27 -1 60.5 -17.5t46.5 -17.5q27 -1 91 37l23 -47q-3 -2 -16 -13.5t-18.5 -15.5t-18 -13t-20.5 -12.5t-19.5 -7t-22.5 -2.5q-28 1 -59.5 17.5t-48.5 16.5q-19 0 -33.5 -5t-32.5 -15t-29 -15zM47 166v365h92v-366 q0 -45 22 -67t59 -22q51 0 85 11.5t93 42.5v401h92v-531h-69l-23 60q-6 -3 -24 -14t-25.5 -14.5t-23.5 -12t-26.5 -12t-26 -8.5t-31 -6.5t-32.5 -1.5q-79 0 -120.5 50.5t-41.5 124.5z" />
<glyph unicode="&#x16a;" horiz-adv-x="673" d="M200 797v67h292v-67h-292zM75 320v412h92v-412q0 -35 1.5 -63.5t6.5 -50.5t9.5 -39.5t13.5 -30t16.5 -21.5t21 -15t23.5 -9t27.5 -4.5t29.5 -2t33 -0.5q24 0 40.5 1t36.5 6.5t33 14.5t27 26.5t21.5 42t12.5 61.5t5 84v412h93v-412q0 -67 -9.5 -119.5t-22.5 -86.5 t-37 -57.5t-43 -35.5t-51.5 -18t-52 -7t-53.5 -1h-10q-38 0 -57 1t-52.5 7t-51 17.5t-40.5 35t-34.5 57.5t-20 86.5t-8.5 120.5z" />
<glyph unicode="&#x16b;" d="M122 596v68h292v-68h-292zM47 166v365h92v-366q0 -45 22 -67t59 -22q51 0 85 11.5t93 42.5v401h92v-531h-69l-23 60q-6 -3 -24 -14t-25.5 -14.5t-23.5 -12t-26.5 -12t-26 -8.5t-31 -6.5t-32.5 -1.5q-79 0 -120.5 50.5t-41.5 124.5z" />
<glyph unicode="&#x16c;" horiz-adv-x="673" d="M231 911h50q0 -27 19.5 -45.5t44.5 -18.5q29 0 47.5 17.5t18.5 46.5h50q0 -53 -34.5 -83.5t-81.5 -30.5q-45 0 -79.5 31.5t-34.5 82.5zM75 320v412h92v-412q0 -35 1.5 -63.5t6.5 -50.5t9.5 -39.5t13.5 -30t16.5 -21.5t21 -15t23.5 -9t27.5 -4.5t29.5 -2t33 -0.5 q24 0 40.5 1t36.5 6.5t33 14.5t27 26.5t21.5 42t12.5 61.5t5 84v412h93v-412q0 -67 -9.5 -119.5t-22.5 -86.5t-37 -57.5t-43 -35.5t-51.5 -18t-52 -7t-53.5 -1h-10q-38 0 -57 1t-52.5 7t-51 17.5t-40.5 35t-34.5 57.5t-20 86.5t-8.5 120.5z" />
<glyph unicode="&#x16d;" d="M160 710h50q0 -27 19.5 -45.5t44.5 -18.5q29 0 47.5 17.5t18.5 46.5h50q0 -53 -34.5 -83.5t-81.5 -30.5q-45 0 -79.5 31.5t-34.5 82.5zM47 166v365h92v-366q0 -45 22 -67t59 -22q51 0 85 11.5t93 42.5v401h92v-531h-69l-23 60q-6 -3 -24 -14t-25.5 -14.5t-23.5 -12 t-26.5 -12t-26 -8.5t-31 -6.5t-32.5 -1.5q-79 0 -120.5 50.5t-41.5 124.5z" />
<glyph unicode="&#x16e;" horiz-adv-x="673" d="M245 899q0 28 13.5 51.5t37 37.5t51.5 14q42 0 71.5 -30t29.5 -73q0 -28 -13.5 -51.5t-37 -37t-51 -13.5t-51 13.5t-37 37t-13.5 51.5zM295 899q0 -21 15 -36t36.5 -15t36.5 15t15 36q0 14 -7 26t-18.5 19t-25.5 7q-22 0 -37 -15.5t-15 -36.5zM75 320v412h92v-412 q0 -35 1.5 -63.5t6.5 -50.5t9.5 -39.5t13.5 -30t16.5 -21.5t21 -15t23.5 -9t27.5 -4.5t29.5 -2t33 -0.5q24 0 40.5 1t36.5 6.5t33 14.5t27 26.5t21.5 42t12.5 61.5t5 84v412h93v-412q0 -67 -9.5 -119.5t-22.5 -86.5t-37 -57.5t-43 -35.5t-51.5 -18t-52 -7t-53.5 -1h-10 q-38 0 -57 1t-52.5 7t-51 17.5t-40.5 35t-34.5 57.5t-20 86.5t-8.5 120.5z" />
<glyph unicode="&#x16f;" d="M167 698q0 28 13.5 51.5t37 37.5t51 14t51 -14t37 -37.5t13.5 -51.5t-13.5 -51.5t-37 -37t-50.5 -13.5q-21 0 -40 8t-32.5 21.5t-21.5 32.5t-8 40zM217 698q0 -21 15 -36t36.5 -15t36.5 15t15 36q0 14 -7 26t-18.5 19t-25.5 7q-22 0 -37 -15.5t-15 -36.5zM47 166v365h92 v-366q0 -45 22 -67t59 -22q51 0 85 11.5t93 42.5v401h92v-531h-69l-23 60q-6 -3 -24 -14t-25.5 -14.5t-23.5 -12t-26.5 -12t-26 -8.5t-31 -6.5t-32.5 -1.5q-79 0 -120.5 50.5t-41.5 124.5z" />
<glyph unicode="&#x170;" horiz-adv-x="673" d="M238 797l103 135h102l-130 -135h-75zM379 797l103 135h102l-130 -135h-75zM75 320v412h92v-412q0 -35 1.5 -63.5t6.5 -50.5t9.5 -39.5t13.5 -30t16.5 -21.5t21 -15t23.5 -9t27.5 -4.5t29.5 -2t33 -0.5q24 0 40.5 1t36.5 6.5t33 14.5t27 26.5t21.5 42t12.5 61.5t5 84v412 h93v-412q0 -67 -9.5 -119.5t-22.5 -86.5t-37 -57.5t-43 -35.5t-51.5 -18t-52 -7t-53.5 -1h-10q-38 0 -57 1t-52.5 7t-51 17.5t-40.5 35t-34.5 57.5t-20 86.5t-8.5 120.5z" />
<glyph unicode="&#x171;" d="M160 596l103 134h102l-130 -134h-75zM301 596l103 134h102l-130 -134h-75zM47 166v365h92v-366q0 -45 22 -67t59 -22q51 0 85 11.5t93 42.5v401h92v-531h-69l-23 60q-6 -3 -24 -14t-25.5 -14.5t-23.5 -12t-26.5 -12t-26 -8.5t-31 -6.5t-32.5 -1.5q-79 0 -120.5 50.5 t-41.5 124.5z" />
<glyph unicode="&#x172;" horiz-adv-x="673" d="M323 -3h43q-59 -50 -55.5 -84t60.5 -34v-65q-33 -5 -63 5.5t-45.5 32t-19 47t17 52.5t62.5 46zM75 320v412h92v-412q0 -35 1.5 -63.5t6.5 -50.5t9.5 -39.5t13.5 -30t16.5 -21.5t21 -15t23.5 -9t27.5 -4.5t29.5 -2t33 -0.5q24 0 40.5 1t36.5 6.5t33 14.5t27 26.5t21.5 42 t12.5 61.5t5 84v412h93v-412q0 -67 -9.5 -119.5t-22.5 -86.5t-37 -57.5t-43 -35.5t-51.5 -18t-52 -7t-53.5 -1h-10q-38 0 -57 1t-52.5 7t-51 17.5t-40.5 35t-34.5 57.5t-20 86.5t-8.5 120.5z" />
<glyph unicode="&#x173;" d="M434 0h44q-60 -50 -56 -84t60 -34v-65q-32 -5 -62 5.5t-45.5 32t-19.5 47t16.5 52.5t62.5 46zM47 166v365h92v-366q0 -45 22 -67t59 -22q51 0 85 11.5t93 42.5v401h92v-531h-69l-23 60q-6 -3 -24 -14t-25.5 -14.5t-23.5 -12t-26.5 -12t-26 -8.5t-31 -6.5t-32.5 -1.5 q-79 0 -120.5 50.5t-41.5 124.5z" />
<glyph unicode="&#x174;" horiz-adv-x="970" d="M356 793l114 131h80l103 -131h-77l-68 68l-74 -68h-78zM42 732h99l200 -587l167 587h102l-63 -222l128 -370l173 592h99l-221 -732h-98l-127 354l-111 -354h-98z" />
<glyph unicode="&#x175;" horiz-adv-x="807" d="M262 592l114 131h80l102 -131h-77l-67 68l-74 -68h-78zM19 531h99l144 -407l126 407h96l-49 -163l108 -244l147 407h99l-194 -531h-97l-107 242l-80 -242h-101z" />
<glyph unicode="&#x176;" horiz-adv-x="637" d="M171 793l115 131h80l102 -131h-77l-68 68l-74 -68h-78zM42 732h100l177 -375l195 375h100l-250 -481v-251h-92v251z" />
<glyph unicode="&#x177;" horiz-adv-x="560" d="M132 596l114 132h80l102 -132h-77l-67 68l-74 -68h-78zM20 531h99l118 -403q3 -9 7 -15.5t8 -11t8.5 -7.5t9 -4.5t9 -2t8.5 -0.5t6.5 0.5t4.5 1l2 0.5l140 442h100l-221 -699l-74 -102h-61l89 270q-96 0 -130 117z" />
<glyph unicode="&#x178;" horiz-adv-x="637" d="M148 850q0 22 15.5 37t37.5 15t37 -15t15 -37t-15 -37.5t-37 -15.5t-37.5 15.5t-15.5 37.5zM403 850q0 22 15.5 37t37.5 15t37 -15t15 -37t-15 -37.5t-37 -15.5t-37.5 15.5t-15.5 37.5zM42 732h100l177 -375l195 375h100l-250 -481v-251h-92v251z" />
<glyph unicode="&#x179;" horiz-adv-x="561" d="M243 797l103 135h102l-130 -135h-75zM33 0v89l379 554h-379v89h496v-89l-375 -554h375v-89h-496z" />
<glyph unicode="&#x17a;" horiz-adv-x="460" d="M193 596l103 134h102l-130 -134h-75zM28 445v86h405v-86l-269 -358h269v-86h-390v86l275 358h-290z" />
<glyph unicode="&#x17b;" horiz-adv-x="561" d="M229 820v60q0 25 24 25h56q11 0 17 -7t6 -18v-60q0 -23 -23 -23h-56q-10 0 -17 6.5t-7 16.5zM33 0v89l379 554h-379v89h496v-89l-375 -554h375v-89h-496z" />
<glyph unicode="&#x17c;" horiz-adv-x="460" d="M179 619v60q0 25 24 25h56q11 0 17 -7t6 -18v-60q0 -23 -23 -23h-56q-11 0 -17.5 6.5t-6.5 16.5zM28 445v86h405v-86l-269 -358h269v-86h-390v86l275 358h-290z" />
<glyph unicode="&#x17d;" horiz-adv-x="561" d="M132 928h78l76 -68l66 68h77l-103 -131h-80zM33 0v89l379 554h-379v89h496v-89l-375 -554h375v-89h-496z" />
<glyph unicode="&#x17e;" horiz-adv-x="460" d="M82 728h78l76 -68l66 68h77l-104 -132h-80zM28 445v86h405v-86l-269 -358h269v-86h-390v86l275 358h-290z" />
<glyph unicode="&#x192;" horiz-adv-x="592" d="M19 -179l8 59h83q20 0 36.5 13.5t27 32t19.5 49t13.5 55t9.5 58.5l47 303h-97l14 84h98l4 31q11 65 25 114.5t36 92t54.5 65t75.5 22.5q15 0 30.5 -2.5t27 -6t20 -6.5t15.5 -6.5t8 -3.5l-9 -59h-81q-16 0 -30 -8.5t-24.5 -25.5t-18.5 -34t-14.5 -45t-10.5 -47t-9 -50 l-5 -32h134l-14 -83h-134l-47 -303q-9 -56 -17 -94t-23 -78.5t-34 -64.5t-48 -39.5t-67 -15.5q-29 0 -61.5 9.5t-41.5 15.5z" />
<glyph unicode="&#x2c6;" horiz-adv-x="389" d="M47 531l114 131h80l102 -131h-77l-68 68l-73 -68h-78zM241 662z" />
<glyph unicode="&#x2c7;" horiz-adv-x="389" d="M47 662h78l75 -68l66 68h77l-103 -131h-80zM240 531z" />
<glyph unicode="&#x2d8;" horiz-adv-x="322" d="M47 644h50q0 -27 19 -45.5t45 -18.5q19 0 34 7.5t23.5 22t8.5 34.5h50q0 -53 -35 -83.5t-81 -30.5t-80 31.5t-34 82.5z" />
<glyph unicode="&#x2d9;" horiz-adv-x="196" d="M47 553v60q0 25 24 25h56q11 0 17 -7t6 -18v-60q0 -23 -23 -23h-56q-11 0 -17.5 6.5t-6.5 16.5z" />
<glyph unicode="&#x2da;" horiz-adv-x="296" d="M47 632q0 28 13.5 51.5t37 37.5t51 14t51 -14t37 -37.5t13.5 -51.5t-13.5 -51.5t-37 -37t-51 -13.5t-51 13.5t-37 37t-13.5 51.5zM97 632q0 -14 7 -25.5t19 -18.5t26 -7q21 0 36 15t15 36q0 14 -7 26t-18.5 19t-25.5 7q-22 0 -37 -15.5t-15 -36.5z" />
<glyph unicode="&#x2db;" horiz-adv-x="219" d="M125 0h44q-60 -49 -56 -83t60 -35v-64q-32 -6 -62 4.5t-46 32t-19.5 47t17 52.5t62.5 46z" />
<glyph unicode="&#x2dc;" horiz-adv-x="432" d="M47 576q17 16 28.5 25t27.5 19.5t31.5 15.5t30.5 5q27 -1 61 -17.5t46 -17.5q27 -1 92 37l22 -47q-2 -2 -15.5 -13.5t-19 -15.5t-18 -13t-20.5 -12.5t-19.5 -7t-21.5 -2.5q-29 1 -60.5 17.5t-48.5 16.5q-19 0 -33 -5t-32.5 -15t-28.5 -15z" />
<glyph unicode="&#x2dd;" horiz-adv-x="385" d="M19 531l102 135h103l-130 -135h-75zM159 531l103 135h102l-130 -135h-75z" />
<glyph unicode="&#x338;" horiz-adv-x="639" d="M65 166v398q0 81 49 124.5t127 43.5h164q45 0 79 -13.5t53 -37t28 -52.5t9 -63v-400q0 -85 -44.5 -125.5t-125.5 -40.5h-164q-78 0 -126.5 40.5t-48.5 125.5zM157 191q0 -31 9 -45l250 495q-7 2 -20 2h-148q-47 0 -69 -24t-22 -59v-369zM212 95q18 -6 37 -6h146 q87 0 87 83v372q0 39 -14 57z" />
<glyph unicode="&#x3a9;" horiz-adv-x="774" d="M61 390q0 40 6 79t20 79.5t39.5 74t60 60t86.5 41.5t115 15q72 0 128.5 -19.5t92 -52.5t58.5 -79.5t32.5 -96t9.5 -107.5q0 -40 -1.5 -68t-8.5 -62t-19 -60t-34.5 -53t-53.5 -51l122 -10v-80h-234v92q38 26 64 53t40.5 51t22 57t9 60.5t1.5 71.5q0 265 -229 265 q-235 0 -235 -270q0 -44 1.5 -68.5t8.5 -55t22 -53.5t41 -51t67 -60v-92h-226v82l127 10q-28 17 -49.5 37.5t-35.5 38.5t-23.5 42t-14.5 41.5t-7.5 45.5t-2.5 44.5v48.5z" />
<glyph unicode="&#x3c0;" horiz-adv-x="640" d="M19 442v89h554v-89h-118v-270q0 -52 16 -72t53 -20h97v-54q-45 -31 -112 -31q-72 0 -109 40.5t-37 134.5v272h-169v-442h-92v442h-83z" />
<glyph unicode="&#x1e02;" horiz-adv-x="598" d="M255 817v60q0 25 24 25h56q11 0 17 -7t6 -18v-60q0 -23 -23 -23h-56q-10 0 -17 6t-7 17zM75 0v732h287q53 0 92.5 -17t61 -46t31.5 -61t10 -68q0 -134 -95 -160q41 -9 71 -53.5t30 -119.5q0 -44 -10 -79.5t-32 -65t-62 -46t-96 -16.5h-288zM168 88h193q110 0 110 122 q0 56 -27.5 93t-82.5 37h-193v-252zM168 426h192q34 0 57.5 12.5t35.5 37.5t12 61q0 32 -9.5 54.5t-25.5 33.5t-33 15t-37 4h-192v-218z" />
<glyph unicode="&#x1e03;" horiz-adv-x="554" d="M50 876v60q0 25 24 25h56q11 0 17 -7t6 -18v-60q0 -23 -23 -23h-56q-10 0 -17 6t-7 17zM55 0v785h90v-285q42 18 96 28.5t91 10.5q44 0 76 -15.5t50.5 -40t29.5 -62t15 -74t4 -84.5q0 -269 -175 -269q-45 0 -102.5 22t-83.5 42l-21 -58h-70zM146 123q94 -43 176 -43 q93 0 93 184q0 76 -11.5 119t-30.5 57.5t-51 14.5q-90 0 -176 -24v-308z" />
<glyph unicode="&#x1e0a;" horiz-adv-x="658" d="M266 824v60q0 25 24 25h56q11 0 17 -7t6 -18v-60q0 -23 -23 -23h-56q-11 0 -17.5 6.5t-6.5 16.5zM75 0v732h282q64 0 112 -24t75 -60t44 -87.5t22.5 -98t5.5 -99.5q0 -56 -8.5 -107t-28.5 -98t-49 -82t-73.5 -55.5t-99.5 -20.5h-282zM167 90h187q59 0 98 37.5t55.5 97.5 t16.5 139q0 151 -43 215.5t-127 64.5h-187v-554z" />
<glyph unicode="&#x1e0b;" horiz-adv-x="554" d="M399 869v60q0 25 24 25h56q11 0 17 -7t6 -18v-60q0 -23 -23 -23h-56q-10 0 -17 6t-7 17zM47 263q0 48 3.5 85t14.5 74.5t30 61.5t51 39.5t75 15.5q24 0 55 -4.5t67 -13.5t65 -21v285h91v-785h-70l-21 58q-26 -20 -84 -42t-103 -22q-174 0 -174 269zM139 264 q0 -184 92 -184q82 0 177 43v308q-87 24 -177 24q-31 0 -50 -14.5t-30.5 -57.5t-11.5 -119z" />
<glyph unicode="&#x1e1e;" horiz-adv-x="567" d="M264 817v60q0 25 24 25h56q11 0 17 -7t6 -18v-60q0 -23 -23 -23h-56q-10 0 -17 6t-7 17zM74 0v595q0 73 38.5 106t96.5 31q300 -14 318 -16v-74h-309q-19 0 -30 -4t-15.5 -14t-5.5 -17t-1 -21v-176l319 -10v-75l-319 -10v-315h-92z" />
<glyph unicode="&#x1e1f;" horiz-adv-x="401" d="M203 887v60q0 25 24 25h56q11 0 17 -7t6 -18v-60q0 -23 -23 -23h-56q-11 0 -17.5 6t-6.5 17zM19 448v66l93 17v99q0 23 2 41.5t10 41t21.5 37.5t39 25.5t59.5 10.5q66 0 138 -24v-58l-115 1q-23 0 -36 -5t-19 -18.5t-7 -25.5t-1 -35v-90h140v-83h-140v-448h-92v448h-93z " />
<glyph unicode="&#x1e40;" horiz-adv-x="813" d="M352 820v60q0 25 24 25h56q11 0 17 -7t6 -18v-60q0 -23 -23 -23h-56q-11 0 -17.5 6.5t-6.5 16.5zM51 0l53 732h127l175 -579l171 579h126l59 -732h-91l-46 568l-169 -568h-98l-174 568l-41 -568h-92z" />
<glyph unicode="&#x1e41;" horiz-adv-x="891" d="M440 620v60q0 25 24 25h56q11 0 17 -7t6 -18v-60q0 -23 -23 -23h-56q-11 0 -17.5 6.5t-6.5 16.5zM56 0v531h69l23 -62q6 3 17 10l16.5 10.5t16 9.5t17 9t16.5 8t18 7.5t18 5.5t19.5 4.5t21 2.5t23.5 1q49 0 88 -20t56 -55q94 75 208 75q73 0 117.5 -48.5t44.5 -126.5 v-362h-92v363q0 27 -10.5 48t-28.5 31.5t-42 10.5q-55 0 -95 -11.5t-83 -40.5v-19v-18v-364h-92v363q0 41 -23 65.5t-59 24.5q-26 0 -46.5 -3t-42.5 -11t-36.5 -15.5t-46.5 -23.5v-400h-92z" />
<glyph unicode="&#x1e56;" horiz-adv-x="586" d="M238 826v60q0 25 24 25h56q11 0 17 -7t6 -18v-60q0 -23 -23 -23h-56q-10 0 -17 6.5t-7 16.5zM58 0v732h304q183 0 183 -216q0 -44 -6.5 -79.5t-16.5 -58.5t-25 -40t-30 -26t-35 -14t-35 -6.5t-35 -1.5q-28 1 -118 9.5t-94 10.5v-310h-92zM150 378h209q21 0 36 5t29 18.5 t21 42t7 72.5q-1 42 -10 69.5t-24.5 39t-28.5 15.5t-30 4h-209v-266z" />
<glyph unicode="&#x1e57;" horiz-adv-x="554" d="M245 630v60q0 25 24 25h56q11 0 17 -7t6 -18v-60q0 -23 -23 -23h-56q-11 0 -17.5 6.5t-6.5 16.5zM56 -270v801h70l21 -57q15 11 45 25.5t70.5 26t71.5 11.5q41 0 72 -15.5t50 -40.5t31 -61t16.5 -72.5t4.5 -79.5q0 -47 -3.5 -83.5t-14.5 -74t-30 -62.5t-51 -40.5 t-75 -15.5q-37 0 -91 10.5t-97 27.5v-300h-90zM147 100q86 -24 177 -24q31 0 50 14.5t30.5 57.5t11.5 118q0 185 -92 185q-83 0 -177 -43v-308z" />
<glyph unicode="&#x1e60;" horiz-adv-x="585" d="M248 830v60q0 25 24 25h56q10 0 16 -7t6 -18v-60q0 -23 -22 -23h-56q-11 0 -17.5 6t-6.5 17zM61 492v65q0 53 14.5 89.5t42.5 55.5t62 27.5t79 8.5q46 0 133 -9t126 -16v-74q-42 3 -138.5 6.5t-110.5 3.5q-29 1 -47 -1t-35.5 -11t-25.5 -29.5t-8 -53.5v-58 q0 -57 22.5 -73.5t72.5 -16.5h135q161 0 161 -178v-63q0 -43 -12 -75t-30.5 -50.5t-46 -29.5t-54 -14.5t-59.5 -3.5q-51 0 -134 8.5t-125 17.5v74q110 -11 251 -11q17 0 29 1t30 5.5t30 12.5t20.5 24.5t8.5 39.5v60q0 43 -17 66.5t-61 23.5h-132q-47 0 -82 11.5t-53.5 28 t-29.5 42t-13.5 47t-2.5 49.5z" />
<glyph unicode="&#x1e61;" horiz-adv-x="506" d="M220 629v60q0 25 24 25h56q11 0 17 -7t6 -18v-60q0 -23 -23 -23h-56q-10 0 -17 6.5t-7 16.5zM37 355v46q0 65 32 100t106 35q54 0 143.5 -6t123.5 -13v-66h-255q-20 0 -32.5 -3t-17.5 -11.5t-6.5 -16t-1.5 -21.5v-40q0 -34 14 -42.5t44 -8.5h149q44 0 74.5 -17.5 t44.5 -46.5t14 -68v-50q0 -131 -130 -131q-51 0 -152 7.5t-128 14.5v64h268q50 0 50 48v42q0 26 -11 38t-39 12h-149q-73 0 -107 29.5t-34 104.5z" />
<glyph unicode="&#x1e6a;" horiz-adv-x="582" d="M240 820v60q0 25 24 25h56q11 0 17 -7t6 -18v-60q0 -23 -23 -23h-56q-11 0 -17.5 6.5t-6.5 16.5zM41 643v89h517v-89h-215v-643h-92v643h-210z" />
<glyph unicode="&#x1e6b;" horiz-adv-x="379" d="M116 764v60q0 25 24 25h56q11 0 17 -7t6 -18v-60q0 -23 -23 -23h-56q-11 0 -17.5 6t-6.5 17zM19 449v62l95 21l20 148h72v-148h145v-83h-145v-253q0 -59 13.5 -82t40.5 -30q76 -21 83 -21v-62h-97q-132 0 -132 189v259h-95z" />
<glyph unicode="&#x1e80;" horiz-adv-x="970" d="M335 927h103l102 -134h-75zM42 732h99l200 -587l167 587h102l-63 -222l128 -370l173 592h99l-221 -732h-98l-127 354l-111 -354h-98z" />
<glyph unicode="&#x1e81;" horiz-adv-x="807" d="M241 726h103l102 -134h-75zM19 531h99l144 -407l126 407h96l-49 -163l108 -244l147 407h99l-194 -531h-97l-107 242l-80 -242h-101z" />
<glyph unicode="&#x1e82;" horiz-adv-x="970" d="M466 793l103 134h102l-130 -134h-75zM42 732h99l200 -587l167 587h102l-63 -222l128 -370l173 592h99l-221 -732h-98l-127 354l-111 -354h-98z" />
<glyph unicode="&#x1e83;" horiz-adv-x="807" d="M372 592l102 134h103l-130 -134h-75zM19 531h99l144 -407l126 407h96l-49 -163l108 -244l147 407h99l-194 -531h-97l-107 242l-80 -242h-101z" />
<glyph unicode="&#x1e84;" horiz-adv-x="970" d="M322 846q0 22 15.5 37t37.5 15t37 -15t15 -37t-15 -37.5t-37 -15.5t-37.5 15.5t-15.5 37.5zM577 846q0 22 15.5 37t37.5 15t37 -15t15 -37t-15 -37.5t-37 -15.5t-37.5 15.5t-15.5 37.5zM42 732h99l200 -587l167 587h102l-63 -222l128 -370l173 592h99l-221 -732h-98 l-127 354l-111 -354h-98z" />
<glyph unicode="&#x1e85;" horiz-adv-x="807" d="M229 645q0 22 15.5 37t37.5 15t37 -15t15 -37t-15 -37.5t-37 -15.5t-37.5 15.5t-15.5 37.5zM484 645q0 11 4 20.5t11.5 16.5t17 11t20.5 4q22 0 37 -15t15 -37t-15 -37.5t-37 -15.5t-37.5 15.5t-15.5 37.5zM19 531h99l144 -407l126 407h96l-49 -163l108 -244l147 407h99 l-194 -531h-97l-107 242l-80 -242h-101z" />
<glyph unicode="&#x1ef2;" horiz-adv-x="637" d="M160 932h103l103 -135h-76zM42 732h100l177 -375l195 375h100l-250 -481v-251h-92v251z" />
<glyph unicode="&#x1ef3;" horiz-adv-x="560" d="M121 730h102l103 -134h-75zM20 531h99l118 -403q3 -9 7 -15.5t8 -11t8.5 -7.5t9 -4.5t9 -2t8.5 -0.5t6.5 0.5t4.5 1l2 0.5l140 442h100l-221 -699l-74 -102h-61l89 270q-96 0 -130 117z" />
<glyph unicode="&#x2013;" horiz-adv-x="513" d="M20 244v87h473v-87h-473z" />
<glyph unicode="&#x2014;" horiz-adv-x="736" d="M20 246v87h696v-87h-696z" />
<glyph unicode="&#x2018;" horiz-adv-x="267" d="M75 546v108q0 30 11.5 50t28 27t32.5 9.5t28 1.5l11 -2v-41q-33 1 -33 -33v-26h12q27 0 27 -27v-67q0 -30 -27 -30h-65q-25 0 -25 30z" />
<glyph unicode="&#x2019;" horiz-adv-x="267" d="M75 646v67q0 29 27 29h65q25 0 25 -29v-108q0 -31 -11.5 -51t-28 -27t-32.5 -9.5t-28 -1.5l-11 2v40q33 -1 33 35v25h-12q-5 0 -10 1.5t-9 5t-6 9t-2 12.5z" />
<glyph unicode="&#x201a;" horiz-adv-x="267" d="M75 27v67q0 30 27 30h65q25 0 25 -30v-108q0 -31 -11.5 -51t-28 -27t-32.5 -9.5t-28 -1.5l-11 2v41q33 -1 33 34v25h-12q-12 0 -19.5 7t-7.5 21z" />
<glyph unicode="&#x201c;" horiz-adv-x="420" d="M235 546v108q0 30 11.5 50t28 27t33 9.5t27.5 0.5l12 -1v-41q-34 1 -34 -33v-26h12q12 0 19.5 -7t7.5 -20v-67q0 -30 -27 -30h-64q-26 0 -26 30zM68 546v108q0 30 11.5 50t28 27t33 9.5t27.5 0.5l12 -1v-41q-34 1 -34 -33v-26h12q6 0 11 -1.5t8.5 -5t6 -8.5t2.5 -12v-67 q0 -30 -28 -30h-64q-26 0 -26 30z" />
<glyph unicode="&#x201d;" horiz-adv-x="420" d="M68 645v67q0 30 27 30h64q27 0 27 -30v-108q0 -22 -6.5 -38.5t-16.5 -25.5t-22 -15t-24 -7.5t-21.5 -1.5t-16.5 1l-6 1v40q34 -1 34 34v26h-12q-12 0 -19.5 7t-7.5 20zM235 645v67q0 30 27 30h64q26 0 26 -30v-108q0 -22 -6 -38.5t-16 -25.5t-22 -15t-24 -7.5t-21.5 -1.5 t-15.5 1l-7 1v40q34 -1 34 34v26h-12q-6 0 -10.5 1.5t-8.5 5t-6 8.5t-2 12z" />
<glyph unicode="&#x201e;" horiz-adv-x="420" d="M68 27v67q0 30 27 30h64q27 0 27 -30v-108q0 -22 -6.5 -39t-16.5 -26t-22 -15t-24 -7.5t-21.5 -1.5t-16.5 1l-6 1v41q34 -1 34 34v25h-12q-12 0 -19.5 7t-7.5 21zM235 27v67q0 30 27 30h64q26 0 26 -30v-108q0 -22 -6 -39t-16 -26t-22 -15t-24 -7.5t-21.5 -1.5t-15.5 1 l-7 1v41q34 -1 34 34v25h-12q-12 0 -19.5 7t-7.5 21z" />
<glyph unicode="&#x2020;" horiz-adv-x="399" d="M19 479v73l133 10l8 208h80l9 -208l132 -10v-73l-132 -11l-10 -540h-80l-7 540z" />
<glyph unicode="&#x2021;" horiz-adv-x="417" d="M19 166v73l134 11l-1 218l-133 11v73l133 10l9 208h79l9 -208l132 -10v-73l-132 -11l-3 -218l135 -11v-73l-138 -11l-4 -227h-80l-4 227z" />
<glyph unicode="&#x2022;" horiz-adv-x="311" d="M79 336v90q0 35 33 35h85q35 0 35 -35v-90q0 -32 -35 -32h-85q-15 0 -24 8.5t-9 23.5z" />
<glyph unicode="&#x2026;" horiz-adv-x="813" d="M538 23v66q0 25 24 25h62q25 0 25 -25v-66q0 -23 -25 -23h-62q-10 0 -17 6.5t-7 16.5zM348 23v66q0 25 24 25h62q25 0 25 -25v-66q0 -23 -25 -23h-62q-11 0 -17.5 6.5t-6.5 16.5zM157 23v66q0 25 24 25h62q25 0 25 -25v-66q0 -23 -25 -23h-62q-10 0 -17 6.5t-7 16.5z" />
<glyph unicode="&#x2030;" horiz-adv-x="1380" d="M39 476v130q0 66 29 96t102 30h101q71 0 99.5 -30t28.5 -96v-130q0 -67 -28.5 -97t-101.5 -30h-101q-72 0 -100.5 30t-28.5 97zM113 480q0 -34 12.5 -45.5t46.5 -11.5h93q39 0 49.5 12t10.5 45v121q0 34 -12 45.5t-46 11.5h-93q-39 0 -50 -11.5t-11 -45.5v-121zM222 0 l440 732h79l-439 -732h-80zM558 129v130q0 33 6 55.5t21 39t40.5 24t62.5 7.5h101q72 0 100.5 -30t28.5 -96v-130q0 -67 -28.5 -97t-102.5 -30h-101q-71 0 -99.5 30.5t-28.5 96.5zM632 133q0 -33 12 -45t46 -12h93q39 0 50 12t11 45v121q0 34 -12.5 45.5t-46.5 11.5h-93 q-38 0 -49 -11.5t-11 -45.5v-121zM981 129v130q0 66 29 96t102 30h101q71 0 99.5 -30t28.5 -96v-130q0 -67 -28.5 -97t-101.5 -30h-101q-71 0 -100 30.5t-29 96.5zM1055 133q0 -23 5.5 -35t18 -17t35.5 -5h93q21 0 32.5 3t18 10.5t8 17t1.5 26.5v121q0 34 -12 45.5t-46 11.5 h-93q-27 0 -39.5 -5.5t-17 -17t-4.5 -34.5v-121z" />
<glyph unicode="&#x2039;" horiz-adv-x="356" d="M47 354l206 203l58 -58l-148 -145l153 -149l-58 -59z" />
<glyph unicode="&#x203a;" horiz-adv-x="356" d="M47 205l152 149l-148 145l59 58l206 -203l-211 -208z" />
<glyph unicode="&#x2044;" horiz-adv-x="257" d="M-84 0l351 738h74l-350 -738h-75z" />
<glyph unicode="&#x2070;" horiz-adv-x="467" d="M56 510v251q0 60 31 86.5t90 26.5h117q116 0 116 -112v-252q0 -65 -29.5 -88.5t-86.5 -23.5h-117q-22 0 -38 2t-32.5 9t-27 19.5t-17 33t-6.5 48.5zM132 519q0 -29 11 -39t44 -10h96q34 0 44 10.5t10 38.5v234q0 27 -11 38t-42 11h-98q-34 0 -44 -12.5t-10 -36.5v-234z " />
<glyph unicode="&#x2074;" horiz-adv-x="420" d="M15 542l198 332h82l-171 -286h152v116l27 48h48v-164h56v-61l-56 -12v-116h-75v113h-239z" />
<glyph unicode="&#x2075;" horiz-adv-x="418" d="M51 408v59h206q49 0 49 51v50v14t-2.5 14.5t-7 14.5t-14.5 9.5t-24 4.5h-102q-42 0 -42 -45h-62l15 294h299v-72h-231l-7 -125q8 8 22 13t32.5 6t31 1.5t33 -0.5t23.5 -1q56 -1 83.5 -33.5t27.5 -88.5v-64q0 -60 -31 -88t-83 -28h-75.5t-60 3.5t-80.5 10.5z" />
<glyph unicode="&#x2076;" horiz-adv-x="439" d="M51 649q1 57 8 98.5t18 65.5t27.5 39t32.5 20.5t38 7.5q80 7 210 -13v-59h-195q-21 0 -35 -13t-19.5 -38t-7.5 -43.5t-2 -45.5q100 14 166 14q33 0 55.5 -8t33.5 -24t15.5 -33t4.5 -40v-71q0 -54 -29.5 -81t-80.5 -27h-106q-20 0 -36 4t-32 14t-27.5 28.5t-20.5 45.5 t-13.5 67t-4.5 92zM126 611q0 -12 0.5 -23t2.5 -29t6.5 -32t11 -27.5t18 -21t26.5 -7.5h91q24 0 34.5 10.5t10.5 35.5v54q0 24 -10 32t-34 8h-157z" />
<glyph unicode="&#x2077;" horiz-adv-x="375" d="M14 804v72h327l19 -35l-182 -443h-83l168 406h-249z" />
<glyph unicode="&#x2078;" horiz-adv-x="465" d="M62 503v54q0 58 55 73q-55 20 -55 92v40q0 65 31.5 91t88.5 26h110q37 0 61.5 -11t37.5 -37t13 -68v-39q0 -5 -0.5 -12t-3 -17.5t-7.5 -19t-15 -16t-23 -10.5q25 -4 37 -32.5t12 -55.5v-57q0 -61 -30 -84t-79 -23h-119q-36 0 -59.5 8.5t-35 25t-15.5 33.5t-4 39zM136 511 q0 -24 10 -33t38 -9h101q44 0 44 42v45q0 48 -43 48h-103q-12 0 -20.5 -2.5t-14.5 -8t-9 -14.5t-3 -23v-45zM136 725q0 -50 47 -50h99q16 0 26 4.5t14.5 12.5t5.5 15.5t1 17.5v29q0 32 -11.5 43t-39.5 11h-88q-31 0 -42.5 -11t-11.5 -43v-29z" />
<glyph unicode="&#x2079;" horiz-adv-x="439" d="M42 701v72q0 54 30 81t80 27h106q25 0 43.5 -6t36.5 -22t29.5 -43.5t18.5 -73t6 -108.5q0 -56 -7 -97.5t-17.5 -66t-27 -39.5t-32.5 -20.5t-38 -7.5q-104 -9 -212 12v60h195q17 0 29.5 10t19 23.5t10 35t4.5 36.5t2 36q-101 -15 -166 -15q-63 0 -86.5 29t-23.5 77z M117 708q0 -24 10 -32.5t33 -8.5h158q0 141 -63 141h-94q-24 0 -34 -11t-10 -36v-53z" />
<glyph unicode="&#x207f;" horiz-adv-x="403" d="M35 378v354h52l22 -45q4 3 20 12.5t21.5 12.5t19.5 10t23 9.5t23.5 5t28.5 2.5q60 0 91 -33.5t31 -83.5v-244h-75v234q0 29 -16.5 44t-42.5 15q-24 0 -45.5 -5t-32 -9.5t-45.5 -20.5v-258h-75z" />
<glyph unicode="&#x2080;" horiz-adv-x="467" d="M56 -87v250q0 61 31 87.5t90 26.5h117q116 0 116 -113v-251q0 -65 -29.5 -89t-86.5 -24h-117q-27 0 -46.5 4t-37.5 15.5t-27.5 35t-9.5 58.5zM132 -78q0 -29 11 -39.5t44 -10.5h96q34 0 44 11t10 39v233q0 27 -11 38t-42 11h-98q-34 0 -44 -12t-10 -37v-233z" />
<glyph unicode="&#x2081;" horiz-adv-x="270" d="M15 170v54l121 54h74v-477h-74v401z" />
<glyph unicode="&#x2082;" horiz-adv-x="391" d="M30 212q-1 0 -1 14.5v28.5t1 14q119 16 188 16q134 0 134 -139q0 -19 -5.5 -40t-13 -38.5t-21.5 -38t-24.5 -34.5t-29 -33t-28 -28.5t-28.5 -26t-22.5 -19.5t-18.5 -15h191v-72h-319v68q4 4 39 30t54 41t51.5 44.5t50.5 52t32.5 51t14.5 53.5q0 38 -17 54.5t-59 16.5 h-169z" />
<glyph unicode="&#x2083;" horiz-adv-x="407" d="M28 208v53q27 10 64.5 14t59 4.5t77.5 0.5q61 0 92 -33.5t31 -84.5v-34q0 -34 -14.5 -57.5t-36.5 -31.5q51 -28 51 -96v-26q0 -58 -29.5 -89t-98.5 -31h-24h-24.5h-21.5t-22.5 0.5t-19.5 1.5t-21.5 2.5t-19 3t-20.5 4.5t-19 6l1 53l173 1q40 0 55.5 12t15.5 43v20 q0 61 -67 63l-138 5v57l138 7q68 3 68 58v20q0 54 -68 54h-182z" />
<glyph unicode="&#x2084;" horiz-adv-x="421" d="M15 -55l198 332h83l-170 -287h151v116l27 49h48v-165h56v-61l-56 -11v-117h-75v114h-240z" />
<glyph unicode="&#x2085;" horiz-adv-x="418" d="M52 -16l15 293h299v-73h-231l-7 -124q8 8 22 12.5t32.5 6t31 1.5t33.5 -1t24 -1q56 0 83.5 -33t27.5 -89v-64q0 -59 -31.5 -87.5t-83.5 -28.5h-58t-45 1.5t-55.5 4.5t-57.5 9v59h207q49 0 49 51v49v10.5t-1 10.5t-2.5 11t-5 9.5t-8.5 8.5t-13 5t-18 2h-102q-42 0 -42 -43 h-63z" />
<glyph unicode="&#x2086;" horiz-adv-x="439" d="M51 52q1 56 8 97.5t18 66t27.5 39.5t32.5 20.5t38 6.5q103 8 210 -12v-59h-195q-21 0 -35 -13.5t-19.5 -38.5t-7.5 -43.5t-2 -44.5q100 14 166 14q33 0 55.5 -8.5t33.5 -24t15.5 -33t4.5 -39.5v-72q0 -53 -29.5 -80t-80.5 -27h-106q-24 0 -42.5 5.5t-36.5 21.5t-30 43.5 t-18.5 73t-6.5 107.5zM126 14q0 -15 0.5 -29t4.5 -36t10.5 -37.5t19 -27t30.5 -11.5h91q24 0 34.5 11t10.5 36v53q0 24 -10 32.5t-34 8.5h-157z" />
<glyph unicode="&#x2087;" horiz-adv-x="375" d="M14 206v73h327l19 -36l-182 -442h-83l168 405h-249z" />
<glyph unicode="&#x2088;" horiz-adv-x="465" d="M62 -40q0 58 55 73q-55 19 -55 91v41q0 65 31.5 91t88.5 26h110q37 0 61.5 -11.5t37.5 -37.5t13 -68v-38q0 -8 -1 -17.5t-5.5 -22t-15.5 -22.5t-27 -13q25 -5 37 -33t12 -56v-57q0 -60 -30 -83.5t-79 -23.5h-119q-36 0 -59.5 9t-35 25.5t-15.5 33t-4 38.5v55zM136 -41 v-46q0 -23 10 -32.5t38 -9.5h101q44 0 44 42v46q0 47 -43 47h-103q-24 0 -35.5 -10.5t-11.5 -36.5zM136 127q0 -50 47 -50h99q16 0 26 4.5t14.5 13t5.5 15.5t1 17v30q0 32 -11.5 43t-39.5 11h-88q-31 0 -42.5 -11.5t-11.5 -42.5v-30z" />
<glyph unicode="&#x2089;" horiz-adv-x="439" d="M42 104v71q0 54 30 81t80 27h106q25 0 43.5 -5.5t36.5 -22t29.5 -43.5t18.5 -73t6 -108q0 -56 -7 -97.5t-17.5 -66t-27 -39.5t-32.5 -20.5t-38 -7.5q-101 -9 -212 12v59h195q17 0 29.5 10t19 24t10 35.5t4.5 36.5t2 35q-101 -14 -166 -14q-63 0 -86.5 28.5t-23.5 77.5z M117 110q0 -16 5 -25.5t14 -12.5t24 -3h158q0 142 -63 142h-94q-24 0 -34 -11t-10 -36v-54z" />
<glyph unicode="&#x20ac;" horiz-adv-x="612" d="M19 254v52l85 8v92l-85 8v48l85 10v5v30t2 34t6 38.5t12 38t19.5 38t30 33t41.5 27.5t55 17t71 7t117 -10t132 -22v-70q-159 14 -240 14q-43 0 -72 -8.5t-45 -22.5t-24.5 -39.5t-10.5 -48.5t-2 -61l234 -8v-52l-234 -6v-92l234 -8v-52q-15 -1 -39.5 -1.5t-76.5 -1.5 t-85.5 -2.5t-32.5 -2.5q0 -46 11 -79t32.5 -51.5t48.5 -27t62 -8.5q42 0 103 4.5t101 9.5l40 4v-68q-113 -36 -253 -36q-19 0 -37.5 2t-43 8.5t-45.5 17.5t-42 30.5t-36 45t-24 64t-9 84.5z" />
<glyph unicode="&#x2113;" horiz-adv-x="406" d="M28 250q25 22 57 56v314q1 55 37 87t94 32q60 0 95.5 -41.5t36.5 -107.5q1 -75 -47 -156t-124 -146v-90q1 -68 12.5 -88t53.5 -28q0 -1 41.5 -10.5t43.5 -9.5v-62h-26.5h-53.5h-26q-74 1 -105.5 44t-31.5 143v41q-13 -10 -31 -20zM177 402q105 140 78 225q-3 12 -15.5 20 t-26.5 8.5t-25 -9.5t-11 -30v-214z" />
<glyph unicode="&#x2116;" horiz-adv-x="1073" d="M67 0v640q0 34 17.5 58.5t44 32.5t55 5.5t53 -21t34.5 -48.5l234 -569q5 -13 14.5 -11t9.5 14v467q0 86 46.5 126.5t121.5 40.5l205 -1q75 -2 104.5 -44t29.5 -137q0 -87 -30.5 -129t-106.5 -43h-60q-79 1 -107.5 48.5t-28.5 179.5h74q0 -44 3.5 -73.5t8.5 -46t15 -24.5 t18.5 -10t22.5 -2h48q18 0 28.5 3t21 12.5t15 30t4.5 54.5q0 29 -3 48.5t-7.5 30.5t-14.5 17t-19.5 7.5t-26.5 1.5q-104 1 -173 1q-97 0 -97 -95v-472q0 -22 -9 -41t-24 -31t-33.5 -19.5t-38.5 -6.5t-38.5 7.5t-33.5 23t-23 40.5l-237 575q-4 11 -14.5 8t-10.5 -15v-633h-92 z" />
<glyph unicode="&#x2122;" horiz-adv-x="695" d="M19 664v68h265v-68h-97v-281h-71v281h-97zM317 383l30 349h71l84 -228l72 228h74l34 -349h-72l-17 197l-59 -197h-61l-70 198l-15 -198h-71z" />
<glyph unicode="&#x212e;" horiz-adv-x="714" d="M56 266q0 113 84 192q43 38 94.5 56.5t122.5 18.5q66 0 115 -16t93 -50q87 -67 93 -209h-479h-2h-5.5t-3 -3t-1.5 -8v-133q0 -8 8.5 -20t25.5 -24.5t39.5 -23.5t53.5 -18t63 -7q55 0 106.5 23.5t84.5 60.5h56q-58 -61 -113 -83q-58 -22 -134 -22q-138 0 -218 74 q-83 77 -83 192zM167 284q0 -6 2 -7.5t7 -1.5h357h7q4 -1 5 0t1 7v133q0 32 -63 65.5t-127 33.5q-38 0 -74.5 -11t-60.5 -26.5t-39 -31t-15 -24.5v-137z" />
<glyph unicode="&#x2202;" horiz-adv-x="642" d="M53 227q0 75 29.5 128.5t86.5 81.5t138 28q100 0 166 -57q-4 94 -25 147.5t-58 74.5t-98 21q-50 0 -99 -15.5t-81 -35.5l-23 62q41 27 65.5 41t62.5 25.5t78 11.5q271 0 271 -353q0 -79 -15 -147.5t-46 -124t-83 -88t-120 -32.5t-123 24.5t-90.5 78t-35.5 129.5zM145 230 q0 -70 45 -108t112 -38q32 0 59 14t45 37t31 50.5t20.5 57.5t10.5 54t4 43q-65 36 -159 36q-87 0 -127.5 -39.5t-40.5 -106.5z" />
<glyph unicode="&#x2206;" horiz-adv-x="721" d="M19 0l311 732h74l299 -732h-684zM153 88h426l-209 516z" />
<glyph unicode="&#x220f;" horiz-adv-x="645" d="M19 643v89h608v-89h-84v-643h-92v643h-257v-643h-92v643h-83z" />
<glyph unicode="&#x2211;" horiz-adv-x="581" d="M37 -108l214 378l-214 373v89h526v-89h-414l213 -373l-213 -378h414v-92h-526v92z" />
<glyph unicode="&#x2212;" horiz-adv-x="456" d="M20 313v86h416v-86h-416z" />
<glyph unicode="&#x221a;" horiz-adv-x="636" d="M19 272v89h141l118 -234l245 673h95l-290 -800h-86l-141 272h-82z" />
<glyph unicode="&#x221e;" horiz-adv-x="779" d="M47 341q0 36 6.5 64.5t24 54.5t51.5 40t84 14q36 0 70 -13.5t60 -36t46 -52.5q30 46 76.5 74t101.5 28q49 0 83.5 -14t51.5 -40t24 -54.5t7 -64.5t-8.5 -66t-27 -54.5t-51.5 -38t-79 -13.5q-59 0 -102.5 24t-76.5 81q-32 -57 -75 -81t-100 -24q-46 0 -79.5 13.5t-52 38 t-26.5 54.5t-8 66zM130 341q0 -44 17.5 -67.5t67.5 -23.5q43 0 74.5 25t59.5 66q-24 38 -61 65t-73 27q-29 0 -47 -6.5t-26 -21t-10 -28t-2 -36.5zM430 341q13 -19 25.5 -33.5t29 -28.5t37 -21.5t42.5 -7.5q86 0 86 91q0 22 -2.5 36t-10.5 28t-26 21t-47 7q-37 0 -73.5 -27 t-60.5 -65z" />
<glyph unicode="&#x222b;" horiz-adv-x="441" d="M19 -120h82q13 0 23.5 5t17.5 15t12.5 21t9 28.5t5.5 31t3 35.5t1.5 35.5t0.5 36.5v418q0 65 6.5 114.5t21.5 92t44 65t72 22.5q18 0 33.5 -2t26.5 -5t18.5 -6t15 -7t11.5 -5v-59h-81q-20 0 -34 -13.5t-22 -32t-12.5 -49t-6 -55.5t-1.5 -60v-418q0 -53 -3 -93.5 t-12 -79.5t-24 -64t-40.5 -40t-60.5 -15q-70 0 -107 25v59z" />
<glyph unicode="&#x2248;" horiz-adv-x="525" d="M47 253q20 17 31 25.5t31.5 21t41 18.5t43.5 6q30 0 74.5 -18.5t74.5 -18.5q21 0 36.5 4.5t39.5 17t37 17.5l22 -48q-5 -4 -27.5 -22.5t-34 -25.5t-33 -15.5t-42.5 -8.5q-29 0 -74 19t-75 19q-23 0 -42 -6t-42.5 -16.5t-39.5 -15.5zM47 431q20 17 31 25.5t31.5 21.5 t41 18.5t43.5 5.5q30 0 74.5 -18.5t74.5 -18.5q21 0 36.5 4.5t39.5 17t37 17.5l22 -48q-5 -4 -27.5 -22.5t-34 -25.5t-33 -15.5t-42.5 -8.5q-29 0 -74 19t-75 19q-23 0 -42 -6t-42.5 -16.5t-39.5 -15.5z" />
<glyph unicode="&#x2260;" horiz-adv-x="464" d="M19 204v91h148l70 116h-218v90h272l44 72h64l-44 -72h91v-90h-145l-70 -116h215v-91h-269l-50 -83h-64l50 83h-94z" />
<glyph unicode="&#x2264;" horiz-adv-x="468" d="M47 98v83h375v-83h-375zM47 387v93l375 155v-94l-263 -107l263 -117v-95z" />
<glyph unicode="&#x2265;" horiz-adv-x="468" d="M47 98v83h376v-83h-376zM48 222v95l262 117l-262 107v93l375 -154v-93z" />
<glyph unicode="&#x25ca;" horiz-adv-x="519" d="M19 373l207 359h74l201 -359l-201 -373h-74zM121 373l142 -253l136 253l-136 243z" />
<glyph unicode="&#xe000;" horiz-adv-x="530" d="M0 530h530v-530h-530v530z" />
<glyph unicode="&#xfb00;" horiz-adv-x="785" d="M19 448v66l99 17v89q0 156 129 156q66 0 140 -24v-58l-114 1q-22 0 -35.5 -5.5t-19.5 -18.5t-7 -25t-1 -34v-81h287v99q0 19 1.5 34.5t5.5 34.5t13.5 33.5t23.5 27t36.5 19.5t51.5 7q66 0 138 -24v-58l-115 1q-18 0 -30.5 -4.5t-19 -10t-9.5 -18.5t-3.5 -22.5t-0.5 -28.5 v-90h138v-83h-140v-448h-92v448h-287v-448h-92v448h-97z" />
<glyph unicode="&#xfb03;" horiz-adv-x="981" d="M19 448v66l99 17v89q0 156 129 156q66 0 140 -24v-58l-114 1q-18 0 -30 -4.5t-18.5 -10t-10 -19t-4 -22t-0.5 -27.5l-2 -81h270v49q0 91 55 148.5t147 57.5q37 0 100.5 -10.5t99.5 -22.5v-58l-174 10q-20 1 -38 -1.5t-36.5 -11t-31.5 -22.5t-21.5 -37.5t-8.5 -53.5v-48 l356 -10v-521h-93v448h-264v-448h-92v448h-269v-448h-92v448h-97z" />
<glyph unicode="&#xfb04;" horiz-adv-x="1083" d="M19 448v66l99 17v89q0 156 129 156q66 0 140 -24v-58l-114 1q-18 0 -30 -4.5t-18.5 -10.5t-10 -18.5t-4 -21.5t-0.5 -28l-2 -81h271v51q0 61 17.5 105.5t57 70.5t97.5 26h277v-589q0 -61 11 -81.5t43 -30.5q76 -21 83 -21v-62h-95q-72 0 -103 42.5t-31 146.5v516h-165 q-33 0 -54 -9.5t-33.5 -37t-12.5 -76.5v-51h139v-83h-141v-448h-92v448h-269v-448h-92v448h-97z" />
<glyph unicode="&#xfb06;" horiz-adv-x="885" d="M37 350v48q0 64 33 99t107 35h448l19 148h73v-148h145v-81h-145v-255q0 -36 2.5 -56t10 -32t16 -16t26.5 -8q72 -19 74 -19v-64h-89q-71 0 -101.5 42.5t-30.5 146.5v259l-438 -1q-38 0 -48 -12t-10 -41v-41q0 -18 4 -29t13 -15.5t17.5 -5.5t23.5 -1h149q44 0 74.5 -17.5 t44.5 -46.5t14 -68v-45q0 -131 -130 -131q-46 0 -149.5 7.5t-130.5 14.5v64h268q50 0 50 48v37q0 17 -4 27.5t-15.5 16.5t-30.5 6h-149q-73 0 -107 29.5t-34 104.5z" />
<glyph horiz-adv-x="270" d="M79 642v66q0 23 23 23h64q10 0 17 -6.5t7 -16.5v-66q0 -25 -24 -25h-64q-11 0 -17 7t-6 18zM83 0l9 535h85l9 -535h-103z" />
<glyph horiz-adv-x="639" d="M65 166v297q0 81 49 124.5t127 43.5h164q45 0 78.5 -12.5t53 -36t28.5 -52.5t9 -65v-299q0 -85 -44.5 -125.5t-125.5 -40.5h-164q-78 0 -126.5 40.5t-48.5 125.5zM157 173q0 -45 26.5 -64.5t65.5 -19.5h146q87 0 87 83v287q0 83 -86 83h-148q-47 0 -69 -23.5t-22 -59.5 v-286z" />
<glyph horiz-adv-x="359" d="M28 484v63l161 85h92v-632h-92v533z" />
<glyph horiz-adv-x="594" d="M38 549v68q172 26 303 22q105 0 156 -49.5t51 -139.5q0 -47 -28.5 -98.5t-68.5 -91.5t-89 -78.5t-82 -59.5t-56 -33h320v-89h-500v83q30 17 47 26.5t53.5 31t60.5 37t60 40t59.5 44.5t50.5 45.5t43 47.5t26.5 46.5t10.5 46.5q0 53 -30 78t-97 23h-290z" />
<glyph horiz-adv-x="609" d="M47 550v61q41 15 95.5 21.5t108 7t115.5 -0.5q81 -1 127.5 -47.5t46.5 -120.5v-65q0 -110 -69 -137q69 -39 69 -146v-54q0 -171 -181 -171h-36.5h-38.5t-34.5 0.5t-37 1t-32.5 2t-35 3.5t-30.5 5t-33 7t-28.5 9l1 62h286q50 0 78 17.5t28 68.5v52q0 94 -100 98l-231 6v74 l231 10q102 4 102 91v60q0 30 -15 49.5t-37 27.5t-50 8h-299z" />
<glyph horiz-adv-x="607" d="M19 124l304 508h106l-273 -460h256v197l35 75h57v-272h85v-72l-85 -20v-178h-92v178h-359z" />
<glyph horiz-adv-x="617" d="M71 -10h298q46 0 65.5 25.5t19.5 61.5v98v15.5t-2 16.5t-5 17t-9 15t-15 12.5t-22 8t-30 3.5h-138q-32 0 -54 -17.5t-22 -52.5h-84l22 439h428v-89h-342l-11 -221q21 22 73 28q22 3 49 3t55 -1t35 -2q57 0 94.5 -22.5t53.5 -59.5t16 -88v-111q0 -49 -16.5 -84.5 t-43.5 -54t-54 -26.5t-55 -8q-102 0 -156.5 4t-149.5 20v70z" />
<glyph horiz-adv-x="619" d="M61 384q0 95 14.5 166t40 110t54.5 57.5t63 19.5q152 4 306 -19v-69h-278q-22 0 -39.5 -11.5t-29 -32t-19.5 -44t-12 -52t-6 -51.5t-2 -46q144 20 246 20q34 0 60 -5.5t44 -16t30 -24t18.5 -32t9 -36.5t2.5 -40v-126q0 -153 -165 -153h-148q-35 0 -62 10t-52 35.5t-41 68 t-25 111t-9 160.5zM153 345q0 -30 1 -53t4 -55.5t10.5 -56.5t19 -46t30.5 -34t44 -12h129q20 0 33.5 2.5t25 10.5t17 23.5t5.5 39.5v109q0 41 -21.5 56.5t-58.5 15.5h-239z" />
<glyph horiz-adv-x="548" d="M28 543v89h462l30 -52l-259 -680h-106l249 643h-376z" />
<glyph horiz-adv-x="631" d="M70 158v91q0 84 83 109q-31 11 -50 35.5t-26 50t-7 55.5v65q0 95 47 134t132 39h148q83 0 124 -41t41 -132v-62q0 -12 -2 -26.5t-8.5 -34t-23.5 -35t-41 -20.5q19 -4 34.5 -19t24 -35.5t12.5 -40.5t4 -38v-94q0 -39 -11 -68.5t-27.5 -46t-40 -27t-44 -14t-43.5 -3.5h-147 q-50 0 -85.5 13t-53 29.5t-27.5 41.5t-11.5 40t-1.5 34zM162 160q0 -36 22.5 -54t71.5 -18h131q35 0 59 18.5t24 53.5v95q0 37 -23 56.5t-57 19.5h-144q-37 0 -60.5 -18t-23.5 -58v-95zM162 494q0 -29 15 -47.5t32.5 -24.5t36.5 -6h143q81 0 81 78v62q0 51 -20 72.5 t-62 21.5h-132q-50 0 -72 -18t-22 -76v-62z" />
<glyph horiz-adv-x="619" d="M56 354v125q0 153 166 153h147q35 0 62.5 -9.5t52 -35.5t40.5 -68.5t25.5 -110.5t9.5 -161q0 -95 -15 -166t-40.5 -110t-54.5 -57.5t-62 -19.5q-182 -4 -307 19v69h279q26 0 45.5 17.5t31 42.5t18.5 59t9.5 61.5t3.5 57.5q-144 -21 -247 -21q-49 0 -83 12t-51 35 t-23.5 48.5t-6.5 59.5zM147 358q0 -40 21.5 -56t59.5 -16h239q0 19 -0.5 34.5t-2 36.5t-3.5 38.5t-6 37.5t-9.5 35t-14 29.5t-18.5 24t-24.5 15.5t-30.5 6h-130q-20 0 -33 -2.5t-25 -10.5t-17.5 -23.5t-5.5 -39.5v-109z" />
<glyph horiz-adv-x="541" d="M37 182v93q0 98 65 138.5t174 26.5v98h85v-171q-89 1 -134 0q-19 -1 -36 -6.5t-31.5 -16t-23 -28.5t-8.5 -41v-88q0 -55 31 -79.5t99 -24.5l265 1v-69q-6 -1 -31.5 -4.5t-32 -4.5t-28 -4t-30 -3.5t-27.5 -2.5t-31.5 -2.5t-30.5 -1t-35 0t-36 1.5q-55 0 -95.5 15t-63.5 42 t-34 59.5t-11 71.5zM265 644v66q0 23 24 23h63q11 0 17.5 -6.5t6.5 -16.5v-66q0 -25 -24 -25h-63q-24 0 -24 25z" />
<glyph horiz-adv-x="852" d="M61 424q0 13 1 25.5t5 30.5t11.5 33t21 31t32 27.5t46.5 18.5t62 7h209q31 0 57 -6.5t50 -21.5t38 -45t14 -72v-367h-65l-16 62l-9.5 -7t-26 -17.5t-37 -21t-47 -18t-52.5 -7.5q-56 -1 -92 34t-36 87v50q0 63 35 99t99 36h164q1 67 0 67q0 37 -18.5 50t-59.5 13h-207 q-21 0 -35.5 -3t-29 -11.5t-22 -27.5t-7.5 -48v-331q0 -105 94 -105h345q40 0 63 12.5t31.5 34.5t8.5 58v497q0 56 -28 85.5t-75 29.5h-404v57q135 28 292 27l112 -1q85 -1 136 -50.5t51 -147.5v-497q0 -190 -186 -190h-346q-81 0 -129.5 47.5t-48.5 139.5zM313 207 q0 -17 17 -32t40 -15q62 -1 155 51v111l-156 -14q-27 -3 -41.5 -19.5t-14.5 -41.5v-20.5v-19.5z" />
<glyph horiz-adv-x="555" d="M47 270q0 130 47 199t140 69q86 0 265 -25v-605q0 -91 -52 -139t-120 -41l-254 24v61h249q27 0 45.5 10.5t29 31.5t10.5 53v123q-41 -18 -89 -28.5t-84 -10.5q-45 0 -78.5 14t-54 37t-33 59.5t-17 76t-4.5 91.5zM139 271v-6v-39.5t2 -36.5t5.5 -36t11 -30t18 -25.5 t27 -15t38.5 -6.5q34 0 57 2t47.5 7t61.5 15v355h-166q-21 0 -37 -7.5t-26.5 -18t-18.5 -27.5t-11.5 -32t-6 -35.5t-2.5 -33v-30.5z" />
<glyph horiz-adv-x="955" d="M41 295v88q0 43 10 73t27 48.5t46 29t60.5 14t78.5 3.5h438l18 142h74v-144h143v-63l-143 -20v-270q0 -46 -15 -81t-38 -56.5t-55.5 -35t-64.5 -18.5t-68 -5h-164q-45 0 -77 6t-59.5 22.5t-41.5 48.5t-14 79q-28 0 -54.5 7.5t-49.5 23t-37 43.5t-14 65zM133 296 q0 -29 18 -43.5t45 -14.5q0 88 43 127t131 39h114q24 0 42 -2t39 -9.5t34.5 -20.5t22.5 -37.5t9 -58.5q0 -72 -33.5 -96t-114.5 -24h-195q0 -13 2.5 -24t6 -18t11 -12.5t12 -8t16.5 -4.5t16 -2t18.5 -1t18.5 -1h163q66 0 107.5 28t41.5 83v270h-437q-41 0 -62 -2t-39 -10.5 t-24 -25t-6 -45.5v-87zM288 238h195q20 0 27.5 0.5t16 4.5t10.5 12t2 24q0 28 -9.5 35.5t-46.5 7.5h-112q-24 0 -36 -2t-24.5 -9.5t-17.5 -25t-5 -47.5z" />
<glyph horiz-adv-x="372" d="M29 464v43q0 41 27 66t76 25q129 0 129 1q1 26 0 27q0 26 -14.5 37t-43.5 11q-53 0 -162 -8v49q67 20 172 24q55 1 89 -25t34 -81v-255h-52l-22 48q-4 -4 -22 -15t-50.5 -24t-58.5 -13q-44 0 -73 25t-29 65zM102 478q0 -37 41 -37q25 0 54.5 8t46.5 17l17 8v78l-119 -11 q-40 -4 -40 -39v-24z" />
<glyph horiz-adv-x="399" d="M35 378v524h75v-191q68 29 125 29q32 0 56.5 -10.5t38.5 -26.5t22 -41.5t11 -50t3 -56.5q0 -181 -131 -181q-33 0 -67.5 15.5t-57.5 32.5l-22 -44h-53zM110 471q6 -2 17 -6.5t16.5 -6.5t15.5 -5t18.5 -4.5t20 -3t24.5 -1.5q34 0 51.5 26.5t17.5 85.5q0 69 -16.5 92.5 t-52.5 23.5q-13 0 -24 -1t-17.5 -1.5t-17.5 -2.5t-15 -2.5t-18 -4t-20 -4.5v-185z" />
<glyph horiz-adv-x="360" d="M29 555q0 37 4 66t12.5 49t19.5 33t26.5 20.5t31 10.5t36.5 3q72 0 165 -22v-52q-81 5 -147 5q-17 0 -25.5 -1t-19.5 -7t-16 -17.5t-8.5 -34t-3.5 -55.5q0 -45 7.5 -69.5t22.5 -33t43 -8.5q30 0 68 1.5t61 3.5l23 2v-53q-41 -14 -77.5 -18t-92.5 -5q-30 0 -52 7.5 t-40.5 26t-28 55.5t-9.5 93z" />
<glyph horiz-adv-x="396" d="M29 555q0 23 1 41.5t5 38t10 35t15.5 29t23 22.5t32.5 14.5t43 5.5q58 0 125 -29v192h73v-526h-52l-22 44q-22 -17 -56.5 -32.5t-67.5 -15.5q-130 0 -130 181zM104 556q0 -112 68 -112q16 0 28.5 1.5t24.5 4.5t18.5 5.5t20.5 8t19 7.5v185q-3 1 -12 3.5t-11.5 3t-10 2.5 t-10 2t-9 1.5t-10 1.5t-9.5 1t-11.5 1h-12.5h-15q-36 0 -52 -23t-16 -93z" />
<glyph horiz-adv-x="391" d="M29 557q0 45 6 74.5t23 55t50 37.5t85 12q33 0 54 -2t44.5 -9.5t37 -21t22 -38t8.5 -59.5q0 -42 -27.5 -64.5t-78.5 -22.5h-149q0 -47 14 -62t59 -15q131 0 174 6v-52q-75 -23 -191 -23q-47 0 -75 16.5t-42 56.5t-14 111zM104 586h138q43 0 43 27q0 24 -8.5 35.5 t-26.5 15.5t-55 4q-51 0 -71.5 -17t-19.5 -65z" />
<glyph horiz-adv-x="324" d="M24 666v55l71 9v67q0 106 102 106q46 0 103 -17v-49l-84 1q-16 1 -26 -2.5t-14 -12t-5 -16t-1 -21.5v-52h100v-68h-102v-288h-74v288h-70z" />
<glyph horiz-adv-x="417" d="M30 292v43l30 40q-29 19 -29 63q0 21 11 40t35 21q-45 24 -45 105q0 64 33 96.5t90 32.5h234v-44l-48 -21q4 -5 8 -16t7 -25.5t3 -27.5q0 -18 -3 -35t-12 -35t-22.5 -32t-35.5 -22.5t-49 -8.5h-108q-26 0 -26 -20q0 -8 4 -13t8.5 -6.5t13.5 -2.5l140 -16 q48 -5 74.5 -32.5t26.5 -71.5v-8q0 -109 -105 -109h-122q-51 0 -82 26.5t-31 78.5zM104 304q0 -17 4 -27.5t12.5 -15t16.5 -5.5t20 -1h93q26 0 36.5 10t10.5 34v5q0 11 -4 18.5t-11.5 12.5t-17 8t-22.5 5l-110 13l-28 3v-60zM107 604q-1 -71 63 -71h57q57 0 57 71 q0 28 -14.5 45.5t-42.5 17.5h-55q-35 0 -49.5 -16t-15.5 -47z" />
<glyph horiz-adv-x="403" d="M35 378v523h75v-214q5 3 23.5 14.5t26 15.5t23.5 11t30.5 9.5t32.5 2.5q59 0 90 -34t31 -84v-244h-75v234q0 29 -17 44t-43 15q-24 0 -44.5 -5t-32.5 -10t-45 -20v-258h-75z" />
<glyph horiz-adv-x="151" d="M32 792v50q0 19 18 19h51q17 0 17 -19v-50q0 -17 -17 -17h-51q-18 0 -18 17zM36 378v356h75v-356h-75z" />
<glyph horiz-adv-x="153" d="M33 796v49q0 19 18 19h51q17 0 17 -19v-49q0 -18 -17 -18h-51q-18 0 -18 18zM36 196v537h77v-358q2 -105 -21 -179h-56z" />
<glyph horiz-adv-x="394" d="M35 378v521h75v-292h24l136 123h99l-170 -154l169 -198h-92l-136 163h-30v-163h-75z" />
<glyph horiz-adv-x="232" d="M35 504v396h74v-384q0 -40 7.5 -54t30.5 -20q54 -14 59 -14v-50h-72q-27 0 -45.5 6.5t-30.5 21.5t-17.5 39t-5.5 59z" />
<glyph horiz-adv-x="664" d="M35 378v354h55l19 -48q5 3 24 15t26 15.5t22 10.5t29 9t31 2q37 0 66 -15t42 -42q70 57 156 57q54 0 88.5 -32.5t34.5 -84.5v-241h-74v231q0 18 -8 31.5t-21.5 20t-30.5 6.5q-38 0 -65 -7t-60 -26v-23v-233h-75v231q0 26 -18 42t-43 16q-24 0 -45 -4.5t-33 -9.5t-45 -20 v-255h-75z" />
<glyph horiz-adv-x="398" d="M29 550q0 96 37.5 140.5t131.5 44.5q93 0 129.5 -44.5t36.5 -140.5q0 -44 -8 -75.5t-26.5 -54.5t-51 -34t-80.5 -11q-93 0 -131 42.5t-38 132.5zM104 550q0 -35 5.5 -56.5t18.5 -32t28.5 -14t41.5 -3.5t40.5 3t27.5 13.5t18.5 32t5.5 57.5q0 72 -20 94t-74 22 q-26 0 -42.5 -4.5t-28.5 -17.5t-16.5 -35.5t-4.5 -58.5z" />
<glyph horiz-adv-x="396" d="M35 194v541h53l20 -43q18 14 57.5 30.5t70.5 16.5q36 0 62 -15.5t39.5 -42.5t19.5 -58t6 -67q0 -40 -5 -70.5t-18 -58.5t-39.5 -43t-64.5 -15q-65 0 -128 29v-204h-73zM108 453q58 -16 115 -16q33 0 49 24t16 94q0 114 -65 114q-49 0 -115 -28v-188z" />
<glyph horiz-adv-x="399" d="M29 556q0 89 35.5 136t104.5 47q62 0 191 -18v-527h-74v203q-64 -30 -117 -30q-33 0 -58 10t-40.5 27.5t-25 42.5t-13 51t-3.5 58zM104 557v-24t1 -23t4 -24t8.5 -19.5t13.5 -17t20.5 -10t29.5 -4.5q12 0 21 0.5t15 1t15 2t13 2.5l18 4.5t23 5.5v220h-105 q-21 0 -36.5 -8.5t-23 -19.5t-12 -29t-5 -30t-0.5 -27z" />
<glyph horiz-adv-x="328" d="M35 378v354h58l16 -51q3 2 20 13t21.5 13.5t19 10t23 10t22.5 5.5t27 3q39 0 53 -6v-72q-19 4 -56 4t-63 -8t-66 -29v-247h-75z" />
<glyph horiz-adv-x="375" d="M29 615v34q0 92 95 92q33 0 101.5 -5t96.5 -10v-55h-181q-26 0 -32.5 -7.5t-6.5 -25.5v-21q0 -20 9.5 -25.5t29.5 -5.5h111q45 0 67.5 -25t22.5 -66v-37q0 -90 -89 -90q-19 0 -64 3t-88 7.5t-55 7.5v53h189l2 -0.5t4.5 -0.5h5.5t6 1t6 3t5.5 5t4 8.5t1.5 12.5v22 q0 16 -7.5 23.5t-27.5 7.5h-111q-49 0 -72 21.5t-23 72.5z" />
<glyph horiz-adv-x="305" d="M25 666v52l71 13l16 102h58v-99h104v-68h-104v-152q0 -44 6.5 -55t31.5 -16q51 -12 53 -12v-52h-66q-53 0 -76 28t-23 96v163h-71z" />
<glyph horiz-adv-x="397" d="M34 493v239h74v-234q0 -27 17 -42.5t43 -15.5q23 0 42 4t30 8.5t44 19.5v260h74v-354h-52l-22 46q-7 -5 -17.5 -12l-16.5 -11t-15 -9.5t-17 -8.5t-18 -6t-21 -4.5t-23 -1.5q-59 0 -90.5 36t-31.5 86z" />
<glyph horiz-adv-x="418" d="M23 732h80l107 -254l104 254h80l-151 -354h-66z" />
<glyph horiz-adv-x="610" d="M23 732h80l107 -253l102 253h78l-48 -113l61 -141l102 254h80l-150 -354h-65l-66 147l-62 -147h-65z" />
<glyph horiz-adv-x="407" d="M24 378l138 179l-138 175h87l93 -119l88 119h88l-133 -175l135 -179h-87l-90 124l-93 -124h-88z" />
<glyph horiz-adv-x="438" d="M23 733h78l97 -260q12 -29 34 -29l102 289h79l-162 -469l-58 -68h-54l69 180q-27 2 -47 22.5t-30 49.5z" />
<glyph horiz-adv-x="374" d="M29 663v69h311v-64l-200 -220h199v-69h-299v69l200 215h-211z" />
<glyph horiz-adv-x="618" d="M54 166v398q0 81 49 124.5t127 43.5h164q45 0 79 -13.5t53.5 -37t28.5 -52.5t9 -63v-400q0 -85 -45 -125.5t-125 -40.5h-164q-51 0 -89 16t-62.5 54.5t-24.5 95.5zM146 173q0 -45 26.5 -64.5t65.5 -19.5h146q88 0 88 83v388q0 83 -87 83h-148q-47 0 -69 -24t-22 -59v-387 z" />
<glyph horiz-adv-x="611" d="M121 582v63l173 87h92v-646h158v-86h-416v86h165v547z" />
<glyph horiz-adv-x="615" d="M52 652v68q155 22 304 22q43 0 78 -12t58.5 -32.5t40 -48t23.5 -58t7 -63.5q0 -53 -29 -113.5t-67.5 -107.5t-90.5 -96t-85 -75t-63 -47h335v-89h-504v83q33 22 68 47.5t85 65t92.5 80.5t81.5 84.5t61.5 87.5t22.5 81q0 56 -31 89.5t-96 33.5h-291z" />
<glyph horiz-adv-x="615" d="M62 645v61q41 15 95.5 21.5t108 7t115.5 -0.5q81 -1 127 -47.5t46 -120.5v-65q0 -110 -69 -137q69 -39 69 -146v-54q0 -171 -181 -171h-36.5h-38.5t-34 0.5t-37 1t-32.5 2t-34.5 3.5t-30.5 5t-33 7t-28.5 9v62h286q25 0 41 2.5t32.5 11t24.5 26.5t8 46v52q0 94 -100 97 l-230 8v72l230 10q102 5 102 92v60q0 30 -15 49.5t-37 27.5t-50 8h-298z" />
<glyph horiz-adv-x="623" d="M26 224l306 508h106l-274 -460h256v197l35 75h57v-272h86v-72l-86 -20v-178h-92v178h-360z" />
<glyph horiz-adv-x="617" d="M71 20v70h298q46 0 65.5 25.5t19.5 61.5v98v15.5t-2 16.5t-5 17t-9 15t-15 12.5t-22 8t-30 3.5h-138q-32 0 -54 -17.5t-22 -52.5h-84l22 439h428v-89h-342l-11 -221q20 21 71 28q22 2 49 2.5t56.5 -0.5t35.5 -2q43 0 75 -13t51.5 -36t28.5 -53t9 -68v-111 q0 -49 -16.5 -84.5t-43.5 -54t-54 -26.5t-55 -8q-102 0 -156.5 4t-149.5 20z" />
<glyph horiz-adv-x="616" d="M57 384q0 95 14.5 166t40 110t55 57.5t62.5 19.5q147 4 306 -19v-69h-278q-22 0 -39.5 -11.5t-28.5 -32t-19 -44t-12.5 -52t-6.5 -51.5t-2 -46q144 20 246 20q34 0 60.5 -5.5t44 -16t29.5 -24t18.5 -32t9 -36.5t2.5 -40v-126q0 -153 -165 -153h-147q-36 0 -63 10 t-52 35.5t-40.5 68t-25 111t-9.5 160.5zM149 345q0 -30 1 -53t4 -55.5t10.5 -56.5t19 -46t30.5 -34t44 -12h129q20 0 33.5 2.5t25 10.5t17 23.5t5.5 39.5v109q0 41 -21 56.5t-59 15.5h-239z" />
<glyph horiz-adv-x="617" d="M63 643v89h462l30 -52l-260 -680h-105l249 643h-376z" />
<glyph horiz-adv-x="618" d="M64 158v91q0 84 83 109q-31 11 -50.5 35.5t-26 50t-6.5 55.5v65q0 95 47 134t132 39h147q83 0 124 -41t41 -132v-62q0 -12 -2 -26.5t-8.5 -34t-23 -35t-41.5 -20.5q20 -4 35.5 -19t23.5 -35.5t12 -40.5t4 -38v-94q0 -39 -11 -68.5t-27.5 -46t-39.5 -27t-44 -14t-44 -3.5 h-147q-49 0 -85 13t-53.5 29.5t-27 41.5t-11 40t-1.5 34zM156 160q0 -36 22 -54t71 -18h131q35 0 59 18.5t24 53.5v95q0 37 -22.5 56.5t-57.5 19.5h-143q-38 0 -61 -18t-23 -58v-95zM156 494q0 -42 25.5 -60t58.5 -18h143q80 0 80 78v62q0 51 -20 72.5t-62 21.5h-132 q-50 0 -71.5 -18t-21.5 -76v-62z" />
<glyph horiz-adv-x="616" d="M57 459v125q0 153 165 153h148q35 0 62 -9.5t52 -35.5t41 -68.5t25 -110.5t9 -161q0 -95 -14.5 -166t-40 -110t-54.5 -57.5t-63 -19.5q-178 -4 -306 19v69h278q26 0 46 17.5t31.5 42.5t18.5 59t9.5 61.5t2.5 57.5q-144 -21 -246 -21q-50 0 -83.5 12t-50.5 35t-23.5 48.5 t-6.5 59.5zM148 463q0 -40 21.5 -56t59.5 -16h238v34.5t-1.5 37t-3.5 38.5t-6 37t-9.5 35t-14 29.5t-18.5 24.5t-24.5 15.5t-30.5 5.5h-130q-20 0 -33 -2.5t-25 -10t-17.5 -23.5t-5.5 -40v-109z" />
<glyph horiz-adv-x="618" d="M54 166v297q0 81 49 124.5t127 43.5h164q88 0 129 -45.5t41 -120.5v-299q0 -85 -45 -125.5t-125 -40.5h-164q-51 0 -89 16t-62.5 54.5t-24.5 95.5zM146 173q0 -45 26.5 -64.5t65.5 -19.5h146q88 0 88 83v287q0 83 -87 83h-148q-47 0 -69 -23.5t-22 -59.5v-286z" />
<glyph horiz-adv-x="613" d="M131 484v63l161 85h92v-546h150v-86h-399v86h157v447z" />
<glyph horiz-adv-x="614" d="M52 549v68q172 26 304 22q104 0 155 -49.5t51 -139.5q0 -47 -28.5 -98.5t-68 -91.5t-89 -78.5t-82.5 -59.5t-56 -33h320v-89h-500v83q39 22 62 35t71.5 42.5t80.5 52t73 55.5t65.5 60.5t41.5 59.5t17 60q0 53 -30 78t-97 23h-290z" />
<glyph horiz-adv-x="615" d="M62 549v61q41 15 95.5 22t108 7t115.5 -1q81 -1 127 -47.5t46 -120.5v-64q0 -111 -69 -138q69 -39 69 -145v-55q0 -171 -181 -171h-33h-34t-32 0.5t-33 1t-30 1t-31 2t-28.5 4t-30 5t-26.5 6.5t-27 8v62h286q25 0 41 2.5t32.5 11t24.5 26.5t8 46v52q0 94 -100 98l-230 7 v73l230 10q102 4 102 91v60q0 30 -15 50t-37 27.5t-50 7.5h-298z" />
<glyph horiz-adv-x="623" d="M26 124l306 508h106l-274 -460h256v197l35 75h57v-272h86v-72l-86 -20v-178h-92v178h-360z" />
<glyph horiz-adv-x="617" d="M81 -10h298q46 0 65.5 25.5t19.5 61.5v98v15.5t-2 16.5t-5 17t-9 15t-15 12.5t-22 8t-30 3.5h-138q-32 0 -54 -17.5t-22 -52.5h-84l22 439h428v-89h-342l-11 -221q21 22 73 28q22 3 49 3t55 -1t35 -2q57 0 94.5 -22.5t53.5 -59.5t16 -88v-111q0 -49 -16.5 -84.5 t-43.5 -54t-54 -26.5t-55 -8q-102 0 -156.5 4t-149.5 20v70z" />
<glyph horiz-adv-x="616" d="M57 384q0 95 14.5 166t40 110t55 57.5t62.5 19.5q147 4 306 -19v-69h-278q-22 0 -39.5 -11.5t-28.5 -32t-19 -44t-12.5 -52t-6.5 -51.5t-2 -46q144 20 246 20q34 0 60.5 -5.5t44 -16t29.5 -24t18.5 -32t9 -36.5t2.5 -40v-126q0 -153 -165 -153h-147q-36 0 -63 10 t-52 35.5t-40.5 68t-25 111t-9.5 160.5zM149 345q0 -30 1 -53t4 -55.5t10.5 -56.5t19 -46t30.5 -34t44 -12h129q20 0 33.5 2.5t25 10.5t17 23.5t5.5 39.5v109q0 41 -21 56.5t-59 15.5h-239z" />
<glyph horiz-adv-x="617" d="M63 543v89h462l30 -52l-260 -680h-105l249 643h-376z" />
<glyph horiz-adv-x="618" d="M64 158v91q0 84 83 109q-31 11 -50.5 35.5t-26 50t-6.5 55.5v65q0 95 47 134t132 39h147q83 0 124 -41t41 -132v-62q0 -12 -2 -26.5t-8.5 -34t-23 -35t-41.5 -20.5q20 -4 35.5 -19t23.5 -35.5t12 -40.5t4 -38v-94q0 -39 -11 -68.5t-27.5 -46t-39.5 -27t-44 -14t-44 -3.5 h-147q-49 0 -85 13t-53.5 29.5t-27 41.5t-11 40t-1.5 34zM156 160q0 -36 22 -54t71 -18h131q35 0 59 18.5t24 53.5v95q0 37 -22.5 56.5t-57.5 19.5h-143q-38 0 -61 -18t-23 -58v-95zM156 494q0 -42 25.5 -60t58.5 -18h143q80 0 80 78v62q0 51 -20 72.5t-62 21.5h-132 q-50 0 -71.5 -18t-21.5 -76v-62z" />
<glyph horiz-adv-x="616" d="M57 354v125q0 153 165 153h148q35 0 62 -9.5t52 -35.5t41 -68.5t25 -110.5t9 -161q0 -95 -14.5 -166t-40 -110t-54.5 -57.5t-63 -19.5q-182 -4 -306 19v69h278q26 0 46 17.5t31.5 42.5t18.5 59t9.5 61.5t2.5 57.5q-144 -21 -246 -21q-50 0 -83.5 12t-50.5 35t-23.5 48.5 t-6.5 59.5zM148 358q0 -40 21.5 -56t59.5 -16h238q0 25 -0.5 45t-3 48t-6.5 49t-12 44t-19.5 37.5t-28.5 24t-38 9.5h-130q-20 0 -33 -2.5t-25 -10.5t-17.5 -23.5t-5.5 -39.5v-109z" />
<glyph horiz-adv-x="555" d="M178 708h50q0 -27 19 -45.5t45 -18.5q29 0 47.5 17.5t18.5 46.5h50q0 -53 -35 -83.5t-81 -30.5q-45 0 -79.5 31.5t-34.5 82.5zM47 270q0 130 47 199t140 69q86 0 265 -25v-605q0 -91 -52 -139t-120 -41l-254 24v61h249q27 0 45.5 10.5t29 31.5t10.5 53v123 q-41 -18 -89 -28.5t-84 -10.5q-45 0 -78.5 14t-54 37t-33 59.5t-17 76t-4.5 91.5zM139 271v-6v-39.5t2 -36.5t5.5 -36t11 -30t18 -25.5t27 -15t38.5 -6.5q49 0 80.5 4.5t85.5 19.5v355h-166q-21 0 -37 -7.5t-26.5 -18t-18.5 -27.5t-11.5 -32t-6 -35.5t-2.5 -33v-30.5z" />
<glyph horiz-adv-x="555" d="M241 619v60q0 25 24 25h56q11 0 17 -7t6 -18v-60q0 -23 -23 -23h-56q-11 0 -17.5 6.5t-6.5 16.5zM47 270q0 130 47 199t140 69q86 0 265 -25v-605q0 -91 -52 -139t-120 -41l-254 24v61h249q27 0 45.5 10.5t29 31.5t10.5 53v123q-41 -18 -89 -28.5t-84 -10.5 q-45 0 -78.5 14t-54 37t-33 59.5t-17 76t-4.5 91.5zM139 271v-6v-39.5t2 -36.5t5.5 -36t11 -30t18 -25.5t27 -15t38.5 -6.5q49 0 80.5 4.5t85.5 19.5v355h-166q-21 0 -37 -7.5t-26.5 -18t-18.5 -27.5t-11.5 -32t-6 -35.5t-2.5 -33v-30.5z" />
<glyph horiz-adv-x="555" d="M149 594l115 132h80l102 -132h-77l-68 68l-74 -68h-78zM47 270q0 130 47 199t140 69q86 0 265 -25v-605q0 -91 -52 -139t-120 -41l-254 24v61h249q27 0 45.5 10.5t29 31.5t10.5 53v123q-41 -18 -89 -28.5t-84 -10.5q-45 0 -78.5 14t-54 37t-33 59.5t-17 76t-4.5 91.5z M139 271v-6v-39.5t2 -36.5t5.5 -36t11 -30t18 -25.5t27 -15t38.5 -6.5q49 0 80.5 4.5t85.5 19.5v355h-166q-21 0 -37 -7.5t-26.5 -18t-18.5 -27.5t-11.5 -32t-6 -35.5t-2.5 -33v-30.5z" />
<glyph horiz-adv-x="857" d="M37 261q0 68 9 117.5t24 79t38.5 46.5t48 23t57.5 6h388l19 147h73v-148h145v-85h-145v-251q0 -47 6 -69.5t16 -30t33 -12.5q72 -19 74 -19v-64h-89q-70 0 -101 42.5t-31 146.5v257h-372q-21 0 -33.5 -2t-27 -12t-22 -29.5t-13 -56t-5.5 -90.5q0 -74 10.5 -113t31 -52.5 t58.5 -13.5q41 0 97 2.5t91 4.5l35 3v-65q-96 -29 -239 -30q-27 0 -48 4t-42 14t-35.5 29t-26.5 48t-18 72.5t-6 100.5z" />
<glyph horiz-adv-x="742" d="M19 449v62l95 21l20 148h72v-148h281l20 148h72v-148h145v-83h-145v-253q0 -47 6.5 -69.5t16 -29.5t33.5 -13q72 -19 73 -19v-64h-88q-71 0 -102 42.5t-31 146.5v259h-281v-253q0 -47 6 -69.5t16 -29.5t34 -13q71 -19 73 -19v-64h-89q-47 0 -75.5 18t-42.5 59.5 t-14 111.5v259h-95z" />
<glyph horiz-adv-x="764" d="M19 448v66l95 17v99q0 19 1.5 34.5t5.5 34.5t13.5 33.5t23.5 27t36.5 19.5t51.5 7q66 0 138 -24v-58l-115 1q-23 0 -36.5 -5t-19 -18.5t-6.5 -25.5t-1 -35v-89h303l19 148h73v-148h145v-83h-145v-253q0 -47 6 -69.5t16 -29.5t33 -13q72 -19 74 -19v-64h-89 q-70 0 -101 42.5t-31 146.5v259h-305v-449h-92v448h-93z" />
<glyph horiz-adv-x="951" d="M19 449v62l95 21l20 148h72v-148h152q44 0 72 -5.5t47 -21t29 -34.5t22 -54l102 -289q3 -7 6.5 -13t7.5 -10t8.5 -7t9.5 -5t9 -3t8 -1h7h5h2l139 442h101l-219 -699l-76 -102h-64l95 270q-16 0 -32.5 4.5t-35.5 16.5t-36.5 36.5t-29.5 59.5l-96 269q-11 34 -31 48.5 t-61 14.5h-141v-253q0 -47 6 -69.5t16 -29.5t34 -13q71 -19 73 -19v-64h-89q-47 0 -75.5 18t-42.5 59.5t-14 111.5v259h-95z" />
<glyph horiz-adv-x="975" d="M19 448v66l95 17v99q0 19 1.5 34.5t5.5 34.5t13.5 33.5t23.5 27t36.5 19.5t51.5 7q12 0 24.5 -1.5t21.5 -3t24 -6t21.5 -6.5t24 -8t22.5 -7v-59l-115 10q-23 2 -36.5 -3t-19 -19t-6.5 -26t-1 -36v-90h167q59 0 92 -12.5t49.5 -34.5t32.5 -67l107 -288q2 -8 5.5 -14t8 -10 t9 -7t9 -4.5t9 -2.5t8.5 -1.5t6.5 -0.5t4.5 0.5l2 0.5l139 442h101l-219 -699l-77 -102h-64l96 270q-13 0 -26 2.5t-28.5 10.5t-29.5 20t-27.5 33.5t-22.5 50.5l-100 268q-11 33 -32 47.5t-63 14.5h-159v-448h-92v448h-93z" />
<glyph horiz-adv-x="555" d="M240 617v89q0 25 9.5 41.5t23.5 22t27.5 7.5t23.5 0l9 -1v-33q-9 0 -15 -2.5t-8.5 -7.5t-3.5 -8.5t-1 -8.5v-20h10q23 0 23 -22v-57q0 -24 -23 -24h-54q-21 0 -21 24zM47 270q0 130 47 199t140 69q86 0 265 -25v-605q0 -91 -52 -139t-120 -41l-254 24v61h249 q27 0 45.5 10.5t29 31.5t10.5 53v123q-41 -18 -89 -28.5t-84 -10.5q-45 0 -78.5 14t-54 37t-33 59.5t-17 76t-4.5 91.5zM139 271v-6v-39.5t2 -36.5t5.5 -36t11 -30t18 -25.5t27 -15t38.5 -6.5q34 0 57 2t47.5 7t61.5 15v355h-166q-21 0 -37 -7.5t-26.5 -18t-18.5 -27.5 t-11.5 -32t-6 -35.5t-2.5 -33v-30.5z" />
<glyph horiz-adv-x="270" d="M78 23v66q0 25 24 25h64q11 0 17 -7t6 -18v-66q0 -23 -23 -23h-64q-11 0 -17.5 6.5t-6.5 16.5zM82 570h103l-9 -398h-86z" />
<glyph horiz-adv-x="396" d="M79 560v67h91v-67l-10 -134h-69zM227 560v67h90v-67l-10 -134h-69z" />
<glyph horiz-adv-x="577" d="M19 168l9 63h123l19 111h-124l9 63h125l29 168h64l-29 -168h117l27 168h64l-27 -168h135l-9 -63h-136l-19 -111h136l-9 -63h-137l-29 -169h-64l28 169h-115l-29 -169h-64l28 169h-122zM216 231h116l18 111h-116z" />
<glyph horiz-adv-x="506" d="M47 384v32q0 156 170 159v67h71v-70q33 -2 149 -16v-69q-194 1 -211 1q-43 0 -65 -14.5t-22 -57.5v-29q0 -61 78 -61h86q76 0 115.5 -44.5t39.5 -102.5v-37q0 -78 -49 -115t-121 -34v-65h-71v68q-143 14 -152 16v68q7 0 92.5 -0.5t129.5 -0.5q30 0 54 14.5t24 49.5v34 q0 15 -5 27t-14.5 20t-23 12.5t-29.5 4.5h-85q-85 0 -123 39.5t-38 103.5z" />
<glyph horiz-adv-x="843" d="M27 374v70q0 66 28.5 96t102.5 30h53q71 0 99.5 -30t28.5 -96v-70q0 -67 -28.5 -97t-101.5 -30h-53q-72 0 -100.5 30.5t-28.5 96.5zM101 378q0 -33 12 -45t46 -12h46q39 0 49.5 12t10.5 45v61q0 23 -5.5 35.5t-17.5 17t-35 4.5h-46q-38 0 -49 -11.5t-11 -45.5v-61zM215 0 l333 570h79l-332 -570h-80zM504 126v70q0 66 28.5 96t101.5 30h53q72 0 100.5 -30t28.5 -96v-70q0 -66 -28.5 -96t-102.5 -30h-53q-48 0 -76.5 14t-40 41t-11.5 71zM578 131q0 -34 12 -45.5t46 -11.5h46q39 0 49.5 11.5t10.5 45.5v60q0 34 -12.5 45.5t-45.5 11.5h-46 q-38 0 -49 -11.5t-11 -45.5v-60z" />
<glyph horiz-adv-x="574" d="M66 63q-43 62 -33.5 120.5t67.5 106.5l68 57l-40 50q-20 25 -27 50t-2.5 45t16 37t28.5 27t35 13q103 16 238 -16v-65h-172q-81 0 -27 -66l164 -200l87 75l31 -35l-42 -84l-24 -23l119 -155h-105l-78 97l-65 -63q-31 -29 -73.5 -38t-88 7.5t-76.5 59.5zM139 113 q12 -14 29 -24t41 -8.5t44 22.5l63 61l-93 114l-67 -53q-19 -15 -28 -31.5t-8 -31.5t6 -27t13 -22z" />
<glyph horiz-adv-x="249" d="M79 560v67h91v-67l-10 -134h-70z" />
<glyph horiz-adv-x="435" d="M47 406v44l139 28l4 -77zM111 254l25 136l75 -18l-59 -131zM173 558l43 16l73 -119l-71 -30zM203 313l43 66l110 -92l-24 -36zM248 412l119 75l23 -38l-92 -97z" />
<glyph horiz-adv-x="579" d="M65 162v246q0 54 24 91.5t61.5 54t86.5 16.5h110q32 0 58 -6.5t43 -17t29.5 -25.5t19.5 -29t11 -31t5 -29t1 -24v-246q0 -162 -167 -162h-110q-35 0 -65 8.5t-54.5 27t-38.5 51t-14 75.5zM157 170q0 -43 25.5 -62t63.5 -19h93q83 0 83 81v229q0 37 -18 59.5t-66 22.5h-93 q-88 0 -88 -82v-229z" />
<glyph horiz-adv-x="340" d="M37 424v63l137 85h92v-572h-92v473z" />
<glyph horiz-adv-x="512" d="M37 482v65q28 4 72 12t74.5 10.5t84.5 2.5q198 0 198 -190q0 -44 -20.5 -87.5t-48.5 -74t-66 -59.5t-63.5 -44t-51.5 -28h246v-89h-418v83q22 17 70.5 45t88 53t80 56.5t64 68.5t23.5 76q0 53 -27.5 78t-93.5 23z" />
<glyph horiz-adv-x="509" d="M28 485v66q77 27 276 22q42 -1 73.5 -22t47 -53t15.5 -69v-32q0 -29 -6 -52t-17.5 -39t-28.5 -22q52 -30 52 -118v-25q0 -44 -14.5 -76t-46.5 -51t-80 -19h-93t-93 5t-80 16v67h235q35 0 56.5 13t21.5 51v23q0 39 -20 54t-54 16l-191 5v78l191 4q40 0 58 14t18 52v30 q0 17 -5 29t-15 19t-23.5 10.5t-32.5 3.5h-244z" />
<glyph horiz-adv-x="546" d="M19 180l217 390h105l-189 -345h200v153l37 78h55v-231h84v-73l-84 -18v-132h-92v132h-297z" />
<glyph horiz-adv-x="539" d="M71 23v69h245q23 0 38 4.5t23 14t11.5 21t3.5 28.5v51q0 10 -0.5 15t-2 14.5t-6.5 14t-13 10t-21.5 8t-31.5 2.5h-92q-30 0 -49.5 -16.5t-19.5 -50.5h-84l17 362h369v-89h-283l-7 -155q28 32 65 32h92q84 0 121.5 -37.5t37.5 -108.5v-60q0 -80 -44.5 -116t-114.5 -37 q-85 -1 -140.5 3.5t-113.5 20.5z" />
<glyph horiz-adv-x="546" d="M61 300q0 53 6.5 96.5t18.5 73t27 50.5t33.5 33t36 17.5t36.5 5.5q128 1 254 -15v-74h-245q-23 0 -39 -16.5t-23 -43t-10 -49t-3 -44.5q90 12 203 12q135 0 135 -128v-86q0 -35 -11.5 -61t-31 -41.5t-43.5 -23t-52 -7.5h-128q-29 0 -52 7t-44.5 26.5t-36 52.5t-23 87 t-8.5 128zM153 262v-20t0.5 -24.5t2.5 -30t5.5 -28t9.5 -28.5t13.5 -21.5t19.5 -16.5t27 -5h113q13 0 22 2t17 7t12 16t4 27v78q0 26 -13 35t-42 9h-191z" />
<glyph horiz-adv-x="476" d="M28 481v89h390l30 -52l-198 -518h-101l185 481h-306z" />
<glyph horiz-adv-x="573" d="M70 130v70q0 21 5.5 35t17.5 22.5t19.5 12t24.5 8.5q-18 6 -31.5 18.5t-21 28.5t-11 32.5t-3.5 32.5v43q0 79 34 110.5t104 31.5h166q130 0 130 -142v-43q0 -10 -1.5 -20.5t-6.5 -27t-17.5 -29t-32.5 -16.5q20 -4 33.5 -21.5t19 -37t5.5 -38.5v-70q0 -30 -8 -53 t-21 -37.5t-30.5 -23.5t-34.5 -12.5t-35 -3.5h-168q-28 0 -49.5 5t-36 13t-24.5 20t-15 22.5t-8 25t-3.5 23.5t-0.5 21zM162 136q0 -28 13.5 -38.5t52.5 -10.5h126q58 0 58 49v57q0 54 -56 54h-137q-27 0 -42 -11.5t-15 -41.5v-58zM162 385q0 -54 57 -54h138q18 0 30 4.5 t17.5 13t7 16.5t1.5 19v42q0 38 -12.5 50t-44.5 12h-129q-21 0 -30 -1t-19 -6.5t-13 -18.5t-3 -36v-41z" />
<glyph horiz-adv-x="546" d="M56 356v87q0 35 11 61t30.5 41.5t44 23t52.5 7.5h128q29 0 52 -7t44.5 -27t36 -52.5t23 -86.5t8.5 -128q0 -63 -9.5 -112.5t-24.5 -79.5t-36 -49.5t-41.5 -27t-43.5 -7.5q-164 -2 -257 15v74h245q23 0 39 16.5t23 43t10 49t3 44.5q-91 -12 -203 -12q-135 0 -135 127z M148 357q0 -26 12.5 -35t42.5 -9h191v20t-0.5 24.5t-2.5 29.5t-5.5 28t-9.5 28.5t-14 22t-19.5 16.5t-26.5 5h-113q-28 0 -41.5 -10.5t-13.5 -42.5v-77z" />
<glyph horiz-adv-x="462" d="M19 483v73q146 21 230 17q56 0 96.5 -20t60.5 -56.5t20 -85.5v-41q0 -76 -56.5 -115t-135.5 -25v-58h-85v132q68 -1 105 0q31 2 55.5 18t24.5 47v39q0 75 -91 75h-224zM136 23v66q0 25 24 25h62q25 0 25 -25v-66q0 -23 -25 -23h-62q-11 0 -17.5 6.5t-6.5 16.5z" />
<glyph horiz-adv-x="850" d="M61 45v336q0 19 2 37t12.5 44.5t28.5 45t53 32.5t82 14h209q31 0 57 -6.5t50 -21.5t38 -45t14 -72v-367h-65l-16 62l-5 -4t-14 -10t-20.5 -14t-27 -15.5t-31.5 -13.5t-35.5 -10t-37.5 -4q-57 -2 -93 33.5t-35 87.5v50q0 63 34.5 99t98.5 36h164q1 67 0 67q0 37 -18.5 50 t-59.5 13h-207q-20 0 -35 -3t-29.5 -11.5t-22 -27.5t-7.5 -48v-331q0 -105 94 -105h345q40 0 63 12.5t31.5 34.5t8.5 58v497q0 56 -28 85t-75 29h-404v58q135 28 292 27h112q85 -1 136 -51t51 -148v-497q0 -190 -186 -190h-346q-81 0 -129.5 47.5t-48.5 139.5zM313 163 q0 -16 17 -31t40 -15q61 -1 154 51v111l-156 -14q-27 -3 -41.5 -19.5t-13.5 -42.5q-1 0 -1 -19.5t1 -20.5z" />
<glyph horiz-adv-x="595" d="M33 0l224 570h99l207 -570h-99l-55 142h-219l-58 -142h-99zM221 227h162l-77 219z" />
<glyph horiz-adv-x="546" d="M75 0v571h265q45 0 77.5 -13t50.5 -35.5t26 -48.5t8 -56q0 -36 -8.5 -61.5t-22.5 -40.5t-36 -25q29 -11 49.5 -43.5t20.5 -85.5q0 -162 -165 -162h-265zM167 87h170q15 0 26 2.5t23.5 10t19 24.5t6.5 43q0 42 -17 64.5t-58 22.5q-140 -1 -170 0v-167zM167 336h170 q29 0 45 8t22 24t6 46q0 71 -73 71h-170v-149z" />
<glyph horiz-adv-x="518" d="M51 295q0 49 5 88t19 76.5t37 62.5t60.5 40.5t87.5 15.5q43 0 115.5 -8t110.5 -18v-70q-13 3 -92.5 7.5t-124.5 4.5q-72 0 -99 -49t-27 -150q0 -38 2 -64.5t9.5 -56.5t20.5 -49t37 -31.5t57 -13.5l217 12v-68q-114 -28 -226 -28q-54 0 -93 18t-60.5 45t-34.5 69t-17 80 t-4 87z" />
<glyph horiz-adv-x="598" d="M75 0v572h253q51 -1 90.5 -19t63 -46.5t39 -67.5t21 -76.5t5.5 -79.5q0 -46 -6 -84.5t-14.5 -66t-22.5 -49t-27 -35t-31.5 -23.5t-31.5 -14.5t-32.5 -7t-28.5 -3t-25 -0.5h-253zM167 88h157q38 0 65 15.5t40.5 44t19.5 61t6 74.5q0 103 -35.5 152t-95.5 49h-157v-396z " />
<glyph horiz-adv-x="515" d="M75 89v386q0 47 29.5 71.5t80.5 24.5q274 -10 288 -13v-73h-274q-21 0 -26.5 -7t-5.5 -26v-123l274 -8v-73l-274 -7v-123q0 -20 8.5 -26t27.5 -6h270v-73q-7 -2 -84.5 -5.5t-150.5 -6.5l-73 -3q-41 0 -65.5 24.5t-24.5 66.5z" />
<glyph horiz-adv-x="515" d="M75 0v475q0 47 29 71.5t81 24.5q274 -10 288 -13v-74h-274q-11 0 -17.5 -1.5t-9.5 -7t-3.5 -9.5t-1.5 -14v-129l274 -8v-73l-274 -7v-235h-92z" />
<glyph horiz-adv-x="575" d="M51 286q0 73 9.5 124t32.5 90.5t64.5 59t103.5 19.5q26 0 73.5 -3t97.5 -9.5t78 -12.5v-72q-125 12 -234 12q-51 0 -78 -15.5t-41 -60t-14 -130.5q0 -26 2.5 -50.5t11 -54t21.5 -51t37 -36.5t55 -15q51 0 98 17t64 34v104h-157v57q85 23 182 23q31 0 67 -3v-313h-70 l-19 44q-72 -51 -175 -51q-42 0 -76 14t-55.5 34.5t-37 51t-23 56.5t-11.5 57.5t-5 47t-1 32.5z" />
<glyph horiz-adv-x="595" d="M75 -1v571h92v-250h281v250h92v-571h-92v231h-281v-231h-92z" />
<glyph horiz-adv-x="222" d="M75 0v570h92v-570h-92z" />
<glyph horiz-adv-x="333" d="M33 21l3 69q49 -7 81.5 -5.5t50 23.5t18.5 69v393h92v-405q0 -113 -58 -147q-49 -25 -98.5 -22.5t-88.5 25.5z" />
<glyph horiz-adv-x="563" d="M75 -1v571h90v-248h69l186 248h111l-217 -290l217 -281h-111l-188 237h-67v-237h-90z" />
<glyph horiz-adv-x="498" d="M75 95v475h92v-448q-1 -22 9 -27.5t35 -5.5h255v-89h-296q-44 0 -69.5 24.5t-25.5 70.5z" />
<glyph horiz-adv-x="742" d="M51 0l55 571h116l151 -427l151 427h114l53 -571h-90l-39 419l-145 -419h-85l-148 419l-44 -419h-89z" />
<glyph horiz-adv-x="602" d="M75 0v571h89l292 -402v402h91v-571h-88l-292 406v-406h-92z" />
<glyph horiz-adv-x="606" d="M51 280q0 90 15.5 148.5t49 90.5t77 44t110.5 12q44 0 75 -3.5t62 -14t50.5 -30.5t35 -51.5t22.5 -78.5t7 -110q0 -73 -10.5 -124.5t-29.5 -84t-51.5 -51t-70 -25.5t-90.5 -7q-37 0 -65 2.5t-55.5 10.5t-46.5 21t-36 34.5t-27 51.5t-16 71t-6 94zM143 285 q0 -54 6.5 -90.5t17.5 -58.5t32 -33.5t44 -15t60 -3.5q20 0 32.5 0.5t30 3t27.5 8.5t23 15t20 24.5t14 36t10 49.5t3 66q0 30 -1.5 54t-5.5 43t-7.5 33.5t-12 25t-14.5 18t-18 12.5t-20 7.5t-24.5 4t-26.5 1.5h-30h-3q-43 0 -63.5 -3.5t-46.5 -21t-36.5 -61t-10.5 -115.5z " />
<glyph horiz-adv-x="528" d="M56 0v569h273q29 0 56 -9t50.5 -28t37.5 -52.5t14 -76.5q0 -51 -11 -87.5t-25.5 -55.5t-38 -29.5t-40.5 -12.5t-40 -2q-5 -1 -94 5.5l-89 6.5v-228h-93zM149 299h174q16 0 26 2.5t22 11t18 28.5t6 52q1 30 -10 51t-27 30t-35 9h-174v-184z" />
<glyph horiz-adv-x="606" d="M51 280q0 90 15.5 148.5t49 90.5t77 44t110.5 12q44 0 75 -3.5t62 -14t50.5 -30.5t35 -51.5t22.5 -78.5t7 -110q0 -73 -10.5 -124.5t-29.5 -84t-51.5 -51t-70 -25.5t-90.5 -7q-37 0 -65 2.5t-55.5 10.5t-46.5 21t-36 34.5t-27 51.5t-16 71t-6 94zM143 285 q0 -54 6.5 -90.5t17.5 -58.5t32 -33.5t44 -15t60 -3.5q20 0 32.5 0.5t30 3t27.5 8.5t23 15t20 24.5t14 36t10 49.5t3 66q0 30 -1.5 54t-5.5 43t-7.5 33.5t-12 25t-14.5 18t-18 12.5t-20 7.5t-24.5 4t-26.5 1.5h-30h-3q-43 0 -63.5 -3.5t-46.5 -21t-36.5 -61t-10.5 -115.5z M275 -33h60q25 -22 54 -30.5t54.5 -5.5t57.5 14v-89q-29 -12 -66.5 -9t-71 14.5t-58.5 39.5t-30 66z" />
<glyph d="M56 0v571h270q29 0 54.5 -7t51 -24t40.5 -51.5t15 -83.5q0 -74 -25 -122.5t-79 -54.5l130 -228h-102l-119 218q-13 1 -47.5 4t-65.5 6t-31 4v-232h-92zM148 299h175q31 0 51.5 21.5t20.5 80.5q0 24 -7 41t-15.5 25t-20.5 12.5t-17.5 5t-11.5 0.5h-175v-186z" />
<glyph horiz-adv-x="546" d="M51 372v56q0 145 143 145q43 0 134 -6.5t140 -14.5v-69q-166 5 -267 5q-58 0 -58 -61v-52q0 -19 3.5 -30t13.5 -15.5t17 -5t24 -0.5h161q67 0 100 -37.5t33 -98.5v-64q0 -40 -11.5 -68t-32 -41.5t-42 -19t-47.5 -5.5q-54 0 -159 6.5t-130 16.5v67q182 -4 279 -4 q17 0 30 12t17 25l4 12v61q0 26 -11 38t-40 12h-160q-74 0 -107.5 32.5t-33.5 103.5z" />
<glyph horiz-adv-x="517" d="M33 481v89h452v-89h-180v-481h-92v481h-180z" />
<glyph horiz-adv-x="609" d="M75 260v310h93v-310q-1 -32 2 -57t8.5 -43.5t14.5 -31.5t20.5 -21.5t28 -13.5t34 -7t41.5 -2q36 0 60.5 6.5t44.5 25t29.5 54t9.5 90.5v310h93v-310q0 -68 -13.5 -117t-35 -77t-54 -44.5t-63.5 -21.5t-71 -5q-33 0 -57 2t-50.5 8.5t-45.5 18.5t-37 31.5t-29 47 t-17.5 67.5t-5.5 90z" />
<glyph horiz-adv-x="599" d="M33 570h99l171 -441l165 441h99l-214 -570h-100z" />
<glyph horiz-adv-x="850" d="M33 570h99l155 -443l147 443h99l-62 -185l103 -258l150 443h94l-195 -570h-99l-97 249l-86 -249h-103z" />
<glyph horiz-adv-x="570" d="M33 0l195 285l-193 285h116l135 -206l136 206h117l-196 -285l193 -285h-112l-139 206l-139 -206h-113z" />
<glyph horiz-adv-x="573" d="M33 570h100l156 -281l151 281h101l-207 -378v-193h-92v193z" />
<glyph horiz-adv-x="497" d="M33 0v89l311 392h-311v89h432v-89l-306 -392h306v-89h-432z" />
<glyph horiz-adv-x="242" d="M19 666h102l103 -135h-75z" />
<glyph horiz-adv-x="606" d="M495 0h43q-59 -49 -55.5 -83t60.5 -35v-64q-33 -6 -63 5t-45.5 32t-19 46.5t16.5 52.5t63 46zM33 0l224 570h99l207 -570h-99l-55 142h-219l-58 -142h-99zM221 227h162l-77 219z" />
<glyph d="M223 -151v57q0 24 22 24h54q22 0 22 -24v-90q0 -25 -9.5 -41t-23.5 -21.5t-27.5 -7.5t-23.5 0l-10 1v33q13 0 19.5 5t7.5 9.5t1 11.5v20h-10q-22 0 -22 23zM56 0v571h270q29 0 54.5 -7t51 -24t40.5 -51.5t15 -83.5q0 -74 -25 -122.5t-78 -54.5l129 -228h-102l-119 218 q-23 1 -83 7t-61 7v-232h-92zM148 299h175q31 0 51.5 21.5t20.5 81.5q0 23 -7 40t-15.5 25t-20.5 12.5t-17.5 5t-11.5 0.5h-175v-186z" />
<glyph horiz-adv-x="222" d="M-59 675q17 16 28.5 25t27.5 19.5t31.5 15.5t30.5 5q27 -1 61 -17.5t46 -17.5q27 -1 92 37l22 -47q-2 -2 -15.5 -13.5t-19 -15.5t-18 -13t-20.5 -12.5t-19.5 -7t-21.5 -2.5q-29 1 -60.5 17.5t-48.5 16.5q-19 0 -33 -5t-32.5 -15t-28.5 -15zM75 0v570h92v-570h-92z" />
<glyph horiz-adv-x="498" d="M232 -151v57q0 24 22 24h54q22 0 22 -24v-90q0 -25 -10 -41t-23.5 -21.5t-27.5 -7.5t-23 0l-10 1v33q10 0 16 2.5t8.5 7t3 8t0.5 8.5v20h-10q-22 0 -22 23zM75 95v475h92v-448q-1 -22 9 -27.5t35 -5.5h255v-89h-296q-44 0 -69.5 24.5t-25.5 70.5z" />
<glyph horiz-adv-x="453" d="M47 581q0 22 15.5 37.5t37.5 15.5t37 -15.5t15 -37.5t-15 -37.5t-37 -15.5t-37.5 15.5t-15.5 37.5zM302 581q0 11 4 21t11 17t17 11t21 4q22 0 37 -15.5t15 -37.5t-15 -37.5t-37 -15.5t-37.5 15.5t-15.5 37.5z" />
<glyph horiz-adv-x="546" d="M123 764h78l76 -68l66 68h77l-104 -131h-80zM51 372v56q0 145 143 145q26 0 77 -3t107.5 -8t89.5 -10v-69q-166 5 -267 5q-58 0 -58 -61v-51q0 -16 3.5 -26t7 -15.5t13 -8t15 -2.5h19.5h161q67 0 100 -37.5t33 -98.5v-64q0 -40 -11.5 -68t-32 -41.5t-42 -19t-47.5 -5.5 q-54 0 -159 6.5t-130 16.5v67q182 -4 279 -4q17 0 30 12t17 25l4 12v61q0 26 -11 38t-40 12h-160q-74 0 -107.5 32.5t-33.5 103.5z" />
<glyph horiz-adv-x="515" d="M140 632v67h292v-67h-292zM75 89v386q0 31 13.5 53t38 32.5t58.5 10.5q274 -10 288 -13v-74h-274q-21 0 -26.5 -6.5t-5.5 -25.5v-123l274 -8v-73l-274 -7v-123q0 -20 8.5 -26t27.5 -6h270v-73q-7 -2 -84.5 -5.5t-150.5 -6.5l-73 -3q-41 0 -65.5 24.5t-24.5 66.5z" />
<glyph horiz-adv-x="575" d="M51 286q0 72 10.5 123.5t35.5 91t68.5 59t107.5 19.5q40 1 116.5 -7t120.5 -18v-72q-9 2 -109.5 7.5t-107.5 5.5q-42 0 -68 -7.5t-45.5 -30t-27.5 -63t-8 -106.5q0 -38 3.5 -66.5t12.5 -55t24.5 -43.5t39.5 -28t57 -12q108 -5 151 35v117h-170v58q86 23 195 23 q31 0 67 -3v-313q-4 -1 -34 0t-36 0l-19 36q-60 -43 -169 -43q-215 1 -215 293zM253 -151v56q0 25 22 25h54q22 0 22 -25v-89q0 -25 -9.5 -41.5t-23.5 -22t-27.5 -7t-23.5 -0.5l-10 2v33q13 -1 19.5 4.5t7.5 10t1 11.5v20h-10q-22 0 -22 23z" />
<glyph horiz-adv-x="489" d="M19 481v89h452v-89h-180v-135h95v-57h-95v-289h-92v289h-99v57h99v135h-180z" />
<glyph horiz-adv-x="497" d="M100 762h78l76 -68l66 68h77l-103 -132h-80zM33 0v89l311 392h-311v89h432v-89l-306 -392h306v-89h-432z" />
<glyph horiz-adv-x="385" d="M47 523v67h292v-67h-292z" />
<glyph horiz-adv-x="295" d="M47 467q0 43 29.5 73t71.5 30t71.5 -30t29.5 -73t-29.5 -73t-71.5 -30t-71.5 30t-29.5 73zM97 467q0 -21 15 -36t36 -15t36 15t15 36t-15 36t-36 15t-36 -15t-15 -36z" />
<glyph horiz-adv-x="242" d="M19 531l102 135h103l-130 -135h-75z" />
<glyph horiz-adv-x="389" d="M47 688h67l77 -85l83 85h69l-114 -157h-80zM229 531z" />
<glyph horiz-adv-x="602" d="M74 0v571h89l292 -402v402h91v-571v-59q-2 -74 -55.5 -114t-142.5 -39v72q41 0 74.5 22.5t33.5 63.5v57l-290 403v-406h-92z" />
<glyph horiz-adv-x="595" d="M160 630v68h292v-68h-292zM33 0l224 570h99l207 -570h-99l-55 142h-219l-58 -142h-99zM221 227h162l-77 219z" />
<glyph horiz-adv-x="595" d="M269 630l103 134h102l-130 -134h-75zM33 0l224 570h99l207 -570h-99l-55 142h-219l-58 -142h-99zM221 227h162l-77 219z" />
<glyph horiz-adv-x="595" d="M158 630l115 132h80l102 -132h-77l-68 68l-74 -68h-78zM33 0l224 570h99l207 -570h-99l-55 142h-219l-58 -142h-99zM221 227h162l-77 219z" />
<glyph horiz-adv-x="595" d="M137 675q17 16 28.5 25t27.5 19.5t31.5 15.5t31.5 5q26 -1 60 -17.5t46 -17.5q27 -1 92 37l22 -47q-3 -3 -13 -11.5t-15.5 -13t-15.5 -12t-17.5 -11.5t-16.5 -8.5t-18 -6.5t-18 -1q-29 1 -60.5 17.5t-48.5 16.5q-15 0 -28 -3.5t-21.5 -8t-21.5 -12t-23 -11.5zM33 0 l224 570h99l207 -570h-99l-55 142h-219l-58 -142h-99zM221 227h162l-77 219z" />
<glyph horiz-adv-x="595" d="M126 683q0 22 16 37.5t37.5 15.5t37 -15.5t15.5 -37.5t-15.5 -37.5t-37 -15.5t-37.5 15.5t-16 37.5zM381 683q0 22 16 37.5t37.5 15.5t37 -15.5t15.5 -37.5t-15.5 -37.5t-37 -15.5t-37.5 15.5t-16 37.5zM33 0l224 570h99l207 -570h-99l-55 142h-219l-58 -142h-99z M221 227h162l-77 219z" />
<glyph horiz-adv-x="595" d="M206 667q0 28 14 51.5t37.5 37.5t51 14t50.5 -14t36.5 -37.5t13.5 -51.5t-13.5 -51.5t-36.5 -37t-51 -13.5q-20 0 -39 8t-32.5 21.5t-22 32.5t-8.5 40zM256 667q0 -21 15.5 -36t37 -15t36 14.5t14.5 36t-15 37t-36 15.5q-14 0 -26 -7t-19 -19t-7 -26zM33 0l224 570h99 l207 -570h-99l-55 142h-219l-58 -142h-99zM221 227h162l-77 219z" />
<glyph horiz-adv-x="784" d="M22 0l232 476q10 21 23 36.5t29.5 25.5t32.5 16.5t38.5 9.5t41.5 4.5t46 1.5q267 -10 281 -13v-73h-267q-21 0 -26.5 -7t-7.5 -26v-127l268 -7v-73l-268 -8v-120q0 -20 9 -25.5t29 -5.5l263 -1v-72q-8 -2 -82 -5.5t-144 -6.5l-71 -2q-29 -1 -51 9t-34 30t-12 49v66h-153 l-76 -152h-101zM237 233h116v237z" />
<glyph horiz-adv-x="222" d="M105 0h44q-60 -49 -56 -83t60 -35v-64q-32 -6 -62 5t-46 32.5t-19.5 46.5t17 52.5t62.5 45.5zM75 0v570h92v-570h-92z" />
<glyph horiz-adv-x="518" d="M142 774h78l75 -68l67 68h77l-104 -131h-80zM51 295q0 49 5 88t19 76.5t37 62.5t60.5 40.5t87.5 15.5q43 0 115.5 -8t110.5 -18v-70q-13 3 -92.5 7.5t-124.5 4.5q-72 0 -99 -49t-27 -150q0 -38 2 -64.5t9.5 -56.5t20.5 -49t37 -31.5t57 -13.5l217 12v-68 q-114 -28 -226 -28q-54 0 -93 18t-60.5 45t-34.5 69t-17 80t-4 87z" />
<glyph horiz-adv-x="515" d="M248 632l103 134h102l-130 -134h-75zM75 89v386q0 31 13.5 53t38 32.5t58.5 10.5q274 -10 288 -13v-74h-274q-21 0 -26.5 -6.5t-5.5 -25.5v-123l274 -8v-73l-274 -7v-123q0 -20 8.5 -26t27.5 -6h270v-73q-7 -2 -84.5 -5.5t-150.5 -6.5l-73 -3q-41 0 -65.5 24.5 t-24.5 66.5z" />
<glyph horiz-adv-x="515" d="M430 13h43q-59 -50 -55.5 -84t60.5 -34v-65q-33 -5 -63 5.5t-45.5 32t-19 47t17 52.5t62.5 46zM75 89v386q0 31 13.5 53t38 32.5t58.5 10.5q274 -10 288 -13v-74h-274q-21 0 -26.5 -6.5t-5.5 -25.5v-123l274 -8v-73l-274 -7v-123q0 -20 8.5 -26t27.5 -6h270v-73 q-7 -2 -84.5 -5.5t-150.5 -6.5l-73 -3q-41 0 -65.5 24.5t-24.5 66.5z" />
<glyph horiz-adv-x="515" d="M104 685q0 22 15.5 37t37.5 15t37.5 -15t15.5 -37q0 -14 -7 -26.5t-19 -19.5t-27 -7q-21 0 -37 15.5t-16 37.5zM359 685q0 22 15.5 37t37.5 15t37.5 -15t15.5 -37q0 -14 -7 -26.5t-19 -19.5t-26.5 -7t-27 7t-19.5 19.5t-7 26.5zM75 89v386q0 31 13.5 53t38 32.5 t58.5 10.5q274 -10 288 -13v-74h-274q-21 0 -26.5 -6.5t-5.5 -25.5v-123l274 -8v-73l-274 -7v-123q0 -20 8.5 -26t27.5 -6h270v-73q-7 -2 -84.5 -5.5t-150.5 -6.5l-73 -3q-41 0 -65.5 24.5t-24.5 66.5z" />
<glyph horiz-adv-x="515" d="M242 655v60q0 25 24 25h56q10 0 16.5 -7t6.5 -18v-60q0 -23 -23 -23h-56q-11 0 -17.5 6t-6.5 17zM75 89v386q0 31 13.5 53t38 32.5t58.5 10.5q274 -10 288 -13v-74h-274q-21 0 -26.5 -6.5t-5.5 -25.5v-123l274 -8v-73l-274 -7v-123q0 -20 8.5 -26t27.5 -6h270v-73 q-7 -2 -84.5 -5.5t-150.5 -6.5l-73 -3q-41 0 -65.5 24.5t-24.5 66.5z" />
<glyph horiz-adv-x="222" d="M89 630l102 134h103l-130 -134h-75zM75 0v570h92v-570h-92z" />
<glyph horiz-adv-x="222" d="M-22 630l114 132h80l102 -132h-77l-67 68l-74 -68h-78zM75 0v570h92v-570h-92z" />
<glyph horiz-adv-x="222" d="M-18 630v68h292v-68h-292zM75 0v570h92v-570h-92z" />
<glyph horiz-adv-x="594" d="M19 262v57h65v253h63.5t111 -0.5t70.5 -0.5q49 0 87 -18t60.5 -46.5t37 -67.5t20 -76.5t5.5 -79.5q0 -59 -9.5 -105.5t-23 -75.5t-35.5 -50t-39 -30.5t-42 -15t-36 -6t-29 -0.5h-241v262h-65zM179 88h129q39 0 66 15t41 43t20 61t6 76q0 198 -128 198h-134v-162h94v-57 h-94v-174z" />
<glyph horiz-adv-x="602" d="M262 -151v57q0 24 22 24h54q22 0 22 -24v-90q0 -25 -9.5 -41t-23.5 -21.5t-28 -7.5t-23 0l-10 1v33q13 0 19.5 5t7.5 9.5t1 11.5v20h-10q-22 0 -22 23zM75 0v571h89l292 -402v402h91v-571h-88l-292 406v-406h-92z" />
<glyph horiz-adv-x="606" d="M158 644v68h292v-68h-292zM51 280q0 90 15.5 148.5t49 90.5t77 44t110.5 12q44 0 75 -3.5t62 -14t50.5 -30.5t35 -51.5t22.5 -78.5t7 -110q0 -73 -10.5 -124.5t-29.5 -84t-51.5 -51t-70 -25.5t-90.5 -7q-37 0 -65 2.5t-55.5 10.5t-46.5 21t-36 34.5t-27 51.5t-16 71 t-6 94zM143 285q0 -54 6.5 -90.5t17.5 -58.5t32 -33.5t44 -15t60 -3.5q20 0 32.5 0.5t30 3t27.5 8.5t23 15t20 24.5t14 36t10 49.5t3 66q0 30 -1.5 54t-5.5 43t-7.5 33.5t-12 25t-14.5 18t-18 12.5t-20 7.5t-24.5 4t-26.5 1.5h-30h-3q-43 0 -63.5 -3.5t-46.5 -21t-36.5 -61 t-10.5 -115.5z" />
<glyph horiz-adv-x="563" d="M238 -152v56q0 25 22 25h54q22 0 22 -25v-89q0 -25 -9.5 -41t-23.5 -21.5t-27.5 -7.5t-23.5 0l-10 1v33q13 0 19.5 5t7.5 9.5t1 12.5v19h-10q-22 0 -22 23zM75 -1v571h90v-248h69l186 248h111l-217 -290l217 -281h-111l-188 237h-67v-237h-90z" />
<glyph horiz-adv-x="606" d="M152 631l114 131h80l102 -131h-77l-67 68l-74 -68h-78zM51 280q0 90 15.5 148.5t49 90.5t77 44t110.5 12q44 0 75 -3.5t62 -14t50.5 -30.5t35 -51.5t22.5 -78.5t7 -110q0 -73 -10.5 -124.5t-29.5 -84t-51.5 -51t-70 -25.5t-90.5 -7q-37 0 -65 2.5t-55.5 10.5t-46.5 21 t-36 34.5t-27 51.5t-16 71t-6 94zM143 285q0 -54 6.5 -90.5t17.5 -58.5t32 -33.5t44 -15t60 -3.5q20 0 32.5 0.5t30 3t27.5 8.5t23 15t20 24.5t14 36t10 49.5t3 66q0 30 -1.5 54t-5.5 43t-7.5 33.5t-12 25t-14.5 18t-18 12.5t-20 7.5t-24.5 4t-26.5 1.5h-30h-3 q-43 0 -63.5 -3.5t-46.5 -21t-36.5 -61t-10.5 -115.5z" />
<glyph horiz-adv-x="606" d="M146 680q24 21 39 32.5t37 22t42 10.5q12 0 23.5 -3t20 -6.5t17.5 -8l16 -8t15 -6t15 -3.5q27 -1 92 37l22 -47q-2 -2 -15.5 -13.5t-19 -15.5t-18 -13t-20.5 -12.5t-19.5 -7t-21.5 -2.5q-29 1 -60.5 17.5t-48.5 16.5q-19 0 -33.5 -5t-32.5 -15t-28 -15zM51 280 q0 90 15.5 148.5t49 90.5t77 44t110.5 12q44 0 75 -3.5t62 -14t50.5 -30.5t35 -51.5t22.5 -78.5t7 -110q0 -73 -10.5 -124.5t-29.5 -84t-51.5 -51t-70 -25.5t-90.5 -7q-37 0 -65 2.5t-55.5 10.5t-46.5 21t-36 34.5t-27 51.5t-16 71t-6 94zM143 285q0 -54 6.5 -90.5 t17.5 -58.5t32 -33.5t44 -15t60 -3.5q20 0 32.5 0.5t30 3t27.5 8.5t23 15t20 24.5t14 36t10 49.5t3 66q0 30 -1.5 54t-5.5 43t-7.5 33.5t-12 25t-14.5 18t-18 12.5t-20 7.5t-24.5 4t-26.5 1.5h-30h-3q-43 0 -63.5 -3.5t-46.5 -21t-36.5 -61t-10.5 -115.5z" />
<glyph horiz-adv-x="606" d="M120 688q0 7 2 14t5.5 13t8 10.5t10.5 8t13 5t14 1.5q22 0 37 -15t15 -37t-15 -37.5t-37 -15.5t-37.5 15.5t-15.5 37.5zM375 688q0 22 15.5 37t37.5 15t37 -15t15 -37t-15 -37.5t-37 -15.5t-37.5 15.5t-15.5 37.5zM51 280q0 90 15.5 148.5t49 90.5t77 44t110.5 12 q44 0 75 -3.5t62 -14t50.5 -30.5t35 -51.5t22.5 -78.5t7 -110q0 -73 -10.5 -124.5t-29.5 -84t-51.5 -51t-70 -25.5t-90.5 -7q-37 0 -65 2.5t-55.5 10.5t-46.5 21t-36 34.5t-27 51.5t-16 71t-6 94zM143 285q0 -54 6.5 -90.5t17.5 -58.5t32 -33.5t44 -15t60 -3.5 q20 0 32.5 0.5t30 3t27.5 8.5t23 15t20 24.5t14 36t10 49.5t3 66q0 30 -1.5 54t-5.5 43t-7.5 33.5t-12 25t-14.5 18t-18 12.5t-20 7.5t-24.5 4t-26.5 1.5h-30h-3q-43 0 -63.5 -3.5t-46.5 -21t-36.5 -61t-10.5 -115.5z" />
<glyph horiz-adv-x="594" d="M43 0q50 68 51 69q-42 65 -42 211q0 91 14.5 149t47 90t75.5 44t110 12q114 0 161 -30q3 4 10 12.5t10 12.5h65q-7 -8 -23.5 -29.5t-22.5 -29.5q48 -63 48 -224q0 -73 -10 -124.5t-28.5 -84t-50 -51t-69 -25.5t-90.5 -7q-118 0 -169 38q-14 -19 -25 -33h-62zM144 285 q0 -87 16 -129q41 54 126.5 163.5t117.5 150.5q-7 4 -16.5 7.5t-18 5t-22.5 2.5t-22.5 1h-25.5h-3h-25.5t-23.5 -1.5t-22.5 -4t-19.5 -7.5t-18 -12.5t-14.5 -18t-12.5 -25.5t-8.5 -34t-6 -43.5t-1.5 -54.5zM187 109q29 -25 112 -25q20 0 32 0.5t29.5 3t27.5 8.5t22 15 t19 24.5t13.5 36t9.5 49.5t3 66q0 97 -20 142q-133 -169 -248 -320z" />
<glyph horiz-adv-x="570" d="M298 -2h44q-60 -49 -56 -83t60 -35v-64q-32 -6 -62 4.5t-46 32t-19.5 47t17 52.5t62.5 46zM75 260v310h93v-310q-1 -32 2 -57t8.5 -43.5t14.5 -31.5t20.5 -21.5t28 -13.5t34 -7t41.5 -2q36 0 60.5 6.5t44.5 25t29.5 54t9.5 90.5v310h93v-310q0 -68 -13.5 -117t-35 -77 t-54 -44.5t-63.5 -21.5t-71 -5q-33 0 -57 2t-50.5 8.5t-45.5 18.5t-37 31.5t-29 47t-17.5 67.5t-5.5 90z" />
<glyph horiz-adv-x="609" d="M277 630l102 134h103l-130 -134h-75zM75 260v310h93v-310q-1 -32 2 -57t8.5 -43.5t14.5 -31.5t20.5 -21.5t28 -13.5t34 -7t41.5 -2q36 0 60.5 6.5t44.5 25t29.5 54t9.5 90.5v310h93v-310q0 -68 -13.5 -117t-35 -77t-54 -44.5t-63.5 -21.5t-71 -5q-33 0 -57 2t-50.5 8.5 t-45.5 18.5t-37 31.5t-29 47t-17.5 67.5t-5.5 90z" />
<glyph horiz-adv-x="609" d="M164 630l114 132h80l102 -132h-77l-67 68l-74 -68h-78zM75 260v310h93v-310q-1 -32 2 -57t8.5 -43.5t14.5 -31.5t20.5 -21.5t28 -13.5t34 -7t41.5 -2q36 0 60.5 6.5t44.5 25t29.5 54t9.5 90.5v310h93v-310q0 -68 -13.5 -117t-35 -77t-54 -44.5t-63.5 -21.5t-71 -5 q-33 0 -57 2t-50.5 8.5t-45.5 18.5t-37 31.5t-29 47t-17.5 67.5t-5.5 90z" />
<glyph horiz-adv-x="609" d="M131 683q0 22 15.5 37.5t37.5 15.5t37 -15.5t15 -37.5t-15 -37.5t-37 -15.5t-37.5 15.5t-15.5 37.5zM386 683q0 22 15.5 37.5t37.5 15.5t37 -15.5t15 -37.5t-15 -37.5t-37 -15.5t-37.5 15.5t-15.5 37.5zM75 260v310h93v-310q-1 -32 2 -57t8.5 -43.5t14.5 -31.5 t20.5 -21.5t28 -13.5t34 -7t41.5 -2q36 0 60.5 6.5t44.5 25t29.5 54t9.5 90.5v310h93v-310q0 -68 -13.5 -117t-35 -77t-54 -44.5t-63.5 -21.5t-71 -5q-33 0 -57 2t-50.5 8.5t-45.5 18.5t-37 31.5t-29 47t-17.5 67.5t-5.5 90z" />
<glyph horiz-adv-x="609" d="M142 675q18 16 29.5 25t27.5 19.5t31 15.5t31 5q27 -1 60.5 -17.5t46.5 -17.5q27 -1 91 37l23 -47q-3 -2 -16 -13.5t-18.5 -15.5t-18 -13t-21 -12.5t-19.5 -7t-22 -2.5q-28 1 -59.5 17.5t-48.5 16.5q-15 0 -28.5 -3.5t-21.5 -8t-21 -12t-24 -11.5zM75 260v310h93v-310 q-1 -32 2 -57t8.5 -43.5t14.5 -31.5t20.5 -21.5t28 -13.5t34 -7t41.5 -2q36 0 60.5 6.5t44.5 25t29.5 54t9.5 90.5v310h93v-310q0 -68 -13.5 -117t-35 -77t-54 -44.5t-63.5 -21.5t-71 -5q-33 0 -57 2t-50.5 8.5t-45.5 18.5t-37 31.5t-29 47t-17.5 67.5t-5.5 90z" />
<glyph horiz-adv-x="609" d="M166 630v68h292v-68h-292zM75 260v310h93v-310q-1 -32 2 -57t8.5 -43.5t14.5 -31.5t20.5 -21.5t28 -13.5t34 -7t41.5 -2q36 0 60.5 6.5t44.5 25t29.5 54t9.5 90.5v310h93v-310q0 -68 -13.5 -117t-35 -77t-54 -44.5t-63.5 -21.5t-71 -5q-33 0 -57 2t-50.5 8.5t-45.5 18.5 t-37 31.5t-29 47t-17.5 67.5t-5.5 90z" />
<glyph horiz-adv-x="1020" d="M35 372q0 -71 33 -103.5t108 -32.5h151q19 0 30.5 -6t16 -16.5t4.5 -26.5v-62q0 -49 -51 -49l-270 4v-67q24 -10 125.5 -16.5t154.5 -6.5q26 0 47 5.5t41.5 19t32.5 41.5t12 68v64q0 40 -13.5 69.5t-44 48t-75.5 18.5h-152h-20.5t-15 2.5t-13 8t-6.5 15.5t-3 26v58 q0 26 12.5 40t45.5 14l258 -5v69q-51 8 -138.5 14.5t-127.5 6.5q-77 0 -109.5 -35.5t-32.5 -102.5v-63zM544 435q0 67 33 102.5t110 35.5q40 0 127.5 -6.5t138.5 -14.5v-69q-158 5 -259 5q-32 0 -45 -14t-13 -40v-58q0 -20 3.5 -31t13.5 -15.5t17 -5t24 -0.5h153 q67 0 100 -37.5t33 -98.5v-64q0 -40 -12 -68t-32.5 -41.5t-42 -19t-46.5 -5.5q-53 0 -154.5 6.5t-126.5 16.5v67q173 -4 270 -4q52 0 52 49v62q0 25 -11.5 37t-40.5 12h-151q-49 0 -80 14t-46 44t-15 78v63z" />
<glyph horiz-adv-x="595" d="M126 764h102l103 -134h-75zM33 0l224 570h99l207 -570h-99l-55 142h-219l-58 -142h-99zM221 227h162l-77 219z" />
<glyph horiz-adv-x="518" d="M187 -131l50 15q20 8 26 27t6 52h74q0 -78 -21.5 -107.5t-82.5 -29.5h-52v43zM51 295q0 49 5 88t19 76.5t37 62.5t60.5 40.5t87.5 15.5q43 0 115.5 -8t110.5 -18v-70q-13 3 -92.5 7.5t-124.5 4.5q-72 0 -99 -49t-27 -150q0 -38 2 -64.5t9.5 -56.5t20.5 -49t37 -31.5 t57 -13.5l217 12v-68q-114 -28 -226 -28q-54 0 -93 18t-60.5 45t-34.5 69t-17 80t-4 87z" />
<glyph horiz-adv-x="594" d="M19 262v57h65v253h63.5t111 -0.5t70.5 -0.5q49 0 87 -18t60.5 -46.5t37 -67.5t20 -76.5t5.5 -79.5q0 -59 -9.5 -105.5t-23 -75.5t-35.5 -50t-39 -30.5t-42 -15t-36 -6t-29 -0.5h-241v262h-65zM179 88h129q39 0 66 15t41 43t20 61t6 76q0 198 -128 198h-134v-162h94v-57 h-94v-174z" />
<glyph horiz-adv-x="515" d="M137 766h103l102 -134h-75zM75 89v386q0 31 13.5 53t38 32.5t58.5 10.5q274 -10 288 -13v-74h-274q-21 0 -26.5 -6.5t-5.5 -25.5v-123l274 -8v-73l-274 -7v-123q0 -20 8.5 -26t27.5 -6h270v-73q-7 -2 -84.5 -5.5t-150.5 -6.5l-73 -3q-41 0 -65.5 24.5t-24.5 66.5z" />
<glyph horiz-adv-x="515" d="M141 632l114 131h80l102 -131h-77l-67 68l-74 -68h-78zM75 89v386q0 31 13.5 53t38 32.5t58.5 10.5q274 -10 288 -13v-74h-274q-21 0 -26.5 -6.5t-5.5 -25.5v-123l274 -8v-73l-274 -7v-123q0 -20 8.5 -26t27.5 -6h270v-73q-7 -2 -84.5 -5.5t-150.5 -6.5l-73 -3 q-41 0 -65.5 24.5t-24.5 66.5z" />
<glyph horiz-adv-x="222" d="M-40 764h102l103 -134h-75zM75 0v570h92v-570h-92z" />
<glyph horiz-adv-x="222" d="M-54 683q0 22 15.5 37.5t37.5 15.5t37 -15.5t15 -37.5t-15 -37.5t-37 -15.5t-37.5 15.5t-15.5 37.5zM201 683q0 22 15.5 37.5t37.5 15.5t37 -15.5t15 -37.5t-15 -37.5t-37 -15.5t-37.5 15.5t-15.5 37.5zM75 0v570h92v-570h-92z" />
<glyph horiz-adv-x="602" d="M132 676q18 16 29.5 25t27.5 19.5t31 15.5t31 5q27 -1 60.5 -17.5t46.5 -17.5q27 -1 91 37l23 -47q-3 -2 -16.5 -13.5t-18.5 -15.5t-17.5 -13t-21 -12.5t-20 -7t-21.5 -2.5q-29 1 -60 17.5t-48 16.5q-15 0 -28.5 -3.5t-21.5 -8t-21.5 -12t-23.5 -11.5zM75 0v571h89 l292 -402v402h91v-571h-88l-292 406v-406h-92z" />
<glyph horiz-adv-x="606" d="M148 770h103l102 -135h-75zM51 280q0 90 15.5 148.5t49 90.5t77 44t110.5 12q44 0 75 -3.5t62 -14t50.5 -30.5t35 -51.5t22.5 -78.5t7 -110q0 -73 -10.5 -124.5t-29.5 -84t-51.5 -51t-70 -25.5t-90.5 -7q-37 0 -65 2.5t-55.5 10.5t-46.5 21t-36 34.5t-27 51.5t-16 71 t-6 94zM143 285q0 -54 6.5 -90.5t17.5 -58.5t32 -33.5t44 -15t60 -3.5q20 0 32.5 0.5t30 3t27.5 8.5t23 15t20 24.5t14 36t10 49.5t3 66q0 30 -1.5 54t-5.5 43t-7.5 33.5t-12 25t-14.5 18t-18 12.5t-20 7.5t-24.5 4t-26.5 1.5h-30h-3q-43 0 -63.5 -3.5t-46.5 -21t-36.5 -61 t-10.5 -115.5z" />
<glyph horiz-adv-x="606" d="M277 635l103 135h102l-130 -135h-75zM51 280q0 90 15.5 148.5t49 90.5t77 44t110.5 12q44 0 75 -3.5t62 -14t50.5 -30.5t35 -51.5t22.5 -78.5t7 -110q0 -73 -10.5 -124.5t-29.5 -84t-51.5 -51t-70 -25.5t-90.5 -7q-37 0 -65 2.5t-55.5 10.5t-46.5 21t-36 34.5t-27 51.5 t-16 71t-6 94zM143 285q0 -54 6.5 -90.5t17.5 -58.5t32 -33.5t44 -15t60 -3.5q20 0 32.5 0.5t30 3t27.5 8.5t23 15t20 24.5t14 36t10 49.5t3 66q0 30 -1.5 54t-5.5 43t-7.5 33.5t-12 25t-14.5 18t-18 12.5t-20 7.5t-24.5 4t-26.5 1.5h-30h-3q-43 0 -63.5 -3.5t-46.5 -21 t-36.5 -61t-10.5 -115.5z" />
<glyph horiz-adv-x="609" d="M155 764h103l102 -134h-75zM75 260v310h93v-310q-1 -32 2 -57t8.5 -43.5t14.5 -31.5t20.5 -21.5t28 -13.5t34 -7t41.5 -2q36 0 60.5 6.5t44.5 25t29.5 54t9.5 90.5v310h93v-310q0 -68 -13.5 -117t-35 -77t-54 -44.5t-63.5 -21.5t-71 -5q-33 0 -57 2t-50.5 8.5t-45.5 18.5 t-37 31.5t-29 47t-17.5 67.5t-5.5 90z" />
<glyph horiz-adv-x="573" d="M237 630l102 134h103l-130 -134h-75zM33 570h100l156 -281l151 281h101l-207 -378v-193h-92v193z" />
<glyph horiz-adv-x="536" d="M70 0v569h91v-101h162q15 0 30 -3t33 -9t33.5 -18.5t28 -30.5t20 -46.5t7.5 -64.5q0 -41 -6 -73t-18 -52t-25.5 -33.5t-31.5 -19.5t-32.5 -8t-32.5 -2q-110 0 -168 16v-124h-91zM161 198h156q25 0 38.5 7.5t20.5 29t7 61.5q0 45 -17 63.5t-49 22.5h-156v-184z" />
<glyph horiz-adv-x="265" d="M74 29v73q0 32 29 32h70q28 0 28 -32v-117q0 -33 -12.5 -54.5t-30 -29.5t-35.5 -11t-31 -1l-12 2v43q37 -1 37 37v28h-14q-13 0 -21 7.5t-8 22.5z" />
<glyph horiz-adv-x="435" d="M240 368l1 117q0 33 12.5 55t30.5 29.5t36 10t30 0.5l13 -1v-44q-38 1 -38 -37v-27h15q12 0 20 -7.5t8 -21.5v-74q0 -32 -28 -32h-70q-30 0 -30 32zM67 368v117q0 33 12.5 55t30.5 29.5t35.5 10t30.5 0.5l12 -1v-44q-36 1 -36 -37v-27h13q13 0 21.5 -7.5t8.5 -22.5v-73 q0 -32 -30 -32h-70q-28 0 -28 32z" />
<glyph horiz-adv-x="435" d="M67 476v73q0 32 29 32h70q29 0 29 -32v-117q0 -24 -7 -42.5t-17.5 -28t-23.5 -16t-26.5 -8t-24 -1.5t-17.5 1l-7 1v43q38 -1 38 37v28h-14q-13 0 -21 7.5t-8 22.5zM240 476v73q0 32 30 32h70q28 0 28 -32v-117q0 -33 -12.5 -55t-30 -29.5t-35.5 -10.5t-30 -1l-13 2v43 q36 -1 36 37v28h-13q-8 0 -14.5 3t-11 10t-4.5 17z" />
<glyph horiz-adv-x="435" d="M67 29v73q0 32 29 32h70q29 0 29 -32v-117q0 -24 -7 -42t-17.5 -28t-23.5 -16.5t-26.5 -8t-24 -1.5t-17.5 1l-7 1v43q38 -1 38 37v28h-14q-13 0 -21 7.5t-8 22.5zM240 29v73q0 32 30 32h70q28 0 28 -32v-117q0 -33 -12.5 -54.5t-30 -29.5t-35.5 -11t-30 -1l-13 2v43 q36 -1 36 37v28h-13q-12 0 -21 7.5t-9 22.5z" />
<glyph horiz-adv-x="270" d="M78 481v66q0 23 23 23h64q11 0 17.5 -6.5t6.5 -16.5v-66q0 -25 -24 -25h-64q-10 0 -16.5 7t-6.5 18zM83 0l8 398h86l9 -398h-103z" />
<glyph horiz-adv-x="420" d="M42 396q0 107 36 147t132 40t131.5 -40t35.5 -147q0 -98 -35.5 -137.5t-131 -39.5t-132 40t-36.5 137zM54 129v61h311v-61h-311zM117 396q0 -38 5.5 -60.5t20 -32.5t28 -12.5t39.5 -2.5q17 0 25.5 0.5t20 2.5t17 6t12.5 12t10 19.5t5 28t3 39.5q0 42 -4.5 66.5 t-18.5 35.5t-27.5 13.5t-42.5 2.5q-17 0 -25.5 -0.5t-20.5 -2.5t-18 -7t-13 -13t-9.5 -21t-4.5 -31t-2 -43z" />
<glyph horiz-adv-x="413" d="M57 131v61h329v-61h-329zM60 227l123 343h92l109 -343h-70l-26 86h-126l-28 -86h-74zM184 371h86l-40 133z" />
<glyph horiz-adv-x="516" d="M15 198v52l65 5v53l-65 6v48l65 7q0 208 196 208q15 0 41 -2t54.5 -5.5t58 -7.5t51.5 -8v-74q-134 11 -198 11q-25 0 -44 -4.5t-30.5 -14t-19 -20t-11 -26t-4.5 -27.5t-1 -30l182 -6v-50l-182 -5v-53l182 -5v-52q-12 0 -31 -0.5t-59 -1.5t-66.5 -2t-25.5 -2 q0 -108 110 -108q35 0 85.5 3t83.5 7l32 3v-74q-90 -28 -208 -28q-21 0 -42.5 3.5t-50.5 15.5t-50.5 32.5t-37 58t-15.5 87.5z" />
<glyph horiz-adv-x="496" d="M72 95v475h92v-448q0 -22 10 -27.5t34 -5.5h255v-89h-296q-43 0 -69 24.5t-26 70.5zM232 544v67h80v-67l-10 -134h-59z" />
<glyph horiz-adv-x="546" d="M225 638l103 135h102l-130 -135h-75zM51 372v56q0 145 143 145q26 0 77 -3t107.5 -8t89.5 -10v-69q-166 5 -267 5q-58 0 -58 -61v-51q0 -16 3.5 -26t7 -15.5t13 -8t15 -2.5h19.5h161q67 0 100 -37.5t33 -98.5v-64q0 -40 -11.5 -68t-32 -41.5t-42 -19t-47.5 -5.5 q-54 0 -159 6.5t-130 16.5v67q182 -4 279 -4q17 0 30 12t17 25l4 12v61q0 26 -11 38t-40 12h-160q-74 0 -107.5 32.5t-33.5 103.5z" />
<glyph horiz-adv-x="546" d="M127 -134l50 15q19 9 25.5 27.5t6.5 51.5h74q0 -77 -21.5 -107t-82.5 -30h-52v43zM51 372v56q0 145 143 145q26 0 77 -3t107.5 -8t89.5 -10v-69q-166 5 -267 5q-58 0 -58 -61v-51q0 -16 3.5 -26t7 -15.5t13 -8t15 -2.5h19.5h161q67 0 100 -37.5t33 -98.5v-64 q0 -40 -11.5 -68t-32 -41.5t-42 -19t-47.5 -5.5q-54 0 -159 6.5t-130 16.5v67q182 -4 279 -4q17 0 30 12t17 25l4 12v61q0 26 -11 38t-40 12h-160q-74 0 -107.5 32.5t-33.5 103.5z" />
<glyph horiz-adv-x="601" d="M184 773h78l75 -68l66 68h77l-103 -132h-80zM107 481v89h452v-89h-180v-481h-92v481h-180z" />
<glyph horiz-adv-x="497" d="M213 630l103 134h102l-130 -134h-75zM33 0v89l311 392h-311v89h432v-89l-306 -392h306v-89h-432z" />
<glyph horiz-adv-x="497" d="M197 653v60q0 25 24 25h56q11 0 17 -7t6 -18v-60q0 -23 -23 -23h-56q-10 0 -17 6.5t-7 16.5zM33 0v89l311 392h-311v89h432v-89l-306 -392h306v-89h-432z" />
<glyph d="M227 631l102 134h103l-130 -134h-75zM56 0v571h270q29 0 54.5 -7t51 -24t40.5 -51.5t15 -83.5q0 -74 -25 -122.5t-78 -54.5l129 -228h-102l-119 218q-23 1 -83 7t-61 7v-232h-92zM148 299h175q31 0 51.5 21.5t20.5 81.5q0 23 -7 40t-15.5 25t-20.5 12.5t-17.5 5 t-11.5 0.5h-175v-186z" />
<glyph horiz-adv-x="595" d="M192 744h50q0 -27 19 -45.5t45 -18.5q29 0 47.5 17.5t18.5 46.5h50q0 -53 -35 -83.5t-81 -30.5t-80 31.5t-34 82.5zM33 0l224 570h99l207 -570h-99l-55 142h-219l-58 -142h-99zM221 227h162l-77 219z" />
<glyph horiz-adv-x="498" d="M90 630l102 134h103l-130 -134h-75zM75 95v475h92v-448q-1 -22 9 -27.5t35 -5.5h255v-89h-296q-44 0 -69.5 24.5t-25.5 70.5z" />
<glyph horiz-adv-x="518" d="M242 643l103 135h102l-130 -135h-75zM51 295q0 49 5 88t19 76.5t37 62.5t60.5 40.5t87.5 15.5q43 0 115.5 -8t110.5 -18v-70q-13 3 -92.5 7.5t-124.5 4.5q-72 0 -99 -49t-27 -150q0 -38 2 -64.5t9.5 -56.5t20.5 -49t37 -31.5t57 -13.5l217 12v-68q-114 -28 -226 -28 q-54 0 -93 18t-60.5 45t-34.5 69t-17 80t-4 87z" />
<glyph horiz-adv-x="515" d="M131 762h78l76 -68l66 68h77l-103 -131h-80zM75 89v386q0 31 13.5 53t38 32.5t58.5 10.5q274 -10 288 -13v-74h-274q-21 0 -26.5 -6.5t-5.5 -25.5v-123l274 -8v-73l-274 -7v-123q0 -20 8.5 -26t27.5 -6h270v-73q-7 -2 -84.5 -5.5t-150.5 -6.5l-73 -3q-41 0 -65.5 24.5 t-24.5 66.5z" />
<glyph horiz-adv-x="599" d="M192 763h78l75 -68l66 68h77l-103 -131h-80zM126 0v572h253q51 -1 90.5 -19t63 -46.5t38.5 -67.5t21 -76.5t6 -79.5q0 -46 -6 -84.5t-14.5 -66t-22.5 -49t-27 -35t-31.5 -23.5t-31.5 -14.5t-32.5 -7t-29 -3t-24.5 -0.5h-253zM218 88h156q39 0 66 15.5t40.5 44t19.5 61 t6 74.5q0 103 -35.5 152t-96.5 49h-156v-396z" />
<glyph horiz-adv-x="602" d="M288 631l102 135h103l-130 -135h-75zM75 0v571h89l292 -402v402h91v-571h-88l-292 406v-406h-92z" />
<glyph horiz-adv-x="602" d="M165 762h78l76 -68l66 68h77l-103 -131h-80zM75 0v571h89l292 -402v402h91v-571h-88l-292 406v-406h-92z" />
<glyph horiz-adv-x="606" d="M196 635l102 135h103l-130 -135h-75zM336 635l103 135h102l-130 -135h-75zM51 280q0 90 15.5 148.5t49 90.5t77 44t110.5 12q44 0 75 -3.5t62 -14t50.5 -30.5t35 -51.5t22.5 -78.5t7 -110q0 -73 -10.5 -124.5t-29.5 -84t-51.5 -51t-70 -25.5t-90.5 -7q-37 0 -65 2.5 t-55.5 10.5t-46.5 21t-36 34.5t-27 51.5t-16 71t-6 94zM143 285q0 -54 6.5 -90.5t17.5 -58.5t32 -33.5t44 -15t60 -3.5q20 0 32.5 0.5t30 3t27.5 8.5t23 15t20 24.5t14 36t10 49.5t3 66q0 30 -1.5 54t-5.5 43t-7.5 33.5t-12 25t-14.5 18t-18 12.5t-20 7.5t-24.5 4t-26.5 1.5 h-30h-3q-43 0 -63.5 -3.5t-46.5 -21t-36.5 -61t-10.5 -115.5z" />
<glyph d="M111 762h77l76 -68l66 68h77l-103 -131h-80zM56 0v571h270q29 0 54.5 -7t51 -24t40.5 -51.5t15 -83.5q0 -74 -25 -122.5t-78 -54.5l129 -228h-102l-119 218q-23 1 -83 7t-61 7v-232h-92zM148 299h175q31 0 51.5 21.5t20.5 81.5q0 23 -7 40t-15.5 25t-20.5 12.5t-17.5 5 t-11.5 0.5h-175v-186z" />
<glyph horiz-adv-x="609" d="M213 707q0 28 13.5 51.5t37 37.5t51 14t51 -14t37 -37.5t13.5 -52t-13.5 -51.5t-37 -37t-51 -14t-51 13.5t-37 37.5t-13.5 52zM263 706.5q0 -21.5 15 -36t36.5 -14.5t36 14.5t14.5 36t-14.5 36.5t-36 15t-36.5 -15t-15 -36.5zM75 260v310h93v-310q-1 -32 2 -57t8.5 -43.5 t14.5 -31.5t20.5 -21.5t28 -13.5t34 -7t41.5 -2q36 0 60.5 6.5t44.5 25t29.5 54t9.5 90.5v310h93v-310q0 -68 -13.5 -117t-35 -77t-54 -44.5t-63.5 -21.5t-71 -5q-33 0 -57 2t-50.5 8.5t-45.5 18.5t-37 31.5t-29 47t-17.5 67.5t-5.5 90z" />
<glyph horiz-adv-x="609" d="M202 630l103 134h102l-130 -134h-75zM343 630l103 134h102l-130 -134h-75zM75 260v310h93v-310q-1 -32 2 -57t8.5 -43.5t14.5 -31.5t20.5 -21.5t28 -13.5t34 -7t41.5 -2q36 0 60.5 6.5t44.5 25t29.5 54t9.5 90.5v310h93v-310q0 -68 -13.5 -117t-35 -77t-54 -44.5 t-63.5 -21.5t-71 -5q-33 0 -57 2t-50.5 8.5t-45.5 18.5t-37 31.5t-29 47t-17.5 67.5t-5.5 90z" />
<glyph horiz-adv-x="517" d="M110 -140l50 15q14 6 21 18.5t9 26t2 34.5h74q0 -77 -21.5 -107t-82.5 -30h-52v43zM33 481v89h452v-89h-180v-481h-92v481h-180z" />
<glyph horiz-adv-x="492" d="M19 224v68l64 26v252h92v-215l112 45v-67l-112 -46v-165q0 -22 10 -27.5t34 -5.5h255v-89h-296q-43 0 -69 24.5t-26 70.5v155z" />
<glyph horiz-adv-x="492" d="M52 159v42q0 75 56 114t136 26v58h85v-133q-68 2 -105 0q-31 -1 -55.5 -17t-24.5 -47v-40q0 -76 91 -76h224v-72q-146 -21 -230 -17q-56 0 -96 20t-60.5 56.5t-20.5 85.5zM231 482v66q0 23 25 23h62q11 0 17.5 -6.5t6.5 -16.5v-66q0 -25 -24 -25h-62q-25 0 -25 25z" />
<glyph horiz-adv-x="881" d="M37 280q0 90 15.5 148.5t49 90.5t77 44t110.5 12q65 0 107.5 -10t70.5 -37q25 43 92 43q274 -10 288 -13v-74h-274q-15 0 -22 -3.5t-8.5 -9.5t-1.5 -19v-123l274 -8v-73l-274 -7v-123q0 -20 9 -26t27 -6h270v-73q-7 -2 -84 -5.5t-151 -6.5l-73 -3q-55 0 -76 45 q-19 -19 -45.5 -29.5t-57 -14.5t-71.5 -4q-38 0 -65.5 2.5t-55 10.5t-46.5 21t-36 34.5t-27 51.5t-16 71t-6 94zM129 285q0 -54 6.5 -90.5t17.5 -58.5t32 -33.5t44 -15t60 -3.5q20 0 32.5 0.5t29.5 3t27.5 8.5t23.5 15t20 24.5t14 36t10 49.5t3 66q0 29 -1.5 53.5t-5.5 43.5 t-7.5 33.5t-12 25t-14.5 18t-18 12.5t-20 7.5t-24.5 4t-27 1.5h-29.5h-3q-43 0 -63.5 -3.5t-46.5 -21t-36.5 -61t-10.5 -115.5z" />
<glyph horiz-adv-x="573" d="M106 683q0 22 16 37.5t38 15.5t37 -15.5t15 -37.5t-15 -37.5t-37 -15.5t-38 15.5t-16 37.5zM362 683q0 22 15.5 37.5t37.5 15.5t37 -15.5t15 -37.5t-15 -37.5t-37 -15.5t-37.5 15.5t-15.5 37.5zM33 570h100l156 -281l151 281h101l-207 -378v-193h-92v193z" />
<glyph horiz-adv-x="515" d="M47 0v62l56 20v164h-56v50l57 16v74q0 185 197 185l169 -13v-74h-163q-66 0 -89 -23t-23 -77v-68l213 -15v-57h-213v-158h274v-86h-422z" />
<glyph horiz-adv-x="524" d="M19 571h103l140 -244l140 244h104l-184 -313h133v-60h-147v-29h147v-59h-147v-110h-92v110h-139v59h139v29h-139v60h123z" />
<glyph horiz-adv-x="1225" d="M27 374v70q0 66 28.5 96t102.5 30h53q71 0 99.5 -30t28.5 -96v-70q0 -67 -28.5 -97t-101.5 -30h-53q-72 0 -100.5 30.5t-28.5 96.5zM101 378q0 -33 12 -45t46 -12h46q39 0 49.5 12t10.5 45v61q0 23 -5.5 35.5t-17.5 17t-35 4.5h-46q-38 0 -49 -11.5t-11 -45.5v-61zM215 0 l333 570h79l-332 -570h-80zM505 126v70q0 66 29 96t102 30h53q71 0 100 -30t29 -96v-70q0 -66 -29 -96t-102 -30h-53q-71 0 -100 30t-29 96zM579 131q0 -34 12.5 -45.5t46.5 -11.5h46q38 0 49 11.5t11 45.5v60q0 34 -12.5 45.5t-45.5 11.5h-46q-39 0 -50 -11.5t-11 -45.5 v-60zM876 126v70q0 33 6.5 55.5t21 39t40 24t63.5 7.5h53q71 0 100 -30t29 -96v-70q0 -66 -29 -96t-102 -30h-53q-72 0 -100.5 30t-28.5 96zM950 131q0 -18 3 -28.5t10 -17t17.5 -9t28.5 -2.5h45q39 0 50 11.5t11 45.5v60q0 34 -12.5 45.5t-46.5 11.5h-45q-27 0 -40 -5.5 t-17 -17t-4 -34.5v-60z" />
<glyph horiz-adv-x="389" d="M47 531l114 131h80l102 -131h-77l-68 68l-73 -68h-78zM241 662z" />
<glyph horiz-adv-x="432" d="M47 576q17 16 28.5 25t27.5 19.5t31.5 15.5t30.5 5q27 -1 61 -17.5t46 -17.5q27 -1 92 37l22 -47q-2 -2 -15.5 -13.5t-19 -15.5t-18 -13t-20.5 -12.5t-19.5 -7t-21.5 -2.5q-29 1 -60.5 17.5t-48.5 16.5q-19 0 -33 -5t-32.5 -15t-28.5 -15z" />
<glyph horiz-adv-x="295" d="M47 632q0 43 29.5 73t71.5 30q27 0 50.5 -14t37 -37.5t13.5 -51.5q0 -43 -29.5 -73t-71.5 -30t-71.5 30t-29.5 73zM97 632q0 -10 4 -19.5t11 -16.5t16 -11t20 -4q21 0 36 15t15 36t-15 36t-36 15t-36 -15t-15 -36z" />
<glyph horiz-adv-x="607" d="M31 400v54h49v116h92v-116h281v116h92v-116h47v-54h-47v-401h-92v232h-281v-232h-92v401h-49zM172 320h281v80h-281v-80z" />
<glyph horiz-adv-x="595" d="M154 630l115 132h80l102 -132h-77l-68 68l-74 -68h-78zM75 -1v571h92v-250h281v250h92v-571h-92v231h-281v-231h-92z" />
<glyph horiz-adv-x="575" d="M202 753h50q0 -18 9 -33t24 -23t31 -8q29 0 47.5 17.5t18.5 46.5h50q0 -53 -34.5 -83.5t-81.5 -30.5q-45 0 -79.5 31.5t-34.5 82.5zM51 286q0 73 9.5 124t32.5 90.5t64.5 59t103.5 19.5q41 1 123.5 -7t125.5 -18v-72q-125 12 -234 12q-51 0 -78 -15.5t-41 -60t-14 -130.5 q0 -26 2.5 -50.5t11 -54t21.5 -51t37 -36.5t55 -15q51 0 98 17t64 34v104h-157v57q85 23 182 23q31 0 67 -3v-313h-70l-19 44q-72 -51 -175 -51q-42 0 -76 14t-55.5 34.5t-37 51t-23 56.5t-11.5 57.5t-5 47t-1 32.5z" />
<glyph horiz-adv-x="333" d="M71 630l114 132h80l102 -132h-77l-67 68l-74 -68h-78zM33 21l3 69q40 -6 64.5 -6t45 8t30 28.5t10.5 56.5v393h92v-405q0 -113 -58 -147q-49 -25 -98.5 -22.5t-88.5 25.5z" />
<glyph horiz-adv-x="518" d="M255 666v60q0 25 24 25h56q10 0 16.5 -7t6.5 -18v-60q0 -23 -23 -23h-56q-11 0 -17.5 6.5t-6.5 16.5zM51 295q0 49 5 88t19 76.5t37 62.5t60.5 40.5t87.5 15.5q43 0 115.5 -8t110.5 -18v-70q-13 3 -92.5 7.5t-124.5 4.5q-72 0 -99 -49t-27 -150q0 -38 2 -64.5t9.5 -56.5 t20.5 -49t37 -31.5t57 -13.5l217 12v-68q-114 -28 -226 -28q-54 0 -93 18t-60.5 45t-34.5 69t-17 80t-4 87z" />
<glyph horiz-adv-x="518" d="M157 643l114 131h80l102 -131h-77l-68 68l-73 -68h-78zM51 295q0 49 5 88t19 76.5t37 62.5t60.5 40.5t87.5 15.5q43 0 115.5 -8t110.5 -18v-70q-13 3 -92.5 7.5t-124.5 4.5q-72 0 -99 -49t-27 -150q0 -38 2 -64.5t9.5 -56.5t20.5 -49t37 -31.5t57 -13.5l217 12v-68 q-114 -28 -226 -28q-54 0 -93 18t-60.5 45t-34.5 69t-17 80t-4 87z" />
<glyph horiz-adv-x="575" d="M263 662v60q0 25 24 25h56q11 0 17 -7t6 -18v-60q0 -23 -23 -23h-56q-11 0 -17.5 6.5t-6.5 16.5zM51 286q0 73 9.5 124t32.5 90.5t64.5 59t103.5 19.5q41 1 123.5 -7t125.5 -18v-72q-125 12 -234 12q-51 0 -78 -15.5t-41 -60t-14 -130.5q0 -26 2.5 -50.5t11 -54t21.5 -51 t37 -36.5t55 -15q51 0 98 17t64 34v104h-157v57q85 23 182 23q31 0 67 -3v-313h-70l-19 44q-72 -51 -175 -51q-42 0 -76 14t-55.5 34.5t-37 51t-23 56.5t-11.5 57.5t-5 47t-1 32.5z" />
<glyph horiz-adv-x="575" d="M167 638l114 132h80l102 -132h-77l-68 68l-73 -68h-78zM51 286q0 73 9.5 124t32.5 90.5t64.5 59t103.5 19.5q41 1 123.5 -7t125.5 -18v-72q-125 12 -234 12q-51 0 -78 -15.5t-41 -60t-14 -130.5q0 -26 2.5 -50.5t11 -54t21.5 -51t37 -36.5t55 -15q51 0 98 17t64 34v104 h-157v57q85 23 182 23q31 0 67 -3v-313h-70l-19 44q-72 -51 -175 -51q-42 0 -76 14t-55.5 34.5t-37 51t-23 56.5t-11.5 57.5t-5 47t-1 32.5z" />
<glyph horiz-adv-x="609" d="M200 744h50q0 -27 19 -45.5t45 -18.5q29 0 47.5 17.5t18.5 46.5h50q0 -36 -17.5 -62.5t-43.5 -39t-55 -12.5q-46 0 -80 31.5t-34 82.5zM75 260v310h93v-310q-1 -32 2 -57t8.5 -43.5t14.5 -31.5t20.5 -21.5t28 -13.5t34 -7t41.5 -2q36 0 60.5 6.5t44.5 25t29.5 54 t9.5 90.5v310h93v-310q0 -68 -13.5 -117t-35 -77t-54 -44.5t-63.5 -21.5t-71 -5q-33 0 -57 2t-50.5 8.5t-45.5 18.5t-37 31.5t-29 47t-17.5 67.5t-5.5 90z" />
<glyph horiz-adv-x="546" d="M110 638l115 132h80l102 -132h-77l-68 68l-74 -68h-78zM51 372v56q0 145 143 145q26 0 77 -3t107.5 -8t89.5 -10v-69q-166 5 -267 5q-58 0 -58 -61v-51q0 -16 3.5 -26t7 -15.5t13 -8t15 -2.5h19.5h161q67 0 100 -37.5t33 -98.5v-64q0 -40 -11.5 -68t-32 -41.5t-42 -19 t-47.5 -5.5q-54 0 -159 6.5t-130 16.5v67q182 -4 279 -4q17 0 30 12t17 25l4 12v61q0 26 -11 38t-40 12h-160q-74 0 -107.5 32.5t-33.5 103.5z" />
<glyph horiz-adv-x="207" d="M55 0v570h92v-570h-92zM52 661v60q0 25 24 25h56q11 0 17 -7t6 -18v-60q0 -23 -23 -23h-56q-10 0 -17 6t-7 17z" />
<glyph horiz-adv-x="269" d="M83 260v66q0 25 24 25h62q25 0 25 -25v-66q0 -23 -25 -23h-62q-10 0 -17 6.5t-7 16.5z" />
<glyph horiz-adv-x="311" d="M79 278v91q0 35 33 35h85q35 0 35 -35v-91q0 -32 -35 -32h-85q-10 0 -17 4t-11.5 11t-4.5 17z" />
<glyph horiz-adv-x="276" d="M74 368v117q0 33 12.5 55t30.5 29.5t36 10t31 0.5l12 -1v-44q-37 1 -37 -37v-28h14q28 0 28 -28v-74q0 -32 -28 -32h-70q-29 0 -29 32z" />
<glyph horiz-adv-x="276" d="M74 476v73q0 32 29 32h70q28 0 28 -32v-117q0 -33 -12.5 -55t-30 -29.5t-35.5 -10.5t-31 -1l-12 2v43q37 -1 37 37v28h-14q-13 0 -21 7.5t-8 22.5z" />
<glyph horiz-adv-x="546" d="M224 654v60q0 25 24 25h56q11 0 17.5 -7t6.5 -18v-60q0 -23 -24 -23h-56q-10 0 -17 6.5t-7 16.5zM75 0v571h265q45 0 77.5 -13t50.5 -35.5t26 -48.5t8 -56q0 -36 -8.5 -61.5t-22.5 -40.5t-36 -25q29 -11 49.5 -43.5t20.5 -85.5q0 -162 -165 -162h-265zM167 87h170 q15 0 26 2.5t23.5 10t19 24.5t6.5 43q0 42 -17 64.5t-58 22.5q-140 -1 -170 0v-167zM167 336h170q29 0 45 8t22 24t6 46q0 71 -73 71h-170v-149z" />
<glyph horiz-adv-x="598" d="M223 655v60q0 25 24 25h56q11 0 17 -7t6 -18v-60q0 -23 -23 -23h-56q-11 0 -17.5 6.5t-6.5 16.5zM75 0v572h253q51 -1 90.5 -19t63 -46.5t39 -67.5t21 -76.5t5.5 -79.5q0 -46 -6 -84.5t-14.5 -66t-22.5 -49t-27 -35t-31.5 -23.5t-31.5 -14.5t-32.5 -7t-28.5 -3t-25 -0.5 h-253zM167 88h157q38 0 65 15.5t40.5 44t19.5 61t6 74.5q0 103 -35.5 152t-95.5 49h-157v-396z" />
<glyph horiz-adv-x="515" d="M228 655v60q0 25 24 25h56q11 0 17 -7t6 -18v-60q0 -23 -23 -23h-56q-11 0 -17.5 6t-6.5 17zM75 0v475q0 47 29 71.5t81 24.5q274 -10 288 -13v-74h-274q-11 0 -17.5 -1.5t-9.5 -7t-3.5 -9.5t-1.5 -14v-129l274 -8v-73l-274 -7v-235h-92z" />
<glyph horiz-adv-x="742" d="M331 654v60q0 25 24 25h56q11 0 17 -7t6 -18v-60q0 -23 -23 -23h-56q-10 0 -17 6.5t-7 16.5zM51 0l55 571h116l151 -427l151 427h114l53 -571h-90l-39 419l-145 -419h-85l-148 419l-44 -419h-89z" />
<glyph horiz-adv-x="850" d="M262 765h103l102 -134h-75zM33 570h99l155 -443l147 443h98l-61 -185l103 -258l150 443h94l-195 -570h-99l-97 249l-86 -249h-103z" />
<glyph horiz-adv-x="528" d="M219 652v60q0 25 24 25h56q11 0 17 -7t6 -18v-60q0 -23 -23 -23h-56q-11 0 -17.5 6.5t-6.5 16.5zM56 0v569h273q29 0 56 -9t50.5 -28t37.5 -52.5t14 -77.5q0 -50 -11 -86.5t-25.5 -55.5t-38 -29.5t-40.5 -12.5t-40 -2q-5 -1 -94 5.5l-89 6.5v-228h-93zM149 298h175 q15 0 25 3t22 11.5t18 28.5t6 52q1 44 -20.5 67t-50.5 23h-175v-185z" />
<glyph horiz-adv-x="850" d="M392 631l103 134h102l-130 -134h-75zM33 570h99l155 -443l147 443h98l-61 -185l103 -258l150 443h94l-195 -570h-99l-97 249l-86 -249h-103z" />
<glyph horiz-adv-x="573" d="M122 764h103l103 -134h-76zM33 570h100l156 -281l151 281h101l-207 -378v-193h-92v193z" />
<glyph horiz-adv-x="850" d="M249 684q0 22 15.5 37t37.5 15t37.5 -15t15.5 -37t-15.5 -37.5t-37.5 -15.5t-37.5 15.5t-15.5 37.5zM504 684q0 22 15.5 37t37.5 15t37.5 -15t15.5 -37q0 -11 -4.5 -20.5t-11 -17t-16.5 -11.5t-21 -4q-22 0 -37.5 15.5t-15.5 37.5zM33 570h99l155 -443l147 443h98 l-61 -185l103 -258l150 443h94l-195 -570h-99l-97 249l-86 -249h-103z" />
<glyph horiz-adv-x="546" d="M216 656v60q0 25 24 25h56q11 0 17 -7t6 -18v-60q0 -23 -23 -23h-56q-11 0 -17.5 6.5t-6.5 16.5zM51 372v56q0 145 143 145q26 0 77 -3t107.5 -8t89.5 -10v-69q-166 5 -267 5q-58 0 -58 -61v-51q0 -16 3.5 -26t7 -15.5t13 -8t15 -2.5h19.5h161q67 0 100 -37.5t33 -98.5 v-64q0 -40 -11.5 -68t-32 -41.5t-42 -19t-47.5 -5.5q-54 0 -159 6.5t-130 16.5v67q182 -4 279 -4q17 0 30 12t17 25l4 12v61q0 26 -11 38t-40 12h-160q-74 0 -107.5 32.5t-33.5 103.5z" />
<glyph horiz-adv-x="850" d="M284 631l115 131h80l102 -131h-77l-68 68l-74 -68h-78zM33 570h99l155 -443l147 443h98l-61 -185l103 -258l150 443h94l-195 -570h-99l-97 249l-86 -249h-103z" />
<glyph horiz-adv-x="517" d="M207 653v60q0 25 24 25h56q11 0 17 -7t6 -18v-60q0 -23 -23 -23h-56q-11 0 -17.5 6.5t-6.5 16.5zM33 481v89h452v-89h-180v-481h-92v481h-180z" />
<glyph horiz-adv-x="573" d="M140 630l114 132h80l102 -132h-77l-67 68l-74 -68h-78zM33 570h100l156 -281l151 281h101l-207 -378v-193h-92v193z" />
<glyph horiz-adv-x="1041" d="M37 266q0 67 9 116t23.5 79t37.5 47.5t47.5 23.5t57.5 6q41 0 110 -8.5t123 -20.5v-63q-128 8 -216 8q-22 0 -34.5 -2.5t-26.5 -13t-21.5 -30.5t-12.5 -56t-5 -89q0 -103 37.5 -144.5t111.5 -41.5q106 0 303 176v529h92v-449l222 199l128 -1q-5 -5 -127 -116t-126 -115 l252 -300h-111l-207 241q-1 0 -15.5 -13t-15.5 -14v-214h-92v139q-176 -146 -303 -146q-37 0 -68 6t-64.5 23.5t-56 46.5t-37.5 79.5t-15 117.5z" />
<glyph horiz-adv-x="689" d="M75 0v640q0 34 17.5 58.5t44 32.5t54.5 5.5t53 -21t35 -48.5l239 -569q5 -13 14.5 -11t9.5 14v631h92v-640q0 -26 -12.5 -47t-31.5 -33t-42.5 -16t-45.5 1.5t-40.5 22.5t-27.5 45l-241 575q-5 11 -15 8t-10 -15v-633h-93z" />
<glyph horiz-adv-x="816" d="M51 0l39 644q0 33 18.5 56.5t46 31t55.5 5t50.5 -22t29.5 -49.5l105 -385q4 -13 13.5 -12t11.5 12l96 386q6 31 29 50t51.5 21.5t56 -5t46.5 -31t20 -55.5l47 -646h-93l-46 624q0 13 -12 15t-15 -10l-95 -382q-7 -32 -35 -49.5t-60 -18t-60.5 17.5t-36.5 51l-107 382 q-2 7 -8 8.5t-11.5 -3t-6.5 -12.5l-38 -623h-91z" />
<glyph horiz-adv-x="816" d="M362 823v60q0 25 24 25h56q10 0 16 -7.5t6 -17.5v-60q0 -23 -22 -23h-56q-11 0 -17.5 6t-6.5 17zM51 0l39 644q0 33 18.5 56.5t46 31t55.5 5t50.5 -22t29.5 -49.5l105 -385q4 -13 13.5 -12t11.5 12l96 386q5 26 22.5 43.5t39.5 24t47 4.5t45.5 -13t34 -31.5t14.5 -47.5 l47 -646h-93l-46 624q0 13 -12 15t-15 -10l-95 -382q-7 -32 -35 -49.5t-60 -18t-60.5 17.5t-36.5 51l-107 382q-2 7 -8 8.5t-11.5 -3t-6.5 -12.5l-38 -623h-91z" />
<glyph horiz-adv-x="689" d="M195 842q18 16 29.5 25.5t27.5 20t31 15.5t31 5q27 -1 60.5 -18t46.5 -17q27 -1 91 37l23 -47q-3 -2 -16.5 -13.5t-18.5 -16t-17.5 -13t-21 -12.5t-19.5 -7t-22 -3q-28 2 -59.5 18.5t-48.5 16.5q-15 -1 -28.5 -4.5t-21.5 -8t-21.5 -11.5t-23.5 -11zM75 0v640 q0 34 17.5 58.5t44 32.5t54.5 5.5t53 -21t35 -48.5l239 -569q5 -13 14.5 -11t9.5 14v631h92v-640q0 -31 -17 -55t-43 -33.5t-53.5 -9t-51.5 19t-35 51.5l-241 575q-5 11 -15 8t-10 -15v-633h-93z" />
<glyph horiz-adv-x="689" d="M332 798l103 134h102l-130 -134h-75zM75 0v640q0 34 17.5 58.5t44 32.5t54.5 5.5t53 -21t35 -48.5l239 -569q5 -13 14.5 -11t9.5 14v631h92v-640q0 -31 -17 -55t-43 -33.5t-53.5 -9t-51.5 19t-35 51.5l-241 575q-5 11 -15 8t-10 -15v-633h-93z" />
<glyph horiz-adv-x="689" d="M217 929h78l76 -68l66 68h77l-104 -131h-80zM75 0v640q0 34 17.5 58.5t44 32.5t54.5 5.5t53 -21t35 -48.5l239 -569q5 -13 14.5 -11t9.5 14v631h92v-640q0 -31 -17 -55t-43 -33.5t-53.5 -9t-51.5 19t-35 51.5l-241 575q-5 11 -15 8t-10 -15v-633h-93z" />
<glyph horiz-adv-x="689" d="M292 -158v57q0 24 22 24h54q22 0 22 -24v-89q0 -25 -9.5 -41.5t-23.5 -22t-27.5 -7.5t-23.5 0l-10 1v33q10 0 16 2.5t8.5 7.5t3 8.5t0.5 8.5v20h-10q-22 0 -22 22zM75 0v640q0 34 17.5 58.5t44 32.5t54.5 5.5t53 -21t35 -48.5l239 -569q5 -13 14.5 -11t9.5 14v631h92 v-640q0 -31 -17 -55t-43 -33.5t-53.5 -9t-51.5 19t-35 51.5l-241 575q-5 11 -15 8t-10 -15v-633h-93z" />
<glyph horiz-adv-x="467" d="M56 368v250q0 61 31 87.5t90 26.5h117q116 0 116 -113v-251q0 -65 -29.5 -89t-86.5 -24h-117q-27 0 -46.5 4t-37.5 15.5t-27.5 35t-9.5 58.5zM132 377q0 -29 11 -39.5t44 -10.5h96q34 0 44 11t10 39v233q0 27 -11 38t-42 11h-98q-34 0 -44 -12t-10 -37v-233z" />
<glyph horiz-adv-x="270" d="M15 625v53l121 56h74v-478h-74v401z" />
<glyph horiz-adv-x="391" d="M30 667q-1 0 -1 14.5v28.5t1 14q119 16 188 16q134 0 134 -139q0 -24 -9 -51t-20.5 -48.5t-32.5 -47.5t-35 -41t-38 -36.5t-31 -27.5t-25 -21h191v-72h-319v68q8 6 29 22t36.5 28t39 31.5t41 35.5t37 37t31.5 39.5t20 39.5t8 39q0 38 -17 54.5t-59 16.5h-169z" />
<glyph horiz-adv-x="407" d="M28 663v53q27 10 65 14t58.5 4.5t77.5 0.5q61 0 92 -34t31 -84v-34q0 -34 -14.5 -57.5t-36.5 -31.5q51 -28 51 -96v-26q0 -58 -29.5 -89t-98.5 -31h-24h-24.5h-21.5t-22.5 0.5t-19.5 1.5t-21.5 2.5t-19 3t-20.5 4.5t-19 6l1 53l173 1q40 0 55.5 12t15.5 43v20 q0 61 -67 63l-138 5v57l138 7q68 3 68 58v20q0 54 -68 54h-182z" />
<glyph horiz-adv-x="421" d="M15 400l198 332h83l-170 -287h151v116l27 49h48v-165h56v-61l-56 -11v-117h-75v114h-240z" />
<glyph horiz-adv-x="418" d="M51 266v59h207q49 0 49 51v49q0 10 -0.5 15t-2.5 14.5t-7 14.5t-14.5 9t-23.5 4h-102q-42 0 -42 -46h-63l15 296h299v-73h-231l-7 -124q8 8 22 12.5t32.5 6t31 1.5t33.5 -1t24 -1q38 0 63 -16t36.5 -42.5t11.5 -63.5v-64q0 -59 -31.5 -87.5t-83.5 -28.5q-54 0 -75.5 0.5 t-60 3.5t-80.5 11z" />
<glyph horiz-adv-x="439" d="M51 507q1 47 5.5 84t13.5 61t19.5 41t25.5 26t28.5 13t31.5 6q88 6 210 -13v-59h-195q-21 0 -35 -13.5t-19.5 -38.5t-7.5 -43.5t-2 -44.5q100 14 166 14q33 0 55.5 -8.5t33.5 -24t15.5 -33t4.5 -39.5v-72q0 -53 -29.5 -80t-80.5 -27h-106q-24 0 -42.5 5.5t-36.5 21.5 t-30 43.5t-18.5 73t-6.5 107.5zM126 469q0 -12 0.5 -23.5t2.5 -29t6.5 -31.5t11 -28t18 -21.5t26.5 -7.5h91q24 0 34.5 11t10.5 36v53q0 24 -10 32.5t-34 8.5h-157z" />
<glyph horiz-adv-x="375" d="M14 661v73h327l20 -36l-183 -442h-83l168 405h-249z" />
<glyph horiz-adv-x="465" d="M62 360v55q0 58 55 73q-55 19 -55 91v41q0 65 31.5 91t88.5 26h110q37 0 61.5 -11.5t37.5 -37.5t13 -68v-38q0 -8 -1 -17.5t-5.5 -22t-15.5 -22.5t-27 -13q25 -5 37 -33t12 -56v-57q0 -60 -30 -83.5t-79 -23.5h-119q-29 0 -50 6.5t-33 16t-19.5 24t-9.5 28.5t-2 31z M136 368q0 -23 10 -32.5t38 -9.5h101q44 0 44 42v46q0 47 -43 47h-103q-24 0 -35.5 -10.5t-11.5 -36.5v-46zM136 582q0 -50 47 -50h99q16 0 26 4.5t14.5 13t5.5 15.5t1 17v30q0 32 -11.5 43t-39.5 11h-88q-31 0 -42.5 -11.5t-11.5 -42.5v-30z" />
<glyph horiz-adv-x="439" d="M42 559v71q0 54 30 81t80 27h106q25 0 43.5 -5.5t36.5 -22t29.5 -43.5t18.5 -73t6 -108q0 -57 -7 -98.5t-17.5 -65.5t-27 -39t-32.5 -20.5t-38 -7.5q-112 -10 -212 12v59h195q17 0 29.5 10t19 24t10 35.5t4.5 36.5t2 35q-101 -14 -166 -14q-63 0 -86.5 28.5t-23.5 77.5z M117 565q0 -24 10 -32.5t33 -8.5h158q0 142 -63 142h-94q-24 0 -34 -11t-10 -36v-54z" />
<glyph horiz-adv-x="467" d="M56 113v250q0 61 31 87.5t90 26.5h117q116 0 116 -113v-251q0 -65 -29.5 -89t-86.5 -24h-117q-27 0 -46.5 4t-37.5 15.5t-27.5 35t-9.5 58.5zM132 122q0 -29 11 -39.5t44 -10.5h96q34 0 44 11t10 39v233q0 18 -4 28t-15.5 15.5t-33.5 5.5h-98q-34 0 -44 -12t-10 -37v-233 z" />
<glyph horiz-adv-x="270" d="M15 370v54l121 55h74v-478h-74v401z" />
<glyph horiz-adv-x="391" d="M30 412q-1 0 -1 14.5v28.5t1 14q119 16 188 16q134 0 134 -139q0 -28 -10 -58t-30.5 -59t-37.5 -50t-45 -46.5t-37.5 -34t-30.5 -25.5h191v-72h-319v68q7 6 33 25.5t44 33.5t45 37t46 43t37 43.5t27.5 46.5t9.5 45q0 37 -17 53t-59 16h-169z" />
<glyph horiz-adv-x="407" d="M28 408v53q27 10 64.5 14t59 4.5t77.5 0.5q61 0 92 -33.5t31 -84.5v-34q0 -34 -14.5 -57.5t-36.5 -31.5q51 -28 51 -96v-26q0 -58 -29.5 -89t-98.5 -31h-24h-24.5h-21.5t-22.5 0.5t-19.5 1.5t-21.5 2.5t-19 3t-20.5 4.5t-19 6l1 53l173 1q40 0 55.5 12t15.5 43v20 q0 61 -67 63l-138 5v57l138 7q68 3 68 58v20q0 54 -68 54h-182z" />
<glyph horiz-adv-x="421" d="M15 145l198 332h83l-170 -287h151v116l27 49h48v-165h56v-61l-56 -14v-114h-75v114h-240z" />
<glyph horiz-adv-x="418" d="M51 11v59h207q49 0 49 50v50q0 9 -0.5 14t-2.5 14.5t-7 14.5t-14.5 9t-23.5 4h-102q-42 0 -42 -44h-63l15 295h299v-73h-231l-7 -125q8 8 22 13t32.5 6t31.5 1.5t33 -0.5t24 -1q56 -1 83.5 -33.5t27.5 -88.5v-64q0 -59 -31.5 -87.5t-83.5 -28.5q-54 0 -75.5 0.5t-60 3.5 t-80.5 11z" />
<glyph horiz-adv-x="439" d="M51 252q1 56 8 97.5t18 66t27.5 39.5t32.5 20.5t38 6.5q102 8 210 -12v-59h-195q-21 0 -35 -13.5t-19.5 -38.5t-7.5 -43.5t-2 -44.5q100 14 166 14q33 0 55.5 -8.5t33.5 -24t15.5 -33t4.5 -39.5v-72q0 -53 -29.5 -80t-80.5 -27h-106q-24 0 -42.5 5.5t-36.5 21.5t-30 43.5 t-18.5 73t-6.5 107.5zM126 214q0 -15 0.5 -29t4.5 -36t10.5 -37.5t19 -27t30.5 -11.5h91q24 0 34.5 11t10.5 36v53q0 24 -10 32.5t-34 8.5h-157z" />
<glyph horiz-adv-x="375" d="M14 406v73h327l20 -36l-183 -442h-83l168 405h-249z" />
<glyph horiz-adv-x="465" d="M62 105v55q0 58 55 73q-55 19 -55 91v41q0 65 31.5 91t88.5 26h110q37 0 61.5 -11.5t37.5 -37.5t13 -68v-38q0 -8 -1 -17.5t-5.5 -22t-15.5 -22.5t-27 -13q25 -5 37 -33t12 -56v-57q0 -60 -30 -83.5t-79 -23.5h-119q-36 0 -59.5 9t-35 25.5t-15.5 33t-4 38.5zM136 113 q0 -23 10 -32.5t38 -9.5h101q44 0 44 42v46q0 47 -43 47h-103q-24 0 -35.5 -10.5t-11.5 -36.5v-46zM136 327q0 -50 47 -50h99q16 0 26 4.5t14.5 13t5.5 15.5t1 17v30q0 32 -11.5 43t-39.5 11h-88q-31 0 -42.5 -11.5t-11.5 -42.5v-30z" />
<glyph horiz-adv-x="439" d="M42 303v71q0 37 14.5 61.5t38.5 35.5t57 11h106q25 0 43.5 -5.5t36.5 -21.5t29.5 -43.5t18.5 -73t6 -107.5q0 -47 -4.5 -83.5t-13.5 -61t-19 -41t-24.5 -25.5t-28.5 -13.5t-32 -5.5q-107 -10 -212 11v59h195q21 0 35 13.5t19.5 38t7.5 43.5t3 46q-99 -15 -166 -15 q-63 0 -86.5 29t-23.5 77zM117 309q0 -24 10 -32.5t33 -8.5h158q0 142 -63 142h-94q-24 0 -34 -11t-10 -36v-54z" />
<glyph horiz-adv-x="1050" d="M37 266q0 67 9 116t23.5 78.5t37.5 47t47.5 24t57.5 6.5q41 0 110 -8.5t123 -21.5v-62q-128 7 -216 7q-22 0 -34.5 -2.5t-26.5 -13t-21.5 -30.5t-12.5 -56t-5 -89q0 -107 23 -145.5t78 -38.5q19 0 54 -1q41 -1 77 0t67 4t55.5 12t42 23.5t26.5 39t9 58.5v570h92v-314 q2 2 17 11t18.5 11l17.5 10t20 10.5t19.5 8.5t22.5 8t22 5.5t25.5 4.5t26.5 1q78 0 120 -50.5t42 -123.5v-366h-92v366q0 45 -22 67.5t-59 22.5q-38 0 -72 -9t-50.5 -17t-55.5 -28v-191q0 -55 -15.5 -95t-42 -62.5t-62 -37t-75.5 -18t-82 -6t-81.5 0.5t-74.5 0 q-33 0 -57.5 6t-49 23.5t-40.5 46.5t-26 79t-10 118z" />
<glyph horiz-adv-x="889" d="M56 0v480q56 25 95 37t80.5 17.5t100.5 5.5q75 0 119 -43q63 25 112 34t118 9q76 0 119 -49.5t43 -120.5v-370h-92v364q0 45 -22 67.5t-59 22.5q-52 0 -87 -6.5t-91 -28.5q7 -22 7 -54v-365h-92v364q0 45 -22 67.5t-60 22.5q-51 0 -86.5 -6.5t-90.5 -29.5v-418h-92z" />
<glyph d="M56 0v480q82 36 136.5 48t141.5 12q76 0 120.5 -49.5t44.5 -120.5v-370h-92v364q0 45 -22 67.5t-60 22.5q-51 0 -86.5 -6.5t-90.5 -29.5v-418h-92z" />
<glyph d="M108 645q18 16 29 25t27.5 19.5t31.5 15.5t31 5q26 -1 60 -17.5t46 -17.5q27 -1 92 37l22 -47q-2 -2 -15.5 -13.5t-18.5 -15.5t-17.5 -13t-21 -12.5t-20 -7t-21.5 -2.5q-29 1 -60.5 17.5t-48.5 16.5q-19 0 -33 -5t-32 -15t-29 -15zM56 0v480q82 36 136.5 48t141.5 12 q76 0 120.5 -49.5t44.5 -120.5v-370h-92v364q0 30 -10.5 50.5t-28.5 30t-43 9.5q-51 0 -86.5 -6.5t-90.5 -29.5v-418h-92z" />
</font>
</defs>
</svg>
