<?xml version="1.0" standalone="no"?>
<!DOCTYPE svg PUBLIC "-//W3C//DTD SVG 1.1//EN" "http://www.w3.org/Graphics/SVG/1.1/DTD/svg11.dtd" >
<svg xmlns="http://www.w3.org/2000/svg">
<metadata></metadata>
<defs>
<font id="exoextrabold" horiz-adv-x="552" >
<font-face units-per-em="1000" ascent="800" descent="-200" />
<missing-glyph horiz-adv-x="250" />
<glyph unicode="fi" horiz-adv-x="635" d="M13 412v102l79 17v35q0 93 61 155.5t163 64.5q50 1 136 -6.5t114 -19.5v-96l-188 4q-122 2 -122 -110v-27l342 -10v-521h-164v412h-178v-412h-164v412h-79z" />
<glyph unicode="fl" horiz-adv-x="723" d="M13 412v102l79 17v43q0 60 15.5 102.5t44.5 66t65 33.5t84 10l309 -2v-565q0 -36 5 -56.5t13 -28.5t24 -15q52 -21 58 -21v-98h-125q-49 0 -79 17.5t-45 59.5t-15 112v478l-114 1q-41 0 -58.5 -20.5t-17.5 -73.5v-43h110v-119h-110v-412h-164v412h-79z" />
<glyph unicode="&#xd;" horiz-adv-x="671" />
<glyph unicode=" "  horiz-adv-x="250" />
<glyph unicode="&#x09;" horiz-adv-x="250" />
<glyph unicode="&#xa0;" horiz-adv-x="250" />
<glyph unicode="!" horiz-adv-x="275" d="M61 23v102q0 25 24 25h100q23 0 23 -25v-102q0 -23 -23 -23h-100q-24 0 -24 23zM56 731h161l-18 -535h-128z" />
<glyph unicode="&#x22;" horiz-adv-x="467" d="M57 665v67h157v-67l-10 -134h-135zM254 665v67h157v-67l-10 -134h-136z" />
<glyph unicode="#" horiz-adv-x="733" d="M13 202l17 112h150l19 105h-152l18 112h155l37 201h112l-37 -201h108l36 201h112l-36 -201h169l-16 -112h-171l-18 -106h170l-15 -112h-179l-38 -201h-112l38 201l-109 1l-37 -202h-112l37 202h-146zM292 314l112 -1l18 106h-111z" />
<glyph unicode="$" horiz-adv-x="568" d="M37 483v62q1 187 199 193v86h95v-87q91 -4 174 -30v-127q-112 9 -217 9q-25 1 -39 -1t-26 -7.5t-17 -18t-5 -32.5v-25q0 -33 16 -46.5t55 -13.5h80q43 0 76 -13.5t52 -34.5t31.5 -49t16.5 -53t4 -52v-42q0 -209 -201 -209v-82h-95v83q-58 2 -90.5 8t-85.5 23v127 q130 -10 232 -10q36 0 56 11.5t20 41.5v29q0 20 -4.5 31.5t-18.5 19t-37 7.5h-78q-51 0 -88.5 16t-57 38.5t-31 53t-14 51.5t-2.5 43z" />
<glyph unicode="%" horiz-adv-x="964" d="M28 482v118q0 66 32 99t105 33h101q71 0 102.5 -33t31.5 -99v-118q0 -67 -31.5 -100t-104.5 -33h-101q-48 0 -78 15.5t-43.5 44.5t-13.5 73zM138 504q0 -16 3.5 -25t13 -14.5t27.5 -5.5h63q28 0 36.5 10.5t8.5 34.5v73q0 27 -9.5 36t-33.5 9h-63q-25 0 -35.5 -9.5 t-10.5 -35.5v-73zM201 0l450 732h111l-445 -732h-116zM565 135v118q0 67 31.5 100t104.5 33h101q72 0 103.5 -33.5t31.5 -99.5v-118q0 -66 -31.5 -99t-105.5 -33h-101q-72 0 -103 33t-31 99zM675 158q0 -24 9 -34.5t34 -10.5h63q28 0 37 10.5t9 34.5v73q0 26 -10 35.5 t-34 9.5h-63q-24 0 -34.5 -9.5t-10.5 -35.5v-73z" />
<glyph unicode="&#x26;" horiz-adv-x="695" d="M61 82q-34 49 -37.5 102.5t18.5 100.5t66 85l64 56l-48 70q-28 38 -31.5 79.5t12.5 73t43.5 54t58.5 27.5q43 7 82 8t79 -5t60 -10t60 -13v-120h-150q-53 0 -58 -22.5t29 -67.5l144 -199l125 112l58 -72l-63 -107l-37 -44l144 -190h-192l-67 91l-63 -55q-24 -21 -63 -32 t-81 -9t-84 24.5t-69 62.5zM194 176q12 -15 26.5 -23.5t34.5 -6.5t37 20l40 39l-81 107l-42 -38q-54 -48 -15 -98z" />
<glyph unicode="'" horiz-adv-x="238" d="M37 665v67h165v-67l-10 -134h-144z" />
<glyph unicode="(" horiz-adv-x="393" d="M50 326q0 96 19 186.5t45.5 150.5t53 107t45.5 68l19 22h148q-3 -5 -9 -14.5t-23.5 -41t-33 -65t-34.5 -83.5t-33 -99.5t-23.5 -111t-9.5 -119.5q0 -64 9.5 -128t24 -115t32 -98.5t35.5 -82t32.5 -60.5t23.5 -39l9 -13h-148q-8 7 -20 19.5t-43.5 60.5t-55.5 104.5 t-43.5 151.5t-19.5 200z" />
<glyph unicode=")" horiz-adv-x="393" d="M13 -210q7 9 18 26t40 72.5t50.5 114.5t39.5 147.5t18 175.5q0 80 -17 164.5t-41.5 147.5t-49 115t-41.5 80l-17 27h149q7 -8 19.5 -23t43.5 -66.5t55 -108.5t43.5 -148.5t19.5 -187.5q0 -77 -10 -148t-26 -123.5t-35 -97.5t-38.5 -75t-35.5 -51.5t-26 -30.5l-10 -10 h-149z" />
<glyph unicode="*" horiz-adv-x="423" d="M34 566v62l138 22l6 -89zM86 417l25 137l87 -22l-52 -134zM162 721l60 20l64 -124l-83 -33zM184 463l48 75l114 -90l-37 -50zM235 571l119 80l36 -52l-98 -97z" />
<glyph unicode="+" horiz-adv-x="471" d="M28 289v134h140v141h134v-141h142v-134h-142v-141h-134v141h-140z" />
<glyph unicode="," horiz-adv-x="258" d="M57 25v99q0 27 25 27h96q24 0 24 -27v-135q0 -33 -14.5 -53t-35 -25t-41 -5.5t-34.5 3.5l-15 3v54q14 0 21.5 4t8.5 8.5t1 11.5v10h-11q-11 0 -18 6.5t-7 18.5z" />
<glyph unicode="-" horiz-adv-x="354" d="M20 223v134h314v-134h-314z" />
<glyph unicode="." horiz-adv-x="260" d="M57 23v102q0 25 24 25h98q25 0 25 -25v-102q0 -23 -25 -23h-98q-10 0 -17 6.5t-7 16.5z" />
<glyph unicode="/" horiz-adv-x="476" d="M13 -72l281 842h169l-281 -842h-169z" />
<glyph unicode="0" horiz-adv-x="626" d="M47 184v356q0 92 49.5 142t138.5 50h164q181 0 181 -184v-364q0 -88 -47.5 -136t-134.5 -48h-164q-90 0 -138.5 47.5t-48.5 136.5zM211 215q0 -66 67 -66h72q34 0 50 13.5t16 51.5v304q0 65 -60 65h-83q-62 0 -62 -65v-303z" />
<glyph unicode="1" horiz-adv-x="374" d="M26 544v106l132 82h163v-732h-164v573z" />
<glyph unicode="2" horiz-adv-x="585" d="M26 592v122q143 28 304 28q110 0 166 -64.5t56 -167.5q0 -44 -20.5 -92.5t-46.5 -84.5t-66 -78t-61.5 -61.5t-51.5 -44.5h246v-149h-518v143q39 26 93.5 69t115.5 97.5t103 109.5t42 89q0 47 -27 65.5t-91 18.5h-244z" />
<glyph unicode="3" horiz-adv-x="579" d="M20 585v121q41 14 97.5 21t111.5 7.5t117 -0.5q84 -2 134 -49.5t50 -130.5v-46q0 -115 -79 -144q79 -30 79 -152v-36q0 -88 -49.5 -135.5t-141.5 -47.5h-37.5h-39t-35 0.5t-38 1t-33.5 2t-36 3.5t-31.5 5t-33 7t-29.5 9l1 122h238q31 0 46.5 1.5t30 7t19.5 17.5t5 33v22 q0 16 -4.5 27t-11.5 18t-19.5 11t-25.5 6t-34 2l-183 8v132l183 10q55 3 76 14.5t21 47.5v24q0 37 -25 49t-72 12h-251z" />
<glyph unicode="4" horiz-adv-x="627" d="M13 224l239 508h178l-192 -430h144v153l30 77h134v-230h68v-126l-68 -26v-148h-164v148h-335z" />
<glyph unicode="5" horiz-adv-x="594" d="M51 20v130h274q23 0 37.5 5.5t20.5 16.5t7.5 19.5t1.5 21.5v51q0 29 -12 46t-46 17h-72q-54 0 -54 -53h-156l22 458h453v-149h-294l-6 -137q26 18 67 22q29 3 95 0q84 -5 125.5 -55.5t41.5 -132.5v-99q0 -49 -17.5 -86.5t-46 -58t-61.5 -30.5t-68 -10q-103 0 -160.5 4 t-151.5 20z" />
<glyph unicode="6" horiz-adv-x="603" d="M44 384q0 330 172 350q136 17 324 -20v-125h-236q-26 0 -44.5 -10t-28.5 -23.5t-15 -37.5t-6.5 -42t-1.5 -46q61 20 180 20q36 0 63.5 -6t46.5 -17.5t32 -27t20.5 -36.5t10.5 -43t3 -48v-102q0 -171 -183 -171h-141q-38 0 -66 9.5t-53.5 35.5t-41.5 68.5t-25.5 110.5 t-9.5 161zM208 309q0 -85 17.5 -123t70.5 -38h50q30 0 42.5 11t12.5 44v46q0 35 -10.5 47.5t-40.5 12.5h-142z" />
<glyph unicode="7" horiz-adv-x="557" d="M20 583v149h476l42 -70l-238 -662h-177l213 583h-316z" />
<glyph unicode="8" horiz-adv-x="621" d="M50 173v64q0 44 20 75.5t57 39.5q-26 11 -42 27.5t-23 37t-9.5 38.5t-2.5 44v65q0 50 15 85t42.5 53.5t60 26.5t73.5 8h154q89 0 133 -40.5t44 -133.5v-49q0 -13 -2.5 -28t-9.5 -35t-23.5 -34.5t-39.5 -18.5q23 -4 39 -20t23 -38.5t10 -42t3 -38.5v-82q0 -45 -10.5 -77.5 t-26.5 -51.5t-40.5 -30t-47.5 -14.5t-53 -3.5h-153q-38 0 -68.5 7t-50 17t-34 26t-21.5 30t-11 33.5t-5 31.5t-1 28zM214 195q0 -29 14 -41t47 -12h75q32 0 45 13t13 40v57q0 55 -56 55h-80q-21 0 -34 -6.5t-18.5 -18.5t-5.5 -30v-57zM214 494q0 -32 14.5 -43t43.5 -11h79 q35 0 46 13t11 41v40q0 37 -14.5 49.5t-43.5 12.5h-75q-33 0 -47 -11.5t-14 -50.5v-40z" />
<glyph unicode="9" horiz-adv-x="603" d="M40 462v101q0 171 184 171h141q38 0 66 -9.5t53.5 -35t41.5 -68.5t25.5 -111t9.5 -161q0 -329 -172 -350q-81 -8 -165.5 -1.5t-159.5 22.5v124h237q22 0 38.5 6.5t26.5 19t16.5 25.5t9.5 34t4 36.5t1 38.5q-61 -21 -181 -21q-35 0 -62.5 6t-46.5 18t-32 27.5t-20.5 36 t-11 42.5t-3.5 49zM204 484q0 -35 10.5 -47.5t40.5 -12.5h142q0 42 -3 69t-12.5 49.5t-27 32.5t-46.5 10h-50q-14 0 -23.5 -2t-17 -8t-10.5 -17t-3 -28v-46z" />
<glyph unicode=":" horiz-adv-x="260" d="M57 23v102q0 25 24 25h98q25 0 25 -25v-102q0 -23 -25 -23h-98q-10 0 -17 6.5t-7 16.5zM57 404v102q0 25 24 25h98q25 0 25 -25v-102q0 -23 -25 -23h-98q-5 0 -9.5 2t-7.5 4.5t-5 7t-2 9.5z" />
<glyph unicode=";" horiz-adv-x="261" d="M57 25v99q0 27 25 27h96q24 0 24 -27v-135q0 -33 -14.5 -53t-35 -25t-41 -5.5t-34.5 3.5l-15 3v54q14 0 21.5 4t8.5 8.5t1 11.5v10h-11q-11 0 -18 6.5t-7 18.5zM58 404v102q0 26 24 26h98q25 0 25 -26v-102q0 -22 -25 -22h-98q-5 0 -9.5 1.5t-8 4.5t-5 7t-1.5 9z" />
<glyph unicode="&#x3c;" horiz-adv-x="442" d="M34 278v148l374 138v-148l-207 -63l207 -73v-148z" />
<glyph unicode="=" horiz-adv-x="467" d="M20 174v134h427v-134h-427zM20 391v134h427v-134h-427z" />
<glyph unicode="&#x3e;" horiz-adv-x="442" d="M34 132v148l207 73l-207 63v148l374 -138v-148z" />
<glyph unicode="?" horiz-adv-x="543" d="M13 589v123q75 17 138.5 24t143.5 3q55 0 98.5 -17.5t70 -46t40 -63.5t13.5 -73v-63q0 -105 -52.5 -153.5t-168.5 -41.5v-86h-127v207h104q40 2 60.5 19t20.5 57v37q0 39 -24.5 56.5t-75.5 17.5h-241zM159 23v102q0 25 24 25h98q25 0 25 -25v-102q0 -23 -25 -23h-98 q-11 0 -17.5 6.5t-6.5 16.5z" />
<glyph unicode="@" horiz-adv-x="877" d="M44 15v288q0 42 10.5 77t34 66t68.5 48.5t107 17.5h184q39 0 67 -5.5t57 -21t44 -49.5t15 -86v-350h-103l-21 56l-7 -6.5t-19.5 -16t-29.5 -19.5t-41 -16.5t-50 -6.5q-62 0 -95 41.5t-33 97.5v38q0 35 10.5 61.5t30 44t47.5 26.5t64 9h121q1 30 0 31q0 19 -6 29t-17 13.5 t-31 3.5h-187q-20 0 -35 -3.5t-29.5 -12t-22 -27.5t-7.5 -47v-266q0 -61 28.5 -85.5t65.5 -24.5h327q58 0 80.5 27.5t22.5 82.5v437q0 56 -28 87t-75 31h-404v99q46 10 136 19t175 8h93q45 0 84 -12.5t72.5 -40t53 -76.5t19.5 -115v-437q0 -122 -55.5 -180t-166.5 -58h-334 q-96 0 -158 53.5t-62 169.5zM366 152q0 -35 42 -34q66 -1 97 38v64l-101 -9q-20 -2 -29 -10.5t-9 -28.5v-9.5v-10.5z" />
<glyph unicode="A" horiz-adv-x="700" d="M30 0l239 732h190l231 -732h-171l-48 147h-221l-48 -147h-172zM290 289h145l-69 233z" />
<glyph unicode="B" horiz-adv-x="607" d="M54 0v732h309q109 0 160.5 -53.5t51.5 -144.5q0 -54 -26.5 -100.5t-76.5 -53.5q34 -6 60.5 -27.5t42 -56.5t15.5 -77q0 -112 -54 -165.5t-170 -53.5h-312zM218 142h141q67 0 67 85q0 39 -16 64t-51 25h-141v-174zM218 450h134q30 0 46 18.5t16 50.5q0 39 -18 55t-44 16 h-134v-140z" />
<glyph unicode="C" horiz-adv-x="569" d="M37 368q0 92 11.5 157.5t39 115.5t77.5 74.5t123 24.5q89 0 142.5 -7.5t116.5 -28.5v-128l-7 0.5t-19 2t-27.5 3t-35 3.5t-39.5 3t-43 2t-43 1q-23 0 -37 -1.5t-30 -6t-25 -14t-17.5 -25.5t-13 -40t-7 -58t-2.5 -80q0 -127 26.5 -175t106.5 -48q46 0 99.5 2t83.5 4l30 3 v-128q-92 -33 -259 -30q-69 1 -117.5 25.5t-77.5 73.5t-42.5 116t-13.5 159z" />
<glyph unicode="D" horiz-adv-x="664" d="M54 0v732h325q60 0 105 -20.5t72.5 -53.5t44.5 -82t23.5 -100t6.5 -113q0 -363 -252 -363h-325zM218 142h146q55 0 79 55t24 167q0 92 -13 143t-34 67t-56 16h-146v-448z" />
<glyph unicode="E" horiz-adv-x="567" d="M50 152v420q0 39 11.5 69t28.5 47t41 27.5t45 13.5t45 3q237 -4 324 -16v-137h-279q-19 0 -30 -4t-15.5 -14t-5.5 -17t-1 -21v-83l284 -10v-136l-284 -9v-83q0 -19 5 -30.5t16 -16t18.5 -5t22.5 -0.5h269v-136q-21 -3 -61.5 -6t-82.5 -4.5t-81 -3.5t-64 -2l-25 -1 q-23 -1 -44 1t-47.5 11t-45 25t-31.5 46.5t-13 71.5z" />
<glyph unicode="F" horiz-adv-x="567" d="M50 0v569q0 87 50.5 125.5t120.5 37.5q237 -4 324 -16v-137h-279q-19 0 -30 -4t-15.5 -14t-5.5 -17t-1 -21v-83l284 -10v-136l-284 -9v-285h-164z" />
<glyph unicode="G" horiz-adv-x="614" d="M37 370q0 70 6 122.5t21.5 101t42 79.5t69.5 49t102 18q101 0 152.5 -6t138.5 -28v-127q-1 0 -9 1t-21.5 3t-31 4t-39.5 4t-45 3.5t-49.5 2.5t-50.5 1q-75 0 -98.5 -48t-23.5 -182q0 -48 1.5 -79t6 -57.5t12 -41t20.5 -25.5t30 -14.5t41 -3.5q30 0 55.5 11.5t36.5 22.5 l10 12v106h-78v103q52 24 174 24q32 0 68 -2v-424h-116l-46 49q-16 -18 -31.5 -28t-42.5 -17t-67 -9q-60 -3 -104 16t-69.5 51t-40.5 84t-19.5 103.5t-4.5 120.5z" />
<glyph unicode="H" horiz-adv-x="636" d="M54 0v732h164v-304h215v304h164v-732h-164v280h-215v-280h-164z" />
<glyph unicode="I" horiz-adv-x="257" d="M54 0v732h164v-732h-164z" />
<glyph unicode="J" horiz-adv-x="356" d="M24 24l1 129q36 -1 60.5 0t39.5 11t21 29.5t6 54.5v484h164v-567q0 -113 -53 -147q-41 -25 -120.5 -22.5t-118.5 28.5z" />
<glyph unicode="K" horiz-adv-x="642" d="M54 0v732h156v-298h51l169 298h190l-214 -367l214 -365h-190l-169 292h-50v-292h-157z" />
<glyph unicode="L" horiz-adv-x="533" d="M54 148v584h164v-531q0 -19 4.5 -30.5t16 -15.5t18.5 -5t23 -1h231v-149h-299q-71 0 -114.5 34.5t-43.5 113.5z" />
<glyph unicode="M" horiz-adv-x="864" d="M37 0l71 732h228l95 -460l97 460h227l73 -732h-161l-49 449l-93 -449h-185l-97 449l-44 -449h-162z" />
<glyph unicode="N" horiz-adv-x="677" d="M54 0v732h166l254 -429v429h164v-732h-164l-255 422v-422h-165z" />
<glyph unicode="O" horiz-adv-x="669" d="M44 361q0 72 8 128.5t21.5 96t35.5 67.5t45 44t56 25.5t62.5 12t69.5 2.5q42 0 71.5 -3t63 -12t56 -25t44.5 -44t34.5 -67.5t20.5 -96t8 -128.5q0 -60 -5 -108.5t-16 -85t-25.5 -64t-35 -46t-42.5 -31t-51.5 -19t-57.5 -9t-65 -2.5t-64.5 2t-57.5 8t-51.5 17.5t-42.5 30 t-35 46t-25.5 64t-16.5 86t-5 111.5zM208 361q0 -40 1.5 -68.5t5 -52.5t10.5 -39.5t16.5 -27t24.5 -17.5t33 -8.5t43 -2.5q41 0 65 8.5t40.5 33t22.5 65.5t6 109q0 62 -4.5 101.5t-13 65.5t-25.5 38.5t-37 17t-53.5 4.5t-52.5 -3.5t-37 -16t-26.5 -37.5t-13.5 -66t-5 -104z " />
<glyph unicode="P" horiz-adv-x="610" d="M48 0v732h320q33 0 59.5 -4t56.5 -18.5t50 -38.5t33.5 -67.5t13.5 -102.5q0 -65 -14.5 -112.5t-35 -72.5t-51.5 -38.5t-56 -16t-56 -1.5q-29 2 -90.5 10t-65.5 10v-280h-164zM212 402h141q32 0 47.5 22.5t15.5 74.5q-1 91 -63 91h-141v-188z" />
<glyph unicode="Q" horiz-adv-x="669" d="M44 361q0 72 8 128.5t21 96t35 67.5t45 44t56 25.5t62.5 12t70.5 2.5t71 -3t63 -12t56 -25t45 -44t34.5 -67.5t20.5 -96t8 -128.5q0 -68 -7.5 -121.5t-20 -91.5t-33.5 -65.5t-44 -44t-55.5 -26t-64 -13t-73.5 -3.5q-38 0 -65 2t-57.5 8t-51.5 17.5t-42.5 30t-35 46 t-25 64t-16.5 86t-5 111.5zM208 361q0 -57 3.5 -92t11 -61t23.5 -39t38 -18.5t58 -5.5q54 0 81.5 17t40 63t12.5 136q0 51 -2.5 87t-9.5 61.5t-16.5 40.5t-26 24t-34.5 11.5t-45 2.5q-34 0 -53 -3.5t-37 -16t-26 -37.5t-13 -66t-5 -104zM294 -33h89q23 -64 161 -31v-125 q-34 -5 -68.5 -5t-66.5 11t-57 29t-41 49.5t-17 71.5z" />
<glyph unicode="R" horiz-adv-x="612" d="M48 0v732h323q99 0 155 -53t56 -178q0 -37 -4.5 -67.5t-10 -51t-16 -37t-19 -26t-22 -17.5t-21 -11t-20.5 -8l133 -283h-186l-109 269l-95 14v-283h-164zM213 409h139q38 0 51 19t13 73q0 48 -15 68.5t-49 20.5h-139v-181z" />
<glyph unicode="S" horiz-adv-x="593" d="M44 483v62q0 189 198 193q188 5 295 -31v-128q-102 10 -243 10q-48 1 -67 -9.5t-19 -49.5v-25q0 -18 3 -29t11.5 -18t21.5 -10t34 -3h106q36 0 65 -9.5t48 -25.5t32.5 -36t20.5 -43.5t10.5 -44.5t3.5 -43v-42q0 -51 -12 -89t-31 -60.5t-46.5 -36t-54.5 -18.5t-59 -5 q-118 0 -174.5 6t-119.5 26v128q110 -11 257 -11q36 0 56 11t20 42v29q0 30 -13 44t-47 14h-103q-33 0 -60.5 6t-46.5 17.5t-34 25t-24 31t-15 33t-8.5 34t-3.5 30.5t-1 25z" />
<glyph unicode="T" horiz-adv-x="599" d="M26 583v149h553v-149h-197v-583h-164v583h-192z" />
<glyph unicode="U" horiz-adv-x="660" d="M54 320v412h164v-412q0 -53 4.5 -85t18.5 -53.5t37 -29.5t62 -8q67 0 91.5 38.5t24.5 137.5v412h165v-412q0 -67 -10 -119.5t-24 -86.5t-39.5 -57.5t-46 -35.5t-54 -18t-53.5 -7t-54 -1h-10q-29 0 -44.5 0.5t-43.5 3t-43 8t-38 16.5t-36 27t-28.5 41t-23.5 57t-13.5 75.5 t-5.5 96.5z" />
<glyph unicode="V" horiz-adv-x="691" d="M30 732h173l145 -524l154 524h173l-231 -732h-194z" />
<glyph unicode="W" horiz-adv-x="1004" d="M30 732h173l144 -521l114 521h174l-45 -172l110 -351l115 523h173l-192 -732h-194l-84 273l-74 -273h-194z" />
<glyph unicode="X" horiz-adv-x="658" d="M30 732h182l123 -229l125 229h182l-222 -367l216 -365h-181l-120 224l-121 -224h-181l217 365z" />
<glyph unicode="Y" horiz-adv-x="666" d="M30 732h178l126 -339l138 339h178l-236 -517v-215h-164v215z" />
<glyph unicode="Z" horiz-adv-x="554" d="M24 0v149l313 434h-313v149h508v-149l-291 -434h291v-149h-508z" />
<glyph unicode="[" horiz-adv-x="338" d="M57 0v648q0 194 181 194h88v-134h-43q-62 0 -62 -83v-618q0 -83 62 -83h43v-134h-88q-181 0 -181 210z" />
<glyph unicode="\" horiz-adv-x="476" d="M13 770h169l281 -842h-169z" />
<glyph unicode="]" horiz-adv-x="338" d="M13 -76h43q62 0 62 83v618q0 83 -62 83h-43v134h88q181 0 181 -194v-648q0 -210 -181 -210h-88v134z" />
<glyph unicode="^" horiz-adv-x="381" d="M34 531l104 137h116l94 -137h-101l-54 56l-57 -56h-102zM254 668z" />
<glyph unicode="_" horiz-adv-x="674" d="M20 -1v134h634v-134h-634z" />
<glyph unicode="`" horiz-adv-x="243" d="M13 672h133l84 -141h-99z" />
<glyph unicode="a" horiz-adv-x="519" d="M26 139v46q0 65 39 107.5t125 42.5q132 -1 132 0q1 21 0 22q0 38 -15 48.5t-52 10.5q-55 0 -211 -11v99q50 21 103.5 29t132.5 8q102 0 154 -39t52 -138v-364h-130l-34 56q-8 -17 -48 -40t-91 -22q-78 3 -117.5 46.5t-39.5 98.5zM190 164q0 -15 4 -24.5t11.5 -13.5t14 -5 t17.5 -1q14 0 28 4t24 9.5t17.5 11t11.5 9.5l4 4v81l-94 -8q-38 -3 -38 -50v-17z" />
<glyph unicode="b" horiz-adv-x="557" d="M40 0v785h164v-279q67 33 148 33q36 0 63.5 -8t46.5 -25t31.5 -39t19.5 -54.5t9.5 -67.5t2.5 -82q0 -135 -40.5 -202t-132.5 -67q-77 0 -147 58l-27 -52h-138zM205 158q32 -28 98 -28q15 0 25 6t18 21.5t11.5 43t3.5 69.5q0 61 -7.5 94t-19 42.5t-31.5 9.5q-64 0 -98 -18 v-240z" />
<glyph unicode="c" horiz-adv-x="492" d="M34 266q0 78 12.5 132t37 83.5t54.5 42t70 12.5q158 0 251 -34v-98q-80 6 -169 6q-17 0 -26 -1t-21 -3.5t-17.5 -8t-12 -15.5t-9.5 -26t-4.5 -38.5t-1.5 -53.5q0 -50 3.5 -77.5t15.5 -42.5t27.5 -18.5t45.5 -3.5q41 0 85 2t68 4l23 2v-99q-22 -13 -46.5 -21t-54.5 -11 t-50 -4t-56.5 -0.5t-50.5 0.5q-39 0 -69 12.5t-54.5 42t-37.5 84t-13 132.5z" />
<glyph unicode="d" horiz-adv-x="557" d="M34 263q0 58 3.5 99t14.5 76.5t30.5 56.5t50 32.5t73.5 11.5q81 0 148 -33v279h164v-785h-138l-26 52q-70 -58 -148 -58q-92 0 -132 65t-40 204zM198 270q0 -81 13.5 -110.5t44.5 -29.5q65 0 98 28v240q-35 18 -98 18q-21 0 -32.5 -9.5t-18.5 -42.5t-7 -94z" />
<glyph unicode="e" horiz-adv-x="525" d="M34 268q0 85 11.5 137t41 81t70.5 39t109 10q45 0 74.5 -2.5t58 -9.5t45.5 -20t30.5 -34.5t18.5 -53t5 -75.5q0 -38 -10 -64.5t-30 -42.5t-47.5 -23.5t-64.5 -7.5h-148q0 -17 2.5 -30t6 -21.5t12 -14.5t14.5 -9t20.5 -4.5t23.5 -1.5h28h9h64.5t46 2.5t63.5 8.5v-109 q-33 -14 -91.5 -20.5t-89.5 -7t-99 -0.5q-98 0 -136 63t-38 210zM198 313h99q12 0 20.5 4.5t12.5 12.5t4 19q0 22 -1.5 33.5t-7.5 20t-17.5 11t-31.5 2.5q-25 0 -38 -2.5t-23.5 -12.5t-14 -30.5t-2.5 -57.5z" />
<glyph unicode="f" horiz-adv-x="405" d="M13 412v102l79 17v99q0 53 17 87t54.5 51.5t96.5 17.5q79 0 132 -24v-96l-86 2q-35 0 -43 -15t-8 -61q1 -4 1 -7v-54h110v-119h-110v-412h-164v412h-79z" />
<glyph unicode="g" horiz-adv-x="563" d="M31 98q0 76 63 98q-21 14 -35 39.5t-19 52.5t-5 56q0 189 188 189h327v-93l-51 -18l6 -18t5 -18t4 -27.5t1 -36.5q0 -34 -8.5 -62.5t-28 -54.5t-58 -41t-93.5 -15h-111h-13.5t-11.5 -2t-11.5 -6.5t-3.5 -12.5q0 -15 10 -19.5t30 -4.5h145q79 0 123 -40.5t44 -123.5v-56 q0 -69 -40.5 -111.5t-131.5 -42.5h-150q-75 0 -121.5 39t-46.5 115v61l49 43q-23 11 -39.5 39.5t-16.5 70.5zM203 -93q0 -22 7 -33t17.5 -14.5t30.5 -3.5h58q17 0 27.5 3.5t15 11t5.5 14.5t1 19v31q0 41 -46 41h-75l-41 2v-71zM199 344q0 -25 5.5 -40t17 -21.5t31.5 -6.5h41 q32 0 44.5 15.5t12.5 52.5q-1 36 -14.5 49t-43.5 13h-40q-23 0 -35.5 -9t-15.5 -21t-3 -32z" />
<glyph unicode="h" d="M40 0v782h164v-306q19 16 30.5 24t32 19t44 16t52.5 5q47 0 79 -14.5t48.5 -42.5t23 -60t6.5 -75v-348h-164v350q0 35 -12 49.5t-36 14.5q-35 0 -58.5 -10t-45.5 -32v-372h-164z" />
<glyph unicode="i" horiz-adv-x="238" d="M34 607v101q0 26 24 26h124q23 0 23 -26v-101q0 -23 -23 -23h-124q-11 0 -17.5 6.5t-6.5 16.5zM37 0v531h164v-531h-164z" />
<glyph unicode="j" horiz-adv-x="252" d="M40 607v101q0 26 24 26h126q10 0 16 -7.5t6 -18.5v-101q0 -23 -22 -23h-126q-10 0 -17 6.5t-7 16.5zM45 -270v801h164v-535q1 -84 -6.5 -148.5t-34.5 -117.5h-123z" />
<glyph unicode="k" horiz-adv-x="578" d="M40 0v782h164v-425h26l131 174h205l-186 -233l186 -298h-194l-142 238h-26v-238h-164z" />
<glyph unicode="l" horiz-adv-x="318" d="M40 189v594h164v-564q0 -51 10.5 -70.5t31.5 -29.5q53 -21 60 -21v-98h-126q-71 0 -105.5 43.5t-34.5 145.5z" />
<glyph unicode="m" horiz-adv-x="867" d="M40 0v531h135l29 -55q24 18 33 25t30 18.5t43 15.5t51 4q100 0 135 -65q43 30 85.5 47.5t96.5 17.5q31 0 55.5 -6.5t41.5 -19t28.5 -29.5t18.5 -39t9.5 -46t2.5 -53v-346h-164v350q0 63 -47 63q-70 0 -106 -37q0 -3 0.5 -14.5t0.5 -14.5v-347h-164v350q0 63 -48 63 q-34 0 -57 -9.5t-45 -32.5v-371h-164z" />
<glyph unicode="n" d="M40 0v531h135l29 -55q28 22 43 32.5t46.5 21t69.5 10.5q47 0 79 -14.5t48.5 -42.5t23 -60t6.5 -75v-348h-164v350q0 24 -6 38t-16 20t-26 6q-35 0 -58.5 -10t-45.5 -32v-372h-164z" />
<glyph unicode="o" horiz-adv-x="557" d="M34 258q0 109 24 169t75.5 84.5t145.5 24.5q138 0 191.5 -60t53.5 -218q0 -149 -52.5 -206t-192.5 -57q-137 0 -191 59.5t-54 203.5zM198 258q0 -62 7.5 -90.5t23 -37t50.5 -8.5q23 0 35 2t22.5 8.5t15 22.5t6.5 39.5t2 63.5q0 43 -2 67.5t-6 43t-14 26.5t-23 11.5 t-36 3.5q-20 0 -31.5 -2t-21.5 -8.5t-15 -15.5t-8.5 -27.5t-4 -40.5t-0.5 -58z" />
<glyph unicode="p" horiz-adv-x="557" d="M40 -270v801h138l27 -51q69 57 147 57q92 0 132.5 -67.5t40.5 -201.5q0 -52 -4 -90.5t-15 -75t-30 -59.5t-50 -37t-74 -14q-81 0 -148 32v-294h-164zM205 132q34 -17 98 -17q20 0 31.5 9.5t19 42.5t7.5 93q0 82 -14 111.5t-44 29.5q-66 0 -98 -28v-241z" />
<glyph unicode="q" horiz-adv-x="555" d="M34 268q0 140 50.5 204.5t147.5 64.5q78 0 160.5 -9.5t122.5 -23.5v-774h-164v299q-45 -39 -119 -39q-111 0 -154.5 67t-43.5 211zM198 273q0 -37 0.5 -57.5t4 -43.5t11 -33.5t21 -17.5t33.5 -7q46 0 83 20v284h-82q-11 0 -20.5 -3t-16.5 -8t-12.5 -13t-9 -16t-6 -19.5 t-4 -20.5t-2 -22t-0.5 -21.5v-21.5z" />
<glyph unicode="r" horiz-adv-x="414" d="M40 0v531h142l22 -67q8 9 16.5 17.5t18.5 17t21.5 15t24 12t27 8t28.5 2.5q38 0 54 -6v-157q-30 1 -78 1q-45 0 -71.5 -11t-40.5 -48v-315h-164z" />
<glyph unicode="s" horiz-adv-x="509" d="M26 343v46q0 43 13 74.5t44.5 52t80.5 20.5q80 0 125.5 -1t97.5 -8.5t69 -21.5v-100h-233q-19 0 -26 -5.5t-7 -22.5v-16q0 -17 8 -21.5t25 -4.5h115q51 0 84 -19.5t46.5 -49.5t13.5 -72v-56q0 -75 -37 -109t-93 -34q-80 0 -127.5 1t-103.5 9t-73 23v99h243q27 0 27 26v16 q0 14 -5.5 20.5t-21.5 6.5h-111q-154 0 -154 147z" />
<glyph unicode="t" horiz-adv-x="383" d="M13 413v86l81 33l26 148h138v-148h106v-119h-106v-193q0 -52 10 -72t32 -30q52 -20 58 -20v-98h-134q-41 0 -69 17.5t-44.5 60.5t-16.5 112v223h-81z" />
<glyph unicode="u" d="M34 184v347h164v-351q0 -23 5.5 -37t15.5 -19.5t26 -5.5q35 0 58.5 9.5t44.5 32.5v371h164v-531h-134l-30 54q-10 -6 -27 -17.5t-27.5 -18t-26.5 -13.5t-35 -10.5t-42 -3.5q-47 0 -79 14.5t-48.5 42.5t-22.5 60t-6 76z" />
<glyph unicode="v" horiz-adv-x="575" d="M13 531h175l98 -347l102 347h174l-186 -531h-186z" />
<glyph unicode="w" horiz-adv-x="835" d="M13 531h175l88 -347l80 347h160l-30 -133l78 -214l84 347h175l-160 -531h-187l-65 168l-51 -168h-188z" />
<glyph unicode="x" horiz-adv-x="590" d="M16 0l180 266l-180 265h198l80 -143l82 143h198l-183 -268l175 -263h-190l-81 141l-81 -141h-198z" />
<glyph unicode="y" horiz-adv-x="587" d="M14 531h171l78 -356q9 -36 49 -39l90 395h168l-166 -699l-72 -102h-119l68 270q-136 0 -172 144z" />
<glyph unicode="z" horiz-adv-x="480" d="M20 397v134h441v-134l-207 -262h207v-134h-426v133l220 263h-235z" />
<glyph unicode="{" horiz-adv-x="321" d="M13 274v119q31 3 49.5 14t18.5 39v210q0 88 56.5 137t170.5 49v-134q-36 0 -49.5 -22.5t-13.5 -89.5v-161q0 -91 -100 -101q46 -9 72.5 -34t26.5 -64v-222q0 -51 13.5 -74.5t50.5 -23.5v-126q-123 0 -175.5 42.5t-52.5 129.5v259q0 27 -18.5 41t-48.5 12z" />
<glyph unicode="|" horiz-adv-x="248" d="M58 -72v842h134v-842h-134z" />
<glyph unicode="}" horiz-adv-x="321" d="M13 -84q37 0 51 23.5t14 74.5v222q0 39 26 64t73 34q-100 10 -100 101v161q0 46 -6.5 70t-19.5 33t-38 9v134q114 0 171 -49t57 -137v-210q0 -19 10.5 -31t24 -16t32.5 -6v-119q-30 2 -48 -12t-18 -41v-259q0 -87 -52.5 -129.5t-176.5 -42.5v126z" />
<glyph unicode="~" horiz-adv-x="412" d="M34 592q59 72 121 72q23 0 55 -17.5t51 -17.5q48 -2 93 40l25 -66q-54 -72 -113 -72q-22 0 -58.5 17.5t-55.5 17.5q-27 0 -45.5 -8t-47.5 -27z" />
<glyph unicode="&#xa1;" horiz-adv-x="278" d="M65 338v100q0 21 24 23h98q9 -1 16.5 -8.5t7.5 -17.5v-96q-1 -27 -23 -27h-99q-24 0 -24 26zM57 -270l17 534h129l16 -534h-162z" />
<glyph unicode="&#xa2;" horiz-adv-x="486" d="M26 266q0 79 13 133t38 83.5t56 42t73 11.5v98h96v-100q86 -8 151 -32v-98q-81 6 -170 6q-20 0 -30 -1t-23 -5t-18.5 -13t-11.5 -25t-8 -41t-2 -61q0 -40 3.5 -65t9 -41.5t17.5 -24t25.5 -10t37.5 -2.5q41 0 85 2t68 5l23 2v-100q-59 -34 -160 -36v-89h-96v89 q-40 1 -70.5 13.5t-55.5 42t-38 84t-13 132.5z" />
<glyph unicode="&#xa3;" horiz-adv-x="578" d="M34 0v126l64 23v159h-64v82l64 24v61q0 66 12 112.5t33 74.5t56 44t72.5 21t92.5 5q25 0 70 -4t78 -8l32 -4v-132h-186q-59 0 -77.5 -15.5t-18.5 -76.5v-78l204 -16v-90h-204v-159h282v-149h-510z" />
<glyph unicode="&#xa4;" horiz-adv-x="442" d="M34 434l52 53l47 -45q40 27 89 27q46 0 86 -26l46 47l54 -49l-49 -51q21 -36 21 -80q0 -52 -30 -93l48 -45l-50 -56l-54 52q-34 -18 -72 -18q-46 0 -84 25l-47 -48l-53 52l48 49q-22 40 -22 82q0 43 20 77zM149 310q0 -15 5.5 -28.5t15.5 -23.5t23.5 -16t28.5 -6 q30 0 51.5 21.5t21.5 52.5q0 30 -21.5 52t-51.5 22t-51.5 -22t-21.5 -52z" />
<glyph unicode="&#xa5;" horiz-adv-x="646" d="M13 732h179l126 -328l136 328h179l-187 -388h85v-90h-134v-31h134v-89h-134v-134h-164v134h-129v89h129v31h-129v90h83z" />
<glyph unicode="&#xa6;" horiz-adv-x="249" d="M58 -72v328h134v-328h-134zM58 429v341h134v-341h-134z" />
<glyph unicode="&#xa7;" horiz-adv-x="537" d="M38 330v25v4q0 20 1 32.5t6.5 32t20.5 33.5t38 21q-67 31 -67 112v40q0 74 37.5 114t107.5 40q200 0 282 -19v-115h-230q-33 0 -33 -30v-22q0 -31 35 -31h102q85 0 124.5 -30t39.5 -95v-25q0 -95 -65 -115q20 -3 33.5 -14.5t19.5 -28.5t8 -31.5t2 -29.5v-50 q0 -45 -12 -77t-33 -48.5t-43.5 -23.5t-49.5 -7q-218 0 -288 19v115h227q13 0 20.5 2t11.5 8t4 17v27q0 16 -8 22t-27 6h-105q-78 0 -118.5 27t-40.5 95zM201 371q0 -23 9.5 -30t31.5 -7h52q28 0 35.5 8t7.5 30v29q0 11 -1 16.5t-5 11.5t-13 8.5t-24 2.5h-52q-26 0 -33.5 -9 t-7.5 -32v-28z" />
<glyph unicode="&#xa8;" horiz-adv-x="445" d="M34 581.5q0 25.5 18 43.5t43.5 18t43.5 -17.5t18 -43.5t-18 -44t-43.5 -18t-43.5 18t-18 43.5zM288 581.5q0 25.5 18.5 43.5t44 18t43.5 -17.5t18 -43.5t-18 -44t-43.5 -18t-44 18t-18.5 43.5z" />
<glyph unicode="&#xa9;" horiz-adv-x="796" d="M37 368q0 77 11 137t38.5 114t81.5 83.5t134 29.5h217q59 0 102.5 -20t69.5 -52.5t42 -81t21.5 -98.5t5.5 -112q0 -120 -29 -203t-82.5 -124t-129.5 -41h-217q-135 0 -200 103t-65 265zM138 368q0 -123 41 -198.5t123 -75.5h210q147 0 147 274q0 44 -2 75t-10 71 t-22 64.5t-41 42t-65 17.5h-217q-37 0 -64 -11.5t-51 -40t-36.5 -83.5t-12.5 -135zM220 365q0 116 37.5 167t106.5 51q113 0 186 -24v-82q-84 12 -156 12q-40 0 -56 -27t-16 -100q0 -43 7.5 -69t25 -39t45.5 -13q70 0 156 16v-82q-60 -28 -185 -28q-25 0 -46 5.5t-41 20.5 t-33.5 39t-22 63t-8.5 90z" />
<glyph unicode="&#xaa;" horiz-adv-x="367" d="M20 260v74h328v-74h-328zM20 468v30q0 42 27 69.5t88 27.5q87 -1 87 0q1 10 0 11q0 17 -6 25.5t-15 10.5t-27 2q-32 0 -63 -2t-52.5 -4.5t-26.5 -2.5v75q66 28 161 28q76 0 115 -25.5t39 -91.5v-243h-97l-28 43q-5 -14 -31.5 -31t-60.5 -16q-54 2 -82 30t-28 64zM136 488 q0 -17 8.5 -21.5t23.5 -4.5q8 0 15 1t12.5 3t10 4.5t7.5 5t5 4.5l3 3l1 1v49l-60 -5q-17 -1 -21.5 -9t-4.5 -21v-10z" />
<glyph unicode="&#xab;" horiz-adv-x="592" d="M34 354l206 203l85 -84l-121 -119l123 -122l-83 -86zM265 354l206 203l86 -84l-121 -119l123 -122l-83 -86z" />
<glyph unicode="&#xac;" horiz-adv-x="482" d="M28 234v126h426v-201h-126v75h-300z" />
<glyph unicode="&#xad;" horiz-adv-x="354" d="M20 223v134h314v-134h-314z" />
<glyph unicode="&#xae;" horiz-adv-x="796" d="M37 368q0 77 11 137t38.5 114t81.5 83.5t134 29.5h217q59 0 102.5 -20t69.5 -52.5t42 -81t21.5 -98.5t5.5 -112q0 -120 -29 -203t-82.5 -124t-129.5 -41h-217q-135 0 -200 103t-65 265zM138 368q0 -123 41 -198.5t123 -75.5h210q147 0 147 274q0 44 -2 75t-10 71 t-22 64.5t-41 42t-65 17.5h-217q-37 0 -64 -11.5t-51 -40t-36.5 -83.5t-12.5 -135zM243 153v427h185q134 0 134 -136q0 -60 -18.5 -89.5t-53.5 -40.5l85 -161h-109l-80 155l-42 12v-167h-101zM344 394h60q38 0 47 8.5t9 41.5q0 27 -11.5 34.5t-44.5 7.5h-60v-92z" />
<glyph unicode="&#xaf;" horiz-adv-x="359" d="M34 531v85h292v-85h-292z" />
<glyph unicode="&#xb0;" horiz-adv-x="270" d="M34 632q0 28 13.5 51.5t37 37.5t51 14t51 -14t36.5 -37.5t13 -51.5t-13 -51.5t-36.5 -37t-51 -13.5t-51 13.5t-37 37t-13.5 51.5zM95 632q0 -17 12 -28.5t28.5 -11.5t28 11.5t11.5 28.5t-11.5 29t-28 12t-28.5 -12t-12 -29z" />
<glyph unicode="&#xb1;" horiz-adv-x="491" d="M38 64v134h416v-134h-416zM38 380v134h140v140h134v-140h142v-134h-142v-142h-134v142h-140z" />
<glyph unicode="&#xb2;" horiz-adv-x="405" d="M21 745l-0.5 23.5t0 47t0.5 22.5q102 21 205 21q76 0 113.5 -40.5t37.5 -108.5q0 -99 -163 -228h163v-114h-353v109q29 18 61.5 42t73 57.5t67 65.5t26.5 54q0 29 -17 39t-60 10h-154z" />
<glyph unicode="&#xb3;" horiz-adv-x="409" d="M20 740v93q65 24 221 21q29 -1 53.5 -9.5t41 -24.5t25.5 -38.5t9 -49.5v-29q0 -75 -60 -95q60 -19 60 -100v-22q0 -59 -34 -91t-100 -32h-23.5h-23.5h-21.5t-23 0.5t-21 1t-22 2t-19.5 3t-20.5 3.5t-18.5 4.5t-19 5.5l1 93l153 1q41 0 54 5.5t13 25.5v9q0 20 -14.5 27.5 t-48.5 7.5l-116 6v100l116 8q36 0 50.5 7t14.5 26v8q0 14 -9 21.5t-22 9.5t-34 2h-162z" />
<glyph unicode="&#xb4;" horiz-adv-x="243" d="M13 531l85 141h132l-118 -141h-99z" />
<glyph unicode="&#xb5;" horiz-adv-x="586" d="M61 184v347h164v-351q0 -34 12 -48t35 -14q35 0 58.5 9.5t45.5 32.5v371h164v-531h-135l-29 54q-5 -3 -24 -15t-26.5 -16t-22.5 -11t-29 -10q-24 -5 -49 -2v-270h-164v454z" />
<glyph unicode="&#xb6;" horiz-adv-x="575" d="M26 499v93q0 69 43 104.5t113 35.5h381v-114h-47v-618h-112v620h-56v-890h-112v642l-7.5 -5t-19 -8.5t-27.5 -3.5q-78 0 -117 40.5t-39 103.5zM138 514q0 -16 4 -26t12 -14.5t16 -6t20 -1.5h46v154h-46q-33 0 -42.5 -11.5t-9.5 -42.5v-52z" />
<glyph unicode="&#xb7;" horiz-adv-x="260" d="M57 334v102q0 26 24 26h98q25 0 25 -26v-102q0 -22 -25 -22h-98q-5 0 -9.5 1.5t-7.5 4.5t-5 7t-2 9z" />
<glyph unicode="&#xb8;" horiz-adv-x="241" d="M34 -112l40 15q20 9 25 19.5t5 40.5h104q0 -78 -25.5 -110.5t-90.5 -32.5h-58v68z" />
<glyph unicode="&#xb9;" horiz-adv-x="270" d="M11 725v72l93 55h123v-484h-125v375z" />
<glyph unicode="&#xba;" horiz-adv-x="396" d="M20 550q0 107 39 146.5t139 39.5q68 0 106 -17.5t55 -57.5t17 -111q0 -99 -38 -137.5t-140 -38.5q-99 0 -138.5 40t-39.5 136zM34 261v73h328v-73h-328zM145 551q0 -52 10.5 -66t42.5 -14q24 0 33.5 4t14.5 21t6 55q0 58 -9.5 73t-44.5 15q-34 0 -43.5 -15.5t-9.5 -72.5z " />
<glyph unicode="&#xbb;" horiz-adv-x="592" d="M34 232l123 122l-121 119l85 84l206 -203l-211 -208zM265 232l123 122l-121 119l86 84l206 -203l-211 -208z" />
<glyph unicode="&#xbc;" horiz-adv-x="941" d="M11 612v72l93 56h123v-485h-125v376zM159 0l437 760h114l-436 -760h-115zM508 145l158 339h130l-124 -278h86v96l23 50h102v-146h45v-96l-45 -20v-89h-125v89h-227z" />
<glyph unicode="&#xbd;" horiz-adv-x="997" d="M11 612v72l93 56h123v-485h-125v376zM150 0l437 760h115l-437 -760h-115zM610 377q-1 0 -1 23.5v47t1 23.5q103 20 206 20q78 0 116 -40.5t38 -108.5q0 -98 -166 -228h166v-114h-357v110q29 19 62 43.5t74.5 59.5t68.5 68.5t27 55.5q0 23 -17.5 31.5t-61.5 8.5h-156z" />
<glyph unicode="&#xbe;" horiz-adv-x="1054" d="M20 628v93q29 10 67.5 15.5t76 5.5t80.5 -1q60 0 95 -33t35 -89v-28q0 -75 -59 -95q59 -20 59 -101v-21q0 -39 -15 -66.5t-45.5 -42.5t-74.5 -15h-23.5h-24t-22 0.5t-23 1t-21 1t-22 1.5t-20 2.5t-21 3.5t-19 4.5t-19.5 6.5l1 93h156q41 0 55 6t14 26v9q0 20 -15.5 27 t-49.5 8l-119 5v100l119 8q37 1 51.5 7.5t14.5 25.5v10q0 19 -16.5 25.5t-49.5 6.5h-165zM263 0l436 760h115l-437 -760h-114zM600 146l158 338h129l-124 -278h89v96l21 50h103v-146h44v-96l-44 -20v-88h-124v88h-229z" />
<glyph unicode="&#xbf;" horiz-adv-x="543" d="M26 -3q0 102 52.5 151.5t167.5 42.5v86h128l1 -207h-52.5h-52.5q-76 -3 -77 -78v-36q0 -35 24 -54.5t72 -19.5l241 1v-13v-31v-36v-30.5v-12.5q-50 -11 -88.5 -17.5t-88.5 -9.5t-105 0q-56 0 -100 17.5t-69.5 47t-39 64.5t-13.5 72v63zM238 348v100q0 23 24 24h98 q10 0 17 -6.5t7 -16.5v-101q-1 -25 -24 -26h-98q-24 2 -24 26z" />
<glyph unicode="&#xc0;" horiz-adv-x="700" d="M197 938h132l85 -141h-99zM30 0l239 732h190l231 -732h-171l-48 147h-221l-48 -147h-172zM290 289h145l-69 233z" />
<glyph unicode="&#xc1;" horiz-adv-x="700" d="M315 797l84 141h133l-118 -141h-99zM30 0l239 732h190l231 -732h-171l-48 147h-221l-48 -147h-172zM290 289h145l-69 233z" />
<glyph unicode="&#xc2;" horiz-adv-x="700" d="M207 797l104 137h116l94 -137h-101l-54 56l-57 -56h-102zM30 0l239 732h190l231 -732h-171l-48 147h-221l-48 -147h-172zM290 289h145l-69 233z" />
<glyph unicode="&#xc3;" horiz-adv-x="700" d="M191 858q59 71 122 71q24 0 56.5 -17.5t49.5 -17.5q46 -2 93 39l25 -66q-56 -70 -113 -70q-24 1 -59.5 18t-54.5 17q-27 0 -45.5 -8t-47.5 -27zM30 0l239 732h190l231 -732h-171l-48 147h-221l-48 -147h-172zM290 289h145l-69 233z" />
<glyph unicode="&#xc4;" horiz-adv-x="700" d="M175 859.5q0 25.5 18.5 43t44 17.5t43 -17.5t17.5 -43t-17.5 -44t-43 -18.5t-44 18.5t-18.5 44zM430 859.5q0 25.5 18.5 43t44 17.5t43 -17.5t17.5 -43t-17.5 -44t-43 -18.5t-44 18.5t-18.5 44zM30 0l239 732h190l231 -732h-171l-48 147h-221l-48 -147h-172zM290 289h145 l-69 233z" />
<glyph unicode="&#xc5;" horiz-adv-x="700" d="M263 832q0 43 30 73t72 30t71.5 -30t29.5 -73q0 -28 -13.5 -51.5t-37 -37t-51 -13.5t-51 13.5t-37 37t-13.5 51.5zM325 832q0 -8 3.5 -15t8.5 -12t12.5 -8t15.5 -3q16 0 27 11t11 27.5t-11 27.5t-27.5 11t-28 -11.5t-11.5 -27.5zM30 0l239 732h190l231 -732h-171l-48 147 h-221l-48 -147h-172zM290 289h145l-69 233z" />
<glyph unicode="&#xc6;" horiz-adv-x="966" d="M20 0l278 565q23 46 53 79t60 50.5t68.5 26.5t71 11t75.5 0q222 -4 310 -16v-137h-265q-15 0 -25 -3.5t-15 -8t-8 -13t-3.5 -14t-0.5 -16.5v-85l269 -11v-135l-269 -9v-83q0 -15 4.5 -25.5t8.5 -15t15.5 -7t16 -3t17.5 -0.5h255v-136q-35 -5 -109.5 -9.5t-132.5 -6.5 l-58 -2q-30 -1 -58 3t-57.5 15.5t-47.5 39t-18 67.5v61h-163l-90 -182h-182zM360 324h95v200z" />
<glyph unicode="&#xc7;" horiz-adv-x="569" d="M76 -112l40 15q15 6 21 13.5t7.5 16.5t1.5 30h104q0 -78 -25.5 -110.5t-90.5 -32.5h-58v68zM37 368q0 92 11.5 157.5t39 115.5t77.5 74.5t123 24.5q89 0 142.5 -7.5t116.5 -28.5v-128l-7 0.5t-19 2t-27.5 3t-35 3.5t-39.5 3t-43 2t-43 1q-23 0 -37 -1.5t-30 -6t-25 -14 t-17.5 -25.5t-13 -40t-7 -58t-2.5 -80q0 -127 26.5 -175t106.5 -48q46 0 99.5 2t83.5 4l30 3v-128q-92 -33 -259 -30q-69 1 -117.5 25.5t-77.5 73.5t-42.5 116t-13.5 159z" />
<glyph unicode="&#xc8;" horiz-adv-x="567" d="M160 937h133l84 -141h-99zM50 152v420q0 39 11.5 69t28.5 47t41 27.5t45 13.5t45 3q237 -4 324 -16v-137h-279q-19 0 -30 -4t-15.5 -14t-5.5 -17t-1 -21v-83l284 -10v-136l-284 -9v-83q0 -19 5 -30.5t16 -16t18.5 -5t22.5 -0.5h269v-136q-21 -3 -61.5 -6t-82.5 -4.5 t-81 -3.5t-64 -2l-25 -1q-23 -1 -44 1t-47.5 11t-45 25t-31.5 46.5t-13 71.5z" />
<glyph unicode="&#xc9;" horiz-adv-x="567" d="M271 796l85 140h132l-118 -140h-99zM50 152v420q0 39 11.5 69t28.5 47t41 27.5t45 13.5t45 3q237 -4 324 -16v-137h-279q-19 0 -30 -4t-15.5 -14t-5.5 -17t-1 -21v-83l284 -10v-136l-284 -9v-83q0 -19 5 -30.5t16 -16t18.5 -5t22.5 -0.5h269v-136q-21 -3 -61.5 -6 t-82.5 -4.5t-81 -3.5t-64 -2l-25 -1q-23 -1 -44 1t-47.5 11t-45 25t-31.5 46.5t-13 71.5z" />
<glyph unicode="&#xca;" horiz-adv-x="567" d="M161 797l104 137h116l95 -137h-102l-54 56l-57 -56h-102zM50 152v420q0 39 11.5 69t28.5 47t41 27.5t45 13.5t45 3q237 -4 324 -16v-137h-279q-19 0 -30 -4t-15.5 -14t-5.5 -17t-1 -21v-83l284 -10v-136l-284 -9v-83q0 -19 5 -30.5t16 -16t18.5 -5t22.5 -0.5h269v-136 q-21 -3 -61.5 -6t-82.5 -4.5t-81 -3.5t-64 -2l-25 -1q-23 -1 -44 1t-47.5 11t-45 25t-31.5 46.5t-13 71.5z" />
<glyph unicode="&#xcb;" horiz-adv-x="567" d="M122 858q0 17 8.5 31t22.5 22t31 8q26 0 43.5 -17.5t17.5 -43.5t-18 -44t-43.5 -18t-43.5 18t-18 44zM377 857.5q0 25.5 18 43.5t43.5 18t43.5 -17.5t18 -43.5t-18 -44t-43 -18t-43.5 18t-18.5 43.5zM50 152v420q0 39 11.5 69t28.5 47t41 27.5t45 13.5t45 3 q237 -4 324 -16v-137h-279q-19 0 -30 -4t-15.5 -14t-5.5 -17t-1 -21v-83l284 -10v-136l-284 -9v-83q0 -19 5 -30.5t16 -16t18.5 -5t22.5 -0.5h269v-136q-21 -3 -61.5 -6t-82.5 -4.5t-81 -3.5t-64 -2l-25 -1q-23 -1 -44 1t-47.5 11t-45 25t-31.5 46.5t-13 71.5z" />
<glyph unicode="&#xcc;" horiz-adv-x="257" d="M-32 938h133l84 -141h-99zM54 0v732h164v-732h-164z" />
<glyph unicode="&#xcd;" horiz-adv-x="257" d="M86 797l85 141h132l-118 -141h-99zM54 0v732h164v-732h-164z" />
<glyph unicode="&#xce;" horiz-adv-x="257" d="M-22 797l105 137h116l94 -137h-101l-54 56l-58 -56h-102zM54 0v732h164v-732h-164z" />
<glyph unicode="&#xcf;" horiz-adv-x="257" d="M-54 859.5q0 25.5 18.5 43t44 17.5t43.5 -17.5t18 -43t-18 -44t-43.5 -18.5t-44 18.5t-18.5 44zM202 859.5q0 25.5 18 43t43.5 17.5t43.5 -17.5t18 -43t-18 -44t-43.5 -18.5t-43.5 18.5t-18 44zM54 0v732h164v-732h-164z" />
<glyph unicode="&#xd0;" horiz-adv-x="664" d="M-11 338v70h65v324h325q60 0 105 -20.5t72.5 -53.5t44.5 -82t23.5 -100t6.5 -113q0 -363 -252 -363h-325v338h-65zM218 142h146q55 0 78.5 55t23.5 167q0 69 -7 114.5t-21 69t-31.5 32.5t-42.5 9h-146v-181h101v-70h-101v-196z" />
<glyph unicode="&#xd1;" horiz-adv-x="677" d="M173 858q58 71 122 71q24 0 56.5 -17.5t49.5 -17.5q46 -2 93 39l25 -66q-57 -70 -113 -70q-20 1 -40.5 9.5t-39 17t-34.5 8.5q-27 0 -45.5 -8t-47.5 -27zM54 0v732h166l254 -429v429h164v-732h-164l-255 422v-422h-165z" />
<glyph unicode="&#xd2;" horiz-adv-x="669" d="M175 938h132l85 -141h-99zM44 361q0 72 8 128.5t21.5 96t35.5 67.5t45 44t56 25.5t62.5 12t69.5 2.5q42 0 71.5 -3t63 -12t56 -25t44.5 -44t34.5 -67.5t20.5 -96t8 -128.5q0 -60 -5 -108.5t-16 -85t-25.5 -64t-35 -46t-42.5 -31t-51.5 -19t-57.5 -9t-65 -2.5t-64.5 2 t-57.5 8t-51.5 17.5t-42.5 30t-35 46t-25.5 64t-16.5 86t-5 111.5zM208 361q0 -40 1.5 -68.5t5 -52.5t10.5 -39.5t16.5 -27t24.5 -17.5t33 -8.5t43 -2.5q41 0 65 8.5t40.5 33t22.5 65.5t6 109q0 62 -4.5 101.5t-13 65.5t-25.5 38.5t-37 17t-53.5 4.5t-52.5 -3.5t-37 -16 t-26.5 -37.5t-13.5 -66t-5 -104z" />
<glyph unicode="&#xd3;" horiz-adv-x="669" d="M293 797l84 141h133l-118 -141h-99zM44 361q0 72 8 128.5t21.5 96t35.5 67.5t45 44t56 25.5t62.5 12t69.5 2.5q42 0 71.5 -3t63 -12t56 -25t44.5 -44t34.5 -67.5t20.5 -96t8 -128.5q0 -60 -5 -108.5t-16 -85t-25.5 -64t-35 -46t-42.5 -31t-51.5 -19t-57.5 -9t-65 -2.5 t-64.5 2t-57.5 8t-51.5 17.5t-42.5 30t-35 46t-25.5 64t-16.5 86t-5 111.5zM208 361q0 -40 1.5 -68.5t5 -52.5t10.5 -39.5t16.5 -27t24.5 -17.5t33 -8.5t43 -2.5q41 0 65 8.5t40.5 33t22.5 65.5t6 109q0 62 -4.5 101.5t-13 65.5t-25.5 38.5t-37 17t-53.5 4.5t-52.5 -3.5 t-37 -16t-26.5 -37.5t-13.5 -66t-5 -104z" />
<glyph unicode="&#xd4;" horiz-adv-x="669" d="M185 797l104 137h116l95 -137h-102l-54 56l-57 -56h-102zM44 361q0 72 8 128.5t21.5 96t35.5 67.5t45 44t56 25.5t62.5 12t69.5 2.5q42 0 71.5 -3t63 -12t56 -25t44.5 -44t34.5 -67.5t20.5 -96t8 -128.5q0 -60 -5 -108.5t-16 -85t-25.5 -64t-35 -46t-42.5 -31t-51.5 -19 t-57.5 -9t-65 -2.5t-64.5 2t-57.5 8t-51.5 17.5t-42.5 30t-35 46t-25.5 64t-16.5 86t-5 111.5zM208 361q0 -40 1.5 -68.5t5 -52.5t10.5 -39.5t16.5 -27t24.5 -17.5t33 -8.5t43 -2.5q41 0 65 8.5t40.5 33t22.5 65.5t6 109q0 62 -4.5 101.5t-13 65.5t-25.5 38.5t-37 17 t-53.5 4.5t-52.5 -3.5t-37 -16t-26.5 -37.5t-13.5 -66t-5 -104z" />
<glyph unicode="&#xd5;" horiz-adv-x="669" d="M170 858q58 71 121 71q24 0 56.5 -17.5t50.5 -17.5q45 -2 92 39l25 -66q-56 -70 -113 -70q-24 1 -59.5 18t-54.5 17q-27 0 -45.5 -8t-47.5 -27zM44 361q0 72 8 128.5t21.5 96t35.5 67.5t45 44t56 25.5t62.5 12t69.5 2.5q42 0 71.5 -3t63 -12t56 -25t44.5 -44t34.5 -67.5 t20.5 -96t8 -128.5q0 -60 -5 -108.5t-16 -85t-25.5 -64t-35 -46t-42.5 -31t-51.5 -19t-57.5 -9t-65 -2.5t-64.5 2t-57.5 8t-51.5 17.5t-42.5 30t-35 46t-25.5 64t-16.5 86t-5 111.5zM208 361q0 -40 1.5 -68.5t5 -52.5t10.5 -39.5t16.5 -27t24.5 -17.5t33 -8.5t43 -2.5 q41 0 65 8.5t40.5 33t22.5 65.5t6 109q0 62 -4.5 101.5t-13 65.5t-25.5 38.5t-37 17t-53.5 4.5t-52.5 -3.5t-37 -16t-26.5 -37.5t-13.5 -66t-5 -104z" />
<glyph unicode="&#xd6;" horiz-adv-x="669" d="M153 859q0 17 8.5 31t22.5 22t31 8q26 0 43.5 -17.5t17.5 -43t-17.5 -44t-43 -18.5t-44 18.5t-18.5 43.5zM408 859.5q0 25.5 18.5 43t44 17.5t43.5 -17.5t18 -43t-18 -44t-43.5 -18.5t-44 18.5t-18.5 44zM44 361q0 72 8 128.5t21.5 96t35.5 67.5t45 44t56 25.5t62.5 12 t69.5 2.5q42 0 71.5 -3t63 -12t56 -25t44.5 -44t34.5 -67.5t20.5 -96t8 -128.5q0 -60 -5 -108.5t-16 -85t-25.5 -64t-35 -46t-42.5 -31t-51.5 -19t-57.5 -9t-65 -2.5t-64.5 2t-57.5 8t-51.5 17.5t-42.5 30t-35 46t-25.5 64t-16.5 86t-5 111.5zM208 361q0 -40 1.5 -68.5 t5 -52.5t10.5 -39.5t16.5 -27t24.5 -17.5t33 -8.5t43 -2.5q41 0 65 8.5t40.5 33t22.5 65.5t6 109q0 62 -4.5 101.5t-13 65.5t-25.5 38.5t-37 17t-53.5 4.5t-52.5 -3.5t-37 -16t-26.5 -37.5t-13.5 -66t-5 -104z" />
<glyph unicode="&#xd7;" horiz-adv-x="463" d="M38 256l99 99l-99 100l94 95l100 -100l100 101l95 -95l-100 -101l100 -99l-95 -95l-100 99l-99 -99z" />
<glyph unicode="&#xd8;" horiz-adv-x="680" d="M51 361q0 72 8 128.5t21 96t35 67.5t45 44t56 25.5t62.5 12t70.5 2.5q125 0 183 -36l22 31h80l-53 -76q66 -87 66 -295q0 -68 -7.5 -121.5t-20 -92t-33.5 -66t-44 -44t-55.5 -26t-64 -12.5t-73.5 -3q-69 0 -116.5 8.5t-82.5 33.5l-27 -38h-80l61 88q-53 83 -53 273z M215 361q0 -71 8 -106l215 313q-24 20 -89 20q-24 0 -39 -1.5t-31 -6.5t-25 -15.5t-17.5 -26.5t-12.5 -40.5t-6.5 -58t-2.5 -78.5zM248 176q26 -31 101 -31q54 0 81.5 17t40 63t12.5 136q0 95 -13 140z" />
<glyph unicode="&#xd9;" horiz-adv-x="660" d="M170 938h132l85 -141h-99zM54 320v412h164v-412q0 -53 4.5 -85t18.5 -53.5t37 -29.5t62 -8q67 0 91.5 38.5t24.5 137.5v412h165v-412q0 -67 -10 -119.5t-24 -86.5t-39.5 -57.5t-46 -35.5t-54 -18t-53.5 -7t-54 -1h-10q-29 0 -44.5 0.5t-43.5 3t-43 8t-38 16.5t-36 27 t-28.5 41t-23.5 57t-13.5 75.5t-5.5 96.5z" />
<glyph unicode="&#xda;" horiz-adv-x="660" d="M288 797l84 141h133l-118 -141h-99zM54 320v412h164v-412q0 -53 4.5 -85t18.5 -53.5t37 -29.5t62 -8q67 0 91.5 38.5t24.5 137.5v412h165v-412q0 -67 -10 -119.5t-24 -86.5t-39.5 -57.5t-46 -35.5t-54 -18t-53.5 -7t-54 -1h-10q-29 0 -44.5 0.5t-43.5 3t-43 8t-38 16.5 t-36 27t-28.5 41t-23.5 57t-13.5 75.5t-5.5 96.5z" />
<glyph unicode="&#xdb;" horiz-adv-x="660" d="M180 797l104 137h116l94 -137h-100l-55 56l-57 -56h-102zM54 320v412h164v-412q0 -53 4.5 -85t18.5 -53.5t37 -29.5t62 -8q67 0 91.5 38.5t24.5 137.5v412h165v-412q0 -67 -10 -119.5t-24 -86.5t-39.5 -57.5t-46 -35.5t-54 -18t-53.5 -7t-54 -1h-10q-29 0 -44.5 0.5 t-43.5 3t-43 8t-38 16.5t-36 27t-28.5 41t-23.5 57t-13.5 75.5t-5.5 96.5z" />
<glyph unicode="&#xdc;" horiz-adv-x="660" d="M148 859q0 17 8.5 31t22.5 22t31 8q26 0 44 -17.5t18 -43t-18 -44t-43.5 -18.5t-44 18.5t-18.5 43.5zM403 859.5q0 25.5 18.5 43t44 17.5t43 -17.5t17.5 -43t-17.5 -44t-43 -18.5t-44 18.5t-18.5 44zM54 320v412h164v-412q0 -53 4.5 -85t18.5 -53.5t37 -29.5t62 -8 q67 0 91.5 38.5t24.5 137.5v412h165v-412q0 -67 -10 -119.5t-24 -86.5t-39.5 -57.5t-46 -35.5t-54 -18t-53.5 -7t-54 -1h-10q-29 0 -44.5 0.5t-43.5 3t-43 8t-38 16.5t-36 27t-28.5 41t-23.5 57t-13.5 75.5t-5.5 96.5z" />
<glyph unicode="&#xdd;" horiz-adv-x="666" d="M290 797l85 141h133l-118 -141h-100zM30 732h178l126 -339l138 339h178l-236 -517v-215h-164v215z" />
<glyph unicode="&#xde;" horiz-adv-x="542" d="M40 0v729h164v-141h130q176 -1 176 -213q0 -59 -11.5 -101.5t-28.5 -65.5t-42.5 -37t-46 -17.5t-47.5 -4.5q-23 -1 -40.5 -0.5t-37.5 4.5t-52 15v-168h-164zM204 290h70q42 0 56.5 15t14.5 68q0 26 -5 41.5t-16.5 22t-21.5 8t-28 1.5h-70v-156z" />
<glyph unicode="&#xdf;" horiz-adv-x="573" d="M40 0v566q0 93 63.5 154.5t182.5 61.5q69 0 120.5 -16.5t79.5 -44.5t42.5 -64t12 -74.5t-17 -76t-39.5 -68.5q-10 -13 -30 -32t-27.5 -31t-7.5 -27q0 -13 14.5 -25t35.5 -24t41.5 -27t35 -41t14.5 -59v-25q1 -155 -172 -155q-69 0 -140 19v113q65 -6 91 -6q11 0 20.5 3 t18 8.5t13.5 16.5t5 25v16q0 17 -13.5 30.5t-33 23.5t-39.5 22t-34 34.5t-14 52.5q0 45 17 71t60 64q38 35 38 77.5t-22 58t-61 15.5q-50 0 -70 -31t-20 -107v-498h-164z" />
<glyph unicode="&#xe0;" horiz-adv-x="519" d="M100 742h133l84 -141h-99zM26 139v46q0 65 39 107.5t125 42.5q132 -1 132 0q1 21 0 22q0 38 -15 48.5t-52 10.5q-55 0 -211 -11v99q50 21 103.5 29t132.5 8q102 0 154 -39t52 -138v-364h-130l-34 56q-8 -17 -48 -40t-91 -22q-78 3 -117.5 46.5t-39.5 98.5zM190 164 q0 -15 4 -24.5t11.5 -13.5t14 -5t17.5 -1q14 0 28 4t24 9.5t17.5 11t11.5 9.5l4 4v81l-94 -8q-38 -3 -38 -50v-17z" />
<glyph unicode="&#xe1;" horiz-adv-x="519" d="M217 601l84 141h133l-118 -141h-99zM26 139v46q0 65 39 107.5t125 42.5q132 -1 132 0q1 21 0 22q0 38 -15 48.5t-52 10.5q-55 0 -211 -11v99q50 21 103.5 29t132.5 8q102 0 154 -39t52 -138v-364h-130l-34 56q-8 -17 -48 -40t-91 -22q-78 3 -117.5 46.5t-39.5 98.5z M190 164q0 -15 4 -24.5t11.5 -13.5t14 -5t17.5 -1q14 0 28 4t24 9.5t17.5 11t11.5 9.5l4 4v81l-94 -8q-38 -3 -38 -50v-17z" />
<glyph unicode="&#xe2;" horiz-adv-x="519" d="M110 601l104 137h116l94 -137h-101l-55 56l-56 -56h-102zM26 139v46q0 65 39 107.5t125 42.5q132 -1 132 0q1 21 0 22q0 38 -15 48.5t-52 10.5q-55 0 -211 -11v99q50 21 103.5 29t132.5 8q102 0 154 -39t52 -138v-364h-130l-34 56q-8 -17 -48 -40t-91 -22 q-78 3 -117.5 46.5t-39.5 98.5zM190 164q0 -15 4 -24.5t11.5 -13.5t14 -5t17.5 -1q14 0 28 4t24 9.5t17.5 11t11.5 9.5l4 4v81l-94 -8q-38 -3 -38 -50v-17z" />
<glyph unicode="&#xe3;" horiz-adv-x="519" d="M93 662q58 71 121 71q24 0 56.5 -17.5t50.5 -17.5q45 -2 92 39l25 -66q-56 -70 -112 -70q-24 1 -60 18t-54 17q-28 0 -46.5 -8t-47.5 -27zM26 139v46q0 65 39 107.5t125 42.5q132 -1 132 0q1 21 0 22q0 38 -15 48.5t-52 10.5q-55 0 -211 -11v99q50 21 103.5 29t132.5 8 q102 0 154 -39t52 -138v-364h-130l-34 56q-8 -17 -48 -40t-91 -22q-78 3 -117.5 46.5t-39.5 98.5zM190 164q0 -15 4 -24.5t11.5 -13.5t14 -5t17.5 -1q14 0 28 4t24 9.5t17.5 11t11.5 9.5l4 4v81l-94 -8q-38 -3 -38 -50v-17z" />
<glyph unicode="&#xe4;" horiz-adv-x="519" d="M77 663.5q0 25.5 18.5 43.5t44 18t43.5 -18t18 -43.5t-18 -44t-43.5 -18.5t-44 18.5t-18.5 44zM332 663.5q0 25.5 18.5 43.5t44 18t43.5 -18t18 -43.5t-18 -44t-43.5 -18.5t-44 18.5t-18.5 44zM26 139v46q0 65 39 107.5t125 42.5q132 -1 132 0q1 21 0 22q0 38 -15 48.5 t-52 10.5q-55 0 -211 -11v99q50 21 103.5 29t132.5 8q102 0 154 -39t52 -138v-364h-130l-34 56q-8 -17 -48 -40t-91 -22q-78 3 -117.5 46.5t-39.5 98.5zM190 164q0 -15 4 -24.5t11.5 -13.5t14 -5t17.5 -1q14 0 28 4t24 9.5t17.5 11t11.5 9.5l4 4v81l-94 -8q-38 -3 -38 -50 v-17z" />
<glyph unicode="&#xe5;" horiz-adv-x="519" d="M167 696q0 28 13.5 51.5t37 37t51.5 13.5q42 0 71.5 -30t29.5 -72q0 -29 -13.5 -52t-37 -36.5t-50.5 -13.5q-21 0 -40 7.5t-32.5 21.5t-21.5 33t-8 40zM229 695.5q0 -16.5 11.5 -27.5t28 -11t27.5 11t11 27.5t-11 28t-27.5 11.5t-28 -11.5t-11.5 -28zM26 139v46 q0 65 39 107.5t125 42.5q132 -1 132 0q1 21 0 22q0 38 -15 48.5t-52 10.5q-55 0 -211 -11v99q50 21 103.5 29t132.5 8q102 0 154 -39t52 -138v-364h-130l-34 56q-8 -17 -48 -40t-91 -22q-78 3 -117.5 46.5t-39.5 98.5zM190 164q0 -15 4 -24.5t11.5 -13.5t14 -5t17.5 -1 q14 0 28 4t24 9.5t17.5 11t11.5 9.5l4 4v81l-94 -8q-38 -3 -38 -50v-17z" />
<glyph unicode="&#xe6;" horiz-adv-x="832" d="M26 140v34q0 23 5 44.5t17 41t30.5 33.5t47 22.5t64.5 8.5q132 -1 132 0q1 34 0 34q0 39 -15 49.5t-52 10.5q-39 0 -211 -12v99q49 22 102.5 29.5t133.5 7.5q103 -2 144 -36q30 18 64 24t84 6q54 0 88.5 -3.5t64.5 -14.5t46.5 -32t25.5 -54t9 -82q0 -37 -10 -62.5 t-30.5 -40t-47.5 -21t-64 -6.5h-149q0 -59 27 -78.5t89 -19.5q65 0 94 1.5t81 9.5v-109q-33 -13 -91.5 -20t-89.5 -7.5t-99 -0.5q-52 0 -85.5 17t-56.5 52q-10 -23 -74.5 -47t-116.5 -22q-78 2 -117.5 45.5t-39.5 98.5zM190 162q0 -15 3.5 -23.5t10.5 -12t12.5 -4t16.5 -0.5 h4q14 0 28 4t24 9.5t17.5 11t11.5 9.5l4 4v69l-94 -8q-38 -3 -38 -50v-9zM505 324h99q18 0 28 9.5t10 26.5q0 21 -1.5 31.5t-8.5 17t-17 8t-32 1.5h-6q-25 0 -35 -1.5t-21 -10.5t-13.5 -28t-2.5 -54z" />
<glyph unicode="&#xe7;" horiz-adv-x="492" d="M34 266q0 53 5.5 94.5t17 71t26.5 50t35 32.5t42 17t48 5q157 0 251 -34v-98q-80 6 -169 6q-20 0 -30 -1t-23 -5t-18.5 -13t-11.5 -25t-7.5 -41t-1.5 -61q0 -40 3 -65t8.5 -41.5t17.5 -24t25.5 -10t37.5 -2.5q41 0 85 2t68 5l23 2v-100q-22 -13 -46.5 -21t-54.5 -11 t-50 -3.5t-56.5 0t-50.5 -0.5q-39 0 -69 13t-54.5 42.5t-37.5 84t-13 132.5zM152 -113l41 15q20 9 24.5 19.5t4.5 40.5h104q0 -78 -25 -110.5t-91 -32.5h-58v68z" />
<glyph unicode="&#xe8;" horiz-adv-x="525" d="M103 736h133l84 -140h-99zM34 268q0 85 11.5 137t41 81t70.5 39t109 10q45 0 74.5 -2.5t58 -9.5t45.5 -20t30.5 -34.5t18.5 -53t5 -75.5q0 -38 -10 -64.5t-30 -42.5t-47.5 -23.5t-64.5 -7.5h-148q0 -17 2.5 -30t6 -21.5t12 -14.5t14.5 -9t20.5 -4.5t23.5 -1.5h28h9h64.5 t46 2.5t63.5 8.5v-109q-33 -14 -91.5 -20.5t-89.5 -7t-99 -0.5q-98 0 -136 63t-38 210zM198 313h99q12 0 20.5 4.5t12.5 12.5t4 19q0 22 -1.5 33.5t-7.5 20t-17.5 11t-31.5 2.5q-25 0 -38 -2.5t-23.5 -12.5t-14 -30.5t-2.5 -57.5z" />
<glyph unicode="&#xe9;" horiz-adv-x="525" d="M219 596l84 140h133l-118 -140h-99zM34 268q0 85 11.5 137t41 81t70.5 39t109 10q45 0 74.5 -2.5t58 -9.5t45.5 -20t30.5 -34.5t18.5 -53t5 -75.5q0 -38 -10 -64.5t-30 -42.5t-47.5 -23.5t-64.5 -7.5h-148q0 -17 2.5 -30t6 -21.5t12 -14.5t14.5 -9t20.5 -4.5t23.5 -1.5 h28h9h64.5t46 2.5t63.5 8.5v-109q-33 -14 -91.5 -20.5t-89.5 -7t-99 -0.5q-98 0 -136 63t-38 210zM198 313h99q12 0 20.5 4.5t12.5 12.5t4 19q0 22 -1.5 33.5t-7.5 20t-17.5 11t-31.5 2.5q-25 0 -38 -2.5t-23.5 -12.5t-14 -30.5t-2.5 -57.5z" />
<glyph unicode="&#xea;" horiz-adv-x="525" d="M106 596l104 138h116l95 -138h-101l-55 56l-57 -56h-102zM34 268q0 85 11.5 137t41 81t70.5 39t109 10q45 0 74.5 -2.5t58 -9.5t45.5 -20t30.5 -34.5t18.5 -53t5 -75.5q0 -38 -10 -64.5t-30 -42.5t-47.5 -23.5t-64.5 -7.5h-148q0 -17 2.5 -30t6 -21.5t12 -14.5t14.5 -9 t20.5 -4.5t23.5 -1.5h28h9h64.5t46 2.5t63.5 8.5v-109q-33 -14 -91.5 -20.5t-89.5 -7t-99 -0.5q-98 0 -136 63t-38 210zM198 313h99q12 0 20.5 4.5t12.5 12.5t4 19q0 22 -1.5 33.5t-7.5 20t-17.5 11t-31.5 2.5q-25 0 -38 -2.5t-23.5 -12.5t-14 -30.5t-2.5 -57.5z" />
<glyph unicode="&#xeb;" horiz-adv-x="525" d="M74 658.5q0 25.5 18 43.5t43.5 18t43.5 -18t18 -43.5t-18 -44t-43.5 -18.5t-43.5 18.5t-18 44zM328 658.5q0 25.5 18.5 43.5t44 18t43.5 -18t18 -43.5t-18 -44t-43.5 -18.5t-44 18.5t-18.5 44zM34 268q0 85 11.5 137t41 81t70.5 39t109 10q45 0 74.5 -2.5t58 -9.5 t45.5 -20t30.5 -34.5t18.5 -53t5 -75.5q0 -38 -10 -64.5t-30 -42.5t-47.5 -23.5t-64.5 -7.5h-148q0 -17 2.5 -30t6 -21.5t12 -14.5t14.5 -9t20.5 -4.5t23.5 -1.5h28h9h64.5t46 2.5t63.5 8.5v-109q-33 -14 -91.5 -20.5t-89.5 -7t-99 -0.5q-98 0 -136 63t-38 210zM198 313h99 q12 0 20.5 4.5t12.5 12.5t4 19q0 22 -1.5 33.5t-7.5 20t-17.5 11t-31.5 2.5q-25 0 -38 -2.5t-23.5 -12.5t-14 -30.5t-2.5 -57.5z" />
<glyph unicode="&#xec;" horiz-adv-x="244" d="M-45 736h133l84 -140h-99zM40 0v531h164v-531h-164z" />
<glyph unicode="&#xed;" horiz-adv-x="244" d="M73 596l85 140h132l-118 -140h-99zM40 0v531h164v-531h-164z" />
<glyph unicode="&#xee;" horiz-adv-x="244" d="M-35 596l105 138h116l94 -138h-101l-55 56l-57 -56h-102zM40 0v531h164v-531h-164z" />
<glyph unicode="&#xef;" horiz-adv-x="244" d="M-67 658.5q0 25.5 18.5 43.5t44 18t43.5 -18t18 -43.5t-18 -44t-43.5 -18.5t-44 18.5t-18.5 44zM188 658.5q0 25.5 18.5 43.5t44 18t43.5 -18t18 -43.5t-18 -44t-43.5 -18.5t-44 18.5t-18.5 44zM40 0v531h164v-531h-164z" />
<glyph unicode="&#xf0;" horiz-adv-x="541" d="M26 264q0 131 46 199t144 68h40q60 0 78 -7q-15 52 -52 84l-102 -52l-30 56l59 30q-42 11 -124 8v133q177 0 273 -61l83 42l31 -57l-59 -29q59 -65 80 -167t21 -247q0 -264 -190 -264h-108q-101 0 -145.5 64t-44.5 200zM190 264q0 -72 11.5 -92.5t46.5 -20.5h46 q37 0 46.5 21.5t9.5 91.5q0 78 -9 98t-47 20h-46q-22 0 -34 -8.5t-18 -34t-6 -75.5z" />
<glyph unicode="&#xf1;" d="M107 660q59 72 122 72q24 0 56.5 -17.5t49.5 -17.5q46 -2 93 39l25 -66q-56 -70 -113 -70q-24 1 -59.5 18t-54.5 17q-27 0 -45.5 -8t-47.5 -27zM40 0v531h135l29 -55q28 22 43 32.5t46.5 21t69.5 10.5q47 0 79 -14.5t48.5 -42.5t23 -60t6.5 -75v-348h-164v350q0 24 -6 38 t-16 20t-26 6q-35 0 -58.5 -10t-45.5 -32v-372h-164z" />
<glyph unicode="&#xf2;" horiz-adv-x="557" d="M114 736h132l85 -140h-99zM34 258q0 109 24 169t75.5 84.5t145.5 24.5q138 0 191.5 -60t53.5 -218q0 -149 -52.5 -206t-192.5 -57q-137 0 -191 59.5t-54 203.5zM198 258q0 -62 7.5 -90.5t23 -37t50.5 -8.5q23 0 35 2t22.5 8.5t15 22.5t6.5 39.5t2 63.5q0 43 -2 67.5 t-6 43t-14 26.5t-23 11.5t-36 3.5q-20 0 -31.5 -2t-21.5 -8.5t-15 -15.5t-8.5 -27.5t-4 -40.5t-0.5 -58z" />
<glyph unicode="&#xf3;" horiz-adv-x="557" d="M229 596l85 140h132l-118 -140h-99zM34 258q0 109 24 169t75.5 84.5t145.5 24.5q138 0 191.5 -60t53.5 -218q0 -149 -52.5 -206t-192.5 -57q-137 0 -191 59.5t-54 203.5zM198 258q0 -62 7.5 -90.5t23 -37t50.5 -8.5q23 0 35 2t22.5 8.5t15 22.5t6.5 39.5t2 63.5 q0 43 -2 67.5t-6 43t-14 26.5t-23 11.5t-36 3.5q-20 0 -31.5 -2t-21.5 -8.5t-15 -15.5t-8.5 -27.5t-4 -40.5t-0.5 -58z" />
<glyph unicode="&#xf4;" horiz-adv-x="557" d="M123 596l104 138h116l94 -138h-101l-54 56l-57 -56h-102zM34 258q0 109 24 169t75.5 84.5t145.5 24.5q138 0 191.5 -60t53.5 -218q0 -149 -52.5 -206t-192.5 -57q-137 0 -191 59.5t-54 203.5zM198 258q0 -62 7.5 -90.5t23 -37t50.5 -8.5q23 0 35 2t22.5 8.5t15 22.5 t6.5 39.5t2 63.5q0 43 -2 67.5t-6 43t-14 26.5t-23 11.5t-36 3.5q-20 0 -31.5 -2t-21.5 -8.5t-15 -15.5t-8.5 -27.5t-4 -40.5t-0.5 -58z" />
<glyph unicode="&#xf5;" horiz-adv-x="557" d="M108 656q59 72 122 72q24 0 56.5 -17.5t49.5 -17.5q46 -2 93 39l25 -66q-56 -70 -113 -70q-24 1 -59.5 18t-54.5 17q-27 0 -45.5 -8t-47.5 -27zM34 258q0 109 24 169t75.5 84.5t145.5 24.5q138 0 191.5 -60t53.5 -218q0 -149 -52.5 -206t-192.5 -57q-137 0 -191 59.5 t-54 203.5zM198 258q0 -62 7.5 -90.5t23 -37t50.5 -8.5q23 0 35 2t22.5 8.5t15 22.5t6.5 39.5t2 63.5q0 43 -2 67.5t-6 43t-14 26.5t-23 11.5t-36 3.5q-20 0 -31.5 -2t-21.5 -8.5t-15 -15.5t-8.5 -27.5t-4 -40.5t-0.5 -58z" />
<glyph unicode="&#xf6;" horiz-adv-x="557" d="M90 658q0 17 8.5 31t22.5 22.5t31 8.5q26 0 43.5 -18t17.5 -43.5t-18 -44t-43.5 -18.5t-43.5 18.5t-18 43.5zM345 658.5q0 25.5 18 43.5t43.5 18t43.5 -18t18 -43.5t-18 -44t-43 -18.5t-43.5 18.5t-18.5 44zM34 258q0 109 24 169t75.5 84.5t145.5 24.5q138 0 191.5 -60 t53.5 -218q0 -149 -52.5 -206t-192.5 -57q-137 0 -191 59.5t-54 203.5zM198 258q0 -62 7.5 -90.5t23 -37t50.5 -8.5q23 0 35 2t22.5 8.5t15 22.5t6.5 39.5t2 63.5q0 43 -2 67.5t-6 43t-14 26.5t-23 11.5t-36 3.5q-20 0 -31.5 -2t-21.5 -8.5t-15 -15.5t-8.5 -27.5t-4 -40.5 t-0.5 -58z" />
<glyph unicode="&#xf7;" horiz-adv-x="491" d="M34 286v134h424v-134h-424zM177 148v72q0 24 24 24h82q25 0 25 -24v-72q0 -23 -25 -23h-82q-11 0 -17.5 6.5t-6.5 16.5zM177 480v72q0 24 24 24h82q25 0 25 -24v-72q0 -23 -25 -23h-82q-5 0 -9.5 2t-8 4.5t-5 7t-1.5 9.5z" />
<glyph unicode="&#xf8;" horiz-adv-x="586" d="M48 258q0 109 24.5 169t76 84.5t145.5 24.5q102 0 154 -30l20 25h82l-55 -67q44 -60 44 -206q0 -149 -52.5 -206t-192.5 -57q-104 0 -158 32l-22 -27h-80l56 69q-42 59 -42 189zM212 258q0 -24 6 -37l135 171q-14 18 -59 18q-20 0 -31.5 -2t-21.5 -8.5t-15 -15.5 t-8.5 -27.5t-4.5 -40.5t-1 -58zM232 142q8 -12 22 -16t40 -4q23 0 35 2t22.5 8.5t15 22.5t6.5 39.5t2 63.5q0 38 -6 56z" />
<glyph unicode="&#xf9;" d="M108 736h132l85 -140h-99zM34 184v347h164v-351q0 -23 5.5 -37t15.5 -19.5t26 -5.5q35 0 58.5 9.5t44.5 32.5v371h164v-531h-134l-30 54q-10 -6 -27 -17.5t-27.5 -18t-26.5 -13.5t-35 -10.5t-42 -3.5q-47 0 -79 14.5t-48.5 42.5t-22.5 60t-6 76z" />
<glyph unicode="&#xfa;" d="M224 596l84 140h132l-118 -140h-98zM34 184v347h164v-351q0 -23 5.5 -37t15.5 -19.5t26 -5.5q35 0 58.5 9.5t44.5 32.5v371h164v-531h-134l-30 54q-10 -6 -27 -17.5t-27.5 -18t-26.5 -13.5t-35 -10.5t-42 -3.5q-47 0 -79 14.5t-48.5 42.5t-22.5 60t-6 76z" />
<glyph unicode="&#xfb;" d="M116 596l104 138h116l94 -138h-101l-54 56l-57 -56h-102zM34 184v347h164v-351q0 -23 5.5 -37t15.5 -19.5t26 -5.5q35 0 58.5 9.5t44.5 32.5v371h164v-531h-134l-30 54q-10 -6 -27 -17.5t-27.5 -18t-26.5 -13.5t-35 -10.5t-42 -3.5q-47 0 -79 14.5t-48.5 42.5t-22.5 60 t-6 76z" />
<glyph unicode="&#xfc;" d="M84 658.5q0 25.5 18 43.5t44 18t43.5 -18t17.5 -43.5t-18 -44t-43.5 -18.5t-43.5 18.5t-18 44zM339 658.5q0 25.5 18 43.5t43.5 18t43.5 -18t18 -43.5t-18 -44t-43 -18.5t-43.5 18.5t-18.5 44zM34 184v347h164v-351q0 -23 5.5 -37t15.5 -19.5t26 -5.5q35 0 58.5 9.5 t44.5 32.5v371h164v-531h-134l-30 54q-10 -6 -27 -17.5t-27.5 -18t-26.5 -13.5t-35 -10.5t-42 -3.5q-47 0 -79 14.5t-48.5 42.5t-22.5 60t-6 76z" />
<glyph unicode="&#xfd;" horiz-adv-x="587" d="M243 596l84 140h133l-118 -140h-99zM14 531h171l78 -356q9 -36 49 -39l90 395h168l-166 -699l-72 -102h-119l68 270q-136 0 -172 144z" />
<glyph unicode="&#xfe;" horiz-adv-x="557" d="M47 -270v1052h164v-308q71 58 147 58q90 0 131 -67t41 -203q0 -51 -3.5 -90t-14.5 -75.5t-30 -59.5t-50 -37t-74 -14q-85 0 -147 36v-292h-164zM211 126q32 -15 97 -17q20 0 32 10t19 43t7 94q0 80 -14 110t-44 30q-64 -1 -97 -29v-241z" />
<glyph unicode="&#xff;" horiz-adv-x="587" d="M103 658q0 17 8.5 31t22.5 22.5t31 8.5q26 0 43.5 -18t17.5 -43.5t-17.5 -44t-43 -18.5t-44 18.5t-18.5 43.5zM358 658.5q0 25.5 18.5 43.5t44 18t43.5 -18t18 -43.5t-18 -44t-43.5 -18.5t-44 18.5t-18.5 44zM14 531h171l78 -356q9 -36 49 -39l90 395h168l-166 -699 l-72 -102h-119l68 270q-136 0 -172 144z" />
<glyph unicode="&#x100;" horiz-adv-x="700" d="M218 797v85h292v-85h-292zM30 0l239 732h190l231 -732h-171l-48 147h-221l-48 -147h-172zM290 289h145l-69 233z" />
<glyph unicode="&#x101;" horiz-adv-x="519" d="M123 601v85h292v-85h-292zM26 139v46q0 65 39 107.5t125 42.5q132 -1 132 0q1 21 0 22q0 38 -15 48.5t-52 10.5q-55 0 -211 -11v99q50 21 103.5 29t132.5 8q102 0 154 -39t52 -138v-364h-130l-34 56q-8 -17 -48 -40t-91 -22q-78 3 -117.5 46.5t-39.5 98.5zM190 164 q0 -15 4 -24.5t11.5 -13.5t14 -5t17.5 -1q14 0 28 4t24 9.5t17.5 11t11.5 9.5l4 4v81l-94 -8q-38 -3 -38 -50v-17z" />
<glyph unicode="&#x102;" horiz-adv-x="700" d="M249 911h62q0 -24 14 -38t38 -14q54 0 54 52h62q0 -34 -15 -60t-41 -40t-60 -14q-50 0 -82 31.5t-32 82.5zM30 0l239 732h190l231 -732h-171l-48 147h-221l-48 -147h-172zM290 289h145l-69 233z" />
<glyph unicode="&#x103;" horiz-adv-x="519" d="M154 715h62q0 -24 14 -38t38 -14q54 0 54 52h62q0 -34 -15 -60t-41 -40t-60 -14q-50 0 -82 31.5t-32 82.5zM26 139v46q0 65 39 107.5t125 42.5q132 -1 132 0q1 21 0 22q0 38 -15 48.5t-52 10.5q-55 0 -211 -11v99q50 21 103.5 29t132.5 8q102 0 154 -39t52 -138v-364 h-130l-34 56q-8 -17 -48 -40t-91 -22q-78 3 -117.5 46.5t-39.5 98.5zM190 164q0 -15 4 -24.5t11.5 -13.5t14 -5t17.5 -1q14 0 28 4t24 9.5t17.5 11t11.5 9.5l4 4v81l-94 -8q-38 -3 -38 -50v-17z" />
<glyph unicode="&#x104;" horiz-adv-x="700" d="M577 1h62q-23 -16 -34 -33t-10 -30t8 -23.5t19.5 -15.5t26.5 -4v-82q-21 -6 -43.5 -3.5t-40 14.5t-31.5 27t-19 35t-2.5 40t19.5 40t45 35zM30 0l239 732h190l231 -732h-171l-48 147h-221l-48 -147h-172zM290 289h145l-69 233z" />
<glyph unicode="&#x105;" horiz-adv-x="519" d="M394 0h61q-22 -16 -33 -33t-10.5 -30t7.5 -23.5t20 -15.5t27 -4v-82q-22 -6 -44.5 -3t-40 14.5t-31.5 26.5t-19 35.5t-2 40t19.5 39.5t45.5 35zM26 139v46q0 65 39 107.5t125 42.5q132 -1 132 0q1 21 0 22q0 38 -15 48.5t-52 10.5q-55 0 -211 -11v99q50 21 103.5 29 t132.5 8q102 0 154 -39t52 -138v-364h-130l-34 56q-8 -17 -48 -40t-91 -22q-78 3 -117.5 46.5t-39.5 98.5zM190 164q0 -15 4 -24.5t11.5 -13.5t14 -5t17.5 -1q14 0 28 4t24 9.5t17.5 11t11.5 9.5l4 4v81l-94 -8q-38 -3 -38 -50v-17z" />
<glyph unicode="&#x106;" horiz-adv-x="569" d="M283 800l85 140h132l-118 -140h-99zM37 368q0 92 11.5 157.5t39 115.5t77.5 74.5t123 24.5q89 0 142.5 -7.5t116.5 -28.5v-128l-7 0.5t-19 2t-27.5 3t-35 3.5t-39.5 3t-43 2t-43 1q-23 0 -37 -1.5t-30 -6t-25 -14t-17.5 -25.5t-13 -40t-7 -58t-2.5 -80q0 -127 26.5 -175 t106.5 -48q46 0 99.5 2t83.5 4l30 3v-128q-92 -33 -259 -30q-69 1 -117.5 25.5t-77.5 73.5t-42.5 116t-13.5 159z" />
<glyph unicode="&#x107;" horiz-adv-x="492" d="M227 597l85 140h132l-118 -140h-99zM34 266q0 78 12.5 132t37 83.5t54.5 42t70 12.5q158 0 251 -34v-98q-80 6 -169 6q-17 0 -26 -1t-21 -3.5t-17.5 -8t-12 -15.5t-9.5 -26t-4.5 -38.5t-1.5 -53.5q0 -50 3.5 -77.5t15.5 -42.5t27.5 -18.5t45.5 -3.5q41 0 85 2t68 4l23 2 v-99q-22 -13 -46.5 -21t-54.5 -11t-50 -4t-56.5 -0.5t-50.5 0.5q-39 0 -69 12.5t-54.5 42t-37.5 84t-13 132.5z" />
<glyph unicode="&#x108;" horiz-adv-x="569" d="M174 800l104 138h116l94 -138h-100l-55 56l-57 -56h-102zM37 368q0 92 11.5 157.5t39 115.5t77.5 74.5t123 24.5q89 0 142.5 -7.5t116.5 -28.5v-128l-7 0.5t-19 2t-27.5 3t-35 3.5t-39.5 3t-43 2t-43 1q-23 0 -37 -1.5t-30 -6t-25 -14t-17.5 -25.5t-13 -40t-7 -58 t-2.5 -80q0 -127 26.5 -175t106.5 -48q46 0 99.5 2t83.5 4l30 3v-128q-92 -33 -259 -30q-69 1 -117.5 25.5t-77.5 73.5t-42.5 116t-13.5 159z" />
<glyph unicode="&#x109;" horiz-adv-x="492" d="M108 596l104 138h116l94 -138h-101l-54 56l-57 -56h-102zM34 266q0 78 12.5 132t37 83.5t54.5 42t70 12.5q158 0 251 -34v-98q-80 6 -169 6q-17 0 -26 -1t-21 -3.5t-17.5 -8t-12 -15.5t-9.5 -26t-4.5 -38.5t-1.5 -53.5q0 -50 3.5 -77.5t15.5 -42.5t27.5 -18.5t45.5 -3.5 q41 0 85 2t68 4l23 2v-99q-22 -13 -46.5 -21t-54.5 -11t-50 -4t-56.5 -0.5t-50.5 0.5q-39 0 -69 12.5t-54.5 42t-37.5 84t-13 132.5z" />
<glyph unicode="&#x10a;" horiz-adv-x="569" d="M264 824v84q0 24 24 24h80q11 0 17.5 -7t6.5 -17v-84q0 -24 -24 -24h-80q-10 0 -17 6.5t-7 17.5zM37 368q0 92 11.5 157.5t39 115.5t77.5 74.5t123 24.5q89 0 142.5 -7.5t116.5 -28.5v-128l-7 0.5t-19 2t-27.5 3t-35 3.5t-39.5 3t-43 2t-43 1q-23 0 -37 -1.5t-30 -6 t-25 -14t-17.5 -25.5t-13 -40t-7 -58t-2.5 -80q0 -127 26.5 -175t106.5 -48q46 0 99.5 2t83.5 4l30 3v-128q-92 -33 -259 -30q-69 1 -117.5 25.5t-77.5 73.5t-42.5 116t-13.5 159z" />
<glyph unicode="&#x10b;" horiz-adv-x="492" d="M217 620v84q0 25 24 25h80q11 0 17 -7t6 -18v-84q0 -23 -23 -23h-80q-10 0 -17 6.5t-7 16.5zM34 266q0 78 12.5 132t37 83.5t54.5 42t70 12.5q158 0 251 -34v-98q-80 6 -169 6q-17 0 -26 -1t-21 -3.5t-17.5 -8t-12 -15.5t-9.5 -26t-4.5 -38.5t-1.5 -53.5q0 -50 3.5 -77.5 t15.5 -42.5t27.5 -18.5t45.5 -3.5q41 0 85 2t68 4l23 2v-99q-22 -13 -46.5 -21t-54.5 -11t-50 -4t-56.5 -0.5t-50.5 0.5q-39 0 -69 12.5t-54.5 42t-37.5 84t-13 132.5z" />
<glyph unicode="&#x10c;" horiz-adv-x="569" d="M183 938h101l57 -56l55 56h101l-101 -138h-116zM37 368q0 92 11.5 157.5t39 115.5t77.5 74.5t123 24.5q89 0 142.5 -7.5t116.5 -28.5v-128l-7 0.5t-19 2t-27.5 3t-35 3.5t-39.5 3t-43 2t-43 1q-23 0 -37 -1.5t-30 -6t-25 -14t-17.5 -25.5t-13 -40t-7 -58t-2.5 -80 q0 -127 26.5 -175t106.5 -48q46 0 99.5 2t83.5 4l30 3v-128q-92 -33 -259 -30q-69 1 -117.5 25.5t-77.5 73.5t-42.5 116t-13.5 159z" />
<glyph unicode="&#x10d;" horiz-adv-x="492" d="M115 734h101l57 -56l54 56h102l-101 -137h-116zM34 266q0 78 12.5 132t37 83.5t54.5 42t70 12.5q158 0 251 -34v-98q-80 6 -169 6q-17 0 -26 -1t-21 -3.5t-17.5 -8t-12 -15.5t-9.5 -26t-4.5 -38.5t-1.5 -53.5q0 -50 3.5 -77.5t15.5 -42.5t27.5 -18.5t45.5 -3.5q41 0 85 2 t68 4l23 2v-99q-22 -13 -46.5 -21t-54.5 -11t-50 -4t-56.5 -0.5t-50.5 0.5q-39 0 -69 12.5t-54.5 42t-37.5 84t-13 132.5z" />
<glyph unicode="&#x10e;" horiz-adv-x="664" d="M161 933h101l57 -56l55 56h101l-101 -137h-116zM54 0v732h325q60 0 105 -20.5t72.5 -53.5t44.5 -82t23.5 -100t6.5 -113q0 -363 -252 -363h-325zM218 142h146q55 0 79 55t24 167q0 92 -13 143t-34 67t-56 16h-146v-448z" />
<glyph unicode="&#x10f;" horiz-adv-x="627" d="M34 263q0 58 3.5 99t14.5 76.5t30.5 56.5t50 32.5t73.5 11.5q81 0 148 -33v279h164v-785h-138l-26 52q-69 -58 -148 -58q-92 0 -132 65t-40 204zM198 270q0 -81 13.5 -110.5t44.5 -29.5q66 0 98 28v240q-34 18 -98 18q-21 0 -32.5 -9.5t-18.5 -42.5t-7 -94zM570 782h104 v-68l-10 -134h-84l-10 134v68z" />
<glyph unicode="&#x110;" horiz-adv-x="664" d="M-11 338v70h65v324h325q60 0 105 -20.5t72.5 -53.5t44.5 -82t23.5 -100t6.5 -113q0 -363 -252 -363h-325v338h-65zM218 142h146q55 0 78.5 55t23.5 167q0 69 -7 114.5t-21 69t-31.5 32.5t-42.5 9h-146v-181h101v-70h-101v-196z" />
<glyph unicode="&#x111;" horiz-adv-x="567" d="M29 263q0 58 4 99t15 76.5t30 56.5t49.5 32.5t74.5 11.5q80 0 148 -33v95h-101v69h101v115h164v-115h62v-69h-62v-601h-138l-26 52q-70 -58 -148 -58q-93 0 -133 65t-40 204zM193 270q0 -81 14 -110.5t44 -29.5q67 0 99 28v240q-35 18 -99 18q-20 0 -31.5 -9.5t-19 -42.5 t-7.5 -94z" />
<glyph unicode="&#x112;" horiz-adv-x="567" d="M163 796v86h292v-86h-292zM50 152v420q0 39 11.5 69t28.5 47t41 27.5t45 13.5t45 3q237 -4 324 -16v-137h-279q-19 0 -30 -4t-15.5 -14t-5.5 -17t-1 -21v-83l284 -10v-136l-284 -9v-83q0 -19 5 -30.5t16 -16t18.5 -5t22.5 -0.5h269v-136q-21 -3 -61.5 -6t-82.5 -4.5 t-81 -3.5t-64 -2l-25 -1q-23 -1 -44 1t-47.5 11t-45 25t-31.5 46.5t-13 71.5z" />
<glyph unicode="&#x113;" horiz-adv-x="525" d="M125 596v85h292v-85h-292zM34 268q0 85 11.5 137t41 81t70.5 39t109 10q45 0 74.5 -2.5t58 -9.5t45.5 -20t30.5 -34.5t18.5 -53t5 -75.5q0 -38 -10 -64.5t-30 -42.5t-47.5 -23.5t-64.5 -7.5h-148q0 -17 2.5 -30t6 -21.5t12 -14.5t14.5 -9t20.5 -4.5t23.5 -1.5h28h9h64.5 t46 2.5t63.5 8.5v-109q-33 -14 -91.5 -20.5t-89.5 -7t-99 -0.5q-98 0 -136 63t-38 210zM198 313h99q12 0 20.5 4.5t12.5 12.5t4 19q0 22 -1.5 33.5t-7.5 20t-17.5 11t-31.5 2.5q-25 0 -38 -2.5t-23.5 -12.5t-14 -30.5t-2.5 -57.5z" />
<glyph unicode="&#x116;" horiz-adv-x="567" d="M263 819v84q0 25 24 25h80q11 0 17 -7t6 -18v-84q0 -23 -23 -23h-80q-11 0 -17.5 6.5t-6.5 16.5zM50 152v420q0 39 11.5 69t28.5 47t41 27.5t45 13.5t45 3q237 -4 324 -16v-137h-279q-19 0 -30 -4t-15.5 -14t-5.5 -17t-1 -21v-83l284 -10v-136l-284 -9v-83q0 -19 5 -30.5 t16 -16t18.5 -5t22.5 -0.5h269v-136q-21 -3 -61.5 -6t-82.5 -4.5t-81 -3.5t-64 -2l-25 -1q-23 -1 -44 1t-47.5 11t-45 25t-31.5 46.5t-13 71.5z" />
<glyph unicode="&#x117;" horiz-adv-x="525" d="M207 619v84q0 25 24 25h80q11 0 17 -7t6 -18v-84q0 -23 -23 -23h-80q-10 0 -17 6.5t-7 16.5zM34 268q0 85 11.5 137t41 81t70.5 39t109 10q45 0 74.5 -2.5t58 -9.5t45.5 -20t30.5 -34.5t18.5 -53t5 -75.5q0 -38 -10 -64.5t-30 -42.5t-47.5 -23.5t-64.5 -7.5h-148 q0 -17 2.5 -30t6 -21.5t12 -14.5t14.5 -9t20.5 -4.5t23.5 -1.5h28h9h64.5t46 2.5t63.5 8.5v-109q-33 -14 -91.5 -20.5t-89.5 -7t-99 -0.5q-98 0 -136 63t-38 210zM198 313h99q12 0 20.5 4.5t12.5 12.5t4 19q0 22 -1.5 33.5t-7.5 20t-17.5 11t-31.5 2.5q-25 0 -38 -2.5 t-23.5 -12.5t-14 -30.5t-2.5 -57.5z" />
<glyph unicode="&#x118;" horiz-adv-x="567" d="M484 15h61q-22 -17 -33 -33.5t-10.5 -30t7.5 -23.5t20 -15.5t27 -3.5v-83q-22 -5 -44.5 -2.5t-40 14t-31.5 27t-19 35.5t-2 39.5t19.5 39.5t45.5 36zM50 152v420q0 39 11.5 69t28.5 47t41 27.5t45 13.5t45 3q237 -4 324 -16v-137h-279q-19 0 -30 -4t-15.5 -14t-5.5 -17 t-1 -21v-83l284 -10v-136l-284 -9v-83q0 -19 5 -30.5t16 -16t18.5 -5t22.5 -0.5h269v-136q-21 -3 -61.5 -6t-82.5 -4.5t-81 -3.5t-64 -2l-25 -1q-23 -1 -44 1t-47.5 11t-45 25t-31.5 46.5t-13 71.5z" />
<glyph unicode="&#x119;" horiz-adv-x="525" d="M427 23h61q-22 -16 -33 -33t-10.5 -30t8 -23.5t20 -15.5t26.5 -4v-83q-21 -5 -43.5 -2.5t-40 14.5t-32 27t-19.5 35t-2 39.5t19.5 40t45.5 35.5zM34 268q0 85 11.5 137t41 81t70.5 39t109 10q45 0 74.5 -2.5t58 -9.5t45.5 -20t30.5 -34.5t18.5 -53t5 -75.5 q0 -38 -10 -64.5t-30 -42.5t-47.5 -23.5t-64.5 -7.5h-148q0 -17 2.5 -30t6 -21.5t12 -14.5t14.5 -9t20.5 -4.5t23.5 -1.5h28h9h64.5t46 2.5t63.5 8.5v-109q-33 -14 -91.5 -20.5t-89.5 -7t-99 -0.5q-98 0 -136 63t-38 210zM198 313h99q12 0 20.5 4.5t12.5 12.5t4 19 q0 22 -1.5 33.5t-7.5 20t-17.5 11t-31.5 2.5q-25 0 -38 -2.5t-23.5 -12.5t-14 -30.5t-2.5 -57.5z" />
<glyph unicode="&#x11a;" horiz-adv-x="567" d="M164 933h101l57 -56l54 56h102l-101 -137h-116zM50 152v420q0 39 11.5 69t28.5 47t41 27.5t45 13.5t45 3q237 -4 324 -16v-137h-279q-19 0 -30 -4t-15.5 -14t-5.5 -17t-1 -21v-83l284 -10v-136l-284 -9v-83q0 -19 5 -30.5t16 -16t18.5 -5t22.5 -0.5h269v-136 q-21 -3 -61.5 -6t-82.5 -4.5t-81 -3.5t-64 -2l-25 -1q-23 -1 -44 1t-47.5 11t-45 25t-31.5 46.5t-13 71.5z" />
<glyph unicode="&#x11b;" horiz-adv-x="525" d="M118 732h101l57 -56l55 56h101l-100 -137h-116zM34 268q0 85 11.5 137t41 81t70.5 39t109 10q45 0 74.5 -2.5t58 -9.5t45.5 -20t30.5 -34.5t18.5 -53t5 -75.5q0 -38 -10 -64.5t-30 -42.5t-47.5 -23.5t-64.5 -7.5h-148q0 -17 2.5 -30t6 -21.5t12 -14.5t14.5 -9t20.5 -4.5 t23.5 -1.5h28h9h64.5t46 2.5t63.5 8.5v-109q-33 -14 -91.5 -20.5t-89.5 -7t-99 -0.5q-98 0 -136 63t-38 210zM198 313h99q12 0 20.5 4.5t12.5 12.5t4 19q0 22 -1.5 33.5t-7.5 20t-17.5 11t-31.5 2.5q-25 0 -38 -2.5t-23.5 -12.5t-14 -30.5t-2.5 -57.5z" />
<glyph unicode="&#x11c;" horiz-adv-x="614" d="M176 800l104 138h116l94 -138h-101l-54 56l-57 -56h-102zM37 370q0 70 6 122.5t21.5 101t42 79.5t69.5 49t102 18q101 0 152.5 -6t138.5 -28v-127q-1 0 -9 1t-21.5 3t-31 4t-39.5 4t-45 3.5t-49.5 2.5t-50.5 1q-75 0 -98.5 -48t-23.5 -182q0 -48 1.5 -79t6 -57.5t12 -41 t20.5 -25.5t30 -14.5t41 -3.5q30 0 55.5 11.5t36.5 22.5l10 12v106h-78v103q52 24 174 24q32 0 68 -2v-424h-116l-46 49q-16 -18 -31.5 -28t-42.5 -17t-67 -9q-60 -3 -104 16t-69.5 51t-40.5 84t-19.5 103.5t-4.5 120.5z" />
<glyph unicode="&#x11d;" horiz-adv-x="563" d="M122 596l104 138h116l94 -138h-101l-55 56l-56 -56h-102zM31 98q0 76 63 98q-21 14 -35 39.5t-19 52.5t-5 56q0 189 188 189h327v-93l-51 -18l6 -18t5 -18t4 -27.5t1 -36.5q0 -34 -8.5 -62.5t-28 -54.5t-58 -41t-93.5 -15h-111h-13.5t-11.5 -2t-11.5 -6.5t-3.5 -12.5 q0 -15 10 -19.5t30 -4.5h145q79 0 123 -40.5t44 -123.5v-56q0 -69 -40.5 -111.5t-131.5 -42.5h-150q-75 0 -121.5 39t-46.5 115v61l49 43q-23 11 -39.5 39.5t-16.5 70.5zM203 -93q0 -22 7 -33t17.5 -14.5t30.5 -3.5h58q17 0 27.5 3.5t15 11t5.5 14.5t1 19v31q0 41 -46 41 h-75l-41 2v-71zM199 344q0 -25 5.5 -40t17 -21.5t31.5 -6.5h41q32 0 44.5 15.5t12.5 52.5q-1 36 -14.5 49t-43.5 13h-40q-23 0 -35.5 -9t-15.5 -21t-3 -32z" />
<glyph unicode="&#x11e;" horiz-adv-x="614" d="M208 914h62q0 -24 14 -38t38 -14q54 0 54 52h62q0 -34 -15 -60t-41 -40t-60 -14q-50 0 -82 31.5t-32 82.5zM37 370q0 70 6 122.5t21.5 101t42 79.5t69.5 49t102 18q101 0 152.5 -6t138.5 -28v-127q-1 0 -9 1t-21.5 3t-31 4t-39.5 4t-45 3.5t-49.5 2.5t-50.5 1 q-75 0 -98.5 -48t-23.5 -182q0 -48 1.5 -79t6 -57.5t12 -41t20.5 -25.5t30 -14.5t41 -3.5q30 0 55.5 11.5t36.5 22.5l10 12v106h-78v103q52 24 174 24q32 0 68 -2v-424h-116l-46 49q-16 -18 -31.5 -28t-42.5 -17t-67 -9q-60 -3 -104 16t-69.5 51t-40.5 84t-19.5 103.5 t-4.5 120.5z" />
<glyph unicode="&#x11f;" horiz-adv-x="563" d="M165 710h62q0 -24 14 -38t38 -14q54 0 54 52h62q0 -34 -15 -60t-41.5 -40t-59.5 -14q-50 0 -82 31.5t-32 82.5zM31 98q0 76 63 98q-21 14 -35 39.5t-19 52.5t-5 56q0 189 188 189h327v-93l-51 -18l6 -18t5 -18t4 -27.5t1 -36.5q0 -34 -8.5 -62.5t-28 -54.5t-58 -41 t-93.5 -15h-111h-13.5t-11.5 -2t-11.5 -6.5t-3.5 -12.5q0 -15 10 -19.5t30 -4.5h145q79 0 123 -40.5t44 -123.5v-56q0 -69 -40.5 -111.5t-131.5 -42.5h-150q-75 0 -121.5 39t-46.5 115v61l49 43q-23 11 -39.5 39.5t-16.5 70.5zM203 -93q0 -22 7 -33t17.5 -14.5t30.5 -3.5h58 q17 0 27.5 3.5t15 11t5.5 14.5t1 19v31q0 41 -46 41h-75l-41 2v-71zM199 344q0 -25 5.5 -40t17 -21.5t31.5 -6.5h41q32 0 44.5 15.5t12.5 52.5q-1 36 -14.5 49t-43.5 13h-40q-23 0 -35.5 -9t-15.5 -21t-3 -32z" />
<glyph unicode="&#x120;" horiz-adv-x="614" d="M262 823v84q0 25 24 25h80q11 0 17 -7t6 -18v-84q0 -23 -23 -23h-80q-11 0 -17.5 6.5t-6.5 16.5zM37 370q0 70 6 122.5t21.5 101t42 79.5t69.5 49t102 18q101 0 152.5 -6t138.5 -28v-127q-1 0 -9 1t-21.5 3t-31 4t-39.5 4t-45 3.5t-49.5 2.5t-50.5 1q-75 0 -98.5 -48 t-23.5 -182q0 -48 1.5 -79t6 -57.5t12 -41t20.5 -25.5t30 -14.5t41 -3.5q30 0 55.5 11.5t36.5 22.5l10 12v106h-78v103q52 24 174 24q32 0 68 -2v-424h-116l-46 49q-16 -18 -31.5 -28t-42.5 -17t-67 -9q-60 -3 -104 16t-69.5 51t-40.5 84t-19.5 103.5t-4.5 120.5z" />
<glyph unicode="&#x121;" horiz-adv-x="563" d="M218 620v84q0 25 24 25h80q11 0 17.5 -7t6.5 -18v-84q0 -23 -24 -23h-80q-10 0 -17 6t-7 17zM31 98q0 76 63 98q-21 14 -35 39.5t-19 52.5t-5 56q0 189 188 189h327v-93l-51 -18l6 -18t5 -18t4 -27.5t1 -36.5q0 -34 -8.5 -62.5t-28 -54.5t-58 -41t-93.5 -15h-111h-13.5 t-11.5 -2t-11.5 -6.5t-3.5 -12.5q0 -15 10 -19.5t30 -4.5h145q79 0 123 -40.5t44 -123.5v-56q0 -69 -40.5 -111.5t-131.5 -42.5h-150q-75 0 -121.5 39t-46.5 115v61l49 43q-23 11 -39.5 39.5t-16.5 70.5zM203 -93q0 -22 7 -33t17.5 -14.5t30.5 -3.5h58q17 0 27.5 3.5t15 11 t5.5 14.5t1 19v31q0 41 -46 41h-75l-41 2v-71zM199 344q0 -25 5.5 -40t17 -21.5t31.5 -6.5h41q32 0 44.5 15.5t12.5 52.5q-1 36 -14.5 49t-43.5 13h-40q-23 0 -35.5 -9t-15.5 -21t-3 -32z" />
<glyph unicode="&#x122;" horiz-adv-x="614" d="M245 -191v89q0 24 22 24h87q21 0 21 -24v-121q0 -30 -13 -48t-31.5 -22.5t-37 -5t-31.5 2.5l-13 3v49q13 0 19.5 4t7.5 7.5t1 10.5v8h-10q-22 0 -22 23zM37 370q0 70 6 122.5t21.5 101t42 79.5t69.5 49t102 18q101 0 152.5 -6t138.5 -28v-127q-1 0 -9 1t-21.5 3t-31 4 t-39.5 4t-45 3.5t-49.5 2.5t-50.5 1q-75 0 -98.5 -48t-23.5 -182q0 -48 1.5 -79t6 -57.5t12 -41t20.5 -25.5t30 -14.5t41 -3.5q30 0 55.5 11.5t36.5 22.5l10 12v106h-78v103q52 24 174 24q32 0 68 -2v-424h-116l-46 49q-16 -18 -31.5 -28t-42.5 -17t-67 -9q-60 -3 -104 16 t-69.5 51t-40.5 84t-19.5 103.5t-4.5 120.5z" />
<glyph unicode="&#x123;" horiz-adv-x="563" d="M211 617v122q0 21 7 36.5t18 23t24.5 11.5t27 4t24.5 -1t18 -3l7 -2v-49q-12 0 -18.5 -3.5t-8 -7.5t-1.5 -10v-9h10q23 0 23 -23v-89q0 -24 -23 -24h-86q-22 0 -22 24zM31 97q0 84 63 99q-21 14 -35 39.5t-19 52.5t-5 56q0 189 188 189h327v-94l-51 -18q4 -11 6 -17 t5 -18t4 -27.5t1 -37.5q0 -33 -8.5 -61.5t-28 -54.5t-58 -41t-93.5 -15h-111h-3q-8 0 -12.5 -0.5t-11.5 -2t-10 -6.5t-3 -13q0 -3 0.5 -5.5t1.5 -4.5t3 -4l3 -3t4 -2l4.5 -1.5t5.5 -1t5.5 -1t6.5 -1t6 -0.5l147 -16q41 -4 68.5 -12.5t51 -26.5t34.5 -50.5t11 -80.5v-33 q0 -69 -40.5 -111.5t-131.5 -42.5h-150q-49 0 -85.5 16t-59.5 51.5t-23 86.5v69l57 41q-64 32 -64 103zM203 -93q0 -31 12.5 -41t42.5 -10h58q17 0 27.5 3.5t15 11t5.5 14.5t1 18v17q0 34 -51 39l-67 7l-44 5v-64zM199 344q0 -76 54 -76h41q31 0 44 19.5t13 56.5 q-1 41 -14 55.5t-44 14.5h-40q-17 0 -28.5 -6t-16.5 -16.5t-7 -21.5t-2 -26z" />
<glyph unicode="&#x124;" horiz-adv-x="636" d="M168 797l104 137h116l94 -137h-100l-55 56l-57 -56h-102zM54 0v732h164v-304h215v304h164v-732h-164v280h-215v-280h-164z" />
<glyph unicode="&#x125;" d="M-88 842l104 138h116l94 -138h-101l-55 56l-56 -56h-102zM-17 0v782h163v-306q19 16 30.5 24t32 19t44 16t52.5 5q47 0 79 -14.5t48.5 -42.5t23 -60t6.5 -75v-348h-164v350q0 35 -12 49.5t-36 14.5q-35 0 -58.5 -10t-44.5 -32v-372h-164z" />
<glyph unicode="&#x126;" horiz-adv-x="697" d="M13 516v69h64v147h164v-147h215v147h164v-147h64v-69h-64v-516h-164v280h-215v-280h-164v516h-64zM241 428h215v88h-215v-88z" />
<glyph unicode="&#x127;" horiz-adv-x="571" d="M-4 602v70h64v110h164v-110h105v-70h-105v-126q8 6 27.5 18.5t29.5 18t27.5 13.5t36 11t40.5 3q46 0 78 -14t48 -42.5t22 -60t6 -75.5v-348h-165v350q0 35 -11.5 49.5t-36.5 14.5q-62 -1 -101 -42v-372h-165v602h-64z" />
<glyph unicode="&#x128;" horiz-adv-x="257" d="M-37 858q58 71 122 71q15 0 30.5 -5.5t26 -12t24 -12t25.5 -5.5q46 -2 93 39l24 -66q-56 -70 -112 -70q-24 1 -60 18t-54 17q-27 0 -45.5 -8t-48.5 -27zM54 0v732h164v-732h-164z" />
<glyph unicode="&#x129;" horiz-adv-x="244" d="M-50 656q58 72 122 72q23 0 55.5 -17.5t50.5 -17.5q45 -2 92 39l25 -66q-56 -70 -113 -70q-23 1 -59 18t-54 17q-28 0 -46.5 -8t-47.5 -27zM40 0v531h164v-531h-164z" />
<glyph unicode="&#x12a;" horiz-adv-x="257" d="M-10 797v85h292v-85h-292zM54 0v732h164v-732h-164z" />
<glyph unicode="&#x12b;" horiz-adv-x="244" d="M-24 596v86h292v-86h-292zM40 0v531h164v-531h-164z" />
<glyph unicode="&#x12e;" horiz-adv-x="257" d="M113 0h62q-23 -16 -34 -33t-10 -30t8 -23.5t19.5 -15.5t26.5 -4v-82q-21 -5 -43.5 -2.5t-40 14t-32 27t-19 35.5t-2 39.5t19 39.5t45.5 35zM54 0v732h164v-732h-164z" />
<glyph unicode="&#x12f;" horiz-adv-x="238" d="M93 0h61q-22 -16 -33 -33t-10.5 -30t8 -23.5t20 -15.5t26.5 -4v-82q-21 -5 -43.5 -2.5t-40 14t-32 27t-19.5 35.5t-2 39.5t19.5 39.5t45.5 35zM34 607v101q0 26 24 26h124q23 0 23 -26v-101q0 -23 -23 -23h-124q-11 0 -17.5 6.5t-6.5 16.5zM37 0v531h164v-531h-164z" />
<glyph unicode="&#x130;" horiz-adv-x="257" d="M72 820v84q0 25 24 25h80q11 0 17 -7t6 -18v-84q0 -23 -23 -23h-80q-10 0 -17 6.5t-7 16.5zM54 0v732h164v-732h-164z" />
<glyph unicode="&#x131;" horiz-adv-x="244" d="M40 0v531h164v-531h-164z" />
<glyph unicode="&#x134;" horiz-adv-x="356" d="M77 797l104 137h116l95 -137h-102l-54 56l-57 -56h-102zM24 24l1 129q36 -1 60.5 0t39.5 11t21 29.5t6 54.5v484h164v-567q0 -113 -53 -147q-41 -25 -120.5 -22.5t-118.5 28.5z" />
<glyph unicode="&#x135;" horiz-adv-x="252" d="M-26 595l104 145h115l95 -145h-99l-58 61l-58 -61h-99zM49 -270v801h165v-535q2 -177 -41 -266h-124zM193 740z" />
<glyph unicode="&#x136;" horiz-adv-x="642" d="M249 -186v89q0 24 23 24h86q22 0 22 -24v-121q0 -22 -7 -37.5t-18 -23t-24.5 -11.5t-27 -3.5t-24.5 1.5t-18 3l-7 1v49q9 0 15.5 2t8.5 5.5t3 6.5t1 7v10h-10q-23 0 -23 22zM54 0v732h156v-298h51l169 298h190l-214 -367l214 -365h-190l-169 292h-50v-292h-157z" />
<glyph unicode="&#x137;" horiz-adv-x="578" d="M216 -186v89q0 24 22 24h87q21 0 21 -24v-121q0 -30 -13 -48t-31.5 -22.5t-37 -5t-31.5 2.5l-13 3v49q13 0 19.5 4t7.5 7.5t1 9.5v10h-10q-22 0 -22 22zM40 0v782h164v-425h26l131 174h205l-186 -233l186 -298h-194l-142 238h-26v-238h-164z" />
<glyph unicode="&#x138;" horiz-adv-x="587" d="M40 0v531h165v-209h39l135 209h195l-182 -267l161 -264h-189l-124 204h-34l-1 -204h-165z" />
<glyph unicode="&#x139;" horiz-adv-x="533" d="M86 797l85 141h132l-118 -141h-99zM54 148v584h164v-531q0 -19 4.5 -30.5t16 -15.5t18.5 -5t23 -1h231v-149h-299q-71 0 -114.5 34.5t-43.5 113.5z" />
<glyph unicode="&#x13a;" horiz-adv-x="318" d="M81 843l84 141h133l-118 -141h-99zM40 189v594h164v-564q0 -51 10.5 -70.5t31.5 -29.5q53 -21 60 -21v-98h-126q-71 0 -105.5 43.5t-34.5 145.5z" />
<glyph unicode="&#x13b;" horiz-adv-x="533" d="M223 -182v89q0 24 23 24h86q22 0 22 -24v-122q0 -29 -13 -47t-31.5 -22.5t-37.5 -5t-31 2.5l-13 3v49q12 0 18.5 3.5t7.5 7.5t1 10v9h-9q-23 0 -23 23zM54 148v584h164v-531q0 -19 4.5 -30.5t16 -15.5t18.5 -5t23 -1h231v-149h-299q-71 0 -114.5 34.5t-43.5 113.5z" />
<glyph unicode="&#x13c;" horiz-adv-x="318" d="M108 -183v89q0 24 22 24h86q22 0 22 -24v-121q0 -30 -13 -48t-31.5 -22.5t-37 -5t-31.5 2.5l-13 3v49q12 0 19 4t8 7.5t1 10.5v8h-10q-22 0 -22 23zM40 189v594h164v-564q0 -51 10.5 -70.5t31.5 -29.5q53 -21 60 -21v-98h-126q-71 0 -105.5 43.5t-34.5 145.5z" />
<glyph unicode="&#x13d;" horiz-adv-x="533" d="M54 148v584h164v-531q0 -19 4.5 -30.5t16 -15.5t18.5 -5t23 -1h231v-149h-299q-71 0 -114.5 34.5t-43.5 113.5zM274 705v67h104v-67l-10 -134h-82z" />
<glyph unicode="&#x13e;" horiz-adv-x="379" d="M40 189v594h164v-564q0 -36 5.5 -56.5t13.5 -28.5t23 -15q53 -21 60 -21v-98h-126q-73 0 -106.5 43t-33.5 146zM266 715v67h104v-67l-10 -134h-84z" />
<glyph unicode="&#x141;" horiz-adv-x="575" d="M20 300v76l76 32v324h164v-254l103 44v-76l-103 -44v-201q0 -19 5 -30.5t16.5 -15.5t18.5 -5t22 -1h232v-149h-299q-71 0 -115 34.5t-44 113.5v184z" />
<glyph unicode="&#x142;" horiz-adv-x="367" d="M11 344v76l73 30v333h164v-263l106 46l-1 -76l-105 -46v-225q0 -51 10 -70.5t32 -29.5q52 -21 59 -21v-98h-125q-71 0 -105.5 43.5t-34.5 145.5v186z" />
<glyph unicode="&#x143;" horiz-adv-x="677" d="M299 797l84 141h133l-118 -141h-99zM54 0v732h166l254 -429v429h164v-732h-164l-255 422v-422h-165z" />
<glyph unicode="&#x144;" d="M230 600l84 140h133l-118 -140h-99zM40 0v531h135l29 -55q28 22 43 32.5t46.5 21t69.5 10.5q47 0 79 -14.5t48.5 -42.5t23 -60t6.5 -75v-348h-164v350q0 24 -6 38t-16 20t-26 6q-35 0 -58.5 -10t-45.5 -32v-372h-164z" />
<glyph unicode="&#x145;" horiz-adv-x="677" d="M276 -186v89q0 24 22 24h87q21 0 21 -24v-121q0 -22 -7 -37.5t-18 -23t-24.5 -11.5t-27 -3.5t-24.5 1.5t-18 3l-7 1v49q10 0 16 2t8.5 5.5t3 6.5t0.5 7v10h-10q-22 0 -22 22zM54 0v732h166l254 -429v429h164v-732h-164l-255 422v-422h-165z" />
<glyph unicode="&#x146;" d="M210 -186v89q0 24 23 24h86q22 0 22 -24v-121q0 -30 -13 -48t-31.5 -22.5t-37.5 -5t-31 2.5l-13 3v49q12 0 18.5 4t7.5 7.5t1 9.5v10h-9q-23 0 -23 22zM40 0v531h135l29 -55q28 22 43 32.5t46.5 21t69.5 10.5q47 0 79 -14.5t48.5 -42.5t23 -60t6.5 -75v-348h-164v350 q0 24 -6 38t-16 20t-26 6q-35 0 -58.5 -10t-45.5 -32v-372h-164z" />
<glyph unicode="&#x147;" horiz-adv-x="677" d="M191 934h101l57 -56l55 56h102l-101 -137h-116zM54 0v732h166l254 -429v429h164v-732h-164l-255 422v-422h-165z" />
<glyph unicode="&#x148;" d="M126 738h101l57 -56l54 56h102l-101 -138h-116zM40 0v531h135l29 -55q28 22 43 32.5t46.5 21t69.5 10.5q47 0 79 -14.5t48.5 -42.5t23 -60t6.5 -75v-348h-164v350q0 24 -6 38t-16 20t-26 6q-35 0 -58.5 -10t-45.5 -32v-372h-164z" />
<glyph unicode="&#x14a;" horiz-adv-x="677" d="M54 0v732h166l254 -426v426h164v-732v-69q0 -53 -16.5 -91t-43.5 -57t-61.5 -30.5t-71.5 -11t-74 1.5v117q3 0 10 1q19 1 28.5 2.5t24.5 6t21.5 12t12.5 22t6 34.5v62l-255 422l-1 -422h-164z" />
<glyph unicode="&#x14b;" horiz-adv-x="559" d="M40 0v531h135l29 -55q9 6 33.5 22.5t36 22.5t36 12.5t53.5 6.5q47 0 79 -14.5t48.5 -42.5t23 -60t6.5 -75v-348l-2 -60q0 -47 -16 -85t-38.5 -59.5t-52.5 -36.5t-54 -20.5t-47 -6.5l-37 90q19 7 29 11t21.5 12.5t17.5 19.5t10 28.5t5 42.5v64v350q0 24 -6 38t-16 20 t-26 6q-35 0 -58.5 -10t-45.5 -32v-372h-164z" />
<glyph unicode="&#x14c;" horiz-adv-x="669" d="M196 797v85h292v-85h-292zM44 361q0 72 8 128.5t21.5 96t35.5 67.5t45 44t56 25.5t62.5 12t69.5 2.5q42 0 71.5 -3t63 -12t56 -25t44.5 -44t34.5 -67.5t20.5 -96t8 -128.5q0 -60 -5 -108.5t-16 -85t-25.5 -64t-35 -46t-42.5 -31t-51.5 -19t-57.5 -9t-65 -2.5t-64.5 2 t-57.5 8t-51.5 17.5t-42.5 30t-35 46t-25.5 64t-16.5 86t-5 111.5zM208 361q0 -40 1.5 -68.5t5 -52.5t10.5 -39.5t16.5 -27t24.5 -17.5t33 -8.5t43 -2.5q41 0 65 8.5t40.5 33t22.5 65.5t6 109q0 62 -4.5 101.5t-13 65.5t-25.5 38.5t-37 17t-53.5 4.5t-52.5 -3.5t-37 -16 t-26.5 -37.5t-13.5 -66t-5 -104z" />
<glyph unicode="&#x14d;" horiz-adv-x="557" d="M133 596v86h292v-86h-292zM34 258q0 109 24 169t75.5 84.5t145.5 24.5q138 0 191.5 -60t53.5 -218q0 -149 -52.5 -206t-192.5 -57q-137 0 -191 59.5t-54 203.5zM198 258q0 -62 7.5 -90.5t23 -37t50.5 -8.5q23 0 35 2t22.5 8.5t15 22.5t6.5 39.5t2 63.5q0 43 -2 67.5 t-6 43t-14 26.5t-23 11.5t-36 3.5q-20 0 -31.5 -2t-21.5 -8.5t-15 -15.5t-8.5 -27.5t-4 -40.5t-0.5 -58z" />
<glyph unicode="&#x150;" horiz-adv-x="669" d="M211 797l85 141h132l-118 -141h-99zM374 797l85 141h133l-118 -141h-100zM44 361q0 72 8 128.5t21.5 96t35.5 67.5t45 44t56 25.5t62.5 12t69.5 2.5q42 0 71.5 -3t63 -12t56 -25t44.5 -44t34.5 -67.5t20.5 -96t8 -128.5q0 -60 -5 -108.5t-16 -85t-25.5 -64t-35 -46 t-42.5 -31t-51.5 -19t-57.5 -9t-65 -2.5t-64.5 2t-57.5 8t-51.5 17.5t-42.5 30t-35 46t-25.5 64t-16.5 86t-5 111.5zM208 361q0 -40 1.5 -68.5t5 -52.5t10.5 -39.5t16.5 -27t24.5 -17.5t33 -8.5t43 -2.5q41 0 65 8.5t40.5 33t22.5 65.5t6 109q0 62 -4.5 101.5t-13 65.5 t-25.5 38.5t-37 17t-53.5 4.5t-52.5 -3.5t-37 -16t-26.5 -37.5t-13.5 -66t-5 -104z" />
<glyph unicode="&#x151;" horiz-adv-x="557" d="M148 596l84 140h132l-118 -140h-98zM311 596l85 140h132l-118 -140h-99zM34 258q0 109 24 169t75.5 84.5t145.5 24.5q138 0 191.5 -60t53.5 -218q0 -149 -52.5 -206t-192.5 -57q-137 0 -191 59.5t-54 203.5zM198 258q0 -62 7.5 -90.5t23 -37t50.5 -8.5q23 0 35 2 t22.5 8.5t15 22.5t6.5 39.5t2 63.5q0 43 -2 67.5t-6 43t-14 26.5t-23 11.5t-36 3.5q-20 0 -31.5 -2t-21.5 -8.5t-15 -15.5t-8.5 -27.5t-4 -40.5t-0.5 -58z" />
<glyph unicode="&#x152;" horiz-adv-x="992" d="M208 361q0 -135 25 -175.5t109 -40.5q54 0 81.5 17t39.5 63t12 136q0 62 -4.5 101.5t-12.5 65.5t-25 38.5t-37.5 17t-53.5 4.5q-55 0 -80.5 -13t-39.5 -62t-14 -152zM44 361q0 84 10 147t30.5 103.5t45 66t61.5 38.5t70.5 17t80.5 4q41 0 70.5 -3t60.5 -12t54 -26 q42 40 119 36q222 -4 310 -16v-137h-265q-18 0 -29.5 -4t-16 -14t-5.5 -17t-1 -21v-83l269 -10v-136l-269 -9v-83q0 -19 5 -30.5t16 -16t18.5 -5t22.5 -0.5h255v-136q-35 -5 -109.5 -9t-132.5 -6l-58 -2q-90 -5 -134 37q-57 -38 -180 -38q-43 0 -73.5 2.5t-64 11.5t-56 25 t-43.5 43t-33.5 65t-20 93t-7.5 125z" />
<glyph unicode="&#x153;" horiz-adv-x="851" d="M34 258q0 109 24 169t75.5 84.5t145.5 24.5q106 0 157 -36q44 35 156 35q45 0 74.5 -2.5t58 -9.5t45.5 -20t30.5 -34.5t18.5 -53t5 -75.5q0 -50 -18 -81t-51 -44t-83 -13h-148q0 -17 2.5 -30t6 -21.5t13 -14.5t16 -9t22 -4.5t25 -1.5h31.5q64 0 93 1.5t81 9.5v-109 q-33 -14 -91.5 -20.5t-89.5 -7t-99 -0.5q-67 0 -102 31q-51 -31 -153 -31q-137 0 -191 59.5t-54 203.5zM198 258q0 -62 7.5 -90.5t23 -37t50.5 -8.5q17 0 29 1.5t21 4.5t14.5 12t9 17.5t5 27.5t2 35.5t0.5 47.5q0 91 -14 116.5t-67 25.5q-20 0 -31.5 -2t-21.5 -8.5 t-15 -15.5t-8.5 -27.5t-4 -40.5t-0.5 -58zM524 313h99q12 0 20.5 4.5t12.5 12.5t4 19q0 42 -10 54.5t-48 12.5q-25 0 -38 -2.5t-24 -13t-14 -31t-2 -56.5z" />
<glyph unicode="&#x154;" horiz-adv-x="612" d="M260 796l84 140h133l-118 -140h-99zM48 0v732h323q99 0 155 -53t56 -178q0 -37 -4.5 -67.5t-10 -51t-16 -37t-19 -26t-22 -17.5t-21 -11t-20.5 -8l133 -283h-186l-109 269l-95 14v-283h-164zM213 409h139q38 0 51 19t13 73q0 48 -15 68.5t-49 20.5h-139v-181z" />
<glyph unicode="&#x155;" horiz-adv-x="414" d="M173 596l84 141h133l-118 -141h-99zM40 0v531h142l22 -67q8 9 16.5 17.5t18.5 17t21.5 15t24 12t27 8t28.5 2.5q38 0 54 -6v-157q-30 1 -78 1q-45 0 -71.5 -11t-40.5 -48v-315h-164z" />
<glyph unicode="&#x156;" horiz-adv-x="612" d="M233 -181v89q0 25 23 25h86q22 0 22 -25v-121q0 -30 -13 -47.5t-31.5 -22.5t-37 -5.5t-31.5 2.5l-13 4v49q12 -1 18.5 3t8 7.5t1.5 10.5v9h-10q-23 0 -23 22zM48 0v732h323q99 0 155 -53t56 -178q0 -37 -4.5 -67.5t-10 -51t-16 -37t-19 -26t-22 -17.5t-21 -11t-20.5 -8 l133 -283h-186l-109 269l-95 14v-283h-164zM213 409h139q38 0 51 19t13 73q0 48 -15 68.5t-49 20.5h-139v-181z" />
<glyph unicode="&#x157;" horiz-adv-x="414" d="M46 -186v89q0 24 23 24h86q22 0 22 -24v-121q0 -22 -7 -37.5t-18 -23t-24.5 -11.5t-27 -3.5t-24.5 1.5t-18 3l-7 1v49q12 0 18.5 4t8 7.5t1.5 9.5v10h-10q-23 0 -23 22zM34 0v531h142l22 -67q25 31 60 51.5t76 20.5q38 0 54 -6v-157q-30 1 -78 1q-45 0 -71.5 -11 t-40.5 -48v-315h-164z" />
<glyph unicode="&#x158;" horiz-adv-x="612" d="M154 934h102l56 -56l55 56h102l-101 -137h-116zM48 0v732h323q99 0 155 -53t56 -178q0 -37 -4.5 -67.5t-10 -51t-16 -37t-19 -26t-22 -17.5t-21 -11t-20.5 -8l133 -283h-186l-109 269l-95 14v-283h-164zM213 409h139q38 0 51 19t13 73q0 48 -15 68.5t-49 20.5h-139v-181z " />
<glyph unicode="&#x159;" horiz-adv-x="414" d="M60 734h101l57 -56l55 56h101l-100 -138h-116zM40 0v531h142l22 -67q8 9 16.5 17.5t18.5 17t21.5 15t24 12t27 8t28.5 2.5q38 0 54 -6v-157q-30 1 -78 1q-45 0 -71.5 -11t-40.5 -48v-315h-164z" />
<glyph unicode="&#x15a;" horiz-adv-x="593" d="M257 799l85 140h132l-118 -140h-99zM44 483v62q0 189 198 193q188 5 295 -31v-128q-102 10 -243 10q-48 1 -67 -9.5t-19 -49.5v-25q0 -18 3 -29t11.5 -18t21.5 -10t34 -3h106q36 0 65 -9.5t48 -25.5t32.5 -36t20.5 -43.5t10.5 -44.5t3.5 -43v-42q0 -51 -12 -89t-31 -60.5 t-46.5 -36t-54.5 -18.5t-59 -5q-118 0 -174.5 6t-119.5 26v128q110 -11 257 -11q36 0 56 11t20 42v29q0 30 -13 44t-47 14h-103q-33 0 -60.5 6t-46.5 17.5t-34 25t-24 31t-15 33t-8.5 34t-3.5 30.5t-1 25z" />
<glyph unicode="&#x15b;" horiz-adv-x="509" d="M209 597l85 141h132l-118 -141h-99zM26 343v46q0 43 13 74.5t44.5 52t80.5 20.5q80 0 125.5 -1t97.5 -8.5t69 -21.5v-100h-233q-19 0 -26 -5.5t-7 -22.5v-16q0 -17 8 -21.5t25 -4.5h115q51 0 84 -19.5t46.5 -49.5t13.5 -72v-56q0 -75 -37 -109t-93 -34q-80 0 -127.5 1 t-103.5 9t-73 23v99h243q27 0 27 26v16q0 14 -5.5 20.5t-21.5 6.5h-111q-154 0 -154 147z" />
<glyph unicode="&#x15c;" horiz-adv-x="593" d="M151 799l104 137h116l94 -137h-101l-54 56l-57 -56h-102zM44 483v62q0 189 198 193q188 5 295 -31v-128q-102 10 -243 10q-48 1 -67 -9.5t-19 -49.5v-25q0 -18 3 -29t11.5 -18t21.5 -10t34 -3h106q36 0 65 -9.5t48 -25.5t32.5 -36t20.5 -43.5t10.5 -44.5t3.5 -43v-42 q0 -51 -12 -89t-31 -60.5t-46.5 -36t-54.5 -18.5t-59 -5q-118 0 -174.5 6t-119.5 26v128q110 -11 257 -11q36 0 56 11t20 42v29q0 30 -13 44t-47 14h-103q-33 0 -60.5 6t-46.5 17.5t-34 25t-24 31t-15 33t-8.5 34t-3.5 30.5t-1 25z" />
<glyph unicode="&#x15d;" horiz-adv-x="509" d="M99 596l104 138h116l94 -138h-101l-54 56l-57 -56h-102zM26 343v46q0 43 13 74.5t44.5 52t80.5 20.5q80 0 125.5 -1t97.5 -8.5t69 -21.5v-100h-233q-19 0 -26 -5.5t-7 -22.5v-16q0 -17 8 -21.5t25 -4.5h115q51 0 84 -19.5t46.5 -49.5t13.5 -72v-56q0 -75 -37 -109 t-93 -34q-80 0 -127.5 1t-103.5 9t-73 23v99h243q27 0 27 26v16q0 14 -5.5 20.5t-21.5 6.5h-111q-154 0 -154 147z" />
<glyph unicode="&#x15e;" horiz-adv-x="593" d="M196 -118l41 14q20 9 24.5 19.5t4.5 40.5h104q0 -78 -25 -110.5t-91 -32.5h-58v69zM44 483v62q0 189 198 193q188 5 295 -31v-128q-102 10 -243 10q-48 1 -67 -9.5t-19 -49.5v-25q0 -18 3 -29t11.5 -18t21.5 -10t34 -3h106q36 0 65 -9.5t48 -25.5t32.5 -36t20.5 -43.5 t10.5 -44.5t3.5 -43v-42q0 -51 -12 -89t-31 -60.5t-46.5 -36t-54.5 -18.5t-59 -5q-118 0 -174.5 6t-119.5 26v128q110 -11 257 -11q36 0 56 11t20 42v29q0 30 -13 44t-47 14h-103q-33 0 -60.5 6t-46.5 17.5t-34 25t-24 31t-15 33t-8.5 34t-3.5 30.5t-1 25z" />
<glyph unicode="&#x15f;" horiz-adv-x="509" d="M58 -112l41 14q20 9 24.5 19.5t4.5 40.5h105q0 -78 -25.5 -110.5t-90.5 -32.5h-59v69zM26 343v46q0 43 13 74.5t44.5 52t80.5 20.5q80 0 125.5 -1t97.5 -8.5t69 -21.5v-100h-233q-19 0 -26 -5.5t-7 -22.5v-16q0 -17 8 -21.5t25 -4.5h115q51 0 84 -19.5t46.5 -49.5 t13.5 -72v-56q0 -75 -37 -109t-93 -34q-80 0 -127.5 1t-103.5 9t-73 23v99h243q27 0 27 26v16q0 14 -5.5 20.5t-21.5 6.5h-111q-154 0 -154 147z" />
<glyph unicode="&#x160;" horiz-adv-x="593" d="M154 936h101l57 -56l55 56h102l-101 -137h-116zM44 483v62q0 189 198 193q188 5 295 -31v-128q-102 10 -243 10q-48 1 -67 -9.5t-19 -49.5v-25q0 -18 3 -29t11.5 -18t21.5 -10t34 -3h106q36 0 65 -9.5t48 -25.5t32.5 -36t20.5 -43.5t10.5 -44.5t3.5 -43v-42 q0 -51 -12 -89t-31 -60.5t-46.5 -36t-54.5 -18.5t-59 -5q-118 0 -174.5 6t-119.5 26v128q110 -11 257 -11q36 0 56 11t20 42v29q0 30 -13 44t-47 14h-103q-33 0 -60.5 6t-46.5 17.5t-34 25t-24 31t-15 33t-8.5 34t-3.5 30.5t-1 25z" />
<glyph unicode="&#x161;" horiz-adv-x="509" d="M104 735h101l57 -56l55 56h101l-100 -138h-116zM26 343v46q0 43 13 74.5t44.5 52t80.5 20.5q80 0 125.5 -1t97.5 -8.5t69 -21.5v-100h-233q-19 0 -26 -5.5t-7 -22.5v-16q0 -17 8 -21.5t25 -4.5h115q51 0 84 -19.5t46.5 -49.5t13.5 -72v-56q0 -75 -37 -109t-93 -34 q-80 0 -127.5 1t-103.5 9t-73 23v99h243q27 0 27 26v16q0 14 -5.5 20.5t-21.5 6.5h-111q-154 0 -154 147z" />
<glyph unicode="&#x162;" horiz-adv-x="599" d="M65 -115l41 15q20 9 24.5 19.5t4.5 40.5h105q0 -78 -25.5 -111t-90.5 -33h-59v69zM26 583v149h553v-149h-197v-583h-164v583h-192z" />
<glyph unicode="&#x163;" horiz-adv-x="383" d="M44 -116l41 16q20 8 24.5 18.5t4.5 41.5h104q0 -79 -25 -111.5t-91 -32.5h-58v68zM13 413v86l81 33l26 148h138v-148h106v-119h-106v-193q0 -52 10 -72t32 -30q52 -20 58 -20v-98h-134q-41 0 -69 17.5t-44.5 60.5t-16.5 112v223h-81z" />
<glyph unicode="&#x164;" horiz-adv-x="599" d="M143 934h101l57 -56l55 56h102l-102 -137h-116zM26 583v149h553v-149h-197v-583h-164v583h-192z" />
<glyph unicode="&#x165;" horiz-adv-x="430" d="M13 413v86l81 33l26 148h138v-148h106v-119h-106v-193q0 -52 10 -72t32 -30q52 -20 58 -20v-98h-134q-41 0 -69 17.5t-44.5 60.5t-16.5 112v223h-81zM308 801h105v-67l-11 -134h-82l-11 134z" />
<glyph unicode="&#x166;" horiz-adv-x="587" d="M17 583v149h553v-149h-198v-154h90v-69h-90v-360h-164v360h-90v69h90v154h-191z" />
<glyph unicode="&#x167;" horiz-adv-x="377" d="M13 413v86l81 33l26 148h138v-148h106v-119h-106v-91h74v-69h-74v-33q0 -38 5.5 -58.5t13 -28.5t23.5 -15q51 -20 56 -20v-98h-132q-65 0 -97.5 44t-32.5 146v63h-66v69h66v91h-81z" />
<glyph unicode="&#x168;" horiz-adv-x="660" d="M164 856q59 72 122 72q24 -1 56.5 -18t49.5 -17q46 -2 93 39l25 -66q-56 -71 -113 -70q-24 0 -59.5 17.5t-54.5 17.5q-27 0 -45.5 -8t-47.5 -27zM54 320v412h164v-412q0 -53 4.5 -85t18.5 -53.5t37 -29.5t62 -8q67 0 91.5 38.5t24.5 137.5v412h165v-412q0 -67 -10 -119.5 t-24 -86.5t-39.5 -57.5t-46 -35.5t-54 -18t-53.5 -7t-54 -1h-10q-29 0 -44.5 0.5t-43.5 3t-43 8t-38 16.5t-36 27t-28.5 41t-23.5 57t-13.5 75.5t-5.5 96.5z" />
<glyph unicode="&#x169;" d="M100 656q59 72 122 72q24 0 56.5 -17.5t49.5 -17.5q46 -2 93 39l25 -66q-56 -70 -113 -70q-24 1 -59.5 18t-54.5 17q-27 0 -45.5 -8t-47.5 -27zM34 184v347h164v-351q0 -23 5.5 -37t15.5 -19.5t26 -5.5q35 0 58.5 9.5t44.5 32.5v371h164v-531h-134l-30 54 q-10 -6 -27 -17.5t-27.5 -18t-26.5 -13.5t-35 -10.5t-42 -3.5q-47 0 -79 14.5t-48.5 42.5t-22.5 60t-6 76z" />
<glyph unicode="&#x16a;" horiz-adv-x="660" d="M191 797v85h292v-85h-292zM54 320v412h164v-412q0 -53 4.5 -85t18.5 -53.5t37 -29.5t62 -8q67 0 91.5 38.5t24.5 137.5v412h165v-412q0 -67 -10 -119.5t-24 -86.5t-39.5 -57.5t-46 -35.5t-54 -18t-53.5 -7t-54 -1h-10q-29 0 -44.5 0.5t-43.5 3t-43 8t-38 16.5t-36 27 t-28.5 41t-23.5 57t-13.5 75.5t-5.5 96.5z" />
<glyph unicode="&#x16b;" d="M127 596v86h292v-86h-292zM34 184v347h164v-351q0 -23 5.5 -37t15.5 -19.5t26 -5.5q35 0 58.5 9.5t44.5 32.5v371h164v-531h-134l-30 54q-10 -6 -27 -17.5t-27.5 -18t-26.5 -13.5t-35 -10.5t-42 -3.5q-47 0 -79 14.5t-48.5 42.5t-22.5 60t-6 76z" />
<glyph unicode="&#x16c;" horiz-adv-x="660" d="M222 911h62q0 -24 14 -38t38 -14q54 0 54 52h62q0 -34 -15 -60t-41 -40t-60 -14q-50 0 -82 31.5t-32 82.5zM54 320v412h164v-412q0 -53 4.5 -85t18.5 -53.5t37 -29.5t62 -8q67 0 91.5 38.5t24.5 137.5v412h165v-412q0 -67 -10 -119.5t-24 -86.5t-39.5 -57.5t-46 -35.5 t-54 -18t-53.5 -7t-54 -1h-10q-29 0 -44.5 0.5t-43.5 3t-43 8t-38 16.5t-36 27t-28.5 41t-23.5 57t-13.5 75.5t-5.5 96.5z" />
<glyph unicode="&#x16d;" d="M160 710h62q0 -24 14 -38t38 -14q54 0 54 52h62q0 -52 -32.5 -83t-83.5 -31q-50 0 -82 31.5t-32 82.5zM34 184v347h164v-351q0 -23 5.5 -37t15.5 -19.5t26 -5.5q35 0 58.5 9.5t44.5 32.5v371h164v-531h-134l-30 54q-10 -6 -27 -17.5t-27.5 -18t-26.5 -13.5t-35 -10.5 t-42 -3.5q-47 0 -79 14.5t-48.5 42.5t-22.5 60t-6 76z" />
<glyph unicode="&#x16e;" horiz-adv-x="660" d="M236 899q0 28 13.5 51.5t37 37.5t51.5 14q42 0 71.5 -30t29.5 -73q0 -28 -13.5 -51.5t-37 -37t-51 -13.5t-51 13.5t-37 37t-13.5 51.5zM298 899q0 -11 5.5 -19.5t14.5 -13.5t20 -5q16 0 27 11t11 27t-11 27.5t-27.5 11.5t-28 -11.5t-11.5 -27.5zM54 320v412h164v-412 q0 -53 4.5 -85t18.5 -53.5t37 -29.5t62 -8q67 0 91.5 38.5t24.5 137.5v412h165v-412q0 -67 -10 -119.5t-24 -86.5t-39.5 -57.5t-46 -35.5t-54 -18t-53.5 -7t-54 -1h-10q-29 0 -44.5 0.5t-43.5 3t-43 8t-38 16.5t-36 27t-28.5 41t-23.5 57t-13.5 75.5t-5.5 96.5z" />
<glyph unicode="&#x16f;" d="M172 698q0 28 13.5 51.5t37 37.5t51 14t51 -14t36.5 -37.5t13 -51.5t-13 -51.5t-36.5 -37t-50.5 -13.5q-21 0 -40 8t-32.5 21.5t-21.5 32.5t-8 40zM234 698q0 -8 3 -15t8.5 -12t12.5 -8t16 -3q16 0 27 11t11 27t-11 27.5t-27.5 11.5t-28 -11.5t-11.5 -27.5zM34 184v347 h164v-351q0 -23 5.5 -37t15.5 -19.5t26 -5.5q35 0 58.5 9.5t44.5 32.5v371h164v-531h-134l-30 54q-10 -6 -27 -17.5t-27.5 -18t-26.5 -13.5t-35 -10.5t-42 -3.5q-47 0 -79 14.5t-48.5 42.5t-22.5 60t-6 76z" />
<glyph unicode="&#x170;" horiz-adv-x="660" d="M206 797l84 141h133l-118 -141h-99zM370 797l84 141h132l-118 -141h-98zM54 320v412h164v-412q0 -53 4.5 -85t18.5 -53.5t37 -29.5t62 -8q67 0 91.5 38.5t24.5 137.5v412h165v-412q0 -67 -10 -119.5t-24 -86.5t-39.5 -57.5t-46 -35.5t-54 -18t-53.5 -7t-54 -1h-10 q-29 0 -44.5 0.5t-43.5 3t-43 8t-38 16.5t-36 27t-28.5 41t-23.5 57t-13.5 75.5t-5.5 96.5z" />
<glyph unicode="&#x171;" d="M142 596l84 140h133l-118 -140h-99zM305 596l85 140h132l-118 -140h-99zM34 184v347h164v-351q0 -23 5.5 -37t15.5 -19.5t26 -5.5q35 0 58.5 9.5t44.5 32.5v371h164v-531h-134l-30 54q-10 -6 -27 -17.5t-27.5 -18t-26.5 -13.5t-35 -10.5t-42 -3.5q-47 0 -79 14.5 t-48.5 42.5t-22.5 60t-6 76z" />
<glyph unicode="&#x172;" horiz-adv-x="660" d="M310 -1h61q-22 -16 -33.5 -33t-10.5 -30t8 -23.5t20 -15.5t27 -4v-83q-22 -5 -44.5 -2.5t-40 14.5t-31.5 27t-19 35t-2 39.5t19.5 40t45.5 35.5zM54 320v412h164v-412q0 -53 4.5 -85t18.5 -53.5t37 -29.5t62 -8q67 0 91.5 38.5t24.5 137.5v412h165v-412q0 -67 -10 -119.5 t-24 -86.5t-39.5 -57.5t-46 -35.5t-54 -18t-53.5 -7t-54 -1h-10q-29 0 -44.5 0.5t-43.5 3t-43 8t-38 16.5t-36 27t-28.5 41t-23.5 57t-13.5 75.5t-5.5 96.5z" />
<glyph unicode="&#x173;" d="M417 -2h62q-23 -16 -34 -33t-10 -30t8 -23.5t19.5 -15.5t26.5 -4v-82q-21 -6 -43.5 -3.5t-40 14.5t-32 27t-19 35t-2 40t19 40t45.5 35zM34 184v347h164v-351q0 -23 5.5 -37t15.5 -19.5t26 -5.5q35 0 58.5 9.5t44.5 32.5v371h164v-531h-134l-30 54q-10 -6 -27 -17.5 t-27.5 -18t-26.5 -13.5t-35 -10.5t-42 -3.5q-47 0 -79 14.5t-48.5 42.5t-22.5 60t-6 76z" />
<glyph unicode="&#x174;" horiz-adv-x="1004" d="M360 796l104 137h116l95 -137h-101l-55 56l-57 -56h-102zM30 732h173l144 -521l114 521h174l-45 -172l110 -351l115 523h173l-192 -732h-194l-84 273l-74 -273h-194z" />
<glyph unicode="&#x175;" horiz-adv-x="835" d="M270 595l104 137h116l94 -137h-101l-54 56l-57 -56h-102zM13 531h175l88 -347l80 347h160l-30 -133l78 -214l84 347h175l-160 -531h-187l-65 168l-51 -168h-188z" />
<glyph unicode="&#x176;" horiz-adv-x="666" d="M180 796l104 137h116l95 -137h-101l-55 56l-57 -56h-102zM30 732h178l126 -339l138 339h178l-236 -517v-215h-164v215z" />
<glyph unicode="&#x177;" horiz-adv-x="587" d="M135 596l104 138h116l95 -138h-101l-55 56l-57 -56h-102zM14 531h171l78 -356q9 -36 49 -39l90 395h168l-166 -699l-72 -102h-119l68 270q-136 0 -172 144z" />
<glyph unicode="&#x178;" horiz-adv-x="666" d="M151 859q0 17 8.5 31t22.5 22t31 8q25 0 43 -17.5t18 -43t-18 -44t-43 -18.5t-43.5 18.5t-18.5 43.5zM406 859.5q0 25.5 18 43t44 17.5t43.5 -17.5t17.5 -43t-18 -44t-43.5 -18.5t-43.5 18.5t-18 44zM30 732h178l126 -339l138 339h178l-236 -517v-215h-164v215z" />
<glyph unicode="&#x179;" horiz-adv-x="554" d="M228 797l85 141h132l-118 -141h-99zM24 0v149l313 434h-313v149h508v-149l-291 -434h291v-149h-508z" />
<glyph unicode="&#x17a;" horiz-adv-x="480" d="M191 596l85 140h132l-118 -140h-99zM20 397v134h441v-134l-207 -262h207v-134h-426v133l220 263h-235z" />
<glyph unicode="&#x17b;" horiz-adv-x="554" d="M214 820v84q0 25 24 25h80q11 0 17 -7t6 -18v-84q0 -23 -23 -23h-80q-10 0 -17 6.5t-7 16.5zM24 0v149l313 434h-313v149h508v-149l-291 -434h291v-149h-508z" />
<glyph unicode="&#x17c;" horiz-adv-x="480" d="M177 619v84q0 25 24 25h80q11 0 17 -7t6 -18v-84q0 -23 -23 -23h-80q-10 0 -17 6.5t-7 16.5zM20 397v134h441v-134l-207 -262h207v-134h-426v133l220 263h-235z" />
<glyph unicode="&#x17d;" horiz-adv-x="554" d="M120 934h102l56 -56l55 56h102l-101 -137h-116zM24 0v149l313 434h-313v149h508v-149l-291 -434h291v-149h-508z" />
<glyph unicode="&#x17e;" horiz-adv-x="480" d="M84 734h101l57 -56l54 56h102l-101 -138h-116zM20 397v134h441v-134l-207 -262h207v-134h-426v133l220 263h-235z" />
<glyph unicode="&#x192;" horiz-adv-x="593" d="M13 -179l16 101h53q20 0 36 10.5t25.5 25.5t17.5 39t12 43.5t9 47.5l43 279h-81l19 119h81l4 20q13 87 38.5 150.5t69 103.5t99.5 40q23 0 42.5 -2t33.5 -5.5t21.5 -6t17.5 -7l10 -4.5l-15 -101h-51q-14 0 -26 -5t-21.5 -12.5t-17 -20.5t-12.5 -26t-10 -31.5t-8 -34.5 t-7 -38l-3 -20h106l-19 -119h-106l-44 -279q-22 -143 -70 -217.5t-136 -74.5q-30 0 -57.5 4t-44 9.5t-25.5 11.5z" />
<glyph unicode="&#x2c6;" horiz-adv-x="381" d="M34 531l104 137h116l94 -137h-101l-55 56l-56 -56h-102zM254 668z" />
<glyph unicode="&#x2c7;" horiz-adv-x="381" d="M34 668h101l57 -56l54 56h102l-101 -137h-116zM247 531z" />
<glyph unicode="&#x2d8;" horiz-adv-x="296" d="M34 644h62q0 -24 13.5 -38t38.5 -14q54 0 54 52h62q0 -34 -15.5 -60t-41.5 -40t-59 -14q-50 0 -82 31.5t-32 82.5z" />
<glyph unicode="&#x2d9;" horiz-adv-x="194" d="M34 541v84q0 25 24 25h80q10 0 16 -7t6 -18v-84q0 -23 -22 -23h-80q-11 0 -17.5 6.5t-6.5 16.5z" />
<glyph unicode="&#x2da;" horiz-adv-x="270" d="M34 632q0 28 13.5 51.5t37 37.5t51 14t51 -14t36.5 -37.5t13 -51.5t-13 -51.5t-36.5 -37t-51 -13.5t-51 13.5t-37 37t-13.5 51.5zM96 632q0 -16 11.5 -27t28 -11t27.5 11t11 27t-11 27.5t-27.5 11.5t-28 -11.5t-11.5 -27.5z" />
<glyph unicode="&#x2db;" horiz-adv-x="203" d="M99 0h61q-22 -16 -33 -33t-10.5 -30t8 -23.5t20 -15.5t26.5 -4v-82q-21 -6 -43.5 -3.5t-40 14.5t-32 27t-19.5 35t-2 39.5t19.5 40t45.5 35.5z" />
<glyph unicode="&#x2dc;" horiz-adv-x="412" d="M34 592q58 71 121 71q24 0 56.5 -17.5t50.5 -17.5q45 -2 92 39l25 -66q-56 -70 -113 -70q-24 1 -59.5 18t-54.5 17q-27 0 -45.5 -8t-47.5 -27z" />
<glyph unicode="&#x2dd;" horiz-adv-x="409" d="M13 531l85 141h132l-118 -141h-99zM177 531l84 141h133l-118 -141h-99z" />
<glyph unicode="&#x338;" horiz-adv-x="626" d="M47 184v356q0 92 49.5 142t138.5 50h164q181 0 181 -184v-364q0 -88 -47.5 -136t-134.5 -48h-164q-90 0 -138.5 47.5t-48.5 136.5zM211 305q0 -40 2 -45l168 318q-10 5 -25 5h-83q-62 0 -62 -65v-213zM240 158q14 -9 38 -9h72q34 0 50 13.5t16 51.5v226q0 39 -4 44z" />
<glyph unicode="&#x3a9;" horiz-adv-x="758" d="M43 396q0 49 9.5 95t34 92t61.5 80t96.5 55t135.5 21q72 0 129 -19t94 -51t61.5 -77.5t35 -95t10.5 -106.5q0 -86 -21.5 -141t-71.5 -105l98 -10v-134h-258v146q28 23 46 49.5t27 57.5t12.5 61t3.5 71q0 28 -4 54t-15 54.5t-28.5 49t-48 34t-70.5 13.5q-36 0 -64.5 -9 t-46.5 -25.5t-31 -36.5t-19 -45t-9 -47t-3 -47q0 -83 17 -132.5t75 -101.5v-146h-250v136l103 10q-60 40 -84.5 100t-24.5 150z" />
<glyph unicode="&#x3c0;" horiz-adv-x="647" d="M13 382v149h573v-149h-77v-186q0 -45 15 -59.5t54 -14.5h56v-96q-46 -31 -131 -31q-158 0 -158 193v194h-97v-382h-164v382h-71z" />
<glyph unicode="&#x1e02;" horiz-adv-x="607" d="M248 819v84q0 25 24 25h80q11 0 17 -7t6 -18v-84q0 -23 -23 -23h-80q-11 0 -17.5 6.5t-6.5 16.5zM54 0v732h309q109 0 160.5 -53.5t51.5 -144.5q0 -54 -26.5 -100.5t-76.5 -53.5q34 -6 60.5 -27.5t42 -56.5t15.5 -77q0 -112 -54 -165.5t-170 -53.5h-312zM218 142h141 q67 0 67 85q0 39 -16 64t-51 25h-141v-174zM218 450h134q30 0 46 18.5t16 50.5q0 39 -18 55t-44 16h-134v-140z" />
<glyph unicode="&#x1e03;" horiz-adv-x="557" d="M52 870v84q0 25 24 25h80q10 0 16 -7t6 -18v-84q0 -23 -22 -23h-80q-11 0 -17.5 6.5t-6.5 16.5zM33 0v785h163v-279q68 33 149 33q36 0 63 -8t46 -25t31.5 -39t19.5 -54.5t10 -67.5t3 -82q0 -135 -41 -202t-132 -67q-78 0 -147 58l-27 -52h-138zM198 158q32 -28 97 -28 q15 0 25.5 6t18 21.5t11.5 43t4 69.5q0 61 -7.5 94t-19 42.5t-32.5 9.5q-63 0 -97 -18v-240z" />
<glyph unicode="&#x1e0a;" horiz-adv-x="664" d="M250 821v84q0 25 24 25h80q11 0 17.5 -7t6.5 -18v-84q0 -23 -24 -23h-80q-10 0 -17 6.5t-7 16.5zM54 0v732h325q60 0 105 -20.5t72.5 -53.5t44.5 -82t23.5 -100t6.5 -113q0 -363 -252 -363h-325zM218 142h146q55 0 79 55t24 167q0 92 -13 143t-34 67t-56 16h-146v-448z " />
<glyph unicode="&#x1e0b;" horiz-adv-x="557" d="M373 868v84q0 25 24 25h80q11 0 17 -7t6 -18v-84q0 -23 -23 -23h-80q-11 0 -17.5 6.5t-6.5 16.5zM34 263q0 58 3.5 99t14.5 76.5t30.5 56.5t50 32.5t73.5 11.5q81 0 148 -33v279h164v-785h-138l-26 52q-70 -58 -148 -58q-92 0 -132 65t-40 204zM198 270 q0 -81 13.5 -110.5t44.5 -29.5q65 0 98 28v240q-35 18 -98 18q-21 0 -32.5 -9.5t-18.5 -42.5t-7 -94z" />
<glyph unicode="&#x1e1e;" horiz-adv-x="567" d="M250 819v84q0 25 24 25h80q23 0 23 -25v-84q0 -23 -23 -23h-80q-24 0 -24 23zM50 0v569q0 87 50.5 125.5t120.5 37.5q237 -4 324 -16v-137h-279q-19 0 -30 -4t-15.5 -14t-5.5 -17t-1 -21v-83l284 -10v-136l-284 -9v-285h-164z" />
<glyph unicode="&#x1e1f;" horiz-adv-x="405" d="M178 874v84q0 25 24 25h80q10 0 16 -7t6 -18v-84q0 -23 -22 -23h-80q-11 0 -17.5 6.5t-6.5 16.5zM13 412v102l79 17v99q0 53 17 87t54.5 51.5t96.5 17.5q79 0 132 -24v-96l-86 2q-35 0 -43 -15t-8 -61q1 -4 1 -7v-54h110v-119h-110v-412h-164v412h-79z" />
<glyph unicode="&#x1e40;" horiz-adv-x="864" d="M368 820v84q0 25 24 25h80q11 0 17 -7t6 -18v-84q0 -23 -23 -23h-80q-11 0 -17.5 6.5t-6.5 16.5zM37 0l71 732h228l95 -460l97 460h227l73 -732h-161l-49 449l-93 -449h-185l-97 449l-44 -449h-162z" />
<glyph unicode="&#x1e41;" horiz-adv-x="867" d="M379 622v84q0 25 24 25h80q11 0 17 -7t6 -18v-84q0 -23 -23 -23h-80q-10 0 -17 6.5t-7 16.5zM40 0v531h135l29 -55q24 18 33 25t30 18.5t43 15.5t51 4q100 0 135 -65q43 30 85.5 47.5t96.5 17.5q31 0 55.5 -6.5t41.5 -19t28.5 -29.5t18.5 -39t9.5 -46t2.5 -53v-346h-164 v350q0 63 -47 63q-70 0 -106 -37q0 -3 0.5 -14.5t0.5 -14.5v-347h-164v350q0 63 -48 63q-34 0 -57 -9.5t-45 -32.5v-371h-164z" />
<glyph unicode="&#x1e56;" horiz-adv-x="610" d="M216 822v84q0 25 24 25h80q10 0 16 -7t6 -18v-84q0 -23 -22 -23h-80q-11 0 -17.5 6t-6.5 17zM48 0v732h320q33 0 59.5 -4t56.5 -18.5t50 -38.5t33.5 -67.5t13.5 -102.5q0 -65 -14.5 -112.5t-35 -72.5t-51.5 -38.5t-56 -16t-56 -1.5q-29 2 -90.5 10t-65.5 10v-280h-164z M212 402h141q32 0 47.5 22.5t15.5 74.5q-1 91 -63 91h-141v-188z" />
<glyph unicode="&#x1e57;" horiz-adv-x="557" d="M224 623v84q0 25 24 25h80q11 0 17 -7t6 -18v-84q0 -23 -23 -23h-80q-11 0 -17.5 6.5t-6.5 16.5zM40 -270v801h138l27 -51q69 57 147 57q92 0 132.5 -67.5t40.5 -201.5q0 -52 -4 -90.5t-15 -75t-30 -59.5t-50 -37t-74 -14q-81 0 -148 32v-294h-164zM205 132 q34 -17 98 -17q20 0 31.5 9.5t19 42.5t7.5 93q0 82 -14 111.5t-44 29.5q-66 0 -98 -28v-241z" />
<glyph unicode="&#x1e60;" horiz-adv-x="593" d="M230 824v84q0 25 24 25h80q10 0 16 -7t6 -18v-84q0 -23 -22 -23h-80q-11 0 -17.5 6.5t-6.5 16.5zM44 483v62q0 189 198 193q188 5 295 -31v-128q-102 10 -243 10q-48 1 -67 -9.5t-19 -49.5v-25q0 -18 3 -29t11.5 -18t21.5 -10t34 -3h106q36 0 65 -9.5t48 -25.5t32.5 -36 t20.5 -43.5t10.5 -44.5t3.5 -43v-42q0 -51 -12 -89t-31 -60.5t-46.5 -36t-54.5 -18.5t-59 -5q-118 0 -174.5 6t-119.5 26v128q110 -11 257 -11q36 0 56 11t20 42v29q0 30 -13 44t-47 14h-103q-33 0 -60.5 6t-46.5 17.5t-34 25t-24 31t-15 33t-8.5 34t-3.5 30.5t-1 25z" />
<glyph unicode="&#x1e61;" horiz-adv-x="509" d="M197 622v84q0 25 24 25h80q11 0 17 -7t6 -18v-84q0 -23 -23 -23h-80q-11 0 -17.5 6.5t-6.5 16.5zM26 343v46q0 43 13 74.5t44.5 52t80.5 20.5q80 0 125.5 -1t97.5 -8.5t69 -21.5v-100h-233q-19 0 -26 -5.5t-7 -22.5v-16q0 -17 8 -21.5t25 -4.5h115q51 0 84 -19.5 t46.5 -49.5t13.5 -72v-56q0 -75 -37 -109t-93 -34q-80 0 -127.5 1t-103.5 9t-73 23v99h243q27 0 27 26v16q0 14 -5.5 20.5t-21.5 6.5h-111q-154 0 -154 147z" />
<glyph unicode="&#x1e6a;" horiz-adv-x="599" d="M237 820v84q0 25 24 25h80q11 0 17 -7t6 -18v-84q0 -23 -23 -23h-80q-11 0 -17.5 6.5t-6.5 16.5zM26 583v149h553v-149h-197v-583h-164v583h-192z" />
<glyph unicode="&#x1e6b;" horiz-adv-x="383" d="M115 763v84q0 25 24 25h80q11 0 17 -7t6 -18v-84q0 -23 -23 -23h-80q-11 0 -17.5 6.5t-6.5 16.5zM13 413v86l81 33l26 148h138v-148h106v-119h-106v-193q0 -52 10 -72t32 -30q52 -20 58 -20v-98h-134q-41 0 -69 17.5t-44.5 60.5t-16.5 112v223h-81z" />
<glyph unicode="&#x1e80;" horiz-adv-x="1004" d="M344 936h132l85 -140h-99zM30 732h173l144 -521l114 521h174l-45 -172l110 -351l115 523h173l-192 -732h-194l-84 273l-74 -273h-194z" />
<glyph unicode="&#x1e81;" horiz-adv-x="835" d="M253 735h133l84 -140h-99zM13 531h175l88 -347l80 347h160l-30 -133l78 -214l84 347h175l-160 -531h-187l-65 168l-51 -168h-188z" />
<glyph unicode="&#x1e82;" horiz-adv-x="1004" d="M462 796l85 140h132l-118 -140h-99zM30 732h173l144 -521l114 521h174l-45 -172l110 -351l115 523h173l-192 -732h-194l-84 273l-74 -273h-194z" />
<glyph unicode="&#x1e83;" horiz-adv-x="835" d="M371 595l85 140h132l-118 -140h-99zM13 531h175l88 -347l80 347h160l-30 -133l78 -214l84 347h175l-160 -531h-187l-65 168l-51 -168h-188z" />
<glyph unicode="&#x1e84;" horiz-adv-x="1004" d="M317 857.5q0 25.5 18.5 43.5t44 18t43 -17.5t17.5 -43.5t-17.5 -44t-43 -18t-44 18t-18.5 43.5zM572 858q0 17 8.5 31t22.5 22t31 8q26 0 44 -17.5t18 -43.5t-18 -44t-43.5 -18t-44 18t-18.5 44zM30 732h173l144 -521l114 521h174l-45 -172l110 -351l115 523h173 l-192 -732h-194l-84 273l-74 -273h-194z" />
<glyph unicode="&#x1e85;" horiz-adv-x="835" d="M232 657q0 25 18.5 43t44 18t43.5 -18t18 -43.5t-18 -43.5t-43.5 -18t-44 18.5t-18.5 43.5zM488 657q0 17 8 31t22.5 22t31.5 8q25 0 43 -18t18 -43.5t-18 -43.5t-43.5 -18t-43.5 18.5t-18 43.5zM13 531h175l88 -347l80 347h160l-30 -133l78 -214l84 347h175l-160 -531 h-187l-65 168l-51 -168h-188z" />
<glyph unicode="&#x1ef2;" horiz-adv-x="666" d="M172 938h133l85 -141h-100zM30 732h178l126 -339l138 339h178l-236 -517v-215h-164v215z" />
<glyph unicode="&#x1ef3;" horiz-adv-x="587" d="M127 736h133l84 -140h-99zM14 531h171l78 -356q9 -36 49 -39l90 395h168l-166 -699l-72 -102h-119l68 270q-136 0 -172 144z" />
<glyph unicode="&#x2013;" horiz-adv-x="513" d="M20 220v135h473v-135h-473z" />
<glyph unicode="&#x2014;" horiz-adv-x="736" d="M20 222v135h696v-135h-696z" />
<glyph unicode="&#x2018;" horiz-adv-x="255" d="M54 502v144q0 35 14.5 57.5t35.5 30t42 9.5t35 -1l15 -2v-63q-32 1 -32 -31v-19h12q25 0 25 -25v-100q0 -28 -25 -28h-98q-24 0 -24 28z" />
<glyph unicode="&#x2019;" horiz-adv-x="255" d="M54 616v100q0 28 26 28h97q24 0 24 -28v-145q0 -35 -14.5 -57.5t-35.5 -30t-42 -9.5t-35 1l-15 2v63q32 -1 32 32v18h-11q-12 0 -19 6.5t-7 19.5z" />
<glyph unicode="&#x201a;" horiz-adv-x="255" d="M54 26v100q0 28 26 28h97q24 0 24 -28v-145q0 -35 -14.5 -57.5t-35.5 -30t-42 -9.5t-35 1l-15 2v63q32 -1 32 32v18h-11q-12 0 -19 6.5t-7 19.5z" />
<glyph unicode="&#x201c;" horiz-adv-x="428" d="M233 500v145q0 35 14.5 57.5t35.5 29.5t42 9t36 0l14 -3v-62q-32 0 -32 -32v-18h12q7 0 12.5 -2.5t9 -8.5t3.5 -15v-100q0 -28 -25 -28h-97q-25 0 -25 28zM49 500v145q0 35 14.5 57.5t35.5 29.5t42 9t36 0l14 -3v-62q-31 0 -31 -32v-18h11q11 0 18 -6.5t7 -19.5v-100 q0 -28 -25 -28h-97q-25 0 -25 28z" />
<glyph unicode="&#x201d;" horiz-adv-x="428" d="M49 614v100q0 28 25 28h98q24 0 24 -28v-144q0 -36 -14.5 -58.5t-35.5 -29.5t-42 -9t-35 0l-15 3v62q32 0 32 32v18h-12q-7 0 -12.5 3t-9 9t-3.5 14zM233 614v100q0 28 25 28h98q24 0 24 -28v-144q0 -36 -14.5 -58.5t-35.5 -29.5t-42 -9t-35 0l-15 3v62q32 0 32 32v18 h-12q-11 0 -18 6.5t-7 19.5z" />
<glyph unicode="&#x201e;" horiz-adv-x="428" d="M49 26v100q0 28 25 28h98q24 0 24 -28v-145q0 -35 -14.5 -57.5t-35.5 -30t-42 -9.5t-35 1l-15 2v63q32 -1 32 32v18h-12q-7 0 -12.5 2.5t-9 8.5t-3.5 15zM233 26v100q0 28 25 28h98q24 0 24 -28v-145q0 -35 -14.5 -57.5t-35.5 -30t-42 -9.5t-35 1l-15 2v63q32 -1 32 32 v18h-12q-11 0 -18 6.5t-7 19.5z" />
<glyph unicode="&#x2020;" horiz-adv-x="460" d="M13 440v127l133 13l12 190h146l11 -190l132 -13v-127l-132 -14l-13 -498h-145l-11 498z" />
<glyph unicode="&#x2021;" horiz-adv-x="473" d="M13 136v127l136 17l-3 146l-133 14v127l133 13l12 190h146l11 -190l132 -13v-127l-132 -14l-3 -147l135 -16v-127l-140 -15l-5 -193h-145l-4 192z" />
<glyph unicode="&#x2022;" horiz-adv-x="308" d="M57 315v132q0 35 33 35h127q35 0 35 -35v-132q0 -32 -35 -32h-127q-15 0 -24 8.5t-9 23.5z" />
<glyph unicode="&#x2026;" horiz-adv-x="804" d="M175 23v102q0 25 24 25h98q25 0 25 -25v-102q0 -23 -25 -23h-98q-10 0 -17 6.5t-7 16.5zM311 23v102q0 25 24 25h98q25 0 25 -25v-102q0 -23 -25 -23h-98q-10 0 -17 6.5t-7 16.5zM447 23v102q0 25 24 25h98q25 0 25 -25v-102q0 -23 -25 -23h-98q-10 0 -17 6.5t-7 16.5z " />
<glyph unicode="&#x2030;" horiz-adv-x="1378" d="M28 482v118q0 66 32 99t105 33h101q71 0 102.5 -33t31.5 -99v-118q0 -67 -31.5 -100t-104.5 -33h-101q-48 0 -78 15.5t-43.5 44.5t-13.5 73zM138 504q0 -16 3.5 -25t13 -14.5t27.5 -5.5h63q28 0 36.5 10.5t8.5 34.5v73q0 27 -9.5 36t-33.5 9h-63q-25 0 -35.5 -9.5 t-10.5 -35.5v-73zM201 0l450 732h111l-445 -732h-116zM565 135v118q0 67 31.5 100t104.5 33h101q72 0 103.5 -33.5t31.5 -99.5v-118q0 -66 -31.5 -99t-105.5 -33h-101q-72 0 -103 33t-31 99zM675 158q0 -24 9 -34.5t34 -10.5h63q28 0 37 10.5t9 34.5v73q0 26 -10 35.5 t-34 9.5h-63q-24 0 -34.5 -9.5t-10.5 -35.5v-73zM979 135v118q0 26 4.5 46.5t14.5 37t26 27t38.5 16.5t53.5 6h100q72 0 103.5 -33.5t31.5 -99.5v-118q0 -44 -13 -72.5t-43.5 -44t-80.5 -15.5h-100q-72 0 -103.5 33t-31.5 99zM1089 158q0 -24 9 -34.5t34 -10.5h64 q28 0 36.5 10.5t8.5 34.5v73q0 26 -9.5 35.5t-33.5 9.5h-64q-24 0 -34.5 -9.5t-10.5 -35.5v-73z" />
<glyph unicode="&#x2039;" horiz-adv-x="356" d="M34 354l206 203l85 -84l-121 -119l123 -122l-83 -86z" />
<glyph unicode="&#x203a;" horiz-adv-x="356" d="M34 232l123 122l-121 119l85 84l206 -203l-211 -208z" />
<glyph unicode="&#x2044;" horiz-adv-x="354" d="M-61 0l362 760h114l-361 -760h-115z" />
<glyph unicode="&#x2070;" horiz-adv-x="463" d="M40 491v233q0 63 35 95.5t101 32.5h118q130 0 130 -124v-237q0 -61 -34 -92t-96 -31h-119q-135 0 -135 123zM166 520q0 -23 11 -31t32 -8h48q23 0 32.5 7.5t9.5 31.5v179q0 21 -9 30t-29 9h-56q-15 0 -24 -3.5t-11.5 -11.5t-3 -11t-0.5 -13v-179z" />
<glyph unicode="&#x2074;" horiz-adv-x="435" d="M11 512l157 340h126l-128 -278h90v96l23 50h102v-146h45v-96l-45 -7v-102h-125v89h-222z" />
<glyph unicode="&#x2075;" horiz-adv-x="415" d="M37 381v99h185q15 0 24.5 3t13 9t4 10t0.5 12v26q0 17 -7.5 26.5t-29.5 9.5h-51q-32 0 -32 -30h-106l15 306h315v-114h-207l-3 -71q32 23 113 16q59 -4 88.5 -38.5t29.5 -90.5v-64q0 -33 -11.5 -58t-30.5 -39.5t-42 -21.5t-49 -7q-73 0 -114 3t-105 14z" />
<glyph unicode="&#x2076;" horiz-adv-x="438" d="M36 622q0 66 10 112t28.5 70.5t39 35.5t47.5 14q88 13 233 -13v-96h-168q-18 0 -31 -5.5t-19.5 -13t-9.5 -21t-4 -23t-1 -25.5q42 15 122 15q72 0 100 -32t28 -90v-64q0 -118 -131 -118h-102q-34 0 -58.5 10.5t-44 37t-29.5 78t-10 128.5zM161 564q0 -40 11.5 -61 t45.5 -21h34q19 0 26.5 6t7.5 23v23q0 18 -5.5 24t-24.5 6h-95z" />
<glyph unicode="&#x2077;" horiz-adv-x="409" d="M10 738v114h357l31 -52l-183 -432h-136l157 370h-226z" />
<glyph unicode="&#x2078;" horiz-adv-x="463" d="M44 482v41q0 29 14.5 50t41.5 26q-35 15 -45.5 38t-10.5 60v43q0 116 136 116h113q42 0 69.5 -11t42.5 -36.5t15 -67.5v-32q0 -8 -2 -18t-7 -23t-17 -22.5t-28 -11.5q54 -10 54 -94v-53q0 -37 -10 -62t-29 -37t-39.5 -16.5t-47.5 -4.5h-115q-31 0 -54.5 5.5t-37.5 15 t-23 20t-13 25.5t-5.5 25.5t-1.5 23.5zM169 504q0 -16 8 -22.5t28 -6.5h55q20 0 27 7t7 22v29q0 16 -7 23.5t-27 7.5h-55q-21 0 -28.5 -7.5t-7.5 -23.5v-29zM169 696q0 -18 8.5 -24t27.5 -6h54q23 0 29 7.5t6 22.5v19q0 21 -9 27t-27 6h-51q-14 0 -21.5 -2t-12 -9.5 t-4.5 -21.5v-19z" />
<glyph unicode="&#x2079;" horiz-adv-x="438" d="M30 674v65q0 120 131 120h102q34 0 58.5 -11t44 -38.5t29.5 -80t10 -131.5q0 -66 -10 -113t-28.5 -72t-38.5 -36.5t-48 -14.5q-93 -14 -232 13v97h167q18 0 31 5.5t19.5 13.5t9.5 22t4 24t1 28q-42 -16 -121 -16q-73 0 -101 33t-28 92zM155 691q0 -20 6 -26.5t25 -6.5h94 q0 44 -11 65.5t-45 21.5h-36q-18 0 -25.5 -6.5t-7.5 -24.5v-23z" />
<glyph unicode="&#x207f;" horiz-adv-x="404" d="M25 378v353h101l21 -41q17 14 23.5 19t22 14t32.5 12t39 3q66 0 90.5 -33.5t24.5 -94.5v-232h-125v224q0 40 -33 40q-42 0 -71 -26v-238h-125z" />
<glyph unicode="&#x2080;" horiz-adv-x="463" d="M40 -76v232q0 63 35 95.5t101 32.5h118q130 0 130 -124v-236q0 -62 -34 -93t-96 -31h-119q-135 0 -135 124zM166 -47q0 -24 11 -31.5t32 -7.5h48q23 0 32.5 7.5t9.5 30.5v180q0 21 -9 29.5t-29 8.5h-56q-15 0 -24 -3.5t-11.5 -11.5t-3 -11t-0.5 -12v-179z" />
<glyph unicode="&#x2081;" horiz-adv-x="270" d="M11 157v73l93 54h123v-484h-125v376z" />
<glyph unicode="&#x2082;" horiz-adv-x="409" d="M21 178l-0.5 23t0 46.5l0.5 23.5q103 20 207 20q77 0 115.5 -40t38.5 -109q0 -98 -167 -228h167v-114h-358v109q30 19 62.5 42.5t74 57t68.5 66t27 54.5q0 29 -17 39t-61 10h-157z" />
<glyph unicode="&#x2083;" horiz-adv-x="414" d="M20 173v92q66 24 224 21q60 0 95 -33t35 -89v-28q0 -75 -59 -95q59 -20 59 -101v-21q0 -29 -8.5 -52t-25 -39t-42.5 -24t-59 -8q-6 0 -18 -1q-48 0 -73 1t-61 5.5t-63 14.5l1 93h156q41 0 55 6t14 26v9q0 20 -15.5 27t-49.5 8l-119 5v100l119 8q37 1 51.5 7.5t14.5 25.5 v9q0 19 -16.5 26t-49.5 7h-165z" />
<glyph unicode="&#x2084;" horiz-adv-x="440" d="M11 -55l157 339h130l-124 -277h87v95l23 51h102v-146h44v-97l-44 -6v-102h-125v88h-227z" />
<glyph unicode="&#x2085;" horiz-adv-x="418" d="M38 -12l15 296h318v-114h-209l-4 -70q32 23 115 16q60 -4 89.5 -39t29.5 -91v-64q0 -33 -11.5 -57.5t-31 -39t-42.5 -21.5t-50 -7q-73 0 -114 2.5t-106 14.5v99h187q15 0 24.5 2.5t13 9t4.5 10.5t1 12v25q0 17 -7.5 26.5t-29.5 9.5h-51q-34 0 -34 -20h-107z" />
<glyph unicode="&#x2086;" horiz-adv-x="438" d="M36 55q0 65 10 111t28.5 70.5t39 36t47.5 14.5q93 13 233 -13v-96h-168q-18 0 -31 -5.5t-19.5 -13t-9.5 -21.5t-4 -23t-1 -26q42 16 122 16q72 0 100 -32t28 -90v-65q0 -118 -131 -118h-102q-34 0 -58.5 10.5t-44 37.5t-29.5 78.5t-10 128.5zM161 -3q0 -41 11.5 -62 t45.5 -21h34q19 0 26.5 6.5t7.5 22.5v23q0 19 -5.5 25t-24.5 6h-95z" />
<glyph unicode="&#x2087;" horiz-adv-x="409" d="M10 171v113h357l31 -52l-183 -432h-136l157 371h-226z" />
<glyph unicode="&#x2088;" horiz-adv-x="463" d="M44 -44q0 19 6 34.5t18.5 26.5t31.5 15q-35 15 -45.5 38t-10.5 60v42q0 116 136 116h113q42 0 69.5 -11t42.5 -36.5t15 -66.5v-32q0 -12 -3 -26t-16.5 -30.5t-34.5 -19.5q16 -3 27.5 -13.5t16.5 -26t7.5 -28.5t2.5 -26v-52q0 -38 -10 -62.5t-29 -36.5t-39.5 -16.5 t-47.5 -4.5h-115q-31 0 -54.5 5t-37.5 15t-23 20.5t-13 25t-5.5 25t-1.5 24.5v41zM169 -35v-28q0 -11 3.5 -17t11 -9t21.5 -3h55q20 0 27 7t7 22v28q0 16 -7 23.5t-27 7.5h-55q-21 0 -28.5 -7t-7.5 -24zM169 128q0 -17 8.5 -23.5t27.5 -6.5h54q23 0 29 7.5t6 22.5v20 q0 20 -9 26t-27 6h-51q-14 0 -21.5 -2t-12 -9t-4.5 -21v-20z" />
<glyph unicode="&#x2089;" horiz-adv-x="438" d="M30 106v66q0 120 131 120h102q34 0 58 -11t44 -38.5t30 -79.5t10 -131q0 -53 -7 -94t-18 -66t-28 -41.5t-33.5 -24t-38.5 -10.5q-85 -12 -232 12v96h167q18 0 31 6t19.5 13.5t9.5 22t4 24.5t1 27q-42 -15 -121 -15q-73 0 -101 32.5t-28 91.5zM155 124q0 -21 6 -27.5 t25 -6.5h94q0 44 -11 66t-45 22h-36q-18 0 -25.5 -7t-7.5 -25v-22z" />
<glyph unicode="&#x20ac;" horiz-adv-x="620" d="M13 248v76l73 8v56l-73 8v72l73 10q0 21 1 37t6 45.5t14 51t28 47t44.5 42.5t65.5 28t90 11q51 0 132 -9.5t136 -28.5v-118q-141 14 -223 14q-27 0 -47.5 -2.5t-34 -6.5t-23 -13.5t-14.5 -17t-7.5 -22.5t-3 -26t-0.5 -32l234 -8v-76l-234 -6v-56l234 -8v-76 q-15 -1 -39.5 -1.5t-76 -1.5t-85.5 -2.5t-33 -2.5q0 -36 10.5 -59.5t30.5 -34.5t40 -14.5t49 -3.5q40 0 96.5 6t93.5 12l37 6v-116q-50 -24 -114.5 -33t-157.5 -9q-19 0 -38 1.5t-44.5 8t-47.5 16.5t-44.5 29t-38.5 44t-26 63t-10 84z" />
<glyph unicode="&#x2113;" horiz-adv-x="489" d="M20 256q26 22 57 56v260q0 81 52 124t151 43q70 0 119 -45t49 -134q0 -46 -20.5 -93t-54 -85.5t-66 -66.5t-66.5 -51v-29q0 -23 1.5 -37t7 -30t16 -25t29.5 -17.5t47 -13.5l16 -3.5t32.5 -6.5t19.5 -3v-98h-44.5h-89.5h-44q-77 0 -116 41t-39 138v18q-10 -8 -33 -20z M241 426q67 81 66 146q3 21 -14 33t-34.5 4.5t-17.5 -33.5v-150z" />
<glyph unicode="&#x2116;" horiz-adv-x="1122" d="M48 0v590q0 47 24 81.5t60 50.5t79.5 18t81.5 -11t66.5 -43t34.5 -71l99 -458q3 -14 13.5 -11.5t10.5 14.5v406q0 88 46 128t122 40h271q77 -1 108 -41t31 -140q0 -92 -34 -130.5t-120 -41.5h-36q-31 1 -51.5 4t-39 11.5t-29.5 22t-19.5 36t-12 54.5t-3.5 76h122 q0 -42 4 -61t11 -23.5t24 -4.5h24q23 0 30.5 9t7.5 48q0 42 -8 52.5t-41 10.5q-68 2 -128 2q-66 0 -90.5 -14t-24.5 -63v-397q0 -44 -23.5 -77.5t-59 -51t-78.5 -20t-80.5 9.5t-66 44t-35.5 78l-100 463q-2 7 -8 8.5t-11.5 -3t-5.5 -12.5v-583h-165z" />
<glyph unicode="&#x2122;" horiz-adv-x="710" d="M13 646v86h289v-86h-93v-263h-101v263h-95zM311 383l42 349h107l48 -194l36 194h110l46 -349h-101l-19 178l-27 -178h-91l-34 177l-15 -177h-102z" />
<glyph unicode="&#x212e;" horiz-adv-x="682" d="M40 266q0 113 84 192q44 38 95 56.5t123 18.5q65 0 114 -16t94 -50q86 -67 92 -209h-478h-3h-5.5t-2.5 -3t-1 -8v-133q0 -8 8.5 -20t25.5 -24.5t39 -23.5t53 -18t64 -7q55 0 106 23.5t84 60.5h56q-57 -61 -112 -83q-58 -22 -134 -22q-139 0 -218 74q-84 77 -84 192z M152 284q0 -6 2 -7.5t6 -1.5h358h6q5 -1 5.5 0t0.5 7v133q0 32 -63 65.5t-127 33.5q-37 0 -74 -11t-61 -26.5t-38.5 -31t-14.5 -24.5v-137z" />
<glyph unicode="&#x2202;" horiz-adv-x="630" d="M38 227q0 112 62.5 175t170.5 63q102 0 139 -57q-2 98 -29.5 140.5t-88.5 42.5q-53 0 -105 -15.5t-84 -35.5l-23 122q58 39 107.5 58.5t107.5 19.5q142 0 211 -92.5t69 -260.5q0 -87 -15.5 -156.5t-48.5 -123t-89 -83t-132 -29.5q-68 0 -123.5 24.5t-92 78t-36.5 129.5z M201 230q0 -42 27.5 -65t67.5 -23q28 0 49.5 17.5t32 44.5t15.5 50t5 42q-39 22 -96 22q-101 0 -101 -88z" />
<glyph unicode="&#x2206;" horiz-adv-x="710" d="M13 0l311 732h74l299 -732h-684zM234 142h282l-142 340z" />
<glyph unicode="&#x220f;" horiz-adv-x="653" d="M13 583v149h627v-149h-72v-583h-164v583h-156v-583h-164v583h-71z" />
<glyph unicode="&#x2211;" horiz-adv-x="565" d="M26 -48l214 318l-214 313v149h526v-149h-323l212 -313l-212 -318h323v-152h-526v152z" />
<glyph unicode="&#x2212;" horiz-adv-x="456" d="M20 289v134h416v-134h-416z" />
<glyph unicode="&#x221a;" horiz-adv-x="670" d="M13 224v149h176l68 -150l222 577h179l-308 -800h-162l-114 224h-61z" />
<glyph unicode="&#x221e;" horiz-adv-x="753" d="M34 341q0 36 6.5 64.5t23.5 54.5t51.5 40t84.5 14q105 0 174 -92q54 92 180 92q49 0 83.5 -14t51.5 -40t24 -54.5t7 -64.5t-8.5 -66t-27 -54.5t-52 -38t-78.5 -13.5q-57 0 -100.5 19t-81.5 72q-33 -54 -72.5 -72.5t-99.5 -18.5q-46 0 -79.5 13.5t-52 38t-26.5 54.5t-8 66 zM152 341q0 -11 1 -19.5t5 -17t10.5 -13.5t16.5 -8t24 -3q50 0 91 61q-16 26 -41 44t-50 18q-16 0 -27 -3.5t-17 -8t-9 -13.5t-3.5 -17t-0.5 -20zM450 340q40 -60 92 -60q59 0 59 61q0 31 -11 46.5t-48 15.5q-52 0 -92 -63z" />
<glyph unicode="&#x222b;" horiz-adv-x="442" d="M13 -78h53q17 0 29.5 6.5t20 20t12.5 27.5t7 35.5t3 37t1 39.5v418q0 87 15.5 150.5t52.5 103.5t93 40q24 0 43.5 -1.5t34 -5.5t22 -6t18 -7t11.5 -5v-101h-50q-25 0 -41 -13t-23 -38.5t-9.5 -51.5t-2.5 -65v-418q0 -143 -36.5 -217.5t-122.5 -74.5q-93 0 -131 25v101z " />
<glyph unicode="&#x2248;" horiz-adv-x="501" d="M34 264q76 70 146 70q30 0 75 -18t75 -18q32 0 53.5 8t58.5 30l26 -69q-34 -35 -66.5 -55t-73.5 -20q-23 0 -70.5 19t-79.5 19q-22 0 -41 -5.5t-42.5 -16t-40.5 -16.5zM34 446q76 71 146 71q30 0 75 -18.5t75 -18.5q32 0 53.5 8.5t58.5 30.5l26 -70q-34 -35 -66.5 -54.5 t-73.5 -19.5q-23 0 -70.5 19t-79.5 19q-22 0 -41 -6t-42.5 -16.5t-40.5 -15.5z" />
<glyph unicode="&#x2260;" horiz-adv-x="453" d="M13 174v136h152l47 80h-199v135h277l36 62h76l-36 -62h74v-135h-152l-47 -80h199v-136h-276l-43 -73h-76l43 73h-75z" />
<glyph unicode="&#x2264;" horiz-adv-x="441" d="M34 73v119h374v-119h-374zM34 358v148l374 122v-147l-207 -48l207 -57v-148z" />
<glyph unicode="&#x2265;" horiz-adv-x="441" d="M34 73v119h375v-119h-375zM34 228v148l208 57l-208 48v147l375 -122v-148z" />
<glyph unicode="&#x25ca;" horiz-adv-x="508" d="M13 373l207 359h74l201 -359l-201 -373h-74zM170 373l87 -163l83 163l-83 153z" />
<glyph unicode="&#xe000;" horiz-adv-x="530" d="M0 530h530v-530h-530v530z" />
<glyph unicode="&#xfb00;" horiz-adv-x="800" d="M13 412v102l99 17v89q0 28 7.5 53.5t24 49.5t47.5 38.5t74 14.5q84 0 140 -24v-96l-78 1q-18 0 -28.5 -4.5t-15.5 -16.5t-6 -23t-1 -33v-49h211v99q0 53 17 87t54.5 51.5t97.5 17.5q78 0 132 -24v-96l-86 2q-35 0 -43 -15t-8 -61v-7v-54h110v-119h-111v-412h-164v412 h-212v-412h-164v412h-97z" />
<glyph unicode="&#xfb03;" horiz-adv-x="1020" d="M13 412v102l99 17v89q0 28 7.5 53.5t24 49.5t47.5 38.5t74 14.5q84 0 140 -24v-96l-78 1q-14 0 -24 -4t-15 -8t-7.5 -17.5t-3 -20t-1.5 -27.5l-1 -49h200v35q0 93 61.5 155.5t163.5 64.5q28 0 76.5 -2.5t100.5 -9t71 -14.5v-96l-187 4q-122 2 -122 -110v-27l342 -10v-521 h-164v412h-178v-412h-164v412h-200v-412h-165v412h-97z" />
<glyph unicode="&#xfb04;" horiz-adv-x="1110" d="M13 412v102l99 17v89q0 28 7.5 53.5t24 49.5t47.5 38.5t74 14.5q84 0 140 -24v-96l-78 1q-18 0 -28.5 -4.5t-15.5 -16.5t-6 -22.5t-1 -33.5l-1 -49h204v43q0 34 5.5 63t15 51t24 38.5t31.5 27.5t39 18t44.5 10.5t49.5 3.5l308 -3v-564q0 -27 3 -45t8.5 -28.5t12.5 -16 t18 -10.5q53 -21 60 -21v-98h-126q-73 0 -106.5 43t-33.5 146v478l-113 1q-41 0 -58.5 -20.5t-17.5 -73.5v-43h110v-119h-111v-412h-164v412h-203v-412h-165v412h-97z" />
<glyph unicode="&#xfb06;" horiz-adv-x="888" d="M26 342v46q0 65 36 104t110 39h431l25 148h139v-148h105v-118h-105v-194q0 -38 5 -58.5t13 -28.5t24 -14q51 -20 56 -20v-99h-132q-65 0 -97.5 44t-32.5 146v215h-380q-19 0 -26 -5.5t-7 -22.5v-16q0 -18 8 -22.5t25 -4.5h115q51 0 84 -19t46.5 -49.5t13.5 -71.5v-55 q0 -75 -37 -109t-93 -34q-266 0 -304 33v99h243q27 0 27 26v15q0 14 -5.5 20.5t-21.5 6.5h-111q-154 0 -154 147z" />
<glyph horiz-adv-x="275" d="M66 606v102q0 23 22 23h100q11 0 17.5 -6.5t6.5 -16.5v-102q0 -25 -24 -25h-100q-10 0 -16 7t-6 18zM57 0l17 535h128l15 -535h-160z" />
<glyph horiz-adv-x="626" d="M47 184v256q0 93 49.5 142.5t138.5 49.5h164q181 0 181 -184v-264q0 -88 -47.5 -136t-134.5 -48h-164q-90 0 -138.5 47.5t-48.5 136.5zM211 215q0 -66 67 -66h72q34 0 50 13.5t16 51.5v204q0 66 -60 66h-83q-62 0 -62 -66v-203z" />
<glyph horiz-adv-x="371" d="M20 444v105l132 83h163v-632h-164v472z" />
<glyph horiz-adv-x="586" d="M28 491v123q146 28 303 27q114 0 168 -48.5t54 -148.5q0 -41 -19.5 -83.5t-46.5 -74t-63 -62t-59.5 -46.5t-46.5 -29h234v-149h-518v143q5 2 14 8q33 18 53 29t60 35t66.5 41.5t60 42.5t53.5 45.5t34 42.5t14 41q0 26 -13 40t-37 19t-69 4h-242z" />
<glyph horiz-adv-x="593" d="M34 490v121q41 14 97 21t111 7.5t117 -0.5q84 -2 134.5 -49.5t50.5 -130.5v-47q0 -114 -80 -143q80 -30 80 -151v-37q0 -88 -50 -135.5t-142 -47.5h-37h-39.5t-35 0.5t-37.5 1t-33.5 2t-36 3.5t-31 5t-33.5 7t-29 9v122h238q59 0 80 10t21 49v22q0 38 -21.5 50t-73.5 15 l-182 6v134l182 10q56 2 76.5 13.5t20.5 47.5v24q0 37 -25 49t-72 12h-250z" />
<glyph horiz-adv-x="627" d="M13 124l239 508h178l-192 -430h144v153l30 77h134v-230h68v-126l-68 -26v-148h-164v148h-335z" />
<glyph horiz-adv-x="606" d="M51 50h274q23 0 37.5 5.5t20.5 16.5t7.5 19.5t1.5 21.5v51q0 29 -12 46t-46 17h-72q-54 0 -54 -53h-156l22 458h453v-149h-294l-6 -137q26 18 67 22q29 3 95 0q84 -5 125.5 -55.5t41.5 -132.5v-99q0 -49 -17.5 -86.5t-46 -58t-61.5 -30.5t-68 -10q-103 0 -160.5 4 t-151.5 20v130z" />
<glyph horiz-adv-x="603" d="M44 384q0 330 172 350q136 17 324 -20v-125h-236q-26 0 -44.5 -10t-28.5 -23.5t-15 -37.5t-6.5 -42t-1.5 -46q61 20 180 20q36 0 63.5 -6t46.5 -17.5t32 -27t20.5 -36.5t10.5 -43t3 -48v-102q0 -171 -183 -171h-141q-38 0 -66 9.5t-53.5 35.5t-41.5 68.5t-25.5 110.5 t-9.5 161zM208 309q0 -85 17.5 -123t70.5 -38h50q30 0 42.5 11t12.5 44v46q0 35 -10.5 47.5t-40.5 12.5h-142z" />
<glyph horiz-adv-x="557" d="M20 483v149h476l42 -70l-238 -662h-177l213 583h-316z" />
<glyph horiz-adv-x="621" d="M50 173v64q0 44 20 75.5t57 39.5q-26 11 -42 27.5t-23 37t-9.5 38.5t-2.5 44v65q0 50 15 85t42.5 53.5t60 26.5t73.5 8h154q89 0 133 -40.5t44 -133.5v-49q0 -13 -2.5 -28t-9.5 -35t-23.5 -34.5t-39.5 -18.5q23 -4 39 -20t23 -38.5t10 -42t3 -38.5v-82q0 -45 -10.5 -77.5 t-26.5 -51.5t-40.5 -30t-47.5 -14.5t-53 -3.5h-153q-38 0 -68.5 7t-50 17t-34 26t-21.5 30t-11 33.5t-5 31.5t-1 28zM214 195q0 -29 14 -41t47 -12h75q32 0 45 13t13 40v57q0 55 -56 55h-80q-21 0 -34 -6.5t-18.5 -18.5t-5.5 -30v-57zM214 494q0 -32 14.5 -43t43.5 -11h79 q35 0 46 13t11 41v40q0 37 -14.5 49.5t-43.5 12.5h-75q-33 0 -47 -11.5t-14 -50.5v-40z" />
<glyph horiz-adv-x="603" d="M40 360v101q0 172 184 172h141q31 0 55.5 -7t47.5 -23t39.5 -44.5t29 -70.5t18.5 -102.5t6 -137.5q0 -330 -172 -350q-82 -8 -165 -2t-160 22v125h237q22 0 38.5 6t26.5 18.5t16.5 26t9.5 34t4 36t1 38.5q-61 -21 -181 -21q-30 0 -54.5 5t-42.5 13t-32 21t-22.5 27.5 t-14 33t-8 37.5t-2.5 42zM204 383q0 -36 10.5 -48t40.5 -12h142q0 85 -17.5 123t-71.5 38h-50q-29 0 -41.5 -11t-12.5 -44v-46z" />
<glyph horiz-adv-x="543" d="M26 192v64q0 104 53 153t169 41v86h126v-206h-52h-52q-39 -2 -59.5 -19.5t-20.5 -57.5v-37q0 -38 24 -56t75 -18h242v-122q-75 -17 -138.5 -24t-143.5 -4q-55 0 -98.5 17.5t-70 46.5t-40.5 64t-14 72zM239 606v102q0 24 24 24h99q11 0 17.5 -6.5t6.5 -17.5v-102 q0 -24 -24 -24h-99q-24 0 -24 24z" />
<glyph horiz-adv-x="877" d="M44 416q0 41 10.5 76t34.5 66t68.5 48.5t107.5 17.5h183q31 0 54 -2.5t49 -12.5t42.5 -27t27 -47.5t10.5 -72.5v-350h-102l-22 57l-7 -6.5t-19.5 -16.5t-29 -19.5t-41 -16t-49.5 -6.5q-63 -1 -95.5 40.5t-32.5 98.5v38q0 69 39 105t112 36h121q1 30 0 30q0 19 -6 29.5 t-17 13.5t-31 3h-186q-21 0 -35.5 -3t-29 -12t-22 -27.5t-7.5 -47.5v-266q0 -60 28 -85t66 -25h326q58 0 80.5 27.5t22.5 82.5v438q0 56 -28 86.5t-75 30.5h-404v100q46 9 136 18t175 9h93q36 -1 67.5 -8.5t62 -25.5t52 -45t35 -69.5t13.5 -95.5v-438q0 -122 -56 -180 t-166 -58h-334q-46 0 -84.5 12.5t-69.5 37.5t-49 69.5t-18 104.5v288zM367 265q0 -35 41 -35q66 0 97 39v63l-101 -8q-20 -2 -28.5 -11t-8.5 -28q-1 -1 -1 -10t1 -10z" />
<glyph horiz-adv-x="555" d="M34 280q0 262 198 262q78 0 160.5 -10t122.5 -23v-553q0 -110 -59.5 -174.5t-166.5 -53.5l-236 24v109h213q20 0 36 6t27 17.5t16.5 29.5t5.5 42v84q-45 -38 -119 -38q-111 0 -154.5 67t-43.5 211zM198 285q0 -37 0.5 -57.5t4 -43.5t11 -33.5t21 -17.5t33.5 -7 q46 0 83 20v276h-82q-14 0 -25.5 -4.5t-19 -11.5t-13 -19t-8 -22t-4 -26t-1.5 -26.5v-27.5z" />
<glyph horiz-adv-x="991" d="M30 332v84q0 65 15.5 107t51 65t81 31.5t115.5 9.5h426l18 115h146v-117h95v-110l-95 -19v-268q0 -232 -270 -232h-164q-42 1 -78.5 10t-67 28t-48 52.5t-17.5 76.5q-45 0 -80 7.5t-65.5 25t-46.5 51.5t-16 83zM194 338q0 -27 10.5 -38.5t33.5 -11.5q0 88 50.5 126 t147.5 38h54q33 0 59.5 -4t51.5 -14.5t41.5 -28t27 -45t10.5 -64.5q0 -23 -3.5 -41t-12 -31t-17.5 -22.5t-24.5 -15t-27.5 -9t-33 -5t-35 -2t-39 -0.5h-86q0 -15 6 -23.5t16.5 -12t27.5 -4.5h161q40 0 64 12.5t33 34t9 55.5v265h-418q-48 0 -71 -8.5t-29.5 -23.5t-6.5 -49 v-78zM402 286h84q17 0 23.5 4.5t6.5 21.5q0 15 -6.5 19.5t-23.5 4.5h-42q-13 0 -18.5 -1t-12 -5.5t-9 -15t-2.5 -28.5z" />
<glyph horiz-adv-x="373" d="M20 468v30q0 42 27.5 69.5t88.5 27.5q86 0 86 1q1 9 0 10q0 25 -10.5 31.5t-36.5 6.5q-15 0 -143 -9v75q19 8 36.5 13.5t37.5 8.5t40 4.5t47 1.5q76 0 115 -25.5t39 -91.5v-243h-97l-28 43q-5 -14 -31.5 -31t-60.5 -16q-22 1 -41 7t-31.5 15t-21 21t-12.5 25t-4 26z M136 488q0 -11 5 -17.5t11 -7.5t16 -1q16 0 30 5.5t19 11.5l5 6v49l-60 -6q-26 -2 -26 -30v-10z" />
<glyph horiz-adv-x="404" d="M25 378v523h125v-181q51 24 104 24q39 0 64.5 -11.5t38.5 -37.5t18 -58t5 -80q0 -92 -29.5 -137.5t-96.5 -45.5q-53 0 -103 43l-22 -39h-104zM151 495q24 -17 63 -17q22 0 31.5 17.5t9.5 66.5q0 54 -10 71t-32 17q-36 0 -62 -12v-143z" />
<glyph horiz-adv-x="350" d="M20 555q0 100 32.5 140.5t93.5 40.5q110 0 176 -26v-75q-52 4 -112 4h-5q-19 0 -27.5 -1.5t-17.5 -9t-11.5 -25.5t-2.5 -49q0 -35 5.5 -52.5t19 -24t39.5 -6.5q28 0 57 1t45 3l16 1v-74q-16 -10 -33.5 -16t-38.5 -8.5t-35.5 -3t-40 0t-34.5 -0.5q-59 0 -92.5 40.5 t-33.5 140.5z" />
<glyph horiz-adv-x="402" d="M20 557q0 100 25.5 143.5t100.5 43.5q54 0 104 -24v182h125v-524h-104l-22 39q-50 -43 -103 -43q-67 0 -96.5 44.5t-29.5 138.5zM146 562q0 -33 4.5 -52t13 -25.5t22.5 -6.5q39 0 63 17v143q-25 12 -63 12q-22 0 -31 -17t-9 -71z" />
<glyph horiz-adv-x="387" d="M20 556q0 103 36 140.5t134 37.5q32 0 54 -1.5t43.5 -6t34.5 -13.5t23.5 -23.5t15 -36.5t4.5 -51q0 -50 -28.5 -72t-83.5 -22h-107q0 -25 10 -31.5t53 -6.5q99 0 148 5v-79q-53 -22 -207 -22q-48 0 -76.5 19.5t-41 58.5t-12.5 104zM146 593h68q26 0 26 18q0 19 -8 25.5 t-35 6.5q-21 0 -31.5 -3.5t-15.5 -14t-4 -32.5z" />
<glyph horiz-adv-x="308" d="M18 643v78l54 3v69q0 56 30 82.5t94 26.5q56 0 96 -18v-73l-59 1q-24 1 -29.5 -9t-5.5 -38v-31h74v-91h-75v-265h-125v265h-54z" />
<glyph horiz-adv-x="419" d="M26 295v48l44 27q-17 5 -27.5 14t-16 23t-5.5 35q0 20 11 40t35 23q-43 23 -43 103q0 67 36 97.5t95 30.5h244v-68l-36 -18q10 -13 10 -69q0 -22 -6 -41t-20 -35.5t-39.5 -25.5t-60.5 -9h-86h-3q-8 0 -12.5 -0.5t-9.5 -4t-5 -11.5q0 -3 1 -6t3 -4.5t3.5 -3t5 -2t5.5 -1 t6.5 -0.5h6.5l111 -11q61 -5 86 -32t25 -86v-8q0 -16 -1.5 -28t-8.5 -28t-19.5 -27t-36 -19t-55.5 -8h-109q-57 0 -92.5 25.5t-35.5 79.5zM150 320q0 -13 3.5 -20t11 -10t21.5 -3h44q16 0 23 5t7 22v5q0 14 -8 19.5t-28 7.5l-48 6l-26 2v-34zM149 607q0 -17 4 -27t12.5 -15 t22.5 -5h27q22 0 28.5 12t6.5 36q0 38 -36 38h-28q-9 0 -15.5 -1.5t-11.5 -6t-7.5 -12.5t-2.5 -19z" />
<glyph horiz-adv-x="404" d="M25 378v522h125v-206q20 16 29.5 23t33.5 16t52 9q66 0 90 -34t24 -96v-234h-125v226q0 41 -33 41q-42 0 -71 -27v-240h-125z" />
<glyph horiz-adv-x="176" d="M23 775v77q0 19 18 19h95q16 0 16 -19v-77q0 -17 -16 -17h-95q-18 0 -18 17zM25 378v356h125v-356h-125z" />
<glyph horiz-adv-x="177" d="M24 778v76q0 19 18 19h94q18 0 18 -19v-76q0 -18 -18 -18h-94q-18 0 -18 18zM26 195v537h126v-358q2 -119 -30 -179h-96z" />
<glyph horiz-adv-x="416" d="M25 378v521h125v-284h16l91 115h142l-132 -155l131 -197h-134l-96 157h-18v-157h-125z" />
<glyph horiz-adv-x="237" d="M25 504v396h125v-368q0 -23 3 -36.5t8.5 -19t16.5 -9.5q36 -14 41 -14v-75h-92q-53 0 -77.5 28.5t-24.5 97.5z" />
<glyph horiz-adv-x="634" d="M25 378v353h102l19 -41q21 17 31 24t33 15.5t51 8.5q74 0 99 -50q61 50 134 50q65 0 90 -34t25 -95v-231h-125v222q0 41 -33 41q-46 0 -72 -23v-18v-222h-125v222q0 41 -34 41q-42 0 -70 -26v-237h-125z" />
<glyph horiz-adv-x="401" d="M20 550q0 103 39.5 144t139.5 41q99 0 138.5 -41.5t39.5 -143.5q0 -96 -39 -135.5t-139 -39.5q-67 0 -106.5 18.5t-56 56t-16.5 100.5zM146 551q0 -51 10.5 -65t42.5 -14q33 0 43 13t10 66q0 56 -9.5 71.5t-44.5 15.5q-33 0 -42.5 -16.5t-9.5 -70.5z" />
<glyph horiz-adv-x="403" d="M25 192v545h104l21 -39q50 43 104 43q66 0 95.5 -46.5t29.5 -138.5q0 -35 -3 -62t-11 -52t-21.5 -40.5t-36 -25t-53.5 -9.5q-55 0 -104 25v-200h-125zM150 472q26 -12 63 -12q22 0 31.5 18t9.5 73q0 26 -2.5 43t-8 26.5t-12 12.5t-17.5 3q-41 0 -64 -18v-146z" />
<glyph horiz-adv-x="402" d="M20 556q0 96 37.5 140t109.5 44q58 0 118.5 -7t88.5 -17v-524h-125v203q-33 -30 -83 -30q-42 0 -70.5 12.5t-44.5 37.5t-23.5 59t-7.5 82zM146 559q0 -23 0.5 -35.5t3 -27t7.5 -21t14.5 -11t23.5 -4.5q28 0 54 12v176h-53q-18 0 -29 -7.5t-15 -23t-5 -27.5t-1 -31z" />
<glyph horiz-adv-x="304" d="M25 378v353h109l12 -50q42 54 96 54q27 0 39 -4v-120q-21 1 -53 1q-31 0 -49.5 -7t-28.5 -29v-198h-125z" />
<glyph horiz-adv-x="363" d="M20 612v30q0 95 96 95q141 0 205 -25v-76h-163q-12 0 -17 -3.5t-5 -12.5v-9q0 -11 5.5 -13.5t17.5 -2.5h83q51 0 74.5 -23t23.5 -61v-39q0 -36 -14 -59t-33 -31.5t-43 -8.5q-188 0 -212 25v76h166q21 0 21 16v8q0 10 -4.5 13.5t-16.5 3.5h-78q-50 0 -78 24t-28 73z" />
<glyph horiz-adv-x="293" d="M18 644v66l56 17l20 104h105v-96h72v-91h-72v-116q0 -23 3 -35.5t8.5 -17.5t16.5 -9q34 -12 38 -12v-76h-95q-32 0 -52.5 12t-32 39.5t-11.5 72.5v142h-56z" />
<glyph horiz-adv-x="403" d="M24 501v230h125v-223q0 -40 33 -40q40 0 69 24v239h125v-353h-102l-23 44q-27 -28 -49 -39.5t-64 -11.5q-65 0 -89.5 34.5t-24.5 95.5z" />
<glyph horiz-adv-x="409" d="M17 731h120l67 -223l68 223h120l-127 -353h-125z" />
<glyph horiz-adv-x="598" d="M17 731h120l67 -223l58 223h112l-26 -89l49 -134l62 223h121l-122 -353h-120l-42 111l-36 -111h-120z" />
<glyph horiz-adv-x="415" d="M18 378l123 179l-123 174h134l56 -92l54 92h136l-124 -175l120 -178h-131l-55 97l-56 -97h-134z" />
<glyph horiz-adv-x="434" d="M17 732h117l58 -236q6 -26 30 -27l70 263h124l-122 -469l-55 -68h-90l49 180q-88 1 -111 95z" />
<glyph horiz-adv-x="360" d="M20 635v96h316v-95l-143 -160h143v-97h-305v96l153 160h-164z" />
<glyph horiz-adv-x="611" d="M39 184v356q0 92 50 142t139 50h164q50 0 86.5 -14.5t56.5 -41t29 -58t9 -70.5v-364q0 -88 -47.5 -136t-133.5 -48h-164q-91 0 -140 47.5t-49 136.5zM203 215q0 -66 68 -66h73q33 0 49 13.5t16 51.5v304q0 65 -59 65h-85q-62 0 -62 -65v-303z" />
<glyph horiz-adv-x="611" d="M132 544v105l135 83h163v-598h136v-134h-440v134h140v439z" />
<glyph horiz-adv-x="611" d="M38 592v122q143 28 304 28q110 0 166 -64.5t56 -167.5q0 -44 -21 -92.5t-46.5 -84.5t-66 -78t-62 -61.5t-51.5 -44.5h247v-149h-520v143q30 20 71 51t92 74.5t93 85.5t71 84t29 70q0 47 -28 65.5t-92 18.5h-242z" />
<glyph horiz-adv-x="611" d="M44 585v121q41 14 97.5 21t111.5 7.5t117 -0.5q55 -1 96.5 -22.5t64.5 -62t23 -95.5v-46q0 -115 -80 -144q80 -30 80 -152v-36q0 -88 -50 -135.5t-142 -47.5h-36.5h-39t-35 0.5t-38 1t-33.5 2t-36 3.5t-31.5 5t-33 7t-29.5 9l1 122h238q59 0 80 10t21 49v22q0 16 -4.5 27 t-11.5 18t-19.5 11t-26 6t-33.5 2l-183 8v132l183 10q55 3 76 14.5t21 47.5v24q0 37 -25 49t-72 12h-251z" />
<glyph horiz-adv-x="611" d="M19 224l239 508h178l-192 -430h144v153l30 77h134v-230h68v-126l-68 -26v-148h-164v148h-335z" />
<glyph horiz-adv-x="611" d="M51 20v130h274q23 0 37.5 5.5t20.5 16.5t7.5 19.5t1.5 21.5v51q0 29 -12 46t-46 17h-72q-54 0 -54 -53h-156l22 458h453v-149h-294l-6 -137q26 18 67 22q31 3 95 0q84 -5 125.5 -55.5t41.5 -132.5v-99q0 -49 -17.5 -86.5t-46 -58t-61.5 -30.5t-68 -10q-103 0 -160.5 4 t-151.5 20z" />
<glyph horiz-adv-x="611" d="M41 384q0 330 172 350q135 16 324 -20v-125h-236q-26 0 -45 -10t-28.5 -23.5t-15 -37.5t-6.5 -42t-1 -46q61 20 180 20q35 0 63 -6t47 -17.5t32 -27t20.5 -36.5t10.5 -43t3 -48v-102q0 -171 -183 -171h-141q-38 0 -66.5 9.5t-54 35.5t-41.5 68.5t-25 110.5t-9 161z M205 309q0 -85 17.5 -123t70.5 -38h50q30 0 42.5 11t12.5 44v46q0 35 -10.5 47.5t-40.5 12.5h-142z" />
<glyph horiz-adv-x="611" d="M56 583v149h476l42 -70l-238 -662h-177l213 583h-316z" />
<glyph horiz-adv-x="611" d="M46 173v64q0 44 19.5 75.5t56.5 39.5q-25 11 -41.5 27.5t-23.5 37t-9 38.5t-2 44v65q0 50 14.5 85t42 53.5t60 26.5t73.5 8h154q89 0 133 -40.5t44 -133.5v-49q0 -13 -2.5 -28t-9.5 -35t-23.5 -34.5t-39.5 -18.5q23 -4 39 -20t23.5 -38.5t10 -42t2.5 -38.5v-82 q0 -37 -7 -66.5t-20 -48.5t-28.5 -31.5t-37 -19t-41.5 -9t-44 -2.5h-153q-38 0 -68.5 7t-50 17t-34 26t-21.5 30t-11 33.5t-4.5 31.5t-0.5 28zM210 195q0 -29 13.5 -41t46.5 -12h76q31 0 44 13t13 40v57q0 55 -55 55h-80q-22 0 -35 -6.5t-18 -18.5t-5 -30v-57zM210 494 q0 -32 14.5 -43t43.5 -11h78q35 0 46 13t11 41v40q0 37 -14.5 49.5t-42.5 12.5h-76q-16 0 -25.5 -2t-18.5 -8t-12.5 -19t-3.5 -33v-40z" />
<glyph horiz-adv-x="611" d="M41 462v101q0 171 183 171h141q38 0 66.5 -9.5t54 -35t41.5 -68.5t25 -111t9 -161q0 -329 -172 -350q-142 -17 -324 21v124h236q22 0 38.5 6.5t27 19t17 25.5t9 34t3.5 36.5t1 38.5q-61 -21 -180 -21q-35 0 -63 6t-47 18t-32 27.5t-20.5 36t-10.5 42.5t-3 49zM204 484 q0 -35 10.5 -47.5t40.5 -12.5h142q0 42 -3 69t-12 49.5t-27 32.5t-46 10h-50q-15 0 -24.5 -2t-16.5 -8t-10.5 -17t-3.5 -28v-46z" />
<glyph horiz-adv-x="611" d="M39 184v256q0 93 50 142.5t139 49.5h164q181 0 181 -184v-264q0 -88 -47.5 -136t-133.5 -48h-164q-91 0 -140 47.5t-49 136.5zM203 215q0 -66 68 -66h73q33 0 49 13.5t16 51.5v204q0 66 -59 66h-85q-62 0 -62 -66v-203z" />
<glyph horiz-adv-x="611" d="M126 444v105l132 83h162v-498h135v-134h-435v134h136v338z" />
<glyph horiz-adv-x="611" d="M38 491v123q146 28 304 27q113 0 167.5 -48.5t54.5 -148.5q0 -41 -20 -83.5t-46.5 -74t-62.5 -62t-60 -46.5t-47 -29h234v-149h-518v143q5 3 15 8q39 22 63.5 36t71 41.5t77 50.5t63 50t49 52t16.5 47q0 38 -26.5 51t-92.5 12h-242z" />
<glyph horiz-adv-x="611" d="M44 490v121q41 14 97.5 21t111.5 7h117q55 -1 96.5 -22.5t64.5 -62t23 -95.5v-47q0 -114 -80 -143q80 -30 80 -152v-36q0 -88 -50 -135.5t-142 -47.5h-36.5h-39h-35t-38 1t-33.5 2.5t-36 3.5t-31.5 5t-33 7t-29.5 9l1 122h238q59 0 80 10t21 49v21q0 38 -22 50.5 t-73 14.5l-183 7v133l183 10q55 3 76 14.5t21 47.5v24q0 37 -25 49t-72 12h-251z" />
<glyph horiz-adv-x="611" d="M19 124l239 508h178l-192 -430h144v153l30 77h134v-230h68v-126l-68 -26v-148h-164v148h-335z" />
<glyph horiz-adv-x="611" d="M51 50h274q23 0 37.5 5.5t20.5 16.5t7.5 19.5t1.5 21.5v51q0 29 -12 46t-46 17h-72q-54 0 -54 -53h-156l22 458h453v-149h-294l-6 -137q26 18 67 22q29 3 95 0q84 -5 125.5 -55.5t41.5 -132.5v-99q0 -49 -17.5 -86.5t-46 -58t-61.5 -30.5t-68 -10q-103 0 -160.5 4 t-151.5 20v130z" />
<glyph horiz-adv-x="611" d="M41 384q0 330 172 350q135 16 324 -20v-125h-236q-26 0 -45 -10t-28.5 -23.5t-15 -37.5t-6.5 -42t-1 -46q61 20 180 20q35 0 63 -6t47 -17.5t32 -27t20.5 -36.5t10.5 -43t3 -48v-102q0 -171 -183 -171h-141q-38 0 -66.5 9.5t-54 35.5t-41.5 68.5t-25 110.5t-9 161z M205 309q0 -85 17.5 -123t70.5 -38h50q30 0 42.5 11t12.5 44v46q0 35 -10.5 47.5t-40.5 12.5h-142z" />
<glyph horiz-adv-x="611" d="M55 483v149h476l42 -70l-238 -662h-177l213 583h-316z" />
<glyph horiz-adv-x="611" d="M46 173v64q0 44 19.5 75.5t56.5 39.5q-25 11 -41.5 27.5t-23.5 37t-9 38.5t-2 44v65q0 50 14.5 85t42 53.5t60 26.5t73.5 8h154q89 0 133 -40.5t44 -133.5v-49q0 -13 -2.5 -28t-9.5 -35t-23.5 -34.5t-39.5 -18.5q23 -4 39 -20t23.5 -38.5t10 -42t2.5 -38.5v-82 q0 -37 -7 -66.5t-20 -48.5t-28.5 -31.5t-37 -19t-41.5 -9t-44 -2.5h-153q-38 0 -68.5 7t-50 17t-34 26t-21.5 30t-11 33.5t-4.5 31.5t-0.5 28zM210 195q0 -29 13.5 -41t46.5 -12h76q31 0 44 13t13 40v57q0 55 -55 55h-80q-22 0 -35 -6.5t-18 -18.5t-5 -30v-57zM210 494 q0 -32 14.5 -43t43.5 -11h78q35 0 46 13t11 41v40q0 37 -14.5 49.5t-42.5 12.5h-76q-16 0 -25.5 -2t-18.5 -8t-12.5 -19t-3.5 -33v-40z" />
<glyph horiz-adv-x="611" d="M41 360v101q0 172 183 172h141q31 0 56 -7t47.5 -23t39 -44.5t29 -70.5t18.5 -102.5t6 -137.5q0 -330 -172 -350q-81 -8 -164 -2t-160 22v125h236q22 0 38.5 6t27 18.5t17 26t9 34t3.5 36t1 38.5q-61 -21 -180 -21q-35 0 -63 6t-47 18t-32 27.5t-20.5 36.5t-10.5 43 t-3 48zM204 383q0 -36 10.5 -48t40.5 -12h142q0 85 -17.5 123t-70.5 38h-50q-30 0 -42.5 -11t-12.5 -44v-46z" />
<glyph horiz-adv-x="555" d="M174 714h62q0 -24 14 -38t38 -14q54 0 54 52h62q0 -34 -15 -60t-41.5 -40t-59.5 -14q-50 0 -82 31.5t-32 82.5zM34 280q0 262 198 262q78 0 160.5 -10t122.5 -23v-553q0 -110 -59.5 -174.5t-166.5 -53.5l-236 24v109h213q20 0 36 6t27 17.5t16.5 29.5t5.5 42v84 q-45 -38 -119 -38q-111 0 -154.5 67t-43.5 211zM198 285q0 -37 0.5 -57.5t4 -43.5t11 -33.5t21 -17.5t33.5 -7q46 0 83 20v276h-82q-14 0 -25.5 -4.5t-19 -11.5t-13 -19t-8 -22t-4 -26t-1.5 -26.5v-27.5z" />
<glyph horiz-adv-x="555" d="M224 624v84q0 25 24 25h80q11 0 17 -7t6 -18v-84q0 -23 -23 -23h-80q-10 0 -17 6.5t-7 16.5zM34 280q0 262 198 262q78 0 160.5 -10t122.5 -23v-553q0 -110 -59.5 -174.5t-166.5 -53.5l-236 24v109h213q20 0 36 6t27 17.5t16.5 29.5t5.5 42v84q-45 -38 -119 -38 q-111 0 -154.5 67t-43.5 211zM198 285q0 -37 0.5 -57.5t4 -43.5t11 -33.5t21 -17.5t33.5 -7q46 0 83 20v276h-82q-14 0 -25.5 -4.5t-19 -11.5t-13 -19t-8 -22t-4 -26t-1.5 -26.5v-27.5z" />
<glyph horiz-adv-x="555" d="M131 600l104 138h116l94 -138h-101l-54 56l-57 -56h-102zM34 280q0 262 198 262q78 0 160.5 -10t122.5 -23v-553q0 -110 -59.5 -174.5t-166.5 -53.5l-236 24v109h213q20 0 36 6t27 17.5t16.5 29.5t5.5 42v84q-45 -38 -119 -38q-111 0 -154.5 67t-43.5 211zM198 285 q0 -37 0.5 -57.5t4 -43.5t11 -33.5t21 -17.5t33.5 -7q46 0 83 20v276h-82q-14 0 -25.5 -4.5t-19 -11.5t-13 -19t-8 -22t-4 -26t-1.5 -26.5v-27.5z" />
<glyph horiz-adv-x="855" d="M26 261q0 68 10 117.5t25.5 79t40 46.5t49.5 23t59 6l363 -1l25 147h139v-148h105v-119h-105v-193q0 -38 5 -58.5t13 -28.5t24 -14q51 -20 56 -20v-99h-132q-65 0 -97.5 44t-32.5 146v223l-281 -1h-7q-16 0 -23.5 -0.5t-19.5 -3t-18 -8t-13.5 -16.5t-11 -27.5t-6.5 -41 t-3 -57.5q0 -34 2 -57t7.5 -38.5t11.5 -23.5t19 -12.5t24 -5t32 -0.5q41 0 85 2t68 4l23 2v-99q-57 -21 -111.5 -28.5t-146.5 -7.5q-34 0 -58 5.5t-48 22t-38.5 45.5t-24 78t-9.5 117z" />
<glyph horiz-adv-x="762" d="M13 413v86l81 33l26 148h138v-148h221l26 148h138v-148h106v-119h-106v-193q0 -38 5.5 -58.5t13.5 -28.5t24 -15q51 -20 56 -20v-98h-132q-65 0 -98 44t-33 146v223h-221v-193q0 -38 5.5 -58.5t13 -28.5t23.5 -15q51 -20 56 -20v-98h-132q-65 0 -97.5 44t-32.5 146v223 h-81z" />
<glyph horiz-adv-x="758" d="M13 412v102l79 17v99q0 53 17 87t54.5 51.5t97.5 17.5q78 0 131 -24v-96l-85 2q-35 0 -43 -15t-8 -61v-7v-53h220l26 148h138v-148h106v-119h-106v-193q1 -38 6 -58.5t12.5 -28.5t23.5 -15q51 -20 56 -20v-98h-132q-65 0 -97.5 44t-32.5 146v223h-220v-413h-164v412h-79z " />
<glyph horiz-adv-x="967" d="M13 413v86l81 33l26 148h138v-148h141q44 0 77.5 -8.5t56.5 -26t37 -41.5t22 -57l55 -224q9 -36 49 -39l90 395h169l-165 -699l-73 -102h-121l70 270q-136 0 -173 144l-53 192q-11 45 -31.5 61t-65.5 16h-85v-193q0 -38 5.5 -58.5t13 -28.5t23.5 -15q51 -20 56 -20v-98 h-132q-65 0 -97.5 44t-32.5 146v223h-81z" />
<glyph horiz-adv-x="985" d="M13 412v102l79 17v99q0 53 17 87t54.5 51.5t97.5 17.5q73 0 131 -26v-96l-85 4q-41 1 -48 -26q-3 -13 -3 -57v-54h154q61 0 102 -15.5t63 -44t33 -72.5l56 -223q10 -37 49 -40l91 395h168l-165 -699l-73 -102h-120l70 270q-137 0 -174 145l-54 191q-11 45 -32 61t-67 15 h-101v-412h-164v412h-79z" />
<glyph horiz-adv-x="555" d="M223 617v122q0 21 7 36.5t18 23t24.5 11.5t27 4t24.5 -1t18 -3l7 -2v-49q-10 0 -16 -1.5t-8.5 -5.5t-3 -7t-0.5 -7v-9h10q22 0 22 -23v-89q0 -24 -22 -24h-87q-21 0 -21 24zM34 280q0 261 198 261q78 0 160.5 -9.5t122.5 -22.5v-553q0 -110 -59.5 -174.5t-166.5 -53.5 l-236 24v109h213q27 0 46 10.5t29 31.5t10 53v84q-45 -38 -119 -38q-111 0 -154.5 67t-43.5 211zM198 285q0 -37 0.5 -57.5t4 -43.5t11 -33.5t21 -18t33.5 -7.5q46 0 83 21v276h-82q-14 0 -25.5 -4.5t-19 -11.5t-13 -19t-8 -22t-4 -26t-1.5 -26.5v-27.5z" />
<glyph horiz-adv-x="274" d="M60 23v102q0 25 24 25h100q11 0 17 -7t6 -18v-102q0 -23 -23 -23h-100q-10 0 -17 6.5t-7 16.5zM56 570h160l-18 -380h-128z" />
<glyph horiz-adv-x="467" d="M57 520v68h157v-68l-10 -134h-135zM254 520v68h157v-68l-10 -134h-136z" />
<glyph horiz-adv-x="626" d="M13 142l17 112h120l14 85h-120l17 112h120l22 136h112l-22 -136h85l23 136h112l-23 -136h124l-16 -112h-124l-14 -85h122l-15 -112h-125l-24 -142h-112l24 142h-86l-23 -142h-112l23 142h-119zM262 254h86l13 85h-85z" />
<glyph horiz-adv-x="526" d="M34 370v36q0 165 165 168v78h97v-82q99 -7 170 -20v-117q-141 7 -226 7q-42 0 -42 -38v-17q0 -33 40 -33h102q152 0 152 -167v-32q0 -42 -9.5 -72t-25.5 -47.5t-42 -27.5t-53.5 -13t-65.5 -2v-76h-97v79q-118 7 -145 21v115q1 0 39.5 -1.5t94.5 -2.5t98 -1q13 0 22.5 5 t14.5 12.5t5 15.5v20q0 33 -40 33h-96q-86 0 -122 42t-36 117z" />
<glyph horiz-adv-x="963" d="M19 337v101q0 66 31.5 99t105.5 33h87q71 0 102.5 -33t31.5 -99v-101q0 -44 -12.5 -72.5t-43.5 -44t-80 -15.5h-87q-72 0 -103.5 33t-31.5 99zM129 360q0 -16 3 -25t13 -14.5t27 -5.5h50q28 0 36.5 10.5t8.5 34.5v55q0 27 -9.5 36t-33.5 9h-50q-24 0 -34.5 -9.5 t-10.5 -35.5v-55zM285 0l280 570h111l-275 -570h-116zM586 134v101q0 66 32 99t105 33h86q72 0 103.5 -33t31.5 -99v-101q0 -66 -31.5 -99t-105.5 -33h-86q-71 0 -103 33.5t-32 98.5zM696 157q0 -24 8.5 -34.5t34.5 -10.5h50q28 0 36.5 10.5t8.5 34.5v55q0 27 -9.5 36 t-33.5 9h-50q-25 0 -35 -9t-10 -36v-55z" />
<glyph horiz-adv-x="605" d="M56 68q-31 45 -33.5 91t17.5 83t58 70l50 43l-26 34q-30 42 -27 81t28 67t57 33q37 7 83.5 4t86.5 -9.5t66 -14.5v-114h-107q-51 0 -22 -36l98 -130l103 78l61 -69l-58 -89l-26 -25l125 -165h-174l-56 71l-42 -39q-19 -17 -52 -27t-70.5 -10.5t-76 18t-63.5 55.5z M174 150q28 -35 61 -5l40 36l-48 63l-41 -34q-18 -14 -20.5 -30.5t8.5 -29.5z" />
<glyph horiz-adv-x="270" d="M57 520v68h157v-68l-10 -134h-136z" />
<glyph horiz-adv-x="422" d="M34 397v62l138 22l5 -89zM86 248l25 137l87 -22l-52 -134zM162 552l60 20l64 -124l-83 -33zM184 294l48 75l114 -90l-37 -50zM235 402l119 80l36 -52l-98 -97z" />
<glyph horiz-adv-x="566" d="M47 162v246q0 54 23.5 91.5t61.5 54t87 16.5h134q44 0 76.5 -12.5t49 -30t26.5 -42t12.5 -42t2.5 -35.5v-246q0 -162 -167 -162h-134q-24 0 -45 3.5t-40.5 11.5t-35 21t-27.5 30.5t-18 42t-6 53.5zM211 202q0 -31 12.5 -42t37.5 -11h48q28 0 37.5 13.5t9.5 40.5v158 q0 16 -1 23.5t-5 18t-14.5 14.5t-27.5 4h-49q-31 0 -39.5 -14.5t-8.5 -44.5v-160z" />
<glyph horiz-adv-x="367" d="M26 383v105l126 82h162v-570h-164v412z" />
<glyph horiz-adv-x="519" d="M26 427v121q18 4 53.5 11.5t51 10t51.5 5t84 2.5q113 0 166.5 -50.5t53.5 -151.5q0 -44 -16.5 -83t-43.5 -66.5t-51.5 -45.5t-49.5 -31h159v-149h-450v143q7 3 31.5 15t38.5 19t40.5 21t43.5 24.5t40 25t37.5 28t28 28t20 30t6.5 30.5q0 37 -20 50.5t-81 12.5h-193z" />
<glyph horiz-adv-x="505" d="M20 428v123q81 28 288 22q69 -2 108.5 -42.5t39.5 -101.5v-27q0 -104 -58 -118q34 -16 46 -46t12 -78v-19q0 -70 -35.5 -106.5t-117.5 -39.5q-198 -7 -278 21v124h221q44 0 44 31v10q0 20 -10 26.5t-34 7.5l-173 5v129l173 4q28 1 37 7t9 27v11q0 17 -10.5 23.5 t-34.5 6.5h-227z" />
<glyph horiz-adv-x="561" d="M13 198l176 372h173l-142 -309h104v105l38 90h126v-195h60v-127l-60 -18v-114h-164v114h-267z" />
<glyph horiz-adv-x="527" d="M51 23v123h231q23 0 32.5 7.5t9.5 28.5v20q0 22 -6.5 29.5t-32.5 7.5h-50q-45 0 -45 -37h-138l17 368h393v-149h-254l-6 -83q25 26 71 26h50q87 0 126 -40.5t39 -123.5v-48q0 -43 -13.5 -74t-37.5 -47.5t-52 -24t-62 -7.5q-179 -2 -272 24z" />
<glyph horiz-adv-x="537" d="M44 300q0 64 10.5 113t27.5 79t40.5 49.5t47.5 27t50 7.5q175 1 260 -15v-134h-214q-20 0 -32.5 -6.5t-17.5 -19.5t-6.5 -24t-1.5 -28q61 12 154 12q136 0 136 -149v-56q0 -77 -45 -117t-106 -40h-121q-46 0 -77 12t-56 43.5t-37 92.5t-12 153zM208 238q0 -30 2 -46.5 t12.5 -30t31.5 -13.5h48q18 0 25 7t7 27v27q0 13 -3.5 19t-9.5 8t-19 2h-94z" />
<glyph horiz-adv-x="477" d="M20 421v149h392l46 -70l-183 -500h-176l155 421h-234z" />
<glyph horiz-adv-x="557" d="M50 130v70q0 21 5.5 35t18 22.5t20 11.5t24.5 9q-24 8 -39.5 27.5t-22 41t-6.5 43.5v43q0 44 10 73t31 43.5t45.5 20t61.5 5.5h166q71 0 107.5 -30t36.5 -112v-43q0 -10 -1.5 -20.5t-6 -27t-17.5 -29t-33 -16.5q29 -5 43.5 -35.5t14.5 -61.5v-70q0 -32 -9.5 -56 t-23.5 -38t-33.5 -22.5t-36.5 -11t-36 -2.5h-178q-31 0 -55.5 5.5t-39 16t-24.5 22.5t-14.5 28t-6 29t-1.5 29zM214 170q0 -23 8 -29t33 -6h53q22 0 29 6.5t7 26.5v27q0 20 -7 27t-27 7h-61q-18 0 -26.5 -6.5t-8.5 -24.5v-28zM214 381q0 -12 3 -19t10.5 -11t20.5 -4h64 q12 0 18.5 2.5t9.5 8t3.5 9.5t0.5 11v30q0 19 -7.5 25.5t-25.5 6.5h-61q-20 0 -28 -5.5t-8 -26.5v-27z" />
<glyph horiz-adv-x="537" d="M40 362v57q0 53 23 89.5t55.5 52t71.5 15.5h122q37 0 63.5 -7t50 -26.5t38 -52.5t22.5 -87t8 -128q0 -276 -161 -276q-196 -1 -275 15v134h215q19 0 31.5 6.5t18 19.5t6.5 24t1 28q-68 -12 -155 -12q-135 0 -135 148zM204 366q0 -10 1.5 -15.5t5.5 -8.5t9 -4t15 -1h95 q0 17 -0.5 28.5t-3 24t-7.5 20t-14 12.5t-21 5h-49q-18 0 -24.5 -6.5t-6.5 -28.5v-26z" />
<glyph horiz-adv-x="470" d="M13 421v133q132 25 242 20q93 0 141 -41t48 -134v-27q0 -82 -51 -123t-134 -25v-34h-121v144q44 -1 98 0q24 1 34 8t10 26v16q0 22 -12.5 29.5t-42.5 7.5h-212zM124 23v102q0 25 24 25h98q25 0 25 -25v-102q0 -23 -25 -23h-98q-24 0 -24 23z" />
<glyph horiz-adv-x="877" d="M44 56v288q0 41 10.5 76t34 66t68.5 48.5t107 17.5h184q31 0 54 -2.5t48.5 -12.5t42 -27t27.5 -47.5t11 -72.5v-350h-103l-21 57l-7 -6.5t-19.5 -16.5t-29.5 -19.5t-41 -16t-50 -6.5q-62 -1 -95 40.5t-33 98.5v38q0 69 39.5 105t112.5 36h121q1 30 0 30q0 28 -12 37 t-42 9h-187q-20 0 -35 -3t-29.5 -12t-22 -27.5t-7.5 -47.5v-266q0 -60 28.5 -85t65.5 -25h327q58 0 80.5 27.5t22.5 82.5v438q0 28 -7.5 50.5t-21 37t-32.5 22t-42 7.5h-404v100q46 9 136 18t175 9h93q45 0 84 -13t72.5 -40t53 -76t19.5 -115v-438q0 -122 -55.5 -180 t-166.5 -58h-334q-36 0 -67.5 7.5t-60 24t-48.5 42t-32 63.5t-12 87zM366 193q0 -35 42 -35q66 0 97 39v63l-101 -8q-13 -2 -21 -6t-12.5 -12t-4.5 -21v-10v-10z" />
<glyph horiz-adv-x="612" d="M24 0l188 570h201l177 -570h-171l-32 103h-158l-34 -103h-171zM265 230h89l-42 144z" />
<glyph horiz-adv-x="549" d="M54 0v571h271q95 0 143.5 -37t48.5 -116q0 -30 -6.5 -54t-18.5 -39t-27 -23.5t-33 -10.5q37 -7 62.5 -39.5t25.5 -89.5q0 -89 -48 -125.5t-147 -36.5h-271zM218 135h92q20 0 32 10t12 42q0 52 -44 52h-92v-104zM218 351h92q25 0 34 10t9 35q0 41 -43 41h-92v-86z" />
<glyph horiz-adv-x="512" d="M37 295q0 141 49.5 212t177.5 71q143 0 226 -32v-112q-21 4 -80 11t-102 7q-30 0 -50 -7t-31.5 -17.5t-17 -32.5t-7 -42.5t-1.5 -57.5v-16v-30.5t1 -28t4 -27t8 -22.5t13 -20t19 -14.5t27 -10.5t35 -4q37 1 82 5t72 8l28 4v-109q-49 -22 -94.5 -28t-131.5 -6 q-73 0 -120 22t-69.5 66.5t-30 92t-7.5 118.5z" />
<glyph horiz-adv-x="586" d="M54 0v572h277q53 -1 92.5 -17t63 -42.5t38 -65t20 -77.5t5.5 -87q0 -46 -5 -84.5t-12 -66t-19.5 -49t-24 -35.5t-29 -23.5t-30 -14t-32.5 -7t-31 -3t-30 -0.5h-6h-277zM218 142h92q24 0 39.5 11t23 32.5t10.5 43.5t3 54q0 40 -5 68.5t-15 46t-24 25t-32 7.5h-92v-288z " />
<glyph horiz-adv-x="511" d="M54 113v338q0 42 18 69.5t47 38.5t69 12q225 -3 294 -16v-125h-232q-21 0 -26.5 -6.5t-5.5 -25.5v-46l226 -8v-121l-226 -7v-44q0 -14 5 -21.5t12 -9t19 -1.5h228v-125q-24 -5 -65 -9t-82.5 -5.5t-80 -2t-62.5 -0.5h-24q-54 1 -84 29.5t-30 85.5z" />
<glyph horiz-adv-x="511" d="M54 0v451q0 117 134 120q225 -3 294 -16v-125h-232q-21 0 -26.5 -6.5t-5.5 -25.5v-62l226 -8v-120l-226 -8v-200h-164z" />
<glyph horiz-adv-x="563" d="M37 286q0 146 43 217t155 76q69 4 151 -2.5t128 -22.5v-114q-104 12 -204 12q-28 0 -43.5 -2.5t-30.5 -11t-21.5 -26.5t-10 -47.5t-3.5 -76.5v-8q0 -21 0.5 -32t2.5 -30t7 -30t13 -23t22.5 -18t33.5 -6q32 0 55.5 12.5t28.5 32.5v47h-74v87q64 17 170 17q31 0 68 -3v-334 h-124l-38 44q-22 -27 -53 -39t-85 -12q-40 0 -71.5 13t-51 32t-33.5 49t-20.5 53.5t-10 56t-4 47.5t-0.5 36v6z" />
<glyph horiz-adv-x="582" d="M54 -1v571h164v-220h161v220h164v-571h-164v201h-161v-201h-164z" />
<glyph horiz-adv-x="257" d="M54 0v570h164v-570h-164z" />
<glyph horiz-adv-x="337" d="M24 21l1 129q47 -2 70.5 5.5t30.5 22.5t8 47v345h164v-405q0 -119 -62 -149q-55 -24 -114 -21t-98 26z" />
<glyph horiz-adv-x="587" d="M54 -1v571h156v-224h51l120 224h183l-160 -290l160 -281h-183l-122 213h-49v-213h-156z" />
<glyph horiz-adv-x="503" d="M54 131v439h164v-364q0 -21 4 -33t15 -17t20 -6t29 -1h195v-149h-296q-58 0 -94.5 33t-36.5 98z" />
<glyph horiz-adv-x="776" d="M37 0l53 571h214l86 -346l84 346h214l52 -571h-161l-33 330l-70 -330h-170l-72 329l-32 -329h-165z" />
<glyph horiz-adv-x="601" d="M54 0v571h161l184 -273v273h163v-571h-160l-184 278v-278h-164z" />
<glyph horiz-adv-x="594" d="M37 280q0 90 16.5 149t52 90.5t80.5 43.5t111 12q38 0 66 -2.5t57 -10t49 -20.5t38 -34.5t28.5 -51.5t16.5 -72.5t6 -96.5q0 -73 -11 -124.5t-31.5 -84t-54 -51t-72 -25.5t-92.5 -7q-43 0 -75 4t-63.5 14.5t-52 30.5t-37 51t-24.5 77.5t-8 107.5zM201 285q0 -89 18 -115 t78 -26q39 0 58 9.5t29 40.5t10 93q0 49 -3.5 76t-16.5 41.5t-29 18t-48 3.5q-16 0 -26.5 -1t-21.5 -4t-17.5 -9t-13 -16.5t-10 -25.5t-5.5 -36t-2 -49z" />
<glyph horiz-adv-x="530" d="M40 0v569h279q86 0 134 -41.5t48 -143.5q0 -52 -11.5 -90t-28 -58.5t-41.5 -32t-43.5 -14.5t-42.5 -3q-12 -1 -43 1t-58 5.5t-28 5.5v-198h-165zM205 304h89q14 0 23 5t14.5 20t5.5 40q1 66 -43 66h-89v-131z" />
<glyph horiz-adv-x="594" d="M37 280q0 90 16.5 149t52 90.5t80.5 43.5t111 12q38 0 66 -2.5t57 -10t49 -20.5t38 -34.5t28.5 -51.5t16.5 -72.5t6 -96.5q0 -73 -11 -124.5t-31.5 -84t-54 -51t-72 -25.5t-92.5 -7q-43 0 -75 4t-63.5 14.5t-52 30.5t-37 51t-24.5 77.5t-8 107.5zM201 285q0 -89 18 -115 t78 -26q39 0 58 9.5t29 40.5t10 93q0 49 -3.5 76t-16.5 41.5t-29 18t-48 3.5q-16 0 -26.5 -1t-21.5 -4t-17.5 -9t-13 -16.5t-10 -25.5t-5.5 -36t-2 -49zM256 -33h90q22 -64 160 -31v-125q-34 -5 -68 -5t-66.5 11t-57.5 29t-41 49.5t-17 71.5z" />
<glyph horiz-adv-x="551" d="M40 0v570h271q42 0 74 -8.5t59.5 -28t42 -57t14.5 -91.5q0 -150 -75 -179l102 -206h-174l-80 192q-68 5 -70 8v-200h-164zM204 305h89q22 0 33 14.5t11 52.5q0 64 -44 64h-89v-131z" />
<glyph horiz-adv-x="541" d="M37 366v43q0 164 161 164q56 0 140.5 -5.5t139.5 -18.5v-117q-133 8 -243 8q-34 0 -34 -35v-23q0 -19 7.5 -25t26.5 -6h125q42 0 72 -13t45 -37t21.5 -51t6.5 -62v-40q0 -158 -145 -158q-259 0 -301 25v115q147 -6 249 -6q12 0 20.5 7t10.5 14l2 7v28q0 16 -8 22.5 t-25 6.5h-118q-84 0 -118.5 40.5t-34.5 116.5z" />
<glyph horiz-adv-x="522" d="M24 421v149h476v-149h-156v-421h-164v421h-156z" />
<glyph horiz-adv-x="596" d="M53 260v310h165v-310q0 -70 21 -93t68 -23q44 0 64 23.5t20 92.5v310h165v-310q0 -67 -15 -116.5t-37.5 -77.5t-57 -44.5t-66.5 -21.5t-73 -5q-46 0 -79 4.5t-68.5 20t-57 43.5t-35.5 78t-14 119z" />
<glyph horiz-adv-x="614" d="M24 570h171l116 -372l109 372h171l-179 -570h-201z" />
<glyph horiz-adv-x="849" d="M24 570h171l90 -373l83 373h170l-40 -148l76 -225l84 373h169l-152 -570h-201l-45 143l-41 -143h-203z" />
<glyph horiz-adv-x="600" d="M24 0l176 283l-173 287h198l76 -160l79 160h198l-176 -289l173 -281h-191l-83 153l-80 -153h-197z" />
<glyph horiz-adv-x="602" d="M24 570h178l102 -197l97 197h179l-195 -372v-199h-164v199z" />
<glyph horiz-adv-x="502" d="M24 0v149l245 272h-245v149h456v-149l-234 -272h234v-149h-456z" />
<glyph horiz-adv-x="243" d="M13 672h133l84 -141h-99z" />
<glyph horiz-adv-x="616" d="M477 1h62q-23 -16 -34 -33t-10 -30t8 -23.5t19.5 -15.5t26.5 -4v-82q-21 -6 -43.5 -3.5t-40 14.5t-32 27t-19 35t-2 40t19.5 40t45 35zM24 0l188 570h201l177 -570h-171l-32 103h-158l-34 -103h-171zM265 230h89l-42 144z" />
<glyph horiz-adv-x="551" d="M212 -186v89q0 24 22 24h87q21 0 21 -24v-121q0 -30 -13 -48t-31.5 -22.5t-37 -5t-31.5 2.5l-13 3v49q13 0 19.5 4t7.5 7.5t1 9.5v10h-10q-22 0 -22 22zM40 0v570h271q42 0 74 -8.5t59.5 -28t42 -57t14.5 -91.5q0 -150 -75 -179l102 -206h-174l-80 192q-68 5 -70 8v-200 h-164zM204 305h89q22 0 33 14.5t11 52.5q0 64 -44 64h-89v-131z" />
<glyph horiz-adv-x="257" d="M-48 690q58 72 121 72q24 0 56.5 -17.5t50.5 -17.5q45 -2 92 39l25 -66q-56 -70 -113 -70q-24 1 -59.5 18t-54.5 17q-27 0 -45.5 -8t-47.5 -27zM54 0v570h164v-570h-164z" />
<glyph horiz-adv-x="503" d="M196 -186v89q0 24 23 24h86q22 0 22 -24v-121q0 -30 -13 -48t-31.5 -22.5t-37.5 -5t-31 2.5l-13 3v49q12 0 18.5 4t7.5 7.5t1 9.5v10h-9q-23 0 -23 22zM54 131v439h164v-364q0 -21 4 -33t15 -17t20 -6t29 -1h195v-149h-296q-58 0 -94.5 33t-36.5 98z" />
<glyph horiz-adv-x="445" d="M34 581.5q0 25.5 18 43.5t44 18q16 0 30.5 -8t22.5 -22.5t8 -30.5q0 -26 -18 -44t-43.5 -18t-43.5 18t-18 43.5zM288 581.5q0 25.5 18.5 43.5t44 18t43.5 -18t18 -43.5t-18 -43.5t-43.5 -18t-44 18t-18.5 43.5z" />
<glyph horiz-adv-x="541" d="M117 770h101l57 -56l55 56h101l-101 -137h-116zM37 366v43q0 164 161 164q56 0 140.5 -5.5t139.5 -18.5v-117q-133 8 -243 8q-34 0 -34 -35v-23q0 -19 7.5 -25t26.5 -6h125q42 0 72 -13t45 -37t21.5 -51t6.5 -62v-40q0 -158 -145 -158q-259 0 -301 25v115q147 -6 249 -6 q12 0 20.5 7t10.5 14l2 7v28q0 16 -8 22.5t-25 6.5h-118q-84 0 -118.5 40.5t-34.5 116.5z" />
<glyph horiz-adv-x="511" d="M128 631v86h292v-86h-292zM54 113v338q0 42 18 69.5t47 38.5t69 12q225 -3 294 -16v-125h-232q-21 0 -26.5 -6.5t-5.5 -25.5v-46l226 -8v-121l-226 -7v-44q0 -14 5 -21.5t12 -9t19 -1.5h228v-125q-24 -5 -65 -9t-82.5 -5.5t-80 -2t-62.5 -0.5h-24q-54 1 -84 29.5 t-30 85.5z" />
<glyph horiz-adv-x="563" d="M37 286q0 146 44.5 217t156.5 76q70 4 150 -2.5t126 -22.5v-114q-99 13 -199 13q-30 0 -45.5 -2.5t-31 -11t-22.5 -27t-11 -48t-4 -76.5v-24.5t1 -22.5t2 -23t3.5 -20t6.5 -19t10.5 -14t14.5 -13t19.5 -7t24.5 -3q69 -2 81 40v51h-77v87q63 17 173 17q31 0 68 -3v-334 h-62h-62l-38 42q-11 -14 -23 -23t-28.5 -15t-37 -8.5t-48.5 -2.5q-195 0 -192 285v8zM231 -188v90q0 24 22 24h86q22 0 22 -24v-122q0 -29 -13 -47t-31.5 -22.5t-37 -5t-31.5 2.5l-13 3v49q12 -1 19 3t8 8t1 10v9h-10q-22 0 -22 22z" />
<glyph horiz-adv-x="502" d="M13 421v149h476v-149h-156v-99h90v-69h-90v-253h-164v253h-92v69h92v99h-156z" />
<glyph horiz-adv-x="502" d="M94 768h102l56 -56l55 56h102l-101 -138h-116zM24 0v149l245 272h-245v149h456v-149l-234 -272h234v-149h-456z" />
<glyph horiz-adv-x="359" d="M34 493v86h292v-86h-292z" />
<glyph horiz-adv-x="269" d="M34 467q0 43 29.5 73t71.5 30t71.5 -30t29.5 -73t-29.5 -72.5t-71.5 -29.5t-71.5 29.5t-29.5 72.5zM96 467q0 -16 11.5 -27t28 -11t27.5 11t11 27t-11.5 27.5t-27.5 11.5t-27.5 -11.5t-11.5 -27.5z" />
<glyph horiz-adv-x="243" d="M13 531l85 141h132l-118 -141h-99z" />
<glyph horiz-adv-x="381" d="M34 676h98l57 -61l59 61h100l-104 -145h-116zM244 531z" />
<glyph horiz-adv-x="601" d="M49 0v571h161l184 -273v273h163v-571v-47q0 -97 -58 -133.5t-181 -31.5v111q39 0 58 13.5t19 54.5v36l-182 275v-278h-164z" />
<glyph horiz-adv-x="612" d="M166 630v86h292v-86h-292zM24 0l188 570h201l177 -570h-171l-32 103h-158l-34 -103h-171zM265 230h89l-42 144z" />
<glyph horiz-adv-x="612" d="M263 630l85 140h132l-118 -140h-99zM24 0l188 570h201l177 -570h-171l-32 103h-158l-34 -103h-171zM265 230h89l-42 144z" />
<glyph horiz-adv-x="612" d="M155 630l105 138h116l94 -138h-101l-55 56l-57 -56h-102zM24 0l188 570h201l177 -570h-171l-32 103h-158l-34 -103h-171zM265 230h89l-42 144z" />
<glyph horiz-adv-x="612" d="M140 690q58 72 122 72q23 0 55.5 -17.5t50.5 -17.5q45 -2 92 39l25 -66q-56 -70 -113 -70q-23 1 -59 18t-54 17q-28 0 -46.5 -8t-47.5 -27zM24 0l188 570h201l177 -570h-171l-32 103h-158l-34 -103h-171zM265 230h89l-42 144z" />
<glyph horiz-adv-x="612" d="M123 692.5q0 25.5 18.5 43.5t44 18t43.5 -18t18 -43.5t-18 -44t-43.5 -18.5t-44 18.5t-18.5 44zM378 692.5q0 25.5 18.5 43.5t44 18t43.5 -18t18 -43.5t-18 -44t-43.5 -18.5t-44 18.5t-18.5 44zM24 0l188 570h201l177 -570h-171l-32 103h-158l-34 -103h-171zM265 230h89 l-42 144z" />
<glyph horiz-adv-x="612" d="M211 670q0 28 14 51.5t37.5 37.5t50.5 14q42 0 71.5 -30t29.5 -73q0 -28 -13.5 -51.5t-36.5 -37t-51 -13.5q-20 0 -39 8t-32.5 21.5t-22 32.5t-8.5 40zM274 670q0 -8 3 -15.5t8.5 -12.5t12.5 -7.5t15 -2.5q17 0 28 10.5t11 27t-11 28t-27.5 11.5t-28 -11.5t-11.5 -27.5z M24 0l188 570h201l177 -570h-171l-32 103h-158l-34 -103h-171zM265 230h89l-42 144z" />
<glyph horiz-adv-x="813" d="M16 0l188 454q9 24 25 42.5t32 30.5t40 20.5t42 12.5t46.5 6.5t43.5 3t43 0.5h17q223 -3 293 -16v-124h-231q-21 0 -26.5 -7t-5.5 -26v-47l224 -8v-120l-224 -8v-44q0 -20 8.5 -25.5t27.5 -5.5l227 -1v-124q-38 -9 -116 -13t-137 -4h-59q-48 -1 -82 24.5t-34 82.5v24 h-112l-54 -128h-176zM291 240h67v156z" />
<glyph horiz-adv-x="257" d="M114 2h61q-22 -16 -33 -33t-10.5 -30t8 -23.5t20 -15.5t26.5 -4v-83q-21 -5 -43.5 -2.5t-40 14t-32 27t-19.5 35.5t-2 39.5t19.5 40t45.5 35.5zM54 0v570h164v-570h-164z" />
<glyph horiz-adv-x="512" d="M135 780h101l57 -56l55 56h102l-102 -137h-116zM37 295q0 141 49.5 212t177.5 71q143 0 226 -32v-112q-21 4 -80 11t-102 7q-30 0 -50 -7t-31.5 -17.5t-17 -32.5t-7 -42.5t-1.5 -57.5v-16v-30.5t1 -28t4 -27t8 -22.5t13 -20t19 -14.5t27 -10.5t35 -4q37 1 82 5t72 8l28 4 v-109q-49 -22 -94.5 -28t-131.5 -6q-73 0 -120 22t-69.5 66.5t-30 92t-7.5 118.5z" />
<glyph horiz-adv-x="511" d="M232 631l85 141h132l-118 -141h-99zM54 113v338q0 42 18 69.5t47 38.5t69 12q225 -3 294 -16v-125h-232q-21 0 -26.5 -6.5t-5.5 -25.5v-46l226 -8v-121l-226 -7v-44q0 -14 5 -21.5t12 -9t19 -1.5h228v-125q-24 -5 -65 -9t-82.5 -5.5t-80 -2t-62.5 -0.5h-24 q-54 1 -84 29.5t-30 85.5z" />
<glyph horiz-adv-x="511" d="M421 15h61q-22 -16 -33 -33t-10.5 -30t7.5 -23.5t20 -15.5t27 -4v-83q-22 -5 -44 -2.5t-39.5 14.5t-32 27t-19.5 35t-2 39.5t19.5 40t45.5 35.5zM54 113v338q0 42 18 69.5t47 38.5t69 12q225 -3 294 -16v-125h-232q-21 0 -26.5 -6.5t-5.5 -25.5v-46l226 -8v-121l-226 -7 v-44q0 -14 5 -21.5t12 -9t19 -1.5h228v-125q-24 -5 -65 -9t-82.5 -5.5t-80 -2t-62.5 -0.5h-24q-54 1 -84 29.5t-30 85.5z" />
<glyph horiz-adv-x="511" d="M81 693.5q0 25.5 18 43.5t43.5 18t43.5 -18t18 -43q0 -17 -8 -31.5t-22 -23t-31 -8.5q-25 0 -43.5 18.5t-18.5 44zM336 693.5q0 25.5 18 43.5t44 18t43.5 -18t17.5 -43.5t-18 -44t-43.5 -18.5t-43.5 18.5t-18 44zM54 113v338q0 42 18 69.5t47 38.5t69 12q225 -3 294 -16 v-125h-232q-21 0 -26.5 -6.5t-5.5 -25.5v-46l226 -8v-121l-226 -7v-44q0 -14 5 -21.5t12 -9t19 -1.5h228v-125q-24 -5 -65 -9t-82.5 -5.5t-80 -2t-62.5 -0.5h-24q-54 1 -84 29.5t-30 85.5z" />
<glyph horiz-adv-x="511" d="M220 654v84q0 25 24 25h80q11 0 17 -7t6 -18v-84q0 -23 -23 -23h-80q-11 0 -17.5 6.5t-6.5 16.5zM54 113v338q0 42 18 69.5t47 38.5t69 12q225 -3 294 -16v-125h-232q-21 0 -26.5 -6.5t-5.5 -25.5v-46l226 -8v-121l-226 -7v-44q0 -14 5 -21.5t12 -9t19 -1.5h228v-125 q-24 -5 -65 -9t-82.5 -5.5t-80 -2t-62.5 -0.5h-24q-54 1 -84 29.5t-30 85.5z" />
<glyph horiz-adv-x="257" d="M77 630l84 140h133l-118 -140h-99zM54 0v570h164v-570h-164z" />
<glyph horiz-adv-x="257" d="M-31 630l104 138h116l94 -138h-101l-54 56l-57 -56h-102zM54 0v570h164v-570h-164z" />
<glyph horiz-adv-x="257" d="M-12 630v86h292v-86h-292zM54 0v570h164v-570h-164z" />
<glyph horiz-adv-x="602" d="M13 256v68h58v248h29h68h79h68.5h30.5q52 -1 91.5 -17t62.5 -42.5t37.5 -65t19.5 -77.5t5 -87q0 -46 -4.5 -84.5t-12 -66t-20 -49t-24 -35.5t-29 -23.5t-30 -14t-32.5 -7t-30 -3t-29 -0.5h-6h-274v256h-58zM236 142h84q24 0 40 11t23.5 32t10 43.5t2.5 54.5 q0 79 -18.5 113t-55.5 34h-86v-106h74v-68h-74v-114z" />
<glyph horiz-adv-x="601" d="M235 -186v89q0 24 22 24h86q22 0 22 -24v-121q0 -30 -13 -48t-31.5 -22.5t-37 -5t-31.5 2.5l-13 3v49q10 0 16 2t8.5 5.5t3 6.5t0.5 7v10h-10q-22 0 -22 22zM54 0v571h161l184 -273v273h163v-571h-160l-184 278v-278h-164z" />
<glyph horiz-adv-x="594" d="M152 638v85h292v-85h-292zM37 280q0 90 16.5 149t52 90.5t80.5 43.5t111 12q38 0 66 -2.5t57 -10t49 -20.5t38 -34.5t28.5 -51.5t16.5 -72.5t6 -96.5q0 -73 -11 -124.5t-31.5 -84t-54 -51t-72 -25.5t-92.5 -7q-43 0 -75 4t-63.5 14.5t-52 30.5t-37 51t-24.5 77.5 t-8 107.5zM201 285q0 -89 18 -115t78 -26q39 0 58 9.5t29 40.5t10 93q0 49 -3.5 76t-16.5 41.5t-29 18t-48 3.5q-16 0 -26.5 -1t-21.5 -4t-17.5 -9t-13 -16.5t-10 -25.5t-5.5 -36t-2 -49z" />
<glyph horiz-adv-x="587" d="M231 -187v89q0 24 23 24h86q22 0 22 -24v-121q0 -30 -13 -48t-31.5 -22.5t-37.5 -5t-31 2.5l-13 3v49q12 0 18.5 4t7.5 7.5t1 10.5v8h-9q-23 0 -23 23zM54 -1v571h156v-224h51l120 224h183l-160 -290l160 -281h-183l-122 213h-49v-213h-156z" />
<glyph horiz-adv-x="594" d="M138 634l105 137h116l94 -137h-101l-54 56l-58 -56h-102zM37 280q0 90 16.5 149t52 90.5t80.5 43.5t111 12q38 0 66 -2.5t57 -10t49 -20.5t38 -34.5t28.5 -51.5t16.5 -72.5t6 -96.5q0 -73 -11 -124.5t-31.5 -84t-54 -51t-72 -25.5t-92.5 -7q-43 0 -75 4t-63.5 14.5 t-52 30.5t-37 51t-24.5 77.5t-8 107.5zM201 285q0 -89 18 -115t78 -26q39 0 58 9.5t29 40.5t10 93q0 49 -3.5 76t-16.5 41.5t-29 18t-48 3.5q-16 0 -26.5 -1t-21.5 -4t-17.5 -9t-13 -16.5t-10 -25.5t-5.5 -36t-2 -49z" />
<glyph horiz-adv-x="594" d="M128 696q59 71 122 71q24 0 56.5 -17.5t49.5 -17.5q46 -2 93 39l25 -66q-56 -70 -113 -70q-19 1 -39.5 9.5t-39.5 17t-35 8.5q-27 0 -45.5 -8t-47.5 -27zM37 280q0 90 16.5 149t52 90.5t80.5 43.5t111 12q38 0 66 -2.5t57 -10t49 -20.5t38 -34.5t28.5 -51.5t16.5 -72.5 t6 -96.5q0 -73 -11 -124.5t-31.5 -84t-54 -51t-72 -25.5t-92.5 -7q-43 0 -75 4t-63.5 14.5t-52 30.5t-37 51t-24.5 77.5t-8 107.5zM201 285q0 -89 18 -115t78 -26q39 0 58 9.5t29 40.5t10 93q0 49 -3.5 76t-16.5 41.5t-29 18t-48 3.5q-16 0 -26.5 -1t-21.5 -4t-17.5 -9 t-13 -16.5t-10 -25.5t-5.5 -36t-2 -49z" />
<glyph horiz-adv-x="594" d="M107 697q0 17 8.5 31t23 22t31.5 8q25 0 43 -17.5t18 -43t-18 -44t-43.5 -18.5t-44 18.5t-18.5 43.5zM362 697.5q0 25.5 18.5 43t44 17.5t43.5 -17.5t18 -43t-18 -44t-43.5 -18.5t-44 18.5t-18.5 44zM37 280q0 90 16.5 149t52 90.5t80.5 43.5t111 12q38 0 66 -2.5t57 -10 t49 -20.5t38 -34.5t28.5 -51.5t16.5 -72.5t6 -96.5q0 -73 -11 -124.5t-31.5 -84t-54 -51t-72 -25.5t-92.5 -7q-43 0 -75 4t-63.5 14.5t-52 30.5t-37 51t-24.5 77.5t-8 107.5zM201 285q0 -89 18 -115t78 -26q39 0 58 9.5t29 40.5t10 93q0 49 -3.5 76t-16.5 41.5t-29 18 t-48 3.5q-16 0 -26.5 -1t-21.5 -4t-17.5 -9t-13 -16.5t-10 -25.5t-5.5 -36t-2 -49z" />
<glyph horiz-adv-x="594" d="M40 0q0 1 22.5 32t25.5 34q-50 65 -50 214q0 90 16.5 149t52 90.5t80 43.5t111.5 12q102 0 152 -23q0 1 6 9.5t7 9.5h80q-2 -3 -21 -28.5t-21 -28.5q57 -64 57 -227q0 -73 -11.5 -124.5t-31.5 -84t-53.5 -51t-72 -25.5t-91.5 -7q-110 0 -162 29q-1 -1 -3.5 -4.5 t-5.5 -7.5t-5.5 -7.5t-3.5 -4.5h-78zM202 285q0 -37 5 -57q9 12 41 54t63 84t41 54q-14 6 -54 6q-29 0 -44 -3.5t-28.5 -17.5t-18.5 -42.5t-5 -77.5zM234 156q18 -12 64 -12q38 0 57 9.5t29 40.5t10 93q0 48 -7 73q-13 -17 -82 -108.5t-71 -95.5z" />
<glyph horiz-adv-x="585" d="M283 -2h62q-23 -16 -34 -33t-10 -30t8 -23.5t19.5 -15.5t26.5 -4v-82q-21 -5 -43.5 -2.5t-40 14t-32 27t-19 35.5t-2 39.5t19.5 39.5t45 35zM53 260v310h165v-310q0 -70 21 -93t68 -23q44 0 64 23.5t20 92.5v310h165v-310q0 -67 -15 -116.5t-37.5 -77.5t-57 -44.5 t-66.5 -21.5t-73 -5q-46 0 -79 4.5t-68.5 20t-57 43.5t-35.5 78t-14 119z" />
<glyph horiz-adv-x="596" d="M255 630l85 140h132l-118 -140h-99zM53 260v310h165v-310q0 -70 21 -93t68 -23q44 0 64 23.5t20 92.5v310h165v-310q0 -67 -15 -116.5t-37.5 -77.5t-57 -44.5t-66.5 -21.5t-73 -5q-46 0 -79 4.5t-68.5 20t-57 43.5t-35.5 78t-14 119z" />
<glyph horiz-adv-x="596" d="M147 630l104 138h116l94 -138h-101l-54 56l-57 -56h-102zM53 260v310h165v-310q0 -70 21 -93t68 -23q44 0 64 23.5t20 92.5v310h165v-310q0 -67 -15 -116.5t-37.5 -77.5t-57 -44.5t-66.5 -21.5t-73 -5q-46 0 -79 4.5t-68.5 20t-57 43.5t-35.5 78t-14 119z" />
<glyph horiz-adv-x="596" d="M114 692q0 17 8.5 31t23 22.5t31.5 8.5q25 0 43 -18t18 -44q0 -17 -8 -31t-22.5 -22.5t-30.5 -8.5q-26 0 -44.5 18.5t-18.5 43.5zM369 692.5q0 25.5 18.5 43.5t44 18t43.5 -18t18 -43.5t-18 -44t-43.5 -18.5t-44 18.5t-18.5 44zM53 260v310h165v-310q0 -70 21 -93t68 -23 q44 0 64 23.5t20 92.5v310h165v-310q0 -67 -15 -116.5t-37.5 -77.5t-57 -44.5t-66.5 -21.5t-73 -5q-46 0 -79 4.5t-68.5 20t-57 43.5t-35.5 78t-14 119z" />
<glyph horiz-adv-x="596" d="M131 690q58 72 122 72q24 0 56.5 -17.5t49.5 -17.5q46 -2 93 39l25 -66q-57 -70 -113 -70q-20 1 -40.5 9.5t-39 17t-34.5 8.5q-27 0 -45.5 -8t-47.5 -27zM53 260v310h165v-310q0 -70 21 -93t68 -23q44 0 64 23.5t20 92.5v310h165v-310q0 -67 -15 -116.5t-37.5 -77.5 t-57 -44.5t-66.5 -21.5t-73 -5q-46 0 -79 4.5t-68.5 20t-57 43.5t-35.5 78t-14 119z" />
<glyph horiz-adv-x="596" d="M158 630v86h292v-86h-292zM53 260v310h165v-310q0 -70 21 -93t68 -23q44 0 64 23.5t20 92.5v310h165v-310q0 -67 -15 -116.5t-37.5 -77.5t-57 -44.5t-66.5 -21.5t-73 -5q-46 0 -79 4.5t-68.5 20t-57 43.5t-35.5 78t-14 119z" />
<glyph horiz-adv-x="1032" d="M25 366q0 -37 7.5 -65t25 -49t47.5 -32t73 -11h115q18 0 25.5 -6.5t7.5 -22.5v-28q0 -14 -6.5 -21t-26.5 -7l-246 6v-115q42 -25 299 -25q68 0 106 36t38 122v40q0 35 -6 62t-21.5 51t-45 37t-71.5 13h-123q-19 0 -26.5 6t-7.5 25v25q0 33 34 33q31 0 67 -1t65.5 -2 t54.5 -2t39 -2l15 -1v117q-40 7 -97.5 13t-105.5 8.5t-75 2.5q-161 0 -161 -162v-45zM538 411q0 162 160 162q46 0 133.5 -6.5t144.5 -17.5v-117q-130 8 -240 8q-34 0 -34 -33v-25q0 -19 7.5 -25t26.5 -6h122q43 0 72.5 -13t44.5 -37t21.5 -51t6.5 -62v-40q0 -86 -38.5 -122 t-106.5 -36q-256 0 -298 25v115q144 -6 246 -6q20 0 26.5 7t6.5 21v28q0 16 -8 22.5t-25 6.5h-115q-84 0 -118.5 39.5t-34.5 116.5v46z" />
<glyph horiz-adv-x="612" d="M141 770h133l84 -140h-99zM24 0l188 570h201l177 -570h-171l-32 103h-158l-34 -103h-171zM265 230h89l-42 144z" />
<glyph horiz-adv-x="512" d="M174 -108l40 15q20 9 25 19.5t5 40.5h104q0 -78 -25.5 -110.5t-90.5 -32.5h-58v68zM37 295q0 141 49.5 212t177.5 71q143 0 226 -32v-112q-21 4 -80 11t-102 7q-30 0 -50 -7t-31.5 -17.5t-17 -32.5t-7 -42.5t-1.5 -57.5v-16v-30.5t1 -28t4 -27t8 -22.5t13 -20t19 -14.5 t27 -10.5t35 -4q37 1 82 5t72 8l28 4v-109q-49 -22 -94.5 -28t-131.5 -6q-73 0 -120 22t-69.5 66.5t-30 92t-7.5 118.5z" />
<glyph horiz-adv-x="602" d="M13 256v68h58v248h29h68h79h68.5h30.5q52 -1 91.5 -17t62.5 -42.5t37.5 -65t19.5 -77.5t5 -87q0 -46 -4.5 -84.5t-12 -66t-20 -49t-24 -35.5t-29 -23.5t-30 -14t-32.5 -7t-30 -3t-29 -0.5h-6h-274v256h-58zM236 142h84q24 0 40 11t23.5 32t10 43.5t2.5 54.5 q0 79 -18.5 113t-55.5 34h-86v-106h74v-68h-74v-114z" />
<glyph horiz-adv-x="511" d="M126 772h132l85 -141h-99zM54 113v338q0 42 18 69.5t47 38.5t69 12q225 -3 294 -16v-125h-232q-21 0 -26.5 -6.5t-5.5 -25.5v-46l226 -8v-121l-226 -7v-44q0 -14 5 -21.5t12 -9t19 -1.5h228v-125q-24 -5 -65 -9t-82.5 -5.5t-80 -2t-62.5 -0.5h-24q-54 1 -84 29.5 t-30 85.5z" />
<glyph horiz-adv-x="511" d="M120 631l105 138h116l94 -138h-101l-54 56l-58 -56h-102zM54 113v338q0 42 18 69.5t47 38.5t69 12q225 -3 294 -16v-125h-232q-21 0 -26.5 -6.5t-5.5 -25.5v-46l226 -8v-121l-226 -7v-44q0 -14 5 -21.5t12 -9t19 -1.5h228v-125q-24 -5 -65 -9t-82.5 -5.5t-80 -2 t-62.5 -0.5h-24q-54 1 -84 29.5t-30 85.5z" />
<glyph horiz-adv-x="257" d="M-41 770h132l85 -140h-99zM54 0v570h164v-570h-164z" />
<glyph horiz-adv-x="257" d="M-63 692.5q0 25.5 18 43.5t43.5 18t43.5 -18t18 -43.5t-18 -44t-43 -18.5t-43.5 18.5t-18.5 44zM192 692q0 17 8.5 31t22.5 22.5t31 8.5q26 0 43.5 -18t17.5 -43.5t-18 -44t-43.5 -18.5t-43.5 18.5t-18 43.5zM54 0v570h164v-570h-164z" />
<glyph horiz-adv-x="601" d="M132 692q59 71 122 71q24 0 56.5 -17.5t49.5 -17.5q46 -2 93 39l25 -66q-56 -70 -113 -70q-24 1 -59.5 18t-54.5 17t-35.5 -5t-27 -11t-30.5 -19zM54 0v571h161l184 -273v273h163v-571h-160l-184 278v-278h-164z" />
<glyph horiz-adv-x="594" d="M134 776h132l85 -141h-99zM37 280q0 90 16.5 149t52 90.5t80.5 43.5t111 12q38 0 66 -2.5t57 -10t49 -20.5t38 -34.5t28.5 -51.5t16.5 -72.5t6 -96.5q0 -73 -11 -124.5t-31.5 -84t-54 -51t-72 -25.5t-92.5 -7q-43 0 -75 4t-63.5 14.5t-52 30.5t-37 51t-24.5 77.5 t-8 107.5zM201 285q0 -89 18 -115t78 -26q39 0 58 9.5t29 40.5t10 93q0 49 -3.5 76t-16.5 41.5t-29 18t-48 3.5q-16 0 -26.5 -1t-21.5 -4t-17.5 -9t-13 -16.5t-10 -25.5t-5.5 -36t-2 -49z" />
<glyph horiz-adv-x="594" d="M251 635l85 141h132l-118 -141h-99zM37 280q0 90 16.5 149t52 90.5t80.5 43.5t111 12q38 0 66 -2.5t57 -10t49 -20.5t38 -34.5t28.5 -51.5t16.5 -72.5t6 -96.5q0 -73 -11 -124.5t-31.5 -84t-54 -51t-72 -25.5t-92.5 -7q-43 0 -75 4t-63.5 14.5t-52 30.5t-37 51 t-24.5 77.5t-8 107.5zM201 285q0 -89 18 -115t78 -26q39 0 58 9.5t29 40.5t10 93q0 49 -3.5 76t-16.5 41.5t-29 18t-48 3.5q-16 0 -26.5 -1t-21.5 -4t-17.5 -9t-13 -16.5t-10 -25.5t-5.5 -36t-2 -49z" />
<glyph horiz-adv-x="596" d="M140 770h132l84 -140h-98zM53 260v310h165v-310q0 -70 21 -93t68 -23q44 0 64 23.5t20 92.5v310h165v-310q0 -67 -15 -116.5t-37.5 -77.5t-57 -44.5t-66.5 -21.5t-73 -5q-46 0 -79 4.5t-68.5 20t-57 43.5t-35.5 78t-14 119z" />
<glyph horiz-adv-x="602" d="M249 630l84 140h133l-118 -140h-99zM24 570h178l102 -197l97 197h179l-195 -372v-199h-164v199z" />
<glyph horiz-adv-x="535" d="M50 0v569h163v-95h103q26 0 47.5 -3.5t46.5 -14.5t42 -29.5t28.5 -52t11.5 -78.5q0 -194 -146 -194q-74 0 -133 16v-118h-163zM213 240h72q19 0 27.5 3.5t12 14.5t3.5 34q0 27 -9.5 37t-33.5 11h-72v-100z" />
<glyph horiz-adv-x="249" d="M53 27v102q0 28 26 28h99q25 0 25 -28v-147q0 -36 -15 -59t-36 -30.5t-42.5 -10t-36.5 0.5l-15 2v64q33 -1 33 33v18h-12q-12 0 -19 7t-7 20z" />
<glyph horiz-adv-x="433" d="M234 334v147q0 26 8 45.5t21 29.5t28.5 16t31 7t28 1t20.5 -2l8 -1v-64q-32 1 -32 -33v-18h11q12 0 19.5 -7t7.5 -19v-102q0 -29 -27 -29h-98q-26 0 -26 29zM48 334v147q0 26 8 45.5t21 29.5t28.5 16t31 7t28.5 1t21 -2l8 -1v-64q-34 1 -34 -33v-18h13q25 0 25 -26v-102 q0 -29 -25 -29h-100q-25 0 -25 29z" />
<glyph horiz-adv-x="433" d="M48 450v102q0 28 27 28h98q25 0 25 -28v-148q0 -35 -14.5 -58.5t-36 -30.5t-42.5 -9.5t-36 0.5l-15 2v64q32 -1 32 32v20h-11q-8 0 -14 2.5t-9.5 8.5t-3.5 15zM234 450v102q0 28 26 28h100q25 0 25 -28v-148q0 -35 -15 -58.5t-36.5 -30.5t-43 -9.5t-36.5 0.5l-15 2v64 q33 -1 33 32v20h-12q-26 0 -26 26z" />
<glyph horiz-adv-x="433" d="M48 27v102q0 28 27 28h98q25 0 25 -28v-147q0 -36 -14.5 -59t-36 -30.5t-42.5 -10t-36 0.5l-15 2v64q32 -1 32 33v18h-11q-12 0 -19.5 7t-7.5 20zM234 27v102q0 28 26 28h100q25 0 25 -28v-147q0 -36 -15 -59t-36.5 -30.5t-43 -10t-36.5 0.5l-15 2v64q33 -1 33 33v18h-12 q-26 0 -26 27z" />
<glyph horiz-adv-x="274" d="M64 445v102q0 23 23 23h99q11 0 17.5 -6.5t6.5 -16.5v-102q0 -25 -24 -25h-99q-23 0 -23 25zM57 0l16 380h127l16 -380h-159z" />
<glyph horiz-adv-x="417" d="M30 396q0 107 38.5 146.5t139.5 39.5q68 0 106 -17.5t55 -57.5t17 -111q0 -99 -38 -137.5t-140 -38.5q-100 0 -139 40t-39 136zM44 121v73h328v-73h-328zM155 397q0 -52 10.5 -66t42.5 -14q24 0 33.5 4t14.5 21t5 55q1 58 -9 73t-44 15t-43.5 -15.5t-9.5 -72.5z" />
<glyph horiz-adv-x="413" d="M43 122v74h350v-74h-350zM42 229l111 341h147l94 -341h-114l-17 63h-83l-18 -63h-120zM202 372h46l-22 90z" />
<glyph horiz-adv-x="520" d="M11 195v70l53 5v29l-53 6v66l53 7q0 16 1 29.5t5.5 34.5t12.5 38t23.5 36t37 31.5t54.5 21t74 8.5q34 0 101 -6.5t122 -16.5v-122q-122 11 -186 11q-44 0 -62 -14.5t-18 -50.5l170 -6v-68l-170 -5v-29l170 -5v-70q-11 0 -29 -0.5t-55.5 -1.5t-62 -2t-23.5 -2 q0 -19 6.5 -31.5t19.5 -17.5t24.5 -6.5t29.5 -1.5q21 0 48 1.5t51 3t45 3.5t33 4l12 1v-122q-64 -28 -226 -28q-30 0 -55 3t-55 15t-50 32t-34 57t-14 87z" />
<glyph horiz-adv-x="494" d="M41 131v439h164v-364q0 -21 4 -33t15 -17t20 -6t29 -1h195v-149h-296q-58 0 -94.5 33t-36.5 98zM255 546v66h104v-66l-10 -134h-83z" />
<glyph horiz-adv-x="541" d="M222 634l85 141h132l-118 -141h-99zM37 366v43q0 164 161 164q56 0 140.5 -5.5t139.5 -18.5v-117q-133 8 -243 8q-34 0 -34 -35v-23q0 -19 7.5 -25t26.5 -6h125q42 0 72 -13t45 -37t21.5 -51t6.5 -62v-40q0 -158 -145 -158q-259 0 -301 25v115q147 -6 249 -6q12 0 20.5 7 t10.5 14l2 7v28q0 16 -8 22.5t-25 6.5h-118q-84 0 -118.5 40.5t-34.5 116.5z" />
<glyph horiz-adv-x="541" d="M57 -113l41 15q20 9 24.5 19.5t4.5 40.5h105q0 -78 -25.5 -110.5t-90.5 -32.5h-59v68zM37 366v43q0 164 161 164q56 0 140.5 -5.5t139.5 -18.5v-117q-133 8 -243 8q-34 0 -34 -35v-23q0 -19 7.5 -25t26.5 -6h125q42 0 72 -13t45 -37t21.5 -51t6.5 -62v-40 q0 -158 -145 -158q-259 0 -301 25v115q147 -6 249 -6q12 0 20.5 7t10.5 14l2 7v28q0 16 -8 22.5t-25 6.5h-118q-84 0 -118.5 40.5t-34.5 116.5z" />
<glyph horiz-adv-x="583" d="M156 772h101l57 -56l54 56h102l-101 -138h-116zM71 421v149h476v-149h-156v-421h-164v421h-156z" />
<glyph horiz-adv-x="502" d="M203 630l84 140h133l-118 -140h-99zM24 0v149l245 272h-245v149h456v-149l-234 -272h234v-149h-456z" />
<glyph horiz-adv-x="502" d="M188 653v84q0 25 24 25h80q11 0 17 -7t6 -18v-84q0 -23 -23 -23h-80q-10 0 -17 6.5t-7 16.5zM24 0v149l245 272h-245v149h456v-149l-234 -272h234v-149h-456z" />
<glyph horiz-adv-x="551" d="M229 630l85 140h132l-118 -140h-99zM40 0v570h271q42 0 74 -8.5t59.5 -28t42 -57t14.5 -91.5q0 -150 -75 -179l102 -206h-174l-80 192q-68 5 -70 8v-200h-164zM204 305h89q22 0 33 14.5t11 52.5q0 64 -44 64h-89v-131z" />
<glyph horiz-adv-x="612" d="M198 744h62q0 -24 13.5 -38t38.5 -14q54 0 54 52h62q0 -52 -32.5 -83t-83.5 -31q-50 0 -82 31.5t-32 82.5zM24 0l188 570h201l177 -570h-171l-32 103h-158l-34 -103h-171zM265 230h89l-42 144z" />
<glyph horiz-adv-x="503" d="M80 630l85 140h132l-118 -140h-99zM54 131v439h164v-364q0 -21 4 -33t15 -17t20 -6t29 -1h195v-149h-296q-58 0 -94.5 33t-36.5 98z" />
<glyph horiz-adv-x="512" d="M220 643l84 141h133l-118 -141h-99zM37 295q0 141 49.5 212t177.5 71q143 0 226 -32v-112q-21 4 -80 11t-102 7q-30 0 -50 -7t-31.5 -17.5t-17 -32.5t-7 -42.5t-1.5 -57.5v-16v-30.5t1 -28t4 -27t8 -22.5t13 -20t19 -14.5t27 -10.5t35 -4q37 1 82 5t72 8l28 4v-109 q-49 -22 -94.5 -28t-131.5 -6q-73 0 -120 22t-69.5 66.5t-30 92t-7.5 118.5z" />
<glyph horiz-adv-x="511" d="M121 768h101l57 -56l55 56h102l-101 -137h-116zM54 113v338q0 42 18 69.5t47 38.5t69 12q225 -3 294 -16v-125h-232q-21 0 -26.5 -6.5t-5.5 -25.5v-46l226 -8v-121l-226 -7v-44q0 -14 5 -21.5t12 -9t19 -1.5h228v-125q-24 -5 -65 -9t-82.5 -5.5t-80 -2t-62.5 -0.5h-24 q-54 1 -84 29.5t-30 85.5z" />
<glyph horiz-adv-x="587" d="M154 769h102l56 -56l55 56h102l-101 -138h-116zM76 0v572h277q53 -1 92.5 -17t63 -42.5t38 -65t20 -77.5t5.5 -87q0 -46 -5 -84.5t-12 -66t-19.5 -49t-24 -35.5t-29 -23.5t-30 -14t-32.5 -7t-31 -3t-30 -0.5h-6h-277zM240 142h92q24 0 39.5 11t23 32.5t10.5 43.5t3 54 q0 40 -5 68.5t-15 46t-24 25t-32 7.5h-92v-288z" />
<glyph horiz-adv-x="601" d="M262 631l85 141h133l-118 -141h-100zM54 0v571h161l184 -273v273h163v-571h-160l-184 278v-278h-164z" />
<glyph horiz-adv-x="601" d="M151 768h102l56 -56l55 56h102l-101 -137h-116zM54 0v571h161l184 -273v273h163v-571h-160l-184 278v-278h-164z" />
<glyph horiz-adv-x="594" d="M166 635l85 141h132l-118 -141h-99zM330 635l84 141h133l-118 -141h-99zM37 280q0 90 16.5 149t52 90.5t80.5 43.5t111 12q38 0 66 -2.5t57 -10t49 -20.5t38 -34.5t28.5 -51.5t16.5 -72.5t6 -96.5q0 -73 -11 -124.5t-31.5 -84t-54 -51t-72 -25.5t-92.5 -7q-43 0 -75 4 t-63.5 14.5t-52 30.5t-37 51t-24.5 77.5t-8 107.5zM201 285q0 -89 18 -115t78 -26q39 0 58 9.5t29 40.5t10 93q0 49 -3.5 76t-16.5 41.5t-29 18t-48 3.5q-16 0 -26.5 -1t-21.5 -4t-17.5 -9t-13 -16.5t-10 -25.5t-5.5 -36t-2 -49z" />
<glyph horiz-adv-x="551" d="M113 767h101l57 -56l54 56h102l-101 -137h-116zM40 0v570h271q42 0 74 -8.5t59.5 -28t42 -57t14.5 -91.5q0 -150 -75 -179l102 -206h-174l-80 192q-68 5 -70 8v-200h-164zM204 305h89q22 0 33 14.5t11 52.5q0 64 -44 64h-89v-131z" />
<glyph horiz-adv-x="596" d="M203 724q0 29 13.5 52.5t37 37.5t51.5 14q42 0 71.5 -30.5t29.5 -73.5q0 -28 -13.5 -51t-36.5 -37t-51 -14q-21 0 -39.5 8t-32.5 22t-22 33t-8 39zM266 724.5q0 -16.5 11.5 -27.5t27.5 -11t27 11t11 27.5t-11 28t-27 11.5t-27.5 -11.5t-11.5 -28zM53 260v310h165v-310 q0 -70 21 -93t68 -23q44 0 64 23.5t20 92.5v310h165v-310q0 -67 -15 -116.5t-37.5 -77.5t-57 -44.5t-66.5 -21.5t-73 -5q-46 0 -79 4.5t-68.5 20t-57 43.5t-35.5 78t-14 119z" />
<glyph horiz-adv-x="596" d="M172 630l85 140h132l-118 -140h-99zM336 630l84 140h133l-118 -140h-99zM53 260v310h165v-310q0 -70 21 -93t68 -23q44 0 64 23.5t20 92.5v310h165v-310q0 -67 -15 -116.5t-37.5 -77.5t-57 -44.5t-66.5 -21.5t-73 -5q-46 0 -79 4.5t-68.5 20t-57 43.5t-35.5 78t-14 119z " />
<glyph horiz-adv-x="522" d="M52 -114l41 14q20 9 24.5 19.5t4.5 40.5h104q0 -78 -25 -110.5t-91 -32.5h-58v69zM24 421v149h476v-149h-156v-421h-164v421h-156z" />
<glyph horiz-adv-x="512" d="M13 218v78l59 24v250h164v-184l88 36v-77l-88 -36v-103q0 -21 4.5 -33t15.5 -17t19.5 -6t28.5 -1h196v-149h-296q-59 0 -95.5 33t-36.5 98v111z" />
<glyph horiz-adv-x="492" d="M38 174v28q0 82 51 123t134 25v34h121v-145q-45 1 -99 0q-23 0 -33 -7t-10 -26v-16q0 -23 12.5 -30.5t42.5 -7.5h211v-132q-132 -25 -241 -20q-93 0 -141 41t-48 133zM210 449v102q0 23 26 23h98q10 0 17 -6.5t7 -16.5v-102q0 -25 -24 -25h-98q-26 0 -26 25z" />
<glyph horiz-adv-x="836" d="M26 280q0 90 17 149t52 90.5t80 43.5t112 12q103 0 151 -26q30 22 81 22q224 -3 293 -16v-125h-231q-21 0 -26.5 -6.5t-5.5 -25.5v-46l226 -8v-121l-226 -7v-44q0 -14 5 -21.5t12 -9t19 -1.5h227v-125q-37 -9 -115.5 -13t-138.5 -4h-59q-44 1 -69 23q-50 -26 -143 -26 q-44 0 -76 4t-63 14.5t-52 30.5t-37.5 51t-24.5 77.5t-8 107.5zM190 285q0 -89 18.5 -115t78.5 -26q38 0 57.5 9.5t30 40.5t10.5 93q0 49 -4 76t-17 41.5t-29 18t-48 3.5q-23 0 -36 -2t-26.5 -10t-20 -23t-10.5 -41t-4 -65z" />
<glyph horiz-adv-x="602" d="M112 692q0 17 8.5 31t23 22.5t31.5 8.5q25 0 43 -18t18 -44q0 -17 -8 -31t-22.5 -22.5t-30.5 -8.5q-26 0 -44.5 18.5t-18.5 43.5zM368 692.5q0 25.5 18 43.5t43.5 18t43.5 -18t18 -43.5t-18 -44t-43.5 -18.5t-43.5 18.5t-18 44zM24 570h178l102 -197l97 197h179 l-195 -372v-199h-164v199z" />
<glyph horiz-adv-x="513" d="M34 0v116l56 20v92h-56v86l56 16v38q0 202 204 203l186 -13v-134h-162q-40 0 -52 -12t-12 -46v-32l164 -15v-93h-164v-86h226v-140h-446z" />
<glyph horiz-adv-x="549" d="M13 571h175l85 -208l87 208h176l-153 -313h85v-66h-111v-23h111v-65h-111v-104h-164v104h-103v65h103v23h-103v66h75z" />
<glyph horiz-adv-x="1381" d="M19 337v101q0 66 31.5 99t105.5 33h87q71 0 102.5 -33t31.5 -99v-101q0 -44 -12.5 -72.5t-43.5 -44t-80 -15.5h-87q-72 0 -103.5 33t-31.5 99zM129 360q0 -16 3 -25t13 -14.5t27 -5.5h50q28 0 36.5 10.5t8.5 34.5v55q0 27 -9.5 36t-33.5 9h-50q-24 0 -34.5 -9.5 t-10.5 -35.5v-55zM285 0l280 570h111l-275 -570h-116zM586 134v101q0 66 32 99t106 33h86q71 0 102.5 -33t31.5 -99v-101q0 -66 -31.5 -99t-104.5 -33h-86q-49 0 -79 15.5t-43.5 44.5t-13.5 72zM696 157q0 -24 9 -34.5t35 -10.5h50q27 0 35.5 10.5t8.5 34.5v55q0 27 -9 36 t-33 9h-50q-25 0 -35.5 -9t-10.5 -36v-55zM998 134v101q0 66 31 99t104 33h88q71 0 102.5 -33t31.5 -99v-101q0 -66 -31.5 -99t-104.5 -33h-88q-71 0 -102 33t-31 99zM1107 157q0 -16 3 -25t13 -14.5t28 -5.5h49q27 0 36.5 11t9.5 34v55q0 27 -10 36t-34 9h-49 q-25 0 -35.5 -9t-10.5 -36v-55z" />
<glyph horiz-adv-x="381" d="M34 531l104 137h116l94 -137h-101l-55 56l-56 -56h-102zM254 668z" />
<glyph horiz-adv-x="412" d="M34 592q58 71 121 71q24 0 56.5 -17.5t50.5 -17.5q45 -2 92 39l25 -66q-56 -70 -113 -70q-24 1 -59.5 18t-54.5 17q-27 0 -45.5 -8t-47.5 -27z" />
<glyph horiz-adv-x="269" d="M34 632q0 43 29.5 73t71.5 30q28 0 51 -14t36.5 -37.5t13.5 -51.5q0 -43 -29.5 -72.5t-71.5 -29.5t-71.5 29.5t-29.5 72.5zM96 632q0 -16 11.5 -27t28 -11t27.5 11t11 27t-11.5 27.5t-27.5 11.5t-27.5 -11.5t-11.5 -27.5z" />
<glyph horiz-adv-x="643" d="M29 406v66h53v98h164v-98h161v98h164v-98h48v-66h-48v-407h-164v202h-161v-202h-164v407h-53zM246 350h161v56h-161v-56z" />
<glyph horiz-adv-x="582" d="M140 630l104 138h116l94 -138h-101l-54 56l-57 -56h-102zM54 -1v571h164v-220h161v220h164v-571h-164v201h-161v-201h-164z" />
<glyph horiz-adv-x="563" d="M190 755h62q0 -24 14 -38t38 -14q54 0 54 52h62q0 -35 -15 -61t-41 -39.5t-60 -13.5q-50 0 -82 31.5t-32 82.5zM37 286q0 146 43 217t155 76q69 4 151 -2.5t128 -22.5v-114q-104 12 -204 12q-28 0 -43.5 -2.5t-30.5 -11t-21.5 -26.5t-10 -47.5t-3.5 -76.5v-8 q0 -21 0.5 -32t2.5 -30t7 -30t13 -23t22.5 -18t33.5 -6q32 0 55.5 12.5t28.5 32.5v47h-74v87q64 17 170 17q31 0 68 -3v-334h-124l-38 44q-22 -27 -53 -39t-85 -12q-40 0 -71.5 13t-51 32t-33.5 49t-20.5 53.5t-10 56t-4 47.5t-0.5 36v6z" />
<glyph horiz-adv-x="337" d="M55 630l104 138h116l94 -138h-101l-54 56l-57 -56h-102zM24 21l1 129q47 -2 70.5 5.5t30.5 22.5t8 47v345h164v-405q0 -119 -62 -149q-55 -24 -114 -21t-98 26z" />
<glyph horiz-adv-x="512" d="M233 666v84q0 25 24 25h80q23 0 23 -25v-84q0 -23 -23 -23h-80q-24 0 -24 23zM37 295q0 141 49.5 212t177.5 71q143 0 226 -32v-112q-21 4 -80 11t-102 7q-30 0 -50 -7t-31.5 -17.5t-17 -32.5t-7 -42.5t-1.5 -57.5v-16v-30.5t1 -28t4 -27t8 -22.5t13 -20t19 -14.5 t27 -10.5t35 -4q37 1 82 5t72 8l28 4v-109q-49 -22 -94.5 -28t-131.5 -6q-73 0 -120 22t-69.5 66.5t-30 92t-7.5 118.5z" />
<glyph horiz-adv-x="512" d="M131 643l104 137h116l94 -137h-101l-54 56l-57 -56h-102zM37 295q0 141 49.5 212t177.5 71q143 0 226 -32v-112q-21 4 -80 11t-102 7q-30 0 -50 -7t-31.5 -17.5t-17 -32.5t-7 -42.5t-1.5 -57.5v-16v-30.5t1 -28t4 -27t8 -22.5t13 -20t19 -14.5t27 -10.5t35 -4q37 1 82 5 t72 8l28 4v-109q-49 -22 -94.5 -28t-131.5 -6q-73 0 -120 22t-69.5 66.5t-30 92t-7.5 118.5z" />
<glyph horiz-adv-x="563" d="M231 664v84q0 24 24 24h80q11 0 17 -7t6 -17v-84q0 -24 -23 -24h-80q-10 0 -17 6.5t-7 17.5zM37 286q0 146 43 217t155 76q69 4 151 -2.5t128 -22.5v-114q-104 12 -204 12q-28 0 -43.5 -2.5t-30.5 -11t-21.5 -26.5t-10 -47.5t-3.5 -76.5v-8q0 -21 0.5 -32t2.5 -30t7 -30 t13 -23t22.5 -18t33.5 -6q32 0 55.5 12.5t28.5 32.5v47h-74v87q64 17 170 17q31 0 68 -3v-334h-124l-38 44q-22 -27 -53 -39t-85 -12q-40 0 -71.5 13t-51 32t-33.5 49t-20.5 53.5t-10 56t-4 47.5t-0.5 36v6z" />
<glyph horiz-adv-x="563" d="M142 640l104 138h116l94 -138h-101l-55 56l-56 -56h-102zM37 286q0 146 43 217t155 76q69 4 151 -2.5t128 -22.5v-114q-104 12 -204 12q-28 0 -43.5 -2.5t-30.5 -11t-21.5 -26.5t-10 -47.5t-3.5 -76.5v-8q0 -21 0.5 -32t2.5 -30t7 -30t13 -23t22.5 -18t33.5 -6 q32 0 55.5 12.5t28.5 32.5v47h-74v87q64 17 170 17q31 0 68 -3v-334h-124l-38 44q-22 -27 -53 -39t-85 -12q-40 0 -71.5 13t-51 32t-33.5 49t-20.5 53.5t-10 56t-4 47.5t-0.5 36v6z" />
<glyph horiz-adv-x="596" d="M190 744h62q0 -24 13.5 -38t38.5 -14q54 0 54 52h62q0 -52 -32.5 -83t-83.5 -31q-50 0 -82 31.5t-32 82.5zM53 260v310h165v-310q0 -70 21 -93t68 -23q44 0 64 23.5t20 92.5v310h165v-310q0 -67 -15 -116.5t-37.5 -77.5t-57 -44.5t-66.5 -21.5t-73 -5q-46 0 -79 4.5 t-68.5 20t-57 43.5t-35.5 78t-14 119z" />
<glyph horiz-adv-x="541" d="M111 634l104 138h116l94 -138h-101l-54 56l-57 -56h-102zM37 366v43q0 164 161 164q56 0 140.5 -5.5t139.5 -18.5v-117q-133 8 -243 8q-34 0 -34 -35v-23q0 -19 7.5 -25t26.5 -6h125q42 0 72 -13t45 -37t21.5 -51t6.5 -62v-40q0 -158 -145 -158q-259 0 -301 25v115 q147 -6 249 -6q12 0 20.5 7t10.5 14l2 7v28q0 16 -8 22.5t-25 6.5h-118q-84 0 -118.5 40.5t-34.5 116.5z" />
<glyph horiz-adv-x="238" d="M37 0v570h164v-570h-164zM57 656v84q0 25 24 25h80q23 0 23 -25v-84q0 -23 -23 -23h-80q-24 0 -24 23z" />
<glyph horiz-adv-x="260" d="M60 241v102q0 25 24 25h98q25 0 25 -25v-102q0 -23 -25 -23h-98q-11 0 -17.5 6.5t-6.5 16.5z" />
<glyph horiz-adv-x="308" d="M57 256v132q0 35 33 35h127q35 0 35 -35v-132q0 -32 -35 -32h-127q-15 0 -24 8.5t-9 23.5z" />
<glyph horiz-adv-x="257" d="M53 334v147q0 36 15 59t36 30t42.5 9.5t36.5 -0.5l15 -2v-64q-33 1 -33 -33v-18h12q26 0 26 -26v-102q0 -29 -26 -29h-99q-25 0 -25 29z" />
<glyph horiz-adv-x="257" d="M53 450v102q0 28 26 28h99q25 0 25 -28v-148q0 -35 -15 -58.5t-36 -30.5t-42.5 -9.5t-36.5 0.5l-15 2v64q33 -1 33 32v20h-12q-12 0 -19 6.5t-7 19.5z" />
<glyph horiz-adv-x="549" d="M218 654v84q0 25 24 25h80q11 0 17.5 -7t6.5 -18v-84q0 -23 -24 -23h-80q-10 0 -17 6.5t-7 16.5zM54 0v571h271q95 0 143.5 -37t48.5 -116q0 -30 -6.5 -54t-18.5 -39t-27 -23.5t-33 -10.5q37 -7 62.5 -39.5t25.5 -89.5q0 -89 -48 -125.5t-147 -36.5h-271zM218 135h92 q20 0 32 10t12 42q0 52 -44 52h-92v-104zM218 351h92q25 0 34 10t9 35q0 41 -43 41h-92v-86z" />
<glyph horiz-adv-x="586" d="M220 655v84q0 25 24 25h80q10 0 16 -7t6 -18v-84q0 -23 -22 -23h-80q-11 0 -17.5 6.5t-6.5 16.5zM54 0v572h277q53 -1 92.5 -17t63 -42.5t38 -65t20 -77.5t5.5 -87q0 -46 -5 -84.5t-12 -66t-19.5 -49t-24 -35.5t-29 -23.5t-30 -14t-32.5 -7t-31 -3t-30 -0.5h-6h-277z M218 142h92q24 0 39.5 11t23 32.5t10.5 43.5t3 54q0 40 -5 68.5t-15 46t-24 25t-32 7.5h-92v-288z" />
<glyph horiz-adv-x="511" d="M207 654v84q0 25 24 25h80q11 0 17 -7t6 -18v-84q0 -23 -23 -23h-80q-11 0 -17.5 6.5t-6.5 16.5zM54 0v451q0 117 134 120q225 -3 294 -16v-125h-232q-21 0 -26.5 -6.5t-5.5 -25.5v-62l226 -8v-120l-226 -8v-200h-164z" />
<glyph horiz-adv-x="776" d="M320 654v84q0 25 24 25h80q11 0 17 -7t6 -18v-84q0 -23 -23 -23h-80q-11 0 -17.5 6.5t-6.5 16.5zM37 0l53 571h214l86 -346l84 346h214l52 -571h-161l-33 330l-70 -330h-170l-72 329l-32 -329h-165z" />
<glyph horiz-adv-x="849" d="M254 771h133l84 -141h-99zM24 570h171l90 -373l83 373h170l-40 -148l76 -225l84 373h169l-152 -570h-201l-45 143l-41 -143h-203z" />
<glyph horiz-adv-x="530" d="M206 652v84q0 25 24 25h80q11 0 17 -7t6 -18v-84q0 -23 -23 -23h-80q-10 0 -17 6.5t-7 16.5zM40 0v569h279q86 0 134 -41.5t48 -143.5q0 -52 -11.5 -90t-28 -58.5t-41.5 -32t-43.5 -14.5t-42.5 -3q-12 -1 -43 1t-58 5.5t-28 5.5v-198h-165zM205 304h89q14 0 23 5t14.5 20 t5.5 40q1 66 -43 66h-89v-131z" />
<glyph horiz-adv-x="849" d="M372 630l85 141h132l-118 -141h-99zM24 570h171l90 -373l83 373h170l-40 -148l76 -225l84 373h169l-152 -570h-201l-45 143l-41 -143h-203z" />
<glyph horiz-adv-x="602" d="M128 770h133l85 -140h-100zM24 570h178l102 -197l97 197h179l-195 -372v-199h-164v199z" />
<glyph horiz-adv-x="849" d="M234 692.5q0 25.5 18 43.5t43.5 18t43.5 -18t18 -43.5t-18 -44t-43.5 -18.5t-43.5 18.5t-18 44zM488 692q0 17 8.5 31t23 22.5t31.5 8.5q25 0 43 -18t18 -44q0 -12 -5 -23.5t-13 -20t-19.5 -13.5t-23.5 -5q-26 0 -44.5 18.5t-18.5 43.5zM24 570h171l90 -373l83 373h170 l-40 -148l76 -225l84 373h169l-152 -570h-201l-45 143l-41 -143h-203z" />
<glyph horiz-adv-x="541" d="M214 656v84q0 25 24 25h80q11 0 17.5 -7t6.5 -18v-84q0 -23 -24 -23h-80q-10 0 -17 6.5t-7 16.5zM37 366v43q0 164 161 164q56 0 140.5 -5.5t139.5 -18.5v-117q-133 8 -243 8q-34 0 -34 -35v-23q0 -19 7.5 -25t26.5 -6h125q42 0 72 -13t45 -37t21.5 -51t6.5 -62v-40 q0 -158 -145 -158q-259 0 -301 25v115q147 -6 249 -6q12 0 20.5 7t10.5 14l2 7v28q0 16 -8 22.5t-25 6.5h-118q-84 0 -118.5 40.5t-34.5 116.5z" />
<glyph horiz-adv-x="849" d="M277 630l104 138h116l95 -138h-102l-54 56l-57 -56h-102zM24 570h171l90 -373l83 373h170l-40 -148l76 -225l84 373h169l-152 -570h-201l-45 143l-41 -143h-203z" />
<glyph horiz-adv-x="522" d="M198 653v84q0 25 24 25h80q11 0 17 -7t6 -18v-84q0 -23 -23 -23h-80q-11 0 -17.5 6.5t-6.5 16.5zM24 421v149h476v-149h-156v-421h-164v421h-156z" />
<glyph horiz-adv-x="602" d="M150 630l105 138h116l94 -138h-101l-54 56l-58 -56h-102zM24 570h178l102 -197l97 197h179l-195 -372v-199h-164v199z" />
<glyph horiz-adv-x="1089" d="M26 268q0 78 13 132.5t37.5 84t55 42t70.5 12.5q157 0 251 -34v-99q-81 6 -170 6q-20 0 -30 -0.5t-23 -5t-18.5 -13.5t-11.5 -25t-8 -41t-2 -61q0 -45 3 -69t13.5 -43.5t30.5 -26.5t55 -7q91 0 253 124v538h164v-400l154 150l213 -1q-23 -24 -107 -106.5t-106 -105.5 l213 -319h-191l-141 214q-33 -27 -35 -29v-185h-164v77q-136 -84 -253 -84q-43 0 -76 4t-64.5 15t-53.5 30.5t-38.5 49.5t-25 74t-8.5 102z" />
<glyph horiz-adv-x="727" d="M54 0v590q0 47 23.5 81.5t60 50.5t79.5 18t81 -11t66.5 -43t34.5 -71l101 -458q2 -14 13 -11.5t11 14.5v572h164v-588q0 -44 -24 -77.5t-59.5 -51t-78 -20t-80.5 9.5t-66 44t-35 78l-101 463q-2 7 -8 8.5t-11.5 -3t-5.5 -12.5v-583h-165z" />
<glyph horiz-adv-x="879" d="M37 0l32 613q1 39 25 67.5t59 41.5t76 12.5t76 -14t59 -44.5t26 -72l30 -282q2 -14 15.5 -13t14.5 13l28 285q1 28 12.5 51t30.5 38t43 25.5t50.5 13t53 0.5t51 -11t43 -22.5t30.5 -34t13 -45.5l39 -622h-166l-27 535q0 8 -6.5 10.5t-13 -1.5t-6.5 -12l-30 -269 q-4 -38 -36.5 -64.5t-76.5 -33t-88 -0.5t-76.5 33t-36.5 68l-34 274q-1 14 -15 9q-10 -4 -11 -16l-21 -533h-163z" />
<glyph horiz-adv-x="879" d="M368 821v84q0 25 24 25h80q10 0 16 -7t6 -18v-84q0 -23 -22 -23h-80q-11 0 -17.5 6t-6.5 17zM37 0l32 613q1 39 25 67.5t59 41.5t76 12.5t76 -14t59 -44.5t26 -72l30 -282q2 -14 15.5 -13t14.5 13l28 285q1 28 12.5 51t30.5 38t43 25.5t50.5 13t53 0.5t51 -11t43 -22.5 t30.5 -34t13 -45.5l39 -622h-166l-27 535q0 8 -6.5 10.5t-13 -1.5t-6.5 -12l-30 -269q-4 -38 -36.5 -64.5t-76.5 -33t-88 -0.5t-76.5 33t-36.5 68l-34 274q-1 14 -15 9q-10 -4 -11 -16l-21 -533h-163z" />
<glyph horiz-adv-x="727" d="M208 860q58 72 122 72q23 0 55.5 -17.5t50.5 -17.5q45 -2 92 39l25 -66q-56 -70 -113 -70q-19 1 -39.5 9.5t-39 17t-34.5 8.5q-28 0 -46.5 -8t-47.5 -27zM54 0v590q0 47 23.5 81.5t60 50.5t79.5 18t81 -11t66.5 -43t34.5 -71l101 -458q2 -14 13 -11.5t11 14.5v572h164 v-588q0 -44 -24 -77.5t-59.5 -51t-78 -20t-80.5 9.5t-66 44t-35 78l-101 463q-2 7 -8 8.5t-11.5 -3t-5.5 -12.5v-583h-165z" />
<glyph horiz-adv-x="727" d="M309 800l84 140h133l-118 -140h-99zM54 0v590q0 47 23.5 81.5t60 50.5t79.5 18t81 -11t66.5 -43t34.5 -71l101 -458q2 -14 13 -11.5t11 14.5v572h164v-588q0 -44 -24 -77.5t-59.5 -51t-78 -20t-80.5 9.5t-66 44t-35 78l-101 463q-2 7 -8 8.5t-11.5 -3t-5.5 -12.5v-583 h-165z" />
<glyph horiz-adv-x="727" d="M227 938h101l57 -56l55 56h102l-102 -138h-116zM54 0v590q0 47 23.5 81.5t60 50.5t79.5 18t81 -11t66.5 -43t34.5 -71l101 -458q2 -14 13 -11.5t11 14.5v572h164v-588q0 -44 -24 -77.5t-59.5 -51t-78 -20t-80.5 9.5t-66 44t-35 78l-101 463q-2 7 -8 8.5t-11.5 -3 t-5.5 -12.5v-583h-165z" />
<glyph horiz-adv-x="727" d="M298 -192v90q0 24 22 24h87q21 0 21 -24v-122q0 -21 -7 -36.5t-18 -23t-24.5 -11.5t-27 -4t-24.5 1t-18 3l-7 2v49q13 -1 19.5 3t7.5 8t1 10v9h-10q-22 0 -22 22zM54 0v590q0 47 23.5 81.5t60 50.5t79.5 18t81 -11t66.5 -43t34.5 -71l101 -458q2 -14 13 -11.5t11 14.5 v572h164v-588q0 -44 -24 -77.5t-59.5 -51t-78 -20t-80.5 9.5t-66 44t-35 78l-101 463q-2 7 -8 8.5t-11.5 -3t-5.5 -12.5v-583h-165z" />
<glyph horiz-adv-x="463" d="M40 378v233q0 63 35 95.5t101 32.5h118q130 0 130 -123v-238q0 -61 -34 -92t-96 -31h-119q-135 0 -135 123zM166 408q0 -24 11 -31.5t32 -7.5h48q23 0 32.5 7.5t9.5 30.5v180q0 21 -9 29.5t-29 8.5h-56q-15 0 -24 -3.5t-11.5 -11.5t-3 -11t-0.5 -12v-179z" />
<glyph horiz-adv-x="270" d="M11 612v72l93 56h123v-485h-125v376z" />
<glyph horiz-adv-x="409" d="M21 632l-0.5 23.5t0 47l0.5 23.5q103 20 207 20q77 0 115.5 -40t38.5 -108q0 -99 -167 -229h167v-114h-358v109q29 19 62 43t74.5 57.5t68.5 66t27 54.5q0 28 -17 37.5t-61 9.5h-157z" />
<glyph horiz-adv-x="414" d="M20 628v93q29 10 67.5 15.5t76 5.5t80.5 -1q60 0 95 -33t35 -89v-28q0 -75 -59 -95q59 -20 59 -101v-21q0 -39 -15 -66.5t-45.5 -42.5t-74.5 -15h-23.5h-24t-22 0.5t-23 1t-21 1t-22 1.5t-20 2.5t-21 3.5t-19 4.5t-19.5 6.5l1 93h156q41 0 55 6t14 26v9q0 20 -15.5 27 t-49.5 8l-119 5v100l119 8q37 1 51.5 7.5t14.5 25.5v10q0 19 -16.5 25.5t-49.5 6.5h-165z" />
<glyph horiz-adv-x="440" d="M11 400l157 339h130l-124 -277h87v96l23 50h102v-146h44v-97l-44 -6v-102h-125v88h-227z" />
<glyph horiz-adv-x="418" d="M37 269v99h187q15 0 24.5 2.5t13 9t4.5 10.5t1 12v25q0 17 -7.5 26.5t-29.5 9.5h-51q-34 0 -34 -37h-107l15 313h318v-114h-209l-4 -70q32 23 115 16q60 -4 89.5 -39t29.5 -91v-64q0 -33 -11.5 -57.5t-31 -39t-42.5 -21.5t-50 -7q-73 0 -114 2.5t-106 14.5z" />
<glyph horiz-adv-x="438" d="M36 510q0 66 10 112t28.5 71t39 36t47.5 15q94 13 233 -16v-95h-168q-18 0 -31 -5.5t-19.5 -13t-9.5 -21.5t-4 -23t-1 -26q42 16 122 16q72 0 100 -32t28 -90v-65q0 -118 -131 -118h-102q-34 0 -58 10.5t-44 37.5t-30 78.5t-10 128.5zM161 452q0 -41 11.5 -62t45.5 -21 h34q19 0 26.5 6.5t7.5 22.5v23q0 19 -5.5 25t-24.5 6h-95z" />
<glyph horiz-adv-x="409" d="M10 626v114h357l32 -52l-184 -433h-136l157 371h-226z" />
<glyph horiz-adv-x="463" d="M44 370v41q0 29 14 50t42 25q-35 16 -45.5 39t-10.5 60v42q0 116 136 116h113q42 0 69.5 -11t42.5 -36.5t15 -67.5v-31q0 -12 -3 -26t-16.5 -30.5t-34.5 -19.5q16 -3 27.5 -13.5t16.5 -26t7.5 -28.5t2.5 -26v-53q0 -37 -10 -61.5t-29 -36.5t-39.5 -16.5t-47.5 -4.5h-115 q-31 0 -54.5 5t-37.5 15t-23 20.5t-13 25t-5.5 25t-1.5 24.5zM169 392q0 -16 8 -22.5t28 -6.5h55q20 0 27 7t7 22v28q0 16 -7 23.5t-27 7.5h-55q-21 0 -28.5 -7t-7.5 -24v-28zM169 584q0 -18 8.5 -24.5t27.5 -6.5h54q23 0 29 7.5t6 23.5v19q0 20 -9 26.5t-27 6.5h-51 q-14 0 -21.5 -2.5t-12 -9.5t-4.5 -21v-19z" />
<glyph horiz-adv-x="438" d="M30 561v65q0 120 131 120h102q34 0 58.5 -10.5t44 -38t29.5 -80t10 -131.5q0 -67 -10 -113.5t-28.5 -71.5t-38.5 -36.5t-48 -15.5q-96 -14 -232 14v96h167q18 0 31 6t19.5 13.5t9.5 22t4 24.5t1 27q-42 -15 -121 -15q-73 0 -101 32.5t-28 91.5zM155 578q0 -20 6 -26.5 t25 -6.5h94q0 44 -11 66t-45 22h-36q-18 0 -25.5 -7t-7.5 -25v-23z" />
<glyph horiz-adv-x="463" d="M40 124v232q0 63 35 95.5t101 32.5h118q130 0 130 -124v-236q0 -62 -34 -93t-96 -31h-119q-135 0 -135 124zM166 153q0 -24 11 -31.5t32 -7.5h48q23 0 32.5 7.5t9.5 30.5v180q0 21 -9 29.5t-29 8.5h-56q-15 0 -24 -3.5t-11.5 -11.5t-3 -11t-0.5 -12v-179z" />
<glyph horiz-adv-x="270" d="M11 358v72l93 54h123v-484h-125v376z" />
<glyph horiz-adv-x="409" d="M21 378l-0.5 23t0 46.5l0.5 23.5q103 20 207 20q52 0 87 -19.5t51 -52t16 -77.5q0 -98 -167 -228h167v-114h-358v110q30 20 62.5 44.5t74 59t68.5 68t27 55.5q0 24 -17.5 32.5t-60.5 8.5h-157z" />
<glyph horiz-adv-x="414" d="M20 373v92q66 24 224 21q60 0 95 -33t35 -89v-28q0 -75 -59 -95q59 -20 59 -101v-21q0 -39 -15 -66.5t-45.5 -42t-74.5 -14.5q-5 0 -23.5 -0.5t-24 -0.5t-22 0.5t-23 1t-21 1t-22 1.5t-20 2.5t-21 3.5t-19 4.5t-19.5 6.5l1 93h156q29 0 42.5 2.5t20 9t6.5 20.5v9 q0 20 -15.5 27t-49.5 8l-119 5v100l119 8q37 1 51.5 7.5t14.5 25.5v9q0 19 -16.5 26t-49.5 7h-165z" />
<glyph horiz-adv-x="440" d="M11 146l157 338h130l-124 -277h87v95l23 51h102v-146h44v-97l-44 -20v-88h-125v88h-227z" />
<glyph horiz-adv-x="418" d="M37 14v99h187q15 0 24.5 2.5t13 8.5t4.5 10t1 12v24q0 16 -7.5 25t-29.5 9h-51q-34 0 -34 -24h-107l15 304h318v-114h-209l-4 -74q31 23 115 16q60 -3 89.5 -37.5t29.5 -90.5v-64q0 -62 -39 -92.5t-96 -30.5q-73 0 -114 2.5t-106 14.5z" />
<glyph horiz-adv-x="438" d="M36 255q0 65 10 111t28.5 70.5t39 36t47.5 14.5q93 13 233 -13v-96h-168q-15 0 -26.5 -3.5t-18.5 -10.5t-11 -14t-6 -19t-2.5 -20t-0.5 -22q42 16 122 16q72 0 100 -32t28 -90v-65q0 -118 -131 -118h-102q-34 0 -58.5 10.5t-44 37.5t-29.5 78.5t-10 128.5zM161 197 q0 -41 11.5 -62t45.5 -21h34q19 0 26.5 6.5t7.5 22.5v23q0 19 -5.5 25t-24.5 6h-95z" />
<glyph horiz-adv-x="409" d="M10 371v113h357l32 -52l-184 -432h-137l158 371h-226z" />
<glyph horiz-adv-x="463" d="M44 115v41q0 14 3.5 26.5t10 23t17.5 17.5t25 9q-19 8 -31 18.5t-17 24.5t-6.5 25.5t-1.5 29.5v42q0 116 136 116h113q42 0 69.5 -11t42.5 -36.5t15 -66.5v-32q0 -12 -3 -26t-16.5 -30t-34.5 -19q16 -3 27.5 -14t16.5 -26t7.5 -28t2.5 -26v-53q0 -38 -10 -62.5t-29 -36.5 t-39.5 -16.5t-47.5 -4.5h-115q-37 0 -63 8t-39.5 19t-21.5 28.5t-9.5 30t-1.5 29.5zM169 137q0 -16 8 -22.5t28 -6.5h55q20 0 27 7t7 22v28q0 8 -1.5 13.5t-5 9.5t-10.5 6t-17 2h-55q-21 0 -28.5 -7t-7.5 -24v-28zM169 328q0 -17 8.5 -23.5t27.5 -6.5h54q23 0 29 7.5t6 22.5 v20q0 20 -9 26t-27 6h-51q-14 0 -21.5 -2t-12 -9t-4.5 -21v-20z" />
<glyph horiz-adv-x="438" d="M30 302v65q0 119 131 119h102q27 0 47.5 -6t39 -22.5t30 -45t18.5 -73.5t7 -107q0 -66 -10 -111.5t-28.5 -70t-39 -35.5t-47.5 -15q-76 -11 -232 8v96h167q18 0 31 5.5t19.5 13t9.5 21.5t4 23.5t1 26.5q-40 -15 -121 -15q-38 0 -64 9t-40 27t-19.5 38.5t-5.5 48.5z M155 319q0 -20 6 -26.5t25 -6.5h94q0 43 -11.5 64.5t-44.5 21.5h-36q-18 0 -25.5 -6.5t-7.5 -23.5v-23z" />
<glyph horiz-adv-x="1061" d="M26 266q0 78 13 132t37.5 83.5t55 42t70.5 12.5q157 0 251 -34v-98q-81 6 -170 6q-17 0 -26 -0.5t-21 -3t-17.5 -8.5t-12 -16.5t-9.5 -26.5t-5 -39t-2 -54q0 -61 11.5 -92.5t31.5 -40.5t59 -9q69 0 101 1t70 7t52 19.5t24.5 37t10.5 60.5v537h163v-306q22 19 39 31 t49.5 22.5t70.5 10.5q47 0 79 -14.5t48.5 -42.5t23 -60t6.5 -75v-348h-164v350q0 24 -6 38t-16 20t-25 6q-67 0 -104 -42v-141q0 -42 -8.5 -76.5t-23 -58.5t-37 -42.5t-45.5 -30t-54.5 -18.5t-59 -10t-63.5 -4t-63 0t-62.5 1.5t-57.5 0.5q-33 0 -60.5 6t-57 23.5t-49.5 46.5 t-33.5 79.5t-13.5 117.5z" />
<glyph horiz-adv-x="864" d="M40 0v468q71 46 127.5 59t172.5 13q25 0 50 -5t47.5 -14.5t35.5 -21.5q88 41 203 41q76 0 116 -48t40 -122v-370h-164v340q0 18 -2 30t-7.5 20.5t-15 12t-23.5 3.5q-32 0 -55.5 -5.5t-46.5 -24.5q2 -6 2 -30v-346h-164v340q0 36 -11 51t-38 15q-32 0 -55.5 -5.5 t-47.5 -24.5v-376h-164z" />
<glyph d="M40 0v468q70 45 130 58.5t178 13.5q78 0 125 -48.5t47 -121.5v-370h-164v340q0 36 -11 51t-38 15q-32 0 -55.5 -5.5t-47.5 -24.5v-376h-164z" />
<glyph d="M107 660q59 72 122 72q24 0 56.5 -17.5t49.5 -17.5q46 -2 93 39l25 -66q-56 -70 -113 -70q-24 1 -59.5 18t-54.5 17q-27 0 -45.5 -8t-47.5 -27zM40 0v468q70 45 130 58.5t178 13.5q78 0 125 -48.5t47 -121.5v-370h-164v340q0 36 -11 51t-38 15q-32 0 -55.5 -5.5 t-47.5 -24.5v-376h-164z" />
<glyph d="M224 -186v89q0 24 22 24h86q22 0 22 -24v-121q0 -30 -13 -48t-31.5 -22.5t-37 -5t-31.5 2.5l-13 3v49q12 0 19 4t8 7.5t1 9.5v10h-10q-22 0 -22 22zM40 0v468q70 45 130 58.5t178 13.5q78 0 125 -48.5t47 -121.5v-370h-164v340q0 36 -11 51t-38 15q-32 0 -55.5 -5.5 t-47.5 -24.5v-376h-164z" />
<glyph d="M140 738h101l57 -56l55 56h101l-100 -138h-116zM40 0v468q70 45 130 58.5t178 13.5q78 0 125 -48.5t47 -121.5v-370h-164v340q0 36 -11 51t-38 15q-32 0 -55.5 -5.5t-47.5 -24.5v-376h-164z" />
<glyph d="M238 600l84 140h133l-118 -140h-99zM40 0v468q70 45 130 58.5t178 13.5q78 0 125 -48.5t47 -121.5v-370h-164v340q0 36 -11 51t-38 15q-32 0 -55.5 -5.5t-47.5 -24.5v-376h-164z" />
<glyph horiz-adv-x="864" d="M391 623v84q0 25 24 25h80q11 0 17 -7t6 -18v-84q0 -23 -23 -23h-80q-10 0 -17 6.5t-7 16.5zM40 0v468q71 46 127.5 59t172.5 13q25 0 50 -5t47.5 -14.5t35.5 -21.5q88 41 203 41q76 0 116 -48t40 -122v-370h-164v340q0 18 -2 30t-7.5 20.5t-15 12t-23.5 3.5 q-32 0 -55.5 -5.5t-46.5 -24.5q2 -6 2 -30v-346h-164v340q0 36 -11 51t-38 15q-32 0 -55.5 -5.5t-47.5 -24.5v-376h-164z" />
<glyph horiz-adv-x="410" d="M40 0v476q58 46 143.5 59.5t213.5 2.5v-142q-118 20 -193 -12v-384h-164z" />
<glyph horiz-adv-x="410" d="M180 603l84 140h132l-118 -140h-98zM40 0v476q58 46 143.5 59.5t213.5 2.5v-142q-118 20 -193 -12v-384h-164z" />
<glyph horiz-adv-x="410" d="M84 740h101l57 -56l55 56h101l-100 -137h-116zM40 0v476q58 46 143.5 59.5t213.5 2.5v-142q-118 20 -193 -12v-384h-164z" />
<glyph horiz-adv-x="410" d="M62 -186v89q0 24 23 24h86q22 0 22 -24v-121q0 -30 -13 -48t-31.5 -22.5t-37.5 -5t-31 2.5l-13 3v49q12 0 18.5 4t7.5 7.5t1 9.5v10h-9q-23 0 -23 22zM34 0v476q58 46 143.5 59.5t213.5 2.5v-142q-118 20 -193 -12v-384h-164z" />
<glyph horiz-adv-x="598" d="M13 0l111 222q17 33 16 50.5t-20 53.5l-107 205h175l87 -171q10 -15 12 -89t-7 -86l-92 -185h-175zM318 185q-8 12 -6 87.5t11 87.5l87 171h175l-107 -205q-19 -36 -19.5 -53.5t15.5 -50.5l111 -222h-175z" />
<glyph horiz-adv-x="672" d="M13 0l141 305q11 24 15 40t2 34.5t-8 33.5t-19 44l-131 275h171l128 -245q8 -14 10 -111t-5 -109l-125 -267h-179zM355 267q-7 12 -5 109.5t10 110.5l128 245h172l-131 -275q-25 -54 -27.5 -78t17.5 -74l141 -305h-179z" />
<glyph horiz-adv-x="533" d="M34 146v34q0 18 1 32t5 30t11.5 27.5t20 22.5t29.5 17.5t42.5 10.5t56.5 4h136q0 33 -4 50t-17.5 27t-31 12t-53.5 2q-75 0 -186 -12v97q73 25 121.5 31t142.5 6q49 0 83.5 -12.5t55.5 -34t32.5 -58t16 -75.5t4.5 -95v-91q0 -89 -38 -130t-118 -41h-144q-78 0 -122 33 t-44 113zM198 161q0 -12 1 -19.5t5.5 -13t12.5 -7.5t22 -2h51q18 0 27.5 4t14 14t4.5 28v63l-98 -6q-17 -2 -25.5 -6.5t-11.5 -13t-3 -22.5v-19z" />
<glyph horiz-adv-x="533" d="M116 738h132l85 -141h-99zM34 146v34q0 18 1 32t5 30t11.5 27.5t20 22.5t29.5 17.5t42.5 10.5t56.5 4h136q0 33 -4 50t-17.5 27t-31 12t-53.5 2q-75 0 -186 -12v97q73 25 121.5 31t142.5 6q49 0 83.5 -12.5t55.5 -34t32.5 -58t16 -75.5t4.5 -95v-91q0 -89 -38 -130 t-118 -41h-144q-78 0 -122 33t-44 113zM198 161q0 -12 1 -19.5t5.5 -13t12.5 -7.5t22 -2h51q18 0 27.5 4t14 14t4.5 28v63l-98 -6q-17 -2 -25.5 -6.5t-11.5 -13t-3 -22.5v-19z" />
<glyph horiz-adv-x="533" d="M228 597l85 141h132l-118 -141h-99zM34 146v34q0 18 1 32t5 30t11.5 27.5t20 22.5t29.5 17.5t42.5 10.5t56.5 4h136q0 33 -4 50t-17.5 27t-31 12t-53.5 2q-75 0 -186 -12v97q73 25 121.5 31t142.5 6q49 0 83.5 -12.5t55.5 -34t32.5 -58t16 -75.5t4.5 -95v-91 q0 -89 -38 -130t-118 -41h-144q-78 0 -122 33t-44 113zM198 161q0 -12 1 -19.5t5.5 -13t12.5 -7.5t22 -2h51q18 0 27.5 4t14 14t4.5 28v63l-98 -6q-17 -2 -25.5 -6.5t-11.5 -13t-3 -22.5v-19z" />
<glyph horiz-adv-x="533" d="M107 658q59 71 122 71q24 0 56.5 -17.5t49.5 -17.5q46 -2 93 39l25 -66q-56 -70 -113 -70q-24 1 -59.5 18t-54.5 17q-27 0 -45.5 -8t-47.5 -27zM34 146v34q0 18 1 32t5 30t11.5 27.5t20 22.5t29.5 17.5t42.5 10.5t56.5 4h136q0 33 -4 50t-17.5 27t-31 12t-53.5 2 q-75 0 -186 -12v97q73 25 121.5 31t142.5 6q49 0 83.5 -12.5t55.5 -34t32.5 -58t16 -75.5t4.5 -95v-91q0 -89 -38 -130t-118 -41h-144q-78 0 -122 33t-44 113zM198 161q0 -12 1 -19.5t5.5 -13t12.5 -7.5t22 -2h51q18 0 27.5 4t14 14t4.5 28v63l-98 -6q-17 -2 -25.5 -6.5 t-11.5 -13t-3 -22.5v-19z" />
<glyph horiz-adv-x="533" d="M177 699q0 28 13.5 52t37 37.5t51 13.5t51 -13.5t37 -37.5t13.5 -52t-13.5 -51.5t-37 -37t-51 -13.5t-51 13.5t-37 37t-13.5 51.5zM239 699q0 -16 11.5 -27t28 -11t27.5 11t11 27t-11 27.5t-27.5 11.5t-28 -11.5t-11.5 -27.5zM34 146v34q0 18 1 32t5 30t11.5 27.5 t20 22.5t29.5 17.5t42.5 10.5t56.5 4h136q0 33 -4 50t-17.5 27t-31 12t-53.5 2q-75 0 -186 -12v97q73 25 121.5 31t142.5 6q49 0 83.5 -12.5t55.5 -34t32.5 -58t16 -75.5t4.5 -95v-91q0 -89 -38 -130t-118 -41h-144q-78 0 -122 33t-44 113zM198 161q0 -12 1 -19.5t5.5 -13 t12.5 -7.5t22 -2h51q18 0 27.5 4t14 14t4.5 28v63l-98 -6q-17 -2 -25.5 -6.5t-11.5 -13t-3 -22.5v-19z" />
<glyph horiz-adv-x="533" d="M121 597l104 138h116l94 -138h-101l-54 56l-57 -56h-102zM34 146v34q0 18 1 32t5 30t11.5 27.5t20 22.5t29.5 17.5t42.5 10.5t56.5 4h136q0 33 -4 50t-17.5 27t-31 12t-53.5 2q-75 0 -186 -12v97q73 25 121.5 31t142.5 6q49 0 83.5 -12.5t55.5 -34t32.5 -58t16 -75.5 t4.5 -95v-91q0 -89 -38 -130t-118 -41h-144q-78 0 -122 33t-44 113zM198 161q0 -12 1 -19.5t5.5 -13t12.5 -7.5t22 -2h51q18 0 27.5 4t14 14t4.5 28v63l-98 -6q-17 -2 -25.5 -6.5t-11.5 -13t-3 -22.5v-19z" />
<glyph horiz-adv-x="533" d="M91 659.5q0 25.5 18.5 43.5t44 18t43.5 -18t18 -44q0 -16 -8 -30.5t-22.5 -23t-30.5 -8.5q-26 0 -44.5 18.5t-18.5 44zM346 659.5q0 25.5 18.5 43.5t44 18t43.5 -18t18 -43.5t-18 -44t-43.5 -18.5t-44 18.5t-18.5 44zM34 146v34q0 18 1 32t5 30t11.5 27.5t20 22.5 t29.5 17.5t42.5 10.5t56.5 4h136q0 33 -4 50t-17.5 27t-31 12t-53.5 2q-75 0 -186 -12v97q73 25 121.5 31t142.5 6q49 0 83.5 -12.5t55.5 -34t32.5 -58t16 -75.5t4.5 -95v-91q0 -89 -38 -130t-118 -41h-144q-78 0 -122 33t-44 113zM198 161q0 -12 1 -19.5t5.5 -13t12.5 -7.5 t22 -2h51q18 0 27.5 4t14 14t4.5 28v63l-98 -6q-17 -2 -25.5 -6.5t-11.5 -13t-3 -22.5v-19z" />
<glyph horiz-adv-x="537" d="M367 17h62q-23 -16 -34 -33t-10 -30t8 -23.5t19.5 -15.5t26.5 -4v-82q-21 -5 -43.5 -2.5t-40 14t-32 27t-19 35.5t-2 39.5t19.5 39.5t45 35zM34 146v34q0 18 1 32t5 30t11.5 27.5t20 22.5t29.5 17.5t42.5 10.5t56.5 4h136q0 33 -4 50t-17.5 27t-31 12t-53.5 2 q-75 0 -186 -12v97q73 25 121.5 31t142.5 6q49 0 83.5 -12.5t55.5 -34t32.5 -58t16 -75.5t4.5 -95v-91q0 -89 -38 -130t-118 -41h-144q-78 0 -122 33t-44 113zM198 161q0 -12 1 -19.5t5.5 -13t12.5 -7.5t22 -2h51q18 0 27.5 4t14 14t4.5 28v63l-98 -6q-17 -2 -25.5 -6.5 t-11.5 -13t-3 -22.5v-19z" />
<glyph horiz-adv-x="533" d="M164 711h62q0 -24 14 -38t38 -14q54 0 54 52h62q0 -34 -15 -60t-41.5 -40t-59.5 -14q-50 0 -82 31.5t-32 82.5zM34 146v34q0 18 1 32t5 30t11.5 27.5t20 22.5t29.5 17.5t42.5 10.5t56.5 4h136q0 33 -4 50t-17.5 27t-31 12t-53.5 2q-75 0 -186 -12v97q73 25 121.5 31 t142.5 6q49 0 83.5 -12.5t55.5 -34t32.5 -58t16 -75.5t4.5 -95v-91q0 -89 -38 -130t-118 -41h-144q-78 0 -122 33t-44 113zM198 161q0 -12 1 -19.5t5.5 -13t12.5 -7.5t22 -2h51q18 0 27.5 4t14 14t4.5 28v63l-98 -6q-17 -2 -25.5 -6.5t-11.5 -13t-3 -22.5v-19z" />
<glyph horiz-adv-x="533" d="M133 597v86h292v-86h-292zM34 146v34q0 18 1 32t5 30t11.5 27.5t20 22.5t29.5 17.5t42.5 10.5t56.5 4h136q0 33 -4 50t-17.5 27t-31 12t-53.5 2q-75 0 -186 -12v97q73 25 121.5 31t142.5 6q49 0 83.5 -12.5t55.5 -34t32.5 -58t16 -75.5t4.5 -95v-91q0 -89 -38 -130 t-118 -41h-144q-78 0 -122 33t-44 113zM198 161q0 -12 1 -19.5t5.5 -13t12.5 -7.5t22 -2h51q18 0 27.5 4t14 14t4.5 28v63l-98 -6q-17 -2 -25.5 -6.5t-11.5 -13t-3 -22.5v-19z" />
<glyph d="M34 163v370h164v-340q0 -36 10.5 -51t37.5 -15q76 0 102 23v383h164v-476q-35 -26 -74.5 -40t-89 -19t-128.5 -5q-95 0 -140.5 47t-45.5 123z" />
<glyph d="M142 596l84 140h133l-118 -140h-99zM305 596l85 140h132l-118 -140h-99zM34 163v370h164v-340q0 -36 10.5 -51t37.5 -15q76 0 102 23v383h164v-476q-35 -26 -74.5 -40t-89 -19t-128.5 -5q-95 0 -140.5 47t-45.5 123z" />
<glyph d="M106 736h132l84 -140h-98zM34 163v370h164v-340q0 -36 10.5 -51t37.5 -15q76 0 102 23v383h164v-476q-35 -26 -74.5 -40t-89 -19t-128.5 -5q-95 0 -140.5 47t-45.5 123z" />
<glyph d="M224 596l84 140h132l-118 -140h-98zM34 163v370h164v-340q0 -36 10.5 -51t37.5 -15q76 0 102 23v383h164v-476q-35 -26 -74.5 -40t-89 -19t-128.5 -5q-95 0 -140.5 47t-45.5 123z" />
<glyph d="M100 656q59 72 122 72q24 0 56.5 -17.5t49.5 -17.5q46 -2 93 39l25 -66q-56 -70 -113 -70q-24 1 -59.5 18t-54.5 17q-27 0 -45.5 -8t-47.5 -27zM34 163v370h164v-340q0 -36 10.5 -51t37.5 -15q76 0 102 23v383h164v-476q-35 -26 -74.5 -40t-89 -19t-128.5 -5 q-95 0 -140.5 47t-45.5 123z" />
</font>
</defs>
</svg>
